%TF.GenerationSoftware,KiCad,Pcbnew,8.0.4*%
%TF.CreationDate,2024-11-18T10:18:22-08:00*%
%TF.ProjectId,Channel,4368616e-6e65-46c2-9e6b-696361645f70,rev?*%
%TF.SameCoordinates,Original*%
%TF.FileFunction,Paste,Top*%
%TF.FilePolarity,Positive*%
%FSLAX46Y46*%
G04 Gerber Fmt 4.6, Leading zero omitted, Abs format (unit mm)*
G04 Created by KiCad (PCBNEW 8.0.4) date 2024-11-18 10:18:22*
%MOMM*%
%LPD*%
G01*
G04 APERTURE LIST*
G04 Aperture macros list*
%AMRoundRect*
0 Rectangle with rounded corners*
0 $1 Rounding radius*
0 $2 $3 $4 $5 $6 $7 $8 $9 X,Y pos of 4 corners*
0 Add a 4 corners polygon primitive as box body*
4,1,4,$2,$3,$4,$5,$6,$7,$8,$9,$2,$3,0*
0 Add four circle primitives for the rounded corners*
1,1,$1+$1,$2,$3*
1,1,$1+$1,$4,$5*
1,1,$1+$1,$6,$7*
1,1,$1+$1,$8,$9*
0 Add four rect primitives between the rounded corners*
20,1,$1+$1,$2,$3,$4,$5,0*
20,1,$1+$1,$4,$5,$6,$7,0*
20,1,$1+$1,$6,$7,$8,$9,0*
20,1,$1+$1,$8,$9,$2,$3,0*%
G04 Aperture macros list end*
%ADD10RoundRect,0.225000X-0.225000X-0.250000X0.225000X-0.250000X0.225000X0.250000X-0.225000X0.250000X0*%
%ADD11RoundRect,0.125000X-0.687500X-0.125000X0.687500X-0.125000X0.687500X0.125000X-0.687500X0.125000X0*%
%ADD12RoundRect,0.250000X-0.250000X-0.475000X0.250000X-0.475000X0.250000X0.475000X-0.250000X0.475000X0*%
%ADD13RoundRect,0.075000X-0.910000X-0.225000X0.910000X-0.225000X0.910000X0.225000X-0.910000X0.225000X0*%
%ADD14RoundRect,0.237500X0.250000X0.237500X-0.250000X0.237500X-0.250000X-0.237500X0.250000X-0.237500X0*%
%ADD15RoundRect,0.160000X-0.197500X-0.160000X0.197500X-0.160000X0.197500X0.160000X-0.197500X0.160000X0*%
%ADD16RoundRect,0.237500X-0.250000X-0.237500X0.250000X-0.237500X0.250000X0.237500X-0.250000X0.237500X0*%
%ADD17RoundRect,0.250000X-0.350000X-0.450000X0.350000X-0.450000X0.350000X0.450000X-0.350000X0.450000X0*%
%ADD18RoundRect,0.075000X0.910000X0.225000X-0.910000X0.225000X-0.910000X-0.225000X0.910000X-0.225000X0*%
%ADD19RoundRect,0.225000X0.225000X0.250000X-0.225000X0.250000X-0.225000X-0.250000X0.225000X-0.250000X0*%
G04 APERTURE END LIST*
D10*
%TO.C,C7*%
X117830000Y-88900000D03*
X119380000Y-88900000D03*
%TD*%
D11*
%TO.C,U1*%
X82977500Y-80305000D03*
X82977500Y-80955000D03*
X82977500Y-81605000D03*
X82977500Y-82255000D03*
X87202500Y-82255000D03*
X87202500Y-81605000D03*
X87202500Y-80955000D03*
X87202500Y-80305000D03*
%TD*%
D12*
%TO.C,C3*%
X91760000Y-84290000D03*
X93660000Y-84290000D03*
%TD*%
%TO.C,C2*%
X91760000Y-81280000D03*
X93660000Y-81280000D03*
%TD*%
%TO.C,C1*%
X89220000Y-74930000D03*
X91120000Y-74930000D03*
%TD*%
D13*
%TO.C,U3*%
X99130000Y-85090000D03*
X99130000Y-86360000D03*
X99130000Y-87630000D03*
X99130000Y-88900000D03*
X104070000Y-88900000D03*
X104070000Y-87630000D03*
X104070000Y-86360000D03*
X104070000Y-85090000D03*
%TD*%
D14*
%TO.C,R2*%
X91440000Y-87630000D03*
X89615000Y-87630000D03*
%TD*%
D15*
%TO.C,R6*%
X104812500Y-81280000D03*
X106007500Y-81280000D03*
%TD*%
%TO.C,R1*%
X82550000Y-76200000D03*
X83745000Y-76200000D03*
%TD*%
D13*
%TO.C,U2*%
X99130000Y-74295000D03*
X99130000Y-75565000D03*
X99130000Y-76835000D03*
X99130000Y-78105000D03*
X104070000Y-78105000D03*
X104070000Y-76835000D03*
X104070000Y-75565000D03*
X104070000Y-74295000D03*
%TD*%
D16*
%TO.C,R11*%
X108307500Y-88900000D03*
X110132500Y-88900000D03*
%TD*%
D12*
%TO.C,C4*%
X93350000Y-74930000D03*
X95250000Y-74930000D03*
%TD*%
D16*
%TO.C,R7*%
X108307500Y-85090000D03*
X110132500Y-85090000D03*
%TD*%
D15*
%TO.C,R12*%
X125805000Y-74930000D03*
X127000000Y-74930000D03*
%TD*%
D17*
%TO.C,R5*%
X100600000Y-81280000D03*
X102600000Y-81280000D03*
%TD*%
D14*
%TO.C,R4*%
X95250000Y-87630000D03*
X93425000Y-87630000D03*
%TD*%
D12*
%TO.C,C8*%
X122240000Y-74930000D03*
X124140000Y-74930000D03*
%TD*%
D18*
%TO.C,U4*%
X114230000Y-76835000D03*
X114230000Y-75565000D03*
X114230000Y-74295000D03*
X114230000Y-73025000D03*
X109290000Y-73025000D03*
X109290000Y-74295000D03*
X109290000Y-75565000D03*
X109290000Y-76835000D03*
%TD*%
D15*
%TO.C,R10*%
X113105000Y-88900000D03*
X114300000Y-88900000D03*
%TD*%
D17*
%TO.C,R9*%
X113020000Y-81280000D03*
X115020000Y-81280000D03*
%TD*%
D10*
%TO.C,C5*%
X117830000Y-74930000D03*
X119380000Y-74930000D03*
%TD*%
D17*
%TO.C,R3*%
X91710000Y-78740000D03*
X93710000Y-78740000D03*
%TD*%
D19*
%TO.C,C6*%
X110490000Y-81280000D03*
X108940000Y-81280000D03*
%TD*%
D16*
%TO.C,R8*%
X112117500Y-85090000D03*
X113942500Y-85090000D03*
%TD*%
D18*
%TO.C,U5*%
X123050000Y-81915000D03*
X123050000Y-80645000D03*
X123050000Y-79375000D03*
X123050000Y-78105000D03*
X118110000Y-78105000D03*
X118110000Y-79375000D03*
X118110000Y-80645000D03*
X118110000Y-81915000D03*
%TD*%
M02*
