%TF.GenerationSoftware,KiCad,Pcbnew,8.0.4*%
%TF.CreationDate,2024-07-21T02:26:01-05:00*%
%TF.ProjectId,Glass,476c6173-732e-46b6-9963-61645f706362,rev?*%
%TF.SameCoordinates,Original*%
%TF.FileFunction,Drillmap*%
%TF.FilePolarity,Positive*%
%FSLAX45Y45*%
G04 Gerber Fmt 4.5, Leading zero omitted, Abs format (unit mm)*
G04 Created by KiCad (PCBNEW 8.0.4) date 2024-07-21 02:26:01*
%MOMM*%
%LPD*%
G01*
G04 APERTURE LIST*
%ADD10C,0.100000*%
%ADD11C,0.200000*%
%ADD12C,0.102000*%
G04 APERTURE END LIST*
D10*
X23095000Y-4097000D02*
X8150000Y-4097000D01*
X23095000Y-7011000D02*
X8150000Y-7011000D01*
X23095000Y-4097000D02*
X23095000Y-7011000D01*
X8150000Y-7011000D02*
X8150000Y-4097000D01*
X16215000Y-7081000D02*
X10196000Y-7081000D01*
X10196000Y-7081000D02*
X10196000Y-9766000D01*
X16215000Y-9766000D02*
X16215000Y-7081000D01*
X10196000Y-9766000D02*
X16215000Y-9766000D01*
D11*
D10*
X8752000Y-4854000D02*
X8792000Y-4894000D01*
X8792000Y-4854000D02*
X8752000Y-4894000D01*
X8755000Y-6684000D02*
X8795000Y-6724000D01*
X8795000Y-6684000D02*
X8755000Y-6724000D01*
X9013000Y-5121000D02*
X9053000Y-5161000D01*
X9053000Y-5121000D02*
X9013000Y-5161000D01*
X9013000Y-6613000D02*
X9053000Y-6653000D01*
X9053000Y-6613000D02*
X9013000Y-6653000D01*
X9508000Y-5756000D02*
X9548000Y-5796000D01*
X9548000Y-5756000D02*
X9508000Y-5796000D01*
X9509000Y-6536000D02*
X9549000Y-6576000D01*
X9549000Y-6536000D02*
X9509000Y-6576000D01*
X9731000Y-6491000D02*
X9771000Y-6531000D01*
X9771000Y-6491000D02*
X9731000Y-6531000D01*
X9732000Y-5875000D02*
X9772000Y-5915000D01*
X9772000Y-5875000D02*
X9732000Y-5915000D01*
X9921000Y-5367000D02*
X9961000Y-5407000D01*
X9961000Y-5367000D02*
X9921000Y-5407000D01*
X9922000Y-6411000D02*
X9962000Y-6451000D01*
X9962000Y-6411000D02*
X9922000Y-6451000D01*
X12354000Y-5051000D02*
X12394000Y-5091000D01*
X12394000Y-5051000D02*
X12354000Y-5091000D01*
X12356000Y-5934000D02*
X12396000Y-5974000D01*
X12396000Y-5934000D02*
X12356000Y-5974000D01*
X16869000Y-5365000D02*
X16909000Y-5405000D01*
X16909000Y-5365000D02*
X16869000Y-5405000D01*
X17014000Y-5236000D02*
X17054000Y-5276000D01*
X17054000Y-5236000D02*
X17014000Y-5276000D01*
X17410000Y-5580000D02*
X17450000Y-5620000D01*
X17450000Y-5580000D02*
X17410000Y-5620000D01*
X19184000Y-5049000D02*
X19224000Y-5089000D01*
X19224000Y-5049000D02*
X19184000Y-5089000D01*
X20464000Y-6045000D02*
X20504000Y-6085000D01*
X20504000Y-6045000D02*
X20464000Y-6085000D01*
X20710000Y-5875000D02*
X20750000Y-5915000D01*
X20750000Y-5875000D02*
X20710000Y-5915000D01*
X8549000Y-4628000D02*
G75*
G02*
X8449000Y-4628000I-50000J0D01*
G01*
X8449000Y-4628000D02*
G75*
G02*
X8549000Y-4628000I50000J0D01*
G01*
X8549000Y-4882000D02*
G75*
G02*
X8449000Y-4882000I-50000J0D01*
G01*
X8449000Y-4882000D02*
G75*
G02*
X8549000Y-4882000I50000J0D01*
G01*
X8549000Y-5136000D02*
G75*
G02*
X8449000Y-5136000I-50000J0D01*
G01*
X8449000Y-5136000D02*
G75*
G02*
X8549000Y-5136000I50000J0D01*
G01*
X8549000Y-5390000D02*
G75*
G02*
X8449000Y-5390000I-50000J0D01*
G01*
X8449000Y-5390000D02*
G75*
G02*
X8549000Y-5390000I50000J0D01*
G01*
X8549000Y-5644000D02*
G75*
G02*
X8449000Y-5644000I-50000J0D01*
G01*
X8449000Y-5644000D02*
G75*
G02*
X8549000Y-5644000I50000J0D01*
G01*
X8549000Y-5898000D02*
G75*
G02*
X8449000Y-5898000I-50000J0D01*
G01*
X8449000Y-5898000D02*
G75*
G02*
X8549000Y-5898000I50000J0D01*
G01*
X8549000Y-6152000D02*
G75*
G02*
X8449000Y-6152000I-50000J0D01*
G01*
X8449000Y-6152000D02*
G75*
G02*
X8549000Y-6152000I50000J0D01*
G01*
X8549000Y-6406000D02*
G75*
G02*
X8449000Y-6406000I-50000J0D01*
G01*
X8449000Y-6406000D02*
G75*
G02*
X8549000Y-6406000I50000J0D01*
G01*
X9210000Y-4633000D02*
G75*
G02*
X9110000Y-4633000I-50000J0D01*
G01*
X9110000Y-4633000D02*
G75*
G02*
X9210000Y-4633000I50000J0D01*
G01*
X9333000Y-6317000D02*
G75*
G02*
X9233000Y-6317000I-50000J0D01*
G01*
X9233000Y-6317000D02*
G75*
G02*
X9333000Y-6317000I50000J0D01*
G01*
X15340000Y-4798000D02*
G75*
G02*
X15240000Y-4798000I-50000J0D01*
G01*
X15240000Y-4798000D02*
G75*
G02*
X15340000Y-4798000I50000J0D01*
G01*
X15340000Y-5052000D02*
G75*
G02*
X15240000Y-5052000I-50000J0D01*
G01*
X15240000Y-5052000D02*
G75*
G02*
X15340000Y-5052000I50000J0D01*
G01*
X15340000Y-5306000D02*
G75*
G02*
X15240000Y-5306000I-50000J0D01*
G01*
X15240000Y-5306000D02*
G75*
G02*
X15340000Y-5306000I50000J0D01*
G01*
X15340000Y-5560000D02*
G75*
G02*
X15240000Y-5560000I-50000J0D01*
G01*
X15240000Y-5560000D02*
G75*
G02*
X15340000Y-5560000I50000J0D01*
G01*
X15340000Y-5814000D02*
G75*
G02*
X15240000Y-5814000I-50000J0D01*
G01*
X15240000Y-5814000D02*
G75*
G02*
X15340000Y-5814000I50000J0D01*
G01*
X15340000Y-6068000D02*
G75*
G02*
X15240000Y-6068000I-50000J0D01*
G01*
X15240000Y-6068000D02*
G75*
G02*
X15340000Y-6068000I50000J0D01*
G01*
X15340000Y-6322000D02*
G75*
G02*
X15240000Y-6322000I-50000J0D01*
G01*
X15240000Y-6322000D02*
G75*
G02*
X15340000Y-6322000I50000J0D01*
G01*
X15353000Y-7665500D02*
G75*
G02*
X15253000Y-7665500I-50000J0D01*
G01*
X15253000Y-7665500D02*
G75*
G02*
X15353000Y-7665500I50000J0D01*
G01*
X15353000Y-7919500D02*
G75*
G02*
X15253000Y-7919500I-50000J0D01*
G01*
X15253000Y-7919500D02*
G75*
G02*
X15353000Y-7919500I50000J0D01*
G01*
X15353000Y-8173500D02*
G75*
G02*
X15253000Y-8173500I-50000J0D01*
G01*
X15253000Y-8173500D02*
G75*
G02*
X15353000Y-8173500I50000J0D01*
G01*
X15353000Y-8427500D02*
G75*
G02*
X15253000Y-8427500I-50000J0D01*
G01*
X15253000Y-8427500D02*
G75*
G02*
X15353000Y-8427500I50000J0D01*
G01*
X15353000Y-8681500D02*
G75*
G02*
X15253000Y-8681500I-50000J0D01*
G01*
X15253000Y-8681500D02*
G75*
G02*
X15353000Y-8681500I50000J0D01*
G01*
X15353000Y-8935500D02*
G75*
G02*
X15253000Y-8935500I-50000J0D01*
G01*
X15253000Y-8935500D02*
G75*
G02*
X15353000Y-8935500I50000J0D01*
G01*
X15353000Y-9189500D02*
G75*
G02*
X15253000Y-9189500I-50000J0D01*
G01*
X15253000Y-9189500D02*
G75*
G02*
X15353000Y-9189500I50000J0D01*
G01*
X22633000Y-4746000D02*
G75*
G02*
X22533000Y-4746000I-50000J0D01*
G01*
X22533000Y-4746000D02*
G75*
G02*
X22633000Y-4746000I50000J0D01*
G01*
X22633000Y-5000000D02*
G75*
G02*
X22533000Y-5000000I-50000J0D01*
G01*
X22533000Y-5000000D02*
G75*
G02*
X22633000Y-5000000I50000J0D01*
G01*
X22633000Y-5254000D02*
G75*
G02*
X22533000Y-5254000I-50000J0D01*
G01*
X22533000Y-5254000D02*
G75*
G02*
X22633000Y-5254000I50000J0D01*
G01*
X22633000Y-5508000D02*
G75*
G02*
X22533000Y-5508000I-50000J0D01*
G01*
X22533000Y-5508000D02*
G75*
G02*
X22633000Y-5508000I50000J0D01*
G01*
X22633000Y-5762000D02*
G75*
G02*
X22533000Y-5762000I-50000J0D01*
G01*
X22533000Y-5762000D02*
G75*
G02*
X22633000Y-5762000I50000J0D01*
G01*
X22633000Y-6016000D02*
G75*
G02*
X22533000Y-6016000I-50000J0D01*
G01*
X22533000Y-6016000D02*
G75*
G02*
X22633000Y-6016000I50000J0D01*
G01*
X22633000Y-6270000D02*
G75*
G02*
X22533000Y-6270000I-50000J0D01*
G01*
X22533000Y-6270000D02*
G75*
G02*
X22633000Y-6270000I50000J0D01*
G01*
D12*
X16669000Y-4579000D02*
X16669000Y-4681000D01*
X16618000Y-4630000D02*
X16720000Y-4630000D01*
X16669000Y-6357000D02*
X16669000Y-6459000D01*
X16618000Y-6408000D02*
X16720000Y-6408000D01*
X16692000Y-5214000D02*
X16692000Y-5316000D01*
X16641000Y-5265000D02*
X16743000Y-5265000D01*
X16692000Y-5468000D02*
X16692000Y-5570000D01*
X16641000Y-5519000D02*
X16743000Y-5519000D01*
X16692000Y-5722000D02*
X16692000Y-5824000D01*
X16641000Y-5773000D02*
X16743000Y-5773000D01*
X16923000Y-4579000D02*
X16923000Y-4681000D01*
X16872000Y-4630000D02*
X16974000Y-4630000D01*
X16923000Y-6357000D02*
X16923000Y-6459000D01*
X16872000Y-6408000D02*
X16974000Y-6408000D01*
X17177000Y-4579000D02*
X17177000Y-4681000D01*
X17126000Y-4630000D02*
X17228000Y-4630000D01*
X17177000Y-6357000D02*
X17177000Y-6459000D01*
X17126000Y-6408000D02*
X17228000Y-6408000D01*
X17431000Y-4579000D02*
X17431000Y-4681000D01*
X17380000Y-4630000D02*
X17482000Y-4630000D01*
X17431000Y-6357000D02*
X17431000Y-6459000D01*
X17380000Y-6408000D02*
X17482000Y-6408000D01*
X17685000Y-4579000D02*
X17685000Y-4681000D01*
X17634000Y-4630000D02*
X17736000Y-4630000D01*
X17685000Y-6357000D02*
X17685000Y-6459000D01*
X17634000Y-6408000D02*
X17736000Y-6408000D01*
X17939000Y-4579000D02*
X17939000Y-4681000D01*
X17888000Y-4630000D02*
X17990000Y-4630000D01*
X17939000Y-6357000D02*
X17939000Y-6459000D01*
X17888000Y-6408000D02*
X17990000Y-6408000D01*
X18193000Y-4579000D02*
X18193000Y-4681000D01*
X18142000Y-4630000D02*
X18244000Y-4630000D01*
X18193000Y-6357000D02*
X18193000Y-6459000D01*
X18142000Y-6408000D02*
X18244000Y-6408000D01*
X18447000Y-4579000D02*
X18447000Y-4681000D01*
X18396000Y-4630000D02*
X18498000Y-4630000D01*
X18447000Y-6357000D02*
X18447000Y-6459000D01*
X18396000Y-6408000D02*
X18498000Y-6408000D01*
X18701000Y-4579000D02*
X18701000Y-4681000D01*
X18650000Y-4630000D02*
X18752000Y-4630000D01*
X18701000Y-6357000D02*
X18701000Y-6459000D01*
X18650000Y-6408000D02*
X18752000Y-6408000D01*
X18955000Y-4579000D02*
X18955000Y-4681000D01*
X18904000Y-4630000D02*
X19006000Y-4630000D01*
X18955000Y-6357000D02*
X18955000Y-6459000D01*
X18904000Y-6408000D02*
X19006000Y-6408000D01*
X19209000Y-4579000D02*
X19209000Y-4681000D01*
X19158000Y-4630000D02*
X19260000Y-4630000D01*
X19209000Y-6357000D02*
X19209000Y-6459000D01*
X19158000Y-6408000D02*
X19260000Y-6408000D01*
X19463000Y-4579000D02*
X19463000Y-4681000D01*
X19412000Y-4630000D02*
X19514000Y-4630000D01*
X19463000Y-6357000D02*
X19463000Y-6459000D01*
X19412000Y-6408000D02*
X19514000Y-6408000D01*
X19717000Y-4579000D02*
X19717000Y-4681000D01*
X19666000Y-4630000D02*
X19768000Y-4630000D01*
X19717000Y-6357000D02*
X19717000Y-6459000D01*
X19666000Y-6408000D02*
X19768000Y-6408000D01*
X19971000Y-4579000D02*
X19971000Y-4681000D01*
X19920000Y-4630000D02*
X20022000Y-4630000D01*
X19971000Y-6357000D02*
X19971000Y-6459000D01*
X19920000Y-6408000D02*
X20022000Y-6408000D01*
X20225000Y-4579000D02*
X20225000Y-4681000D01*
X20174000Y-4630000D02*
X20276000Y-4630000D01*
X20225000Y-6357000D02*
X20225000Y-6459000D01*
X20174000Y-6408000D02*
X20276000Y-6408000D01*
X20479000Y-4579000D02*
X20479000Y-4681000D01*
X20428000Y-4630000D02*
X20530000Y-4630000D01*
X20479000Y-6357000D02*
X20479000Y-6459000D01*
X20428000Y-6408000D02*
X20530000Y-6408000D01*
X20733000Y-4579000D02*
X20733000Y-4681000D01*
X20682000Y-4630000D02*
X20784000Y-4630000D01*
X20733000Y-6357000D02*
X20733000Y-6459000D01*
X20682000Y-6408000D02*
X20784000Y-6408000D01*
X20987000Y-4579000D02*
X20987000Y-4681000D01*
X20936000Y-4630000D02*
X21038000Y-4630000D01*
X20987000Y-6357000D02*
X20987000Y-6459000D01*
X20936000Y-6408000D02*
X21038000Y-6408000D01*
X21241000Y-4579000D02*
X21241000Y-4681000D01*
X21190000Y-4630000D02*
X21292000Y-4630000D01*
X21241000Y-6357000D02*
X21241000Y-6459000D01*
X21190000Y-6408000D02*
X21292000Y-6408000D01*
X21495000Y-4579000D02*
X21495000Y-4681000D01*
X21444000Y-4630000D02*
X21546000Y-4630000D01*
X21495000Y-6357000D02*
X21495000Y-6459000D01*
X21444000Y-6408000D02*
X21546000Y-6408000D01*
D11*
X8405777Y-10082484D02*
X8405777Y-9882484D01*
X8405777Y-9882484D02*
X8453396Y-9882484D01*
X8453396Y-9882484D02*
X8481967Y-9892008D01*
X8481967Y-9892008D02*
X8501015Y-9911055D01*
X8501015Y-9911055D02*
X8510539Y-9930103D01*
X8510539Y-9930103D02*
X8520063Y-9968198D01*
X8520063Y-9968198D02*
X8520063Y-9996770D01*
X8520063Y-9996770D02*
X8510539Y-10034865D01*
X8510539Y-10034865D02*
X8501015Y-10053912D01*
X8501015Y-10053912D02*
X8481967Y-10072960D01*
X8481967Y-10072960D02*
X8453396Y-10082484D01*
X8453396Y-10082484D02*
X8405777Y-10082484D01*
X8605777Y-10082484D02*
X8605777Y-9949150D01*
X8605777Y-9987246D02*
X8615301Y-9968198D01*
X8615301Y-9968198D02*
X8624824Y-9958674D01*
X8624824Y-9958674D02*
X8643872Y-9949150D01*
X8643872Y-9949150D02*
X8662920Y-9949150D01*
X8729586Y-10082484D02*
X8729586Y-9949150D01*
X8729586Y-9882484D02*
X8720063Y-9892008D01*
X8720063Y-9892008D02*
X8729586Y-9901531D01*
X8729586Y-9901531D02*
X8739110Y-9892008D01*
X8739110Y-9892008D02*
X8729586Y-9882484D01*
X8729586Y-9882484D02*
X8729586Y-9901531D01*
X8853396Y-10082484D02*
X8834348Y-10072960D01*
X8834348Y-10072960D02*
X8824824Y-10053912D01*
X8824824Y-10053912D02*
X8824824Y-9882484D01*
X8958158Y-10082484D02*
X8939110Y-10072960D01*
X8939110Y-10072960D02*
X8929586Y-10053912D01*
X8929586Y-10053912D02*
X8929586Y-9882484D01*
X9186729Y-10082484D02*
X9186729Y-9882484D01*
X9186729Y-9882484D02*
X9253396Y-10025341D01*
X9253396Y-10025341D02*
X9320063Y-9882484D01*
X9320063Y-9882484D02*
X9320063Y-10082484D01*
X9501015Y-10082484D02*
X9501015Y-9977722D01*
X9501015Y-9977722D02*
X9491491Y-9958674D01*
X9491491Y-9958674D02*
X9472444Y-9949150D01*
X9472444Y-9949150D02*
X9434348Y-9949150D01*
X9434348Y-9949150D02*
X9415301Y-9958674D01*
X9501015Y-10072960D02*
X9481967Y-10082484D01*
X9481967Y-10082484D02*
X9434348Y-10082484D01*
X9434348Y-10082484D02*
X9415301Y-10072960D01*
X9415301Y-10072960D02*
X9405777Y-10053912D01*
X9405777Y-10053912D02*
X9405777Y-10034865D01*
X9405777Y-10034865D02*
X9415301Y-10015817D01*
X9415301Y-10015817D02*
X9434348Y-10006293D01*
X9434348Y-10006293D02*
X9481967Y-10006293D01*
X9481967Y-10006293D02*
X9501015Y-9996770D01*
X9596253Y-9949150D02*
X9596253Y-10149150D01*
X9596253Y-9958674D02*
X9615301Y-9949150D01*
X9615301Y-9949150D02*
X9653396Y-9949150D01*
X9653396Y-9949150D02*
X9672444Y-9958674D01*
X9672444Y-9958674D02*
X9681967Y-9968198D01*
X9681967Y-9968198D02*
X9691491Y-9987246D01*
X9691491Y-9987246D02*
X9691491Y-10044389D01*
X9691491Y-10044389D02*
X9681967Y-10063436D01*
X9681967Y-10063436D02*
X9672444Y-10072960D01*
X9672444Y-10072960D02*
X9653396Y-10082484D01*
X9653396Y-10082484D02*
X9615301Y-10082484D01*
X9615301Y-10082484D02*
X9596253Y-10072960D01*
X9777205Y-10063436D02*
X9786729Y-10072960D01*
X9786729Y-10072960D02*
X9777205Y-10082484D01*
X9777205Y-10082484D02*
X9767682Y-10072960D01*
X9767682Y-10072960D02*
X9777205Y-10063436D01*
X9777205Y-10063436D02*
X9777205Y-10082484D01*
X9777205Y-9958674D02*
X9786729Y-9968198D01*
X9786729Y-9968198D02*
X9777205Y-9977722D01*
X9777205Y-9977722D02*
X9767682Y-9968198D01*
X9767682Y-9968198D02*
X9777205Y-9958674D01*
X9777205Y-9958674D02*
X9777205Y-9977722D01*
D10*
X8105000Y-10391000D02*
X8145000Y-10431000D01*
X8145000Y-10391000D02*
X8105000Y-10431000D01*
D11*
X8443872Y-10302484D02*
X8462920Y-10302484D01*
X8462920Y-10302484D02*
X8481967Y-10312008D01*
X8481967Y-10312008D02*
X8491491Y-10321531D01*
X8491491Y-10321531D02*
X8501015Y-10340579D01*
X8501015Y-10340579D02*
X8510539Y-10378674D01*
X8510539Y-10378674D02*
X8510539Y-10426293D01*
X8510539Y-10426293D02*
X8501015Y-10464389D01*
X8501015Y-10464389D02*
X8491491Y-10483436D01*
X8491491Y-10483436D02*
X8481967Y-10492960D01*
X8481967Y-10492960D02*
X8462920Y-10502484D01*
X8462920Y-10502484D02*
X8443872Y-10502484D01*
X8443872Y-10502484D02*
X8424824Y-10492960D01*
X8424824Y-10492960D02*
X8415301Y-10483436D01*
X8415301Y-10483436D02*
X8405777Y-10464389D01*
X8405777Y-10464389D02*
X8396253Y-10426293D01*
X8396253Y-10426293D02*
X8396253Y-10378674D01*
X8396253Y-10378674D02*
X8405777Y-10340579D01*
X8405777Y-10340579D02*
X8415301Y-10321531D01*
X8415301Y-10321531D02*
X8424824Y-10312008D01*
X8424824Y-10312008D02*
X8443872Y-10302484D01*
X8596253Y-10483436D02*
X8605777Y-10492960D01*
X8605777Y-10492960D02*
X8596253Y-10502484D01*
X8596253Y-10502484D02*
X8586729Y-10492960D01*
X8586729Y-10492960D02*
X8596253Y-10483436D01*
X8596253Y-10483436D02*
X8596253Y-10502484D01*
X8777205Y-10369150D02*
X8777205Y-10502484D01*
X8729586Y-10292960D02*
X8681967Y-10435817D01*
X8681967Y-10435817D02*
X8805777Y-10435817D01*
X8920063Y-10302484D02*
X8939110Y-10302484D01*
X8939110Y-10302484D02*
X8958158Y-10312008D01*
X8958158Y-10312008D02*
X8967682Y-10321531D01*
X8967682Y-10321531D02*
X8977205Y-10340579D01*
X8977205Y-10340579D02*
X8986729Y-10378674D01*
X8986729Y-10378674D02*
X8986729Y-10426293D01*
X8986729Y-10426293D02*
X8977205Y-10464389D01*
X8977205Y-10464389D02*
X8967682Y-10483436D01*
X8967682Y-10483436D02*
X8958158Y-10492960D01*
X8958158Y-10492960D02*
X8939110Y-10502484D01*
X8939110Y-10502484D02*
X8920063Y-10502484D01*
X8920063Y-10502484D02*
X8901015Y-10492960D01*
X8901015Y-10492960D02*
X8891491Y-10483436D01*
X8891491Y-10483436D02*
X8881967Y-10464389D01*
X8881967Y-10464389D02*
X8872444Y-10426293D01*
X8872444Y-10426293D02*
X8872444Y-10378674D01*
X8872444Y-10378674D02*
X8881967Y-10340579D01*
X8881967Y-10340579D02*
X8891491Y-10321531D01*
X8891491Y-10321531D02*
X8901015Y-10312008D01*
X8901015Y-10312008D02*
X8920063Y-10302484D01*
X9110539Y-10302484D02*
X9129586Y-10302484D01*
X9129586Y-10302484D02*
X9148634Y-10312008D01*
X9148634Y-10312008D02*
X9158158Y-10321531D01*
X9158158Y-10321531D02*
X9167682Y-10340579D01*
X9167682Y-10340579D02*
X9177205Y-10378674D01*
X9177205Y-10378674D02*
X9177205Y-10426293D01*
X9177205Y-10426293D02*
X9167682Y-10464389D01*
X9167682Y-10464389D02*
X9158158Y-10483436D01*
X9158158Y-10483436D02*
X9148634Y-10492960D01*
X9148634Y-10492960D02*
X9129586Y-10502484D01*
X9129586Y-10502484D02*
X9110539Y-10502484D01*
X9110539Y-10502484D02*
X9091491Y-10492960D01*
X9091491Y-10492960D02*
X9081967Y-10483436D01*
X9081967Y-10483436D02*
X9072444Y-10464389D01*
X9072444Y-10464389D02*
X9062920Y-10426293D01*
X9062920Y-10426293D02*
X9062920Y-10378674D01*
X9062920Y-10378674D02*
X9072444Y-10340579D01*
X9072444Y-10340579D02*
X9081967Y-10321531D01*
X9081967Y-10321531D02*
X9091491Y-10312008D01*
X9091491Y-10312008D02*
X9110539Y-10302484D01*
X9262920Y-10502484D02*
X9262920Y-10369150D01*
X9262920Y-10388198D02*
X9272444Y-10378674D01*
X9272444Y-10378674D02*
X9291491Y-10369150D01*
X9291491Y-10369150D02*
X9320063Y-10369150D01*
X9320063Y-10369150D02*
X9339110Y-10378674D01*
X9339110Y-10378674D02*
X9348634Y-10397722D01*
X9348634Y-10397722D02*
X9348634Y-10502484D01*
X9348634Y-10397722D02*
X9358158Y-10378674D01*
X9358158Y-10378674D02*
X9377205Y-10369150D01*
X9377205Y-10369150D02*
X9405777Y-10369150D01*
X9405777Y-10369150D02*
X9424825Y-10378674D01*
X9424825Y-10378674D02*
X9434348Y-10397722D01*
X9434348Y-10397722D02*
X9434348Y-10502484D01*
X9529586Y-10502484D02*
X9529586Y-10369150D01*
X9529586Y-10388198D02*
X9539110Y-10378674D01*
X9539110Y-10378674D02*
X9558158Y-10369150D01*
X9558158Y-10369150D02*
X9586729Y-10369150D01*
X9586729Y-10369150D02*
X9605777Y-10378674D01*
X9605777Y-10378674D02*
X9615301Y-10397722D01*
X9615301Y-10397722D02*
X9615301Y-10502484D01*
X9615301Y-10397722D02*
X9624825Y-10378674D01*
X9624825Y-10378674D02*
X9643872Y-10369150D01*
X9643872Y-10369150D02*
X9672444Y-10369150D01*
X9672444Y-10369150D02*
X9691491Y-10378674D01*
X9691491Y-10378674D02*
X9701015Y-10397722D01*
X9701015Y-10397722D02*
X9701015Y-10502484D01*
X10091491Y-10292960D02*
X9920063Y-10550103D01*
X10348634Y-10302484D02*
X10367682Y-10302484D01*
X10367682Y-10302484D02*
X10386729Y-10312008D01*
X10386729Y-10312008D02*
X10396253Y-10321531D01*
X10396253Y-10321531D02*
X10405777Y-10340579D01*
X10405777Y-10340579D02*
X10415301Y-10378674D01*
X10415301Y-10378674D02*
X10415301Y-10426293D01*
X10415301Y-10426293D02*
X10405777Y-10464389D01*
X10405777Y-10464389D02*
X10396253Y-10483436D01*
X10396253Y-10483436D02*
X10386729Y-10492960D01*
X10386729Y-10492960D02*
X10367682Y-10502484D01*
X10367682Y-10502484D02*
X10348634Y-10502484D01*
X10348634Y-10502484D02*
X10329587Y-10492960D01*
X10329587Y-10492960D02*
X10320063Y-10483436D01*
X10320063Y-10483436D02*
X10310539Y-10464389D01*
X10310539Y-10464389D02*
X10301015Y-10426293D01*
X10301015Y-10426293D02*
X10301015Y-10378674D01*
X10301015Y-10378674D02*
X10310539Y-10340579D01*
X10310539Y-10340579D02*
X10320063Y-10321531D01*
X10320063Y-10321531D02*
X10329587Y-10312008D01*
X10329587Y-10312008D02*
X10348634Y-10302484D01*
X10501015Y-10483436D02*
X10510539Y-10492960D01*
X10510539Y-10492960D02*
X10501015Y-10502484D01*
X10501015Y-10502484D02*
X10491491Y-10492960D01*
X10491491Y-10492960D02*
X10501015Y-10483436D01*
X10501015Y-10483436D02*
X10501015Y-10502484D01*
X10634348Y-10302484D02*
X10653396Y-10302484D01*
X10653396Y-10302484D02*
X10672444Y-10312008D01*
X10672444Y-10312008D02*
X10681968Y-10321531D01*
X10681968Y-10321531D02*
X10691491Y-10340579D01*
X10691491Y-10340579D02*
X10701015Y-10378674D01*
X10701015Y-10378674D02*
X10701015Y-10426293D01*
X10701015Y-10426293D02*
X10691491Y-10464389D01*
X10691491Y-10464389D02*
X10681968Y-10483436D01*
X10681968Y-10483436D02*
X10672444Y-10492960D01*
X10672444Y-10492960D02*
X10653396Y-10502484D01*
X10653396Y-10502484D02*
X10634348Y-10502484D01*
X10634348Y-10502484D02*
X10615301Y-10492960D01*
X10615301Y-10492960D02*
X10605777Y-10483436D01*
X10605777Y-10483436D02*
X10596253Y-10464389D01*
X10596253Y-10464389D02*
X10586729Y-10426293D01*
X10586729Y-10426293D02*
X10586729Y-10378674D01*
X10586729Y-10378674D02*
X10596253Y-10340579D01*
X10596253Y-10340579D02*
X10605777Y-10321531D01*
X10605777Y-10321531D02*
X10615301Y-10312008D01*
X10615301Y-10312008D02*
X10634348Y-10302484D01*
X10891491Y-10502484D02*
X10777206Y-10502484D01*
X10834348Y-10502484D02*
X10834348Y-10302484D01*
X10834348Y-10302484D02*
X10815301Y-10331055D01*
X10815301Y-10331055D02*
X10796253Y-10350103D01*
X10796253Y-10350103D02*
X10777206Y-10359627D01*
X11072444Y-10302484D02*
X10977206Y-10302484D01*
X10977206Y-10302484D02*
X10967682Y-10397722D01*
X10967682Y-10397722D02*
X10977206Y-10388198D01*
X10977206Y-10388198D02*
X10996253Y-10378674D01*
X10996253Y-10378674D02*
X11043872Y-10378674D01*
X11043872Y-10378674D02*
X11062920Y-10388198D01*
X11062920Y-10388198D02*
X11072444Y-10397722D01*
X11072444Y-10397722D02*
X11081968Y-10416770D01*
X11081968Y-10416770D02*
X11081968Y-10464389D01*
X11081968Y-10464389D02*
X11072444Y-10483436D01*
X11072444Y-10483436D02*
X11062920Y-10492960D01*
X11062920Y-10492960D02*
X11043872Y-10502484D01*
X11043872Y-10502484D02*
X10996253Y-10502484D01*
X10996253Y-10502484D02*
X10977206Y-10492960D01*
X10977206Y-10492960D02*
X10967682Y-10483436D01*
X11148634Y-10302484D02*
X11281967Y-10302484D01*
X11281967Y-10302484D02*
X11196253Y-10502484D01*
X11348634Y-10302484D02*
X11348634Y-10340579D01*
X11424825Y-10302484D02*
X11424825Y-10340579D01*
X11720063Y-10578674D02*
X11710539Y-10569150D01*
X11710539Y-10569150D02*
X11691491Y-10540579D01*
X11691491Y-10540579D02*
X11681968Y-10521531D01*
X11681968Y-10521531D02*
X11672444Y-10492960D01*
X11672444Y-10492960D02*
X11662920Y-10445341D01*
X11662920Y-10445341D02*
X11662920Y-10407246D01*
X11662920Y-10407246D02*
X11672444Y-10359627D01*
X11672444Y-10359627D02*
X11681968Y-10331055D01*
X11681968Y-10331055D02*
X11691491Y-10312008D01*
X11691491Y-10312008D02*
X11710539Y-10283436D01*
X11710539Y-10283436D02*
X11720063Y-10273912D01*
X11901015Y-10502484D02*
X11786729Y-10502484D01*
X11843872Y-10502484D02*
X11843872Y-10302484D01*
X11843872Y-10302484D02*
X11824825Y-10331055D01*
X11824825Y-10331055D02*
X11805777Y-10350103D01*
X11805777Y-10350103D02*
X11786729Y-10359627D01*
X12015301Y-10388198D02*
X11996253Y-10378674D01*
X11996253Y-10378674D02*
X11986729Y-10369150D01*
X11986729Y-10369150D02*
X11977206Y-10350103D01*
X11977206Y-10350103D02*
X11977206Y-10340579D01*
X11977206Y-10340579D02*
X11986729Y-10321531D01*
X11986729Y-10321531D02*
X11996253Y-10312008D01*
X11996253Y-10312008D02*
X12015301Y-10302484D01*
X12015301Y-10302484D02*
X12053396Y-10302484D01*
X12053396Y-10302484D02*
X12072444Y-10312008D01*
X12072444Y-10312008D02*
X12081968Y-10321531D01*
X12081968Y-10321531D02*
X12091491Y-10340579D01*
X12091491Y-10340579D02*
X12091491Y-10350103D01*
X12091491Y-10350103D02*
X12081968Y-10369150D01*
X12081968Y-10369150D02*
X12072444Y-10378674D01*
X12072444Y-10378674D02*
X12053396Y-10388198D01*
X12053396Y-10388198D02*
X12015301Y-10388198D01*
X12015301Y-10388198D02*
X11996253Y-10397722D01*
X11996253Y-10397722D02*
X11986729Y-10407246D01*
X11986729Y-10407246D02*
X11977206Y-10426293D01*
X11977206Y-10426293D02*
X11977206Y-10464389D01*
X11977206Y-10464389D02*
X11986729Y-10483436D01*
X11986729Y-10483436D02*
X11996253Y-10492960D01*
X11996253Y-10492960D02*
X12015301Y-10502484D01*
X12015301Y-10502484D02*
X12053396Y-10502484D01*
X12053396Y-10502484D02*
X12072444Y-10492960D01*
X12072444Y-10492960D02*
X12081968Y-10483436D01*
X12081968Y-10483436D02*
X12091491Y-10464389D01*
X12091491Y-10464389D02*
X12091491Y-10426293D01*
X12091491Y-10426293D02*
X12081968Y-10407246D01*
X12081968Y-10407246D02*
X12072444Y-10397722D01*
X12072444Y-10397722D02*
X12053396Y-10388198D01*
X12329587Y-10502484D02*
X12329587Y-10302484D01*
X12415301Y-10502484D02*
X12415301Y-10397722D01*
X12415301Y-10397722D02*
X12405777Y-10378674D01*
X12405777Y-10378674D02*
X12386730Y-10369150D01*
X12386730Y-10369150D02*
X12358158Y-10369150D01*
X12358158Y-10369150D02*
X12339110Y-10378674D01*
X12339110Y-10378674D02*
X12329587Y-10388198D01*
X12539110Y-10502484D02*
X12520063Y-10492960D01*
X12520063Y-10492960D02*
X12510539Y-10483436D01*
X12510539Y-10483436D02*
X12501015Y-10464389D01*
X12501015Y-10464389D02*
X12501015Y-10407246D01*
X12501015Y-10407246D02*
X12510539Y-10388198D01*
X12510539Y-10388198D02*
X12520063Y-10378674D01*
X12520063Y-10378674D02*
X12539110Y-10369150D01*
X12539110Y-10369150D02*
X12567682Y-10369150D01*
X12567682Y-10369150D02*
X12586730Y-10378674D01*
X12586730Y-10378674D02*
X12596253Y-10388198D01*
X12596253Y-10388198D02*
X12605777Y-10407246D01*
X12605777Y-10407246D02*
X12605777Y-10464389D01*
X12605777Y-10464389D02*
X12596253Y-10483436D01*
X12596253Y-10483436D02*
X12586730Y-10492960D01*
X12586730Y-10492960D02*
X12567682Y-10502484D01*
X12567682Y-10502484D02*
X12539110Y-10502484D01*
X12720063Y-10502484D02*
X12701015Y-10492960D01*
X12701015Y-10492960D02*
X12691491Y-10473912D01*
X12691491Y-10473912D02*
X12691491Y-10302484D01*
X12872444Y-10492960D02*
X12853396Y-10502484D01*
X12853396Y-10502484D02*
X12815301Y-10502484D01*
X12815301Y-10502484D02*
X12796253Y-10492960D01*
X12796253Y-10492960D02*
X12786730Y-10473912D01*
X12786730Y-10473912D02*
X12786730Y-10397722D01*
X12786730Y-10397722D02*
X12796253Y-10378674D01*
X12796253Y-10378674D02*
X12815301Y-10369150D01*
X12815301Y-10369150D02*
X12853396Y-10369150D01*
X12853396Y-10369150D02*
X12872444Y-10378674D01*
X12872444Y-10378674D02*
X12881968Y-10397722D01*
X12881968Y-10397722D02*
X12881968Y-10416770D01*
X12881968Y-10416770D02*
X12786730Y-10435817D01*
X12958158Y-10492960D02*
X12977206Y-10502484D01*
X12977206Y-10502484D02*
X13015301Y-10502484D01*
X13015301Y-10502484D02*
X13034349Y-10492960D01*
X13034349Y-10492960D02*
X13043872Y-10473912D01*
X13043872Y-10473912D02*
X13043872Y-10464389D01*
X13043872Y-10464389D02*
X13034349Y-10445341D01*
X13034349Y-10445341D02*
X13015301Y-10435817D01*
X13015301Y-10435817D02*
X12986730Y-10435817D01*
X12986730Y-10435817D02*
X12967682Y-10426293D01*
X12967682Y-10426293D02*
X12958158Y-10407246D01*
X12958158Y-10407246D02*
X12958158Y-10397722D01*
X12958158Y-10397722D02*
X12967682Y-10378674D01*
X12967682Y-10378674D02*
X12986730Y-10369150D01*
X12986730Y-10369150D02*
X13015301Y-10369150D01*
X13015301Y-10369150D02*
X13034349Y-10378674D01*
X13110539Y-10578674D02*
X13120063Y-10569150D01*
X13120063Y-10569150D02*
X13139111Y-10540579D01*
X13139111Y-10540579D02*
X13148634Y-10521531D01*
X13148634Y-10521531D02*
X13158158Y-10492960D01*
X13158158Y-10492960D02*
X13167682Y-10445341D01*
X13167682Y-10445341D02*
X13167682Y-10407246D01*
X13167682Y-10407246D02*
X13158158Y-10359627D01*
X13158158Y-10359627D02*
X13148634Y-10331055D01*
X13148634Y-10331055D02*
X13139111Y-10312008D01*
X13139111Y-10312008D02*
X13120063Y-10283436D01*
X13120063Y-10283436D02*
X13110539Y-10273912D01*
D10*
X8145000Y-10675000D02*
G75*
G02*
X8045000Y-10675000I-50000J0D01*
G01*
X8045000Y-10675000D02*
G75*
G02*
X8145000Y-10675000I50000J0D01*
G01*
D11*
X8510539Y-10766484D02*
X8396253Y-10766484D01*
X8453396Y-10766484D02*
X8453396Y-10566484D01*
X8453396Y-10566484D02*
X8434348Y-10595055D01*
X8434348Y-10595055D02*
X8415301Y-10614103D01*
X8415301Y-10614103D02*
X8396253Y-10623627D01*
X8596253Y-10747436D02*
X8605777Y-10756960D01*
X8605777Y-10756960D02*
X8596253Y-10766484D01*
X8596253Y-10766484D02*
X8586729Y-10756960D01*
X8586729Y-10756960D02*
X8596253Y-10747436D01*
X8596253Y-10747436D02*
X8596253Y-10766484D01*
X8729586Y-10566484D02*
X8748634Y-10566484D01*
X8748634Y-10566484D02*
X8767682Y-10576008D01*
X8767682Y-10576008D02*
X8777205Y-10585531D01*
X8777205Y-10585531D02*
X8786729Y-10604579D01*
X8786729Y-10604579D02*
X8796253Y-10642674D01*
X8796253Y-10642674D02*
X8796253Y-10690293D01*
X8796253Y-10690293D02*
X8786729Y-10728389D01*
X8786729Y-10728389D02*
X8777205Y-10747436D01*
X8777205Y-10747436D02*
X8767682Y-10756960D01*
X8767682Y-10756960D02*
X8748634Y-10766484D01*
X8748634Y-10766484D02*
X8729586Y-10766484D01*
X8729586Y-10766484D02*
X8710539Y-10756960D01*
X8710539Y-10756960D02*
X8701015Y-10747436D01*
X8701015Y-10747436D02*
X8691491Y-10728389D01*
X8691491Y-10728389D02*
X8681967Y-10690293D01*
X8681967Y-10690293D02*
X8681967Y-10642674D01*
X8681967Y-10642674D02*
X8691491Y-10604579D01*
X8691491Y-10604579D02*
X8701015Y-10585531D01*
X8701015Y-10585531D02*
X8710539Y-10576008D01*
X8710539Y-10576008D02*
X8729586Y-10566484D01*
X8920063Y-10566484D02*
X8939110Y-10566484D01*
X8939110Y-10566484D02*
X8958158Y-10576008D01*
X8958158Y-10576008D02*
X8967682Y-10585531D01*
X8967682Y-10585531D02*
X8977205Y-10604579D01*
X8977205Y-10604579D02*
X8986729Y-10642674D01*
X8986729Y-10642674D02*
X8986729Y-10690293D01*
X8986729Y-10690293D02*
X8977205Y-10728389D01*
X8977205Y-10728389D02*
X8967682Y-10747436D01*
X8967682Y-10747436D02*
X8958158Y-10756960D01*
X8958158Y-10756960D02*
X8939110Y-10766484D01*
X8939110Y-10766484D02*
X8920063Y-10766484D01*
X8920063Y-10766484D02*
X8901015Y-10756960D01*
X8901015Y-10756960D02*
X8891491Y-10747436D01*
X8891491Y-10747436D02*
X8881967Y-10728389D01*
X8881967Y-10728389D02*
X8872444Y-10690293D01*
X8872444Y-10690293D02*
X8872444Y-10642674D01*
X8872444Y-10642674D02*
X8881967Y-10604579D01*
X8881967Y-10604579D02*
X8891491Y-10585531D01*
X8891491Y-10585531D02*
X8901015Y-10576008D01*
X8901015Y-10576008D02*
X8920063Y-10566484D01*
X9110539Y-10566484D02*
X9129586Y-10566484D01*
X9129586Y-10566484D02*
X9148634Y-10576008D01*
X9148634Y-10576008D02*
X9158158Y-10585531D01*
X9158158Y-10585531D02*
X9167682Y-10604579D01*
X9167682Y-10604579D02*
X9177205Y-10642674D01*
X9177205Y-10642674D02*
X9177205Y-10690293D01*
X9177205Y-10690293D02*
X9167682Y-10728389D01*
X9167682Y-10728389D02*
X9158158Y-10747436D01*
X9158158Y-10747436D02*
X9148634Y-10756960D01*
X9148634Y-10756960D02*
X9129586Y-10766484D01*
X9129586Y-10766484D02*
X9110539Y-10766484D01*
X9110539Y-10766484D02*
X9091491Y-10756960D01*
X9091491Y-10756960D02*
X9081967Y-10747436D01*
X9081967Y-10747436D02*
X9072444Y-10728389D01*
X9072444Y-10728389D02*
X9062920Y-10690293D01*
X9062920Y-10690293D02*
X9062920Y-10642674D01*
X9062920Y-10642674D02*
X9072444Y-10604579D01*
X9072444Y-10604579D02*
X9081967Y-10585531D01*
X9081967Y-10585531D02*
X9091491Y-10576008D01*
X9091491Y-10576008D02*
X9110539Y-10566484D01*
X9262920Y-10766484D02*
X9262920Y-10633150D01*
X9262920Y-10652198D02*
X9272444Y-10642674D01*
X9272444Y-10642674D02*
X9291491Y-10633150D01*
X9291491Y-10633150D02*
X9320063Y-10633150D01*
X9320063Y-10633150D02*
X9339110Y-10642674D01*
X9339110Y-10642674D02*
X9348634Y-10661722D01*
X9348634Y-10661722D02*
X9348634Y-10766484D01*
X9348634Y-10661722D02*
X9358158Y-10642674D01*
X9358158Y-10642674D02*
X9377205Y-10633150D01*
X9377205Y-10633150D02*
X9405777Y-10633150D01*
X9405777Y-10633150D02*
X9424825Y-10642674D01*
X9424825Y-10642674D02*
X9434348Y-10661722D01*
X9434348Y-10661722D02*
X9434348Y-10766484D01*
X9529586Y-10766484D02*
X9529586Y-10633150D01*
X9529586Y-10652198D02*
X9539110Y-10642674D01*
X9539110Y-10642674D02*
X9558158Y-10633150D01*
X9558158Y-10633150D02*
X9586729Y-10633150D01*
X9586729Y-10633150D02*
X9605777Y-10642674D01*
X9605777Y-10642674D02*
X9615301Y-10661722D01*
X9615301Y-10661722D02*
X9615301Y-10766484D01*
X9615301Y-10661722D02*
X9624825Y-10642674D01*
X9624825Y-10642674D02*
X9643872Y-10633150D01*
X9643872Y-10633150D02*
X9672444Y-10633150D01*
X9672444Y-10633150D02*
X9691491Y-10642674D01*
X9691491Y-10642674D02*
X9701015Y-10661722D01*
X9701015Y-10661722D02*
X9701015Y-10766484D01*
X10091491Y-10556960D02*
X9920063Y-10814103D01*
X10348634Y-10566484D02*
X10367682Y-10566484D01*
X10367682Y-10566484D02*
X10386729Y-10576008D01*
X10386729Y-10576008D02*
X10396253Y-10585531D01*
X10396253Y-10585531D02*
X10405777Y-10604579D01*
X10405777Y-10604579D02*
X10415301Y-10642674D01*
X10415301Y-10642674D02*
X10415301Y-10690293D01*
X10415301Y-10690293D02*
X10405777Y-10728389D01*
X10405777Y-10728389D02*
X10396253Y-10747436D01*
X10396253Y-10747436D02*
X10386729Y-10756960D01*
X10386729Y-10756960D02*
X10367682Y-10766484D01*
X10367682Y-10766484D02*
X10348634Y-10766484D01*
X10348634Y-10766484D02*
X10329587Y-10756960D01*
X10329587Y-10756960D02*
X10320063Y-10747436D01*
X10320063Y-10747436D02*
X10310539Y-10728389D01*
X10310539Y-10728389D02*
X10301015Y-10690293D01*
X10301015Y-10690293D02*
X10301015Y-10642674D01*
X10301015Y-10642674D02*
X10310539Y-10604579D01*
X10310539Y-10604579D02*
X10320063Y-10585531D01*
X10320063Y-10585531D02*
X10329587Y-10576008D01*
X10329587Y-10576008D02*
X10348634Y-10566484D01*
X10501015Y-10747436D02*
X10510539Y-10756960D01*
X10510539Y-10756960D02*
X10501015Y-10766484D01*
X10501015Y-10766484D02*
X10491491Y-10756960D01*
X10491491Y-10756960D02*
X10501015Y-10747436D01*
X10501015Y-10747436D02*
X10501015Y-10766484D01*
X10634348Y-10566484D02*
X10653396Y-10566484D01*
X10653396Y-10566484D02*
X10672444Y-10576008D01*
X10672444Y-10576008D02*
X10681968Y-10585531D01*
X10681968Y-10585531D02*
X10691491Y-10604579D01*
X10691491Y-10604579D02*
X10701015Y-10642674D01*
X10701015Y-10642674D02*
X10701015Y-10690293D01*
X10701015Y-10690293D02*
X10691491Y-10728389D01*
X10691491Y-10728389D02*
X10681968Y-10747436D01*
X10681968Y-10747436D02*
X10672444Y-10756960D01*
X10672444Y-10756960D02*
X10653396Y-10766484D01*
X10653396Y-10766484D02*
X10634348Y-10766484D01*
X10634348Y-10766484D02*
X10615301Y-10756960D01*
X10615301Y-10756960D02*
X10605777Y-10747436D01*
X10605777Y-10747436D02*
X10596253Y-10728389D01*
X10596253Y-10728389D02*
X10586729Y-10690293D01*
X10586729Y-10690293D02*
X10586729Y-10642674D01*
X10586729Y-10642674D02*
X10596253Y-10604579D01*
X10596253Y-10604579D02*
X10605777Y-10585531D01*
X10605777Y-10585531D02*
X10615301Y-10576008D01*
X10615301Y-10576008D02*
X10634348Y-10566484D01*
X10767682Y-10566484D02*
X10891491Y-10566484D01*
X10891491Y-10566484D02*
X10824825Y-10642674D01*
X10824825Y-10642674D02*
X10853396Y-10642674D01*
X10853396Y-10642674D02*
X10872444Y-10652198D01*
X10872444Y-10652198D02*
X10881968Y-10661722D01*
X10881968Y-10661722D02*
X10891491Y-10680770D01*
X10891491Y-10680770D02*
X10891491Y-10728389D01*
X10891491Y-10728389D02*
X10881968Y-10747436D01*
X10881968Y-10747436D02*
X10872444Y-10756960D01*
X10872444Y-10756960D02*
X10853396Y-10766484D01*
X10853396Y-10766484D02*
X10796253Y-10766484D01*
X10796253Y-10766484D02*
X10777206Y-10756960D01*
X10777206Y-10756960D02*
X10767682Y-10747436D01*
X10986729Y-10766484D02*
X11024825Y-10766484D01*
X11024825Y-10766484D02*
X11043872Y-10756960D01*
X11043872Y-10756960D02*
X11053396Y-10747436D01*
X11053396Y-10747436D02*
X11072444Y-10718865D01*
X11072444Y-10718865D02*
X11081968Y-10680770D01*
X11081968Y-10680770D02*
X11081968Y-10604579D01*
X11081968Y-10604579D02*
X11072444Y-10585531D01*
X11072444Y-10585531D02*
X11062920Y-10576008D01*
X11062920Y-10576008D02*
X11043872Y-10566484D01*
X11043872Y-10566484D02*
X11005777Y-10566484D01*
X11005777Y-10566484D02*
X10986729Y-10576008D01*
X10986729Y-10576008D02*
X10977206Y-10585531D01*
X10977206Y-10585531D02*
X10967682Y-10604579D01*
X10967682Y-10604579D02*
X10967682Y-10652198D01*
X10967682Y-10652198D02*
X10977206Y-10671246D01*
X10977206Y-10671246D02*
X10986729Y-10680770D01*
X10986729Y-10680770D02*
X11005777Y-10690293D01*
X11005777Y-10690293D02*
X11043872Y-10690293D01*
X11043872Y-10690293D02*
X11062920Y-10680770D01*
X11062920Y-10680770D02*
X11072444Y-10671246D01*
X11072444Y-10671246D02*
X11081968Y-10652198D01*
X11253396Y-10633150D02*
X11253396Y-10766484D01*
X11205777Y-10556960D02*
X11158158Y-10699817D01*
X11158158Y-10699817D02*
X11281967Y-10699817D01*
X11348634Y-10566484D02*
X11348634Y-10604579D01*
X11424825Y-10566484D02*
X11424825Y-10604579D01*
X11720063Y-10842674D02*
X11710539Y-10833150D01*
X11710539Y-10833150D02*
X11691491Y-10804579D01*
X11691491Y-10804579D02*
X11681968Y-10785531D01*
X11681968Y-10785531D02*
X11672444Y-10756960D01*
X11672444Y-10756960D02*
X11662920Y-10709341D01*
X11662920Y-10709341D02*
X11662920Y-10671246D01*
X11662920Y-10671246D02*
X11672444Y-10623627D01*
X11672444Y-10623627D02*
X11681968Y-10595055D01*
X11681968Y-10595055D02*
X11691491Y-10576008D01*
X11691491Y-10576008D02*
X11710539Y-10547436D01*
X11710539Y-10547436D02*
X11720063Y-10537912D01*
X11777206Y-10566484D02*
X11901015Y-10566484D01*
X11901015Y-10566484D02*
X11834348Y-10642674D01*
X11834348Y-10642674D02*
X11862920Y-10642674D01*
X11862920Y-10642674D02*
X11881968Y-10652198D01*
X11881968Y-10652198D02*
X11891491Y-10661722D01*
X11891491Y-10661722D02*
X11901015Y-10680770D01*
X11901015Y-10680770D02*
X11901015Y-10728389D01*
X11901015Y-10728389D02*
X11891491Y-10747436D01*
X11891491Y-10747436D02*
X11881968Y-10756960D01*
X11881968Y-10756960D02*
X11862920Y-10766484D01*
X11862920Y-10766484D02*
X11805777Y-10766484D01*
X11805777Y-10766484D02*
X11786729Y-10756960D01*
X11786729Y-10756960D02*
X11777206Y-10747436D01*
X12091491Y-10766484D02*
X11977206Y-10766484D01*
X12034348Y-10766484D02*
X12034348Y-10566484D01*
X12034348Y-10566484D02*
X12015301Y-10595055D01*
X12015301Y-10595055D02*
X11996253Y-10614103D01*
X11996253Y-10614103D02*
X11977206Y-10623627D01*
X12329587Y-10766484D02*
X12329587Y-10566484D01*
X12415301Y-10766484D02*
X12415301Y-10661722D01*
X12415301Y-10661722D02*
X12405777Y-10642674D01*
X12405777Y-10642674D02*
X12386730Y-10633150D01*
X12386730Y-10633150D02*
X12358158Y-10633150D01*
X12358158Y-10633150D02*
X12339110Y-10642674D01*
X12339110Y-10642674D02*
X12329587Y-10652198D01*
X12539110Y-10766484D02*
X12520063Y-10756960D01*
X12520063Y-10756960D02*
X12510539Y-10747436D01*
X12510539Y-10747436D02*
X12501015Y-10728389D01*
X12501015Y-10728389D02*
X12501015Y-10671246D01*
X12501015Y-10671246D02*
X12510539Y-10652198D01*
X12510539Y-10652198D02*
X12520063Y-10642674D01*
X12520063Y-10642674D02*
X12539110Y-10633150D01*
X12539110Y-10633150D02*
X12567682Y-10633150D01*
X12567682Y-10633150D02*
X12586730Y-10642674D01*
X12586730Y-10642674D02*
X12596253Y-10652198D01*
X12596253Y-10652198D02*
X12605777Y-10671246D01*
X12605777Y-10671246D02*
X12605777Y-10728389D01*
X12605777Y-10728389D02*
X12596253Y-10747436D01*
X12596253Y-10747436D02*
X12586730Y-10756960D01*
X12586730Y-10756960D02*
X12567682Y-10766484D01*
X12567682Y-10766484D02*
X12539110Y-10766484D01*
X12720063Y-10766484D02*
X12701015Y-10756960D01*
X12701015Y-10756960D02*
X12691491Y-10737912D01*
X12691491Y-10737912D02*
X12691491Y-10566484D01*
X12872444Y-10756960D02*
X12853396Y-10766484D01*
X12853396Y-10766484D02*
X12815301Y-10766484D01*
X12815301Y-10766484D02*
X12796253Y-10756960D01*
X12796253Y-10756960D02*
X12786730Y-10737912D01*
X12786730Y-10737912D02*
X12786730Y-10661722D01*
X12786730Y-10661722D02*
X12796253Y-10642674D01*
X12796253Y-10642674D02*
X12815301Y-10633150D01*
X12815301Y-10633150D02*
X12853396Y-10633150D01*
X12853396Y-10633150D02*
X12872444Y-10642674D01*
X12872444Y-10642674D02*
X12881968Y-10661722D01*
X12881968Y-10661722D02*
X12881968Y-10680770D01*
X12881968Y-10680770D02*
X12786730Y-10699817D01*
X12958158Y-10756960D02*
X12977206Y-10766484D01*
X12977206Y-10766484D02*
X13015301Y-10766484D01*
X13015301Y-10766484D02*
X13034349Y-10756960D01*
X13034349Y-10756960D02*
X13043872Y-10737912D01*
X13043872Y-10737912D02*
X13043872Y-10728389D01*
X13043872Y-10728389D02*
X13034349Y-10709341D01*
X13034349Y-10709341D02*
X13015301Y-10699817D01*
X13015301Y-10699817D02*
X12986730Y-10699817D01*
X12986730Y-10699817D02*
X12967682Y-10690293D01*
X12967682Y-10690293D02*
X12958158Y-10671246D01*
X12958158Y-10671246D02*
X12958158Y-10661722D01*
X12958158Y-10661722D02*
X12967682Y-10642674D01*
X12967682Y-10642674D02*
X12986730Y-10633150D01*
X12986730Y-10633150D02*
X13015301Y-10633150D01*
X13015301Y-10633150D02*
X13034349Y-10642674D01*
X13110539Y-10842674D02*
X13120063Y-10833150D01*
X13120063Y-10833150D02*
X13139111Y-10804579D01*
X13139111Y-10804579D02*
X13148634Y-10785531D01*
X13148634Y-10785531D02*
X13158158Y-10756960D01*
X13158158Y-10756960D02*
X13167682Y-10709341D01*
X13167682Y-10709341D02*
X13167682Y-10671246D01*
X13167682Y-10671246D02*
X13158158Y-10623627D01*
X13158158Y-10623627D02*
X13148634Y-10595055D01*
X13148634Y-10595055D02*
X13139111Y-10576008D01*
X13139111Y-10576008D02*
X13120063Y-10547436D01*
X13120063Y-10547436D02*
X13110539Y-10537912D01*
D12*
X8094000Y-10888000D02*
X8094000Y-10990000D01*
X8043000Y-10939000D02*
X8145000Y-10939000D01*
D11*
X8510539Y-11030484D02*
X8396253Y-11030484D01*
X8453396Y-11030484D02*
X8453396Y-10830484D01*
X8453396Y-10830484D02*
X8434348Y-10859055D01*
X8434348Y-10859055D02*
X8415301Y-10878103D01*
X8415301Y-10878103D02*
X8396253Y-10887627D01*
X8596253Y-11011436D02*
X8605777Y-11020960D01*
X8605777Y-11020960D02*
X8596253Y-11030484D01*
X8596253Y-11030484D02*
X8586729Y-11020960D01*
X8586729Y-11020960D02*
X8596253Y-11011436D01*
X8596253Y-11011436D02*
X8596253Y-11030484D01*
X8729586Y-10830484D02*
X8748634Y-10830484D01*
X8748634Y-10830484D02*
X8767682Y-10840008D01*
X8767682Y-10840008D02*
X8777205Y-10849531D01*
X8777205Y-10849531D02*
X8786729Y-10868579D01*
X8786729Y-10868579D02*
X8796253Y-10906674D01*
X8796253Y-10906674D02*
X8796253Y-10954293D01*
X8796253Y-10954293D02*
X8786729Y-10992389D01*
X8786729Y-10992389D02*
X8777205Y-11011436D01*
X8777205Y-11011436D02*
X8767682Y-11020960D01*
X8767682Y-11020960D02*
X8748634Y-11030484D01*
X8748634Y-11030484D02*
X8729586Y-11030484D01*
X8729586Y-11030484D02*
X8710539Y-11020960D01*
X8710539Y-11020960D02*
X8701015Y-11011436D01*
X8701015Y-11011436D02*
X8691491Y-10992389D01*
X8691491Y-10992389D02*
X8681967Y-10954293D01*
X8681967Y-10954293D02*
X8681967Y-10906674D01*
X8681967Y-10906674D02*
X8691491Y-10868579D01*
X8691491Y-10868579D02*
X8701015Y-10849531D01*
X8701015Y-10849531D02*
X8710539Y-10840008D01*
X8710539Y-10840008D02*
X8729586Y-10830484D01*
X8872444Y-10849531D02*
X8881967Y-10840008D01*
X8881967Y-10840008D02*
X8901015Y-10830484D01*
X8901015Y-10830484D02*
X8948634Y-10830484D01*
X8948634Y-10830484D02*
X8967682Y-10840008D01*
X8967682Y-10840008D02*
X8977205Y-10849531D01*
X8977205Y-10849531D02*
X8986729Y-10868579D01*
X8986729Y-10868579D02*
X8986729Y-10887627D01*
X8986729Y-10887627D02*
X8977205Y-10916198D01*
X8977205Y-10916198D02*
X8862920Y-11030484D01*
X8862920Y-11030484D02*
X8986729Y-11030484D01*
X9110539Y-10830484D02*
X9129586Y-10830484D01*
X9129586Y-10830484D02*
X9148634Y-10840008D01*
X9148634Y-10840008D02*
X9158158Y-10849531D01*
X9158158Y-10849531D02*
X9167682Y-10868579D01*
X9167682Y-10868579D02*
X9177205Y-10906674D01*
X9177205Y-10906674D02*
X9177205Y-10954293D01*
X9177205Y-10954293D02*
X9167682Y-10992389D01*
X9167682Y-10992389D02*
X9158158Y-11011436D01*
X9158158Y-11011436D02*
X9148634Y-11020960D01*
X9148634Y-11020960D02*
X9129586Y-11030484D01*
X9129586Y-11030484D02*
X9110539Y-11030484D01*
X9110539Y-11030484D02*
X9091491Y-11020960D01*
X9091491Y-11020960D02*
X9081967Y-11011436D01*
X9081967Y-11011436D02*
X9072444Y-10992389D01*
X9072444Y-10992389D02*
X9062920Y-10954293D01*
X9062920Y-10954293D02*
X9062920Y-10906674D01*
X9062920Y-10906674D02*
X9072444Y-10868579D01*
X9072444Y-10868579D02*
X9081967Y-10849531D01*
X9081967Y-10849531D02*
X9091491Y-10840008D01*
X9091491Y-10840008D02*
X9110539Y-10830484D01*
X9262920Y-11030484D02*
X9262920Y-10897150D01*
X9262920Y-10916198D02*
X9272444Y-10906674D01*
X9272444Y-10906674D02*
X9291491Y-10897150D01*
X9291491Y-10897150D02*
X9320063Y-10897150D01*
X9320063Y-10897150D02*
X9339110Y-10906674D01*
X9339110Y-10906674D02*
X9348634Y-10925722D01*
X9348634Y-10925722D02*
X9348634Y-11030484D01*
X9348634Y-10925722D02*
X9358158Y-10906674D01*
X9358158Y-10906674D02*
X9377205Y-10897150D01*
X9377205Y-10897150D02*
X9405777Y-10897150D01*
X9405777Y-10897150D02*
X9424825Y-10906674D01*
X9424825Y-10906674D02*
X9434348Y-10925722D01*
X9434348Y-10925722D02*
X9434348Y-11030484D01*
X9529586Y-11030484D02*
X9529586Y-10897150D01*
X9529586Y-10916198D02*
X9539110Y-10906674D01*
X9539110Y-10906674D02*
X9558158Y-10897150D01*
X9558158Y-10897150D02*
X9586729Y-10897150D01*
X9586729Y-10897150D02*
X9605777Y-10906674D01*
X9605777Y-10906674D02*
X9615301Y-10925722D01*
X9615301Y-10925722D02*
X9615301Y-11030484D01*
X9615301Y-10925722D02*
X9624825Y-10906674D01*
X9624825Y-10906674D02*
X9643872Y-10897150D01*
X9643872Y-10897150D02*
X9672444Y-10897150D01*
X9672444Y-10897150D02*
X9691491Y-10906674D01*
X9691491Y-10906674D02*
X9701015Y-10925722D01*
X9701015Y-10925722D02*
X9701015Y-11030484D01*
X10091491Y-10820960D02*
X9920063Y-11078103D01*
X10348634Y-10830484D02*
X10367682Y-10830484D01*
X10367682Y-10830484D02*
X10386729Y-10840008D01*
X10386729Y-10840008D02*
X10396253Y-10849531D01*
X10396253Y-10849531D02*
X10405777Y-10868579D01*
X10405777Y-10868579D02*
X10415301Y-10906674D01*
X10415301Y-10906674D02*
X10415301Y-10954293D01*
X10415301Y-10954293D02*
X10405777Y-10992389D01*
X10405777Y-10992389D02*
X10396253Y-11011436D01*
X10396253Y-11011436D02*
X10386729Y-11020960D01*
X10386729Y-11020960D02*
X10367682Y-11030484D01*
X10367682Y-11030484D02*
X10348634Y-11030484D01*
X10348634Y-11030484D02*
X10329587Y-11020960D01*
X10329587Y-11020960D02*
X10320063Y-11011436D01*
X10320063Y-11011436D02*
X10310539Y-10992389D01*
X10310539Y-10992389D02*
X10301015Y-10954293D01*
X10301015Y-10954293D02*
X10301015Y-10906674D01*
X10301015Y-10906674D02*
X10310539Y-10868579D01*
X10310539Y-10868579D02*
X10320063Y-10849531D01*
X10320063Y-10849531D02*
X10329587Y-10840008D01*
X10329587Y-10840008D02*
X10348634Y-10830484D01*
X10501015Y-11011436D02*
X10510539Y-11020960D01*
X10510539Y-11020960D02*
X10501015Y-11030484D01*
X10501015Y-11030484D02*
X10491491Y-11020960D01*
X10491491Y-11020960D02*
X10501015Y-11011436D01*
X10501015Y-11011436D02*
X10501015Y-11030484D01*
X10634348Y-10830484D02*
X10653396Y-10830484D01*
X10653396Y-10830484D02*
X10672444Y-10840008D01*
X10672444Y-10840008D02*
X10681968Y-10849531D01*
X10681968Y-10849531D02*
X10691491Y-10868579D01*
X10691491Y-10868579D02*
X10701015Y-10906674D01*
X10701015Y-10906674D02*
X10701015Y-10954293D01*
X10701015Y-10954293D02*
X10691491Y-10992389D01*
X10691491Y-10992389D02*
X10681968Y-11011436D01*
X10681968Y-11011436D02*
X10672444Y-11020960D01*
X10672444Y-11020960D02*
X10653396Y-11030484D01*
X10653396Y-11030484D02*
X10634348Y-11030484D01*
X10634348Y-11030484D02*
X10615301Y-11020960D01*
X10615301Y-11020960D02*
X10605777Y-11011436D01*
X10605777Y-11011436D02*
X10596253Y-10992389D01*
X10596253Y-10992389D02*
X10586729Y-10954293D01*
X10586729Y-10954293D02*
X10586729Y-10906674D01*
X10586729Y-10906674D02*
X10596253Y-10868579D01*
X10596253Y-10868579D02*
X10605777Y-10849531D01*
X10605777Y-10849531D02*
X10615301Y-10840008D01*
X10615301Y-10840008D02*
X10634348Y-10830484D01*
X10872444Y-10897150D02*
X10872444Y-11030484D01*
X10824825Y-10820960D02*
X10777206Y-10963817D01*
X10777206Y-10963817D02*
X10901015Y-10963817D01*
X11015301Y-10830484D02*
X11034349Y-10830484D01*
X11034349Y-10830484D02*
X11053396Y-10840008D01*
X11053396Y-10840008D02*
X11062920Y-10849531D01*
X11062920Y-10849531D02*
X11072444Y-10868579D01*
X11072444Y-10868579D02*
X11081968Y-10906674D01*
X11081968Y-10906674D02*
X11081968Y-10954293D01*
X11081968Y-10954293D02*
X11072444Y-10992389D01*
X11072444Y-10992389D02*
X11062920Y-11011436D01*
X11062920Y-11011436D02*
X11053396Y-11020960D01*
X11053396Y-11020960D02*
X11034349Y-11030484D01*
X11034349Y-11030484D02*
X11015301Y-11030484D01*
X11015301Y-11030484D02*
X10996253Y-11020960D01*
X10996253Y-11020960D02*
X10986729Y-11011436D01*
X10986729Y-11011436D02*
X10977206Y-10992389D01*
X10977206Y-10992389D02*
X10967682Y-10954293D01*
X10967682Y-10954293D02*
X10967682Y-10906674D01*
X10967682Y-10906674D02*
X10977206Y-10868579D01*
X10977206Y-10868579D02*
X10986729Y-10849531D01*
X10986729Y-10849531D02*
X10996253Y-10840008D01*
X10996253Y-10840008D02*
X11015301Y-10830484D01*
X11158158Y-10849531D02*
X11167682Y-10840008D01*
X11167682Y-10840008D02*
X11186729Y-10830484D01*
X11186729Y-10830484D02*
X11234348Y-10830484D01*
X11234348Y-10830484D02*
X11253396Y-10840008D01*
X11253396Y-10840008D02*
X11262920Y-10849531D01*
X11262920Y-10849531D02*
X11272444Y-10868579D01*
X11272444Y-10868579D02*
X11272444Y-10887627D01*
X11272444Y-10887627D02*
X11262920Y-10916198D01*
X11262920Y-10916198D02*
X11148634Y-11030484D01*
X11148634Y-11030484D02*
X11272444Y-11030484D01*
X11348634Y-10830484D02*
X11348634Y-10868579D01*
X11424825Y-10830484D02*
X11424825Y-10868579D01*
X11720063Y-11106674D02*
X11710539Y-11097150D01*
X11710539Y-11097150D02*
X11691491Y-11068579D01*
X11691491Y-11068579D02*
X11681968Y-11049531D01*
X11681968Y-11049531D02*
X11672444Y-11020960D01*
X11672444Y-11020960D02*
X11662920Y-10973341D01*
X11662920Y-10973341D02*
X11662920Y-10935246D01*
X11662920Y-10935246D02*
X11672444Y-10887627D01*
X11672444Y-10887627D02*
X11681968Y-10859055D01*
X11681968Y-10859055D02*
X11691491Y-10840008D01*
X11691491Y-10840008D02*
X11710539Y-10811436D01*
X11710539Y-10811436D02*
X11720063Y-10801912D01*
X11881968Y-10897150D02*
X11881968Y-11030484D01*
X11834348Y-10820960D02*
X11786729Y-10963817D01*
X11786729Y-10963817D02*
X11910539Y-10963817D01*
X11967682Y-10830484D02*
X12091491Y-10830484D01*
X12091491Y-10830484D02*
X12024825Y-10906674D01*
X12024825Y-10906674D02*
X12053396Y-10906674D01*
X12053396Y-10906674D02*
X12072444Y-10916198D01*
X12072444Y-10916198D02*
X12081968Y-10925722D01*
X12081968Y-10925722D02*
X12091491Y-10944770D01*
X12091491Y-10944770D02*
X12091491Y-10992389D01*
X12091491Y-10992389D02*
X12081968Y-11011436D01*
X12081968Y-11011436D02*
X12072444Y-11020960D01*
X12072444Y-11020960D02*
X12053396Y-11030484D01*
X12053396Y-11030484D02*
X11996253Y-11030484D01*
X11996253Y-11030484D02*
X11977206Y-11020960D01*
X11977206Y-11020960D02*
X11967682Y-11011436D01*
X12329587Y-11030484D02*
X12329587Y-10830484D01*
X12415301Y-11030484D02*
X12415301Y-10925722D01*
X12415301Y-10925722D02*
X12405777Y-10906674D01*
X12405777Y-10906674D02*
X12386730Y-10897150D01*
X12386730Y-10897150D02*
X12358158Y-10897150D01*
X12358158Y-10897150D02*
X12339110Y-10906674D01*
X12339110Y-10906674D02*
X12329587Y-10916198D01*
X12539110Y-11030484D02*
X12520063Y-11020960D01*
X12520063Y-11020960D02*
X12510539Y-11011436D01*
X12510539Y-11011436D02*
X12501015Y-10992389D01*
X12501015Y-10992389D02*
X12501015Y-10935246D01*
X12501015Y-10935246D02*
X12510539Y-10916198D01*
X12510539Y-10916198D02*
X12520063Y-10906674D01*
X12520063Y-10906674D02*
X12539110Y-10897150D01*
X12539110Y-10897150D02*
X12567682Y-10897150D01*
X12567682Y-10897150D02*
X12586730Y-10906674D01*
X12586730Y-10906674D02*
X12596253Y-10916198D01*
X12596253Y-10916198D02*
X12605777Y-10935246D01*
X12605777Y-10935246D02*
X12605777Y-10992389D01*
X12605777Y-10992389D02*
X12596253Y-11011436D01*
X12596253Y-11011436D02*
X12586730Y-11020960D01*
X12586730Y-11020960D02*
X12567682Y-11030484D01*
X12567682Y-11030484D02*
X12539110Y-11030484D01*
X12720063Y-11030484D02*
X12701015Y-11020960D01*
X12701015Y-11020960D02*
X12691491Y-11001912D01*
X12691491Y-11001912D02*
X12691491Y-10830484D01*
X12872444Y-11020960D02*
X12853396Y-11030484D01*
X12853396Y-11030484D02*
X12815301Y-11030484D01*
X12815301Y-11030484D02*
X12796253Y-11020960D01*
X12796253Y-11020960D02*
X12786730Y-11001912D01*
X12786730Y-11001912D02*
X12786730Y-10925722D01*
X12786730Y-10925722D02*
X12796253Y-10906674D01*
X12796253Y-10906674D02*
X12815301Y-10897150D01*
X12815301Y-10897150D02*
X12853396Y-10897150D01*
X12853396Y-10897150D02*
X12872444Y-10906674D01*
X12872444Y-10906674D02*
X12881968Y-10925722D01*
X12881968Y-10925722D02*
X12881968Y-10944770D01*
X12881968Y-10944770D02*
X12786730Y-10963817D01*
X12958158Y-11020960D02*
X12977206Y-11030484D01*
X12977206Y-11030484D02*
X13015301Y-11030484D01*
X13015301Y-11030484D02*
X13034349Y-11020960D01*
X13034349Y-11020960D02*
X13043872Y-11001912D01*
X13043872Y-11001912D02*
X13043872Y-10992389D01*
X13043872Y-10992389D02*
X13034349Y-10973341D01*
X13034349Y-10973341D02*
X13015301Y-10963817D01*
X13015301Y-10963817D02*
X12986730Y-10963817D01*
X12986730Y-10963817D02*
X12967682Y-10954293D01*
X12967682Y-10954293D02*
X12958158Y-10935246D01*
X12958158Y-10935246D02*
X12958158Y-10925722D01*
X12958158Y-10925722D02*
X12967682Y-10906674D01*
X12967682Y-10906674D02*
X12986730Y-10897150D01*
X12986730Y-10897150D02*
X13015301Y-10897150D01*
X13015301Y-10897150D02*
X13034349Y-10906674D01*
X13110539Y-11106674D02*
X13120063Y-11097150D01*
X13120063Y-11097150D02*
X13139111Y-11068579D01*
X13139111Y-11068579D02*
X13148634Y-11049531D01*
X13148634Y-11049531D02*
X13158158Y-11020960D01*
X13158158Y-11020960D02*
X13167682Y-10973341D01*
X13167682Y-10973341D02*
X13167682Y-10935246D01*
X13167682Y-10935246D02*
X13158158Y-10887627D01*
X13158158Y-10887627D02*
X13148634Y-10859055D01*
X13148634Y-10859055D02*
X13139111Y-10840008D01*
X13139111Y-10840008D02*
X13120063Y-10811436D01*
X13120063Y-10811436D02*
X13110539Y-10801912D01*
M02*
