%TF.GenerationSoftware,KiCad,Pcbnew,8.0.4*%
%TF.CreationDate,2024-07-21T02:26:01-05:00*%
%TF.ProjectId,Glass,476c6173-732e-46b6-9963-61645f706362,rev?*%
%TF.SameCoordinates,Original*%
%TF.FileFunction,Drillmap*%
%TF.FilePolarity,Positive*%
%FSLAX45Y45*%
G04 Gerber Fmt 4.5, Leading zero omitted, Abs format (unit mm)*
G04 Created by KiCad (PCBNEW 8.0.4) date 2024-07-21 02:26:01*
%MOMM*%
%LPD*%
G01*
G04 APERTURE LIST*
%ADD10C,0.100000*%
%ADD11C,0.200000*%
%ADD12C,0.150000*%
%ADD13C,0.180000*%
%ADD14C,0.220000*%
%ADD15C,0.350000*%
G04 APERTURE END LIST*
D10*
X23095000Y-4097000D02*
X8150000Y-4097000D01*
X23095000Y-7011000D02*
X8150000Y-7011000D01*
X23095000Y-4097000D02*
X23095000Y-7011000D01*
X8150000Y-7011000D02*
X8150000Y-4097000D01*
X16215000Y-7081000D02*
X10196000Y-7081000D01*
X10196000Y-7081000D02*
X10196000Y-9766000D01*
X16215000Y-9766000D02*
X16215000Y-7081000D01*
X10196000Y-9766000D02*
X16215000Y-9766000D01*
D11*
D12*
X21104000Y-5201500D02*
X21254000Y-5351500D01*
X21254000Y-5201500D02*
X21104000Y-5351500D01*
X21104000Y-5686500D02*
X21254000Y-5836500D01*
X21254000Y-5686500D02*
X21104000Y-5836500D01*
D13*
X21572000Y-5246500D02*
G75*
G02*
X21392000Y-5246500I-90000J0D01*
G01*
X21392000Y-5246500D02*
G75*
G02*
X21572000Y-5246500I90000J0D01*
G01*
X21572000Y-5791500D02*
G75*
G02*
X21392000Y-5791500I-90000J0D01*
G01*
X21392000Y-5791500D02*
G75*
G02*
X21572000Y-5791500I90000J0D01*
G01*
D14*
X9895000Y-4343000D02*
X9895000Y-4563000D01*
X9785000Y-4453000D02*
X10005000Y-4453000D01*
X12405000Y-8247000D02*
X12405000Y-8467000D01*
X12295000Y-8357000D02*
X12515000Y-8357000D01*
X12890000Y-6155000D02*
X12890000Y-6375000D01*
X12780000Y-6265000D02*
X13000000Y-6265000D01*
X15895000Y-7332000D02*
X15895000Y-7552000D01*
X15785000Y-7442000D02*
X16005000Y-7442000D01*
X15895000Y-9202000D02*
X15895000Y-9422000D01*
X15785000Y-9312000D02*
X16005000Y-9312000D01*
X21953000Y-4267000D02*
X21953000Y-4487000D01*
X21843000Y-4377000D02*
X22063000Y-4377000D01*
X21957000Y-6600000D02*
X21957000Y-6820000D01*
X21847000Y-6710000D02*
X22067000Y-6710000D01*
D15*
X11679745Y-7721745D02*
X11679745Y-7474255D01*
X11432255Y-7474255D01*
X11432255Y-7721745D01*
X11679745Y-7721745D01*
X11679745Y-9321745D02*
X11679745Y-9074255D01*
X11432255Y-9074255D01*
X11432255Y-9321745D01*
X11679745Y-9321745D01*
X11680745Y-4797745D02*
X11680745Y-4550255D01*
X11433255Y-4550255D01*
X11433255Y-4797745D01*
X11680745Y-4797745D01*
X11680745Y-6397745D02*
X11680745Y-6150255D01*
X11433255Y-6150255D01*
X11433255Y-6397745D01*
X11680745Y-6397745D01*
X13685745Y-7721745D02*
X13685745Y-7474255D01*
X13438255Y-7474255D01*
X13438255Y-7721745D01*
X13685745Y-7721745D01*
X13685745Y-9321745D02*
X13685745Y-9074255D01*
X13438255Y-9074255D01*
X13438255Y-9321745D01*
X13685745Y-9321745D01*
X13686745Y-4797745D02*
X13686745Y-4550255D01*
X13439255Y-4550255D01*
X13439255Y-4797745D01*
X13686745Y-4797745D01*
X13686745Y-6397745D02*
X13686745Y-6150255D01*
X13439255Y-6150255D01*
X13439255Y-6397745D01*
X13686745Y-6397745D01*
D11*
X8405777Y-10082484D02*
X8405777Y-9882484D01*
X8405777Y-9882484D02*
X8453396Y-9882484D01*
X8453396Y-9882484D02*
X8481967Y-9892008D01*
X8481967Y-9892008D02*
X8501015Y-9911055D01*
X8501015Y-9911055D02*
X8510539Y-9930103D01*
X8510539Y-9930103D02*
X8520063Y-9968198D01*
X8520063Y-9968198D02*
X8520063Y-9996770D01*
X8520063Y-9996770D02*
X8510539Y-10034865D01*
X8510539Y-10034865D02*
X8501015Y-10053912D01*
X8501015Y-10053912D02*
X8481967Y-10072960D01*
X8481967Y-10072960D02*
X8453396Y-10082484D01*
X8453396Y-10082484D02*
X8405777Y-10082484D01*
X8605777Y-10082484D02*
X8605777Y-9949150D01*
X8605777Y-9987246D02*
X8615301Y-9968198D01*
X8615301Y-9968198D02*
X8624824Y-9958674D01*
X8624824Y-9958674D02*
X8643872Y-9949150D01*
X8643872Y-9949150D02*
X8662920Y-9949150D01*
X8729586Y-10082484D02*
X8729586Y-9949150D01*
X8729586Y-9882484D02*
X8720063Y-9892008D01*
X8720063Y-9892008D02*
X8729586Y-9901531D01*
X8729586Y-9901531D02*
X8739110Y-9892008D01*
X8739110Y-9892008D02*
X8729586Y-9882484D01*
X8729586Y-9882484D02*
X8729586Y-9901531D01*
X8853396Y-10082484D02*
X8834348Y-10072960D01*
X8834348Y-10072960D02*
X8824824Y-10053912D01*
X8824824Y-10053912D02*
X8824824Y-9882484D01*
X8958158Y-10082484D02*
X8939110Y-10072960D01*
X8939110Y-10072960D02*
X8929586Y-10053912D01*
X8929586Y-10053912D02*
X8929586Y-9882484D01*
X9186729Y-10082484D02*
X9186729Y-9882484D01*
X9186729Y-9882484D02*
X9253396Y-10025341D01*
X9253396Y-10025341D02*
X9320063Y-9882484D01*
X9320063Y-9882484D02*
X9320063Y-10082484D01*
X9501015Y-10082484D02*
X9501015Y-9977722D01*
X9501015Y-9977722D02*
X9491491Y-9958674D01*
X9491491Y-9958674D02*
X9472444Y-9949150D01*
X9472444Y-9949150D02*
X9434348Y-9949150D01*
X9434348Y-9949150D02*
X9415301Y-9958674D01*
X9501015Y-10072960D02*
X9481967Y-10082484D01*
X9481967Y-10082484D02*
X9434348Y-10082484D01*
X9434348Y-10082484D02*
X9415301Y-10072960D01*
X9415301Y-10072960D02*
X9405777Y-10053912D01*
X9405777Y-10053912D02*
X9405777Y-10034865D01*
X9405777Y-10034865D02*
X9415301Y-10015817D01*
X9415301Y-10015817D02*
X9434348Y-10006293D01*
X9434348Y-10006293D02*
X9481967Y-10006293D01*
X9481967Y-10006293D02*
X9501015Y-9996770D01*
X9596253Y-9949150D02*
X9596253Y-10149150D01*
X9596253Y-9958674D02*
X9615301Y-9949150D01*
X9615301Y-9949150D02*
X9653396Y-9949150D01*
X9653396Y-9949150D02*
X9672444Y-9958674D01*
X9672444Y-9958674D02*
X9681967Y-9968198D01*
X9681967Y-9968198D02*
X9691491Y-9987246D01*
X9691491Y-9987246D02*
X9691491Y-10044389D01*
X9691491Y-10044389D02*
X9681967Y-10063436D01*
X9681967Y-10063436D02*
X9672444Y-10072960D01*
X9672444Y-10072960D02*
X9653396Y-10082484D01*
X9653396Y-10082484D02*
X9615301Y-10082484D01*
X9615301Y-10082484D02*
X9596253Y-10072960D01*
X9777205Y-10063436D02*
X9786729Y-10072960D01*
X9786729Y-10072960D02*
X9777205Y-10082484D01*
X9777205Y-10082484D02*
X9767682Y-10072960D01*
X9767682Y-10072960D02*
X9777205Y-10063436D01*
X9777205Y-10063436D02*
X9777205Y-10082484D01*
X9777205Y-9958674D02*
X9786729Y-9968198D01*
X9786729Y-9968198D02*
X9777205Y-9977722D01*
X9777205Y-9977722D02*
X9767682Y-9968198D01*
X9767682Y-9968198D02*
X9777205Y-9958674D01*
X9777205Y-9958674D02*
X9777205Y-9977722D01*
D12*
X7995000Y-10336000D02*
X8145000Y-10486000D01*
X8145000Y-10336000D02*
X7995000Y-10486000D01*
D11*
X8510539Y-10502484D02*
X8396253Y-10502484D01*
X8453396Y-10502484D02*
X8453396Y-10302484D01*
X8453396Y-10302484D02*
X8434348Y-10331055D01*
X8434348Y-10331055D02*
X8415301Y-10350103D01*
X8415301Y-10350103D02*
X8396253Y-10359627D01*
X8596253Y-10483436D02*
X8605777Y-10492960D01*
X8605777Y-10492960D02*
X8596253Y-10502484D01*
X8596253Y-10502484D02*
X8586729Y-10492960D01*
X8586729Y-10492960D02*
X8596253Y-10483436D01*
X8596253Y-10483436D02*
X8596253Y-10502484D01*
X8786729Y-10302484D02*
X8691491Y-10302484D01*
X8691491Y-10302484D02*
X8681967Y-10397722D01*
X8681967Y-10397722D02*
X8691491Y-10388198D01*
X8691491Y-10388198D02*
X8710539Y-10378674D01*
X8710539Y-10378674D02*
X8758158Y-10378674D01*
X8758158Y-10378674D02*
X8777205Y-10388198D01*
X8777205Y-10388198D02*
X8786729Y-10397722D01*
X8786729Y-10397722D02*
X8796253Y-10416770D01*
X8796253Y-10416770D02*
X8796253Y-10464389D01*
X8796253Y-10464389D02*
X8786729Y-10483436D01*
X8786729Y-10483436D02*
X8777205Y-10492960D01*
X8777205Y-10492960D02*
X8758158Y-10502484D01*
X8758158Y-10502484D02*
X8710539Y-10502484D01*
X8710539Y-10502484D02*
X8691491Y-10492960D01*
X8691491Y-10492960D02*
X8681967Y-10483436D01*
X8920063Y-10302484D02*
X8939110Y-10302484D01*
X8939110Y-10302484D02*
X8958158Y-10312008D01*
X8958158Y-10312008D02*
X8967682Y-10321531D01*
X8967682Y-10321531D02*
X8977205Y-10340579D01*
X8977205Y-10340579D02*
X8986729Y-10378674D01*
X8986729Y-10378674D02*
X8986729Y-10426293D01*
X8986729Y-10426293D02*
X8977205Y-10464389D01*
X8977205Y-10464389D02*
X8967682Y-10483436D01*
X8967682Y-10483436D02*
X8958158Y-10492960D01*
X8958158Y-10492960D02*
X8939110Y-10502484D01*
X8939110Y-10502484D02*
X8920063Y-10502484D01*
X8920063Y-10502484D02*
X8901015Y-10492960D01*
X8901015Y-10492960D02*
X8891491Y-10483436D01*
X8891491Y-10483436D02*
X8881967Y-10464389D01*
X8881967Y-10464389D02*
X8872444Y-10426293D01*
X8872444Y-10426293D02*
X8872444Y-10378674D01*
X8872444Y-10378674D02*
X8881967Y-10340579D01*
X8881967Y-10340579D02*
X8891491Y-10321531D01*
X8891491Y-10321531D02*
X8901015Y-10312008D01*
X8901015Y-10312008D02*
X8920063Y-10302484D01*
X9110539Y-10302484D02*
X9129586Y-10302484D01*
X9129586Y-10302484D02*
X9148634Y-10312008D01*
X9148634Y-10312008D02*
X9158158Y-10321531D01*
X9158158Y-10321531D02*
X9167682Y-10340579D01*
X9167682Y-10340579D02*
X9177205Y-10378674D01*
X9177205Y-10378674D02*
X9177205Y-10426293D01*
X9177205Y-10426293D02*
X9167682Y-10464389D01*
X9167682Y-10464389D02*
X9158158Y-10483436D01*
X9158158Y-10483436D02*
X9148634Y-10492960D01*
X9148634Y-10492960D02*
X9129586Y-10502484D01*
X9129586Y-10502484D02*
X9110539Y-10502484D01*
X9110539Y-10502484D02*
X9091491Y-10492960D01*
X9091491Y-10492960D02*
X9081967Y-10483436D01*
X9081967Y-10483436D02*
X9072444Y-10464389D01*
X9072444Y-10464389D02*
X9062920Y-10426293D01*
X9062920Y-10426293D02*
X9062920Y-10378674D01*
X9062920Y-10378674D02*
X9072444Y-10340579D01*
X9072444Y-10340579D02*
X9081967Y-10321531D01*
X9081967Y-10321531D02*
X9091491Y-10312008D01*
X9091491Y-10312008D02*
X9110539Y-10302484D01*
X9262920Y-10502484D02*
X9262920Y-10369150D01*
X9262920Y-10388198D02*
X9272444Y-10378674D01*
X9272444Y-10378674D02*
X9291491Y-10369150D01*
X9291491Y-10369150D02*
X9320063Y-10369150D01*
X9320063Y-10369150D02*
X9339110Y-10378674D01*
X9339110Y-10378674D02*
X9348634Y-10397722D01*
X9348634Y-10397722D02*
X9348634Y-10502484D01*
X9348634Y-10397722D02*
X9358158Y-10378674D01*
X9358158Y-10378674D02*
X9377205Y-10369150D01*
X9377205Y-10369150D02*
X9405777Y-10369150D01*
X9405777Y-10369150D02*
X9424825Y-10378674D01*
X9424825Y-10378674D02*
X9434348Y-10397722D01*
X9434348Y-10397722D02*
X9434348Y-10502484D01*
X9529586Y-10502484D02*
X9529586Y-10369150D01*
X9529586Y-10388198D02*
X9539110Y-10378674D01*
X9539110Y-10378674D02*
X9558158Y-10369150D01*
X9558158Y-10369150D02*
X9586729Y-10369150D01*
X9586729Y-10369150D02*
X9605777Y-10378674D01*
X9605777Y-10378674D02*
X9615301Y-10397722D01*
X9615301Y-10397722D02*
X9615301Y-10502484D01*
X9615301Y-10397722D02*
X9624825Y-10378674D01*
X9624825Y-10378674D02*
X9643872Y-10369150D01*
X9643872Y-10369150D02*
X9672444Y-10369150D01*
X9672444Y-10369150D02*
X9691491Y-10378674D01*
X9691491Y-10378674D02*
X9701015Y-10397722D01*
X9701015Y-10397722D02*
X9701015Y-10502484D01*
X10091491Y-10292960D02*
X9920063Y-10550103D01*
X10348634Y-10302484D02*
X10367682Y-10302484D01*
X10367682Y-10302484D02*
X10386729Y-10312008D01*
X10386729Y-10312008D02*
X10396253Y-10321531D01*
X10396253Y-10321531D02*
X10405777Y-10340579D01*
X10405777Y-10340579D02*
X10415301Y-10378674D01*
X10415301Y-10378674D02*
X10415301Y-10426293D01*
X10415301Y-10426293D02*
X10405777Y-10464389D01*
X10405777Y-10464389D02*
X10396253Y-10483436D01*
X10396253Y-10483436D02*
X10386729Y-10492960D01*
X10386729Y-10492960D02*
X10367682Y-10502484D01*
X10367682Y-10502484D02*
X10348634Y-10502484D01*
X10348634Y-10502484D02*
X10329587Y-10492960D01*
X10329587Y-10492960D02*
X10320063Y-10483436D01*
X10320063Y-10483436D02*
X10310539Y-10464389D01*
X10310539Y-10464389D02*
X10301015Y-10426293D01*
X10301015Y-10426293D02*
X10301015Y-10378674D01*
X10301015Y-10378674D02*
X10310539Y-10340579D01*
X10310539Y-10340579D02*
X10320063Y-10321531D01*
X10320063Y-10321531D02*
X10329587Y-10312008D01*
X10329587Y-10312008D02*
X10348634Y-10302484D01*
X10501015Y-10483436D02*
X10510539Y-10492960D01*
X10510539Y-10492960D02*
X10501015Y-10502484D01*
X10501015Y-10502484D02*
X10491491Y-10492960D01*
X10491491Y-10492960D02*
X10501015Y-10483436D01*
X10501015Y-10483436D02*
X10501015Y-10502484D01*
X10634348Y-10302484D02*
X10653396Y-10302484D01*
X10653396Y-10302484D02*
X10672444Y-10312008D01*
X10672444Y-10312008D02*
X10681968Y-10321531D01*
X10681968Y-10321531D02*
X10691491Y-10340579D01*
X10691491Y-10340579D02*
X10701015Y-10378674D01*
X10701015Y-10378674D02*
X10701015Y-10426293D01*
X10701015Y-10426293D02*
X10691491Y-10464389D01*
X10691491Y-10464389D02*
X10681968Y-10483436D01*
X10681968Y-10483436D02*
X10672444Y-10492960D01*
X10672444Y-10492960D02*
X10653396Y-10502484D01*
X10653396Y-10502484D02*
X10634348Y-10502484D01*
X10634348Y-10502484D02*
X10615301Y-10492960D01*
X10615301Y-10492960D02*
X10605777Y-10483436D01*
X10605777Y-10483436D02*
X10596253Y-10464389D01*
X10596253Y-10464389D02*
X10586729Y-10426293D01*
X10586729Y-10426293D02*
X10586729Y-10378674D01*
X10586729Y-10378674D02*
X10596253Y-10340579D01*
X10596253Y-10340579D02*
X10605777Y-10321531D01*
X10605777Y-10321531D02*
X10615301Y-10312008D01*
X10615301Y-10312008D02*
X10634348Y-10302484D01*
X10881968Y-10302484D02*
X10786729Y-10302484D01*
X10786729Y-10302484D02*
X10777206Y-10397722D01*
X10777206Y-10397722D02*
X10786729Y-10388198D01*
X10786729Y-10388198D02*
X10805777Y-10378674D01*
X10805777Y-10378674D02*
X10853396Y-10378674D01*
X10853396Y-10378674D02*
X10872444Y-10388198D01*
X10872444Y-10388198D02*
X10881968Y-10397722D01*
X10881968Y-10397722D02*
X10891491Y-10416770D01*
X10891491Y-10416770D02*
X10891491Y-10464389D01*
X10891491Y-10464389D02*
X10881968Y-10483436D01*
X10881968Y-10483436D02*
X10872444Y-10492960D01*
X10872444Y-10492960D02*
X10853396Y-10502484D01*
X10853396Y-10502484D02*
X10805777Y-10502484D01*
X10805777Y-10502484D02*
X10786729Y-10492960D01*
X10786729Y-10492960D02*
X10777206Y-10483436D01*
X10986729Y-10502484D02*
X11024825Y-10502484D01*
X11024825Y-10502484D02*
X11043872Y-10492960D01*
X11043872Y-10492960D02*
X11053396Y-10483436D01*
X11053396Y-10483436D02*
X11072444Y-10454865D01*
X11072444Y-10454865D02*
X11081968Y-10416770D01*
X11081968Y-10416770D02*
X11081968Y-10340579D01*
X11081968Y-10340579D02*
X11072444Y-10321531D01*
X11072444Y-10321531D02*
X11062920Y-10312008D01*
X11062920Y-10312008D02*
X11043872Y-10302484D01*
X11043872Y-10302484D02*
X11005777Y-10302484D01*
X11005777Y-10302484D02*
X10986729Y-10312008D01*
X10986729Y-10312008D02*
X10977206Y-10321531D01*
X10977206Y-10321531D02*
X10967682Y-10340579D01*
X10967682Y-10340579D02*
X10967682Y-10388198D01*
X10967682Y-10388198D02*
X10977206Y-10407246D01*
X10977206Y-10407246D02*
X10986729Y-10416770D01*
X10986729Y-10416770D02*
X11005777Y-10426293D01*
X11005777Y-10426293D02*
X11043872Y-10426293D01*
X11043872Y-10426293D02*
X11062920Y-10416770D01*
X11062920Y-10416770D02*
X11072444Y-10407246D01*
X11072444Y-10407246D02*
X11081968Y-10388198D01*
X11272444Y-10502484D02*
X11158158Y-10502484D01*
X11215301Y-10502484D02*
X11215301Y-10302484D01*
X11215301Y-10302484D02*
X11196253Y-10331055D01*
X11196253Y-10331055D02*
X11177206Y-10350103D01*
X11177206Y-10350103D02*
X11158158Y-10359627D01*
X11348634Y-10302484D02*
X11348634Y-10340579D01*
X11424825Y-10302484D02*
X11424825Y-10340579D01*
X11720063Y-10578674D02*
X11710539Y-10569150D01*
X11710539Y-10569150D02*
X11691491Y-10540579D01*
X11691491Y-10540579D02*
X11681968Y-10521531D01*
X11681968Y-10521531D02*
X11672444Y-10492960D01*
X11672444Y-10492960D02*
X11662920Y-10445341D01*
X11662920Y-10445341D02*
X11662920Y-10407246D01*
X11662920Y-10407246D02*
X11672444Y-10359627D01*
X11672444Y-10359627D02*
X11681968Y-10331055D01*
X11681968Y-10331055D02*
X11691491Y-10312008D01*
X11691491Y-10312008D02*
X11710539Y-10283436D01*
X11710539Y-10283436D02*
X11720063Y-10273912D01*
X11786729Y-10321531D02*
X11796253Y-10312008D01*
X11796253Y-10312008D02*
X11815301Y-10302484D01*
X11815301Y-10302484D02*
X11862920Y-10302484D01*
X11862920Y-10302484D02*
X11881968Y-10312008D01*
X11881968Y-10312008D02*
X11891491Y-10321531D01*
X11891491Y-10321531D02*
X11901015Y-10340579D01*
X11901015Y-10340579D02*
X11901015Y-10359627D01*
X11901015Y-10359627D02*
X11891491Y-10388198D01*
X11891491Y-10388198D02*
X11777206Y-10502484D01*
X11777206Y-10502484D02*
X11901015Y-10502484D01*
X12139110Y-10502484D02*
X12139110Y-10302484D01*
X12224825Y-10502484D02*
X12224825Y-10397722D01*
X12224825Y-10397722D02*
X12215301Y-10378674D01*
X12215301Y-10378674D02*
X12196253Y-10369150D01*
X12196253Y-10369150D02*
X12167682Y-10369150D01*
X12167682Y-10369150D02*
X12148634Y-10378674D01*
X12148634Y-10378674D02*
X12139110Y-10388198D01*
X12348634Y-10502484D02*
X12329587Y-10492960D01*
X12329587Y-10492960D02*
X12320063Y-10483436D01*
X12320063Y-10483436D02*
X12310539Y-10464389D01*
X12310539Y-10464389D02*
X12310539Y-10407246D01*
X12310539Y-10407246D02*
X12320063Y-10388198D01*
X12320063Y-10388198D02*
X12329587Y-10378674D01*
X12329587Y-10378674D02*
X12348634Y-10369150D01*
X12348634Y-10369150D02*
X12377206Y-10369150D01*
X12377206Y-10369150D02*
X12396253Y-10378674D01*
X12396253Y-10378674D02*
X12405777Y-10388198D01*
X12405777Y-10388198D02*
X12415301Y-10407246D01*
X12415301Y-10407246D02*
X12415301Y-10464389D01*
X12415301Y-10464389D02*
X12405777Y-10483436D01*
X12405777Y-10483436D02*
X12396253Y-10492960D01*
X12396253Y-10492960D02*
X12377206Y-10502484D01*
X12377206Y-10502484D02*
X12348634Y-10502484D01*
X12529587Y-10502484D02*
X12510539Y-10492960D01*
X12510539Y-10492960D02*
X12501015Y-10473912D01*
X12501015Y-10473912D02*
X12501015Y-10302484D01*
X12681968Y-10492960D02*
X12662920Y-10502484D01*
X12662920Y-10502484D02*
X12624825Y-10502484D01*
X12624825Y-10502484D02*
X12605777Y-10492960D01*
X12605777Y-10492960D02*
X12596253Y-10473912D01*
X12596253Y-10473912D02*
X12596253Y-10397722D01*
X12596253Y-10397722D02*
X12605777Y-10378674D01*
X12605777Y-10378674D02*
X12624825Y-10369150D01*
X12624825Y-10369150D02*
X12662920Y-10369150D01*
X12662920Y-10369150D02*
X12681968Y-10378674D01*
X12681968Y-10378674D02*
X12691491Y-10397722D01*
X12691491Y-10397722D02*
X12691491Y-10416770D01*
X12691491Y-10416770D02*
X12596253Y-10435817D01*
X12767682Y-10492960D02*
X12786730Y-10502484D01*
X12786730Y-10502484D02*
X12824825Y-10502484D01*
X12824825Y-10502484D02*
X12843872Y-10492960D01*
X12843872Y-10492960D02*
X12853396Y-10473912D01*
X12853396Y-10473912D02*
X12853396Y-10464389D01*
X12853396Y-10464389D02*
X12843872Y-10445341D01*
X12843872Y-10445341D02*
X12824825Y-10435817D01*
X12824825Y-10435817D02*
X12796253Y-10435817D01*
X12796253Y-10435817D02*
X12777206Y-10426293D01*
X12777206Y-10426293D02*
X12767682Y-10407246D01*
X12767682Y-10407246D02*
X12767682Y-10397722D01*
X12767682Y-10397722D02*
X12777206Y-10378674D01*
X12777206Y-10378674D02*
X12796253Y-10369150D01*
X12796253Y-10369150D02*
X12824825Y-10369150D01*
X12824825Y-10369150D02*
X12843872Y-10378674D01*
X12920063Y-10578674D02*
X12929587Y-10569150D01*
X12929587Y-10569150D02*
X12948634Y-10540579D01*
X12948634Y-10540579D02*
X12958158Y-10521531D01*
X12958158Y-10521531D02*
X12967682Y-10492960D01*
X12967682Y-10492960D02*
X12977206Y-10445341D01*
X12977206Y-10445341D02*
X12977206Y-10407246D01*
X12977206Y-10407246D02*
X12967682Y-10359627D01*
X12967682Y-10359627D02*
X12958158Y-10331055D01*
X12958158Y-10331055D02*
X12948634Y-10312008D01*
X12948634Y-10312008D02*
X12929587Y-10283436D01*
X12929587Y-10283436D02*
X12920063Y-10273912D01*
X13281968Y-10578674D02*
X13272444Y-10569150D01*
X13272444Y-10569150D02*
X13253396Y-10540579D01*
X13253396Y-10540579D02*
X13243872Y-10521531D01*
X13243872Y-10521531D02*
X13234349Y-10492960D01*
X13234349Y-10492960D02*
X13224825Y-10445341D01*
X13224825Y-10445341D02*
X13224825Y-10407246D01*
X13224825Y-10407246D02*
X13234349Y-10359627D01*
X13234349Y-10359627D02*
X13243872Y-10331055D01*
X13243872Y-10331055D02*
X13253396Y-10312008D01*
X13253396Y-10312008D02*
X13272444Y-10283436D01*
X13272444Y-10283436D02*
X13281968Y-10273912D01*
X13358158Y-10369150D02*
X13358158Y-10502484D01*
X13358158Y-10388198D02*
X13367682Y-10378674D01*
X13367682Y-10378674D02*
X13386730Y-10369150D01*
X13386730Y-10369150D02*
X13415301Y-10369150D01*
X13415301Y-10369150D02*
X13434349Y-10378674D01*
X13434349Y-10378674D02*
X13443872Y-10397722D01*
X13443872Y-10397722D02*
X13443872Y-10502484D01*
X13567682Y-10502484D02*
X13548634Y-10492960D01*
X13548634Y-10492960D02*
X13539111Y-10483436D01*
X13539111Y-10483436D02*
X13529587Y-10464389D01*
X13529587Y-10464389D02*
X13529587Y-10407246D01*
X13529587Y-10407246D02*
X13539111Y-10388198D01*
X13539111Y-10388198D02*
X13548634Y-10378674D01*
X13548634Y-10378674D02*
X13567682Y-10369150D01*
X13567682Y-10369150D02*
X13596253Y-10369150D01*
X13596253Y-10369150D02*
X13615301Y-10378674D01*
X13615301Y-10378674D02*
X13624825Y-10388198D01*
X13624825Y-10388198D02*
X13634349Y-10407246D01*
X13634349Y-10407246D02*
X13634349Y-10464389D01*
X13634349Y-10464389D02*
X13624825Y-10483436D01*
X13624825Y-10483436D02*
X13615301Y-10492960D01*
X13615301Y-10492960D02*
X13596253Y-10502484D01*
X13596253Y-10502484D02*
X13567682Y-10502484D01*
X13691492Y-10369150D02*
X13767682Y-10369150D01*
X13720063Y-10302484D02*
X13720063Y-10473912D01*
X13720063Y-10473912D02*
X13729587Y-10492960D01*
X13729587Y-10492960D02*
X13748634Y-10502484D01*
X13748634Y-10502484D02*
X13767682Y-10502484D01*
X13986730Y-10369150D02*
X13986730Y-10569150D01*
X13986730Y-10378674D02*
X14005777Y-10369150D01*
X14005777Y-10369150D02*
X14043873Y-10369150D01*
X14043873Y-10369150D02*
X14062920Y-10378674D01*
X14062920Y-10378674D02*
X14072444Y-10388198D01*
X14072444Y-10388198D02*
X14081968Y-10407246D01*
X14081968Y-10407246D02*
X14081968Y-10464389D01*
X14081968Y-10464389D02*
X14072444Y-10483436D01*
X14072444Y-10483436D02*
X14062920Y-10492960D01*
X14062920Y-10492960D02*
X14043873Y-10502484D01*
X14043873Y-10502484D02*
X14005777Y-10502484D01*
X14005777Y-10502484D02*
X13986730Y-10492960D01*
X14196253Y-10502484D02*
X14177206Y-10492960D01*
X14177206Y-10492960D02*
X14167682Y-10473912D01*
X14167682Y-10473912D02*
X14167682Y-10302484D01*
X14358158Y-10502484D02*
X14358158Y-10397722D01*
X14358158Y-10397722D02*
X14348634Y-10378674D01*
X14348634Y-10378674D02*
X14329587Y-10369150D01*
X14329587Y-10369150D02*
X14291492Y-10369150D01*
X14291492Y-10369150D02*
X14272444Y-10378674D01*
X14358158Y-10492960D02*
X14339111Y-10502484D01*
X14339111Y-10502484D02*
X14291492Y-10502484D01*
X14291492Y-10502484D02*
X14272444Y-10492960D01*
X14272444Y-10492960D02*
X14262920Y-10473912D01*
X14262920Y-10473912D02*
X14262920Y-10454865D01*
X14262920Y-10454865D02*
X14272444Y-10435817D01*
X14272444Y-10435817D02*
X14291492Y-10426293D01*
X14291492Y-10426293D02*
X14339111Y-10426293D01*
X14339111Y-10426293D02*
X14358158Y-10416770D01*
X14424825Y-10369150D02*
X14501015Y-10369150D01*
X14453396Y-10302484D02*
X14453396Y-10473912D01*
X14453396Y-10473912D02*
X14462920Y-10492960D01*
X14462920Y-10492960D02*
X14481968Y-10502484D01*
X14481968Y-10502484D02*
X14501015Y-10502484D01*
X14643873Y-10492960D02*
X14624825Y-10502484D01*
X14624825Y-10502484D02*
X14586730Y-10502484D01*
X14586730Y-10502484D02*
X14567682Y-10492960D01*
X14567682Y-10492960D02*
X14558158Y-10473912D01*
X14558158Y-10473912D02*
X14558158Y-10397722D01*
X14558158Y-10397722D02*
X14567682Y-10378674D01*
X14567682Y-10378674D02*
X14586730Y-10369150D01*
X14586730Y-10369150D02*
X14624825Y-10369150D01*
X14624825Y-10369150D02*
X14643873Y-10378674D01*
X14643873Y-10378674D02*
X14653396Y-10397722D01*
X14653396Y-10397722D02*
X14653396Y-10416770D01*
X14653396Y-10416770D02*
X14558158Y-10435817D01*
X14824825Y-10502484D02*
X14824825Y-10302484D01*
X14824825Y-10492960D02*
X14805777Y-10502484D01*
X14805777Y-10502484D02*
X14767682Y-10502484D01*
X14767682Y-10502484D02*
X14748634Y-10492960D01*
X14748634Y-10492960D02*
X14739111Y-10483436D01*
X14739111Y-10483436D02*
X14729587Y-10464389D01*
X14729587Y-10464389D02*
X14729587Y-10407246D01*
X14729587Y-10407246D02*
X14739111Y-10388198D01*
X14739111Y-10388198D02*
X14748634Y-10378674D01*
X14748634Y-10378674D02*
X14767682Y-10369150D01*
X14767682Y-10369150D02*
X14805777Y-10369150D01*
X14805777Y-10369150D02*
X14824825Y-10378674D01*
X14901015Y-10578674D02*
X14910539Y-10569150D01*
X14910539Y-10569150D02*
X14929587Y-10540579D01*
X14929587Y-10540579D02*
X14939111Y-10521531D01*
X14939111Y-10521531D02*
X14948634Y-10492960D01*
X14948634Y-10492960D02*
X14958158Y-10445341D01*
X14958158Y-10445341D02*
X14958158Y-10407246D01*
X14958158Y-10407246D02*
X14948634Y-10359627D01*
X14948634Y-10359627D02*
X14939111Y-10331055D01*
X14939111Y-10331055D02*
X14929587Y-10312008D01*
X14929587Y-10312008D02*
X14910539Y-10283436D01*
X14910539Y-10283436D02*
X14901015Y-10273912D01*
D13*
X8145000Y-10681000D02*
G75*
G02*
X7965000Y-10681000I-90000J0D01*
G01*
X7965000Y-10681000D02*
G75*
G02*
X8145000Y-10681000I90000J0D01*
G01*
D11*
X8510539Y-10772484D02*
X8396253Y-10772484D01*
X8453396Y-10772484D02*
X8453396Y-10572484D01*
X8453396Y-10572484D02*
X8434348Y-10601055D01*
X8434348Y-10601055D02*
X8415301Y-10620103D01*
X8415301Y-10620103D02*
X8396253Y-10629627D01*
X8596253Y-10753436D02*
X8605777Y-10762960D01*
X8605777Y-10762960D02*
X8596253Y-10772484D01*
X8596253Y-10772484D02*
X8586729Y-10762960D01*
X8586729Y-10762960D02*
X8596253Y-10753436D01*
X8596253Y-10753436D02*
X8596253Y-10772484D01*
X8720063Y-10658198D02*
X8701015Y-10648674D01*
X8701015Y-10648674D02*
X8691491Y-10639150D01*
X8691491Y-10639150D02*
X8681967Y-10620103D01*
X8681967Y-10620103D02*
X8681967Y-10610579D01*
X8681967Y-10610579D02*
X8691491Y-10591531D01*
X8691491Y-10591531D02*
X8701015Y-10582008D01*
X8701015Y-10582008D02*
X8720063Y-10572484D01*
X8720063Y-10572484D02*
X8758158Y-10572484D01*
X8758158Y-10572484D02*
X8777205Y-10582008D01*
X8777205Y-10582008D02*
X8786729Y-10591531D01*
X8786729Y-10591531D02*
X8796253Y-10610579D01*
X8796253Y-10610579D02*
X8796253Y-10620103D01*
X8796253Y-10620103D02*
X8786729Y-10639150D01*
X8786729Y-10639150D02*
X8777205Y-10648674D01*
X8777205Y-10648674D02*
X8758158Y-10658198D01*
X8758158Y-10658198D02*
X8720063Y-10658198D01*
X8720063Y-10658198D02*
X8701015Y-10667722D01*
X8701015Y-10667722D02*
X8691491Y-10677246D01*
X8691491Y-10677246D02*
X8681967Y-10696293D01*
X8681967Y-10696293D02*
X8681967Y-10734389D01*
X8681967Y-10734389D02*
X8691491Y-10753436D01*
X8691491Y-10753436D02*
X8701015Y-10762960D01*
X8701015Y-10762960D02*
X8720063Y-10772484D01*
X8720063Y-10772484D02*
X8758158Y-10772484D01*
X8758158Y-10772484D02*
X8777205Y-10762960D01*
X8777205Y-10762960D02*
X8786729Y-10753436D01*
X8786729Y-10753436D02*
X8796253Y-10734389D01*
X8796253Y-10734389D02*
X8796253Y-10696293D01*
X8796253Y-10696293D02*
X8786729Y-10677246D01*
X8786729Y-10677246D02*
X8777205Y-10667722D01*
X8777205Y-10667722D02*
X8758158Y-10658198D01*
X8920063Y-10572484D02*
X8939110Y-10572484D01*
X8939110Y-10572484D02*
X8958158Y-10582008D01*
X8958158Y-10582008D02*
X8967682Y-10591531D01*
X8967682Y-10591531D02*
X8977205Y-10610579D01*
X8977205Y-10610579D02*
X8986729Y-10648674D01*
X8986729Y-10648674D02*
X8986729Y-10696293D01*
X8986729Y-10696293D02*
X8977205Y-10734389D01*
X8977205Y-10734389D02*
X8967682Y-10753436D01*
X8967682Y-10753436D02*
X8958158Y-10762960D01*
X8958158Y-10762960D02*
X8939110Y-10772484D01*
X8939110Y-10772484D02*
X8920063Y-10772484D01*
X8920063Y-10772484D02*
X8901015Y-10762960D01*
X8901015Y-10762960D02*
X8891491Y-10753436D01*
X8891491Y-10753436D02*
X8881967Y-10734389D01*
X8881967Y-10734389D02*
X8872444Y-10696293D01*
X8872444Y-10696293D02*
X8872444Y-10648674D01*
X8872444Y-10648674D02*
X8881967Y-10610579D01*
X8881967Y-10610579D02*
X8891491Y-10591531D01*
X8891491Y-10591531D02*
X8901015Y-10582008D01*
X8901015Y-10582008D02*
X8920063Y-10572484D01*
X9110539Y-10572484D02*
X9129586Y-10572484D01*
X9129586Y-10572484D02*
X9148634Y-10582008D01*
X9148634Y-10582008D02*
X9158158Y-10591531D01*
X9158158Y-10591531D02*
X9167682Y-10610579D01*
X9167682Y-10610579D02*
X9177205Y-10648674D01*
X9177205Y-10648674D02*
X9177205Y-10696293D01*
X9177205Y-10696293D02*
X9167682Y-10734389D01*
X9167682Y-10734389D02*
X9158158Y-10753436D01*
X9158158Y-10753436D02*
X9148634Y-10762960D01*
X9148634Y-10762960D02*
X9129586Y-10772484D01*
X9129586Y-10772484D02*
X9110539Y-10772484D01*
X9110539Y-10772484D02*
X9091491Y-10762960D01*
X9091491Y-10762960D02*
X9081967Y-10753436D01*
X9081967Y-10753436D02*
X9072444Y-10734389D01*
X9072444Y-10734389D02*
X9062920Y-10696293D01*
X9062920Y-10696293D02*
X9062920Y-10648674D01*
X9062920Y-10648674D02*
X9072444Y-10610579D01*
X9072444Y-10610579D02*
X9081967Y-10591531D01*
X9081967Y-10591531D02*
X9091491Y-10582008D01*
X9091491Y-10582008D02*
X9110539Y-10572484D01*
X9262920Y-10772484D02*
X9262920Y-10639150D01*
X9262920Y-10658198D02*
X9272444Y-10648674D01*
X9272444Y-10648674D02*
X9291491Y-10639150D01*
X9291491Y-10639150D02*
X9320063Y-10639150D01*
X9320063Y-10639150D02*
X9339110Y-10648674D01*
X9339110Y-10648674D02*
X9348634Y-10667722D01*
X9348634Y-10667722D02*
X9348634Y-10772484D01*
X9348634Y-10667722D02*
X9358158Y-10648674D01*
X9358158Y-10648674D02*
X9377205Y-10639150D01*
X9377205Y-10639150D02*
X9405777Y-10639150D01*
X9405777Y-10639150D02*
X9424825Y-10648674D01*
X9424825Y-10648674D02*
X9434348Y-10667722D01*
X9434348Y-10667722D02*
X9434348Y-10772484D01*
X9529586Y-10772484D02*
X9529586Y-10639150D01*
X9529586Y-10658198D02*
X9539110Y-10648674D01*
X9539110Y-10648674D02*
X9558158Y-10639150D01*
X9558158Y-10639150D02*
X9586729Y-10639150D01*
X9586729Y-10639150D02*
X9605777Y-10648674D01*
X9605777Y-10648674D02*
X9615301Y-10667722D01*
X9615301Y-10667722D02*
X9615301Y-10772484D01*
X9615301Y-10667722D02*
X9624825Y-10648674D01*
X9624825Y-10648674D02*
X9643872Y-10639150D01*
X9643872Y-10639150D02*
X9672444Y-10639150D01*
X9672444Y-10639150D02*
X9691491Y-10648674D01*
X9691491Y-10648674D02*
X9701015Y-10667722D01*
X9701015Y-10667722D02*
X9701015Y-10772484D01*
X10091491Y-10562960D02*
X9920063Y-10820103D01*
X10348634Y-10572484D02*
X10367682Y-10572484D01*
X10367682Y-10572484D02*
X10386729Y-10582008D01*
X10386729Y-10582008D02*
X10396253Y-10591531D01*
X10396253Y-10591531D02*
X10405777Y-10610579D01*
X10405777Y-10610579D02*
X10415301Y-10648674D01*
X10415301Y-10648674D02*
X10415301Y-10696293D01*
X10415301Y-10696293D02*
X10405777Y-10734389D01*
X10405777Y-10734389D02*
X10396253Y-10753436D01*
X10396253Y-10753436D02*
X10386729Y-10762960D01*
X10386729Y-10762960D02*
X10367682Y-10772484D01*
X10367682Y-10772484D02*
X10348634Y-10772484D01*
X10348634Y-10772484D02*
X10329587Y-10762960D01*
X10329587Y-10762960D02*
X10320063Y-10753436D01*
X10320063Y-10753436D02*
X10310539Y-10734389D01*
X10310539Y-10734389D02*
X10301015Y-10696293D01*
X10301015Y-10696293D02*
X10301015Y-10648674D01*
X10301015Y-10648674D02*
X10310539Y-10610579D01*
X10310539Y-10610579D02*
X10320063Y-10591531D01*
X10320063Y-10591531D02*
X10329587Y-10582008D01*
X10329587Y-10582008D02*
X10348634Y-10572484D01*
X10501015Y-10753436D02*
X10510539Y-10762960D01*
X10510539Y-10762960D02*
X10501015Y-10772484D01*
X10501015Y-10772484D02*
X10491491Y-10762960D01*
X10491491Y-10762960D02*
X10501015Y-10753436D01*
X10501015Y-10753436D02*
X10501015Y-10772484D01*
X10634348Y-10572484D02*
X10653396Y-10572484D01*
X10653396Y-10572484D02*
X10672444Y-10582008D01*
X10672444Y-10582008D02*
X10681968Y-10591531D01*
X10681968Y-10591531D02*
X10691491Y-10610579D01*
X10691491Y-10610579D02*
X10701015Y-10648674D01*
X10701015Y-10648674D02*
X10701015Y-10696293D01*
X10701015Y-10696293D02*
X10691491Y-10734389D01*
X10691491Y-10734389D02*
X10681968Y-10753436D01*
X10681968Y-10753436D02*
X10672444Y-10762960D01*
X10672444Y-10762960D02*
X10653396Y-10772484D01*
X10653396Y-10772484D02*
X10634348Y-10772484D01*
X10634348Y-10772484D02*
X10615301Y-10762960D01*
X10615301Y-10762960D02*
X10605777Y-10753436D01*
X10605777Y-10753436D02*
X10596253Y-10734389D01*
X10596253Y-10734389D02*
X10586729Y-10696293D01*
X10586729Y-10696293D02*
X10586729Y-10648674D01*
X10586729Y-10648674D02*
X10596253Y-10610579D01*
X10596253Y-10610579D02*
X10605777Y-10591531D01*
X10605777Y-10591531D02*
X10615301Y-10582008D01*
X10615301Y-10582008D02*
X10634348Y-10572484D01*
X10767682Y-10572484D02*
X10901015Y-10572484D01*
X10901015Y-10572484D02*
X10815301Y-10772484D01*
X11015301Y-10572484D02*
X11034349Y-10572484D01*
X11034349Y-10572484D02*
X11053396Y-10582008D01*
X11053396Y-10582008D02*
X11062920Y-10591531D01*
X11062920Y-10591531D02*
X11072444Y-10610579D01*
X11072444Y-10610579D02*
X11081968Y-10648674D01*
X11081968Y-10648674D02*
X11081968Y-10696293D01*
X11081968Y-10696293D02*
X11072444Y-10734389D01*
X11072444Y-10734389D02*
X11062920Y-10753436D01*
X11062920Y-10753436D02*
X11053396Y-10762960D01*
X11053396Y-10762960D02*
X11034349Y-10772484D01*
X11034349Y-10772484D02*
X11015301Y-10772484D01*
X11015301Y-10772484D02*
X10996253Y-10762960D01*
X10996253Y-10762960D02*
X10986729Y-10753436D01*
X10986729Y-10753436D02*
X10977206Y-10734389D01*
X10977206Y-10734389D02*
X10967682Y-10696293D01*
X10967682Y-10696293D02*
X10967682Y-10648674D01*
X10967682Y-10648674D02*
X10977206Y-10610579D01*
X10977206Y-10610579D02*
X10986729Y-10591531D01*
X10986729Y-10591531D02*
X10996253Y-10582008D01*
X10996253Y-10582008D02*
X11015301Y-10572484D01*
X11177206Y-10772484D02*
X11215301Y-10772484D01*
X11215301Y-10772484D02*
X11234348Y-10762960D01*
X11234348Y-10762960D02*
X11243872Y-10753436D01*
X11243872Y-10753436D02*
X11262920Y-10724865D01*
X11262920Y-10724865D02*
X11272444Y-10686770D01*
X11272444Y-10686770D02*
X11272444Y-10610579D01*
X11272444Y-10610579D02*
X11262920Y-10591531D01*
X11262920Y-10591531D02*
X11253396Y-10582008D01*
X11253396Y-10582008D02*
X11234348Y-10572484D01*
X11234348Y-10572484D02*
X11196253Y-10572484D01*
X11196253Y-10572484D02*
X11177206Y-10582008D01*
X11177206Y-10582008D02*
X11167682Y-10591531D01*
X11167682Y-10591531D02*
X11158158Y-10610579D01*
X11158158Y-10610579D02*
X11158158Y-10658198D01*
X11158158Y-10658198D02*
X11167682Y-10677246D01*
X11167682Y-10677246D02*
X11177206Y-10686770D01*
X11177206Y-10686770D02*
X11196253Y-10696293D01*
X11196253Y-10696293D02*
X11234348Y-10696293D01*
X11234348Y-10696293D02*
X11253396Y-10686770D01*
X11253396Y-10686770D02*
X11262920Y-10677246D01*
X11262920Y-10677246D02*
X11272444Y-10658198D01*
X11348634Y-10572484D02*
X11348634Y-10610579D01*
X11424825Y-10572484D02*
X11424825Y-10610579D01*
X11720063Y-10848674D02*
X11710539Y-10839150D01*
X11710539Y-10839150D02*
X11691491Y-10810579D01*
X11691491Y-10810579D02*
X11681968Y-10791531D01*
X11681968Y-10791531D02*
X11672444Y-10762960D01*
X11672444Y-10762960D02*
X11662920Y-10715341D01*
X11662920Y-10715341D02*
X11662920Y-10677246D01*
X11662920Y-10677246D02*
X11672444Y-10629627D01*
X11672444Y-10629627D02*
X11681968Y-10601055D01*
X11681968Y-10601055D02*
X11691491Y-10582008D01*
X11691491Y-10582008D02*
X11710539Y-10553436D01*
X11710539Y-10553436D02*
X11720063Y-10543912D01*
X11786729Y-10591531D02*
X11796253Y-10582008D01*
X11796253Y-10582008D02*
X11815301Y-10572484D01*
X11815301Y-10572484D02*
X11862920Y-10572484D01*
X11862920Y-10572484D02*
X11881968Y-10582008D01*
X11881968Y-10582008D02*
X11891491Y-10591531D01*
X11891491Y-10591531D02*
X11901015Y-10610579D01*
X11901015Y-10610579D02*
X11901015Y-10629627D01*
X11901015Y-10629627D02*
X11891491Y-10658198D01*
X11891491Y-10658198D02*
X11777206Y-10772484D01*
X11777206Y-10772484D02*
X11901015Y-10772484D01*
X12139110Y-10772484D02*
X12139110Y-10572484D01*
X12224825Y-10772484D02*
X12224825Y-10667722D01*
X12224825Y-10667722D02*
X12215301Y-10648674D01*
X12215301Y-10648674D02*
X12196253Y-10639150D01*
X12196253Y-10639150D02*
X12167682Y-10639150D01*
X12167682Y-10639150D02*
X12148634Y-10648674D01*
X12148634Y-10648674D02*
X12139110Y-10658198D01*
X12348634Y-10772484D02*
X12329587Y-10762960D01*
X12329587Y-10762960D02*
X12320063Y-10753436D01*
X12320063Y-10753436D02*
X12310539Y-10734389D01*
X12310539Y-10734389D02*
X12310539Y-10677246D01*
X12310539Y-10677246D02*
X12320063Y-10658198D01*
X12320063Y-10658198D02*
X12329587Y-10648674D01*
X12329587Y-10648674D02*
X12348634Y-10639150D01*
X12348634Y-10639150D02*
X12377206Y-10639150D01*
X12377206Y-10639150D02*
X12396253Y-10648674D01*
X12396253Y-10648674D02*
X12405777Y-10658198D01*
X12405777Y-10658198D02*
X12415301Y-10677246D01*
X12415301Y-10677246D02*
X12415301Y-10734389D01*
X12415301Y-10734389D02*
X12405777Y-10753436D01*
X12405777Y-10753436D02*
X12396253Y-10762960D01*
X12396253Y-10762960D02*
X12377206Y-10772484D01*
X12377206Y-10772484D02*
X12348634Y-10772484D01*
X12529587Y-10772484D02*
X12510539Y-10762960D01*
X12510539Y-10762960D02*
X12501015Y-10743912D01*
X12501015Y-10743912D02*
X12501015Y-10572484D01*
X12681968Y-10762960D02*
X12662920Y-10772484D01*
X12662920Y-10772484D02*
X12624825Y-10772484D01*
X12624825Y-10772484D02*
X12605777Y-10762960D01*
X12605777Y-10762960D02*
X12596253Y-10743912D01*
X12596253Y-10743912D02*
X12596253Y-10667722D01*
X12596253Y-10667722D02*
X12605777Y-10648674D01*
X12605777Y-10648674D02*
X12624825Y-10639150D01*
X12624825Y-10639150D02*
X12662920Y-10639150D01*
X12662920Y-10639150D02*
X12681968Y-10648674D01*
X12681968Y-10648674D02*
X12691491Y-10667722D01*
X12691491Y-10667722D02*
X12691491Y-10686770D01*
X12691491Y-10686770D02*
X12596253Y-10705817D01*
X12767682Y-10762960D02*
X12786730Y-10772484D01*
X12786730Y-10772484D02*
X12824825Y-10772484D01*
X12824825Y-10772484D02*
X12843872Y-10762960D01*
X12843872Y-10762960D02*
X12853396Y-10743912D01*
X12853396Y-10743912D02*
X12853396Y-10734389D01*
X12853396Y-10734389D02*
X12843872Y-10715341D01*
X12843872Y-10715341D02*
X12824825Y-10705817D01*
X12824825Y-10705817D02*
X12796253Y-10705817D01*
X12796253Y-10705817D02*
X12777206Y-10696293D01*
X12777206Y-10696293D02*
X12767682Y-10677246D01*
X12767682Y-10677246D02*
X12767682Y-10667722D01*
X12767682Y-10667722D02*
X12777206Y-10648674D01*
X12777206Y-10648674D02*
X12796253Y-10639150D01*
X12796253Y-10639150D02*
X12824825Y-10639150D01*
X12824825Y-10639150D02*
X12843872Y-10648674D01*
X12920063Y-10848674D02*
X12929587Y-10839150D01*
X12929587Y-10839150D02*
X12948634Y-10810579D01*
X12948634Y-10810579D02*
X12958158Y-10791531D01*
X12958158Y-10791531D02*
X12967682Y-10762960D01*
X12967682Y-10762960D02*
X12977206Y-10715341D01*
X12977206Y-10715341D02*
X12977206Y-10677246D01*
X12977206Y-10677246D02*
X12967682Y-10629627D01*
X12967682Y-10629627D02*
X12958158Y-10601055D01*
X12958158Y-10601055D02*
X12948634Y-10582008D01*
X12948634Y-10582008D02*
X12929587Y-10553436D01*
X12929587Y-10553436D02*
X12920063Y-10543912D01*
X13281968Y-10848674D02*
X13272444Y-10839150D01*
X13272444Y-10839150D02*
X13253396Y-10810579D01*
X13253396Y-10810579D02*
X13243872Y-10791531D01*
X13243872Y-10791531D02*
X13234349Y-10762960D01*
X13234349Y-10762960D02*
X13224825Y-10715341D01*
X13224825Y-10715341D02*
X13224825Y-10677246D01*
X13224825Y-10677246D02*
X13234349Y-10629627D01*
X13234349Y-10629627D02*
X13243872Y-10601055D01*
X13243872Y-10601055D02*
X13253396Y-10582008D01*
X13253396Y-10582008D02*
X13272444Y-10553436D01*
X13272444Y-10553436D02*
X13281968Y-10543912D01*
X13358158Y-10639150D02*
X13358158Y-10772484D01*
X13358158Y-10658198D02*
X13367682Y-10648674D01*
X13367682Y-10648674D02*
X13386730Y-10639150D01*
X13386730Y-10639150D02*
X13415301Y-10639150D01*
X13415301Y-10639150D02*
X13434349Y-10648674D01*
X13434349Y-10648674D02*
X13443872Y-10667722D01*
X13443872Y-10667722D02*
X13443872Y-10772484D01*
X13567682Y-10772484D02*
X13548634Y-10762960D01*
X13548634Y-10762960D02*
X13539111Y-10753436D01*
X13539111Y-10753436D02*
X13529587Y-10734389D01*
X13529587Y-10734389D02*
X13529587Y-10677246D01*
X13529587Y-10677246D02*
X13539111Y-10658198D01*
X13539111Y-10658198D02*
X13548634Y-10648674D01*
X13548634Y-10648674D02*
X13567682Y-10639150D01*
X13567682Y-10639150D02*
X13596253Y-10639150D01*
X13596253Y-10639150D02*
X13615301Y-10648674D01*
X13615301Y-10648674D02*
X13624825Y-10658198D01*
X13624825Y-10658198D02*
X13634349Y-10677246D01*
X13634349Y-10677246D02*
X13634349Y-10734389D01*
X13634349Y-10734389D02*
X13624825Y-10753436D01*
X13624825Y-10753436D02*
X13615301Y-10762960D01*
X13615301Y-10762960D02*
X13596253Y-10772484D01*
X13596253Y-10772484D02*
X13567682Y-10772484D01*
X13691492Y-10639150D02*
X13767682Y-10639150D01*
X13720063Y-10572484D02*
X13720063Y-10743912D01*
X13720063Y-10743912D02*
X13729587Y-10762960D01*
X13729587Y-10762960D02*
X13748634Y-10772484D01*
X13748634Y-10772484D02*
X13767682Y-10772484D01*
X13986730Y-10639150D02*
X13986730Y-10839150D01*
X13986730Y-10648674D02*
X14005777Y-10639150D01*
X14005777Y-10639150D02*
X14043873Y-10639150D01*
X14043873Y-10639150D02*
X14062920Y-10648674D01*
X14062920Y-10648674D02*
X14072444Y-10658198D01*
X14072444Y-10658198D02*
X14081968Y-10677246D01*
X14081968Y-10677246D02*
X14081968Y-10734389D01*
X14081968Y-10734389D02*
X14072444Y-10753436D01*
X14072444Y-10753436D02*
X14062920Y-10762960D01*
X14062920Y-10762960D02*
X14043873Y-10772484D01*
X14043873Y-10772484D02*
X14005777Y-10772484D01*
X14005777Y-10772484D02*
X13986730Y-10762960D01*
X14196253Y-10772484D02*
X14177206Y-10762960D01*
X14177206Y-10762960D02*
X14167682Y-10743912D01*
X14167682Y-10743912D02*
X14167682Y-10572484D01*
X14358158Y-10772484D02*
X14358158Y-10667722D01*
X14358158Y-10667722D02*
X14348634Y-10648674D01*
X14348634Y-10648674D02*
X14329587Y-10639150D01*
X14329587Y-10639150D02*
X14291492Y-10639150D01*
X14291492Y-10639150D02*
X14272444Y-10648674D01*
X14358158Y-10762960D02*
X14339111Y-10772484D01*
X14339111Y-10772484D02*
X14291492Y-10772484D01*
X14291492Y-10772484D02*
X14272444Y-10762960D01*
X14272444Y-10762960D02*
X14262920Y-10743912D01*
X14262920Y-10743912D02*
X14262920Y-10724865D01*
X14262920Y-10724865D02*
X14272444Y-10705817D01*
X14272444Y-10705817D02*
X14291492Y-10696293D01*
X14291492Y-10696293D02*
X14339111Y-10696293D01*
X14339111Y-10696293D02*
X14358158Y-10686770D01*
X14424825Y-10639150D02*
X14501015Y-10639150D01*
X14453396Y-10572484D02*
X14453396Y-10743912D01*
X14453396Y-10743912D02*
X14462920Y-10762960D01*
X14462920Y-10762960D02*
X14481968Y-10772484D01*
X14481968Y-10772484D02*
X14501015Y-10772484D01*
X14643873Y-10762960D02*
X14624825Y-10772484D01*
X14624825Y-10772484D02*
X14586730Y-10772484D01*
X14586730Y-10772484D02*
X14567682Y-10762960D01*
X14567682Y-10762960D02*
X14558158Y-10743912D01*
X14558158Y-10743912D02*
X14558158Y-10667722D01*
X14558158Y-10667722D02*
X14567682Y-10648674D01*
X14567682Y-10648674D02*
X14586730Y-10639150D01*
X14586730Y-10639150D02*
X14624825Y-10639150D01*
X14624825Y-10639150D02*
X14643873Y-10648674D01*
X14643873Y-10648674D02*
X14653396Y-10667722D01*
X14653396Y-10667722D02*
X14653396Y-10686770D01*
X14653396Y-10686770D02*
X14558158Y-10705817D01*
X14824825Y-10772484D02*
X14824825Y-10572484D01*
X14824825Y-10762960D02*
X14805777Y-10772484D01*
X14805777Y-10772484D02*
X14767682Y-10772484D01*
X14767682Y-10772484D02*
X14748634Y-10762960D01*
X14748634Y-10762960D02*
X14739111Y-10753436D01*
X14739111Y-10753436D02*
X14729587Y-10734389D01*
X14729587Y-10734389D02*
X14729587Y-10677246D01*
X14729587Y-10677246D02*
X14739111Y-10658198D01*
X14739111Y-10658198D02*
X14748634Y-10648674D01*
X14748634Y-10648674D02*
X14767682Y-10639150D01*
X14767682Y-10639150D02*
X14805777Y-10639150D01*
X14805777Y-10639150D02*
X14824825Y-10648674D01*
X14901015Y-10848674D02*
X14910539Y-10839150D01*
X14910539Y-10839150D02*
X14929587Y-10810579D01*
X14929587Y-10810579D02*
X14939111Y-10791531D01*
X14939111Y-10791531D02*
X14948634Y-10762960D01*
X14948634Y-10762960D02*
X14958158Y-10715341D01*
X14958158Y-10715341D02*
X14958158Y-10677246D01*
X14958158Y-10677246D02*
X14948634Y-10629627D01*
X14948634Y-10629627D02*
X14939111Y-10601055D01*
X14939111Y-10601055D02*
X14929587Y-10582008D01*
X14929587Y-10582008D02*
X14910539Y-10553436D01*
X14910539Y-10553436D02*
X14901015Y-10543912D01*
X8045000Y-10881000D02*
X8045000Y-11081000D01*
X7945000Y-10981000D02*
X8145000Y-10981000D01*
X8396253Y-10891531D02*
X8405777Y-10882008D01*
X8405777Y-10882008D02*
X8424824Y-10872484D01*
X8424824Y-10872484D02*
X8472444Y-10872484D01*
X8472444Y-10872484D02*
X8491491Y-10882008D01*
X8491491Y-10882008D02*
X8501015Y-10891531D01*
X8501015Y-10891531D02*
X8510539Y-10910579D01*
X8510539Y-10910579D02*
X8510539Y-10929627D01*
X8510539Y-10929627D02*
X8501015Y-10958198D01*
X8501015Y-10958198D02*
X8386729Y-11072484D01*
X8386729Y-11072484D02*
X8510539Y-11072484D01*
X8596253Y-11053436D02*
X8605777Y-11062960D01*
X8605777Y-11062960D02*
X8596253Y-11072484D01*
X8596253Y-11072484D02*
X8586729Y-11062960D01*
X8586729Y-11062960D02*
X8596253Y-11053436D01*
X8596253Y-11053436D02*
X8596253Y-11072484D01*
X8681967Y-10891531D02*
X8691491Y-10882008D01*
X8691491Y-10882008D02*
X8710539Y-10872484D01*
X8710539Y-10872484D02*
X8758158Y-10872484D01*
X8758158Y-10872484D02*
X8777205Y-10882008D01*
X8777205Y-10882008D02*
X8786729Y-10891531D01*
X8786729Y-10891531D02*
X8796253Y-10910579D01*
X8796253Y-10910579D02*
X8796253Y-10929627D01*
X8796253Y-10929627D02*
X8786729Y-10958198D01*
X8786729Y-10958198D02*
X8672444Y-11072484D01*
X8672444Y-11072484D02*
X8796253Y-11072484D01*
X8920063Y-10872484D02*
X8939110Y-10872484D01*
X8939110Y-10872484D02*
X8958158Y-10882008D01*
X8958158Y-10882008D02*
X8967682Y-10891531D01*
X8967682Y-10891531D02*
X8977205Y-10910579D01*
X8977205Y-10910579D02*
X8986729Y-10948674D01*
X8986729Y-10948674D02*
X8986729Y-10996293D01*
X8986729Y-10996293D02*
X8977205Y-11034389D01*
X8977205Y-11034389D02*
X8967682Y-11053436D01*
X8967682Y-11053436D02*
X8958158Y-11062960D01*
X8958158Y-11062960D02*
X8939110Y-11072484D01*
X8939110Y-11072484D02*
X8920063Y-11072484D01*
X8920063Y-11072484D02*
X8901015Y-11062960D01*
X8901015Y-11062960D02*
X8891491Y-11053436D01*
X8891491Y-11053436D02*
X8881967Y-11034389D01*
X8881967Y-11034389D02*
X8872444Y-10996293D01*
X8872444Y-10996293D02*
X8872444Y-10948674D01*
X8872444Y-10948674D02*
X8881967Y-10910579D01*
X8881967Y-10910579D02*
X8891491Y-10891531D01*
X8891491Y-10891531D02*
X8901015Y-10882008D01*
X8901015Y-10882008D02*
X8920063Y-10872484D01*
X9110539Y-10872484D02*
X9129586Y-10872484D01*
X9129586Y-10872484D02*
X9148634Y-10882008D01*
X9148634Y-10882008D02*
X9158158Y-10891531D01*
X9158158Y-10891531D02*
X9167682Y-10910579D01*
X9167682Y-10910579D02*
X9177205Y-10948674D01*
X9177205Y-10948674D02*
X9177205Y-10996293D01*
X9177205Y-10996293D02*
X9167682Y-11034389D01*
X9167682Y-11034389D02*
X9158158Y-11053436D01*
X9158158Y-11053436D02*
X9148634Y-11062960D01*
X9148634Y-11062960D02*
X9129586Y-11072484D01*
X9129586Y-11072484D02*
X9110539Y-11072484D01*
X9110539Y-11072484D02*
X9091491Y-11062960D01*
X9091491Y-11062960D02*
X9081967Y-11053436D01*
X9081967Y-11053436D02*
X9072444Y-11034389D01*
X9072444Y-11034389D02*
X9062920Y-10996293D01*
X9062920Y-10996293D02*
X9062920Y-10948674D01*
X9062920Y-10948674D02*
X9072444Y-10910579D01*
X9072444Y-10910579D02*
X9081967Y-10891531D01*
X9081967Y-10891531D02*
X9091491Y-10882008D01*
X9091491Y-10882008D02*
X9110539Y-10872484D01*
X9262920Y-11072484D02*
X9262920Y-10939150D01*
X9262920Y-10958198D02*
X9272444Y-10948674D01*
X9272444Y-10948674D02*
X9291491Y-10939150D01*
X9291491Y-10939150D02*
X9320063Y-10939150D01*
X9320063Y-10939150D02*
X9339110Y-10948674D01*
X9339110Y-10948674D02*
X9348634Y-10967722D01*
X9348634Y-10967722D02*
X9348634Y-11072484D01*
X9348634Y-10967722D02*
X9358158Y-10948674D01*
X9358158Y-10948674D02*
X9377205Y-10939150D01*
X9377205Y-10939150D02*
X9405777Y-10939150D01*
X9405777Y-10939150D02*
X9424825Y-10948674D01*
X9424825Y-10948674D02*
X9434348Y-10967722D01*
X9434348Y-10967722D02*
X9434348Y-11072484D01*
X9529586Y-11072484D02*
X9529586Y-10939150D01*
X9529586Y-10958198D02*
X9539110Y-10948674D01*
X9539110Y-10948674D02*
X9558158Y-10939150D01*
X9558158Y-10939150D02*
X9586729Y-10939150D01*
X9586729Y-10939150D02*
X9605777Y-10948674D01*
X9605777Y-10948674D02*
X9615301Y-10967722D01*
X9615301Y-10967722D02*
X9615301Y-11072484D01*
X9615301Y-10967722D02*
X9624825Y-10948674D01*
X9624825Y-10948674D02*
X9643872Y-10939150D01*
X9643872Y-10939150D02*
X9672444Y-10939150D01*
X9672444Y-10939150D02*
X9691491Y-10948674D01*
X9691491Y-10948674D02*
X9701015Y-10967722D01*
X9701015Y-10967722D02*
X9701015Y-11072484D01*
X10091491Y-10862960D02*
X9920063Y-11120103D01*
X10348634Y-10872484D02*
X10367682Y-10872484D01*
X10367682Y-10872484D02*
X10386729Y-10882008D01*
X10386729Y-10882008D02*
X10396253Y-10891531D01*
X10396253Y-10891531D02*
X10405777Y-10910579D01*
X10405777Y-10910579D02*
X10415301Y-10948674D01*
X10415301Y-10948674D02*
X10415301Y-10996293D01*
X10415301Y-10996293D02*
X10405777Y-11034389D01*
X10405777Y-11034389D02*
X10396253Y-11053436D01*
X10396253Y-11053436D02*
X10386729Y-11062960D01*
X10386729Y-11062960D02*
X10367682Y-11072484D01*
X10367682Y-11072484D02*
X10348634Y-11072484D01*
X10348634Y-11072484D02*
X10329587Y-11062960D01*
X10329587Y-11062960D02*
X10320063Y-11053436D01*
X10320063Y-11053436D02*
X10310539Y-11034389D01*
X10310539Y-11034389D02*
X10301015Y-10996293D01*
X10301015Y-10996293D02*
X10301015Y-10948674D01*
X10301015Y-10948674D02*
X10310539Y-10910579D01*
X10310539Y-10910579D02*
X10320063Y-10891531D01*
X10320063Y-10891531D02*
X10329587Y-10882008D01*
X10329587Y-10882008D02*
X10348634Y-10872484D01*
X10501015Y-11053436D02*
X10510539Y-11062960D01*
X10510539Y-11062960D02*
X10501015Y-11072484D01*
X10501015Y-11072484D02*
X10491491Y-11062960D01*
X10491491Y-11062960D02*
X10501015Y-11053436D01*
X10501015Y-11053436D02*
X10501015Y-11072484D01*
X10634348Y-10872484D02*
X10653396Y-10872484D01*
X10653396Y-10872484D02*
X10672444Y-10882008D01*
X10672444Y-10882008D02*
X10681968Y-10891531D01*
X10681968Y-10891531D02*
X10691491Y-10910579D01*
X10691491Y-10910579D02*
X10701015Y-10948674D01*
X10701015Y-10948674D02*
X10701015Y-10996293D01*
X10701015Y-10996293D02*
X10691491Y-11034389D01*
X10691491Y-11034389D02*
X10681968Y-11053436D01*
X10681968Y-11053436D02*
X10672444Y-11062960D01*
X10672444Y-11062960D02*
X10653396Y-11072484D01*
X10653396Y-11072484D02*
X10634348Y-11072484D01*
X10634348Y-11072484D02*
X10615301Y-11062960D01*
X10615301Y-11062960D02*
X10605777Y-11053436D01*
X10605777Y-11053436D02*
X10596253Y-11034389D01*
X10596253Y-11034389D02*
X10586729Y-10996293D01*
X10586729Y-10996293D02*
X10586729Y-10948674D01*
X10586729Y-10948674D02*
X10596253Y-10910579D01*
X10596253Y-10910579D02*
X10605777Y-10891531D01*
X10605777Y-10891531D02*
X10615301Y-10882008D01*
X10615301Y-10882008D02*
X10634348Y-10872484D01*
X10815301Y-10958198D02*
X10796253Y-10948674D01*
X10796253Y-10948674D02*
X10786729Y-10939150D01*
X10786729Y-10939150D02*
X10777206Y-10920103D01*
X10777206Y-10920103D02*
X10777206Y-10910579D01*
X10777206Y-10910579D02*
X10786729Y-10891531D01*
X10786729Y-10891531D02*
X10796253Y-10882008D01*
X10796253Y-10882008D02*
X10815301Y-10872484D01*
X10815301Y-10872484D02*
X10853396Y-10872484D01*
X10853396Y-10872484D02*
X10872444Y-10882008D01*
X10872444Y-10882008D02*
X10881968Y-10891531D01*
X10881968Y-10891531D02*
X10891491Y-10910579D01*
X10891491Y-10910579D02*
X10891491Y-10920103D01*
X10891491Y-10920103D02*
X10881968Y-10939150D01*
X10881968Y-10939150D02*
X10872444Y-10948674D01*
X10872444Y-10948674D02*
X10853396Y-10958198D01*
X10853396Y-10958198D02*
X10815301Y-10958198D01*
X10815301Y-10958198D02*
X10796253Y-10967722D01*
X10796253Y-10967722D02*
X10786729Y-10977246D01*
X10786729Y-10977246D02*
X10777206Y-10996293D01*
X10777206Y-10996293D02*
X10777206Y-11034389D01*
X10777206Y-11034389D02*
X10786729Y-11053436D01*
X10786729Y-11053436D02*
X10796253Y-11062960D01*
X10796253Y-11062960D02*
X10815301Y-11072484D01*
X10815301Y-11072484D02*
X10853396Y-11072484D01*
X10853396Y-11072484D02*
X10872444Y-11062960D01*
X10872444Y-11062960D02*
X10881968Y-11053436D01*
X10881968Y-11053436D02*
X10891491Y-11034389D01*
X10891491Y-11034389D02*
X10891491Y-10996293D01*
X10891491Y-10996293D02*
X10881968Y-10977246D01*
X10881968Y-10977246D02*
X10872444Y-10967722D01*
X10872444Y-10967722D02*
X10853396Y-10958198D01*
X11062920Y-10872484D02*
X11024825Y-10872484D01*
X11024825Y-10872484D02*
X11005777Y-10882008D01*
X11005777Y-10882008D02*
X10996253Y-10891531D01*
X10996253Y-10891531D02*
X10977206Y-10920103D01*
X10977206Y-10920103D02*
X10967682Y-10958198D01*
X10967682Y-10958198D02*
X10967682Y-11034389D01*
X10967682Y-11034389D02*
X10977206Y-11053436D01*
X10977206Y-11053436D02*
X10986729Y-11062960D01*
X10986729Y-11062960D02*
X11005777Y-11072484D01*
X11005777Y-11072484D02*
X11043872Y-11072484D01*
X11043872Y-11072484D02*
X11062920Y-11062960D01*
X11062920Y-11062960D02*
X11072444Y-11053436D01*
X11072444Y-11053436D02*
X11081968Y-11034389D01*
X11081968Y-11034389D02*
X11081968Y-10986770D01*
X11081968Y-10986770D02*
X11072444Y-10967722D01*
X11072444Y-10967722D02*
X11062920Y-10958198D01*
X11062920Y-10958198D02*
X11043872Y-10948674D01*
X11043872Y-10948674D02*
X11005777Y-10948674D01*
X11005777Y-10948674D02*
X10986729Y-10958198D01*
X10986729Y-10958198D02*
X10977206Y-10967722D01*
X10977206Y-10967722D02*
X10967682Y-10986770D01*
X11253396Y-10872484D02*
X11215301Y-10872484D01*
X11215301Y-10872484D02*
X11196253Y-10882008D01*
X11196253Y-10882008D02*
X11186729Y-10891531D01*
X11186729Y-10891531D02*
X11167682Y-10920103D01*
X11167682Y-10920103D02*
X11158158Y-10958198D01*
X11158158Y-10958198D02*
X11158158Y-11034389D01*
X11158158Y-11034389D02*
X11167682Y-11053436D01*
X11167682Y-11053436D02*
X11177206Y-11062960D01*
X11177206Y-11062960D02*
X11196253Y-11072484D01*
X11196253Y-11072484D02*
X11234348Y-11072484D01*
X11234348Y-11072484D02*
X11253396Y-11062960D01*
X11253396Y-11062960D02*
X11262920Y-11053436D01*
X11262920Y-11053436D02*
X11272444Y-11034389D01*
X11272444Y-11034389D02*
X11272444Y-10986770D01*
X11272444Y-10986770D02*
X11262920Y-10967722D01*
X11262920Y-10967722D02*
X11253396Y-10958198D01*
X11253396Y-10958198D02*
X11234348Y-10948674D01*
X11234348Y-10948674D02*
X11196253Y-10948674D01*
X11196253Y-10948674D02*
X11177206Y-10958198D01*
X11177206Y-10958198D02*
X11167682Y-10967722D01*
X11167682Y-10967722D02*
X11158158Y-10986770D01*
X11348634Y-10872484D02*
X11348634Y-10910579D01*
X11424825Y-10872484D02*
X11424825Y-10910579D01*
X11720063Y-11148674D02*
X11710539Y-11139150D01*
X11710539Y-11139150D02*
X11691491Y-11110579D01*
X11691491Y-11110579D02*
X11681968Y-11091531D01*
X11681968Y-11091531D02*
X11672444Y-11062960D01*
X11672444Y-11062960D02*
X11662920Y-11015341D01*
X11662920Y-11015341D02*
X11662920Y-10977246D01*
X11662920Y-10977246D02*
X11672444Y-10929627D01*
X11672444Y-10929627D02*
X11681968Y-10901055D01*
X11681968Y-10901055D02*
X11691491Y-10882008D01*
X11691491Y-10882008D02*
X11710539Y-10853436D01*
X11710539Y-10853436D02*
X11720063Y-10843912D01*
X11777206Y-10872484D02*
X11910539Y-10872484D01*
X11910539Y-10872484D02*
X11824825Y-11072484D01*
X12139110Y-11072484D02*
X12139110Y-10872484D01*
X12224825Y-11072484D02*
X12224825Y-10967722D01*
X12224825Y-10967722D02*
X12215301Y-10948674D01*
X12215301Y-10948674D02*
X12196253Y-10939150D01*
X12196253Y-10939150D02*
X12167682Y-10939150D01*
X12167682Y-10939150D02*
X12148634Y-10948674D01*
X12148634Y-10948674D02*
X12139110Y-10958198D01*
X12348634Y-11072484D02*
X12329587Y-11062960D01*
X12329587Y-11062960D02*
X12320063Y-11053436D01*
X12320063Y-11053436D02*
X12310539Y-11034389D01*
X12310539Y-11034389D02*
X12310539Y-10977246D01*
X12310539Y-10977246D02*
X12320063Y-10958198D01*
X12320063Y-10958198D02*
X12329587Y-10948674D01*
X12329587Y-10948674D02*
X12348634Y-10939150D01*
X12348634Y-10939150D02*
X12377206Y-10939150D01*
X12377206Y-10939150D02*
X12396253Y-10948674D01*
X12396253Y-10948674D02*
X12405777Y-10958198D01*
X12405777Y-10958198D02*
X12415301Y-10977246D01*
X12415301Y-10977246D02*
X12415301Y-11034389D01*
X12415301Y-11034389D02*
X12405777Y-11053436D01*
X12405777Y-11053436D02*
X12396253Y-11062960D01*
X12396253Y-11062960D02*
X12377206Y-11072484D01*
X12377206Y-11072484D02*
X12348634Y-11072484D01*
X12529587Y-11072484D02*
X12510539Y-11062960D01*
X12510539Y-11062960D02*
X12501015Y-11043912D01*
X12501015Y-11043912D02*
X12501015Y-10872484D01*
X12681968Y-11062960D02*
X12662920Y-11072484D01*
X12662920Y-11072484D02*
X12624825Y-11072484D01*
X12624825Y-11072484D02*
X12605777Y-11062960D01*
X12605777Y-11062960D02*
X12596253Y-11043912D01*
X12596253Y-11043912D02*
X12596253Y-10967722D01*
X12596253Y-10967722D02*
X12605777Y-10948674D01*
X12605777Y-10948674D02*
X12624825Y-10939150D01*
X12624825Y-10939150D02*
X12662920Y-10939150D01*
X12662920Y-10939150D02*
X12681968Y-10948674D01*
X12681968Y-10948674D02*
X12691491Y-10967722D01*
X12691491Y-10967722D02*
X12691491Y-10986770D01*
X12691491Y-10986770D02*
X12596253Y-11005817D01*
X12767682Y-11062960D02*
X12786730Y-11072484D01*
X12786730Y-11072484D02*
X12824825Y-11072484D01*
X12824825Y-11072484D02*
X12843872Y-11062960D01*
X12843872Y-11062960D02*
X12853396Y-11043912D01*
X12853396Y-11043912D02*
X12853396Y-11034389D01*
X12853396Y-11034389D02*
X12843872Y-11015341D01*
X12843872Y-11015341D02*
X12824825Y-11005817D01*
X12824825Y-11005817D02*
X12796253Y-11005817D01*
X12796253Y-11005817D02*
X12777206Y-10996293D01*
X12777206Y-10996293D02*
X12767682Y-10977246D01*
X12767682Y-10977246D02*
X12767682Y-10967722D01*
X12767682Y-10967722D02*
X12777206Y-10948674D01*
X12777206Y-10948674D02*
X12796253Y-10939150D01*
X12796253Y-10939150D02*
X12824825Y-10939150D01*
X12824825Y-10939150D02*
X12843872Y-10948674D01*
X12920063Y-11148674D02*
X12929587Y-11139150D01*
X12929587Y-11139150D02*
X12948634Y-11110579D01*
X12948634Y-11110579D02*
X12958158Y-11091531D01*
X12958158Y-11091531D02*
X12967682Y-11062960D01*
X12967682Y-11062960D02*
X12977206Y-11015341D01*
X12977206Y-11015341D02*
X12977206Y-10977246D01*
X12977206Y-10977246D02*
X12967682Y-10929627D01*
X12967682Y-10929627D02*
X12958158Y-10901055D01*
X12958158Y-10901055D02*
X12948634Y-10882008D01*
X12948634Y-10882008D02*
X12929587Y-10853436D01*
X12929587Y-10853436D02*
X12920063Y-10843912D01*
X13281968Y-11148674D02*
X13272444Y-11139150D01*
X13272444Y-11139150D02*
X13253396Y-11110579D01*
X13253396Y-11110579D02*
X13243872Y-11091531D01*
X13243872Y-11091531D02*
X13234349Y-11062960D01*
X13234349Y-11062960D02*
X13224825Y-11015341D01*
X13224825Y-11015341D02*
X13224825Y-10977246D01*
X13224825Y-10977246D02*
X13234349Y-10929627D01*
X13234349Y-10929627D02*
X13243872Y-10901055D01*
X13243872Y-10901055D02*
X13253396Y-10882008D01*
X13253396Y-10882008D02*
X13272444Y-10853436D01*
X13272444Y-10853436D02*
X13281968Y-10843912D01*
X13358158Y-10939150D02*
X13358158Y-11072484D01*
X13358158Y-10958198D02*
X13367682Y-10948674D01*
X13367682Y-10948674D02*
X13386730Y-10939150D01*
X13386730Y-10939150D02*
X13415301Y-10939150D01*
X13415301Y-10939150D02*
X13434349Y-10948674D01*
X13434349Y-10948674D02*
X13443872Y-10967722D01*
X13443872Y-10967722D02*
X13443872Y-11072484D01*
X13567682Y-11072484D02*
X13548634Y-11062960D01*
X13548634Y-11062960D02*
X13539111Y-11053436D01*
X13539111Y-11053436D02*
X13529587Y-11034389D01*
X13529587Y-11034389D02*
X13529587Y-10977246D01*
X13529587Y-10977246D02*
X13539111Y-10958198D01*
X13539111Y-10958198D02*
X13548634Y-10948674D01*
X13548634Y-10948674D02*
X13567682Y-10939150D01*
X13567682Y-10939150D02*
X13596253Y-10939150D01*
X13596253Y-10939150D02*
X13615301Y-10948674D01*
X13615301Y-10948674D02*
X13624825Y-10958198D01*
X13624825Y-10958198D02*
X13634349Y-10977246D01*
X13634349Y-10977246D02*
X13634349Y-11034389D01*
X13634349Y-11034389D02*
X13624825Y-11053436D01*
X13624825Y-11053436D02*
X13615301Y-11062960D01*
X13615301Y-11062960D02*
X13596253Y-11072484D01*
X13596253Y-11072484D02*
X13567682Y-11072484D01*
X13691492Y-10939150D02*
X13767682Y-10939150D01*
X13720063Y-10872484D02*
X13720063Y-11043912D01*
X13720063Y-11043912D02*
X13729587Y-11062960D01*
X13729587Y-11062960D02*
X13748634Y-11072484D01*
X13748634Y-11072484D02*
X13767682Y-11072484D01*
X13986730Y-10939150D02*
X13986730Y-11139150D01*
X13986730Y-10948674D02*
X14005777Y-10939150D01*
X14005777Y-10939150D02*
X14043873Y-10939150D01*
X14043873Y-10939150D02*
X14062920Y-10948674D01*
X14062920Y-10948674D02*
X14072444Y-10958198D01*
X14072444Y-10958198D02*
X14081968Y-10977246D01*
X14081968Y-10977246D02*
X14081968Y-11034389D01*
X14081968Y-11034389D02*
X14072444Y-11053436D01*
X14072444Y-11053436D02*
X14062920Y-11062960D01*
X14062920Y-11062960D02*
X14043873Y-11072484D01*
X14043873Y-11072484D02*
X14005777Y-11072484D01*
X14005777Y-11072484D02*
X13986730Y-11062960D01*
X14196253Y-11072484D02*
X14177206Y-11062960D01*
X14177206Y-11062960D02*
X14167682Y-11043912D01*
X14167682Y-11043912D02*
X14167682Y-10872484D01*
X14358158Y-11072484D02*
X14358158Y-10967722D01*
X14358158Y-10967722D02*
X14348634Y-10948674D01*
X14348634Y-10948674D02*
X14329587Y-10939150D01*
X14329587Y-10939150D02*
X14291492Y-10939150D01*
X14291492Y-10939150D02*
X14272444Y-10948674D01*
X14358158Y-11062960D02*
X14339111Y-11072484D01*
X14339111Y-11072484D02*
X14291492Y-11072484D01*
X14291492Y-11072484D02*
X14272444Y-11062960D01*
X14272444Y-11062960D02*
X14262920Y-11043912D01*
X14262920Y-11043912D02*
X14262920Y-11024865D01*
X14262920Y-11024865D02*
X14272444Y-11005817D01*
X14272444Y-11005817D02*
X14291492Y-10996293D01*
X14291492Y-10996293D02*
X14339111Y-10996293D01*
X14339111Y-10996293D02*
X14358158Y-10986770D01*
X14424825Y-10939150D02*
X14501015Y-10939150D01*
X14453396Y-10872484D02*
X14453396Y-11043912D01*
X14453396Y-11043912D02*
X14462920Y-11062960D01*
X14462920Y-11062960D02*
X14481968Y-11072484D01*
X14481968Y-11072484D02*
X14501015Y-11072484D01*
X14643873Y-11062960D02*
X14624825Y-11072484D01*
X14624825Y-11072484D02*
X14586730Y-11072484D01*
X14586730Y-11072484D02*
X14567682Y-11062960D01*
X14567682Y-11062960D02*
X14558158Y-11043912D01*
X14558158Y-11043912D02*
X14558158Y-10967722D01*
X14558158Y-10967722D02*
X14567682Y-10948674D01*
X14567682Y-10948674D02*
X14586730Y-10939150D01*
X14586730Y-10939150D02*
X14624825Y-10939150D01*
X14624825Y-10939150D02*
X14643873Y-10948674D01*
X14643873Y-10948674D02*
X14653396Y-10967722D01*
X14653396Y-10967722D02*
X14653396Y-10986770D01*
X14653396Y-10986770D02*
X14558158Y-11005817D01*
X14824825Y-11072484D02*
X14824825Y-10872484D01*
X14824825Y-11062960D02*
X14805777Y-11072484D01*
X14805777Y-11072484D02*
X14767682Y-11072484D01*
X14767682Y-11072484D02*
X14748634Y-11062960D01*
X14748634Y-11062960D02*
X14739111Y-11053436D01*
X14739111Y-11053436D02*
X14729587Y-11034389D01*
X14729587Y-11034389D02*
X14729587Y-10977246D01*
X14729587Y-10977246D02*
X14739111Y-10958198D01*
X14739111Y-10958198D02*
X14748634Y-10948674D01*
X14748634Y-10948674D02*
X14767682Y-10939150D01*
X14767682Y-10939150D02*
X14805777Y-10939150D01*
X14805777Y-10939150D02*
X14824825Y-10948674D01*
X14901015Y-11148674D02*
X14910539Y-11139150D01*
X14910539Y-11139150D02*
X14929587Y-11110579D01*
X14929587Y-11110579D02*
X14939111Y-11091531D01*
X14939111Y-11091531D02*
X14948634Y-11062960D01*
X14948634Y-11062960D02*
X14958158Y-11015341D01*
X14958158Y-11015341D02*
X14958158Y-10977246D01*
X14958158Y-10977246D02*
X14948634Y-10929627D01*
X14948634Y-10929627D02*
X14939111Y-10901055D01*
X14939111Y-10901055D02*
X14929587Y-10882008D01*
X14929587Y-10882008D02*
X14910539Y-10853436D01*
X14910539Y-10853436D02*
X14901015Y-10843912D01*
X8115711Y-11371711D02*
X8115711Y-11230289D01*
X7974289Y-11230289D01*
X7974289Y-11371711D01*
X8115711Y-11371711D01*
X8386729Y-11192484D02*
X8510539Y-11192484D01*
X8510539Y-11192484D02*
X8443872Y-11268674D01*
X8443872Y-11268674D02*
X8472444Y-11268674D01*
X8472444Y-11268674D02*
X8491491Y-11278198D01*
X8491491Y-11278198D02*
X8501015Y-11287722D01*
X8501015Y-11287722D02*
X8510539Y-11306769D01*
X8510539Y-11306769D02*
X8510539Y-11354388D01*
X8510539Y-11354388D02*
X8501015Y-11373436D01*
X8501015Y-11373436D02*
X8491491Y-11382960D01*
X8491491Y-11382960D02*
X8472444Y-11392484D01*
X8472444Y-11392484D02*
X8415301Y-11392484D01*
X8415301Y-11392484D02*
X8396253Y-11382960D01*
X8396253Y-11382960D02*
X8386729Y-11373436D01*
X8596253Y-11373436D02*
X8605777Y-11382960D01*
X8605777Y-11382960D02*
X8596253Y-11392484D01*
X8596253Y-11392484D02*
X8586729Y-11382960D01*
X8586729Y-11382960D02*
X8596253Y-11373436D01*
X8596253Y-11373436D02*
X8596253Y-11392484D01*
X8786729Y-11192484D02*
X8691491Y-11192484D01*
X8691491Y-11192484D02*
X8681967Y-11287722D01*
X8681967Y-11287722D02*
X8691491Y-11278198D01*
X8691491Y-11278198D02*
X8710539Y-11268674D01*
X8710539Y-11268674D02*
X8758158Y-11268674D01*
X8758158Y-11268674D02*
X8777205Y-11278198D01*
X8777205Y-11278198D02*
X8786729Y-11287722D01*
X8786729Y-11287722D02*
X8796253Y-11306769D01*
X8796253Y-11306769D02*
X8796253Y-11354388D01*
X8796253Y-11354388D02*
X8786729Y-11373436D01*
X8786729Y-11373436D02*
X8777205Y-11382960D01*
X8777205Y-11382960D02*
X8758158Y-11392484D01*
X8758158Y-11392484D02*
X8710539Y-11392484D01*
X8710539Y-11392484D02*
X8691491Y-11382960D01*
X8691491Y-11382960D02*
X8681967Y-11373436D01*
X8920063Y-11192484D02*
X8939110Y-11192484D01*
X8939110Y-11192484D02*
X8958158Y-11202008D01*
X8958158Y-11202008D02*
X8967682Y-11211531D01*
X8967682Y-11211531D02*
X8977205Y-11230579D01*
X8977205Y-11230579D02*
X8986729Y-11268674D01*
X8986729Y-11268674D02*
X8986729Y-11316293D01*
X8986729Y-11316293D02*
X8977205Y-11354388D01*
X8977205Y-11354388D02*
X8967682Y-11373436D01*
X8967682Y-11373436D02*
X8958158Y-11382960D01*
X8958158Y-11382960D02*
X8939110Y-11392484D01*
X8939110Y-11392484D02*
X8920063Y-11392484D01*
X8920063Y-11392484D02*
X8901015Y-11382960D01*
X8901015Y-11382960D02*
X8891491Y-11373436D01*
X8891491Y-11373436D02*
X8881967Y-11354388D01*
X8881967Y-11354388D02*
X8872444Y-11316293D01*
X8872444Y-11316293D02*
X8872444Y-11268674D01*
X8872444Y-11268674D02*
X8881967Y-11230579D01*
X8881967Y-11230579D02*
X8891491Y-11211531D01*
X8891491Y-11211531D02*
X8901015Y-11202008D01*
X8901015Y-11202008D02*
X8920063Y-11192484D01*
X9110539Y-11192484D02*
X9129586Y-11192484D01*
X9129586Y-11192484D02*
X9148634Y-11202008D01*
X9148634Y-11202008D02*
X9158158Y-11211531D01*
X9158158Y-11211531D02*
X9167682Y-11230579D01*
X9167682Y-11230579D02*
X9177205Y-11268674D01*
X9177205Y-11268674D02*
X9177205Y-11316293D01*
X9177205Y-11316293D02*
X9167682Y-11354388D01*
X9167682Y-11354388D02*
X9158158Y-11373436D01*
X9158158Y-11373436D02*
X9148634Y-11382960D01*
X9148634Y-11382960D02*
X9129586Y-11392484D01*
X9129586Y-11392484D02*
X9110539Y-11392484D01*
X9110539Y-11392484D02*
X9091491Y-11382960D01*
X9091491Y-11382960D02*
X9081967Y-11373436D01*
X9081967Y-11373436D02*
X9072444Y-11354388D01*
X9072444Y-11354388D02*
X9062920Y-11316293D01*
X9062920Y-11316293D02*
X9062920Y-11268674D01*
X9062920Y-11268674D02*
X9072444Y-11230579D01*
X9072444Y-11230579D02*
X9081967Y-11211531D01*
X9081967Y-11211531D02*
X9091491Y-11202008D01*
X9091491Y-11202008D02*
X9110539Y-11192484D01*
X9262920Y-11392484D02*
X9262920Y-11259150D01*
X9262920Y-11278198D02*
X9272444Y-11268674D01*
X9272444Y-11268674D02*
X9291491Y-11259150D01*
X9291491Y-11259150D02*
X9320063Y-11259150D01*
X9320063Y-11259150D02*
X9339110Y-11268674D01*
X9339110Y-11268674D02*
X9348634Y-11287722D01*
X9348634Y-11287722D02*
X9348634Y-11392484D01*
X9348634Y-11287722D02*
X9358158Y-11268674D01*
X9358158Y-11268674D02*
X9377205Y-11259150D01*
X9377205Y-11259150D02*
X9405777Y-11259150D01*
X9405777Y-11259150D02*
X9424825Y-11268674D01*
X9424825Y-11268674D02*
X9434348Y-11287722D01*
X9434348Y-11287722D02*
X9434348Y-11392484D01*
X9529586Y-11392484D02*
X9529586Y-11259150D01*
X9529586Y-11278198D02*
X9539110Y-11268674D01*
X9539110Y-11268674D02*
X9558158Y-11259150D01*
X9558158Y-11259150D02*
X9586729Y-11259150D01*
X9586729Y-11259150D02*
X9605777Y-11268674D01*
X9605777Y-11268674D02*
X9615301Y-11287722D01*
X9615301Y-11287722D02*
X9615301Y-11392484D01*
X9615301Y-11287722D02*
X9624825Y-11268674D01*
X9624825Y-11268674D02*
X9643872Y-11259150D01*
X9643872Y-11259150D02*
X9672444Y-11259150D01*
X9672444Y-11259150D02*
X9691491Y-11268674D01*
X9691491Y-11268674D02*
X9701015Y-11287722D01*
X9701015Y-11287722D02*
X9701015Y-11392484D01*
X10091491Y-11182960D02*
X9920063Y-11440103D01*
X10348634Y-11192484D02*
X10367682Y-11192484D01*
X10367682Y-11192484D02*
X10386729Y-11202008D01*
X10386729Y-11202008D02*
X10396253Y-11211531D01*
X10396253Y-11211531D02*
X10405777Y-11230579D01*
X10405777Y-11230579D02*
X10415301Y-11268674D01*
X10415301Y-11268674D02*
X10415301Y-11316293D01*
X10415301Y-11316293D02*
X10405777Y-11354388D01*
X10405777Y-11354388D02*
X10396253Y-11373436D01*
X10396253Y-11373436D02*
X10386729Y-11382960D01*
X10386729Y-11382960D02*
X10367682Y-11392484D01*
X10367682Y-11392484D02*
X10348634Y-11392484D01*
X10348634Y-11392484D02*
X10329587Y-11382960D01*
X10329587Y-11382960D02*
X10320063Y-11373436D01*
X10320063Y-11373436D02*
X10310539Y-11354388D01*
X10310539Y-11354388D02*
X10301015Y-11316293D01*
X10301015Y-11316293D02*
X10301015Y-11268674D01*
X10301015Y-11268674D02*
X10310539Y-11230579D01*
X10310539Y-11230579D02*
X10320063Y-11211531D01*
X10320063Y-11211531D02*
X10329587Y-11202008D01*
X10329587Y-11202008D02*
X10348634Y-11192484D01*
X10501015Y-11373436D02*
X10510539Y-11382960D01*
X10510539Y-11382960D02*
X10501015Y-11392484D01*
X10501015Y-11392484D02*
X10491491Y-11382960D01*
X10491491Y-11382960D02*
X10501015Y-11373436D01*
X10501015Y-11373436D02*
X10501015Y-11392484D01*
X10701015Y-11392484D02*
X10586729Y-11392484D01*
X10643872Y-11392484D02*
X10643872Y-11192484D01*
X10643872Y-11192484D02*
X10624825Y-11221055D01*
X10624825Y-11221055D02*
X10605777Y-11240103D01*
X10605777Y-11240103D02*
X10586729Y-11249627D01*
X10767682Y-11192484D02*
X10891491Y-11192484D01*
X10891491Y-11192484D02*
X10824825Y-11268674D01*
X10824825Y-11268674D02*
X10853396Y-11268674D01*
X10853396Y-11268674D02*
X10872444Y-11278198D01*
X10872444Y-11278198D02*
X10881968Y-11287722D01*
X10881968Y-11287722D02*
X10891491Y-11306769D01*
X10891491Y-11306769D02*
X10891491Y-11354388D01*
X10891491Y-11354388D02*
X10881968Y-11373436D01*
X10881968Y-11373436D02*
X10872444Y-11382960D01*
X10872444Y-11382960D02*
X10853396Y-11392484D01*
X10853396Y-11392484D02*
X10796253Y-11392484D01*
X10796253Y-11392484D02*
X10777206Y-11382960D01*
X10777206Y-11382960D02*
X10767682Y-11373436D01*
X10958158Y-11192484D02*
X11091491Y-11192484D01*
X11091491Y-11192484D02*
X11005777Y-11392484D01*
X11196253Y-11278198D02*
X11177206Y-11268674D01*
X11177206Y-11268674D02*
X11167682Y-11259150D01*
X11167682Y-11259150D02*
X11158158Y-11240103D01*
X11158158Y-11240103D02*
X11158158Y-11230579D01*
X11158158Y-11230579D02*
X11167682Y-11211531D01*
X11167682Y-11211531D02*
X11177206Y-11202008D01*
X11177206Y-11202008D02*
X11196253Y-11192484D01*
X11196253Y-11192484D02*
X11234348Y-11192484D01*
X11234348Y-11192484D02*
X11253396Y-11202008D01*
X11253396Y-11202008D02*
X11262920Y-11211531D01*
X11262920Y-11211531D02*
X11272444Y-11230579D01*
X11272444Y-11230579D02*
X11272444Y-11240103D01*
X11272444Y-11240103D02*
X11262920Y-11259150D01*
X11262920Y-11259150D02*
X11253396Y-11268674D01*
X11253396Y-11268674D02*
X11234348Y-11278198D01*
X11234348Y-11278198D02*
X11196253Y-11278198D01*
X11196253Y-11278198D02*
X11177206Y-11287722D01*
X11177206Y-11287722D02*
X11167682Y-11297246D01*
X11167682Y-11297246D02*
X11158158Y-11316293D01*
X11158158Y-11316293D02*
X11158158Y-11354388D01*
X11158158Y-11354388D02*
X11167682Y-11373436D01*
X11167682Y-11373436D02*
X11177206Y-11382960D01*
X11177206Y-11382960D02*
X11196253Y-11392484D01*
X11196253Y-11392484D02*
X11234348Y-11392484D01*
X11234348Y-11392484D02*
X11253396Y-11382960D01*
X11253396Y-11382960D02*
X11262920Y-11373436D01*
X11262920Y-11373436D02*
X11272444Y-11354388D01*
X11272444Y-11354388D02*
X11272444Y-11316293D01*
X11272444Y-11316293D02*
X11262920Y-11297246D01*
X11262920Y-11297246D02*
X11253396Y-11287722D01*
X11253396Y-11287722D02*
X11234348Y-11278198D01*
X11348634Y-11192484D02*
X11348634Y-11230579D01*
X11424825Y-11192484D02*
X11424825Y-11230579D01*
X11720063Y-11468674D02*
X11710539Y-11459150D01*
X11710539Y-11459150D02*
X11691491Y-11430579D01*
X11691491Y-11430579D02*
X11681968Y-11411531D01*
X11681968Y-11411531D02*
X11672444Y-11382960D01*
X11672444Y-11382960D02*
X11662920Y-11335341D01*
X11662920Y-11335341D02*
X11662920Y-11297246D01*
X11662920Y-11297246D02*
X11672444Y-11249627D01*
X11672444Y-11249627D02*
X11681968Y-11221055D01*
X11681968Y-11221055D02*
X11691491Y-11202008D01*
X11691491Y-11202008D02*
X11710539Y-11173436D01*
X11710539Y-11173436D02*
X11720063Y-11163912D01*
X11824825Y-11278198D02*
X11805777Y-11268674D01*
X11805777Y-11268674D02*
X11796253Y-11259150D01*
X11796253Y-11259150D02*
X11786729Y-11240103D01*
X11786729Y-11240103D02*
X11786729Y-11230579D01*
X11786729Y-11230579D02*
X11796253Y-11211531D01*
X11796253Y-11211531D02*
X11805777Y-11202008D01*
X11805777Y-11202008D02*
X11824825Y-11192484D01*
X11824825Y-11192484D02*
X11862920Y-11192484D01*
X11862920Y-11192484D02*
X11881968Y-11202008D01*
X11881968Y-11202008D02*
X11891491Y-11211531D01*
X11891491Y-11211531D02*
X11901015Y-11230579D01*
X11901015Y-11230579D02*
X11901015Y-11240103D01*
X11901015Y-11240103D02*
X11891491Y-11259150D01*
X11891491Y-11259150D02*
X11881968Y-11268674D01*
X11881968Y-11268674D02*
X11862920Y-11278198D01*
X11862920Y-11278198D02*
X11824825Y-11278198D01*
X11824825Y-11278198D02*
X11805777Y-11287722D01*
X11805777Y-11287722D02*
X11796253Y-11297246D01*
X11796253Y-11297246D02*
X11786729Y-11316293D01*
X11786729Y-11316293D02*
X11786729Y-11354388D01*
X11786729Y-11354388D02*
X11796253Y-11373436D01*
X11796253Y-11373436D02*
X11805777Y-11382960D01*
X11805777Y-11382960D02*
X11824825Y-11392484D01*
X11824825Y-11392484D02*
X11862920Y-11392484D01*
X11862920Y-11392484D02*
X11881968Y-11382960D01*
X11881968Y-11382960D02*
X11891491Y-11373436D01*
X11891491Y-11373436D02*
X11901015Y-11354388D01*
X11901015Y-11354388D02*
X11901015Y-11316293D01*
X11901015Y-11316293D02*
X11891491Y-11297246D01*
X11891491Y-11297246D02*
X11881968Y-11287722D01*
X11881968Y-11287722D02*
X11862920Y-11278198D01*
X12139110Y-11392484D02*
X12139110Y-11192484D01*
X12224825Y-11392484D02*
X12224825Y-11287722D01*
X12224825Y-11287722D02*
X12215301Y-11268674D01*
X12215301Y-11268674D02*
X12196253Y-11259150D01*
X12196253Y-11259150D02*
X12167682Y-11259150D01*
X12167682Y-11259150D02*
X12148634Y-11268674D01*
X12148634Y-11268674D02*
X12139110Y-11278198D01*
X12348634Y-11392484D02*
X12329587Y-11382960D01*
X12329587Y-11382960D02*
X12320063Y-11373436D01*
X12320063Y-11373436D02*
X12310539Y-11354388D01*
X12310539Y-11354388D02*
X12310539Y-11297246D01*
X12310539Y-11297246D02*
X12320063Y-11278198D01*
X12320063Y-11278198D02*
X12329587Y-11268674D01*
X12329587Y-11268674D02*
X12348634Y-11259150D01*
X12348634Y-11259150D02*
X12377206Y-11259150D01*
X12377206Y-11259150D02*
X12396253Y-11268674D01*
X12396253Y-11268674D02*
X12405777Y-11278198D01*
X12405777Y-11278198D02*
X12415301Y-11297246D01*
X12415301Y-11297246D02*
X12415301Y-11354388D01*
X12415301Y-11354388D02*
X12405777Y-11373436D01*
X12405777Y-11373436D02*
X12396253Y-11382960D01*
X12396253Y-11382960D02*
X12377206Y-11392484D01*
X12377206Y-11392484D02*
X12348634Y-11392484D01*
X12529587Y-11392484D02*
X12510539Y-11382960D01*
X12510539Y-11382960D02*
X12501015Y-11363912D01*
X12501015Y-11363912D02*
X12501015Y-11192484D01*
X12681968Y-11382960D02*
X12662920Y-11392484D01*
X12662920Y-11392484D02*
X12624825Y-11392484D01*
X12624825Y-11392484D02*
X12605777Y-11382960D01*
X12605777Y-11382960D02*
X12596253Y-11363912D01*
X12596253Y-11363912D02*
X12596253Y-11287722D01*
X12596253Y-11287722D02*
X12605777Y-11268674D01*
X12605777Y-11268674D02*
X12624825Y-11259150D01*
X12624825Y-11259150D02*
X12662920Y-11259150D01*
X12662920Y-11259150D02*
X12681968Y-11268674D01*
X12681968Y-11268674D02*
X12691491Y-11287722D01*
X12691491Y-11287722D02*
X12691491Y-11306769D01*
X12691491Y-11306769D02*
X12596253Y-11325817D01*
X12767682Y-11382960D02*
X12786730Y-11392484D01*
X12786730Y-11392484D02*
X12824825Y-11392484D01*
X12824825Y-11392484D02*
X12843872Y-11382960D01*
X12843872Y-11382960D02*
X12853396Y-11363912D01*
X12853396Y-11363912D02*
X12853396Y-11354388D01*
X12853396Y-11354388D02*
X12843872Y-11335341D01*
X12843872Y-11335341D02*
X12824825Y-11325817D01*
X12824825Y-11325817D02*
X12796253Y-11325817D01*
X12796253Y-11325817D02*
X12777206Y-11316293D01*
X12777206Y-11316293D02*
X12767682Y-11297246D01*
X12767682Y-11297246D02*
X12767682Y-11287722D01*
X12767682Y-11287722D02*
X12777206Y-11268674D01*
X12777206Y-11268674D02*
X12796253Y-11259150D01*
X12796253Y-11259150D02*
X12824825Y-11259150D01*
X12824825Y-11259150D02*
X12843872Y-11268674D01*
X12920063Y-11468674D02*
X12929587Y-11459150D01*
X12929587Y-11459150D02*
X12948634Y-11430579D01*
X12948634Y-11430579D02*
X12958158Y-11411531D01*
X12958158Y-11411531D02*
X12967682Y-11382960D01*
X12967682Y-11382960D02*
X12977206Y-11335341D01*
X12977206Y-11335341D02*
X12977206Y-11297246D01*
X12977206Y-11297246D02*
X12967682Y-11249627D01*
X12967682Y-11249627D02*
X12958158Y-11221055D01*
X12958158Y-11221055D02*
X12948634Y-11202008D01*
X12948634Y-11202008D02*
X12929587Y-11173436D01*
X12929587Y-11173436D02*
X12920063Y-11163912D01*
X13281968Y-11468674D02*
X13272444Y-11459150D01*
X13272444Y-11459150D02*
X13253396Y-11430579D01*
X13253396Y-11430579D02*
X13243872Y-11411531D01*
X13243872Y-11411531D02*
X13234349Y-11382960D01*
X13234349Y-11382960D02*
X13224825Y-11335341D01*
X13224825Y-11335341D02*
X13224825Y-11297246D01*
X13224825Y-11297246D02*
X13234349Y-11249627D01*
X13234349Y-11249627D02*
X13243872Y-11221055D01*
X13243872Y-11221055D02*
X13253396Y-11202008D01*
X13253396Y-11202008D02*
X13272444Y-11173436D01*
X13272444Y-11173436D02*
X13281968Y-11163912D01*
X13358158Y-11259150D02*
X13358158Y-11392484D01*
X13358158Y-11278198D02*
X13367682Y-11268674D01*
X13367682Y-11268674D02*
X13386730Y-11259150D01*
X13386730Y-11259150D02*
X13415301Y-11259150D01*
X13415301Y-11259150D02*
X13434349Y-11268674D01*
X13434349Y-11268674D02*
X13443872Y-11287722D01*
X13443872Y-11287722D02*
X13443872Y-11392484D01*
X13567682Y-11392484D02*
X13548634Y-11382960D01*
X13548634Y-11382960D02*
X13539111Y-11373436D01*
X13539111Y-11373436D02*
X13529587Y-11354388D01*
X13529587Y-11354388D02*
X13529587Y-11297246D01*
X13529587Y-11297246D02*
X13539111Y-11278198D01*
X13539111Y-11278198D02*
X13548634Y-11268674D01*
X13548634Y-11268674D02*
X13567682Y-11259150D01*
X13567682Y-11259150D02*
X13596253Y-11259150D01*
X13596253Y-11259150D02*
X13615301Y-11268674D01*
X13615301Y-11268674D02*
X13624825Y-11278198D01*
X13624825Y-11278198D02*
X13634349Y-11297246D01*
X13634349Y-11297246D02*
X13634349Y-11354388D01*
X13634349Y-11354388D02*
X13624825Y-11373436D01*
X13624825Y-11373436D02*
X13615301Y-11382960D01*
X13615301Y-11382960D02*
X13596253Y-11392484D01*
X13596253Y-11392484D02*
X13567682Y-11392484D01*
X13691492Y-11259150D02*
X13767682Y-11259150D01*
X13720063Y-11192484D02*
X13720063Y-11363912D01*
X13720063Y-11363912D02*
X13729587Y-11382960D01*
X13729587Y-11382960D02*
X13748634Y-11392484D01*
X13748634Y-11392484D02*
X13767682Y-11392484D01*
X13986730Y-11259150D02*
X13986730Y-11459150D01*
X13986730Y-11268674D02*
X14005777Y-11259150D01*
X14005777Y-11259150D02*
X14043873Y-11259150D01*
X14043873Y-11259150D02*
X14062920Y-11268674D01*
X14062920Y-11268674D02*
X14072444Y-11278198D01*
X14072444Y-11278198D02*
X14081968Y-11297246D01*
X14081968Y-11297246D02*
X14081968Y-11354388D01*
X14081968Y-11354388D02*
X14072444Y-11373436D01*
X14072444Y-11373436D02*
X14062920Y-11382960D01*
X14062920Y-11382960D02*
X14043873Y-11392484D01*
X14043873Y-11392484D02*
X14005777Y-11392484D01*
X14005777Y-11392484D02*
X13986730Y-11382960D01*
X14196253Y-11392484D02*
X14177206Y-11382960D01*
X14177206Y-11382960D02*
X14167682Y-11363912D01*
X14167682Y-11363912D02*
X14167682Y-11192484D01*
X14358158Y-11392484D02*
X14358158Y-11287722D01*
X14358158Y-11287722D02*
X14348634Y-11268674D01*
X14348634Y-11268674D02*
X14329587Y-11259150D01*
X14329587Y-11259150D02*
X14291492Y-11259150D01*
X14291492Y-11259150D02*
X14272444Y-11268674D01*
X14358158Y-11382960D02*
X14339111Y-11392484D01*
X14339111Y-11392484D02*
X14291492Y-11392484D01*
X14291492Y-11392484D02*
X14272444Y-11382960D01*
X14272444Y-11382960D02*
X14262920Y-11363912D01*
X14262920Y-11363912D02*
X14262920Y-11344865D01*
X14262920Y-11344865D02*
X14272444Y-11325817D01*
X14272444Y-11325817D02*
X14291492Y-11316293D01*
X14291492Y-11316293D02*
X14339111Y-11316293D01*
X14339111Y-11316293D02*
X14358158Y-11306769D01*
X14424825Y-11259150D02*
X14501015Y-11259150D01*
X14453396Y-11192484D02*
X14453396Y-11363912D01*
X14453396Y-11363912D02*
X14462920Y-11382960D01*
X14462920Y-11382960D02*
X14481968Y-11392484D01*
X14481968Y-11392484D02*
X14501015Y-11392484D01*
X14643873Y-11382960D02*
X14624825Y-11392484D01*
X14624825Y-11392484D02*
X14586730Y-11392484D01*
X14586730Y-11392484D02*
X14567682Y-11382960D01*
X14567682Y-11382960D02*
X14558158Y-11363912D01*
X14558158Y-11363912D02*
X14558158Y-11287722D01*
X14558158Y-11287722D02*
X14567682Y-11268674D01*
X14567682Y-11268674D02*
X14586730Y-11259150D01*
X14586730Y-11259150D02*
X14624825Y-11259150D01*
X14624825Y-11259150D02*
X14643873Y-11268674D01*
X14643873Y-11268674D02*
X14653396Y-11287722D01*
X14653396Y-11287722D02*
X14653396Y-11306769D01*
X14653396Y-11306769D02*
X14558158Y-11325817D01*
X14824825Y-11392484D02*
X14824825Y-11192484D01*
X14824825Y-11382960D02*
X14805777Y-11392484D01*
X14805777Y-11392484D02*
X14767682Y-11392484D01*
X14767682Y-11392484D02*
X14748634Y-11382960D01*
X14748634Y-11382960D02*
X14739111Y-11373436D01*
X14739111Y-11373436D02*
X14729587Y-11354388D01*
X14729587Y-11354388D02*
X14729587Y-11297246D01*
X14729587Y-11297246D02*
X14739111Y-11278198D01*
X14739111Y-11278198D02*
X14748634Y-11268674D01*
X14748634Y-11268674D02*
X14767682Y-11259150D01*
X14767682Y-11259150D02*
X14805777Y-11259150D01*
X14805777Y-11259150D02*
X14824825Y-11268674D01*
X14901015Y-11468674D02*
X14910539Y-11459150D01*
X14910539Y-11459150D02*
X14929587Y-11430579D01*
X14929587Y-11430579D02*
X14939111Y-11411531D01*
X14939111Y-11411531D02*
X14948634Y-11382960D01*
X14948634Y-11382960D02*
X14958158Y-11335341D01*
X14958158Y-11335341D02*
X14958158Y-11297246D01*
X14958158Y-11297246D02*
X14948634Y-11249627D01*
X14948634Y-11249627D02*
X14939111Y-11221055D01*
X14939111Y-11221055D02*
X14929587Y-11202008D01*
X14929587Y-11202008D02*
X14910539Y-11173436D01*
X14910539Y-11173436D02*
X14901015Y-11163912D01*
M02*
