  0
SECTION
  2
HEADER
  9
$ANGBASE
  50
0.0
  9
$ANGDIR
  70
1
  9
$MEASUREMENT
  70
0
  0
ENDSEC
  0
SECTION
  2
TABLES
  0
TABLE
  2
LTYPE
  70
4
  0
LTYPE
  5
40F
  2
CONTINUOUS
  70
0
  3
Solid line
  72
65
  73
0
  40
0.0
  0
LTYPE
  5
410
  2
DASHDOT
 70
0
  3
Dash Dot ____ _ ____ _
 72
65
 73
4
 40
2.0
 49
1.25
 49
-0.25
 49
0.25
 49
-0.25
  0
LTYPE
  5
411
  2
DASHED
 70
0
  3
Dashed __ __ __ __ __
 72
65
 73
2
 40
0.75
 49
0.5
 49
-0.25
  0
LTYPE
  5
43B
  2
DOTTED
 70
0
  3
Dotted .  .  .  .
 72
65
 73
2
 40
0.2
 49
0.0
 49
-0.2
  0
ENDTAB
  0
TABLE
  2
STYLE
  70
4
  0
STYLE
  2
KICAD
  70
0
  40
0
  41
1
  42
1
  50
0
  71
0
  3
isocp.shx
  0
STYLE
  2
KICADB
  70
0
  40
0
  41
1
  42
1
  50
0
  71
0
  3
isocp.shx
  0
STYLE
  2
KICADI
  70
0
  40
0
  41
1
  42
1
  50
15
  71
0
  3
isocp.shx
  0
STYLE
  2
KICADBI
  70
0
  40
0
  41
1
  42
1
  50
15
  71
0
  3
isocp.shx
  0
ENDTAB
  0
TABLE
  2
LAYER
  70
1
  0
LAYER
  2
BLACK
  70
0
  62
7
  6
CONTINUOUS
  0
ENDTAB
  0
ENDSEC
  0
SECTION
  2
ENTITIES
0
LINE
8
BLACK
6
CONTINUOUS
10
6.3846115748031496
20
-2.7859766141732285
11
6.385676929133858
21
-2.7870419685039369
0
LINE
8
BLACK
6
CONTINUOUS
10
6.385676929133858
20
-2.7870419685039369
11
6.3858267716535435
21
-2.7877952755905513
0
LINE
8
BLACK
6
CONTINUOUS
10
6.3858267716535435
20
-2.7877952755905513
11
6.3858267716535435
21
-3.8448818897637795
0
LINE
8
BLACK
6
CONTINUOUS
10
6.3858267716535435
20
-3.8448818897637795
11
6.385676929133858
21
-3.8456351968503935
0
LINE
8
BLACK
6
CONTINUOUS
10
6.385676929133858
20
-3.8456351968503935
11
6.3846115748031496
21
-3.8467005511811023
0
LINE
8
BLACK
6
CONTINUOUS
10
6.3846115748031496
20
-3.8467005511811023
11
6.3838582677165352
21
-3.8468503937007874
0
LINE
8
BLACK
6
CONTINUOUS
10
6.3838582677165352
20
-3.8468503937007874
11
4.0141732283464568
21
-3.8468503937007874
0
LINE
8
BLACK
6
CONTINUOUS
10
4.0141732283464568
20
-3.8468503937007874
11
4.0134199212598425
21
-3.8467005511811023
0
LINE
8
BLACK
6
CONTINUOUS
10
4.0134199212598425
20
-3.8467005511811023
11
4.0123545669291341
21
-3.8456351968503935
0
LINE
8
BLACK
6
CONTINUOUS
10
4.0123545669291341
20
-3.8456351968503935
11
4.0122047244094485
21
-3.8448818897637795
0
LINE
8
BLACK
6
CONTINUOUS
10
4.0122047244094485
20
-3.8448818897637795
11
4.0122047244094485
21
-2.7877952755905513
0
LINE
8
BLACK
6
CONTINUOUS
10
4.0122047244094485
20
-2.7877952755905513
11
4.0123545669291341
21
-2.7870419685039369
0
LINE
8
BLACK
6
CONTINUOUS
10
4.0123545669291341
20
-2.7870419685039369
11
4.0134199212598425
21
-2.7859766141732285
0
LINE
8
BLACK
6
CONTINUOUS
10
4.0134199212598425
20
-2.7859766141732285
11
4.0141732283464568
21
-2.7858267716535434
0
LINE
8
BLACK
6
CONTINUOUS
10
4.0141732283464568
20
-2.7858267716535434
11
6.3838582677165352
21
-2.7858267716535434
0
LINE
8
BLACK
6
CONTINUOUS
10
6.3838582677165352
20
-2.7858267716535434
11
6.3846115748031496
21
-2.7859766141732285
0
LINE
8
BLACK
6
CONTINUOUS
10
4.0161417322834643
20
-2.7897637795275592
11
4.0161417322834643
21
-3.8429133858267717
0
LINE
8
BLACK
6
CONTINUOUS
10
4.0161417322834643
20
-3.8429133858267717
11
6.3818897637795278
21
-3.8429133858267717
0
LINE
8
BLACK
6
CONTINUOUS
10
6.3818897637795278
20
-3.8429133858267717
11
6.3818897637795278
21
-2.7897637795275592
0
LINE
8
BLACK
6
CONTINUOUS
10
6.3818897637795278
20
-2.7897637795275592
11
4.0161417322834643
21
-2.7897637795275592
0
LINE
8
BLACK
6
CONTINUOUS
10
9.0932729921259838
20
-1.6111734645669291
11
9.0943383464566931
21
-1.6122388188976378
0
LINE
8
BLACK
6
CONTINUOUS
10
9.0943383464566931
20
-1.6122388188976378
11
9.0944881889763778
21
-1.6129921259842519
0
LINE
8
BLACK
6
CONTINUOUS
10
9.0944881889763778
20
-1.6129921259842519
11
9.0944881889763778
21
-2.7602362204724407
0
LINE
8
BLACK
6
CONTINUOUS
10
9.0944881889763778
20
-2.7602362204724407
11
9.0943383464566931
21
-2.760989527559055
0
LINE
8
BLACK
6
CONTINUOUS
10
9.0943383464566931
20
-2.760989527559055
11
9.0932729921259838
21
-2.7620548818897639
0
LINE
8
BLACK
6
CONTINUOUS
10
9.0932729921259838
20
-2.7620548818897639
11
9.0925196850393704
21
-2.762204724409449
0
LINE
8
BLACK
6
CONTINUOUS
10
9.0925196850393704
20
-2.762204724409449
11
3.2086614173228347
21
-2.762204724409449
0
LINE
8
BLACK
6
CONTINUOUS
10
3.2086614173228347
20
-2.762204724409449
11
3.2079081102362204
21
-2.7620548818897639
0
LINE
8
BLACK
6
CONTINUOUS
10
3.2079081102362204
20
-2.7620548818897639
11
3.2068427559055119
21
-2.760989527559055
0
LINE
8
BLACK
6
CONTINUOUS
10
3.2068427559055119
20
-2.760989527559055
11
3.2066929133858268
21
-2.7602362204724407
0
LINE
8
BLACK
6
CONTINUOUS
10
3.2066929133858268
20
-2.7602362204724407
11
3.2066929133858268
21
-1.6129921259842519
0
LINE
8
BLACK
6
CONTINUOUS
10
3.2066929133858268
20
-1.6129921259842519
11
3.2068427559055119
21
-1.6122388188976378
0
LINE
8
BLACK
6
CONTINUOUS
10
3.2068427559055119
20
-1.6122388188976378
11
3.2079081102362204
21
-1.6111734645669291
0
LINE
8
BLACK
6
CONTINUOUS
10
3.2079081102362204
20
-1.6111734645669291
11
3.2086614173228347
21
-1.611023622047244
0
LINE
8
BLACK
6
CONTINUOUS
10
3.2086614173228347
20
-1.611023622047244
11
9.0925196850393704
21
-1.611023622047244
0
LINE
8
BLACK
6
CONTINUOUS
10
9.0925196850393704
20
-1.611023622047244
11
9.0932729921259838
21
-1.6111734645669291
0
LINE
8
BLACK
6
CONTINUOUS
10
3.2106299212598426
20
-1.6149606299212598
11
3.2106299212598426
21
-2.7582677165354328
0
LINE
8
BLACK
6
CONTINUOUS
10
3.2106299212598426
20
-2.7582677165354328
11
9.0905511811023612
21
-2.7582677165354328
0
LINE
8
BLACK
6
CONTINUOUS
10
9.0905511811023612
20
-2.7582677165354328
11
9.0905511811023612
21
-1.6149606299212598
0
LINE
8
BLACK
6
CONTINUOUS
10
9.0905511811023612
20
-1.6149606299212598
11
3.2106299212598426
21
-1.6149606299212598
  0
ENDSEC
  0
EOF
