%TF.GenerationSoftware,KiCad,Pcbnew,7.0.10*%
%TF.CreationDate,2024-02-02T23:00:29-06:00*%
%TF.ProjectId,Glass,476c6173-732e-46b6-9963-61645f706362,rev?*%
%TF.SameCoordinates,Original*%
%TF.FileFunction,Soldermask,Top*%
%TF.FilePolarity,Negative*%
%FSLAX46Y46*%
G04 Gerber Fmt 4.6, Leading zero omitted, Abs format (unit mm)*
G04 Created by KiCad (PCBNEW 7.0.10) date 2024-02-02 23:00:29*
%MOMM*%
%LPD*%
G01*
G04 APERTURE LIST*
%ADD10C,2.200000*%
%ADD11C,4.000000*%
%ADD12R,1.700000X1.700000*%
%ADD13O,1.700000X1.700000*%
%ADD14O,1.800000X1.800000*%
%ADD15O,1.500000X1.500000*%
%ADD16R,1.700000X3.500000*%
%ADD17R,3.500000X1.700000*%
G04 APERTURE END LIST*
D10*
%TO.C,REF\u002A\u002A*%
X124050000Y-83570000D03*
%TD*%
%TO.C,REF\u002A\u002A*%
X158950000Y-93120000D03*
%TD*%
%TO.C,REF\u002A\u002A*%
X158950000Y-74420000D03*
%TD*%
D11*
%TO.C,REF\u002A\u002A*%
X135630000Y-62740000D03*
X135630000Y-46740000D03*
X115570000Y-62740000D03*
X115570000Y-46740000D03*
%TD*%
D12*
%TO.C,U2*%
X225830000Y-47460000D03*
D13*
X225830000Y-50000000D03*
X225830000Y-52540000D03*
X225830000Y-55080000D03*
X225830000Y-57620000D03*
X225830000Y-60160000D03*
X225830000Y-62700000D03*
%TD*%
D12*
%TO.C,U2*%
X153030000Y-76655000D03*
D13*
X153030000Y-79195000D03*
X153030000Y-81735000D03*
X153030000Y-84275000D03*
X153030000Y-86815000D03*
X153030000Y-89355000D03*
X153030000Y-91895000D03*
%TD*%
D12*
%TO.C,GND*%
X92830000Y-63170000D03*
%TD*%
D10*
%TO.C,REF\u002A\u002A*%
X219570000Y-67100000D03*
%TD*%
%TO.C,REF\u002A\u002A*%
X128900000Y-62650000D03*
%TD*%
%TO.C,REF\u002A\u002A*%
X98950000Y-44530000D03*
%TD*%
D11*
%TO.C,REF\u002A\u002A*%
X135620000Y-91980000D03*
X135620000Y-75980000D03*
X115560000Y-91980000D03*
X115560000Y-75980000D03*
%TD*%
D14*
%TO.C,U1*%
X214820000Y-52465000D03*
D15*
X211790000Y-52765000D03*
X211790000Y-57615000D03*
D14*
X214820000Y-57915000D03*
D13*
X214950000Y-46300000D03*
D16*
X214950000Y-45400000D03*
D13*
X212410000Y-46300000D03*
D16*
X212410000Y-45400000D03*
D12*
X209870000Y-46300000D03*
D16*
X209870000Y-45400000D03*
D13*
X207330000Y-46300000D03*
D16*
X207330000Y-45400000D03*
D13*
X204790000Y-46300000D03*
D16*
X204790000Y-45400000D03*
D13*
X202250000Y-46300000D03*
D16*
X202250000Y-45400000D03*
D13*
X199710000Y-46300000D03*
D16*
X199710000Y-45400000D03*
D12*
X197170000Y-46300000D03*
D16*
X197170000Y-45400000D03*
D13*
X194630000Y-46300000D03*
D16*
X194630000Y-45400000D03*
D13*
X192090000Y-46300000D03*
D16*
X192090000Y-45400000D03*
D13*
X189550000Y-46300000D03*
D16*
X189550000Y-45400000D03*
D13*
X187010000Y-46300000D03*
D16*
X187010000Y-45400000D03*
D12*
X184470000Y-46300000D03*
D16*
X184470000Y-45400000D03*
D13*
X181930000Y-46300000D03*
D16*
X181930000Y-45400000D03*
D13*
X179390000Y-46300000D03*
D16*
X179390000Y-45400000D03*
D13*
X176850000Y-46300000D03*
D16*
X176850000Y-45400000D03*
D13*
X174310000Y-46300000D03*
D16*
X174310000Y-45400000D03*
D12*
X171770000Y-46300000D03*
D16*
X171770000Y-45400000D03*
D13*
X169230000Y-46300000D03*
D16*
X169230000Y-45400000D03*
D13*
X166690000Y-46300000D03*
D16*
X166690000Y-45400000D03*
D13*
X166690000Y-64080000D03*
D16*
X166690000Y-64980000D03*
D13*
X169230000Y-64080000D03*
D16*
X169230000Y-64980000D03*
D12*
X171770000Y-64080000D03*
D16*
X171770000Y-64980000D03*
D13*
X174310000Y-64080000D03*
D16*
X174310000Y-64980000D03*
D13*
X176850000Y-64080000D03*
D16*
X176850000Y-64980000D03*
D13*
X179390000Y-64080000D03*
D16*
X179390000Y-64980000D03*
D13*
X181930000Y-64080000D03*
D16*
X181930000Y-64980000D03*
D12*
X184470000Y-64080000D03*
D16*
X184470000Y-64980000D03*
D13*
X187010000Y-64080000D03*
D16*
X187010000Y-64980000D03*
D13*
X189550000Y-64080000D03*
D16*
X189550000Y-64980000D03*
D13*
X192090000Y-64080000D03*
D16*
X192090000Y-64980000D03*
D13*
X194630000Y-64080000D03*
D16*
X194630000Y-64980000D03*
D12*
X197170000Y-64080000D03*
D16*
X197170000Y-64980000D03*
D13*
X199710000Y-64080000D03*
D16*
X199710000Y-64980000D03*
D13*
X202250000Y-64080000D03*
D16*
X202250000Y-64980000D03*
D13*
X204790000Y-64080000D03*
D16*
X204790000Y-64980000D03*
D13*
X207330000Y-64080000D03*
D16*
X207330000Y-64980000D03*
D12*
X209870000Y-64080000D03*
D16*
X209870000Y-64980000D03*
D13*
X212410000Y-64080000D03*
D16*
X212410000Y-64980000D03*
D13*
X214950000Y-64080000D03*
D16*
X214950000Y-64980000D03*
D13*
X166920000Y-52650000D03*
D17*
X166020000Y-52650000D03*
D12*
X166920000Y-55190000D03*
D17*
X166020000Y-55190000D03*
D13*
X166920000Y-57730000D03*
D17*
X166020000Y-57730000D03*
%TD*%
D10*
%TO.C,REF\u002A\u002A*%
X219530000Y-43770000D03*
%TD*%
D12*
%TO.C,U4*%
X84990000Y-46280000D03*
D13*
X84990000Y-48820000D03*
X84990000Y-51360000D03*
X84990000Y-53900000D03*
X84990000Y-56440000D03*
X84990000Y-58980000D03*
X84990000Y-61520000D03*
X84990000Y-64060000D03*
%TD*%
D12*
%TO.C,3.3V*%
X91600000Y-46330000D03*
%TD*%
%TO.C,U3*%
X152900000Y-47980000D03*
D13*
X152900000Y-50520000D03*
X152900000Y-53060000D03*
X152900000Y-55600000D03*
X152900000Y-58140000D03*
X152900000Y-60680000D03*
X152900000Y-63220000D03*
%TD*%
M02*
