M48
; DRILL file {KiCad 7.0.10} date Fri Feb  2 23:00:33 2024
; FORMAT={-:-/ absolute / inch / decimal}
; #@! TF.CreationDate,2024-02-02T23:00:33-06:00
; #@! TF.GenerationSoftware,Kicad,Pcbnew,7.0.10
; #@! TF.FileFunction,Plated,1,2,PTH
FMAT,2
INCH
; #@! TA.AperFunction,Plated,PTH,ViaDrill
T1C0.0157
; #@! TA.AperFunction,Plated,PTH,ComponentDrill
T2C0.0394
; #@! TA.AperFunction,Plated,PTH,ComponentDrill
T3C0.0402
%
G90
G05
T1
X3.4535Y-1.9189
X3.4547Y-2.6394
X3.5563Y-2.024
X3.5563Y-2.6114
X3.7512Y-2.274
X3.7516Y-2.5811
X3.839Y-2.5634
X3.8394Y-2.3209
X3.9138Y-2.1209
X3.9142Y-2.5319
X4.8717Y-1.9965
X4.8724Y-2.3441
X6.6492Y-2.1201
X6.7063Y-2.0693
X6.8622Y-2.2047
X7.5606Y-1.9957
X8.0646Y-2.3878
X8.1614Y-2.3209
T2
X3.3461Y-1.822
X3.3461Y-1.922
X3.3461Y-2.022
X3.3461Y-2.122
X3.3461Y-2.222
X3.3461Y-2.322
X3.3461Y-2.422
X3.3461Y-2.522
X3.6063Y-1.824
X3.6547Y-2.487
X6.0197Y-1.889
X6.0197Y-1.989
X6.0197Y-2.089
X6.0197Y-2.189
X6.0197Y-2.289
X6.0197Y-2.389
X6.0197Y-2.489
X6.0248Y-3.0179
X6.0248Y-3.1179
X6.0248Y-3.2179
X6.0248Y-3.3179
X6.0248Y-3.4179
X6.0248Y-3.5179
X6.0248Y-3.6179
X8.8909Y-1.8685
X8.8909Y-1.9685
X8.8909Y-2.0685
X8.8909Y-2.1685
X8.8909Y-2.2685
X8.8909Y-2.3685
X8.8909Y-2.4685
T3
X6.5626Y-1.8228
X6.5626Y-2.5228
X6.5717Y-2.0728
X6.5717Y-2.1728
X6.5717Y-2.2728
X6.6626Y-1.8228
X6.6626Y-2.5228
X6.7626Y-1.8228
X6.7626Y-2.5228
X6.8626Y-1.8228
X6.8626Y-2.5228
X6.9626Y-1.8228
X6.9626Y-2.5228
X7.0626Y-1.8228
X7.0626Y-2.5228
X7.1626Y-1.8228
X7.1626Y-2.5228
X7.2626Y-1.8228
X7.2626Y-2.5228
X7.3626Y-1.8228
X7.3626Y-2.5228
X7.4626Y-1.8228
X7.4626Y-2.5228
X7.5626Y-1.8228
X7.5626Y-2.5228
X7.6626Y-1.8228
X7.6626Y-2.5228
X7.7626Y-1.8228
X7.7626Y-2.5228
X7.8626Y-1.8228
X7.8626Y-2.5228
X7.9626Y-1.8228
X7.9626Y-2.5228
X8.0626Y-1.8228
X8.0626Y-2.5228
X8.1626Y-1.8228
X8.1626Y-2.5228
X8.2626Y-1.8228
X8.2626Y-2.5228
X8.3626Y-1.8228
X8.3626Y-2.5228
X8.4626Y-1.8228
X8.4626Y-2.5228
M30
