%TF.GenerationSoftware,KiCad,Pcbnew,7.0.10*%
%TF.CreationDate,2024-02-02T23:00:29-06:00*%
%TF.ProjectId,Glass,476c6173-732e-46b6-9963-61645f706362,rev?*%
%TF.SameCoordinates,Original*%
%TF.FileFunction,Copper,L1,Top*%
%TF.FilePolarity,Positive*%
%FSLAX46Y46*%
G04 Gerber Fmt 4.6, Leading zero omitted, Abs format (unit mm)*
G04 Created by KiCad (PCBNEW 7.0.10) date 2024-02-02 23:00:29*
%MOMM*%
%LPD*%
G01*
G04 APERTURE LIST*
%TA.AperFunction,WasherPad*%
%ADD10C,4.000000*%
%TD*%
%TA.AperFunction,ComponentPad*%
%ADD11R,1.700000X1.700000*%
%TD*%
%TA.AperFunction,ComponentPad*%
%ADD12O,1.700000X1.700000*%
%TD*%
%TA.AperFunction,SMDPad,CuDef*%
%ADD13R,1.700000X3.500000*%
%TD*%
%TA.AperFunction,SMDPad,CuDef*%
%ADD14R,3.500000X1.700000*%
%TD*%
%TA.AperFunction,ViaPad*%
%ADD15C,0.800000*%
%TD*%
%TA.AperFunction,Conductor*%
%ADD16C,0.250000*%
%TD*%
%TA.AperFunction,Conductor*%
%ADD17C,0.508000*%
%TD*%
G04 APERTURE END LIST*
D10*
%TO.P,REF\u002A\u002A,*%
%TO.N,*%
X135630000Y-62740000D03*
X135630000Y-46740000D03*
X115570000Y-62740000D03*
X115570000Y-46740000D03*
%TD*%
D11*
%TO.P,U2,1,GND*%
%TO.N,GND*%
X225830000Y-47460000D03*
D12*
%TO.P,U2,2,RST*%
%TO.N,/GP14*%
X225830000Y-50000000D03*
%TO.P,U2,3,DC*%
%TO.N,/GP15*%
X225830000Y-52540000D03*
%TO.P,U2,4,CS*%
%TO.N,/GP13*%
X225830000Y-55080000D03*
%TO.P,U2,5,CLK*%
%TO.N,/GP2*%
X225830000Y-57620000D03*
%TO.P,U2,6,DIN*%
%TO.N,/GP3*%
X225830000Y-60160000D03*
%TO.P,U2,7,VCC*%
%TO.N,+3.3V*%
X225830000Y-62700000D03*
%TD*%
D11*
%TO.P,U2,1,GND*%
%TO.N,N/C*%
X153030000Y-76655000D03*
D12*
%TO.P,U2,2,RST*%
X153030000Y-79195000D03*
%TO.P,U2,3,DC*%
X153030000Y-81735000D03*
%TO.P,U2,4,CS*%
X153030000Y-84275000D03*
%TO.P,U2,5,CLK*%
X153030000Y-86815000D03*
%TO.P,U2,6,DIN*%
X153030000Y-89355000D03*
%TO.P,U2,7,VCC*%
X153030000Y-91895000D03*
%TD*%
D11*
%TO.P,GND,1,1*%
%TO.N,GND*%
X92830000Y-63170000D03*
%TD*%
D10*
%TO.P,REF\u002A\u002A,*%
%TO.N,*%
X135620000Y-91980000D03*
X135620000Y-75980000D03*
X115560000Y-91980000D03*
X115560000Y-75980000D03*
%TD*%
D12*
%TO.P,U1,1,GPIO0*%
%TO.N,unconnected-(U1-GPIO0-Pad1)*%
X214950000Y-46300000D03*
D13*
X214950000Y-45400000D03*
D12*
%TO.P,U1,2,GPIO1*%
%TO.N,unconnected-(U1-GPIO1-Pad2)*%
X212410000Y-46300000D03*
D13*
X212410000Y-45400000D03*
D11*
%TO.P,U1,3,GND*%
%TO.N,GND*%
X209870000Y-46300000D03*
D13*
X209870000Y-45400000D03*
D12*
%TO.P,U1,4,GPIO2*%
%TO.N,/GP2*%
X207330000Y-46300000D03*
D13*
X207330000Y-45400000D03*
D12*
%TO.P,U1,5,GPIO3*%
%TO.N,/GP3*%
X204790000Y-46300000D03*
D13*
X204790000Y-45400000D03*
D12*
%TO.P,U1,6,GPIO4*%
%TO.N,unconnected-(U1-GPIO4-Pad6)*%
X202250000Y-46300000D03*
D13*
X202250000Y-45400000D03*
D12*
%TO.P,U1,7,GPIO5*%
%TO.N,/GP5*%
X199710000Y-46300000D03*
D13*
X199710000Y-45400000D03*
D11*
%TO.P,U1,8,GND*%
%TO.N,GND*%
X197170000Y-46300000D03*
D13*
X197170000Y-45400000D03*
D12*
%TO.P,U1,9,GPIO6*%
%TO.N,/GP6*%
X194630000Y-46300000D03*
D13*
X194630000Y-45400000D03*
D12*
%TO.P,U1,10,GPIO7*%
%TO.N,/GP7*%
X192090000Y-46300000D03*
D13*
X192090000Y-45400000D03*
D12*
%TO.P,U1,11,GPIO8*%
%TO.N,unconnected-(U1-GPIO8-Pad11)*%
X189550000Y-46300000D03*
D13*
X189550000Y-45400000D03*
D12*
%TO.P,U1,12,GPIO9*%
%TO.N,unconnected-(U1-GPIO9-Pad12)*%
X187010000Y-46300000D03*
D13*
X187010000Y-45400000D03*
D11*
%TO.P,U1,13,GND*%
%TO.N,GND*%
X184470000Y-46300000D03*
D13*
X184470000Y-45400000D03*
D12*
%TO.P,U1,14,GPIO10*%
%TO.N,/GP10*%
X181930000Y-46300000D03*
D13*
X181930000Y-45400000D03*
D12*
%TO.P,U1,15,GPIO11*%
%TO.N,unconnected-(U1-GPIO11-Pad15)*%
X179390000Y-46300000D03*
D13*
X179390000Y-45400000D03*
D12*
%TO.P,U1,16,GPIO12*%
%TO.N,unconnected-(U1-GPIO12-Pad16)*%
X176850000Y-46300000D03*
D13*
X176850000Y-45400000D03*
D12*
%TO.P,U1,17,GPIO13*%
%TO.N,/GP13*%
X174310000Y-46300000D03*
D13*
X174310000Y-45400000D03*
D11*
%TO.P,U1,18,GND*%
%TO.N,GND*%
X171770000Y-46300000D03*
D13*
X171770000Y-45400000D03*
D12*
%TO.P,U1,19,GPIO14*%
%TO.N,/GP14*%
X169230000Y-46300000D03*
D13*
X169230000Y-45400000D03*
D12*
%TO.P,U1,20,GPIO15*%
%TO.N,/GP15*%
X166690000Y-46300000D03*
D13*
X166690000Y-45400000D03*
D12*
%TO.P,U1,21,GPIO16*%
%TO.N,/GP16*%
X166690000Y-64080000D03*
D13*
X166690000Y-64980000D03*
D12*
%TO.P,U1,22,GPIO17*%
%TO.N,unconnected-(U1-GPIO17-Pad22)*%
X169230000Y-64080000D03*
D13*
X169230000Y-64980000D03*
D11*
%TO.P,U1,23,GND*%
%TO.N,GND*%
X171770000Y-64080000D03*
D13*
X171770000Y-64980000D03*
D12*
%TO.P,U1,24,GPIO18*%
%TO.N,/GP18*%
X174310000Y-64080000D03*
D13*
X174310000Y-64980000D03*
D12*
%TO.P,U1,25,GPIO19*%
%TO.N,/GP19*%
X176850000Y-64080000D03*
D13*
X176850000Y-64980000D03*
D12*
%TO.P,U1,26,GPIO20*%
%TO.N,/GP20*%
X179390000Y-64080000D03*
D13*
X179390000Y-64980000D03*
D12*
%TO.P,U1,27,GPIO21*%
%TO.N,/GP21*%
X181930000Y-64080000D03*
D13*
X181930000Y-64980000D03*
D11*
%TO.P,U1,28,GND*%
%TO.N,GND*%
X184470000Y-64080000D03*
D13*
X184470000Y-64980000D03*
D12*
%TO.P,U1,29,GPIO22*%
%TO.N,unconnected-(U1-GPIO22-Pad29)*%
X187010000Y-64080000D03*
D13*
X187010000Y-64980000D03*
D12*
%TO.P,U1,30,RUN*%
%TO.N,unconnected-(U1-RUN-Pad30)*%
X189550000Y-64080000D03*
D13*
X189550000Y-64980000D03*
D12*
%TO.P,U1,31,GPIO26_ADC0*%
%TO.N,unconnected-(U1-GPIO26_ADC0-Pad31)*%
X192090000Y-64080000D03*
D13*
X192090000Y-64980000D03*
D12*
%TO.P,U1,32,GPIO27_ADC1*%
%TO.N,unconnected-(U1-GPIO27_ADC1-Pad32)*%
X194630000Y-64080000D03*
D13*
X194630000Y-64980000D03*
D11*
%TO.P,U1,33,AGND*%
%TO.N,GND*%
X197170000Y-64080000D03*
D13*
X197170000Y-64980000D03*
D12*
%TO.P,U1,34,GPIO28_ADC2*%
%TO.N,unconnected-(U1-GPIO28_ADC2-Pad34)*%
X199710000Y-64080000D03*
D13*
X199710000Y-64980000D03*
D12*
%TO.P,U1,35,ADC_VREF*%
%TO.N,unconnected-(U1-ADC_VREF-Pad35)*%
X202250000Y-64080000D03*
D13*
X202250000Y-64980000D03*
D12*
%TO.P,U1,36,3V3*%
%TO.N,+3.3V*%
X204790000Y-64080000D03*
D13*
X204790000Y-64980000D03*
D12*
%TO.P,U1,37,3V3_EN*%
%TO.N,unconnected-(U1-3V3_EN-Pad37)*%
X207330000Y-64080000D03*
D13*
X207330000Y-64980000D03*
D11*
%TO.P,U1,38,GND*%
%TO.N,GND*%
X209870000Y-64080000D03*
D13*
X209870000Y-64980000D03*
D12*
%TO.P,U1,39,VSYS*%
%TO.N,unconnected-(U1-VSYS-Pad39)*%
X212410000Y-64080000D03*
D13*
X212410000Y-64980000D03*
D12*
%TO.P,U1,40,VBUS*%
%TO.N,unconnected-(U1-VBUS-Pad40)*%
X214950000Y-64080000D03*
D13*
X214950000Y-64980000D03*
D12*
%TO.P,U1,41,SWCLK*%
%TO.N,unconnected-(U1-SWCLK-Pad41)*%
X166920000Y-52650000D03*
D14*
X166020000Y-52650000D03*
D11*
%TO.P,U1,42,GND*%
%TO.N,GND*%
X166920000Y-55190000D03*
D14*
X166020000Y-55190000D03*
D12*
%TO.P,U1,43,SWDIO*%
%TO.N,unconnected-(U1-SWDIO-Pad43)*%
X166920000Y-57730000D03*
D14*
X166020000Y-57730000D03*
%TD*%
D11*
%TO.P,U4,1,VCC*%
%TO.N,+3.3V*%
X84990000Y-46280000D03*
D12*
%TO.P,U4,2,SCL*%
%TO.N,/GP21*%
X84990000Y-48820000D03*
%TO.P,U4,3,SDA*%
%TO.N,/GP20*%
X84990000Y-51360000D03*
%TO.P,U4,4,VSYNC*%
%TO.N,/GP16*%
X84990000Y-53900000D03*
%TO.P,U4,5,HREF*%
%TO.N,/GP19*%
X84990000Y-56440000D03*
%TO.P,U4,6,PCLK*%
%TO.N,/GP18*%
X84990000Y-58980000D03*
%TO.P,U4,7,DO*%
%TO.N,/GP10*%
X84990000Y-61520000D03*
%TO.P,U4,8,GND*%
%TO.N,GND*%
X84990000Y-64060000D03*
%TD*%
D11*
%TO.P,3.3V,1,1*%
%TO.N,+3.3V*%
X91600000Y-46330000D03*
%TD*%
%TO.P,U3,1,GND*%
%TO.N,GND*%
X152900000Y-47980000D03*
D12*
%TO.P,U3,2,RST*%
%TO.N,/GP6*%
X152900000Y-50520000D03*
%TO.P,U3,3,DC*%
%TO.N,/GP7*%
X152900000Y-53060000D03*
%TO.P,U3,4,CS*%
%TO.N,/GP5*%
X152900000Y-55600000D03*
%TO.P,U3,5,CLK*%
%TO.N,/GP2*%
X152900000Y-58140000D03*
%TO.P,U3,6,DIN*%
%TO.N,/GP3*%
X152900000Y-60680000D03*
%TO.P,U3,7,VCC*%
%TO.N,+3.3V*%
X152900000Y-63220000D03*
%TD*%
D15*
%TO.N,GND*%
X123740000Y-50710000D03*
X123760000Y-59540000D03*
%TO.N,/GP14*%
X170340000Y-52560000D03*
%TO.N,/GP15*%
X168890000Y-53850000D03*
%TO.N,/GP13*%
X174300000Y-56000000D03*
%TO.N,/GP2*%
X207300000Y-58950000D03*
%TO.N,/GP3*%
X204840000Y-60650000D03*
%TO.N,/GP7*%
X192040000Y-50690000D03*
%TO.N,/GP21*%
X87720000Y-48740000D03*
X87750000Y-67040000D03*
%TO.N,/GP20*%
X90330000Y-66330000D03*
X90330000Y-51410000D03*
%TO.N,/GP16*%
X99420000Y-64310000D03*
X99410000Y-53870000D03*
%TO.N,/GP19*%
X95280000Y-57760000D03*
X95290000Y-65560000D03*
%TO.N,/GP18*%
X97520000Y-58950000D03*
X97510000Y-65110000D03*
%TD*%
D16*
%TO.N,GND*%
X171770000Y-55720000D02*
X171240000Y-55190000D01*
X197170000Y-46300000D02*
X197170000Y-42340000D01*
X209870000Y-46300000D02*
X209870000Y-64080000D01*
X171770000Y-46300000D02*
X171770000Y-54660000D01*
X171240000Y-55190000D02*
X166920000Y-55190000D01*
X184470000Y-64080000D02*
X184470000Y-46300000D01*
X171770000Y-64080000D02*
X171770000Y-55720000D01*
X184470000Y-46300000D02*
X184470000Y-42600000D01*
X197170000Y-46300000D02*
X197170000Y-64080000D01*
X171770000Y-54660000D02*
X171240000Y-55190000D01*
X184470000Y-64080000D02*
X184470000Y-68670000D01*
X209870000Y-46300000D02*
X209870000Y-42040000D01*
X209870000Y-64080000D02*
X209870000Y-68420000D01*
X166920000Y-55190000D02*
X162660000Y-55190000D01*
X197170000Y-64080000D02*
X197170000Y-68790000D01*
%TO.N,+3.3V*%
X85010000Y-46300000D02*
X84990000Y-46280000D01*
D17*
X91600000Y-46330000D02*
X85040000Y-46330000D01*
X85040000Y-46330000D02*
X84990000Y-46280000D01*
D16*
%TO.N,/GP14*%
X170340000Y-52560000D02*
X170320000Y-52560000D01*
X170320000Y-47390000D02*
X170340000Y-52560000D01*
X169230000Y-46300000D02*
X170320000Y-47390000D01*
%TO.N,/GP15*%
X166690000Y-46300000D02*
X168900000Y-48510000D01*
X165860000Y-46300000D02*
X166690000Y-46300000D01*
X168880000Y-48530000D02*
X168890000Y-53850000D01*
X168890000Y-53850000D02*
X168880000Y-53780000D01*
X168900000Y-48510000D02*
X168880000Y-48530000D01*
%TO.N,/GP13*%
X174300000Y-56000000D02*
X174310000Y-55980000D01*
X174310000Y-46300000D02*
X174300000Y-56000000D01*
%TO.N,/GP2*%
X207300000Y-58950000D02*
X207330000Y-58910000D01*
X207330000Y-46300000D02*
X207300000Y-58950000D01*
%TO.N,/GP3*%
X204840000Y-60650000D02*
X204790000Y-60560000D01*
X204790000Y-46300000D02*
X204840000Y-60650000D01*
%TO.N,/GP7*%
X192090000Y-50640000D02*
X192040000Y-50690000D01*
X192090000Y-46300000D02*
X192090000Y-50640000D01*
%TO.N,/GP21*%
X89210000Y-68500000D02*
X87750000Y-67040000D01*
X179120000Y-68500000D02*
X89740000Y-68500000D01*
X87720000Y-48740000D02*
X87700000Y-48820000D01*
X84990000Y-48820000D02*
X87720000Y-48740000D01*
X181930000Y-64080000D02*
X181930000Y-65690000D01*
X89740000Y-68500000D02*
X89210000Y-68500000D01*
X181930000Y-65690000D02*
X179120000Y-68500000D01*
%TO.N,/GP20*%
X177030000Y-68050000D02*
X92290000Y-68050000D01*
X92290000Y-68050000D02*
X92050000Y-68050000D01*
X92050000Y-68050000D02*
X90330000Y-66330000D01*
X179390000Y-64080000D02*
X179390000Y-65690000D01*
X90330000Y-51410000D02*
X90280000Y-51360000D01*
X84990000Y-51360000D02*
X90330000Y-51410000D01*
X179390000Y-65690000D02*
X177030000Y-68050000D01*
%TO.N,/GP16*%
X99390000Y-53900000D02*
X99360000Y-53900000D01*
X166690000Y-64080000D02*
X165810000Y-64960000D01*
X151560000Y-66610000D02*
X101750000Y-66610000D01*
X101720000Y-66610000D02*
X99420000Y-64310000D01*
X153210000Y-64960000D02*
X151560000Y-66610000D01*
X165810000Y-64960000D02*
X153210000Y-64960000D01*
X99330000Y-53900000D02*
X99410000Y-53870000D01*
X99410000Y-53870000D02*
X99390000Y-53900000D01*
X84990000Y-53900000D02*
X99330000Y-53900000D01*
X101750000Y-66610000D02*
X101720000Y-66610000D01*
%TO.N,/GP19*%
X97620000Y-67600000D02*
X97330000Y-67600000D01*
X176850000Y-65690000D02*
X174940000Y-67600000D01*
X95180000Y-57800000D02*
X95280000Y-57760000D01*
X86350000Y-57800000D02*
X95180000Y-57800000D01*
X95280000Y-57760000D02*
X95260000Y-57800000D01*
X174940000Y-67600000D02*
X97620000Y-67600000D01*
X84990000Y-56440000D02*
X86350000Y-57800000D01*
X97330000Y-67600000D02*
X95290000Y-65560000D01*
X176850000Y-64080000D02*
X176850000Y-65690000D01*
X95260000Y-57800000D02*
X95220000Y-57800000D01*
%TO.N,/GP18*%
X172850000Y-67150000D02*
X99610000Y-67150000D01*
X97520000Y-58950000D02*
X97510000Y-58980000D01*
X99610000Y-67150000D02*
X99550000Y-67150000D01*
X174310000Y-64080000D02*
X174310000Y-65690000D01*
X99550000Y-67150000D02*
X97510000Y-65110000D01*
X174310000Y-65690000D02*
X172850000Y-67150000D01*
X84990000Y-58980000D02*
X97520000Y-58950000D01*
%TO.N,/GP10*%
X103100000Y-44780000D02*
X104870000Y-43010000D01*
X86320000Y-60190000D02*
X99320000Y-60190000D01*
X103100000Y-56410000D02*
X103100000Y-44780000D01*
X84990000Y-61520000D02*
X86320000Y-60190000D01*
X181930000Y-46300000D02*
X181930000Y-44690000D01*
X181930000Y-44690000D02*
X180250000Y-43010000D01*
X99320000Y-60190000D02*
X103100000Y-56410000D01*
X180250000Y-43010000D02*
X104870000Y-43010000D01*
%TD*%
%TA.AperFunction,Conductor*%
%TO.N,GND*%
G36*
X172020000Y-65106000D02*
G01*
X172000315Y-65173039D01*
X171947511Y-65218794D01*
X171896000Y-65230000D01*
X171644000Y-65230000D01*
X171576961Y-65210315D01*
X171531206Y-65157511D01*
X171520000Y-65106000D01*
X171520000Y-64526494D01*
X171624839Y-64574373D01*
X171733527Y-64590000D01*
X171806473Y-64590000D01*
X171915161Y-64574373D01*
X172020000Y-64526494D01*
X172020000Y-65106000D01*
G37*
%TD.AperFunction*%
%TA.AperFunction,Conductor*%
G36*
X171963039Y-45169685D02*
G01*
X172008794Y-45222489D01*
X172020000Y-45274000D01*
X172020000Y-45853505D01*
X171915161Y-45805627D01*
X171806473Y-45790000D01*
X171733527Y-45790000D01*
X171624839Y-45805627D01*
X171520000Y-45853505D01*
X171520000Y-45274000D01*
X171539685Y-45206961D01*
X171592489Y-45161206D01*
X171644000Y-45150000D01*
X171896000Y-45150000D01*
X171963039Y-45169685D01*
G37*
%TD.AperFunction*%
%TA.AperFunction,Conductor*%
G36*
X230892539Y-40990185D02*
G01*
X230938294Y-41042989D01*
X230949500Y-41094500D01*
X230949500Y-69985500D01*
X230929815Y-70052539D01*
X230877011Y-70098294D01*
X230825500Y-70109500D01*
X81624500Y-70109500D01*
X81557461Y-70089815D01*
X81511706Y-70037011D01*
X81500500Y-69985500D01*
X81500500Y-67040000D01*
X86844540Y-67040000D01*
X86864326Y-67228256D01*
X86864327Y-67228259D01*
X86922818Y-67408277D01*
X86922821Y-67408284D01*
X87017467Y-67572216D01*
X87144129Y-67712888D01*
X87297265Y-67824148D01*
X87297270Y-67824151D01*
X87470192Y-67901142D01*
X87470197Y-67901144D01*
X87655354Y-67940500D01*
X87714548Y-67940500D01*
X87781587Y-67960185D01*
X87802229Y-67976819D01*
X88709194Y-68883784D01*
X88719019Y-68896048D01*
X88719240Y-68895866D01*
X88724210Y-68901874D01*
X88773239Y-68947915D01*
X88776036Y-68950626D01*
X88795529Y-68970119D01*
X88798696Y-68972576D01*
X88807575Y-68980160D01*
X88839415Y-69010060D01*
X88839417Y-69010061D01*
X88839418Y-69010062D01*
X88856976Y-69019714D01*
X88873235Y-69030395D01*
X88889064Y-69042673D01*
X88929147Y-69060018D01*
X88939634Y-69065156D01*
X88977904Y-69086195D01*
X88977908Y-69086197D01*
X88977912Y-69086198D01*
X88997311Y-69091179D01*
X89015722Y-69097483D01*
X89034097Y-69105435D01*
X89034100Y-69105435D01*
X89034105Y-69105438D01*
X89077254Y-69112271D01*
X89088680Y-69114638D01*
X89130981Y-69125500D01*
X89151016Y-69125500D01*
X89170413Y-69127026D01*
X89190196Y-69130160D01*
X89233675Y-69126050D01*
X89245344Y-69125500D01*
X89660981Y-69125500D01*
X179037257Y-69125500D01*
X179052877Y-69127224D01*
X179052904Y-69126939D01*
X179060660Y-69127671D01*
X179060667Y-69127673D01*
X179127873Y-69125561D01*
X179131768Y-69125500D01*
X179159346Y-69125500D01*
X179159350Y-69125500D01*
X179163324Y-69124997D01*
X179174963Y-69124080D01*
X179218627Y-69122709D01*
X179237869Y-69117117D01*
X179256912Y-69113174D01*
X179276792Y-69110664D01*
X179317401Y-69094585D01*
X179328444Y-69090803D01*
X179370390Y-69078618D01*
X179387629Y-69068422D01*
X179405103Y-69059862D01*
X179423727Y-69052488D01*
X179423727Y-69052487D01*
X179423732Y-69052486D01*
X179459083Y-69026800D01*
X179468814Y-69020408D01*
X179506420Y-68998170D01*
X179520589Y-68983999D01*
X179535379Y-68971368D01*
X179551587Y-68959594D01*
X179579438Y-68925926D01*
X179587279Y-68917309D01*
X181237771Y-67266818D01*
X181299094Y-67233333D01*
X181325452Y-67230499D01*
X182827871Y-67230499D01*
X182827872Y-67230499D01*
X182887483Y-67224091D01*
X183022331Y-67173796D01*
X183126106Y-67096109D01*
X183191570Y-67071692D01*
X183259843Y-67086543D01*
X183274729Y-67096110D01*
X183377910Y-67173352D01*
X183377913Y-67173354D01*
X183512620Y-67223596D01*
X183512627Y-67223598D01*
X183572155Y-67229999D01*
X183572172Y-67230000D01*
X184220000Y-67230000D01*
X184220000Y-64526494D01*
X184324839Y-64574373D01*
X184433527Y-64590000D01*
X184506473Y-64590000D01*
X184615161Y-64574373D01*
X184720000Y-64526494D01*
X184720000Y-67230000D01*
X185367828Y-67230000D01*
X185367844Y-67229999D01*
X185427372Y-67223598D01*
X185427379Y-67223596D01*
X185562086Y-67173354D01*
X185562089Y-67173352D01*
X185665271Y-67096110D01*
X185730735Y-67071692D01*
X185799008Y-67086543D01*
X185813888Y-67096105D01*
X185837990Y-67114148D01*
X185917668Y-67173795D01*
X185917671Y-67173797D01*
X186052517Y-67224091D01*
X186052516Y-67224091D01*
X186059444Y-67224835D01*
X186112127Y-67230500D01*
X187907872Y-67230499D01*
X187967483Y-67224091D01*
X188102331Y-67173796D01*
X188205690Y-67096421D01*
X188271152Y-67072004D01*
X188339425Y-67086855D01*
X188354303Y-67096416D01*
X188457076Y-67173352D01*
X188457668Y-67173795D01*
X188457671Y-67173797D01*
X188592517Y-67224091D01*
X188592516Y-67224091D01*
X188599444Y-67224835D01*
X188652127Y-67230500D01*
X190447872Y-67230499D01*
X190507483Y-67224091D01*
X190642331Y-67173796D01*
X190745690Y-67096421D01*
X190811152Y-67072004D01*
X190879425Y-67086855D01*
X190894303Y-67096416D01*
X190997076Y-67173352D01*
X190997668Y-67173795D01*
X190997671Y-67173797D01*
X191132517Y-67224091D01*
X191132516Y-67224091D01*
X191139444Y-67224835D01*
X191192127Y-67230500D01*
X192987872Y-67230499D01*
X193047483Y-67224091D01*
X193182331Y-67173796D01*
X193285690Y-67096421D01*
X193351152Y-67072004D01*
X193419425Y-67086855D01*
X193434303Y-67096416D01*
X193537076Y-67173352D01*
X193537668Y-67173795D01*
X193537671Y-67173797D01*
X193672517Y-67224091D01*
X193672516Y-67224091D01*
X193679444Y-67224835D01*
X193732127Y-67230500D01*
X195527872Y-67230499D01*
X195587483Y-67224091D01*
X195722331Y-67173796D01*
X195826106Y-67096109D01*
X195891570Y-67071692D01*
X195959843Y-67086543D01*
X195974729Y-67096110D01*
X196077910Y-67173352D01*
X196077913Y-67173354D01*
X196212620Y-67223596D01*
X196212627Y-67223598D01*
X196272155Y-67229999D01*
X196272172Y-67230000D01*
X196920000Y-67230000D01*
X196920000Y-64526494D01*
X197024839Y-64574373D01*
X197133527Y-64590000D01*
X197206473Y-64590000D01*
X197315161Y-64574373D01*
X197420000Y-64526494D01*
X197420000Y-67230000D01*
X198067828Y-67230000D01*
X198067844Y-67229999D01*
X198127372Y-67223598D01*
X198127379Y-67223596D01*
X198262086Y-67173354D01*
X198262089Y-67173352D01*
X198365271Y-67096110D01*
X198430735Y-67071692D01*
X198499008Y-67086543D01*
X198513888Y-67096105D01*
X198537990Y-67114148D01*
X198617668Y-67173795D01*
X198617671Y-67173797D01*
X198752517Y-67224091D01*
X198752516Y-67224091D01*
X198759444Y-67224835D01*
X198812127Y-67230500D01*
X200607872Y-67230499D01*
X200667483Y-67224091D01*
X200802331Y-67173796D01*
X200905690Y-67096421D01*
X200971152Y-67072004D01*
X201039425Y-67086855D01*
X201054303Y-67096416D01*
X201157076Y-67173352D01*
X201157668Y-67173795D01*
X201157671Y-67173797D01*
X201292517Y-67224091D01*
X201292516Y-67224091D01*
X201299444Y-67224835D01*
X201352127Y-67230500D01*
X203147872Y-67230499D01*
X203207483Y-67224091D01*
X203342331Y-67173796D01*
X203445690Y-67096421D01*
X203511152Y-67072004D01*
X203579425Y-67086855D01*
X203594303Y-67096416D01*
X203697076Y-67173352D01*
X203697668Y-67173795D01*
X203697671Y-67173797D01*
X203832517Y-67224091D01*
X203832516Y-67224091D01*
X203839444Y-67224835D01*
X203892127Y-67230500D01*
X205687872Y-67230499D01*
X205747483Y-67224091D01*
X205882331Y-67173796D01*
X205985690Y-67096421D01*
X206051152Y-67072004D01*
X206119425Y-67086855D01*
X206134303Y-67096416D01*
X206237076Y-67173352D01*
X206237668Y-67173795D01*
X206237671Y-67173797D01*
X206372517Y-67224091D01*
X206372516Y-67224091D01*
X206379444Y-67224835D01*
X206432127Y-67230500D01*
X208227872Y-67230499D01*
X208287483Y-67224091D01*
X208422331Y-67173796D01*
X208526106Y-67096109D01*
X208591570Y-67071692D01*
X208659843Y-67086543D01*
X208674729Y-67096110D01*
X208777910Y-67173352D01*
X208777913Y-67173354D01*
X208912620Y-67223596D01*
X208912627Y-67223598D01*
X208972155Y-67229999D01*
X208972172Y-67230000D01*
X209620000Y-67230000D01*
X209620000Y-64526494D01*
X209724839Y-64574373D01*
X209833527Y-64590000D01*
X209906473Y-64590000D01*
X210015161Y-64574373D01*
X210120000Y-64526494D01*
X210120000Y-67230000D01*
X210767828Y-67230000D01*
X210767844Y-67229999D01*
X210827372Y-67223598D01*
X210827379Y-67223596D01*
X210962086Y-67173354D01*
X210962089Y-67173352D01*
X211065271Y-67096110D01*
X211130735Y-67071692D01*
X211199008Y-67086543D01*
X211213888Y-67096105D01*
X211237990Y-67114148D01*
X211317668Y-67173795D01*
X211317671Y-67173797D01*
X211452517Y-67224091D01*
X211452516Y-67224091D01*
X211459444Y-67224835D01*
X211512127Y-67230500D01*
X213307872Y-67230499D01*
X213367483Y-67224091D01*
X213502331Y-67173796D01*
X213605690Y-67096421D01*
X213671152Y-67072004D01*
X213739425Y-67086855D01*
X213754303Y-67096416D01*
X213857076Y-67173352D01*
X213857668Y-67173795D01*
X213857671Y-67173797D01*
X213992517Y-67224091D01*
X213992516Y-67224091D01*
X213999444Y-67224835D01*
X214052127Y-67230500D01*
X215847872Y-67230499D01*
X215907483Y-67224091D01*
X216042331Y-67173796D01*
X216140910Y-67100000D01*
X218214341Y-67100000D01*
X218234936Y-67335403D01*
X218234938Y-67335413D01*
X218296094Y-67563655D01*
X218296096Y-67563659D01*
X218296097Y-67563663D01*
X218342335Y-67662819D01*
X218395964Y-67777828D01*
X218395965Y-67777830D01*
X218531505Y-67971402D01*
X218698597Y-68138494D01*
X218892169Y-68274034D01*
X218892171Y-68274035D01*
X219106337Y-68373903D01*
X219334592Y-68435063D01*
X219511032Y-68450499D01*
X219511033Y-68450500D01*
X219511034Y-68450500D01*
X219628967Y-68450500D01*
X219628967Y-68450499D01*
X219805408Y-68435063D01*
X220033663Y-68373903D01*
X220247829Y-68274035D01*
X220441401Y-68138495D01*
X220608495Y-67971401D01*
X220744035Y-67777830D01*
X220843903Y-67563663D01*
X220905063Y-67335408D01*
X220925659Y-67100000D01*
X220924569Y-67087547D01*
X220914651Y-66974184D01*
X220905063Y-66864592D01*
X220843903Y-66636337D01*
X220744035Y-66422171D01*
X220744034Y-66422169D01*
X220608494Y-66228597D01*
X220441402Y-66061505D01*
X220247830Y-65925965D01*
X220247828Y-65925964D01*
X220140746Y-65876031D01*
X220033663Y-65826097D01*
X220033659Y-65826096D01*
X220033655Y-65826094D01*
X219805413Y-65764938D01*
X219805403Y-65764936D01*
X219628967Y-65749500D01*
X219628966Y-65749500D01*
X219511034Y-65749500D01*
X219511033Y-65749500D01*
X219334596Y-65764936D01*
X219334586Y-65764938D01*
X219106344Y-65826094D01*
X219106335Y-65826098D01*
X218892171Y-65925964D01*
X218892169Y-65925965D01*
X218698597Y-66061505D01*
X218531506Y-66228597D01*
X218531501Y-66228604D01*
X218395967Y-66422165D01*
X218395965Y-66422169D01*
X218296098Y-66636335D01*
X218296094Y-66636344D01*
X218234938Y-66864586D01*
X218234936Y-66864596D01*
X218214341Y-67099999D01*
X218214341Y-67100000D01*
X216140910Y-67100000D01*
X216157546Y-67087546D01*
X216243796Y-66972331D01*
X216294091Y-66837483D01*
X216300500Y-66777873D01*
X216300499Y-64144381D01*
X216300971Y-64133578D01*
X216301514Y-64127379D01*
X216305659Y-64080000D01*
X216304595Y-64067844D01*
X216300971Y-64026418D01*
X216300499Y-64015610D01*
X216300499Y-63182129D01*
X216300498Y-63182123D01*
X216300497Y-63182116D01*
X216294091Y-63122517D01*
X216284988Y-63098111D01*
X216243797Y-62987671D01*
X216243793Y-62987664D01*
X216157547Y-62872455D01*
X216157544Y-62872452D01*
X216042335Y-62786206D01*
X216042328Y-62786202D01*
X215907482Y-62735908D01*
X215907483Y-62735908D01*
X215847883Y-62729501D01*
X215847881Y-62729500D01*
X215847873Y-62729500D01*
X215847865Y-62729500D01*
X215014383Y-62729500D01*
X215003576Y-62729028D01*
X214950002Y-62724341D01*
X214949999Y-62724341D01*
X214914865Y-62727414D01*
X214896421Y-62729028D01*
X214885616Y-62729500D01*
X214052129Y-62729500D01*
X214052123Y-62729501D01*
X213992516Y-62735908D01*
X213857671Y-62786202D01*
X213857669Y-62786203D01*
X213754311Y-62863578D01*
X213688847Y-62887995D01*
X213620574Y-62873144D01*
X213605689Y-62863578D01*
X213502330Y-62786203D01*
X213502328Y-62786202D01*
X213367482Y-62735908D01*
X213367483Y-62735908D01*
X213307883Y-62729501D01*
X213307881Y-62729500D01*
X213307873Y-62729500D01*
X213307865Y-62729500D01*
X212474383Y-62729500D01*
X212463576Y-62729028D01*
X212410002Y-62724341D01*
X212409999Y-62724341D01*
X212374865Y-62727414D01*
X212356421Y-62729028D01*
X212345616Y-62729500D01*
X211512129Y-62729500D01*
X211512123Y-62729501D01*
X211452516Y-62735908D01*
X211317671Y-62786202D01*
X211317669Y-62786204D01*
X211213894Y-62863890D01*
X211148430Y-62888307D01*
X211080157Y-62873456D01*
X211065272Y-62863890D01*
X210962088Y-62786646D01*
X210962086Y-62786645D01*
X210827379Y-62736403D01*
X210827372Y-62736401D01*
X210767844Y-62730000D01*
X210120000Y-62730000D01*
X210120000Y-63633505D01*
X210015161Y-63585627D01*
X209906473Y-63570000D01*
X209833527Y-63570000D01*
X209724839Y-63585627D01*
X209620000Y-63633505D01*
X209620000Y-62730000D01*
X208972155Y-62730000D01*
X208912627Y-62736401D01*
X208912620Y-62736403D01*
X208777913Y-62786645D01*
X208777910Y-62786647D01*
X208674727Y-62863890D01*
X208609262Y-62888307D01*
X208540989Y-62873455D01*
X208526105Y-62863889D01*
X208422335Y-62786206D01*
X208422328Y-62786202D01*
X208287482Y-62735908D01*
X208287483Y-62735908D01*
X208227883Y-62729501D01*
X208227881Y-62729500D01*
X208227873Y-62729500D01*
X208227865Y-62729500D01*
X207394383Y-62729500D01*
X207383576Y-62729028D01*
X207330002Y-62724341D01*
X207329999Y-62724341D01*
X207294865Y-62727414D01*
X207276421Y-62729028D01*
X207265616Y-62729500D01*
X206432129Y-62729500D01*
X206432123Y-62729501D01*
X206372516Y-62735908D01*
X206237671Y-62786202D01*
X206237669Y-62786203D01*
X206134311Y-62863578D01*
X206068847Y-62887995D01*
X206000574Y-62873144D01*
X205985689Y-62863578D01*
X205882330Y-62786203D01*
X205882328Y-62786202D01*
X205747482Y-62735908D01*
X205747483Y-62735908D01*
X205687883Y-62729501D01*
X205687881Y-62729500D01*
X205687873Y-62729500D01*
X205687865Y-62729500D01*
X204854383Y-62729500D01*
X204843576Y-62729028D01*
X204790002Y-62724341D01*
X204789999Y-62724341D01*
X204754865Y-62727414D01*
X204736421Y-62729028D01*
X204725616Y-62729500D01*
X203892129Y-62729500D01*
X203892123Y-62729501D01*
X203832516Y-62735908D01*
X203697671Y-62786202D01*
X203697669Y-62786203D01*
X203594311Y-62863578D01*
X203528847Y-62887995D01*
X203460574Y-62873144D01*
X203445689Y-62863578D01*
X203342330Y-62786203D01*
X203342328Y-62786202D01*
X203207482Y-62735908D01*
X203207483Y-62735908D01*
X203147883Y-62729501D01*
X203147881Y-62729500D01*
X203147873Y-62729500D01*
X203147865Y-62729500D01*
X202314383Y-62729500D01*
X202303576Y-62729028D01*
X202250002Y-62724341D01*
X202249999Y-62724341D01*
X202214865Y-62727414D01*
X202196421Y-62729028D01*
X202185616Y-62729500D01*
X201352129Y-62729500D01*
X201352123Y-62729501D01*
X201292516Y-62735908D01*
X201157671Y-62786202D01*
X201157669Y-62786203D01*
X201054311Y-62863578D01*
X200988847Y-62887995D01*
X200920574Y-62873144D01*
X200905689Y-62863578D01*
X200802330Y-62786203D01*
X200802328Y-62786202D01*
X200667482Y-62735908D01*
X200667483Y-62735908D01*
X200607883Y-62729501D01*
X200607881Y-62729500D01*
X200607873Y-62729500D01*
X200607865Y-62729500D01*
X199774383Y-62729500D01*
X199763576Y-62729028D01*
X199710002Y-62724341D01*
X199709999Y-62724341D01*
X199674865Y-62727414D01*
X199656421Y-62729028D01*
X199645616Y-62729500D01*
X198812129Y-62729500D01*
X198812123Y-62729501D01*
X198752516Y-62735908D01*
X198617671Y-62786202D01*
X198617669Y-62786204D01*
X198513894Y-62863890D01*
X198448430Y-62888307D01*
X198380157Y-62873456D01*
X198365272Y-62863890D01*
X198262088Y-62786646D01*
X198262086Y-62786645D01*
X198127379Y-62736403D01*
X198127372Y-62736401D01*
X198067844Y-62730000D01*
X197420000Y-62730000D01*
X197420000Y-63633505D01*
X197315161Y-63585627D01*
X197206473Y-63570000D01*
X197133527Y-63570000D01*
X197024839Y-63585627D01*
X196920000Y-63633505D01*
X196920000Y-62730000D01*
X196272155Y-62730000D01*
X196212627Y-62736401D01*
X196212620Y-62736403D01*
X196077913Y-62786645D01*
X196077910Y-62786647D01*
X195974727Y-62863890D01*
X195909262Y-62888307D01*
X195840989Y-62873455D01*
X195826105Y-62863889D01*
X195722335Y-62786206D01*
X195722328Y-62786202D01*
X195587482Y-62735908D01*
X195587483Y-62735908D01*
X195527883Y-62729501D01*
X195527881Y-62729500D01*
X195527873Y-62729500D01*
X195527865Y-62729500D01*
X194694383Y-62729500D01*
X194683576Y-62729028D01*
X194630002Y-62724341D01*
X194629999Y-62724341D01*
X194594865Y-62727414D01*
X194576421Y-62729028D01*
X194565616Y-62729500D01*
X193732129Y-62729500D01*
X193732123Y-62729501D01*
X193672516Y-62735908D01*
X193537671Y-62786202D01*
X193537669Y-62786203D01*
X193434311Y-62863578D01*
X193368847Y-62887995D01*
X193300574Y-62873144D01*
X193285689Y-62863578D01*
X193182330Y-62786203D01*
X193182328Y-62786202D01*
X193047482Y-62735908D01*
X193047483Y-62735908D01*
X192987883Y-62729501D01*
X192987881Y-62729500D01*
X192987873Y-62729500D01*
X192987865Y-62729500D01*
X192154383Y-62729500D01*
X192143576Y-62729028D01*
X192090002Y-62724341D01*
X192089999Y-62724341D01*
X192054865Y-62727414D01*
X192036421Y-62729028D01*
X192025616Y-62729500D01*
X191192129Y-62729500D01*
X191192123Y-62729501D01*
X191132516Y-62735908D01*
X190997671Y-62786202D01*
X190997669Y-62786203D01*
X190894311Y-62863578D01*
X190828847Y-62887995D01*
X190760574Y-62873144D01*
X190745689Y-62863578D01*
X190642330Y-62786203D01*
X190642328Y-62786202D01*
X190507482Y-62735908D01*
X190507483Y-62735908D01*
X190447883Y-62729501D01*
X190447881Y-62729500D01*
X190447873Y-62729500D01*
X190447865Y-62729500D01*
X189614383Y-62729500D01*
X189603576Y-62729028D01*
X189550002Y-62724341D01*
X189549999Y-62724341D01*
X189514865Y-62727414D01*
X189496421Y-62729028D01*
X189485616Y-62729500D01*
X188652129Y-62729500D01*
X188652123Y-62729501D01*
X188592516Y-62735908D01*
X188457671Y-62786202D01*
X188457669Y-62786203D01*
X188354311Y-62863578D01*
X188288847Y-62887995D01*
X188220574Y-62873144D01*
X188205689Y-62863578D01*
X188102330Y-62786203D01*
X188102328Y-62786202D01*
X187967482Y-62735908D01*
X187967483Y-62735908D01*
X187907883Y-62729501D01*
X187907881Y-62729500D01*
X187907873Y-62729500D01*
X187907865Y-62729500D01*
X187074383Y-62729500D01*
X187063576Y-62729028D01*
X187010002Y-62724341D01*
X187009999Y-62724341D01*
X186974865Y-62727414D01*
X186956421Y-62729028D01*
X186945616Y-62729500D01*
X186112129Y-62729500D01*
X186112123Y-62729501D01*
X186052516Y-62735908D01*
X185917671Y-62786202D01*
X185917669Y-62786204D01*
X185813894Y-62863890D01*
X185748430Y-62888307D01*
X185680157Y-62873456D01*
X185665272Y-62863890D01*
X185562088Y-62786646D01*
X185562086Y-62786645D01*
X185427379Y-62736403D01*
X185427372Y-62736401D01*
X185367844Y-62730000D01*
X184720000Y-62730000D01*
X184720000Y-63633505D01*
X184615161Y-63585627D01*
X184506473Y-63570000D01*
X184433527Y-63570000D01*
X184324839Y-63585627D01*
X184220000Y-63633505D01*
X184220000Y-62730000D01*
X183572155Y-62730000D01*
X183512627Y-62736401D01*
X183512620Y-62736403D01*
X183377913Y-62786645D01*
X183377910Y-62786647D01*
X183274727Y-62863890D01*
X183209262Y-62888307D01*
X183140989Y-62873455D01*
X183126105Y-62863889D01*
X183022335Y-62786206D01*
X183022328Y-62786202D01*
X182887482Y-62735908D01*
X182887483Y-62735908D01*
X182827883Y-62729501D01*
X182827881Y-62729500D01*
X182827873Y-62729500D01*
X182827865Y-62729500D01*
X181994383Y-62729500D01*
X181983576Y-62729028D01*
X181930002Y-62724341D01*
X181929999Y-62724341D01*
X181894865Y-62727414D01*
X181876421Y-62729028D01*
X181865616Y-62729500D01*
X181032129Y-62729500D01*
X181032123Y-62729501D01*
X180972516Y-62735908D01*
X180837671Y-62786202D01*
X180837669Y-62786203D01*
X180734311Y-62863578D01*
X180668847Y-62887995D01*
X180600574Y-62873144D01*
X180585689Y-62863578D01*
X180482330Y-62786203D01*
X180482328Y-62786202D01*
X180347482Y-62735908D01*
X180347483Y-62735908D01*
X180287883Y-62729501D01*
X180287881Y-62729500D01*
X180287873Y-62729500D01*
X180287865Y-62729500D01*
X179454383Y-62729500D01*
X179443576Y-62729028D01*
X179390002Y-62724341D01*
X179389999Y-62724341D01*
X179354865Y-62727414D01*
X179336421Y-62729028D01*
X179325616Y-62729500D01*
X178492129Y-62729500D01*
X178492123Y-62729501D01*
X178432516Y-62735908D01*
X178297671Y-62786202D01*
X178297669Y-62786203D01*
X178194311Y-62863578D01*
X178128847Y-62887995D01*
X178060574Y-62873144D01*
X178045689Y-62863578D01*
X177942330Y-62786203D01*
X177942328Y-62786202D01*
X177807482Y-62735908D01*
X177807483Y-62735908D01*
X177747883Y-62729501D01*
X177747881Y-62729500D01*
X177747873Y-62729500D01*
X177747865Y-62729500D01*
X176914383Y-62729500D01*
X176903576Y-62729028D01*
X176850002Y-62724341D01*
X176849999Y-62724341D01*
X176814865Y-62727414D01*
X176796421Y-62729028D01*
X176785616Y-62729500D01*
X175952129Y-62729500D01*
X175952123Y-62729501D01*
X175892516Y-62735908D01*
X175757671Y-62786202D01*
X175757669Y-62786203D01*
X175654311Y-62863578D01*
X175588847Y-62887995D01*
X175520574Y-62873144D01*
X175505689Y-62863578D01*
X175402330Y-62786203D01*
X175402328Y-62786202D01*
X175267482Y-62735908D01*
X175267483Y-62735908D01*
X175207883Y-62729501D01*
X175207881Y-62729500D01*
X175207873Y-62729500D01*
X175207865Y-62729500D01*
X174374383Y-62729500D01*
X174363576Y-62729028D01*
X174310002Y-62724341D01*
X174309999Y-62724341D01*
X174274865Y-62727414D01*
X174256421Y-62729028D01*
X174245616Y-62729500D01*
X173412129Y-62729500D01*
X173412123Y-62729501D01*
X173352516Y-62735908D01*
X173217671Y-62786202D01*
X173217669Y-62786204D01*
X173113894Y-62863890D01*
X173048430Y-62888307D01*
X172980157Y-62873456D01*
X172965272Y-62863890D01*
X172862088Y-62786646D01*
X172862086Y-62786645D01*
X172727379Y-62736403D01*
X172727372Y-62736401D01*
X172667844Y-62730000D01*
X172020000Y-62730000D01*
X172020000Y-63633505D01*
X171915161Y-63585627D01*
X171806473Y-63570000D01*
X171733527Y-63570000D01*
X171624839Y-63585627D01*
X171520000Y-63633505D01*
X171520000Y-62730000D01*
X170872155Y-62730000D01*
X170812627Y-62736401D01*
X170812620Y-62736403D01*
X170677913Y-62786645D01*
X170677910Y-62786647D01*
X170574727Y-62863890D01*
X170509262Y-62888307D01*
X170440989Y-62873455D01*
X170426105Y-62863889D01*
X170322335Y-62786206D01*
X170322328Y-62786202D01*
X170187482Y-62735908D01*
X170187483Y-62735908D01*
X170127883Y-62729501D01*
X170127881Y-62729500D01*
X170127873Y-62729500D01*
X170127865Y-62729500D01*
X169294383Y-62729500D01*
X169283576Y-62729028D01*
X169230002Y-62724341D01*
X169229999Y-62724341D01*
X169194865Y-62727414D01*
X169176421Y-62729028D01*
X169165616Y-62729500D01*
X168332129Y-62729500D01*
X168332123Y-62729501D01*
X168272516Y-62735908D01*
X168137671Y-62786202D01*
X168137669Y-62786203D01*
X168034311Y-62863578D01*
X167968847Y-62887995D01*
X167900574Y-62873144D01*
X167885689Y-62863578D01*
X167782330Y-62786203D01*
X167782328Y-62786202D01*
X167647482Y-62735908D01*
X167647483Y-62735908D01*
X167587883Y-62729501D01*
X167587881Y-62729500D01*
X167587873Y-62729500D01*
X167587865Y-62729500D01*
X166754383Y-62729500D01*
X166743576Y-62729028D01*
X166690002Y-62724341D01*
X166689999Y-62724341D01*
X166654865Y-62727414D01*
X166636421Y-62729028D01*
X166625616Y-62729500D01*
X165792129Y-62729500D01*
X165792123Y-62729501D01*
X165732516Y-62735908D01*
X165597671Y-62786202D01*
X165597664Y-62786206D01*
X165482455Y-62872452D01*
X165482452Y-62872455D01*
X165396206Y-62987664D01*
X165396202Y-62987671D01*
X165345908Y-63122517D01*
X165341486Y-63163655D01*
X165339501Y-63182123D01*
X165339500Y-63182135D01*
X165339500Y-64015618D01*
X165339028Y-64026425D01*
X165334341Y-64079997D01*
X165334341Y-64080001D01*
X165339028Y-64133574D01*
X165339500Y-64144381D01*
X165339500Y-64210500D01*
X165319815Y-64277539D01*
X165267011Y-64323294D01*
X165215500Y-64334500D01*
X153994758Y-64334500D01*
X153927719Y-64314815D01*
X153881964Y-64262011D01*
X153872020Y-64192853D01*
X153901045Y-64129297D01*
X153907077Y-64122819D01*
X153908156Y-64121740D01*
X153938495Y-64091401D01*
X154074035Y-63897830D01*
X154173903Y-63683663D01*
X154235063Y-63455408D01*
X154255659Y-63220000D01*
X154235063Y-62984592D01*
X154181906Y-62786204D01*
X154173905Y-62756344D01*
X154173904Y-62756343D01*
X154173903Y-62756337D01*
X154147632Y-62700000D01*
X224474341Y-62700000D01*
X224494936Y-62935403D01*
X224494938Y-62935413D01*
X224556094Y-63163655D01*
X224556096Y-63163659D01*
X224556097Y-63163663D01*
X224649088Y-63363083D01*
X224655965Y-63377830D01*
X224655967Y-63377834D01*
X224764281Y-63532521D01*
X224791505Y-63571401D01*
X224958599Y-63738495D01*
X225014711Y-63777785D01*
X225152165Y-63874032D01*
X225152167Y-63874033D01*
X225152170Y-63874035D01*
X225366337Y-63973903D01*
X225594592Y-64035063D01*
X225782918Y-64051539D01*
X225829999Y-64055659D01*
X225830000Y-64055659D01*
X225830001Y-64055659D01*
X225869234Y-64052226D01*
X226065408Y-64035063D01*
X226293663Y-63973903D01*
X226507830Y-63874035D01*
X226701401Y-63738495D01*
X226868495Y-63571401D01*
X227004035Y-63377830D01*
X227103903Y-63163663D01*
X227165063Y-62935408D01*
X227185659Y-62700000D01*
X227165063Y-62464592D01*
X227103903Y-62236337D01*
X227004035Y-62022171D01*
X226977073Y-61983664D01*
X226868494Y-61828597D01*
X226701402Y-61661506D01*
X226701396Y-61661501D01*
X226515842Y-61531575D01*
X226472217Y-61476998D01*
X226465023Y-61407500D01*
X226496546Y-61345145D01*
X226515842Y-61328425D01*
X226603083Y-61267338D01*
X226701401Y-61198495D01*
X226868495Y-61031401D01*
X227004035Y-60837830D01*
X227103903Y-60623663D01*
X227165063Y-60395408D01*
X227185659Y-60160000D01*
X227181965Y-60117784D01*
X227173279Y-60018498D01*
X227165063Y-59924592D01*
X227103903Y-59696337D01*
X227004035Y-59482171D01*
X226977073Y-59443664D01*
X226868494Y-59288597D01*
X226701402Y-59121506D01*
X226701396Y-59121501D01*
X226515842Y-58991575D01*
X226472217Y-58936998D01*
X226465023Y-58867500D01*
X226496546Y-58805145D01*
X226515842Y-58788425D01*
X226546323Y-58767082D01*
X226701401Y-58658495D01*
X226868495Y-58491401D01*
X227004035Y-58297830D01*
X227103903Y-58083663D01*
X227165063Y-57855408D01*
X227185659Y-57620000D01*
X227185221Y-57614999D01*
X227178211Y-57534872D01*
X227165063Y-57384592D01*
X227103903Y-57156337D01*
X227004035Y-56942171D01*
X226998469Y-56934221D01*
X226868494Y-56748597D01*
X226701402Y-56581506D01*
X226701396Y-56581501D01*
X226515842Y-56451575D01*
X226472217Y-56396998D01*
X226465023Y-56327500D01*
X226496546Y-56265145D01*
X226515842Y-56248425D01*
X226578450Y-56204586D01*
X226701401Y-56118495D01*
X226868495Y-55951401D01*
X227004035Y-55757830D01*
X227103903Y-55543663D01*
X227165063Y-55315408D01*
X227185659Y-55080000D01*
X227165063Y-54844592D01*
X227108675Y-54634148D01*
X227103905Y-54616344D01*
X227103904Y-54616343D01*
X227103903Y-54616337D01*
X227004035Y-54402171D01*
X226990063Y-54382216D01*
X226868494Y-54208597D01*
X226701402Y-54041506D01*
X226701396Y-54041501D01*
X226515842Y-53911575D01*
X226472217Y-53856998D01*
X226465023Y-53787500D01*
X226496546Y-53725145D01*
X226515842Y-53708425D01*
X226611466Y-53641468D01*
X226701401Y-53578495D01*
X226868495Y-53411401D01*
X227004035Y-53217830D01*
X227103903Y-53003663D01*
X227165063Y-52775408D01*
X227185659Y-52540000D01*
X227165063Y-52304592D01*
X227103903Y-52076337D01*
X227004035Y-51862171D01*
X226983057Y-51832210D01*
X226868494Y-51668597D01*
X226701402Y-51501506D01*
X226701396Y-51501501D01*
X226515842Y-51371575D01*
X226472217Y-51316998D01*
X226465023Y-51247500D01*
X226496546Y-51185145D01*
X226515842Y-51168425D01*
X226552958Y-51142436D01*
X226701401Y-51038495D01*
X226868495Y-50871401D01*
X227004035Y-50677830D01*
X227103903Y-50463663D01*
X227165063Y-50235408D01*
X227185659Y-50000000D01*
X227165063Y-49764592D01*
X227103903Y-49536337D01*
X227004035Y-49322171D01*
X226977072Y-49283664D01*
X226868496Y-49128600D01*
X226811982Y-49072086D01*
X226746179Y-49006283D01*
X226712696Y-48944963D01*
X226717680Y-48875271D01*
X226759551Y-48819337D01*
X226790529Y-48802422D01*
X226922086Y-48753354D01*
X226922093Y-48753350D01*
X227037187Y-48667190D01*
X227037190Y-48667187D01*
X227123350Y-48552093D01*
X227123354Y-48552086D01*
X227173596Y-48417379D01*
X227173598Y-48417372D01*
X227179999Y-48357844D01*
X227180000Y-48357827D01*
X227180000Y-47710000D01*
X226263686Y-47710000D01*
X226289493Y-47669844D01*
X226330000Y-47531889D01*
X226330000Y-47388111D01*
X226289493Y-47250156D01*
X226263686Y-47210000D01*
X227180000Y-47210000D01*
X227180000Y-46562172D01*
X227179999Y-46562155D01*
X227173598Y-46502627D01*
X227173596Y-46502620D01*
X227123354Y-46367913D01*
X227123350Y-46367906D01*
X227037190Y-46252812D01*
X227037187Y-46252809D01*
X226922093Y-46166649D01*
X226922086Y-46166645D01*
X226787379Y-46116403D01*
X226787372Y-46116401D01*
X226727844Y-46110000D01*
X226080000Y-46110000D01*
X226080000Y-47024498D01*
X225972315Y-46975320D01*
X225865763Y-46960000D01*
X225794237Y-46960000D01*
X225687685Y-46975320D01*
X225580000Y-47024498D01*
X225580000Y-46110000D01*
X224932155Y-46110000D01*
X224872627Y-46116401D01*
X224872620Y-46116403D01*
X224737913Y-46166645D01*
X224737906Y-46166649D01*
X224622812Y-46252809D01*
X224622809Y-46252812D01*
X224536649Y-46367906D01*
X224536645Y-46367913D01*
X224486403Y-46502620D01*
X224486401Y-46502627D01*
X224480000Y-46562155D01*
X224480000Y-47210000D01*
X225396314Y-47210000D01*
X225370507Y-47250156D01*
X225330000Y-47388111D01*
X225330000Y-47531889D01*
X225370507Y-47669844D01*
X225396314Y-47710000D01*
X224480000Y-47710000D01*
X224480000Y-48357844D01*
X224486401Y-48417372D01*
X224486403Y-48417379D01*
X224536645Y-48552086D01*
X224536649Y-48552093D01*
X224622809Y-48667187D01*
X224622812Y-48667190D01*
X224737906Y-48753350D01*
X224737913Y-48753354D01*
X224869470Y-48802421D01*
X224925403Y-48844292D01*
X224949821Y-48909756D01*
X224934970Y-48978029D01*
X224913819Y-49006284D01*
X224791503Y-49128600D01*
X224655965Y-49322169D01*
X224655964Y-49322171D01*
X224556098Y-49536335D01*
X224556094Y-49536344D01*
X224494938Y-49764586D01*
X224494936Y-49764596D01*
X224474341Y-49999999D01*
X224474341Y-50000000D01*
X224494936Y-50235403D01*
X224494938Y-50235413D01*
X224556094Y-50463655D01*
X224556096Y-50463659D01*
X224556097Y-50463663D01*
X224595824Y-50548857D01*
X224655965Y-50677830D01*
X224655967Y-50677834D01*
X224791501Y-50871395D01*
X224791506Y-50871402D01*
X224958597Y-51038493D01*
X224958603Y-51038498D01*
X225144158Y-51168425D01*
X225187783Y-51223002D01*
X225194977Y-51292500D01*
X225163454Y-51354855D01*
X225144158Y-51371575D01*
X224958597Y-51501505D01*
X224791505Y-51668597D01*
X224655965Y-51862169D01*
X224655964Y-51862171D01*
X224556098Y-52076335D01*
X224556094Y-52076344D01*
X224494938Y-52304586D01*
X224494936Y-52304596D01*
X224474341Y-52539999D01*
X224474341Y-52540000D01*
X224494936Y-52775403D01*
X224494938Y-52775413D01*
X224556094Y-53003655D01*
X224556096Y-53003659D01*
X224556097Y-53003663D01*
X224635818Y-53174624D01*
X224655965Y-53217830D01*
X224655967Y-53217834D01*
X224745449Y-53345626D01*
X224785660Y-53403054D01*
X224791501Y-53411395D01*
X224791506Y-53411402D01*
X224958597Y-53578493D01*
X224958603Y-53578498D01*
X225144158Y-53708425D01*
X225187783Y-53763002D01*
X225194977Y-53832500D01*
X225163454Y-53894855D01*
X225144158Y-53911575D01*
X224958597Y-54041505D01*
X224791505Y-54208597D01*
X224655965Y-54402169D01*
X224655964Y-54402171D01*
X224556098Y-54616335D01*
X224556094Y-54616344D01*
X224494938Y-54844586D01*
X224494936Y-54844596D01*
X224474341Y-55079999D01*
X224474341Y-55080000D01*
X224494936Y-55315403D01*
X224494938Y-55315413D01*
X224556094Y-55543655D01*
X224556096Y-55543659D01*
X224556097Y-55543663D01*
X224628998Y-55700000D01*
X224655965Y-55757830D01*
X224655967Y-55757834D01*
X224791501Y-55951395D01*
X224791506Y-55951402D01*
X224958597Y-56118493D01*
X224958603Y-56118498D01*
X225144158Y-56248425D01*
X225187783Y-56303002D01*
X225194977Y-56372500D01*
X225163454Y-56434855D01*
X225144158Y-56451575D01*
X224958597Y-56581505D01*
X224791505Y-56748597D01*
X224655965Y-56942169D01*
X224655964Y-56942171D01*
X224556098Y-57156335D01*
X224556094Y-57156344D01*
X224494938Y-57384586D01*
X224494936Y-57384596D01*
X224474341Y-57619999D01*
X224474341Y-57620000D01*
X224494936Y-57855403D01*
X224494938Y-57855413D01*
X224556094Y-58083655D01*
X224556096Y-58083659D01*
X224556097Y-58083663D01*
X224630229Y-58242639D01*
X224655965Y-58297830D01*
X224655967Y-58297834D01*
X224791501Y-58491395D01*
X224791506Y-58491402D01*
X224958597Y-58658493D01*
X224958603Y-58658498D01*
X225144158Y-58788425D01*
X225187783Y-58843002D01*
X225194977Y-58912500D01*
X225163454Y-58974855D01*
X225144158Y-58991575D01*
X224958597Y-59121505D01*
X224791505Y-59288597D01*
X224655965Y-59482169D01*
X224655964Y-59482171D01*
X224556098Y-59696335D01*
X224556094Y-59696344D01*
X224494938Y-59924586D01*
X224494936Y-59924596D01*
X224474341Y-60159999D01*
X224474341Y-60160000D01*
X224494936Y-60395403D01*
X224494938Y-60395413D01*
X224556094Y-60623655D01*
X224556096Y-60623659D01*
X224556097Y-60623663D01*
X224642765Y-60809522D01*
X224655965Y-60837830D01*
X224655967Y-60837834D01*
X224710289Y-60915413D01*
X224782320Y-61018284D01*
X224791501Y-61031395D01*
X224791506Y-61031402D01*
X224958597Y-61198493D01*
X224958603Y-61198498D01*
X225144158Y-61328425D01*
X225187783Y-61383002D01*
X225194977Y-61452500D01*
X225163454Y-61514855D01*
X225144158Y-61531575D01*
X224958597Y-61661505D01*
X224791505Y-61828597D01*
X224655965Y-62022169D01*
X224655964Y-62022171D01*
X224556098Y-62236335D01*
X224556094Y-62236344D01*
X224494938Y-62464586D01*
X224494936Y-62464596D01*
X224474341Y-62699999D01*
X224474341Y-62700000D01*
X154147632Y-62700000D01*
X154074035Y-62542171D01*
X153992684Y-62425988D01*
X153938494Y-62348597D01*
X153771402Y-62181506D01*
X153771396Y-62181501D01*
X153585842Y-62051575D01*
X153542217Y-61996998D01*
X153535023Y-61927500D01*
X153566546Y-61865145D01*
X153585842Y-61848425D01*
X153629753Y-61817678D01*
X153771401Y-61718495D01*
X153938495Y-61551401D01*
X154074035Y-61357830D01*
X154173903Y-61143663D01*
X154235063Y-60915408D01*
X154255659Y-60680000D01*
X154235063Y-60444592D01*
X154182923Y-60250000D01*
X154173905Y-60216344D01*
X154173904Y-60216343D01*
X154173903Y-60216337D01*
X154074035Y-60002171D01*
X154073514Y-60001426D01*
X153938494Y-59808597D01*
X153771402Y-59641506D01*
X153771396Y-59641501D01*
X153585842Y-59511575D01*
X153542217Y-59456998D01*
X153535023Y-59387500D01*
X153566546Y-59325145D01*
X153585842Y-59308425D01*
X153631755Y-59276276D01*
X153771401Y-59178495D01*
X153938495Y-59011401D01*
X154074035Y-58817830D01*
X154173903Y-58603663D01*
X154235063Y-58375408D01*
X154255659Y-58140000D01*
X154235063Y-57904592D01*
X154178899Y-57694983D01*
X154173905Y-57676344D01*
X154173904Y-57676343D01*
X154173903Y-57676337D01*
X154074035Y-57462171D01*
X154071599Y-57458691D01*
X153938494Y-57268597D01*
X153771402Y-57101506D01*
X153771396Y-57101501D01*
X153585842Y-56971575D01*
X153542217Y-56916998D01*
X153535023Y-56847500D01*
X153566546Y-56785145D01*
X153585842Y-56768425D01*
X153625500Y-56740656D01*
X153771401Y-56638495D01*
X153938495Y-56471401D01*
X154074035Y-56277830D01*
X154173903Y-56063663D01*
X154235063Y-55835408D01*
X154255659Y-55600000D01*
X154235063Y-55364592D01*
X154173903Y-55136337D01*
X154074035Y-54922171D01*
X153968466Y-54771401D01*
X153938494Y-54728597D01*
X153771402Y-54561506D01*
X153771396Y-54561501D01*
X153585842Y-54431575D01*
X153542217Y-54376998D01*
X153535023Y-54307500D01*
X153566546Y-54245145D01*
X153585842Y-54228425D01*
X153614159Y-54208597D01*
X153771401Y-54098495D01*
X153938495Y-53931401D01*
X154074035Y-53737830D01*
X154173903Y-53523663D01*
X154235063Y-53295408D01*
X154255659Y-53060000D01*
X154235063Y-52824592D01*
X154178058Y-52611845D01*
X154173905Y-52596344D01*
X154173904Y-52596343D01*
X154173903Y-52596337D01*
X154074035Y-52382171D01*
X154066732Y-52371740D01*
X153938494Y-52188597D01*
X153771402Y-52021506D01*
X153771396Y-52021501D01*
X153585842Y-51891575D01*
X153542217Y-51836998D01*
X153535023Y-51767500D01*
X153566546Y-51705145D01*
X153585842Y-51688425D01*
X153663876Y-51633785D01*
X153771401Y-51558495D01*
X153938495Y-51391401D01*
X154074035Y-51197830D01*
X154173903Y-50983663D01*
X154235063Y-50755408D01*
X154255659Y-50520000D01*
X154235063Y-50284592D01*
X154176894Y-50067500D01*
X154173905Y-50056344D01*
X154173904Y-50056343D01*
X154173903Y-50056337D01*
X154074035Y-49842171D01*
X153938495Y-49648599D01*
X153816179Y-49526283D01*
X153782696Y-49464963D01*
X153787680Y-49395271D01*
X153829551Y-49339337D01*
X153860529Y-49322422D01*
X153992086Y-49273354D01*
X153992093Y-49273350D01*
X154107187Y-49187190D01*
X154107190Y-49187187D01*
X154193350Y-49072093D01*
X154193354Y-49072086D01*
X154243596Y-48937379D01*
X154243598Y-48937372D01*
X154249999Y-48877844D01*
X154250000Y-48877827D01*
X154250000Y-48230000D01*
X153333686Y-48230000D01*
X153359493Y-48189844D01*
X153400000Y-48051889D01*
X153400000Y-47908111D01*
X153359493Y-47770156D01*
X153333686Y-47730000D01*
X154250000Y-47730000D01*
X154250000Y-47082172D01*
X154249999Y-47082155D01*
X154243598Y-47022627D01*
X154243596Y-47022620D01*
X154193354Y-46887913D01*
X154193350Y-46887906D01*
X154107190Y-46772812D01*
X154107187Y-46772809D01*
X153992093Y-46686649D01*
X153992086Y-46686645D01*
X153857379Y-46636403D01*
X153857372Y-46636401D01*
X153797844Y-46630000D01*
X153150000Y-46630000D01*
X153150000Y-47544498D01*
X153042315Y-47495320D01*
X152935763Y-47480000D01*
X152864237Y-47480000D01*
X152757685Y-47495320D01*
X152650000Y-47544498D01*
X152650000Y-46630000D01*
X152002155Y-46630000D01*
X151942627Y-46636401D01*
X151942620Y-46636403D01*
X151807913Y-46686645D01*
X151807906Y-46686649D01*
X151692812Y-46772809D01*
X151692809Y-46772812D01*
X151606649Y-46887906D01*
X151606645Y-46887913D01*
X151556403Y-47022620D01*
X151556401Y-47022627D01*
X151550000Y-47082155D01*
X151550000Y-47730000D01*
X152466314Y-47730000D01*
X152440507Y-47770156D01*
X152400000Y-47908111D01*
X152400000Y-48051889D01*
X152440507Y-48189844D01*
X152466314Y-48230000D01*
X151550000Y-48230000D01*
X151550000Y-48877844D01*
X151556401Y-48937372D01*
X151556403Y-48937379D01*
X151606645Y-49072086D01*
X151606649Y-49072093D01*
X151692809Y-49187187D01*
X151692812Y-49187190D01*
X151807906Y-49273350D01*
X151807913Y-49273354D01*
X151939470Y-49322421D01*
X151995403Y-49364292D01*
X152019821Y-49429756D01*
X152004970Y-49498029D01*
X151983819Y-49526284D01*
X151861503Y-49648600D01*
X151725965Y-49842169D01*
X151725964Y-49842171D01*
X151626098Y-50056335D01*
X151626094Y-50056344D01*
X151564938Y-50284586D01*
X151564936Y-50284596D01*
X151544341Y-50519999D01*
X151544341Y-50520000D01*
X151564936Y-50755403D01*
X151564938Y-50755413D01*
X151626094Y-50983655D01*
X151626096Y-50983659D01*
X151626097Y-50983663D01*
X151716748Y-51178064D01*
X151725965Y-51197830D01*
X151725967Y-51197834D01*
X151861501Y-51391395D01*
X151861506Y-51391402D01*
X152028597Y-51558493D01*
X152028603Y-51558498D01*
X152214158Y-51688425D01*
X152257783Y-51743002D01*
X152264977Y-51812500D01*
X152233454Y-51874855D01*
X152214158Y-51891575D01*
X152028597Y-52021505D01*
X151861505Y-52188597D01*
X151725965Y-52382169D01*
X151725964Y-52382171D01*
X151626098Y-52596335D01*
X151626094Y-52596344D01*
X151564938Y-52824586D01*
X151564936Y-52824596D01*
X151544341Y-53059999D01*
X151544341Y-53060000D01*
X151564936Y-53295403D01*
X151564938Y-53295413D01*
X151626094Y-53523655D01*
X151626096Y-53523659D01*
X151626097Y-53523663D01*
X151720727Y-53726598D01*
X151725965Y-53737830D01*
X151725967Y-53737834D01*
X151819427Y-53871308D01*
X151852656Y-53918764D01*
X151861501Y-53931395D01*
X151861506Y-53931402D01*
X152028597Y-54098493D01*
X152028603Y-54098498D01*
X152214158Y-54228425D01*
X152257783Y-54283002D01*
X152264977Y-54352500D01*
X152233454Y-54414855D01*
X152214158Y-54431575D01*
X152028597Y-54561505D01*
X151861505Y-54728597D01*
X151725965Y-54922169D01*
X151725964Y-54922171D01*
X151626098Y-55136335D01*
X151626094Y-55136344D01*
X151564938Y-55364586D01*
X151564936Y-55364596D01*
X151544341Y-55599999D01*
X151544341Y-55600000D01*
X151564936Y-55835403D01*
X151564938Y-55835413D01*
X151626094Y-56063655D01*
X151626096Y-56063659D01*
X151626097Y-56063663D01*
X151712253Y-56248425D01*
X151725965Y-56277830D01*
X151725967Y-56277834D01*
X151861501Y-56471395D01*
X151861506Y-56471402D01*
X152028597Y-56638493D01*
X152028603Y-56638498D01*
X152214158Y-56768425D01*
X152257783Y-56823002D01*
X152264977Y-56892500D01*
X152233454Y-56954855D01*
X152214158Y-56971575D01*
X152028597Y-57101505D01*
X151861505Y-57268597D01*
X151725965Y-57462169D01*
X151725964Y-57462171D01*
X151626098Y-57676335D01*
X151626094Y-57676344D01*
X151564938Y-57904586D01*
X151564936Y-57904596D01*
X151544341Y-58139999D01*
X151544341Y-58140000D01*
X151564936Y-58375403D01*
X151564938Y-58375413D01*
X151626094Y-58603655D01*
X151626096Y-58603659D01*
X151626097Y-58603663D01*
X151707462Y-58778151D01*
X151725965Y-58817830D01*
X151725967Y-58817834D01*
X151861501Y-59011395D01*
X151861506Y-59011402D01*
X152028597Y-59178493D01*
X152028603Y-59178498D01*
X152214158Y-59308425D01*
X152257783Y-59363002D01*
X152264977Y-59432500D01*
X152233454Y-59494855D01*
X152214158Y-59511575D01*
X152028597Y-59641505D01*
X151861505Y-59808597D01*
X151725965Y-60002169D01*
X151725964Y-60002171D01*
X151626098Y-60216335D01*
X151626094Y-60216344D01*
X151564938Y-60444586D01*
X151564936Y-60444596D01*
X151544341Y-60679999D01*
X151544341Y-60680000D01*
X151564936Y-60915403D01*
X151564938Y-60915413D01*
X151626094Y-61143655D01*
X151626096Y-61143659D01*
X151626097Y-61143663D01*
X151698765Y-61299500D01*
X151725965Y-61357830D01*
X151725967Y-61357834D01*
X151808683Y-61475964D01*
X151848613Y-61532990D01*
X151861501Y-61551395D01*
X151861506Y-61551402D01*
X152028597Y-61718493D01*
X152028603Y-61718498D01*
X152214158Y-61848425D01*
X152257783Y-61903002D01*
X152264977Y-61972500D01*
X152233454Y-62034855D01*
X152214158Y-62051575D01*
X152028597Y-62181505D01*
X151861505Y-62348597D01*
X151725965Y-62542169D01*
X151725964Y-62542171D01*
X151626098Y-62756335D01*
X151626094Y-62756344D01*
X151564938Y-62984586D01*
X151564936Y-62984596D01*
X151544341Y-63219999D01*
X151544341Y-63220000D01*
X151564936Y-63455403D01*
X151564938Y-63455413D01*
X151626094Y-63683655D01*
X151626096Y-63683659D01*
X151626097Y-63683663D01*
X151669987Y-63777785D01*
X151725965Y-63897830D01*
X151725967Y-63897834D01*
X151808441Y-64015618D01*
X151861505Y-64091401D01*
X152028599Y-64258495D01*
X152124789Y-64325848D01*
X152222165Y-64394032D01*
X152222167Y-64394033D01*
X152222170Y-64394035D01*
X152436337Y-64493903D01*
X152436343Y-64493904D01*
X152436344Y-64493905D01*
X152508993Y-64513371D01*
X152568653Y-64549736D01*
X152599183Y-64612582D01*
X152590889Y-64681958D01*
X152564581Y-64720827D01*
X151337228Y-65948181D01*
X151275905Y-65981666D01*
X151249547Y-65984500D01*
X102030453Y-65984500D01*
X101963414Y-65964815D01*
X101942772Y-65948181D01*
X100358960Y-64364369D01*
X100325475Y-64303046D01*
X100323323Y-64289668D01*
X100305674Y-64121744D01*
X100247179Y-63941716D01*
X100152533Y-63777784D01*
X100025871Y-63637112D01*
X100025870Y-63637111D01*
X99872734Y-63525851D01*
X99872729Y-63525848D01*
X99699807Y-63448857D01*
X99699802Y-63448855D01*
X99554001Y-63417865D01*
X99514646Y-63409500D01*
X99325354Y-63409500D01*
X99292897Y-63416398D01*
X99140197Y-63448855D01*
X99140192Y-63448857D01*
X98967270Y-63525848D01*
X98967265Y-63525851D01*
X98814129Y-63637111D01*
X98687466Y-63777785D01*
X98592821Y-63941715D01*
X98592818Y-63941722D01*
X98534327Y-64121740D01*
X98534326Y-64121744D01*
X98514540Y-64310000D01*
X98534326Y-64498256D01*
X98534327Y-64498259D01*
X98592818Y-64678277D01*
X98592821Y-64678284D01*
X98687467Y-64842216D01*
X98727891Y-64887111D01*
X98814129Y-64982888D01*
X98967265Y-65094148D01*
X98967270Y-65094151D01*
X99140192Y-65171142D01*
X99140197Y-65171144D01*
X99325354Y-65210500D01*
X99384548Y-65210500D01*
X99451587Y-65230185D01*
X99472229Y-65246819D01*
X100538228Y-66312819D01*
X100571713Y-66374142D01*
X100566729Y-66443834D01*
X100524857Y-66499767D01*
X100459393Y-66524184D01*
X100450547Y-66524500D01*
X99860452Y-66524500D01*
X99793413Y-66504815D01*
X99772771Y-66488181D01*
X98448960Y-65164369D01*
X98415475Y-65103046D01*
X98413323Y-65089668D01*
X98395674Y-64921744D01*
X98337179Y-64741716D01*
X98242533Y-64577784D01*
X98115871Y-64437112D01*
X98088758Y-64417413D01*
X97962734Y-64325851D01*
X97962729Y-64325848D01*
X97789807Y-64248857D01*
X97789802Y-64248855D01*
X97619536Y-64212665D01*
X97604646Y-64209500D01*
X97415354Y-64209500D01*
X97400464Y-64212665D01*
X97230197Y-64248855D01*
X97230192Y-64248857D01*
X97057270Y-64325848D01*
X97057265Y-64325851D01*
X96904129Y-64437111D01*
X96777466Y-64577785D01*
X96682821Y-64741715D01*
X96682818Y-64741722D01*
X96624327Y-64921740D01*
X96624326Y-64921744D01*
X96604540Y-65110000D01*
X96624326Y-65298256D01*
X96624327Y-65298259D01*
X96682818Y-65478277D01*
X96682821Y-65478284D01*
X96777467Y-65642216D01*
X96838050Y-65709500D01*
X96904129Y-65782888D01*
X97057265Y-65894148D01*
X97057270Y-65894151D01*
X97230192Y-65971142D01*
X97230197Y-65971144D01*
X97415354Y-66010500D01*
X97474548Y-66010500D01*
X97541587Y-66030185D01*
X97562229Y-66046819D01*
X98278229Y-66762819D01*
X98311714Y-66824142D01*
X98306730Y-66893834D01*
X98264858Y-66949767D01*
X98199394Y-66974184D01*
X98190548Y-66974500D01*
X97640452Y-66974500D01*
X97573413Y-66954815D01*
X97552771Y-66938181D01*
X96228960Y-65614369D01*
X96195475Y-65553046D01*
X96193323Y-65539668D01*
X96175674Y-65371744D01*
X96117179Y-65191716D01*
X96022533Y-65027784D01*
X95895871Y-64887112D01*
X95895870Y-64887111D01*
X95742734Y-64775851D01*
X95742729Y-64775848D01*
X95569807Y-64698857D01*
X95569802Y-64698855D01*
X95424001Y-64667865D01*
X95384646Y-64659500D01*
X95195354Y-64659500D01*
X95162897Y-64666398D01*
X95010197Y-64698855D01*
X95010192Y-64698857D01*
X94837270Y-64775848D01*
X94837265Y-64775851D01*
X94684129Y-64887111D01*
X94557466Y-65027785D01*
X94462821Y-65191715D01*
X94462818Y-65191722D01*
X94416775Y-65333429D01*
X94404326Y-65371744D01*
X94384540Y-65560000D01*
X94404326Y-65748256D01*
X94404327Y-65748259D01*
X94462818Y-65928277D01*
X94462821Y-65928284D01*
X94557467Y-66092216D01*
X94635479Y-66178857D01*
X94684129Y-66232888D01*
X94837265Y-66344148D01*
X94837270Y-66344151D01*
X95010192Y-66421142D01*
X95010197Y-66421144D01*
X95195354Y-66460500D01*
X95254548Y-66460500D01*
X95321587Y-66480185D01*
X95342229Y-66496819D01*
X96058229Y-67212819D01*
X96091714Y-67274142D01*
X96086730Y-67343834D01*
X96044858Y-67399767D01*
X95979394Y-67424184D01*
X95970548Y-67424500D01*
X92360453Y-67424500D01*
X92293414Y-67404815D01*
X92272772Y-67388181D01*
X91268960Y-66384369D01*
X91235475Y-66323046D01*
X91233323Y-66309668D01*
X91215674Y-66141744D01*
X91157179Y-65961716D01*
X91062533Y-65797784D01*
X90935871Y-65657112D01*
X90935870Y-65657111D01*
X90782734Y-65545851D01*
X90782729Y-65545848D01*
X90609807Y-65468857D01*
X90609802Y-65468855D01*
X90464001Y-65437865D01*
X90424646Y-65429500D01*
X90235354Y-65429500D01*
X90202897Y-65436398D01*
X90050197Y-65468855D01*
X90050192Y-65468857D01*
X89877270Y-65545848D01*
X89877265Y-65545851D01*
X89724129Y-65657111D01*
X89597466Y-65797785D01*
X89502821Y-65961715D01*
X89502818Y-65961722D01*
X89445055Y-66139500D01*
X89444326Y-66141744D01*
X89424540Y-66330000D01*
X89444326Y-66518256D01*
X89444327Y-66518259D01*
X89502818Y-66698277D01*
X89502821Y-66698284D01*
X89597467Y-66862216D01*
X89680844Y-66954815D01*
X89724129Y-67002888D01*
X89877265Y-67114148D01*
X89877270Y-67114151D01*
X90050192Y-67191142D01*
X90050197Y-67191144D01*
X90235354Y-67230500D01*
X90294548Y-67230500D01*
X90361587Y-67250185D01*
X90382229Y-67266819D01*
X90778228Y-67662819D01*
X90811713Y-67724142D01*
X90806729Y-67793834D01*
X90764857Y-67849767D01*
X90699393Y-67874184D01*
X90690547Y-67874500D01*
X89520452Y-67874500D01*
X89453413Y-67854815D01*
X89432771Y-67838181D01*
X88688960Y-67094369D01*
X88655475Y-67033046D01*
X88653323Y-67019668D01*
X88635674Y-66851744D01*
X88577179Y-66671716D01*
X88482533Y-66507784D01*
X88355871Y-66367112D01*
X88355870Y-66367111D01*
X88202734Y-66255851D01*
X88202729Y-66255848D01*
X88029807Y-66178857D01*
X88029802Y-66178855D01*
X87855184Y-66141740D01*
X87844646Y-66139500D01*
X87655354Y-66139500D01*
X87644816Y-66141740D01*
X87470197Y-66178855D01*
X87470192Y-66178857D01*
X87297270Y-66255848D01*
X87297265Y-66255851D01*
X87144129Y-66367111D01*
X87017466Y-66507785D01*
X86922821Y-66671715D01*
X86922818Y-66671722D01*
X86864327Y-66851740D01*
X86864326Y-66851744D01*
X86844540Y-67040000D01*
X81500500Y-67040000D01*
X81500500Y-61520000D01*
X83634341Y-61520000D01*
X83654936Y-61755403D01*
X83654938Y-61755413D01*
X83716094Y-61983655D01*
X83716096Y-61983659D01*
X83716097Y-61983663D01*
X83808351Y-62181501D01*
X83815965Y-62197830D01*
X83815967Y-62197834D01*
X83921533Y-62348597D01*
X83951505Y-62391401D01*
X84118599Y-62558495D01*
X84277844Y-62670000D01*
X84304594Y-62688730D01*
X84348219Y-62743307D01*
X84355413Y-62812805D01*
X84323890Y-62875160D01*
X84304595Y-62891880D01*
X84118922Y-63021890D01*
X84118920Y-63021891D01*
X83951891Y-63188920D01*
X83951886Y-63188926D01*
X83816400Y-63382420D01*
X83816399Y-63382422D01*
X83716570Y-63596507D01*
X83716567Y-63596513D01*
X83659364Y-63809999D01*
X83659364Y-63810000D01*
X84556314Y-63810000D01*
X84530507Y-63850156D01*
X84490000Y-63988111D01*
X84490000Y-64131889D01*
X84530507Y-64269844D01*
X84556314Y-64310000D01*
X83659364Y-64310000D01*
X83716567Y-64523486D01*
X83716570Y-64523492D01*
X83816399Y-64737578D01*
X83951894Y-64931082D01*
X84118917Y-65098105D01*
X84312421Y-65233600D01*
X84526507Y-65333429D01*
X84526516Y-65333433D01*
X84740000Y-65390634D01*
X84740000Y-64495501D01*
X84847685Y-64544680D01*
X84954237Y-64560000D01*
X85025763Y-64560000D01*
X85132315Y-64544680D01*
X85240000Y-64495501D01*
X85240000Y-65390633D01*
X85453483Y-65333433D01*
X85453492Y-65333429D01*
X85667578Y-65233600D01*
X85861082Y-65098105D01*
X86028105Y-64931082D01*
X86163600Y-64737578D01*
X86263429Y-64523492D01*
X86263432Y-64523486D01*
X86320636Y-64310000D01*
X85423686Y-64310000D01*
X85449493Y-64269844D01*
X85490000Y-64131889D01*
X85490000Y-64067844D01*
X91480000Y-64067844D01*
X91486401Y-64127372D01*
X91486403Y-64127379D01*
X91536645Y-64262086D01*
X91536649Y-64262093D01*
X91622809Y-64377187D01*
X91622812Y-64377190D01*
X91737906Y-64463350D01*
X91737913Y-64463354D01*
X91872620Y-64513596D01*
X91872627Y-64513598D01*
X91932155Y-64519999D01*
X91932172Y-64520000D01*
X92580000Y-64520000D01*
X92580000Y-63605501D01*
X92687685Y-63654680D01*
X92794237Y-63670000D01*
X92865763Y-63670000D01*
X92972315Y-63654680D01*
X93080000Y-63605501D01*
X93080000Y-64520000D01*
X93727828Y-64520000D01*
X93727844Y-64519999D01*
X93787372Y-64513598D01*
X93787379Y-64513596D01*
X93922086Y-64463354D01*
X93922093Y-64463350D01*
X94037187Y-64377190D01*
X94037190Y-64377187D01*
X94123350Y-64262093D01*
X94123354Y-64262086D01*
X94173596Y-64127379D01*
X94173598Y-64127372D01*
X94179999Y-64067844D01*
X94180000Y-64067827D01*
X94180000Y-63420000D01*
X93263686Y-63420000D01*
X93289493Y-63379844D01*
X93330000Y-63241889D01*
X93330000Y-63098111D01*
X93289493Y-62960156D01*
X93263686Y-62920000D01*
X94180000Y-62920000D01*
X94180000Y-62740005D01*
X113064556Y-62740005D01*
X113084310Y-63054004D01*
X113084311Y-63054011D01*
X113143270Y-63363083D01*
X113240497Y-63662316D01*
X113240499Y-63662321D01*
X113374461Y-63947003D01*
X113374464Y-63947009D01*
X113543051Y-64212661D01*
X113543054Y-64212665D01*
X113743606Y-64455090D01*
X113743608Y-64455092D01*
X113743610Y-64455094D01*
X113784940Y-64493905D01*
X113972968Y-64670476D01*
X113972978Y-64670484D01*
X114227504Y-64855408D01*
X114227509Y-64855410D01*
X114227516Y-64855416D01*
X114503234Y-65006994D01*
X114503239Y-65006996D01*
X114503241Y-65006997D01*
X114503242Y-65006998D01*
X114795771Y-65122818D01*
X114795774Y-65122819D01*
X115100523Y-65201065D01*
X115100527Y-65201066D01*
X115166010Y-65209338D01*
X115412670Y-65240499D01*
X115412679Y-65240499D01*
X115412682Y-65240500D01*
X115412684Y-65240500D01*
X115727316Y-65240500D01*
X115727318Y-65240500D01*
X115727321Y-65240499D01*
X115727329Y-65240499D01*
X115913593Y-65216968D01*
X116039473Y-65201066D01*
X116344225Y-65122819D01*
X116344228Y-65122818D01*
X116636757Y-65006998D01*
X116636758Y-65006997D01*
X116636756Y-65006997D01*
X116636766Y-65006994D01*
X116912484Y-64855416D01*
X117167030Y-64670478D01*
X117396390Y-64455094D01*
X117596947Y-64212663D01*
X117765537Y-63947007D01*
X117899503Y-63662315D01*
X117996731Y-63363079D01*
X118055688Y-63054015D01*
X118059862Y-62987669D01*
X118075444Y-62740005D01*
X118075444Y-62739994D01*
X118069782Y-62650000D01*
X127544341Y-62650000D01*
X127564936Y-62885403D01*
X127564938Y-62885413D01*
X127626094Y-63113655D01*
X127626096Y-63113659D01*
X127626097Y-63113663D01*
X127658026Y-63182135D01*
X127725964Y-63327828D01*
X127725965Y-63327830D01*
X127861505Y-63521402D01*
X128028597Y-63688494D01*
X128222169Y-63824034D01*
X128222171Y-63824035D01*
X128436337Y-63923903D01*
X128664592Y-63985063D01*
X128841032Y-64000499D01*
X128841033Y-64000500D01*
X128841034Y-64000500D01*
X128958967Y-64000500D01*
X128958967Y-64000499D01*
X129135408Y-63985063D01*
X129363663Y-63923903D01*
X129577829Y-63824035D01*
X129771401Y-63688495D01*
X129938495Y-63521401D01*
X130074035Y-63327830D01*
X130173903Y-63113663D01*
X130235063Y-62885408D01*
X130247784Y-62740005D01*
X133124556Y-62740005D01*
X133144310Y-63054004D01*
X133144311Y-63054011D01*
X133203270Y-63363083D01*
X133300497Y-63662316D01*
X133300499Y-63662321D01*
X133434461Y-63947003D01*
X133434464Y-63947009D01*
X133603051Y-64212661D01*
X133603054Y-64212665D01*
X133803606Y-64455090D01*
X133803608Y-64455092D01*
X133803610Y-64455094D01*
X133844940Y-64493905D01*
X134032968Y-64670476D01*
X134032978Y-64670484D01*
X134287504Y-64855408D01*
X134287509Y-64855410D01*
X134287516Y-64855416D01*
X134563234Y-65006994D01*
X134563239Y-65006996D01*
X134563241Y-65006997D01*
X134563242Y-65006998D01*
X134855771Y-65122818D01*
X134855774Y-65122819D01*
X135160523Y-65201065D01*
X135160527Y-65201066D01*
X135226010Y-65209338D01*
X135472670Y-65240499D01*
X135472679Y-65240499D01*
X135472682Y-65240500D01*
X135472684Y-65240500D01*
X135787316Y-65240500D01*
X135787318Y-65240500D01*
X135787321Y-65240499D01*
X135787329Y-65240499D01*
X135973593Y-65216968D01*
X136099473Y-65201066D01*
X136404225Y-65122819D01*
X136404228Y-65122818D01*
X136696757Y-65006998D01*
X136696758Y-65006997D01*
X136696756Y-65006997D01*
X136696766Y-65006994D01*
X136972484Y-64855416D01*
X137227030Y-64670478D01*
X137456390Y-64455094D01*
X137656947Y-64212663D01*
X137825537Y-63947007D01*
X137959503Y-63662315D01*
X138056731Y-63363079D01*
X138115688Y-63054015D01*
X138119862Y-62987669D01*
X138135444Y-62740005D01*
X138135444Y-62739994D01*
X138115689Y-62425995D01*
X138115688Y-62425988D01*
X138115688Y-62425985D01*
X138056731Y-62116921D01*
X137959503Y-61817685D01*
X137825537Y-61532993D01*
X137714378Y-61357834D01*
X137656948Y-61267338D01*
X137656945Y-61267334D01*
X137456393Y-61024909D01*
X137456391Y-61024907D01*
X137272071Y-60851818D01*
X137227030Y-60809522D01*
X137227027Y-60809520D01*
X137227021Y-60809515D01*
X136972495Y-60624591D01*
X136972488Y-60624586D01*
X136972484Y-60624584D01*
X136696766Y-60473006D01*
X136696763Y-60473004D01*
X136696758Y-60473002D01*
X136696757Y-60473001D01*
X136404228Y-60357181D01*
X136404225Y-60357180D01*
X136099476Y-60278934D01*
X136099463Y-60278932D01*
X135787329Y-60239500D01*
X135787318Y-60239500D01*
X135472682Y-60239500D01*
X135472670Y-60239500D01*
X135160536Y-60278932D01*
X135160523Y-60278934D01*
X134855774Y-60357180D01*
X134855771Y-60357181D01*
X134563242Y-60473001D01*
X134563241Y-60473002D01*
X134287516Y-60624584D01*
X134287504Y-60624591D01*
X134032978Y-60809515D01*
X134032968Y-60809523D01*
X133803608Y-61024907D01*
X133803606Y-61024909D01*
X133603054Y-61267334D01*
X133603051Y-61267338D01*
X133434464Y-61532990D01*
X133434461Y-61532996D01*
X133300499Y-61817678D01*
X133300497Y-61817683D01*
X133203270Y-62116916D01*
X133144311Y-62425988D01*
X133144310Y-62425995D01*
X133124556Y-62739994D01*
X133124556Y-62740005D01*
X130247784Y-62740005D01*
X130255659Y-62650000D01*
X130235063Y-62414592D01*
X130173903Y-62186337D01*
X130074035Y-61972171D01*
X130074034Y-61972169D01*
X129938494Y-61778597D01*
X129771402Y-61611505D01*
X129577830Y-61475965D01*
X129577828Y-61475964D01*
X129431006Y-61407500D01*
X129363663Y-61376097D01*
X129363659Y-61376096D01*
X129363655Y-61376094D01*
X129135413Y-61314938D01*
X129135403Y-61314936D01*
X128958967Y-61299500D01*
X128958966Y-61299500D01*
X128841034Y-61299500D01*
X128841033Y-61299500D01*
X128664596Y-61314936D01*
X128664586Y-61314938D01*
X128436344Y-61376094D01*
X128436335Y-61376098D01*
X128222171Y-61475964D01*
X128222169Y-61475965D01*
X128028597Y-61611505D01*
X127861506Y-61778597D01*
X127861501Y-61778604D01*
X127725967Y-61972165D01*
X127725965Y-61972169D01*
X127626098Y-62186335D01*
X127626094Y-62186344D01*
X127564938Y-62414586D01*
X127564936Y-62414596D01*
X127544341Y-62649999D01*
X127544341Y-62650000D01*
X118069782Y-62650000D01*
X118055689Y-62425995D01*
X118055688Y-62425988D01*
X118055688Y-62425985D01*
X117996731Y-62116921D01*
X117899503Y-61817685D01*
X117765537Y-61532993D01*
X117654378Y-61357834D01*
X117596948Y-61267338D01*
X117596945Y-61267334D01*
X117396393Y-61024909D01*
X117396391Y-61024907D01*
X117212071Y-60851818D01*
X117167030Y-60809522D01*
X117167027Y-60809520D01*
X117167021Y-60809515D01*
X116912495Y-60624591D01*
X116912488Y-60624586D01*
X116912484Y-60624584D01*
X116636766Y-60473006D01*
X116636763Y-60473004D01*
X116636758Y-60473002D01*
X116636757Y-60473001D01*
X116344228Y-60357181D01*
X116344225Y-60357180D01*
X116039476Y-60278934D01*
X116039463Y-60278932D01*
X115727329Y-60239500D01*
X115727318Y-60239500D01*
X115412682Y-60239500D01*
X115412670Y-60239500D01*
X115100536Y-60278932D01*
X115100523Y-60278934D01*
X114795774Y-60357180D01*
X114795771Y-60357181D01*
X114503242Y-60473001D01*
X114503241Y-60473002D01*
X114227516Y-60624584D01*
X114227504Y-60624591D01*
X113972978Y-60809515D01*
X113972968Y-60809523D01*
X113743608Y-61024907D01*
X113743606Y-61024909D01*
X113543054Y-61267334D01*
X113543051Y-61267338D01*
X113374464Y-61532990D01*
X113374461Y-61532996D01*
X113240499Y-61817678D01*
X113240497Y-61817683D01*
X113143270Y-62116916D01*
X113084311Y-62425988D01*
X113084310Y-62425995D01*
X113064556Y-62739994D01*
X113064556Y-62740005D01*
X94180000Y-62740005D01*
X94180000Y-62272172D01*
X94179999Y-62272155D01*
X94173598Y-62212627D01*
X94173596Y-62212620D01*
X94123354Y-62077913D01*
X94123350Y-62077906D01*
X94037190Y-61962812D01*
X94037187Y-61962809D01*
X93922093Y-61876649D01*
X93922086Y-61876645D01*
X93787379Y-61826403D01*
X93787372Y-61826401D01*
X93727844Y-61820000D01*
X93080000Y-61820000D01*
X93080000Y-62734498D01*
X92972315Y-62685320D01*
X92865763Y-62670000D01*
X92794237Y-62670000D01*
X92687685Y-62685320D01*
X92580000Y-62734498D01*
X92580000Y-61820000D01*
X91932155Y-61820000D01*
X91872627Y-61826401D01*
X91872620Y-61826403D01*
X91737913Y-61876645D01*
X91737906Y-61876649D01*
X91622812Y-61962809D01*
X91622809Y-61962812D01*
X91536649Y-62077906D01*
X91536645Y-62077913D01*
X91486403Y-62212620D01*
X91486401Y-62212627D01*
X91480000Y-62272155D01*
X91480000Y-62920000D01*
X92396314Y-62920000D01*
X92370507Y-62960156D01*
X92330000Y-63098111D01*
X92330000Y-63241889D01*
X92370507Y-63379844D01*
X92396314Y-63420000D01*
X91480000Y-63420000D01*
X91480000Y-64067844D01*
X85490000Y-64067844D01*
X85490000Y-63988111D01*
X85449493Y-63850156D01*
X85423686Y-63810000D01*
X86320636Y-63810000D01*
X86320635Y-63809999D01*
X86263432Y-63596513D01*
X86263429Y-63596507D01*
X86163600Y-63382422D01*
X86163599Y-63382420D01*
X86028113Y-63188926D01*
X86028108Y-63188920D01*
X85861078Y-63021890D01*
X85675405Y-62891879D01*
X85631780Y-62837302D01*
X85624588Y-62767804D01*
X85656110Y-62705449D01*
X85675406Y-62688730D01*
X85680276Y-62685320D01*
X85861401Y-62558495D01*
X86028495Y-62391401D01*
X86164035Y-62197830D01*
X86263903Y-61983663D01*
X86325063Y-61755408D01*
X86345659Y-61520000D01*
X86344884Y-61511144D01*
X86328898Y-61328425D01*
X86325063Y-61284592D01*
X86298143Y-61184125D01*
X86299806Y-61114277D01*
X86330234Y-61064354D01*
X86542773Y-60851818D01*
X86604097Y-60818334D01*
X86630454Y-60815500D01*
X99237257Y-60815500D01*
X99252877Y-60817224D01*
X99252904Y-60816939D01*
X99260660Y-60817671D01*
X99260667Y-60817673D01*
X99327873Y-60815561D01*
X99331768Y-60815500D01*
X99359346Y-60815500D01*
X99359350Y-60815500D01*
X99363324Y-60814997D01*
X99374963Y-60814080D01*
X99418627Y-60812709D01*
X99437869Y-60807117D01*
X99456912Y-60803174D01*
X99476792Y-60800664D01*
X99517401Y-60784585D01*
X99528444Y-60780803D01*
X99570390Y-60768618D01*
X99587629Y-60758422D01*
X99605103Y-60749862D01*
X99623727Y-60742488D01*
X99623727Y-60742487D01*
X99623732Y-60742486D01*
X99659083Y-60716800D01*
X99668814Y-60710408D01*
X99706420Y-60688170D01*
X99720589Y-60673999D01*
X99735379Y-60661368D01*
X99751587Y-60649594D01*
X99779438Y-60615926D01*
X99787279Y-60607309D01*
X103483788Y-56910801D01*
X103496042Y-56900986D01*
X103495859Y-56900764D01*
X103501868Y-56895791D01*
X103501877Y-56895786D01*
X103547949Y-56846722D01*
X103550566Y-56844023D01*
X103570120Y-56824471D01*
X103572576Y-56821303D01*
X103580156Y-56812427D01*
X103610062Y-56780582D01*
X103619713Y-56763024D01*
X103630396Y-56746761D01*
X103642673Y-56730936D01*
X103660021Y-56690844D01*
X103665151Y-56680371D01*
X103686197Y-56642092D01*
X103691180Y-56622680D01*
X103697481Y-56604280D01*
X103705437Y-56585896D01*
X103712270Y-56542748D01*
X103714633Y-56531338D01*
X103725500Y-56489019D01*
X103725500Y-56468983D01*
X103727027Y-56449582D01*
X103727600Y-56445965D01*
X103730160Y-56429804D01*
X103726050Y-56386324D01*
X103725500Y-56374655D01*
X103725500Y-46740005D01*
X113064556Y-46740005D01*
X113084310Y-47054004D01*
X113084311Y-47054011D01*
X113084312Y-47054015D01*
X113129590Y-47291373D01*
X113143270Y-47363083D01*
X113240497Y-47662316D01*
X113240499Y-47662321D01*
X113374461Y-47947003D01*
X113374464Y-47947009D01*
X113543051Y-48212661D01*
X113543054Y-48212665D01*
X113743606Y-48455090D01*
X113743608Y-48455092D01*
X113743610Y-48455094D01*
X113969466Y-48667187D01*
X113972968Y-48670476D01*
X113972978Y-48670484D01*
X114227504Y-48855408D01*
X114227509Y-48855410D01*
X114227516Y-48855416D01*
X114503234Y-49006994D01*
X114503239Y-49006996D01*
X114503241Y-49006997D01*
X114503242Y-49006998D01*
X114795771Y-49122818D01*
X114795774Y-49122819D01*
X115100523Y-49201065D01*
X115100527Y-49201066D01*
X115166010Y-49209338D01*
X115412670Y-49240499D01*
X115412679Y-49240499D01*
X115412682Y-49240500D01*
X115412684Y-49240500D01*
X115727316Y-49240500D01*
X115727318Y-49240500D01*
X115727321Y-49240499D01*
X115727329Y-49240499D01*
X115913593Y-49216968D01*
X116039473Y-49201066D01*
X116344225Y-49122819D01*
X116344228Y-49122818D01*
X116636757Y-49006998D01*
X116636758Y-49006997D01*
X116636756Y-49006997D01*
X116636766Y-49006994D01*
X116912484Y-48855416D01*
X117167030Y-48670478D01*
X117396390Y-48455094D01*
X117596947Y-48212663D01*
X117765537Y-47947007D01*
X117899503Y-47662315D01*
X117996731Y-47363079D01*
X118055688Y-47054015D01*
X118055689Y-47054004D01*
X118075444Y-46740005D01*
X133124556Y-46740005D01*
X133144310Y-47054004D01*
X133144311Y-47054011D01*
X133144312Y-47054015D01*
X133189590Y-47291373D01*
X133203270Y-47363083D01*
X133300497Y-47662316D01*
X133300499Y-47662321D01*
X133434461Y-47947003D01*
X133434464Y-47947009D01*
X133603051Y-48212661D01*
X133603054Y-48212665D01*
X133803606Y-48455090D01*
X133803608Y-48455092D01*
X133803610Y-48455094D01*
X134029466Y-48667187D01*
X134032968Y-48670476D01*
X134032978Y-48670484D01*
X134287504Y-48855408D01*
X134287509Y-48855410D01*
X134287516Y-48855416D01*
X134563234Y-49006994D01*
X134563239Y-49006996D01*
X134563241Y-49006997D01*
X134563242Y-49006998D01*
X134855771Y-49122818D01*
X134855774Y-49122819D01*
X135160523Y-49201065D01*
X135160527Y-49201066D01*
X135226010Y-49209338D01*
X135472670Y-49240499D01*
X135472679Y-49240499D01*
X135472682Y-49240500D01*
X135472684Y-49240500D01*
X135787316Y-49240500D01*
X135787318Y-49240500D01*
X135787321Y-49240499D01*
X135787329Y-49240499D01*
X135973593Y-49216968D01*
X136099473Y-49201066D01*
X136404225Y-49122819D01*
X136404228Y-49122818D01*
X136696757Y-49006998D01*
X136696758Y-49006997D01*
X136696756Y-49006997D01*
X136696766Y-49006994D01*
X136972484Y-48855416D01*
X137227030Y-48670478D01*
X137456390Y-48455094D01*
X137656947Y-48212663D01*
X137825537Y-47947007D01*
X137959503Y-47662315D01*
X138056731Y-47363079D01*
X138115688Y-47054015D01*
X138115689Y-47054004D01*
X138135444Y-46740005D01*
X138135444Y-46739994D01*
X138115689Y-46425995D01*
X138115688Y-46425988D01*
X138115688Y-46425985D01*
X138056731Y-46116921D01*
X137959503Y-45817685D01*
X137946475Y-45790000D01*
X137842243Y-45568495D01*
X137825537Y-45532993D01*
X137742027Y-45401402D01*
X137656948Y-45267338D01*
X137656945Y-45267334D01*
X137456393Y-45024909D01*
X137456391Y-45024907D01*
X137415175Y-44986202D01*
X137227030Y-44809522D01*
X137227027Y-44809520D01*
X137227021Y-44809515D01*
X136972495Y-44624591D01*
X136972488Y-44624586D01*
X136972484Y-44624584D01*
X136696766Y-44473006D01*
X136696763Y-44473004D01*
X136696758Y-44473002D01*
X136696757Y-44473001D01*
X136404228Y-44357181D01*
X136404225Y-44357180D01*
X136099476Y-44278934D01*
X136099463Y-44278932D01*
X135787329Y-44239500D01*
X135787318Y-44239500D01*
X135472682Y-44239500D01*
X135472670Y-44239500D01*
X135160536Y-44278932D01*
X135160523Y-44278934D01*
X134855774Y-44357180D01*
X134855771Y-44357181D01*
X134563242Y-44473001D01*
X134563241Y-44473002D01*
X134287516Y-44624584D01*
X134287504Y-44624591D01*
X134032978Y-44809515D01*
X134032968Y-44809523D01*
X133803608Y-45024907D01*
X133803606Y-45024909D01*
X133603054Y-45267334D01*
X133603051Y-45267338D01*
X133434464Y-45532990D01*
X133434461Y-45532996D01*
X133300499Y-45817678D01*
X133300497Y-45817683D01*
X133203270Y-46116916D01*
X133144311Y-46425988D01*
X133144310Y-46425995D01*
X133124556Y-46739994D01*
X133124556Y-46740005D01*
X118075444Y-46740005D01*
X118075444Y-46739994D01*
X118055689Y-46425995D01*
X118055688Y-46425988D01*
X118055688Y-46425985D01*
X117996731Y-46116921D01*
X117899503Y-45817685D01*
X117886475Y-45790000D01*
X117782243Y-45568495D01*
X117765537Y-45532993D01*
X117682027Y-45401402D01*
X117596948Y-45267338D01*
X117596945Y-45267334D01*
X117396393Y-45024909D01*
X117396391Y-45024907D01*
X117355175Y-44986202D01*
X117167030Y-44809522D01*
X117167027Y-44809520D01*
X117167021Y-44809515D01*
X116912495Y-44624591D01*
X116912488Y-44624586D01*
X116912484Y-44624584D01*
X116636766Y-44473006D01*
X116636763Y-44473004D01*
X116636758Y-44473002D01*
X116636757Y-44473001D01*
X116344228Y-44357181D01*
X116344225Y-44357180D01*
X116039476Y-44278934D01*
X116039463Y-44278932D01*
X115727329Y-44239500D01*
X115727318Y-44239500D01*
X115412682Y-44239500D01*
X115412670Y-44239500D01*
X115100536Y-44278932D01*
X115100523Y-44278934D01*
X114795774Y-44357180D01*
X114795771Y-44357181D01*
X114503242Y-44473001D01*
X114503241Y-44473002D01*
X114227516Y-44624584D01*
X114227504Y-44624591D01*
X113972978Y-44809515D01*
X113972968Y-44809523D01*
X113743608Y-45024907D01*
X113743606Y-45024909D01*
X113543054Y-45267334D01*
X113543051Y-45267338D01*
X113374464Y-45532990D01*
X113374461Y-45532996D01*
X113240499Y-45817678D01*
X113240497Y-45817683D01*
X113143270Y-46116916D01*
X113084311Y-46425988D01*
X113084310Y-46425995D01*
X113064556Y-46739994D01*
X113064556Y-46740005D01*
X103725500Y-46740005D01*
X103725500Y-45090452D01*
X103745185Y-45023413D01*
X103761819Y-45002771D01*
X105092772Y-43671819D01*
X105154095Y-43638334D01*
X105180453Y-43635500D01*
X165215500Y-43635500D01*
X165282539Y-43655185D01*
X165328294Y-43707989D01*
X165339500Y-43759500D01*
X165339500Y-45909332D01*
X165327698Y-45962129D01*
X165260387Y-46105171D01*
X165260385Y-46105174D01*
X165248659Y-46166649D01*
X165230773Y-46260412D01*
X165230773Y-46260414D01*
X165230773Y-46260415D01*
X165240696Y-46418137D01*
X165240696Y-46418140D01*
X165289533Y-46568441D01*
X165320197Y-46616760D01*
X165339500Y-46683202D01*
X165339500Y-47197870D01*
X165339501Y-47197876D01*
X165345908Y-47257483D01*
X165396202Y-47392328D01*
X165396206Y-47392335D01*
X165482452Y-47507544D01*
X165482455Y-47507547D01*
X165597664Y-47593793D01*
X165597671Y-47593797D01*
X165732517Y-47644091D01*
X165732516Y-47644091D01*
X165739444Y-47644835D01*
X165792127Y-47650500D01*
X166625613Y-47650499D01*
X166636422Y-47650971D01*
X166690000Y-47655659D01*
X166743578Y-47650971D01*
X166754387Y-47650499D01*
X167104546Y-47650499D01*
X167171585Y-47670184D01*
X167192227Y-47686818D01*
X168218688Y-48713279D01*
X168252173Y-48774602D01*
X168255007Y-48800727D01*
X168259693Y-51293424D01*
X168240134Y-51360500D01*
X168187416Y-51406354D01*
X168118277Y-51416428D01*
X168061382Y-51392923D01*
X168012335Y-51356206D01*
X168012328Y-51356202D01*
X167877482Y-51305908D01*
X167877483Y-51305908D01*
X167817883Y-51299501D01*
X167817881Y-51299500D01*
X167817873Y-51299500D01*
X167817865Y-51299500D01*
X166984380Y-51299500D01*
X166973573Y-51299028D01*
X166947024Y-51296705D01*
X166920001Y-51294341D01*
X166919998Y-51294341D01*
X166866424Y-51299028D01*
X166855617Y-51299500D01*
X164222129Y-51299500D01*
X164222123Y-51299501D01*
X164162516Y-51305908D01*
X164027671Y-51356202D01*
X164027664Y-51356206D01*
X163912455Y-51442452D01*
X163912452Y-51442455D01*
X163826206Y-51557664D01*
X163826202Y-51557671D01*
X163775908Y-51692517D01*
X163769501Y-51752116D01*
X163769500Y-51752135D01*
X163769500Y-53547870D01*
X163769501Y-53547876D01*
X163775908Y-53607483D01*
X163826202Y-53742328D01*
X163826206Y-53742335D01*
X163903889Y-53846105D01*
X163928307Y-53911569D01*
X163913456Y-53979842D01*
X163903890Y-53994727D01*
X163826647Y-54097910D01*
X163826645Y-54097913D01*
X163776403Y-54232620D01*
X163776401Y-54232627D01*
X163770000Y-54292155D01*
X163770000Y-54940000D01*
X166474428Y-54940000D01*
X166451318Y-54975960D01*
X166410000Y-55116673D01*
X166410000Y-55263327D01*
X166451318Y-55404040D01*
X166474428Y-55440000D01*
X163770000Y-55440000D01*
X163770000Y-56087844D01*
X163776401Y-56147372D01*
X163776403Y-56147379D01*
X163826645Y-56282086D01*
X163826646Y-56282088D01*
X163903890Y-56385272D01*
X163928307Y-56450736D01*
X163913456Y-56519009D01*
X163903890Y-56533894D01*
X163826204Y-56637669D01*
X163826202Y-56637671D01*
X163775908Y-56772517D01*
X163769501Y-56832116D01*
X163769501Y-56832123D01*
X163769500Y-56832135D01*
X163769500Y-58627870D01*
X163769501Y-58627876D01*
X163775908Y-58687483D01*
X163826202Y-58822328D01*
X163826206Y-58822335D01*
X163912452Y-58937544D01*
X163912455Y-58937547D01*
X164027664Y-59023793D01*
X164027671Y-59023797D01*
X164162517Y-59074091D01*
X164162516Y-59074091D01*
X164169444Y-59074835D01*
X164222127Y-59080500D01*
X166855611Y-59080499D01*
X166866419Y-59080971D01*
X166919999Y-59085659D01*
X166920000Y-59085659D01*
X166920001Y-59085659D01*
X166973580Y-59080971D01*
X166984388Y-59080499D01*
X167817871Y-59080499D01*
X167817872Y-59080499D01*
X167877483Y-59074091D01*
X168012331Y-59023796D01*
X168127546Y-58937546D01*
X168213796Y-58822331D01*
X168264091Y-58687483D01*
X168270500Y-58627873D01*
X168270499Y-57794384D01*
X168270971Y-57783576D01*
X168272321Y-57768154D01*
X168275659Y-57730000D01*
X168270971Y-57676421D01*
X168270499Y-57665613D01*
X168270499Y-56832129D01*
X168270498Y-56832123D01*
X168270497Y-56832116D01*
X168264452Y-56775871D01*
X168264091Y-56772516D01*
X168213797Y-56637671D01*
X168213795Y-56637668D01*
X168211209Y-56634213D01*
X168136109Y-56533893D01*
X168111692Y-56468430D01*
X168126543Y-56400157D01*
X168136110Y-56385271D01*
X168213352Y-56282089D01*
X168213354Y-56282086D01*
X168263596Y-56147379D01*
X168263598Y-56147372D01*
X168269999Y-56087844D01*
X168270000Y-56087827D01*
X168270000Y-55440000D01*
X167365572Y-55440000D01*
X167388682Y-55404040D01*
X167430000Y-55263327D01*
X167430000Y-55116673D01*
X167388682Y-54975960D01*
X167365572Y-54940000D01*
X168270000Y-54940000D01*
X168270000Y-54750620D01*
X168289685Y-54683581D01*
X168342489Y-54637826D01*
X168411647Y-54627882D01*
X168444430Y-54637339D01*
X168610197Y-54711144D01*
X168795354Y-54750500D01*
X168795355Y-54750500D01*
X168984644Y-54750500D01*
X168984646Y-54750500D01*
X169169803Y-54711144D01*
X169342730Y-54634151D01*
X169495871Y-54522888D01*
X169622533Y-54382216D01*
X169717179Y-54218284D01*
X169775674Y-54038256D01*
X169795460Y-53850000D01*
X169775674Y-53661744D01*
X169738658Y-53547821D01*
X169722218Y-53497223D01*
X169720223Y-53427382D01*
X169756303Y-53367549D01*
X169819004Y-53336721D01*
X169888419Y-53344686D01*
X169890464Y-53345573D01*
X170060197Y-53421144D01*
X170245354Y-53460500D01*
X170245355Y-53460500D01*
X170434644Y-53460500D01*
X170434646Y-53460500D01*
X170619803Y-53421144D01*
X170792730Y-53344151D01*
X170945871Y-53232888D01*
X171072533Y-53092216D01*
X171167179Y-52928284D01*
X171225674Y-52748256D01*
X171245460Y-52560000D01*
X171225674Y-52371744D01*
X171167179Y-52191716D01*
X171072533Y-52027784D01*
X170994639Y-51941274D01*
X170964410Y-51878284D01*
X170962791Y-51858794D01*
X170948599Y-48189844D01*
X170946992Y-47774480D01*
X170966417Y-47707365D01*
X171019044Y-47661406D01*
X171070991Y-47650000D01*
X171520000Y-47650000D01*
X171520000Y-46746494D01*
X171624839Y-46794373D01*
X171733527Y-46810000D01*
X171806473Y-46810000D01*
X171915161Y-46794373D01*
X172020000Y-46746494D01*
X172020000Y-47650000D01*
X172667828Y-47650000D01*
X172667844Y-47649999D01*
X172727372Y-47643598D01*
X172727379Y-47643596D01*
X172862086Y-47593354D01*
X172862089Y-47593352D01*
X172965271Y-47516110D01*
X173030735Y-47491692D01*
X173099008Y-47506543D01*
X173113888Y-47516105D01*
X173190954Y-47573797D01*
X173217668Y-47593795D01*
X173217671Y-47593797D01*
X173262618Y-47610561D01*
X173352517Y-47644091D01*
X173412127Y-47650500D01*
X173558979Y-47650499D01*
X173626018Y-47670183D01*
X173671773Y-47722987D01*
X173682979Y-47774627D01*
X173675219Y-55300639D01*
X173655465Y-55367658D01*
X173643370Y-55383482D01*
X173567468Y-55467782D01*
X173567464Y-55467787D01*
X173472821Y-55631715D01*
X173472818Y-55631722D01*
X173430433Y-55762171D01*
X173414326Y-55811744D01*
X173394540Y-56000000D01*
X173414326Y-56188256D01*
X173414327Y-56188259D01*
X173472818Y-56368277D01*
X173472821Y-56368284D01*
X173567467Y-56532216D01*
X173663164Y-56638498D01*
X173694129Y-56672888D01*
X173847265Y-56784148D01*
X173847270Y-56784151D01*
X174020192Y-56861142D01*
X174020197Y-56861144D01*
X174205354Y-56900500D01*
X174205355Y-56900500D01*
X174394644Y-56900500D01*
X174394646Y-56900500D01*
X174579803Y-56861144D01*
X174752730Y-56784151D01*
X174905871Y-56672888D01*
X175032533Y-56532216D01*
X175127179Y-56368284D01*
X175185674Y-56188256D01*
X175205460Y-56000000D01*
X175185674Y-55811744D01*
X175127179Y-55631716D01*
X175032533Y-55467784D01*
X174972855Y-55401505D01*
X174958069Y-55385083D01*
X174927839Y-55322091D01*
X174926219Y-55301983D01*
X174933979Y-47774369D01*
X174953733Y-47707352D01*
X175006584Y-47661652D01*
X175057979Y-47650499D01*
X175207871Y-47650499D01*
X175207872Y-47650499D01*
X175267483Y-47644091D01*
X175402331Y-47593796D01*
X175505690Y-47516421D01*
X175571152Y-47492004D01*
X175639425Y-47506855D01*
X175654303Y-47516416D01*
X175730954Y-47573797D01*
X175757668Y-47593795D01*
X175757671Y-47593797D01*
X175892517Y-47644091D01*
X175892516Y-47644091D01*
X175899444Y-47644835D01*
X175952127Y-47650500D01*
X176785613Y-47650499D01*
X176796422Y-47650971D01*
X176850000Y-47655659D01*
X176903578Y-47650971D01*
X176914387Y-47650499D01*
X177747871Y-47650499D01*
X177747872Y-47650499D01*
X177807483Y-47644091D01*
X177942331Y-47593796D01*
X178045690Y-47516421D01*
X178111152Y-47492004D01*
X178179425Y-47506855D01*
X178194303Y-47516416D01*
X178270954Y-47573797D01*
X178297668Y-47593795D01*
X178297671Y-47593797D01*
X178432517Y-47644091D01*
X178432516Y-47644091D01*
X178439444Y-47644835D01*
X178492127Y-47650500D01*
X179325613Y-47650499D01*
X179336422Y-47650971D01*
X179390000Y-47655659D01*
X179443578Y-47650971D01*
X179454387Y-47650499D01*
X180287871Y-47650499D01*
X180287872Y-47650499D01*
X180347483Y-47644091D01*
X180482331Y-47593796D01*
X180585690Y-47516421D01*
X180651152Y-47492004D01*
X180719425Y-47506855D01*
X180734303Y-47516416D01*
X180810954Y-47573797D01*
X180837668Y-47593795D01*
X180837671Y-47593797D01*
X180972517Y-47644091D01*
X180972516Y-47644091D01*
X180979444Y-47644835D01*
X181032127Y-47650500D01*
X181865613Y-47650499D01*
X181876422Y-47650971D01*
X181930000Y-47655659D01*
X181983578Y-47650971D01*
X181994387Y-47650499D01*
X182827871Y-47650499D01*
X182827872Y-47650499D01*
X182887483Y-47644091D01*
X183022331Y-47593796D01*
X183126106Y-47516109D01*
X183191570Y-47491692D01*
X183259843Y-47506543D01*
X183274729Y-47516110D01*
X183377910Y-47593352D01*
X183377913Y-47593354D01*
X183512620Y-47643596D01*
X183512627Y-47643598D01*
X183572155Y-47649999D01*
X183572172Y-47650000D01*
X184220000Y-47650000D01*
X184220000Y-46746494D01*
X184324839Y-46794373D01*
X184433527Y-46810000D01*
X184506473Y-46810000D01*
X184615161Y-46794373D01*
X184720000Y-46746494D01*
X184720000Y-47650000D01*
X185367828Y-47650000D01*
X185367844Y-47649999D01*
X185427372Y-47643598D01*
X185427379Y-47643596D01*
X185562086Y-47593354D01*
X185562089Y-47593352D01*
X185665271Y-47516110D01*
X185730735Y-47491692D01*
X185799008Y-47506543D01*
X185813888Y-47516105D01*
X185890954Y-47573797D01*
X185917668Y-47593795D01*
X185917671Y-47593797D01*
X186052517Y-47644091D01*
X186052516Y-47644091D01*
X186059444Y-47644835D01*
X186112127Y-47650500D01*
X186945613Y-47650499D01*
X186956422Y-47650971D01*
X187010000Y-47655659D01*
X187063578Y-47650971D01*
X187074387Y-47650499D01*
X187907871Y-47650499D01*
X187907872Y-47650499D01*
X187967483Y-47644091D01*
X188102331Y-47593796D01*
X188205690Y-47516421D01*
X188271152Y-47492004D01*
X188339425Y-47506855D01*
X188354303Y-47516416D01*
X188430954Y-47573797D01*
X188457668Y-47593795D01*
X188457671Y-47593797D01*
X188592517Y-47644091D01*
X188592516Y-47644091D01*
X188599444Y-47644835D01*
X188652127Y-47650500D01*
X189485613Y-47650499D01*
X189496422Y-47650971D01*
X189550000Y-47655659D01*
X189603578Y-47650971D01*
X189614387Y-47650499D01*
X190447871Y-47650499D01*
X190447872Y-47650499D01*
X190507483Y-47644091D01*
X190642331Y-47593796D01*
X190745690Y-47516421D01*
X190811152Y-47492004D01*
X190879425Y-47506855D01*
X190894303Y-47516416D01*
X190970954Y-47573797D01*
X190997668Y-47593795D01*
X190997671Y-47593797D01*
X191042618Y-47610561D01*
X191132517Y-47644091D01*
X191192127Y-47650500D01*
X191340500Y-47650499D01*
X191407539Y-47670183D01*
X191453294Y-47722987D01*
X191464500Y-47774499D01*
X191464500Y-49935781D01*
X191444815Y-50002820D01*
X191432650Y-50018753D01*
X191307466Y-50157784D01*
X191212821Y-50321715D01*
X191212818Y-50321722D01*
X191158597Y-50488599D01*
X191154326Y-50501744D01*
X191134540Y-50690000D01*
X191154326Y-50878256D01*
X191154327Y-50878259D01*
X191212818Y-51058277D01*
X191212821Y-51058284D01*
X191307467Y-51222216D01*
X191431528Y-51359999D01*
X191434129Y-51362888D01*
X191587265Y-51474148D01*
X191587270Y-51474151D01*
X191760192Y-51551142D01*
X191760197Y-51551144D01*
X191945354Y-51590500D01*
X191945355Y-51590500D01*
X192134644Y-51590500D01*
X192134646Y-51590500D01*
X192319803Y-51551144D01*
X192492730Y-51474151D01*
X192645871Y-51362888D01*
X192772533Y-51222216D01*
X192867179Y-51058284D01*
X192925674Y-50878256D01*
X192945460Y-50690000D01*
X192925674Y-50501744D01*
X192867179Y-50321716D01*
X192792042Y-50191575D01*
X192772534Y-50157785D01*
X192772529Y-50157778D01*
X192747350Y-50129814D01*
X192717120Y-50066822D01*
X192715500Y-50046842D01*
X192715500Y-47774499D01*
X192735185Y-47707460D01*
X192787989Y-47661705D01*
X192839500Y-47650499D01*
X192987871Y-47650499D01*
X192987872Y-47650499D01*
X193047483Y-47644091D01*
X193182331Y-47593796D01*
X193285690Y-47516421D01*
X193351152Y-47492004D01*
X193419425Y-47506855D01*
X193434303Y-47516416D01*
X193510954Y-47573797D01*
X193537668Y-47593795D01*
X193537671Y-47593797D01*
X193672517Y-47644091D01*
X193672516Y-47644091D01*
X193679444Y-47644835D01*
X193732127Y-47650500D01*
X194565613Y-47650499D01*
X194576422Y-47650971D01*
X194630000Y-47655659D01*
X194683578Y-47650971D01*
X194694387Y-47650499D01*
X195527871Y-47650499D01*
X195527872Y-47650499D01*
X195587483Y-47644091D01*
X195722331Y-47593796D01*
X195826106Y-47516109D01*
X195891570Y-47491692D01*
X195959843Y-47506543D01*
X195974729Y-47516110D01*
X196077910Y-47593352D01*
X196077913Y-47593354D01*
X196212620Y-47643596D01*
X196212627Y-47643598D01*
X196272155Y-47649999D01*
X196272172Y-47650000D01*
X196920000Y-47650000D01*
X196920000Y-46746494D01*
X197024839Y-46794373D01*
X197133527Y-46810000D01*
X197206473Y-46810000D01*
X197315161Y-46794373D01*
X197420000Y-46746494D01*
X197420000Y-47650000D01*
X198067828Y-47650000D01*
X198067844Y-47649999D01*
X198127372Y-47643598D01*
X198127379Y-47643596D01*
X198262086Y-47593354D01*
X198262089Y-47593352D01*
X198365271Y-47516110D01*
X198430735Y-47491692D01*
X198499008Y-47506543D01*
X198513888Y-47516105D01*
X198590954Y-47573797D01*
X198617668Y-47593795D01*
X198617671Y-47593797D01*
X198752517Y-47644091D01*
X198752516Y-47644091D01*
X198759444Y-47644835D01*
X198812127Y-47650500D01*
X199645613Y-47650499D01*
X199656422Y-47650971D01*
X199710000Y-47655659D01*
X199763578Y-47650971D01*
X199774387Y-47650499D01*
X200607871Y-47650499D01*
X200607872Y-47650499D01*
X200667483Y-47644091D01*
X200802331Y-47593796D01*
X200905690Y-47516421D01*
X200971152Y-47492004D01*
X201039425Y-47506855D01*
X201054303Y-47516416D01*
X201130954Y-47573797D01*
X201157668Y-47593795D01*
X201157671Y-47593797D01*
X201292517Y-47644091D01*
X201292516Y-47644091D01*
X201299444Y-47644835D01*
X201352127Y-47650500D01*
X202185613Y-47650499D01*
X202196422Y-47650971D01*
X202250000Y-47655659D01*
X202303578Y-47650971D01*
X202314387Y-47650499D01*
X203147871Y-47650499D01*
X203147872Y-47650499D01*
X203207483Y-47644091D01*
X203342331Y-47593796D01*
X203445690Y-47516421D01*
X203511152Y-47492004D01*
X203579425Y-47506855D01*
X203594303Y-47516416D01*
X203670954Y-47573797D01*
X203697668Y-47593795D01*
X203697671Y-47593797D01*
X203742618Y-47610561D01*
X203832517Y-47644091D01*
X203892127Y-47650500D01*
X204045632Y-47650499D01*
X204112671Y-47670183D01*
X204158426Y-47722987D01*
X204169631Y-47774067D01*
X204212069Y-59953579D01*
X204192618Y-60020687D01*
X204180220Y-60036983D01*
X204107466Y-60117784D01*
X204012821Y-60281715D01*
X204012818Y-60281722D01*
X203954327Y-60461740D01*
X203954326Y-60461744D01*
X203934540Y-60650000D01*
X203954326Y-60838256D01*
X203954327Y-60838259D01*
X204012818Y-61018277D01*
X204012821Y-61018284D01*
X204107467Y-61182216D01*
X204199642Y-61284586D01*
X204234129Y-61322888D01*
X204387265Y-61434148D01*
X204387270Y-61434151D01*
X204560192Y-61511142D01*
X204560197Y-61511144D01*
X204745354Y-61550500D01*
X204745355Y-61550500D01*
X204934644Y-61550500D01*
X204934646Y-61550500D01*
X205119803Y-61511144D01*
X205292730Y-61434151D01*
X205445871Y-61322888D01*
X205572533Y-61182216D01*
X205667179Y-61018284D01*
X205725674Y-60838256D01*
X205745460Y-60650000D01*
X205725674Y-60461744D01*
X205667179Y-60281716D01*
X205572533Y-60117784D01*
X205494910Y-60031575D01*
X205464680Y-59968584D01*
X205463061Y-59949035D01*
X205420643Y-47774931D01*
X205440094Y-47707823D01*
X205492738Y-47661885D01*
X205544642Y-47650499D01*
X205687871Y-47650499D01*
X205687872Y-47650499D01*
X205747483Y-47644091D01*
X205882331Y-47593796D01*
X205985690Y-47516421D01*
X206051152Y-47492004D01*
X206119425Y-47506855D01*
X206134303Y-47516416D01*
X206210954Y-47573797D01*
X206237668Y-47593795D01*
X206237671Y-47593797D01*
X206282618Y-47610561D01*
X206372517Y-47644091D01*
X206432127Y-47650500D01*
X206577000Y-47650499D01*
X206644039Y-47670183D01*
X206689794Y-47722987D01*
X206701000Y-47774793D01*
X206676157Y-58249765D01*
X206656313Y-58316758D01*
X206644307Y-58332443D01*
X206567470Y-58417778D01*
X206567465Y-58417785D01*
X206472821Y-58581715D01*
X206472818Y-58581722D01*
X206415442Y-58758308D01*
X206414326Y-58761744D01*
X206394540Y-58950000D01*
X206414326Y-59138256D01*
X206414327Y-59138259D01*
X206472818Y-59318277D01*
X206472821Y-59318284D01*
X206567467Y-59482216D01*
X206641556Y-59564500D01*
X206694129Y-59622888D01*
X206847265Y-59734148D01*
X206847270Y-59734151D01*
X207020192Y-59811142D01*
X207020197Y-59811144D01*
X207205354Y-59850500D01*
X207205355Y-59850500D01*
X207394644Y-59850500D01*
X207394646Y-59850500D01*
X207579803Y-59811144D01*
X207752730Y-59734151D01*
X207905871Y-59622888D01*
X208032533Y-59482216D01*
X208127179Y-59318284D01*
X208185674Y-59138256D01*
X208205460Y-58950000D01*
X208185674Y-58761744D01*
X208127179Y-58581716D01*
X208032533Y-58417784D01*
X207959004Y-58336122D01*
X207928774Y-58273131D01*
X207927154Y-58252856D01*
X207927162Y-58249765D01*
X207928667Y-57615003D01*
X210534723Y-57615003D01*
X210536331Y-57633389D01*
X210536678Y-57649752D01*
X210535709Y-57671324D01*
X210535710Y-57671328D01*
X210535710Y-57671330D01*
X210538914Y-57694983D01*
X210546444Y-57750576D01*
X210547094Y-57756412D01*
X210553792Y-57832972D01*
X210553795Y-57832989D01*
X210559461Y-57854134D01*
X210562563Y-57869576D01*
X210565923Y-57894380D01*
X210565926Y-57894392D01*
X210589573Y-57967169D01*
X210591417Y-57973393D01*
X210610423Y-58044324D01*
X210610428Y-58044337D01*
X210621135Y-58067300D01*
X210626682Y-58081380D01*
X210635483Y-58108464D01*
X210655844Y-58146302D01*
X210670128Y-58172845D01*
X210673316Y-58179200D01*
X210702897Y-58242638D01*
X210702898Y-58242639D01*
X210719410Y-58266221D01*
X210727025Y-58278578D01*
X210742146Y-58306678D01*
X210742152Y-58306687D01*
X210785587Y-58361153D01*
X210790214Y-58367340D01*
X210815171Y-58402981D01*
X210828402Y-58421877D01*
X210828405Y-58421880D01*
X210851186Y-58444661D01*
X210860452Y-58455029D01*
X210882492Y-58482666D01*
X210932387Y-58526259D01*
X210938484Y-58531959D01*
X210983116Y-58576592D01*
X210983121Y-58576596D01*
X210983123Y-58576598D01*
X210993482Y-58583851D01*
X211012332Y-58597050D01*
X211022793Y-58605244D01*
X211052004Y-58630765D01*
X211052013Y-58630771D01*
X211105924Y-58662981D01*
X211113449Y-58667854D01*
X211162359Y-58702101D01*
X211162365Y-58702104D01*
X211197798Y-58718627D01*
X211208992Y-58724561D01*
X211245234Y-58746214D01*
X211245236Y-58746215D01*
X211257440Y-58750795D01*
X211300838Y-58767082D01*
X211309669Y-58770792D01*
X211353300Y-58791138D01*
X211360670Y-58794575D01*
X211360675Y-58794577D01*
X211401756Y-58805584D01*
X211413227Y-58809262D01*
X211455976Y-58825307D01*
X211511047Y-58835301D01*
X211520965Y-58837526D01*
X211572023Y-58851207D01*
X211617829Y-58855214D01*
X211629121Y-58856728D01*
X211677453Y-58865500D01*
X211729985Y-58865500D01*
X211740792Y-58865972D01*
X211789998Y-58870277D01*
X211790000Y-58870277D01*
X211840369Y-58865870D01*
X211845600Y-58865524D01*
X211846122Y-58865500D01*
X211846155Y-58865500D01*
X211899217Y-58860724D01*
X211900173Y-58860638D01*
X211900180Y-58860724D01*
X211900477Y-58860611D01*
X212007977Y-58851207D01*
X212007982Y-58851205D01*
X212010000Y-58851029D01*
X212012205Y-58850736D01*
X212014182Y-58850377D01*
X212014188Y-58850377D01*
X212117684Y-58821812D01*
X212118350Y-58821631D01*
X212219330Y-58794575D01*
X212219337Y-58794571D01*
X212223913Y-58792906D01*
X212229449Y-58791138D01*
X212231159Y-58790495D01*
X212231170Y-58790493D01*
X212324890Y-58745359D01*
X212326016Y-58744825D01*
X212417639Y-58702102D01*
X212417640Y-58702101D01*
X212422327Y-58699395D01*
X212422400Y-58699522D01*
X212433164Y-58693218D01*
X212433973Y-58692829D01*
X212515325Y-58633721D01*
X212516993Y-58632531D01*
X212596877Y-58576598D01*
X212597747Y-58575727D01*
X212612550Y-58563084D01*
X212616078Y-58560522D01*
X212683237Y-58490277D01*
X212685098Y-58488376D01*
X212751592Y-58421883D01*
X212751592Y-58421882D01*
X212751598Y-58421877D01*
X212754285Y-58418039D01*
X212766239Y-58403465D01*
X212771629Y-58397828D01*
X212771628Y-58397828D01*
X212771632Y-58397825D01*
X212823266Y-58319600D01*
X212825083Y-58316928D01*
X212877102Y-58242639D01*
X212880543Y-58235259D01*
X212889432Y-58219364D01*
X212895635Y-58209968D01*
X212931114Y-58126958D01*
X212932713Y-58123377D01*
X212969575Y-58044330D01*
X212972570Y-58033148D01*
X212978325Y-58016505D01*
X212984103Y-58002988D01*
X213003417Y-57918366D01*
X213004251Y-57915000D01*
X213414700Y-57915000D01*
X213414979Y-57918366D01*
X213421750Y-58000098D01*
X213422061Y-58005071D01*
X213425819Y-58093523D01*
X213425820Y-58093534D01*
X213430092Y-58113355D01*
X213432451Y-58129238D01*
X213433865Y-58146301D01*
X213433865Y-58146306D01*
X213455660Y-58232372D01*
X213456670Y-58236685D01*
X213476044Y-58326575D01*
X213476046Y-58326582D01*
X213482333Y-58342228D01*
X213487477Y-58358010D01*
X213490843Y-58371300D01*
X213527569Y-58455029D01*
X213527875Y-58455725D01*
X213529377Y-58459300D01*
X213564934Y-58547787D01*
X213564935Y-58547788D01*
X213571981Y-58559232D01*
X213579943Y-58574428D01*
X213584076Y-58583850D01*
X213636366Y-58663886D01*
X213638147Y-58666693D01*
X213689930Y-58750794D01*
X213696543Y-58758308D01*
X213707263Y-58772402D01*
X213711019Y-58778151D01*
X213711021Y-58778153D01*
X213778117Y-58851040D01*
X213779930Y-58853054D01*
X213847436Y-58929755D01*
X213852564Y-58933895D01*
X213865882Y-58946377D01*
X213868216Y-58948913D01*
X213923029Y-58991575D01*
X213949062Y-59011837D01*
X213950795Y-59013211D01*
X214032920Y-59079523D01*
X214032922Y-59079524D01*
X214035678Y-59081064D01*
X214051360Y-59091460D01*
X214051367Y-59091465D01*
X214051371Y-59091467D01*
X214051374Y-59091470D01*
X214144507Y-59141870D01*
X214145785Y-59142573D01*
X214225669Y-59187200D01*
X214241051Y-59195793D01*
X214243849Y-59197058D01*
X214250695Y-59200097D01*
X214250794Y-59199873D01*
X214255491Y-59201933D01*
X214255497Y-59201936D01*
X214358950Y-59237451D01*
X214359557Y-59237662D01*
X214465829Y-59275211D01*
X214465843Y-59275213D01*
X214467392Y-59275617D01*
X214473492Y-59276910D01*
X214474999Y-59277291D01*
X214475019Y-59277298D01*
X214586192Y-59295849D01*
X214586608Y-59295919D01*
X214612416Y-59300345D01*
X214700792Y-59315499D01*
X214700800Y-59315500D01*
X214936044Y-59315500D01*
X214936049Y-59315500D01*
X214990013Y-59306494D01*
X214999883Y-59305252D01*
X215057541Y-59300346D01*
X215106925Y-59287487D01*
X215117760Y-59285177D01*
X215164981Y-59277298D01*
X215219963Y-59258421D01*
X215228941Y-59255716D01*
X215288249Y-59240275D01*
X215331642Y-59220659D01*
X215342436Y-59216377D01*
X215384503Y-59201936D01*
X215438611Y-59172653D01*
X215446541Y-59168721D01*
X215505486Y-59142077D01*
X215542120Y-59117316D01*
X215552503Y-59111018D01*
X215588626Y-59091470D01*
X215639878Y-59051578D01*
X215646584Y-59046710D01*
X215703003Y-59008579D01*
X215732460Y-58980345D01*
X215742075Y-58972035D01*
X215771784Y-58948913D01*
X215818070Y-58898632D01*
X215823490Y-58893100D01*
X215875118Y-58843621D01*
X215897351Y-58813557D01*
X215905799Y-58803331D01*
X215928979Y-58778153D01*
X215968223Y-58718084D01*
X215972317Y-58712196D01*
X216016879Y-58651947D01*
X216032176Y-58621604D01*
X216039074Y-58609637D01*
X216055924Y-58583849D01*
X216086130Y-58514984D01*
X216088927Y-58509045D01*
X216124207Y-58439074D01*
X216133155Y-58409854D01*
X216138153Y-58396383D01*
X216149157Y-58371300D01*
X216168450Y-58295110D01*
X216170088Y-58289255D01*
X216184364Y-58242639D01*
X216194016Y-58211123D01*
X216197460Y-58184225D01*
X216200251Y-58169535D01*
X216201184Y-58165851D01*
X216206134Y-58146305D01*
X216212903Y-58064600D01*
X216213484Y-58059095D01*
X216215375Y-58044327D01*
X216224298Y-57974654D01*
X216223291Y-57950961D01*
X216223602Y-57935481D01*
X216225300Y-57915000D01*
X216223592Y-57894392D01*
X216220888Y-57861759D01*
X216218248Y-57829902D01*
X216217938Y-57824943D01*
X216217283Y-57809530D01*
X216214180Y-57736468D01*
X216209906Y-57716640D01*
X216207548Y-57700764D01*
X216206134Y-57683695D01*
X216204272Y-57676344D01*
X216197538Y-57649752D01*
X216184325Y-57597577D01*
X216183336Y-57593354D01*
X216163954Y-57503419D01*
X216157665Y-57487770D01*
X216152519Y-57471980D01*
X216149157Y-57458700D01*
X216112092Y-57374202D01*
X216110621Y-57370697D01*
X216106488Y-57360412D01*
X216075064Y-57282210D01*
X216068021Y-57270771D01*
X216060053Y-57255565D01*
X216055924Y-57246151D01*
X216003639Y-57166122D01*
X216001859Y-57163315D01*
X215950074Y-57079212D01*
X215950071Y-57079209D01*
X215950069Y-57079205D01*
X215943451Y-57071686D01*
X215932727Y-57057584D01*
X215928980Y-57051848D01*
X215905800Y-57026668D01*
X215861876Y-56978953D01*
X215860068Y-56976944D01*
X215859103Y-56975848D01*
X215793021Y-56900764D01*
X215792565Y-56900246D01*
X215790844Y-56898856D01*
X215787436Y-56896104D01*
X215774117Y-56883621D01*
X215771785Y-56881088D01*
X215771783Y-56881086D01*
X215690936Y-56818161D01*
X215689198Y-56816783D01*
X215607080Y-56750477D01*
X215607073Y-56750472D01*
X215604311Y-56748929D01*
X215588643Y-56738542D01*
X215588634Y-56738535D01*
X215588628Y-56738532D01*
X215588626Y-56738530D01*
X215495485Y-56688125D01*
X215494094Y-56687359D01*
X215398961Y-56634213D01*
X215396381Y-56633047D01*
X215389284Y-56629898D01*
X215389188Y-56630119D01*
X215384499Y-56628062D01*
X215281278Y-56592626D01*
X215280233Y-56592262D01*
X215174172Y-56554789D01*
X215172635Y-56554389D01*
X215166549Y-56553098D01*
X215164995Y-56552704D01*
X215053772Y-56534144D01*
X215053227Y-56534051D01*
X214939210Y-56514500D01*
X214939200Y-56514500D01*
X214936049Y-56514500D01*
X214703951Y-56514500D01*
X214649993Y-56523503D01*
X214640101Y-56524747D01*
X214582470Y-56529652D01*
X214582461Y-56529653D01*
X214533077Y-56542511D01*
X214522250Y-56544819D01*
X214475012Y-56552703D01*
X214420068Y-56571566D01*
X214411051Y-56574284D01*
X214351749Y-56589725D01*
X214351743Y-56589727D01*
X214308361Y-56609337D01*
X214297553Y-56613624D01*
X214255504Y-56628060D01*
X214255498Y-56628063D01*
X214201396Y-56657341D01*
X214193460Y-56661275D01*
X214134514Y-56687922D01*
X214097883Y-56712679D01*
X214087470Y-56718994D01*
X214051379Y-56738526D01*
X214051367Y-56738533D01*
X214000126Y-56778416D01*
X213993402Y-56783297D01*
X213937001Y-56821417D01*
X213936994Y-56821423D01*
X213907546Y-56849644D01*
X213897918Y-56857967D01*
X213868217Y-56881085D01*
X213868209Y-56881093D01*
X213821925Y-56931369D01*
X213816500Y-56936905D01*
X213764882Y-56986378D01*
X213764880Y-56986380D01*
X213742657Y-57016427D01*
X213734198Y-57026668D01*
X213711021Y-57051846D01*
X213671781Y-57111906D01*
X213667671Y-57117814D01*
X213623124Y-57178047D01*
X213623119Y-57178055D01*
X213607826Y-57208384D01*
X213600918Y-57220370D01*
X213584076Y-57246149D01*
X213563722Y-57292551D01*
X213555454Y-57311402D01*
X213553887Y-57314974D01*
X213551060Y-57320975D01*
X213518984Y-57384596D01*
X213515791Y-57390930D01*
X213506847Y-57420131D01*
X213501842Y-57433620D01*
X213490845Y-57458691D01*
X213490845Y-57458692D01*
X213471552Y-57534872D01*
X213469913Y-57540735D01*
X213445984Y-57618877D01*
X213445983Y-57618879D01*
X213442538Y-57645777D01*
X213439750Y-57660454D01*
X213433867Y-57683687D01*
X213433864Y-57683706D01*
X213427097Y-57765377D01*
X213426517Y-57770887D01*
X213415702Y-57855344D01*
X213415701Y-57855345D01*
X213416707Y-57879025D01*
X213416396Y-57894520D01*
X213414794Y-57913863D01*
X213414700Y-57915000D01*
X213004251Y-57915000D01*
X213004533Y-57913863D01*
X213009716Y-57894520D01*
X213026207Y-57832977D01*
X213027515Y-57818015D01*
X213030150Y-57801237D01*
X213034191Y-57783537D01*
X213037934Y-57700183D01*
X213038274Y-57695036D01*
X213045277Y-57615000D01*
X213043667Y-57596608D01*
X213043321Y-57580239D01*
X213044290Y-57558670D01*
X213033549Y-57479385D01*
X213032905Y-57473600D01*
X213026207Y-57397023D01*
X213026203Y-57397007D01*
X213020539Y-57375870D01*
X213017434Y-57360412D01*
X213014076Y-57335619D01*
X213014075Y-57335618D01*
X213014075Y-57335613D01*
X212990414Y-57262795D01*
X212988578Y-57256593D01*
X212978872Y-57220370D01*
X212969575Y-57185670D01*
X212958863Y-57162699D01*
X212953317Y-57148618D01*
X212944519Y-57121541D01*
X212944517Y-57121537D01*
X212944517Y-57121536D01*
X212909869Y-57057149D01*
X212906681Y-57050794D01*
X212880541Y-56994738D01*
X212877102Y-56987362D01*
X212860592Y-56963785D01*
X212852976Y-56951425D01*
X212847995Y-56942169D01*
X212837852Y-56923319D01*
X212794398Y-56868830D01*
X212789785Y-56862661D01*
X212751598Y-56808123D01*
X212728804Y-56785329D01*
X212719545Y-56774968D01*
X212718801Y-56774035D01*
X212697508Y-56747334D01*
X212697506Y-56747332D01*
X212647611Y-56703739D01*
X212641514Y-56698039D01*
X212596878Y-56653402D01*
X212567663Y-56632946D01*
X212557210Y-56624759D01*
X212527996Y-56599235D01*
X212525156Y-56597538D01*
X212474073Y-56567017D01*
X212466550Y-56562145D01*
X212417641Y-56527899D01*
X212382205Y-56511374D01*
X212371015Y-56505442D01*
X212334769Y-56483787D01*
X212334767Y-56483786D01*
X212326951Y-56480852D01*
X212279154Y-56462914D01*
X212270349Y-56459216D01*
X212219330Y-56435425D01*
X212217203Y-56434855D01*
X212178232Y-56424412D01*
X212166759Y-56420731D01*
X212124024Y-56404692D01*
X212068965Y-56394700D01*
X212059016Y-56392468D01*
X212007977Y-56378793D01*
X211962176Y-56374785D01*
X211950846Y-56373264D01*
X211902552Y-56364500D01*
X211902547Y-56364500D01*
X211850015Y-56364500D01*
X211839208Y-56364028D01*
X211790002Y-56359723D01*
X211789996Y-56359723D01*
X211739651Y-56364127D01*
X211734442Y-56364473D01*
X211733848Y-56364499D01*
X211679915Y-56369352D01*
X211679613Y-56369379D01*
X211582239Y-56377899D01*
X211572023Y-56378793D01*
X211572022Y-56378793D01*
X211570081Y-56378963D01*
X211567708Y-56379278D01*
X211565809Y-56379623D01*
X211462522Y-56408129D01*
X211461628Y-56408372D01*
X211360668Y-56435425D01*
X211356051Y-56437105D01*
X211350520Y-56438872D01*
X211348836Y-56439504D01*
X211255246Y-56484573D01*
X211253853Y-56485233D01*
X211162359Y-56527899D01*
X211157670Y-56530606D01*
X211157598Y-56530481D01*
X211146871Y-56536764D01*
X211146031Y-56537168D01*
X211064662Y-56596284D01*
X211062904Y-56597538D01*
X210983121Y-56653403D01*
X210982241Y-56654284D01*
X210967461Y-56666906D01*
X210963928Y-56669472D01*
X210963921Y-56669478D01*
X210896847Y-56739632D01*
X210894903Y-56741619D01*
X210828404Y-56808119D01*
X210828402Y-56808121D01*
X210825711Y-56811965D01*
X210813773Y-56826521D01*
X210808368Y-56832174D01*
X210789247Y-56861142D01*
X210756750Y-56910369D01*
X210754865Y-56913142D01*
X210702901Y-56987356D01*
X210702891Y-56987374D01*
X210699457Y-56994738D01*
X210690572Y-57010628D01*
X210684363Y-57020034D01*
X210648893Y-57103020D01*
X210647254Y-57106688D01*
X210610426Y-57185664D01*
X210610424Y-57185671D01*
X210607425Y-57196860D01*
X210601681Y-57213475D01*
X210595899Y-57227005D01*
X210595896Y-57227014D01*
X210576576Y-57311659D01*
X210575460Y-57316158D01*
X210553793Y-57397022D01*
X210552483Y-57411992D01*
X210549847Y-57428769D01*
X210545809Y-57446459D01*
X210545809Y-57446464D01*
X210542066Y-57529777D01*
X210541719Y-57535016D01*
X210534723Y-57614995D01*
X210534723Y-57615003D01*
X207928667Y-57615003D01*
X207938758Y-53359968D01*
X207940169Y-52765003D01*
X210534723Y-52765003D01*
X210536331Y-52783389D01*
X210536678Y-52799752D01*
X210535709Y-52821324D01*
X210535710Y-52821328D01*
X210535710Y-52821330D01*
X210539269Y-52847602D01*
X210546444Y-52900576D01*
X210547094Y-52906412D01*
X210553792Y-52982972D01*
X210553795Y-52982989D01*
X210559461Y-53004134D01*
X210562563Y-53019576D01*
X210565923Y-53044380D01*
X210565925Y-53044387D01*
X210589577Y-53117183D01*
X210591416Y-53123388D01*
X210610423Y-53194325D01*
X210610428Y-53194337D01*
X210621135Y-53217300D01*
X210626682Y-53231380D01*
X210634297Y-53254815D01*
X210635483Y-53258464D01*
X210669889Y-53322402D01*
X210670128Y-53322845D01*
X210673316Y-53329200D01*
X210702897Y-53392638D01*
X210708212Y-53400229D01*
X210719410Y-53416221D01*
X210727025Y-53428578D01*
X210742146Y-53456678D01*
X210742152Y-53456687D01*
X210785587Y-53511153D01*
X210790214Y-53517340D01*
X210811592Y-53547870D01*
X210828402Y-53571877D01*
X210828405Y-53571880D01*
X210851186Y-53594661D01*
X210860452Y-53605029D01*
X210882492Y-53632666D01*
X210932387Y-53676259D01*
X210938484Y-53681959D01*
X210983116Y-53726592D01*
X210983121Y-53726596D01*
X210983123Y-53726598D01*
X210999170Y-53737834D01*
X211012332Y-53747050D01*
X211022793Y-53755244D01*
X211052004Y-53780765D01*
X211052013Y-53780771D01*
X211105924Y-53812981D01*
X211113449Y-53817854D01*
X211162359Y-53852101D01*
X211162365Y-53852104D01*
X211197798Y-53868627D01*
X211208992Y-53874561D01*
X211245234Y-53896214D01*
X211245236Y-53896215D01*
X211255319Y-53899999D01*
X211300838Y-53917082D01*
X211309669Y-53920792D01*
X211360670Y-53944575D01*
X211360675Y-53944577D01*
X211401756Y-53955584D01*
X211413227Y-53959262D01*
X211455976Y-53975307D01*
X211511047Y-53985301D01*
X211520965Y-53987526D01*
X211572023Y-54001207D01*
X211617829Y-54005214D01*
X211629121Y-54006728D01*
X211677453Y-54015500D01*
X211729985Y-54015500D01*
X211740792Y-54015972D01*
X211789998Y-54020277D01*
X211790000Y-54020277D01*
X211840369Y-54015870D01*
X211845600Y-54015524D01*
X211846122Y-54015500D01*
X211846155Y-54015500D01*
X211899217Y-54010724D01*
X211900173Y-54010638D01*
X211900180Y-54010724D01*
X211900477Y-54010611D01*
X212007977Y-54001207D01*
X212007982Y-54001205D01*
X212010000Y-54001029D01*
X212012205Y-54000736D01*
X212014182Y-54000377D01*
X212014188Y-54000377D01*
X212117684Y-53971812D01*
X212118350Y-53971631D01*
X212219330Y-53944575D01*
X212219337Y-53944571D01*
X212223913Y-53942906D01*
X212229449Y-53941138D01*
X212231159Y-53940495D01*
X212231170Y-53940493D01*
X212324890Y-53895359D01*
X212326016Y-53894825D01*
X212417639Y-53852102D01*
X212417640Y-53852101D01*
X212422327Y-53849395D01*
X212422400Y-53849522D01*
X212433164Y-53843218D01*
X212433973Y-53842829D01*
X212515325Y-53783721D01*
X212516993Y-53782531D01*
X212596877Y-53726598D01*
X212597747Y-53725727D01*
X212612550Y-53713084D01*
X212616078Y-53710522D01*
X212683237Y-53640277D01*
X212685098Y-53638376D01*
X212751592Y-53571883D01*
X212751592Y-53571882D01*
X212751598Y-53571877D01*
X212754285Y-53568039D01*
X212766239Y-53553465D01*
X212771629Y-53547828D01*
X212771628Y-53547828D01*
X212771632Y-53547825D01*
X212823266Y-53469600D01*
X212825083Y-53466928D01*
X212877102Y-53392639D01*
X212880543Y-53385259D01*
X212889432Y-53369364D01*
X212895635Y-53359968D01*
X212931114Y-53276958D01*
X212932713Y-53273377D01*
X212969575Y-53194330D01*
X212972570Y-53183148D01*
X212978325Y-53166505D01*
X212981264Y-53159629D01*
X212984103Y-53152988D01*
X212990622Y-53124428D01*
X213003417Y-53068366D01*
X213004533Y-53063863D01*
X213005568Y-53060000D01*
X213026207Y-52982977D01*
X213027515Y-52968015D01*
X213030150Y-52951237D01*
X213034191Y-52933537D01*
X213037934Y-52850183D01*
X213038274Y-52845036D01*
X213045277Y-52765000D01*
X213043667Y-52746608D01*
X213043321Y-52730239D01*
X213044290Y-52708670D01*
X213033549Y-52629385D01*
X213032905Y-52623600D01*
X213026207Y-52547023D01*
X213022727Y-52534035D01*
X213020539Y-52525870D01*
X213017434Y-52510412D01*
X213014076Y-52485619D01*
X213014075Y-52485618D01*
X213014075Y-52485613D01*
X213007376Y-52464998D01*
X213414700Y-52464998D01*
X213421750Y-52550098D01*
X213422061Y-52555071D01*
X213425819Y-52643523D01*
X213425820Y-52643534D01*
X213430092Y-52663355D01*
X213432451Y-52679238D01*
X213433865Y-52696301D01*
X213433865Y-52696306D01*
X213455660Y-52782372D01*
X213456670Y-52786685D01*
X213476044Y-52876575D01*
X213476046Y-52876582D01*
X213482333Y-52892228D01*
X213487477Y-52908010D01*
X213490843Y-52921300D01*
X213526970Y-53003663D01*
X213527875Y-53005725D01*
X213529377Y-53009300D01*
X213564934Y-53097787D01*
X213564935Y-53097788D01*
X213571981Y-53109232D01*
X213579943Y-53124428D01*
X213584076Y-53133850D01*
X213636366Y-53213886D01*
X213638142Y-53216686D01*
X213641519Y-53222169D01*
X213689930Y-53300794D01*
X213696543Y-53308308D01*
X213707263Y-53322402D01*
X213711019Y-53328151D01*
X213711021Y-53328153D01*
X213778117Y-53401040D01*
X213779930Y-53403054D01*
X213847436Y-53479755D01*
X213852564Y-53483895D01*
X213865882Y-53496377D01*
X213868216Y-53498913D01*
X213949062Y-53561837D01*
X213950795Y-53563211D01*
X214032920Y-53629523D01*
X214032922Y-53629524D01*
X214035678Y-53631064D01*
X214051360Y-53641460D01*
X214051367Y-53641465D01*
X214051371Y-53641467D01*
X214051374Y-53641470D01*
X214144507Y-53691870D01*
X214145785Y-53692573D01*
X214225669Y-53737200D01*
X214241051Y-53745793D01*
X214243849Y-53747058D01*
X214250695Y-53750097D01*
X214250794Y-53749873D01*
X214255491Y-53751933D01*
X214255497Y-53751936D01*
X214358950Y-53787451D01*
X214359557Y-53787662D01*
X214465829Y-53825211D01*
X214465843Y-53825213D01*
X214467392Y-53825617D01*
X214473492Y-53826910D01*
X214474999Y-53827291D01*
X214475019Y-53827298D01*
X214586192Y-53845849D01*
X214586608Y-53845919D01*
X214606876Y-53849395D01*
X214700792Y-53865499D01*
X214700800Y-53865500D01*
X214936044Y-53865500D01*
X214936049Y-53865500D01*
X214990013Y-53856494D01*
X214999883Y-53855252D01*
X215057541Y-53850346D01*
X215106925Y-53837487D01*
X215117760Y-53835177D01*
X215164981Y-53827298D01*
X215219963Y-53808421D01*
X215228941Y-53805716D01*
X215288249Y-53790275D01*
X215331642Y-53770659D01*
X215342436Y-53766377D01*
X215384503Y-53751936D01*
X215438611Y-53722653D01*
X215446541Y-53718721D01*
X215505486Y-53692077D01*
X215542120Y-53667316D01*
X215552503Y-53661018D01*
X215588626Y-53641470D01*
X215639878Y-53601578D01*
X215646584Y-53596710D01*
X215703003Y-53558579D01*
X215732460Y-53530345D01*
X215742075Y-53522035D01*
X215771784Y-53498913D01*
X215818070Y-53448632D01*
X215823490Y-53443100D01*
X215875118Y-53393621D01*
X215897351Y-53363557D01*
X215905799Y-53353331D01*
X215928979Y-53328153D01*
X215968223Y-53268084D01*
X215972317Y-53262196D01*
X216016879Y-53201947D01*
X216032176Y-53171604D01*
X216039074Y-53159637D01*
X216055924Y-53133849D01*
X216086130Y-53064984D01*
X216088927Y-53059045D01*
X216124207Y-52989074D01*
X216133155Y-52959854D01*
X216138153Y-52946383D01*
X216149157Y-52921300D01*
X216168450Y-52845110D01*
X216170088Y-52839255D01*
X216194015Y-52761126D01*
X216194016Y-52761121D01*
X216195664Y-52748256D01*
X216197460Y-52734225D01*
X216200251Y-52719535D01*
X216203002Y-52708673D01*
X216206134Y-52696305D01*
X216212903Y-52614600D01*
X216213484Y-52609095D01*
X216213688Y-52607500D01*
X216224298Y-52524654D01*
X216223291Y-52500961D01*
X216223602Y-52485481D01*
X216225300Y-52465000D01*
X216225209Y-52463907D01*
X216220357Y-52405344D01*
X216218248Y-52379902D01*
X216217938Y-52374943D01*
X216215294Y-52312709D01*
X216214180Y-52286468D01*
X216209906Y-52266640D01*
X216207548Y-52250764D01*
X216206134Y-52233695D01*
X216205553Y-52231402D01*
X216199411Y-52207149D01*
X216184325Y-52147577D01*
X216183336Y-52143354D01*
X216163954Y-52053419D01*
X216157665Y-52037770D01*
X216152519Y-52021980D01*
X216149157Y-52008700D01*
X216112092Y-51924202D01*
X216110621Y-51920697D01*
X216104758Y-51906107D01*
X216075064Y-51832210D01*
X216069802Y-51823664D01*
X216068021Y-51820771D01*
X216060053Y-51805565D01*
X216055924Y-51796151D01*
X216003639Y-51716122D01*
X216001859Y-51713315D01*
X215950074Y-51629212D01*
X215950071Y-51629209D01*
X215950069Y-51629205D01*
X215943451Y-51621686D01*
X215932727Y-51607584D01*
X215928980Y-51601848D01*
X215917619Y-51589507D01*
X215861876Y-51528953D01*
X215860068Y-51526944D01*
X215848700Y-51514028D01*
X215792564Y-51450245D01*
X215787436Y-51446104D01*
X215774117Y-51433621D01*
X215771785Y-51431088D01*
X215771783Y-51431086D01*
X215690936Y-51368161D01*
X215689198Y-51366783D01*
X215607080Y-51300477D01*
X215607073Y-51300472D01*
X215604311Y-51298929D01*
X215588643Y-51288542D01*
X215588634Y-51288535D01*
X215588628Y-51288532D01*
X215588626Y-51288530D01*
X215495485Y-51238125D01*
X215494094Y-51237359D01*
X215398961Y-51184213D01*
X215396381Y-51183047D01*
X215389284Y-51179898D01*
X215389188Y-51180119D01*
X215384499Y-51178062D01*
X215281278Y-51142626D01*
X215280233Y-51142262D01*
X215174172Y-51104789D01*
X215172635Y-51104389D01*
X215166549Y-51103098D01*
X215164995Y-51102704D01*
X215053772Y-51084144D01*
X215053227Y-51084051D01*
X214939210Y-51064500D01*
X214939200Y-51064500D01*
X214936049Y-51064500D01*
X214703951Y-51064500D01*
X214649993Y-51073503D01*
X214640101Y-51074747D01*
X214582470Y-51079652D01*
X214582461Y-51079653D01*
X214533077Y-51092511D01*
X214522250Y-51094819D01*
X214475012Y-51102703D01*
X214420068Y-51121566D01*
X214411051Y-51124284D01*
X214351749Y-51139725D01*
X214351743Y-51139727D01*
X214308361Y-51159337D01*
X214297553Y-51163624D01*
X214255504Y-51178060D01*
X214255498Y-51178063D01*
X214201396Y-51207341D01*
X214193460Y-51211275D01*
X214134514Y-51237922D01*
X214097883Y-51262679D01*
X214087470Y-51268994D01*
X214051379Y-51288526D01*
X214051367Y-51288533D01*
X214000126Y-51328416D01*
X213993402Y-51333297D01*
X213937001Y-51371417D01*
X213936994Y-51371423D01*
X213907546Y-51399644D01*
X213897918Y-51407967D01*
X213868217Y-51431085D01*
X213868209Y-51431093D01*
X213821925Y-51481369D01*
X213816500Y-51486905D01*
X213764882Y-51536378D01*
X213764880Y-51536380D01*
X213742657Y-51566427D01*
X213734198Y-51576668D01*
X213711021Y-51601846D01*
X213671781Y-51661906D01*
X213667671Y-51667814D01*
X213623124Y-51728047D01*
X213623119Y-51728055D01*
X213607826Y-51758384D01*
X213600918Y-51770370D01*
X213584076Y-51796149D01*
X213566158Y-51836998D01*
X213556603Y-51858783D01*
X213553887Y-51864974D01*
X213551060Y-51870975D01*
X213524189Y-51924274D01*
X213515791Y-51940930D01*
X213506847Y-51970131D01*
X213501842Y-51983620D01*
X213490845Y-52008691D01*
X213490845Y-52008692D01*
X213471552Y-52084872D01*
X213469913Y-52090735D01*
X213445984Y-52168877D01*
X213445983Y-52168879D01*
X213442538Y-52195777D01*
X213439750Y-52210454D01*
X213433867Y-52233687D01*
X213433864Y-52233706D01*
X213427097Y-52315377D01*
X213426517Y-52320887D01*
X213415702Y-52405344D01*
X213415701Y-52405345D01*
X213416707Y-52429025D01*
X213416396Y-52444520D01*
X213414700Y-52464998D01*
X213007376Y-52464998D01*
X212990414Y-52412795D01*
X212988578Y-52406593D01*
X212969576Y-52335674D01*
X212969575Y-52335671D01*
X212969575Y-52335670D01*
X212958863Y-52312699D01*
X212953317Y-52298618D01*
X212944519Y-52271541D01*
X212944517Y-52271537D01*
X212944517Y-52271536D01*
X212909869Y-52207149D01*
X212906681Y-52200794D01*
X212892336Y-52170032D01*
X212877102Y-52137362D01*
X212860592Y-52113785D01*
X212852976Y-52101425D01*
X212837852Y-52073319D01*
X212794398Y-52018830D01*
X212789785Y-52012661D01*
X212751598Y-51958123D01*
X212728804Y-51935329D01*
X212719545Y-51924968D01*
X212697506Y-51897332D01*
X212647611Y-51853739D01*
X212641514Y-51848039D01*
X212596878Y-51803402D01*
X212567663Y-51782946D01*
X212557210Y-51774759D01*
X212527996Y-51749235D01*
X212525156Y-51747538D01*
X212474073Y-51717017D01*
X212466550Y-51712145D01*
X212417641Y-51677899D01*
X212382205Y-51661374D01*
X212371015Y-51655442D01*
X212334769Y-51633787D01*
X212334767Y-51633786D01*
X212322560Y-51629205D01*
X212279154Y-51612914D01*
X212270349Y-51609216D01*
X212219330Y-51585425D01*
X212178232Y-51574412D01*
X212166759Y-51570731D01*
X212124024Y-51554692D01*
X212068965Y-51544700D01*
X212059016Y-51542468D01*
X212007977Y-51528793D01*
X211962176Y-51524785D01*
X211950846Y-51523264D01*
X211902552Y-51514500D01*
X211902547Y-51514500D01*
X211850015Y-51514500D01*
X211839208Y-51514028D01*
X211790002Y-51509723D01*
X211789996Y-51509723D01*
X211739651Y-51514127D01*
X211734442Y-51514473D01*
X211733848Y-51514499D01*
X211679915Y-51519352D01*
X211679613Y-51519379D01*
X211582239Y-51527899D01*
X211572023Y-51528793D01*
X211572022Y-51528793D01*
X211570081Y-51528963D01*
X211567708Y-51529278D01*
X211565809Y-51529623D01*
X211462522Y-51558129D01*
X211461628Y-51558372D01*
X211360668Y-51585425D01*
X211356051Y-51587105D01*
X211350520Y-51588872D01*
X211348836Y-51589504D01*
X211255246Y-51634573D01*
X211253853Y-51635233D01*
X211162359Y-51677899D01*
X211157670Y-51680606D01*
X211157598Y-51680481D01*
X211146871Y-51686764D01*
X211146031Y-51687168D01*
X211064662Y-51746284D01*
X211062904Y-51747538D01*
X210983121Y-51803403D01*
X210982241Y-51804284D01*
X210967461Y-51816906D01*
X210963928Y-51819472D01*
X210963921Y-51819478D01*
X210896847Y-51889632D01*
X210894903Y-51891619D01*
X210828404Y-51958119D01*
X210828402Y-51958121D01*
X210825711Y-51961965D01*
X210813773Y-51976521D01*
X210808368Y-51982174D01*
X210788253Y-52012647D01*
X210756750Y-52060369D01*
X210754865Y-52063142D01*
X210702901Y-52137356D01*
X210702891Y-52137374D01*
X210699457Y-52144738D01*
X210690572Y-52160628D01*
X210684363Y-52170034D01*
X210648893Y-52253020D01*
X210647254Y-52256688D01*
X210610426Y-52335664D01*
X210610424Y-52335671D01*
X210607425Y-52346860D01*
X210601681Y-52363475D01*
X210595899Y-52377005D01*
X210595896Y-52377014D01*
X210576576Y-52461659D01*
X210575460Y-52466158D01*
X210553793Y-52547022D01*
X210552483Y-52561992D01*
X210549847Y-52578769D01*
X210545809Y-52596459D01*
X210545809Y-52596464D01*
X210542066Y-52679777D01*
X210541719Y-52685016D01*
X210534723Y-52764995D01*
X210534723Y-52765003D01*
X207940169Y-52765003D01*
X207952006Y-47774205D01*
X207971850Y-47707212D01*
X208024762Y-47661583D01*
X208076006Y-47650499D01*
X208227871Y-47650499D01*
X208227872Y-47650499D01*
X208287483Y-47644091D01*
X208422331Y-47593796D01*
X208526106Y-47516109D01*
X208591570Y-47491692D01*
X208659843Y-47506543D01*
X208674729Y-47516110D01*
X208777910Y-47593352D01*
X208777913Y-47593354D01*
X208912620Y-47643596D01*
X208912627Y-47643598D01*
X208972155Y-47649999D01*
X208972172Y-47650000D01*
X209620000Y-47650000D01*
X209620000Y-46746494D01*
X209724839Y-46794373D01*
X209833527Y-46810000D01*
X209906473Y-46810000D01*
X210015161Y-46794373D01*
X210120000Y-46746494D01*
X210120000Y-47650000D01*
X210767828Y-47650000D01*
X210767844Y-47649999D01*
X210827372Y-47643598D01*
X210827379Y-47643596D01*
X210962086Y-47593354D01*
X210962089Y-47593352D01*
X211065271Y-47516110D01*
X211130735Y-47491692D01*
X211199008Y-47506543D01*
X211213888Y-47516105D01*
X211290954Y-47573797D01*
X211317668Y-47593795D01*
X211317671Y-47593797D01*
X211452517Y-47644091D01*
X211452516Y-47644091D01*
X211459444Y-47644835D01*
X211512127Y-47650500D01*
X212345613Y-47650499D01*
X212356422Y-47650971D01*
X212410000Y-47655659D01*
X212463578Y-47650971D01*
X212474387Y-47650499D01*
X213307871Y-47650499D01*
X213307872Y-47650499D01*
X213367483Y-47644091D01*
X213502331Y-47593796D01*
X213605690Y-47516421D01*
X213671152Y-47492004D01*
X213739425Y-47506855D01*
X213754303Y-47516416D01*
X213830954Y-47573797D01*
X213857668Y-47593795D01*
X213857671Y-47593797D01*
X213992517Y-47644091D01*
X213992516Y-47644091D01*
X213999444Y-47644835D01*
X214052127Y-47650500D01*
X214885613Y-47650499D01*
X214896422Y-47650971D01*
X214950000Y-47655659D01*
X215003578Y-47650971D01*
X215014387Y-47650499D01*
X215847871Y-47650499D01*
X215847872Y-47650499D01*
X215907483Y-47644091D01*
X216042331Y-47593796D01*
X216157546Y-47507546D01*
X216243796Y-47392331D01*
X216294091Y-47257483D01*
X216300500Y-47197873D01*
X216300499Y-46364381D01*
X216300971Y-46353572D01*
X216305659Y-46300000D01*
X216300971Y-46246424D01*
X216300499Y-46235615D01*
X216300499Y-43770000D01*
X218174341Y-43770000D01*
X218194936Y-44005403D01*
X218194938Y-44005413D01*
X218256094Y-44233655D01*
X218256096Y-44233659D01*
X218256097Y-44233663D01*
X218281911Y-44289020D01*
X218355964Y-44447828D01*
X218355965Y-44447830D01*
X218491505Y-44641402D01*
X218658597Y-44808494D01*
X218852169Y-44944034D01*
X218852171Y-44944035D01*
X219066337Y-45043903D01*
X219294592Y-45105063D01*
X219471032Y-45120499D01*
X219471033Y-45120500D01*
X219471034Y-45120500D01*
X219588967Y-45120500D01*
X219588967Y-45120499D01*
X219765408Y-45105063D01*
X219993663Y-45043903D01*
X220207829Y-44944035D01*
X220401401Y-44808495D01*
X220568495Y-44641401D01*
X220704035Y-44447830D01*
X220803903Y-44233663D01*
X220865063Y-44005408D01*
X220885659Y-43770000D01*
X220865063Y-43534592D01*
X220803903Y-43306337D01*
X220704035Y-43092171D01*
X220704034Y-43092169D01*
X220568494Y-42898597D01*
X220401402Y-42731505D01*
X220207830Y-42595965D01*
X220207828Y-42595964D01*
X220057779Y-42525995D01*
X219993663Y-42496097D01*
X219993659Y-42496096D01*
X219993655Y-42496094D01*
X219765413Y-42434938D01*
X219765403Y-42434936D01*
X219588967Y-42419500D01*
X219588966Y-42419500D01*
X219471034Y-42419500D01*
X219471033Y-42419500D01*
X219294596Y-42434936D01*
X219294586Y-42434938D01*
X219066344Y-42496094D01*
X219066337Y-42496096D01*
X219066337Y-42496097D01*
X219058104Y-42499936D01*
X218852171Y-42595964D01*
X218852169Y-42595965D01*
X218658597Y-42731505D01*
X218491506Y-42898597D01*
X218491501Y-42898604D01*
X218355967Y-43092165D01*
X218355965Y-43092169D01*
X218256098Y-43306335D01*
X218256094Y-43306344D01*
X218194938Y-43534586D01*
X218194936Y-43534596D01*
X218174341Y-43769999D01*
X218174341Y-43770000D01*
X216300499Y-43770000D01*
X216300499Y-43602129D01*
X216300498Y-43602123D01*
X216294091Y-43542516D01*
X216243797Y-43407671D01*
X216243793Y-43407664D01*
X216157547Y-43292455D01*
X216157544Y-43292452D01*
X216042335Y-43206206D01*
X216042328Y-43206202D01*
X215907482Y-43155908D01*
X215907483Y-43155908D01*
X215847883Y-43149501D01*
X215847881Y-43149500D01*
X215847873Y-43149500D01*
X215847864Y-43149500D01*
X214052129Y-43149500D01*
X214052123Y-43149501D01*
X213992516Y-43155908D01*
X213857671Y-43206202D01*
X213857669Y-43206203D01*
X213754311Y-43283578D01*
X213688847Y-43307995D01*
X213620574Y-43293144D01*
X213605689Y-43283578D01*
X213502330Y-43206203D01*
X213502328Y-43206202D01*
X213367482Y-43155908D01*
X213367483Y-43155908D01*
X213307883Y-43149501D01*
X213307881Y-43149500D01*
X213307873Y-43149500D01*
X213307864Y-43149500D01*
X211512129Y-43149500D01*
X211512123Y-43149501D01*
X211452516Y-43155908D01*
X211317671Y-43206202D01*
X211317669Y-43206204D01*
X211213894Y-43283890D01*
X211148430Y-43308307D01*
X211080157Y-43293456D01*
X211065272Y-43283890D01*
X210962088Y-43206646D01*
X210962086Y-43206645D01*
X210827379Y-43156403D01*
X210827372Y-43156401D01*
X210767844Y-43150000D01*
X210120000Y-43150000D01*
X210120000Y-45853505D01*
X210015161Y-45805627D01*
X209906473Y-45790000D01*
X209833527Y-45790000D01*
X209724839Y-45805627D01*
X209620000Y-45853505D01*
X209620000Y-43150000D01*
X208972155Y-43150000D01*
X208912627Y-43156401D01*
X208912620Y-43156403D01*
X208777913Y-43206645D01*
X208777910Y-43206647D01*
X208674727Y-43283890D01*
X208609262Y-43308307D01*
X208540989Y-43293455D01*
X208526105Y-43283889D01*
X208422335Y-43206206D01*
X208422328Y-43206202D01*
X208287482Y-43155908D01*
X208287483Y-43155908D01*
X208227883Y-43149501D01*
X208227881Y-43149500D01*
X208227873Y-43149500D01*
X208227864Y-43149500D01*
X206432129Y-43149500D01*
X206432123Y-43149501D01*
X206372516Y-43155908D01*
X206237671Y-43206202D01*
X206237669Y-43206203D01*
X206134311Y-43283578D01*
X206068847Y-43307995D01*
X206000574Y-43293144D01*
X205985689Y-43283578D01*
X205882330Y-43206203D01*
X205882328Y-43206202D01*
X205747482Y-43155908D01*
X205747483Y-43155908D01*
X205687883Y-43149501D01*
X205687881Y-43149500D01*
X205687873Y-43149500D01*
X205687864Y-43149500D01*
X203892129Y-43149500D01*
X203892123Y-43149501D01*
X203832516Y-43155908D01*
X203697671Y-43206202D01*
X203697669Y-43206203D01*
X203594311Y-43283578D01*
X203528847Y-43307995D01*
X203460574Y-43293144D01*
X203445689Y-43283578D01*
X203342330Y-43206203D01*
X203342328Y-43206202D01*
X203207482Y-43155908D01*
X203207483Y-43155908D01*
X203147883Y-43149501D01*
X203147881Y-43149500D01*
X203147873Y-43149500D01*
X203147864Y-43149500D01*
X201352129Y-43149500D01*
X201352123Y-43149501D01*
X201292516Y-43155908D01*
X201157671Y-43206202D01*
X201157669Y-43206203D01*
X201054311Y-43283578D01*
X200988847Y-43307995D01*
X200920574Y-43293144D01*
X200905689Y-43283578D01*
X200802330Y-43206203D01*
X200802328Y-43206202D01*
X200667482Y-43155908D01*
X200667483Y-43155908D01*
X200607883Y-43149501D01*
X200607881Y-43149500D01*
X200607873Y-43149500D01*
X200607864Y-43149500D01*
X198812129Y-43149500D01*
X198812123Y-43149501D01*
X198752516Y-43155908D01*
X198617671Y-43206202D01*
X198617669Y-43206204D01*
X198513894Y-43283890D01*
X198448430Y-43308307D01*
X198380157Y-43293456D01*
X198365272Y-43283890D01*
X198262088Y-43206646D01*
X198262086Y-43206645D01*
X198127379Y-43156403D01*
X198127372Y-43156401D01*
X198067844Y-43150000D01*
X197420000Y-43150000D01*
X197420000Y-45853505D01*
X197315161Y-45805627D01*
X197206473Y-45790000D01*
X197133527Y-45790000D01*
X197024839Y-45805627D01*
X196920000Y-45853505D01*
X196920000Y-43150000D01*
X196272155Y-43150000D01*
X196212627Y-43156401D01*
X196212620Y-43156403D01*
X196077913Y-43206645D01*
X196077910Y-43206647D01*
X195974727Y-43283890D01*
X195909262Y-43308307D01*
X195840989Y-43293455D01*
X195826105Y-43283889D01*
X195722335Y-43206206D01*
X195722328Y-43206202D01*
X195587482Y-43155908D01*
X195587483Y-43155908D01*
X195527883Y-43149501D01*
X195527881Y-43149500D01*
X195527873Y-43149500D01*
X195527864Y-43149500D01*
X193732129Y-43149500D01*
X193732123Y-43149501D01*
X193672516Y-43155908D01*
X193537671Y-43206202D01*
X193537669Y-43206203D01*
X193434311Y-43283578D01*
X193368847Y-43307995D01*
X193300574Y-43293144D01*
X193285689Y-43283578D01*
X193182330Y-43206203D01*
X193182328Y-43206202D01*
X193047482Y-43155908D01*
X193047483Y-43155908D01*
X192987883Y-43149501D01*
X192987881Y-43149500D01*
X192987873Y-43149500D01*
X192987864Y-43149500D01*
X191192129Y-43149500D01*
X191192123Y-43149501D01*
X191132516Y-43155908D01*
X190997671Y-43206202D01*
X190997669Y-43206203D01*
X190894311Y-43283578D01*
X190828847Y-43307995D01*
X190760574Y-43293144D01*
X190745689Y-43283578D01*
X190642330Y-43206203D01*
X190642328Y-43206202D01*
X190507482Y-43155908D01*
X190507483Y-43155908D01*
X190447883Y-43149501D01*
X190447881Y-43149500D01*
X190447873Y-43149500D01*
X190447864Y-43149500D01*
X188652129Y-43149500D01*
X188652123Y-43149501D01*
X188592516Y-43155908D01*
X188457671Y-43206202D01*
X188457669Y-43206203D01*
X188354311Y-43283578D01*
X188288847Y-43307995D01*
X188220574Y-43293144D01*
X188205689Y-43283578D01*
X188102330Y-43206203D01*
X188102328Y-43206202D01*
X187967482Y-43155908D01*
X187967483Y-43155908D01*
X187907883Y-43149501D01*
X187907881Y-43149500D01*
X187907873Y-43149500D01*
X187907864Y-43149500D01*
X186112129Y-43149500D01*
X186112123Y-43149501D01*
X186052516Y-43155908D01*
X185917671Y-43206202D01*
X185917669Y-43206204D01*
X185813894Y-43283890D01*
X185748430Y-43308307D01*
X185680157Y-43293456D01*
X185665272Y-43283890D01*
X185562088Y-43206646D01*
X185562086Y-43206645D01*
X185427379Y-43156403D01*
X185427372Y-43156401D01*
X185367844Y-43150000D01*
X184720000Y-43150000D01*
X184720000Y-45853505D01*
X184615161Y-45805627D01*
X184506473Y-45790000D01*
X184433527Y-45790000D01*
X184324839Y-45805627D01*
X184220000Y-45853505D01*
X184220000Y-43150000D01*
X183572155Y-43150000D01*
X183512627Y-43156401D01*
X183512620Y-43156403D01*
X183377913Y-43206645D01*
X183377910Y-43206647D01*
X183274727Y-43283890D01*
X183209262Y-43308307D01*
X183140989Y-43293455D01*
X183126105Y-43283889D01*
X183022335Y-43206206D01*
X183022328Y-43206202D01*
X182887482Y-43155908D01*
X182887483Y-43155908D01*
X182827883Y-43149501D01*
X182827881Y-43149500D01*
X182827873Y-43149500D01*
X182827865Y-43149500D01*
X181325453Y-43149500D01*
X181258414Y-43129815D01*
X181237772Y-43113181D01*
X180750803Y-42626212D01*
X180740980Y-42613950D01*
X180740759Y-42614134D01*
X180735786Y-42608122D01*
X180686776Y-42562099D01*
X180683977Y-42559386D01*
X180664477Y-42539885D01*
X180664471Y-42539880D01*
X180661286Y-42537409D01*
X180652434Y-42529848D01*
X180620582Y-42499938D01*
X180620580Y-42499936D01*
X180620577Y-42499935D01*
X180603029Y-42490288D01*
X180586763Y-42479604D01*
X180570932Y-42467324D01*
X180530849Y-42449978D01*
X180520363Y-42444841D01*
X180482094Y-42423803D01*
X180482092Y-42423802D01*
X180462693Y-42418822D01*
X180444281Y-42412518D01*
X180425898Y-42404562D01*
X180425892Y-42404560D01*
X180382760Y-42397729D01*
X180371322Y-42395361D01*
X180329020Y-42384500D01*
X180329019Y-42384500D01*
X180308984Y-42384500D01*
X180289586Y-42382973D01*
X180282162Y-42381797D01*
X180269805Y-42379840D01*
X180269804Y-42379840D01*
X180226325Y-42383950D01*
X180214656Y-42384500D01*
X104952743Y-42384500D01*
X104937122Y-42382775D01*
X104937096Y-42383061D01*
X104929334Y-42382327D01*
X104929333Y-42382327D01*
X104877688Y-42383950D01*
X104862127Y-42384439D01*
X104858232Y-42384500D01*
X104830647Y-42384500D01*
X104826661Y-42385003D01*
X104815033Y-42385918D01*
X104771373Y-42387290D01*
X104752129Y-42392881D01*
X104733079Y-42396825D01*
X104713211Y-42399334D01*
X104713210Y-42399334D01*
X104672599Y-42415413D01*
X104661554Y-42419194D01*
X104619614Y-42431379D01*
X104619610Y-42431381D01*
X104602366Y-42441579D01*
X104584905Y-42450133D01*
X104566274Y-42457510D01*
X104566262Y-42457517D01*
X104530933Y-42483185D01*
X104521173Y-42489596D01*
X104483580Y-42511829D01*
X104469414Y-42525995D01*
X104454624Y-42538627D01*
X104438414Y-42550404D01*
X104438411Y-42550407D01*
X104410573Y-42584058D01*
X104402711Y-42592697D01*
X102716208Y-44279199D01*
X102703951Y-44289020D01*
X102704134Y-44289241D01*
X102698122Y-44294214D01*
X102652098Y-44343223D01*
X102649391Y-44346016D01*
X102629889Y-44365517D01*
X102629875Y-44365534D01*
X102627407Y-44368715D01*
X102619843Y-44377570D01*
X102589937Y-44409418D01*
X102589936Y-44409420D01*
X102580284Y-44426976D01*
X102569610Y-44443226D01*
X102557329Y-44459061D01*
X102557324Y-44459068D01*
X102539975Y-44499158D01*
X102534838Y-44509644D01*
X102513803Y-44547906D01*
X102508822Y-44567307D01*
X102502521Y-44585710D01*
X102494562Y-44604102D01*
X102494561Y-44604105D01*
X102487728Y-44647243D01*
X102485360Y-44658674D01*
X102474501Y-44700971D01*
X102474500Y-44700982D01*
X102474500Y-44721016D01*
X102472973Y-44740415D01*
X102469840Y-44760194D01*
X102469840Y-44760195D01*
X102473950Y-44803674D01*
X102474500Y-44815343D01*
X102474500Y-56099547D01*
X102454815Y-56166586D01*
X102438181Y-56187228D01*
X99097228Y-59528181D01*
X99035905Y-59561666D01*
X99009547Y-59564500D01*
X98419800Y-59564500D01*
X98352761Y-59544815D01*
X98307006Y-59492011D01*
X98297062Y-59422853D01*
X98312413Y-59378500D01*
X98321361Y-59363002D01*
X98347179Y-59318284D01*
X98405674Y-59138256D01*
X98425460Y-58950000D01*
X98405674Y-58761744D01*
X98347179Y-58581716D01*
X98252533Y-58417784D01*
X98125871Y-58277112D01*
X98125870Y-58277111D01*
X97972734Y-58165851D01*
X97972729Y-58165848D01*
X97799807Y-58088857D01*
X97799802Y-58088855D01*
X97654001Y-58057865D01*
X97614646Y-58049500D01*
X97425354Y-58049500D01*
X97392897Y-58056398D01*
X97240197Y-58088855D01*
X97240192Y-58088857D01*
X97067270Y-58165848D01*
X97067265Y-58165851D01*
X96914130Y-58277110D01*
X96914129Y-58277111D01*
X96906879Y-58285163D01*
X96847390Y-58321808D01*
X96815031Y-58326185D01*
X96207150Y-58327641D01*
X96140064Y-58308117D01*
X96094182Y-58255422D01*
X96084073Y-58186288D01*
X96099465Y-58141644D01*
X96107179Y-58128284D01*
X96165674Y-57948256D01*
X96185460Y-57760000D01*
X96165674Y-57571744D01*
X96107179Y-57391716D01*
X96012533Y-57227784D01*
X95885871Y-57087112D01*
X95864653Y-57071696D01*
X95732734Y-56975851D01*
X95732729Y-56975848D01*
X95559807Y-56898857D01*
X95559802Y-56898855D01*
X95404370Y-56865818D01*
X95374646Y-56859500D01*
X95185354Y-56859500D01*
X95155630Y-56865818D01*
X95000197Y-56898855D01*
X95000192Y-56898857D01*
X94827270Y-56975848D01*
X94827265Y-56975851D01*
X94674135Y-57087106D01*
X94674133Y-57087107D01*
X94659805Y-57103020D01*
X94632383Y-57133474D01*
X94572899Y-57170121D01*
X94540236Y-57174500D01*
X86660453Y-57174500D01*
X86593414Y-57154815D01*
X86572772Y-57138181D01*
X86330237Y-56895646D01*
X86296752Y-56834323D01*
X86298142Y-56775876D01*
X86325063Y-56675408D01*
X86345659Y-56440000D01*
X86325063Y-56204592D01*
X86263903Y-55976337D01*
X86164035Y-55762171D01*
X86160999Y-55757834D01*
X86028494Y-55568597D01*
X85861402Y-55401506D01*
X85861396Y-55401501D01*
X85675842Y-55271575D01*
X85632217Y-55216998D01*
X85625023Y-55147500D01*
X85656546Y-55085145D01*
X85675842Y-55068425D01*
X85807895Y-54975960D01*
X85861401Y-54938495D01*
X86028495Y-54771401D01*
X86163652Y-54578377D01*
X86218229Y-54534752D01*
X86265227Y-54525500D01*
X98739907Y-54525500D01*
X98806946Y-54545185D01*
X98812792Y-54549182D01*
X98957265Y-54654148D01*
X98957270Y-54654151D01*
X99130192Y-54731142D01*
X99130197Y-54731144D01*
X99315354Y-54770500D01*
X99315355Y-54770500D01*
X99504644Y-54770500D01*
X99504646Y-54770500D01*
X99689803Y-54731144D01*
X99862730Y-54654151D01*
X100015871Y-54542888D01*
X100142533Y-54402216D01*
X100237179Y-54238284D01*
X100295674Y-54058256D01*
X100315460Y-53870000D01*
X100295674Y-53681744D01*
X100237179Y-53501716D01*
X100142533Y-53337784D01*
X100015871Y-53197112D01*
X99984919Y-53174624D01*
X99862734Y-53085851D01*
X99862729Y-53085848D01*
X99689807Y-53008857D01*
X99689802Y-53008855D01*
X99544001Y-52977865D01*
X99504646Y-52969500D01*
X99315354Y-52969500D01*
X99282897Y-52976398D01*
X99130197Y-53008855D01*
X99130192Y-53008857D01*
X98957270Y-53085848D01*
X98957265Y-53085851D01*
X98804135Y-53197106D01*
X98804133Y-53197107D01*
X98791896Y-53210697D01*
X98771388Y-53233474D01*
X98711903Y-53270121D01*
X98679240Y-53274500D01*
X86265227Y-53274500D01*
X86198188Y-53254815D01*
X86163652Y-53221623D01*
X86028494Y-53028597D01*
X85861402Y-52861506D01*
X85861396Y-52861501D01*
X85675842Y-52731575D01*
X85632217Y-52676998D01*
X85625023Y-52607500D01*
X85656546Y-52545145D01*
X85675842Y-52528425D01*
X85767983Y-52463907D01*
X85861401Y-52398495D01*
X86028495Y-52231401D01*
X86155324Y-52050270D01*
X86209899Y-52006647D01*
X86258054Y-51997400D01*
X89621460Y-52028892D01*
X89688310Y-52049204D01*
X89712447Y-52069914D01*
X89724128Y-52082887D01*
X89724130Y-52082889D01*
X89877265Y-52194148D01*
X89877270Y-52194151D01*
X90050192Y-52271142D01*
X90050197Y-52271144D01*
X90235354Y-52310500D01*
X90235355Y-52310500D01*
X90424644Y-52310500D01*
X90424646Y-52310500D01*
X90609803Y-52271144D01*
X90782730Y-52194151D01*
X90935871Y-52082888D01*
X91062533Y-51942216D01*
X91157179Y-51778284D01*
X91215674Y-51598256D01*
X91235460Y-51410000D01*
X91215674Y-51221744D01*
X91157179Y-51041716D01*
X91062533Y-50877784D01*
X90935871Y-50737112D01*
X90935870Y-50737111D01*
X90782734Y-50625851D01*
X90782729Y-50625848D01*
X90609807Y-50548857D01*
X90609802Y-50548855D01*
X90464001Y-50517865D01*
X90424646Y-50509500D01*
X90235354Y-50509500D01*
X90202897Y-50516398D01*
X90050197Y-50548855D01*
X90050192Y-50548857D01*
X89877270Y-50625848D01*
X89877265Y-50625851D01*
X89724131Y-50737110D01*
X89719295Y-50741464D01*
X89718448Y-50740523D01*
X89664809Y-50773557D01*
X89631004Y-50777926D01*
X86271592Y-50746471D01*
X86204740Y-50726159D01*
X86167282Y-50686505D01*
X86167140Y-50686605D01*
X86166460Y-50685635D01*
X86165366Y-50684476D01*
X86164034Y-50682170D01*
X86164033Y-50682169D01*
X86050482Y-50520000D01*
X86028494Y-50488597D01*
X85861402Y-50321506D01*
X85861396Y-50321501D01*
X85675842Y-50191575D01*
X85632217Y-50136998D01*
X85625023Y-50067500D01*
X85656546Y-50005145D01*
X85675842Y-49988425D01*
X85751025Y-49935781D01*
X85861401Y-49858495D01*
X86028495Y-49691401D01*
X86164035Y-49497830D01*
X86172596Y-49479468D01*
X86218764Y-49427031D01*
X86281345Y-49407926D01*
X87032990Y-49385899D01*
X87100575Y-49403612D01*
X87109506Y-49409528D01*
X87114125Y-49412884D01*
X87114129Y-49412888D01*
X87231048Y-49497834D01*
X87267270Y-49524151D01*
X87440192Y-49601142D01*
X87440197Y-49601144D01*
X87625354Y-49640500D01*
X87625355Y-49640500D01*
X87814644Y-49640500D01*
X87814646Y-49640500D01*
X87999803Y-49601144D01*
X88172730Y-49524151D01*
X88325871Y-49412888D01*
X88452533Y-49272216D01*
X88547179Y-49108284D01*
X88605674Y-48928256D01*
X88625460Y-48740000D01*
X88605674Y-48551744D01*
X88547179Y-48371716D01*
X88452533Y-48207784D01*
X88325871Y-48067112D01*
X88325870Y-48067111D01*
X88172734Y-47955851D01*
X88172729Y-47955848D01*
X87999807Y-47878857D01*
X87999802Y-47878855D01*
X87854001Y-47847865D01*
X87814646Y-47839500D01*
X87625354Y-47839500D01*
X87592897Y-47846398D01*
X87440197Y-47878855D01*
X87440192Y-47878857D01*
X87267270Y-47955848D01*
X87267265Y-47955851D01*
X87114131Y-48067110D01*
X87114126Y-48067114D01*
X87089624Y-48094325D01*
X87030136Y-48130972D01*
X87001109Y-48135297D01*
X86242996Y-48157513D01*
X86175409Y-48139800D01*
X86137791Y-48104691D01*
X86033573Y-47955851D01*
X86028496Y-47948600D01*
X85988007Y-47908111D01*
X85906567Y-47826671D01*
X85873084Y-47765351D01*
X85878068Y-47695659D01*
X85919939Y-47639725D01*
X85950915Y-47622810D01*
X86082331Y-47573796D01*
X86197546Y-47487546D01*
X86283796Y-47372331D01*
X86334091Y-47237483D01*
X86338632Y-47195242D01*
X86365369Y-47130694D01*
X86422761Y-47090846D01*
X86461921Y-47084500D01*
X90125501Y-47084500D01*
X90192540Y-47104185D01*
X90238295Y-47156989D01*
X90249501Y-47208500D01*
X90249501Y-47227876D01*
X90255908Y-47287483D01*
X90306202Y-47422328D01*
X90306206Y-47422335D01*
X90392452Y-47537544D01*
X90392455Y-47537547D01*
X90507664Y-47623793D01*
X90507671Y-47623797D01*
X90642517Y-47674091D01*
X90642516Y-47674091D01*
X90649444Y-47674835D01*
X90702127Y-47680500D01*
X92497872Y-47680499D01*
X92557483Y-47674091D01*
X92692331Y-47623796D01*
X92807546Y-47537546D01*
X92893796Y-47422331D01*
X92944091Y-47287483D01*
X92950500Y-47227873D01*
X92950499Y-45432128D01*
X92944091Y-45372517D01*
X92925442Y-45322517D01*
X92893797Y-45237671D01*
X92893793Y-45237664D01*
X92807547Y-45122455D01*
X92807544Y-45122452D01*
X92692335Y-45036206D01*
X92692328Y-45036202D01*
X92557482Y-44985908D01*
X92557483Y-44985908D01*
X92497883Y-44979501D01*
X92497881Y-44979500D01*
X92497873Y-44979500D01*
X92497864Y-44979500D01*
X90702129Y-44979500D01*
X90702123Y-44979501D01*
X90642516Y-44985908D01*
X90507671Y-45036202D01*
X90507664Y-45036206D01*
X90392455Y-45122452D01*
X90392452Y-45122455D01*
X90306206Y-45237664D01*
X90306202Y-45237671D01*
X90255908Y-45372517D01*
X90252803Y-45401402D01*
X90249501Y-45432123D01*
X90249500Y-45432135D01*
X90249500Y-45451500D01*
X90229815Y-45518539D01*
X90177011Y-45564294D01*
X90125500Y-45575500D01*
X86464499Y-45575500D01*
X86397460Y-45555815D01*
X86351705Y-45503011D01*
X86340499Y-45451500D01*
X86340499Y-45382129D01*
X86340498Y-45382123D01*
X86340497Y-45382116D01*
X86334091Y-45322517D01*
X86315995Y-45274000D01*
X86283797Y-45187671D01*
X86283793Y-45187664D01*
X86197547Y-45072455D01*
X86197544Y-45072452D01*
X86082335Y-44986206D01*
X86082328Y-44986202D01*
X85947482Y-44935908D01*
X85947483Y-44935908D01*
X85887883Y-44929501D01*
X85887881Y-44929500D01*
X85887873Y-44929500D01*
X85887864Y-44929500D01*
X84092129Y-44929500D01*
X84092123Y-44929501D01*
X84032516Y-44935908D01*
X83897671Y-44986202D01*
X83897664Y-44986206D01*
X83782455Y-45072452D01*
X83782452Y-45072455D01*
X83696206Y-45187664D01*
X83696202Y-45187671D01*
X83645908Y-45322517D01*
X83640533Y-45372516D01*
X83639501Y-45382123D01*
X83639500Y-45382135D01*
X83639500Y-47177870D01*
X83639501Y-47177876D01*
X83645908Y-47237483D01*
X83696202Y-47372328D01*
X83696206Y-47372335D01*
X83782452Y-47487544D01*
X83782455Y-47487547D01*
X83897664Y-47573793D01*
X83897671Y-47573797D01*
X84029081Y-47622810D01*
X84085015Y-47664681D01*
X84109432Y-47730145D01*
X84094580Y-47798418D01*
X84073430Y-47826673D01*
X83951503Y-47948600D01*
X83815965Y-48142169D01*
X83815964Y-48142171D01*
X83716098Y-48356335D01*
X83716094Y-48356344D01*
X83654938Y-48584586D01*
X83654936Y-48584596D01*
X83634341Y-48819999D01*
X83634341Y-48820000D01*
X83654936Y-49055403D01*
X83654938Y-49055413D01*
X83716094Y-49283655D01*
X83716096Y-49283659D01*
X83716097Y-49283663D01*
X83808353Y-49481505D01*
X83815965Y-49497830D01*
X83815967Y-49497834D01*
X83951501Y-49691395D01*
X83951506Y-49691402D01*
X84118597Y-49858493D01*
X84118603Y-49858498D01*
X84304158Y-49988425D01*
X84347783Y-50043002D01*
X84354977Y-50112500D01*
X84323454Y-50174855D01*
X84304158Y-50191575D01*
X84118597Y-50321505D01*
X83951505Y-50488597D01*
X83815965Y-50682169D01*
X83815964Y-50682171D01*
X83716098Y-50896335D01*
X83716094Y-50896344D01*
X83654938Y-51124586D01*
X83654936Y-51124596D01*
X83634341Y-51359999D01*
X83634341Y-51360000D01*
X83654936Y-51595403D01*
X83654938Y-51595413D01*
X83716094Y-51823655D01*
X83716096Y-51823659D01*
X83716097Y-51823663D01*
X83796786Y-51996700D01*
X83815965Y-52037830D01*
X83815967Y-52037834D01*
X83908534Y-52170032D01*
X83951501Y-52231396D01*
X83951506Y-52231402D01*
X84118597Y-52398493D01*
X84118603Y-52398498D01*
X84304158Y-52528425D01*
X84347783Y-52583002D01*
X84354977Y-52652500D01*
X84323454Y-52714855D01*
X84304158Y-52731575D01*
X84118597Y-52861505D01*
X83951505Y-53028597D01*
X83815965Y-53222169D01*
X83815964Y-53222171D01*
X83716098Y-53436335D01*
X83716094Y-53436344D01*
X83654938Y-53664586D01*
X83654936Y-53664596D01*
X83634341Y-53899999D01*
X83634341Y-53900000D01*
X83654936Y-54135403D01*
X83654938Y-54135413D01*
X83716094Y-54363655D01*
X83716096Y-54363659D01*
X83716097Y-54363663D01*
X83745149Y-54425965D01*
X83815965Y-54577830D01*
X83815967Y-54577834D01*
X83921533Y-54728597D01*
X83951501Y-54771396D01*
X83951506Y-54771402D01*
X84118597Y-54938493D01*
X84118603Y-54938498D01*
X84304158Y-55068425D01*
X84347783Y-55123002D01*
X84354977Y-55192500D01*
X84323454Y-55254855D01*
X84304158Y-55271575D01*
X84118597Y-55401505D01*
X83951505Y-55568597D01*
X83815965Y-55762169D01*
X83815964Y-55762171D01*
X83716098Y-55976335D01*
X83716094Y-55976344D01*
X83654938Y-56204586D01*
X83654936Y-56204596D01*
X83634341Y-56439999D01*
X83634341Y-56440000D01*
X83654936Y-56675403D01*
X83654938Y-56675413D01*
X83716094Y-56903655D01*
X83716096Y-56903659D01*
X83716097Y-56903663D01*
X83801641Y-57087112D01*
X83815965Y-57117830D01*
X83815967Y-57117834D01*
X83951501Y-57311395D01*
X83951506Y-57311402D01*
X84118597Y-57478493D01*
X84118603Y-57478498D01*
X84304158Y-57608425D01*
X84347783Y-57663002D01*
X84354977Y-57732500D01*
X84323454Y-57794855D01*
X84304158Y-57811575D01*
X84118597Y-57941505D01*
X83951505Y-58108597D01*
X83815965Y-58302169D01*
X83815964Y-58302171D01*
X83716098Y-58516335D01*
X83716094Y-58516344D01*
X83654938Y-58744586D01*
X83654936Y-58744596D01*
X83634341Y-58979999D01*
X83634341Y-58980000D01*
X83654936Y-59215403D01*
X83654938Y-59215413D01*
X83716094Y-59443655D01*
X83716096Y-59443659D01*
X83716097Y-59443663D01*
X83799671Y-59622888D01*
X83815965Y-59657830D01*
X83815967Y-59657834D01*
X83951501Y-59851395D01*
X83951506Y-59851402D01*
X84118597Y-60018493D01*
X84118603Y-60018498D01*
X84304158Y-60148425D01*
X84347783Y-60203002D01*
X84354977Y-60272500D01*
X84323454Y-60334855D01*
X84304158Y-60351575D01*
X84118597Y-60481505D01*
X83951505Y-60648597D01*
X83815965Y-60842169D01*
X83815964Y-60842171D01*
X83716098Y-61056335D01*
X83716094Y-61056344D01*
X83654938Y-61284586D01*
X83654936Y-61284596D01*
X83634341Y-61519995D01*
X83634341Y-61520000D01*
X81500500Y-61520000D01*
X81500500Y-44530000D01*
X97594341Y-44530000D01*
X97614936Y-44765403D01*
X97614938Y-44765413D01*
X97676094Y-44993655D01*
X97676096Y-44993659D01*
X97676097Y-44993663D01*
X97712837Y-45072452D01*
X97775964Y-45207828D01*
X97775965Y-45207830D01*
X97911505Y-45401402D01*
X98078597Y-45568494D01*
X98272169Y-45704034D01*
X98272171Y-45704035D01*
X98486337Y-45803903D01*
X98714592Y-45865063D01*
X98891032Y-45880499D01*
X98891033Y-45880500D01*
X98891034Y-45880500D01*
X99008967Y-45880500D01*
X99008967Y-45880499D01*
X99185408Y-45865063D01*
X99413663Y-45803903D01*
X99627829Y-45704035D01*
X99821401Y-45568495D01*
X99988495Y-45401401D01*
X100124035Y-45207830D01*
X100223903Y-44993663D01*
X100285063Y-44765408D01*
X100305659Y-44530000D01*
X100285063Y-44294592D01*
X100223903Y-44066337D01*
X100124035Y-43852171D01*
X100124034Y-43852169D01*
X99988494Y-43658597D01*
X99821402Y-43491505D01*
X99627830Y-43355965D01*
X99627828Y-43355964D01*
X99491626Y-43292452D01*
X99413663Y-43256097D01*
X99413659Y-43256096D01*
X99413655Y-43256094D01*
X99185413Y-43194938D01*
X99185403Y-43194936D01*
X99008967Y-43179500D01*
X99008966Y-43179500D01*
X98891034Y-43179500D01*
X98891033Y-43179500D01*
X98714596Y-43194936D01*
X98714586Y-43194938D01*
X98486344Y-43256094D01*
X98486335Y-43256098D01*
X98272171Y-43355964D01*
X98272169Y-43355965D01*
X98078597Y-43491505D01*
X97911506Y-43658597D01*
X97911501Y-43658604D01*
X97775967Y-43852165D01*
X97775965Y-43852169D01*
X97676098Y-44066335D01*
X97676094Y-44066344D01*
X97614938Y-44294586D01*
X97614936Y-44294596D01*
X97594341Y-44529999D01*
X97594341Y-44530000D01*
X81500500Y-44530000D01*
X81500500Y-41094500D01*
X81520185Y-41027461D01*
X81572989Y-40981706D01*
X81624500Y-40970500D01*
X230825500Y-40970500D01*
X230892539Y-40990185D01*
G37*
%TD.AperFunction*%
%TD*%
M02*
