%TF.GenerationSoftware,KiCad,Pcbnew,8.0.4*%
%TF.CreationDate,2024-11-18T10:24:52-08:00*%
%TF.ProjectId,Mother,4d6f7468-6572-42e6-9b69-6361645f7063,rev?*%
%TF.SameCoordinates,Original*%
%TF.FileFunction,Legend,Bot*%
%TF.FilePolarity,Positive*%
%FSLAX46Y46*%
G04 Gerber Fmt 4.6, Leading zero omitted, Abs format (unit mm)*
G04 Created by KiCad (PCBNEW 8.0.4) date 2024-11-18 10:24:52*
%MOMM*%
%LPD*%
G01*
G04 APERTURE LIST*
%ADD10C,0.000000*%
G04 APERTURE END LIST*
D10*
%TO.C,G\u002A\u002A\u002A*%
G36*
X111393452Y-149891910D02*
G01*
X111592067Y-149957382D01*
X111773705Y-150059542D01*
X111915068Y-150187682D01*
X111921063Y-150195070D01*
X112005561Y-150324073D01*
X112078486Y-150476946D01*
X112129687Y-150629039D01*
X112149009Y-150755701D01*
X112147844Y-150782692D01*
X112119236Y-150920917D01*
X112060079Y-151078239D01*
X111980772Y-151230496D01*
X111891714Y-151353525D01*
X111804067Y-151438328D01*
X111615293Y-151559241D01*
X111408141Y-151626233D01*
X111287170Y-151634241D01*
X111193034Y-151640472D01*
X110980398Y-151603127D01*
X110780657Y-151515365D01*
X110604235Y-151378355D01*
X110461558Y-151193265D01*
X110377190Y-151049303D01*
X108754155Y-151057779D01*
X107131120Y-151066255D01*
X107121531Y-151265049D01*
X107111942Y-151463844D01*
X107383049Y-151537853D01*
X107528118Y-151580734D01*
X107758403Y-151663814D01*
X107954212Y-151754051D01*
X108105393Y-151846504D01*
X108201797Y-151936236D01*
X108292796Y-152099162D01*
X108334238Y-152283626D01*
X108318675Y-152467166D01*
X108245243Y-152635881D01*
X108198565Y-152691210D01*
X108104194Y-152782205D01*
X107976621Y-152894026D01*
X107826709Y-153017738D01*
X107665321Y-153144408D01*
X107503317Y-153265103D01*
X107351562Y-153370888D01*
X107321494Y-153391042D01*
X107204192Y-153473549D01*
X107133424Y-153533142D01*
X107100791Y-153577939D01*
X107097893Y-153616061D01*
X107102722Y-153651848D01*
X107108585Y-153746679D01*
X107112680Y-153877860D01*
X107114329Y-154028369D01*
X107114775Y-154375296D01*
X107463331Y-154631047D01*
X107595914Y-154730555D01*
X107791457Y-154885861D01*
X107965028Y-155034019D01*
X108108538Y-155167722D01*
X108213899Y-155279663D01*
X108273023Y-155362534D01*
X108327188Y-155526664D01*
X108332322Y-155713677D01*
X108283913Y-155892796D01*
X108184262Y-156046291D01*
X108158433Y-156071058D01*
X108037507Y-156152108D01*
X107865580Y-156234671D01*
X107653416Y-156315798D01*
X107411776Y-156392539D01*
X107151424Y-156461943D01*
X106883122Y-156521059D01*
X106617633Y-156566938D01*
X106365720Y-156596629D01*
X106138145Y-156607181D01*
X106059289Y-156607920D01*
X105925412Y-156613786D01*
X105838285Y-156624741D01*
X105807182Y-156639871D01*
X105810064Y-156651911D01*
X105848044Y-156672714D01*
X105870608Y-156676937D01*
X105951775Y-156707069D01*
X106072645Y-156761328D01*
X106222076Y-156833963D01*
X106388925Y-156919221D01*
X106562052Y-157011349D01*
X106730315Y-157104596D01*
X106882571Y-157193208D01*
X107007680Y-157271434D01*
X107125999Y-157353109D01*
X107402467Y-157568972D01*
X107674479Y-157812850D01*
X107923287Y-158067311D01*
X108130139Y-158314925D01*
X108193597Y-158404537D01*
X108315344Y-158599416D01*
X108440351Y-158823565D01*
X108558016Y-159056574D01*
X108657738Y-159278035D01*
X108728913Y-159467542D01*
X108755892Y-159558164D01*
X108813751Y-159794018D01*
X108865445Y-160058345D01*
X108906306Y-160325747D01*
X108931666Y-160570823D01*
X108954363Y-160889549D01*
X109258829Y-160889549D01*
X109360477Y-160887896D01*
X109702147Y-160853371D01*
X110001452Y-160772875D01*
X110263180Y-160644770D01*
X110492118Y-160467417D01*
X110648967Y-160287377D01*
X110786649Y-160051876D01*
X110878660Y-159795398D01*
X110919867Y-159532716D01*
X110905138Y-159278605D01*
X110884361Y-159176277D01*
X110840014Y-159015945D01*
X110778800Y-158860425D01*
X110695055Y-158699304D01*
X110583113Y-158522171D01*
X110437310Y-158318615D01*
X110251979Y-158078224D01*
X110116345Y-157903433D01*
X109803756Y-157471444D01*
X109543258Y-157061378D01*
X109331726Y-156665229D01*
X109166036Y-156274994D01*
X109043063Y-155882668D01*
X108959682Y-155480247D01*
X108912767Y-155059726D01*
X108899194Y-154613101D01*
X108899433Y-154570104D01*
X108902911Y-154360625D01*
X108911508Y-154192406D01*
X108927298Y-154045006D01*
X108952357Y-153897985D01*
X108988760Y-153730902D01*
X109062946Y-153452820D01*
X109148740Y-153222050D01*
X109248772Y-153042074D01*
X109368179Y-152905538D01*
X109512096Y-152805091D01*
X109685660Y-152733379D01*
X109841440Y-152697708D01*
X110077886Y-152693603D01*
X110300548Y-152748234D01*
X110500574Y-152857682D01*
X110669112Y-153018031D01*
X110797308Y-153225361D01*
X110852635Y-153381943D01*
X110877780Y-153570410D01*
X110863753Y-153784639D01*
X110810777Y-154038086D01*
X110809354Y-154043573D01*
X110770928Y-154228731D01*
X110749803Y-154428915D01*
X110743346Y-154668743D01*
X110743519Y-154710244D01*
X110756417Y-155002071D01*
X110792516Y-155272494D01*
X110855656Y-155530573D01*
X110949677Y-155785371D01*
X111078421Y-156045950D01*
X111245727Y-156321370D01*
X111455434Y-156620693D01*
X111711385Y-156952982D01*
X111974283Y-157297944D01*
X112221332Y-157662355D01*
X112418854Y-158006069D01*
X112570539Y-158335575D01*
X112680074Y-158657364D01*
X112700889Y-158736236D01*
X112722404Y-158839380D01*
X112736787Y-158949487D01*
X112745293Y-159081153D01*
X112749175Y-159248972D01*
X112749687Y-159467542D01*
X112749093Y-159555645D01*
X112740992Y-159827171D01*
X112720743Y-160055438D01*
X112684692Y-160257311D01*
X112629186Y-160449653D01*
X112550571Y-160649329D01*
X112445194Y-160873204D01*
X112239988Y-161235315D01*
X111947534Y-161632745D01*
X111606782Y-161990169D01*
X111221852Y-162304293D01*
X110796865Y-162571821D01*
X110335940Y-162789459D01*
X109843199Y-162953913D01*
X109804790Y-162964236D01*
X109673659Y-162998232D01*
X109562679Y-163023065D01*
X109457594Y-163040231D01*
X109344149Y-163051224D01*
X109208090Y-163057537D01*
X109035162Y-163060666D01*
X108811109Y-163062105D01*
X108170120Y-163064856D01*
X108055042Y-163165896D01*
X107775861Y-163384303D01*
X107436242Y-163596296D01*
X107080183Y-163769683D01*
X106727927Y-163893369D01*
X106591182Y-163933394D01*
X106434900Y-163983059D01*
X106306190Y-164027841D01*
X106150678Y-164081562D01*
X105820038Y-164173601D01*
X105474223Y-164245030D01*
X105145782Y-164288537D01*
X104889034Y-164303670D01*
X104771736Y-164303547D01*
X104609842Y-164303377D01*
X104313923Y-164285466D01*
X103993913Y-164248911D01*
X103642451Y-164192686D01*
X103252172Y-164115767D01*
X102815714Y-164017127D01*
X102325715Y-163895742D01*
X102001708Y-163813943D01*
X101691976Y-163739881D01*
X101426525Y-163682889D01*
X101195678Y-163642113D01*
X100989758Y-163616701D01*
X100799089Y-163605797D01*
X100613994Y-163608550D01*
X100424797Y-163624105D01*
X100221820Y-163651609D01*
X99995387Y-163690209D01*
X99843746Y-163716923D01*
X99710365Y-163737700D01*
X99583779Y-163753227D01*
X99451959Y-163764293D01*
X99302876Y-163771689D01*
X99124502Y-163776204D01*
X98904807Y-163778629D01*
X98631763Y-163779753D01*
X98441240Y-163779575D01*
X98116156Y-163774924D01*
X97837631Y-163763362D01*
X97593370Y-163743421D01*
X97371083Y-163713631D01*
X97158474Y-163672524D01*
X96943252Y-163618631D01*
X96713123Y-163550483D01*
X96536342Y-163489717D01*
X96174098Y-163324992D01*
X95863856Y-163122930D01*
X95606565Y-162884500D01*
X95403171Y-162610674D01*
X95254622Y-162302423D01*
X95161864Y-161960715D01*
X95137639Y-161793192D01*
X95131275Y-161540305D01*
X95170748Y-161326797D01*
X95257467Y-161146765D01*
X95392845Y-160994309D01*
X95451803Y-160948260D01*
X95615359Y-160872682D01*
X95794767Y-160860152D01*
X95990236Y-160910713D01*
X96201972Y-161024406D01*
X96430186Y-161201272D01*
X96469573Y-161235588D01*
X96626753Y-161360772D01*
X96770069Y-161449243D01*
X96921448Y-161512803D01*
X97102817Y-161563252D01*
X97259862Y-161588493D01*
X97483971Y-161603147D01*
X97748161Y-161604559D01*
X98040029Y-161593651D01*
X98347170Y-161571344D01*
X98657180Y-161538560D01*
X98957656Y-161496221D01*
X99236194Y-161445248D01*
X99480390Y-161386564D01*
X99529120Y-161369010D01*
X99544443Y-161349250D01*
X99516594Y-161325984D01*
X99440385Y-161296649D01*
X99310633Y-161258684D01*
X99122150Y-161209523D01*
X98960485Y-161164809D01*
X98637168Y-161050768D01*
X98349522Y-160914983D01*
X98107333Y-160762433D01*
X97920384Y-160598096D01*
X97898558Y-160574176D01*
X97687280Y-160296793D01*
X97532849Y-160000196D01*
X97438107Y-159691132D01*
X97405895Y-159376350D01*
X97406451Y-159331364D01*
X97428735Y-159131106D01*
X97489374Y-158971628D01*
X97596336Y-158837949D01*
X97757588Y-158715087D01*
X97757765Y-158711849D01*
X97743704Y-158666836D01*
X97711036Y-158580515D01*
X97665215Y-158467499D01*
X97639500Y-158404834D01*
X97563397Y-158211353D01*
X97482193Y-157995410D01*
X97401835Y-157773609D01*
X97328271Y-157562556D01*
X97267445Y-157378854D01*
X97225306Y-157239110D01*
X97213630Y-157197953D01*
X97178028Y-157097556D01*
X97140773Y-157042551D01*
X97093003Y-157018138D01*
X97088536Y-157017052D01*
X97024970Y-157002970D01*
X96910138Y-156978543D01*
X96755157Y-156946101D01*
X96571145Y-156907973D01*
X96369218Y-156866487D01*
X96093814Y-156809597D01*
X95775850Y-156741937D01*
X95503656Y-156681141D01*
X95266600Y-156624653D01*
X95054051Y-156569916D01*
X94855378Y-156514374D01*
X94659949Y-156455471D01*
X94457610Y-156389898D01*
X94010685Y-156222604D01*
X93624500Y-156042282D01*
X93296338Y-155846937D01*
X93023482Y-155634570D01*
X92803214Y-155403186D01*
X92632815Y-155150786D01*
X92509568Y-154875375D01*
X92499718Y-154846738D01*
X92471417Y-154752840D01*
X92453617Y-154662023D01*
X92444624Y-154557197D01*
X92442745Y-154421275D01*
X92445551Y-154275305D01*
X93161173Y-154275305D01*
X93167919Y-154422684D01*
X93184907Y-154562689D01*
X93211118Y-154671995D01*
X93214837Y-154681806D01*
X93266788Y-154778997D01*
X93347859Y-154895585D01*
X93442188Y-155008470D01*
X93557626Y-155121797D01*
X93738078Y-155264067D01*
X93951779Y-155396511D01*
X94203310Y-155520927D01*
X94497254Y-155639110D01*
X94838193Y-155752857D01*
X95230707Y-155863965D01*
X95679380Y-155974231D01*
X96188793Y-156085451D01*
X96309099Y-156110563D01*
X96565712Y-156165025D01*
X96821026Y-156220280D01*
X97059349Y-156272883D01*
X97264985Y-156319387D01*
X97422240Y-156356344D01*
X97620164Y-156399731D01*
X98007968Y-156452503D01*
X98372249Y-156453102D01*
X98725513Y-156400120D01*
X99080265Y-156292145D01*
X99449009Y-156127767D01*
X99523706Y-156089213D01*
X99657304Y-156017440D01*
X99769349Y-155953805D01*
X99841287Y-155908669D01*
X99923985Y-155865628D01*
X100080970Y-155839021D01*
X100192154Y-155856981D01*
X100308294Y-155927082D01*
X100385405Y-156040278D01*
X100413359Y-156185998D01*
X100405170Y-156259775D01*
X100363595Y-156355396D01*
X100280717Y-156450492D01*
X100149713Y-156552380D01*
X99963763Y-156668379D01*
X99758135Y-156778508D01*
X99382288Y-156938926D01*
X98991052Y-157059701D01*
X98601652Y-157135917D01*
X98231313Y-157162661D01*
X98226851Y-157162669D01*
X98093403Y-157167116D01*
X98018237Y-157180442D01*
X97994889Y-157203771D01*
X98003249Y-157259959D01*
X98034842Y-157376970D01*
X98086010Y-157534092D01*
X98152567Y-157720388D01*
X98230330Y-157924916D01*
X98315114Y-158136739D01*
X98402734Y-158344917D01*
X98489005Y-158538509D01*
X98569744Y-158706578D01*
X98617750Y-158799942D01*
X98855236Y-159223282D01*
X99124960Y-159650794D01*
X99415181Y-160065510D01*
X99714162Y-160450463D01*
X100010163Y-160788682D01*
X100268683Y-161063748D01*
X100561678Y-160890686D01*
X100856668Y-160729367D01*
X101374121Y-160503149D01*
X101910082Y-160336658D01*
X102456474Y-160232698D01*
X102502973Y-160226988D01*
X102902764Y-160203763D01*
X103331300Y-160219819D01*
X103769409Y-160272927D01*
X104197918Y-160360862D01*
X104597658Y-160481396D01*
X104759398Y-160545114D01*
X104939213Y-160625507D01*
X105122082Y-160715001D01*
X105295285Y-160806846D01*
X105446098Y-160894291D01*
X105561800Y-160970587D01*
X105629670Y-161028982D01*
X105664220Y-161078043D01*
X105706867Y-161206562D01*
X105696706Y-161337612D01*
X105639533Y-161456368D01*
X105541143Y-161548004D01*
X105407334Y-161597695D01*
X105365729Y-161602515D01*
X105290689Y-161596698D01*
X105206294Y-161565147D01*
X105090946Y-161501279D01*
X104977921Y-161437026D01*
X104659622Y-161280765D01*
X104316222Y-161142158D01*
X103976551Y-161033313D01*
X103965908Y-161030400D01*
X103844366Y-160998295D01*
X103740105Y-160974760D01*
X103639350Y-160958480D01*
X103528324Y-160948136D01*
X103393250Y-160942412D01*
X103220353Y-160939990D01*
X102995856Y-160939554D01*
X102886547Y-160939727D01*
X102670952Y-160941847D01*
X102498113Y-160948229D01*
X102352191Y-160961170D01*
X102217351Y-160982966D01*
X102077755Y-161015914D01*
X101917568Y-161062311D01*
X101720953Y-161124454D01*
X101691017Y-161134339D01*
X101443324Y-161231730D01*
X101172367Y-161361583D01*
X100899575Y-161512922D01*
X100646377Y-161674775D01*
X100543270Y-161742374D01*
X100397982Y-161823708D01*
X100239509Y-161894585D01*
X100057490Y-161958529D01*
X99841565Y-162019063D01*
X99581373Y-162079710D01*
X99266555Y-162143993D01*
X98934592Y-162204557D01*
X98462073Y-162273567D01*
X98036590Y-162312057D01*
X97651608Y-162320070D01*
X97300589Y-162297652D01*
X96976997Y-162244847D01*
X96674295Y-162161699D01*
X96562475Y-162122969D01*
X96410069Y-162060857D01*
X96283799Y-161991205D01*
X96160393Y-161900311D01*
X96016577Y-161774474D01*
X95993123Y-161753094D01*
X95915923Y-161685504D01*
X95872479Y-161657121D01*
X95851743Y-161663134D01*
X95842667Y-161698732D01*
X95844992Y-161802897D01*
X95886050Y-161958539D01*
X95961596Y-162128813D01*
X96063291Y-162298193D01*
X96182796Y-162451153D01*
X96311774Y-162572168D01*
X96442747Y-162656528D01*
X96667852Y-162761346D01*
X96942680Y-162855171D01*
X97258477Y-162935515D01*
X97606490Y-162999889D01*
X97977967Y-163045806D01*
X98303798Y-163069485D01*
X98696152Y-163076747D01*
X99092826Y-163058677D01*
X99512048Y-163014334D01*
X99972047Y-162942776D01*
X100064076Y-162927664D01*
X100517031Y-162882278D01*
X100966662Y-162883065D01*
X101391676Y-162930212D01*
X101471452Y-162945403D01*
X101627541Y-162978455D01*
X101824852Y-163022760D01*
X102050555Y-163075365D01*
X102291821Y-163133315D01*
X102535820Y-163193656D01*
X102840574Y-163269149D01*
X103181937Y-163350108D01*
X103477901Y-163415142D01*
X103738101Y-163465955D01*
X103972176Y-163504251D01*
X104189760Y-163531733D01*
X104400490Y-163550105D01*
X104614003Y-163561071D01*
X104771736Y-163564881D01*
X105024288Y-163560144D01*
X105259650Y-163538275D01*
X105496797Y-163496366D01*
X105754707Y-163431513D01*
X106052355Y-163340808D01*
X106202447Y-163292558D01*
X106383317Y-163234913D01*
X106547586Y-163183047D01*
X106672471Y-163144185D01*
X106817894Y-163093550D01*
X107100844Y-162955947D01*
X107373819Y-162766884D01*
X107647027Y-162519821D01*
X107934106Y-162231170D01*
X108170065Y-162285102D01*
X108187377Y-162288932D01*
X108368467Y-162317118D01*
X108596407Y-162333338D01*
X108880026Y-162338252D01*
X108938608Y-162338062D01*
X109129158Y-162335096D01*
X109279066Y-162326943D01*
X109407931Y-162311439D01*
X109535352Y-162286416D01*
X109680927Y-162249707D01*
X109849655Y-162199854D01*
X110267826Y-162035074D01*
X110656404Y-161821908D01*
X111006225Y-161565860D01*
X111308128Y-161272434D01*
X111367988Y-161203528D01*
X111621512Y-160871693D01*
X111813748Y-160541466D01*
X111947492Y-160206147D01*
X112025541Y-159859038D01*
X112050693Y-159493437D01*
X112048197Y-159364528D01*
X112024710Y-159095287D01*
X111973357Y-158838253D01*
X111890329Y-158584517D01*
X111771811Y-158325174D01*
X111613994Y-158051316D01*
X111413064Y-157754035D01*
X111165210Y-157424427D01*
X110965565Y-157162984D01*
X110754101Y-156870130D01*
X110576951Y-156605656D01*
X110440206Y-156378352D01*
X110439626Y-156377309D01*
X110344718Y-156180996D01*
X110251230Y-155942657D01*
X110166691Y-155685211D01*
X110098632Y-155431577D01*
X110054584Y-155204675D01*
X110045646Y-155132765D01*
X110029841Y-154882448D01*
X110030680Y-154604988D01*
X110047039Y-154323231D01*
X110077793Y-154060023D01*
X110121818Y-153838211D01*
X110146878Y-153733670D01*
X110167066Y-153597999D01*
X110157533Y-153506531D01*
X110116436Y-153449555D01*
X110041931Y-153417357D01*
X109962326Y-153408100D01*
X109863747Y-153440419D01*
X109799386Y-153527251D01*
X109793223Y-153543014D01*
X109735293Y-153739101D01*
X109689498Y-153982532D01*
X109656864Y-154257702D01*
X109638420Y-154549007D01*
X109635192Y-154840843D01*
X109648208Y-155117605D01*
X109678495Y-155363689D01*
X109695681Y-155456773D01*
X109777365Y-155797229D01*
X109888778Y-156124916D01*
X110034781Y-156449748D01*
X110220234Y-156781642D01*
X110449999Y-157130512D01*
X110728937Y-157506274D01*
X110851340Y-157665205D01*
X111062301Y-157949428D01*
X111233761Y-158198526D01*
X111369594Y-158420476D01*
X111473675Y-158623254D01*
X111549879Y-158814835D01*
X111602081Y-159003196D01*
X111634156Y-159196313D01*
X111649978Y-159402162D01*
X111651266Y-159433612D01*
X111655636Y-159591214D01*
X111651987Y-159711058D01*
X111637277Y-159816701D01*
X111608465Y-159931704D01*
X111562508Y-160079624D01*
X111435669Y-160395743D01*
X111245142Y-160714617D01*
X111006822Y-160989669D01*
X110722615Y-161219099D01*
X110394429Y-161401102D01*
X110024170Y-161533877D01*
X109951170Y-161550303D01*
X109771274Y-161574246D01*
X109552598Y-161588541D01*
X109312109Y-161593335D01*
X109066777Y-161588775D01*
X108833569Y-161575008D01*
X108629455Y-161552181D01*
X108471403Y-161520441D01*
X108242574Y-161456499D01*
X108249382Y-161230232D01*
X108250079Y-161201428D01*
X108246085Y-160958759D01*
X108227647Y-160685123D01*
X108197302Y-160404572D01*
X108157589Y-160141157D01*
X108111044Y-159918930D01*
X108054193Y-159721009D01*
X107883951Y-159296768D01*
X107655522Y-158899610D01*
X107370432Y-158530957D01*
X107030210Y-158192229D01*
X106636385Y-157884846D01*
X106190485Y-157610230D01*
X105694038Y-157369801D01*
X105148573Y-157164979D01*
X105143582Y-157163346D01*
X105010755Y-157122053D01*
X104903878Y-157096695D01*
X104800169Y-157084561D01*
X104676844Y-157082941D01*
X104511121Y-157089122D01*
X104410764Y-157093548D01*
X104280151Y-157096027D01*
X104175499Y-157089676D01*
X104074883Y-157071318D01*
X103956381Y-157037782D01*
X103798068Y-156985893D01*
X103725214Y-156960170D01*
X103511086Y-156873726D01*
X103287924Y-156770930D01*
X103088327Y-156666455D01*
X102996322Y-156612641D01*
X102819739Y-156502254D01*
X102636849Y-156380358D01*
X102458013Y-156254532D01*
X102293595Y-156132354D01*
X102153955Y-156021404D01*
X102049458Y-155929260D01*
X101990464Y-155863500D01*
X101948353Y-155775853D01*
X101934111Y-155639629D01*
X101974818Y-155511062D01*
X102065193Y-155403584D01*
X102199957Y-155330627D01*
X102247624Y-155318451D01*
X102315257Y-155317531D01*
X102391341Y-155340370D01*
X102486090Y-155391764D01*
X102609716Y-155476507D01*
X102772431Y-155599394D01*
X102832663Y-155645377D01*
X103145208Y-155865857D01*
X103454268Y-156054942D01*
X103750499Y-156207721D01*
X104024556Y-156319284D01*
X104267093Y-156384722D01*
X104307844Y-156391948D01*
X104382863Y-156401308D01*
X104448630Y-156397965D01*
X104522214Y-156378063D01*
X104620683Y-156337747D01*
X104761107Y-156273165D01*
X104830072Y-156240208D01*
X104996649Y-156155784D01*
X105157120Y-156068830D01*
X105284585Y-155993706D01*
X105497510Y-155859220D01*
X105905692Y-155858476D01*
X106058051Y-155855239D01*
X106381131Y-155831960D01*
X106707222Y-155789028D01*
X107013771Y-155729749D01*
X107278224Y-155657426D01*
X107280012Y-155656836D01*
X107388004Y-155620112D01*
X107468256Y-155590753D01*
X107503511Y-155575068D01*
X107497069Y-155558877D01*
X107447794Y-155510310D01*
X107360273Y-155437575D01*
X107243918Y-155347589D01*
X107108141Y-155247269D01*
X106962354Y-155143532D01*
X106815968Y-155043293D01*
X106678396Y-154953470D01*
X106559048Y-154880980D01*
X106472621Y-154830941D01*
X106386877Y-154780393D01*
X106337815Y-154750325D01*
X106321652Y-154731134D01*
X106314383Y-154683865D01*
X106322370Y-154599028D01*
X106345982Y-154463712D01*
X106366111Y-154347446D01*
X106386843Y-154159829D01*
X106389299Y-153973894D01*
X106372578Y-153773817D01*
X106335781Y-153543775D01*
X106278009Y-153267945D01*
X106273169Y-153239386D01*
X106279351Y-153199799D01*
X106312144Y-153160627D01*
X106381823Y-153111315D01*
X106498660Y-153041314D01*
X106522803Y-153027144D01*
X106692141Y-152923084D01*
X106863219Y-152810818D01*
X107027882Y-152696496D01*
X107177978Y-152586264D01*
X107305354Y-152486270D01*
X107401857Y-152402661D01*
X107459335Y-152341584D01*
X107469634Y-152309187D01*
X107462155Y-152304526D01*
X107402238Y-152282926D01*
X107296240Y-152252234D01*
X107157522Y-152215771D01*
X106999447Y-152176861D01*
X106835377Y-152138827D01*
X106678675Y-152104992D01*
X106542703Y-152078679D01*
X106379008Y-152055619D01*
X106183451Y-152040472D01*
X105947995Y-152033406D01*
X105660077Y-152033781D01*
X105626567Y-152034164D01*
X105596493Y-152034508D01*
X105391500Y-152035602D01*
X105234451Y-152033247D01*
X105111570Y-152026376D01*
X105009076Y-152013923D01*
X104913193Y-151994823D01*
X104810142Y-151968008D01*
X104667119Y-151933210D01*
X104306794Y-151882660D01*
X103926866Y-151875912D01*
X103548389Y-151913870D01*
X103519140Y-151918833D01*
X103264335Y-151973713D01*
X102981351Y-152051535D01*
X102693483Y-152144819D01*
X102424028Y-152246089D01*
X102196283Y-152347866D01*
X101931397Y-152487391D01*
X101473592Y-152763784D01*
X101021043Y-153083557D01*
X100569090Y-153450602D01*
X100113071Y-153868811D01*
X99648324Y-154342074D01*
X99170189Y-154874285D01*
X99132050Y-154918439D01*
X99031373Y-155033101D01*
X98953765Y-155112695D01*
X98883842Y-155167927D01*
X98806225Y-155209499D01*
X98705533Y-155248116D01*
X98566384Y-155294482D01*
X98543434Y-155301980D01*
X98305338Y-155371877D01*
X98078389Y-155421160D01*
X97843659Y-155452421D01*
X97582218Y-155468250D01*
X97275135Y-155471241D01*
X97164687Y-155469748D01*
X96919063Y-155460776D01*
X96678448Y-155442716D01*
X96429254Y-155413841D01*
X96157892Y-155372426D01*
X95850773Y-155316745D01*
X95494309Y-155245073D01*
X95467081Y-155239364D01*
X94996199Y-155125282D01*
X94578233Y-154993577D01*
X94215440Y-154845293D01*
X93910075Y-154681477D01*
X93664393Y-154503174D01*
X93480649Y-154311430D01*
X93444030Y-154264537D01*
X93360784Y-154162270D01*
X93290238Y-154080647D01*
X93286594Y-154076665D01*
X93232710Y-154023068D01*
X93203693Y-154015102D01*
X93183896Y-154047957D01*
X93182476Y-154051728D01*
X93165686Y-154143878D01*
X93161173Y-154275305D01*
X92445551Y-154275305D01*
X92446284Y-154237168D01*
X92447113Y-154208616D01*
X92462767Y-153958519D01*
X92494319Y-153760691D01*
X92545192Y-153604252D01*
X92618812Y-153478323D01*
X92718602Y-153372025D01*
X92784108Y-153320841D01*
X92956162Y-153238383D01*
X93140064Y-153217746D01*
X93332436Y-153257918D01*
X93529901Y-153357889D01*
X93729080Y-153516651D01*
X93926595Y-153733192D01*
X94021447Y-153846830D01*
X94150852Y-153979518D01*
X94287413Y-154087572D01*
X94445381Y-154180291D01*
X94639008Y-154266975D01*
X94882545Y-154356920D01*
X94906494Y-154365009D01*
X95082293Y-154416622D01*
X95306293Y-154472694D01*
X95564192Y-154530419D01*
X95841692Y-154586987D01*
X96124491Y-154639592D01*
X96398289Y-154685424D01*
X96648786Y-154721676D01*
X96861681Y-154745541D01*
X96965604Y-154753466D01*
X97316610Y-154762715D01*
X97658662Y-154746333D01*
X97974183Y-154705637D01*
X98245600Y-154641942D01*
X98280071Y-154631178D01*
X98434144Y-154576149D01*
X98523681Y-154529381D01*
X98548914Y-154490579D01*
X98510075Y-154459446D01*
X98407396Y-154435685D01*
X98323618Y-154421035D01*
X98162704Y-154387750D01*
X97962314Y-154342491D01*
X97736071Y-154288648D01*
X97497599Y-154229610D01*
X97260518Y-154168768D01*
X97038453Y-154109511D01*
X96845027Y-154055229D01*
X96693861Y-154009312D01*
X96328593Y-153880098D01*
X95925171Y-153704014D01*
X95581230Y-153511112D01*
X95294321Y-153299778D01*
X95061994Y-153068397D01*
X94881800Y-152815356D01*
X94828898Y-152718330D01*
X94757728Y-152545945D01*
X94714914Y-152362343D01*
X94697085Y-152150337D01*
X94700872Y-151892737D01*
X94701482Y-151879997D01*
X94713041Y-151705854D01*
X94730204Y-151577663D01*
X94756361Y-151477163D01*
X94794900Y-151386091D01*
X94814409Y-151349242D01*
X94928513Y-151202299D01*
X95071280Y-151112822D01*
X95240087Y-151082599D01*
X95378758Y-151097138D01*
X95511941Y-151147902D01*
X95647152Y-151242338D01*
X95797956Y-151387867D01*
X95951983Y-151549041D01*
X96140463Y-151733715D01*
X96312043Y-151880509D01*
X96480246Y-151997382D01*
X96658593Y-152092293D01*
X96860607Y-152173203D01*
X97099809Y-152248071D01*
X97389723Y-152324857D01*
X97717607Y-152404276D01*
X98056869Y-152477500D01*
X98365323Y-152532215D01*
X98659306Y-152570901D01*
X98955158Y-152596038D01*
X99269215Y-152610106D01*
X99294048Y-152610782D01*
X99670629Y-152611696D01*
X99993579Y-152592196D01*
X100271433Y-152550551D01*
X100512725Y-152485030D01*
X100725989Y-152393904D01*
X100919760Y-152275441D01*
X101294310Y-152031494D01*
X101781904Y-151769378D01*
X102292667Y-151549909D01*
X102814583Y-151377538D01*
X103335637Y-151256719D01*
X103484172Y-151237774D01*
X104758410Y-151237774D01*
X104996760Y-151292762D01*
X105049687Y-151304098D01*
X105157425Y-151321369D01*
X105281291Y-151332739D01*
X105433574Y-151338840D01*
X105626567Y-151340304D01*
X105872561Y-151337762D01*
X106510013Y-151327773D01*
X106519469Y-151079495D01*
X106520427Y-151051612D01*
X106520027Y-150918047D01*
X106507959Y-150835651D01*
X106482743Y-150792889D01*
X106460870Y-150783637D01*
X106393132Y-150773247D01*
X106278479Y-150766175D01*
X106112309Y-150762263D01*
X105890018Y-150761358D01*
X105607006Y-150763304D01*
X104777452Y-150772046D01*
X104767931Y-151004910D01*
X104758410Y-151237774D01*
X103484172Y-151237774D01*
X103843815Y-151191903D01*
X104140000Y-151170879D01*
X104140000Y-151013934D01*
X104141134Y-150952153D01*
X104167343Y-150754433D01*
X110945386Y-150754433D01*
X110954699Y-150800283D01*
X110987139Y-150875714D01*
X111062807Y-150983914D01*
X111167889Y-151041790D01*
X111287170Y-151043076D01*
X111406570Y-150984132D01*
X111477090Y-150905688D01*
X111513679Y-150797745D01*
X111503352Y-150688254D01*
X111453377Y-150590381D01*
X111371026Y-150517296D01*
X111263566Y-150482166D01*
X111138269Y-150498159D01*
X111062851Y-150544519D01*
X110991165Y-150640331D01*
X110959741Y-150706590D01*
X110945386Y-150754433D01*
X104167343Y-150754433D01*
X104174335Y-150701687D01*
X104253389Y-150497321D01*
X104378117Y-150339394D01*
X104548343Y-150228250D01*
X104558418Y-150223794D01*
X104603478Y-150207328D01*
X104658272Y-150194455D01*
X104730751Y-150184733D01*
X104828861Y-150177723D01*
X104960553Y-150172985D01*
X105133776Y-150170079D01*
X105356479Y-150168565D01*
X105636610Y-150168002D01*
X105834525Y-150167970D01*
X106089742Y-150168951D01*
X106292787Y-150172231D01*
X106451661Y-150178998D01*
X106574363Y-150190439D01*
X106668896Y-150207742D01*
X106743258Y-150232096D01*
X106805451Y-150264687D01*
X106863474Y-150306704D01*
X106925329Y-150359334D01*
X107041682Y-150461493D01*
X108723818Y-150461493D01*
X110405954Y-150461493D01*
X110444618Y-150376633D01*
X110489698Y-150292636D01*
X110629428Y-150123045D01*
X110809211Y-149990379D01*
X111014499Y-149903959D01*
X111230743Y-149873101D01*
X111393452Y-149891910D01*
G37*
G36*
X96359820Y-132449395D02*
G01*
X96356055Y-132542449D01*
X96340335Y-132597469D01*
X96308413Y-132612844D01*
X96284991Y-132616313D01*
X96283713Y-132640436D01*
X96324758Y-132698977D01*
X96365025Y-132769503D01*
X96390104Y-132897949D01*
X96372281Y-133030344D01*
X96315493Y-133146200D01*
X96223677Y-133225030D01*
X96201075Y-133235663D01*
X96038524Y-133282595D01*
X95922991Y-133283330D01*
X95879348Y-133283608D01*
X95735220Y-133243588D01*
X95617817Y-133167424D01*
X95538813Y-133060004D01*
X95509884Y-132926213D01*
X95510563Y-132903214D01*
X95527723Y-132798015D01*
X95529949Y-132792638D01*
X95738713Y-132792638D01*
X95765563Y-132860678D01*
X95834849Y-132916834D01*
X95922991Y-132939742D01*
X96022123Y-132925014D01*
X96102004Y-132873654D01*
X96130991Y-132792638D01*
X96115204Y-132734336D01*
X96054090Y-132676082D01*
X95965913Y-132646601D01*
X95871100Y-132651629D01*
X95790083Y-132696904D01*
X95760148Y-132735206D01*
X95738713Y-132792638D01*
X95529949Y-132792638D01*
X95560773Y-132718187D01*
X95589024Y-132674397D01*
X95584795Y-132649752D01*
X95525934Y-132645534D01*
X95490674Y-132647168D01*
X95388189Y-132676281D01*
X95327198Y-132733111D01*
X95315559Y-132806273D01*
X95361125Y-132884382D01*
X95378453Y-132910300D01*
X95408991Y-132993246D01*
X95430716Y-133099201D01*
X95435919Y-133140628D01*
X95440999Y-133220880D01*
X95429378Y-133257761D01*
X95398058Y-133266641D01*
X95389736Y-133266464D01*
X95277558Y-133234335D01*
X95179609Y-133159865D01*
X95121383Y-133061918D01*
X95102754Y-132979333D01*
X95088919Y-132809549D01*
X95102404Y-132645621D01*
X95142175Y-132514774D01*
X95151197Y-132497321D01*
X95203091Y-132420197D01*
X95270521Y-132363859D01*
X95363408Y-132325288D01*
X95491669Y-132301466D01*
X95665223Y-132289375D01*
X95893990Y-132285996D01*
X96359820Y-132285946D01*
X96359820Y-132449395D01*
G37*
G36*
X96359820Y-131386336D02*
G01*
X96359820Y-131559607D01*
X96090129Y-131631998D01*
X96041286Y-131645228D01*
X95926289Y-131677427D01*
X95843969Y-131702021D01*
X95809606Y-131714515D01*
X95814366Y-131718985D01*
X95864252Y-131739543D01*
X95957003Y-131771525D01*
X96079297Y-131810205D01*
X96359820Y-131895769D01*
X96359820Y-132078010D01*
X96359637Y-132110580D01*
X96354506Y-132200557D01*
X96339713Y-132240330D01*
X96311764Y-132241810D01*
X96306100Y-132239595D01*
X96247491Y-132215969D01*
X96144048Y-132173819D01*
X96008544Y-132118362D01*
X95853751Y-132054810D01*
X95755035Y-132014693D01*
X95596271Y-131954727D01*
X95484625Y-131923305D01*
X95411958Y-131921094D01*
X95370130Y-131948763D01*
X95351002Y-132006978D01*
X95346435Y-132096407D01*
X95346205Y-132139306D01*
X95338581Y-132198292D01*
X95308433Y-132214234D01*
X95240193Y-132202712D01*
X95235722Y-132201714D01*
X95156309Y-132174805D01*
X95109935Y-132142907D01*
X95092599Y-132087086D01*
X95086301Y-131987179D01*
X95094313Y-131876417D01*
X95116147Y-131783091D01*
X95131451Y-131746843D01*
X95154780Y-131709165D01*
X95190408Y-131673981D01*
X95245390Y-131637834D01*
X95326777Y-131597265D01*
X95441622Y-131548817D01*
X95596979Y-131489033D01*
X95799901Y-131414455D01*
X96057439Y-131321624D01*
X96359820Y-131213065D01*
X96359820Y-131386336D01*
G37*
G36*
X96719408Y-146538713D02*
G01*
X96719408Y-146734852D01*
X96292291Y-146734852D01*
X96157362Y-146735833D01*
X95985224Y-146742474D01*
X95865324Y-146757043D01*
X95789629Y-146781466D01*
X95750103Y-146817669D01*
X95738713Y-146867578D01*
X95738737Y-146869872D01*
X95763015Y-146922957D01*
X95840283Y-146952939D01*
X95851177Y-146955155D01*
X95911529Y-146974503D01*
X95930756Y-147012225D01*
X95922368Y-147091054D01*
X95920839Y-147100466D01*
X95907992Y-147195590D01*
X95902522Y-147266061D01*
X95902301Y-147271557D01*
X95874719Y-147315568D01*
X95811199Y-147325128D01*
X95726290Y-147305341D01*
X95634543Y-147261309D01*
X95550506Y-147198137D01*
X95488730Y-147120927D01*
X95471025Y-147070666D01*
X95453078Y-146966633D01*
X95445663Y-146845928D01*
X95449622Y-146756640D01*
X95491379Y-146586381D01*
X95577632Y-146461877D01*
X95707155Y-146385281D01*
X95707333Y-146385220D01*
X95786527Y-146369555D01*
X95916422Y-146356826D01*
X96082420Y-146348094D01*
X96269923Y-146344419D01*
X96719408Y-146342574D01*
X96719408Y-146538713D01*
G37*
G36*
X95697851Y-145223093D02*
G01*
X95881190Y-145232196D01*
X96062157Y-145250487D01*
X96193047Y-145280905D01*
X96282375Y-145328395D01*
X96338655Y-145397899D01*
X96370403Y-145494361D01*
X96386132Y-145622726D01*
X96389685Y-145684148D01*
X96384028Y-145880974D01*
X96347114Y-146028446D01*
X96277415Y-146133742D01*
X96199091Y-146198589D01*
X96143987Y-146207805D01*
X96110136Y-146157032D01*
X96093284Y-146044201D01*
X96091246Y-146001864D01*
X96096975Y-145904313D01*
X96119869Y-145862042D01*
X96141960Y-145845916D01*
X96173608Y-145781197D01*
X96181948Y-145700683D01*
X96161086Y-145636615D01*
X96140453Y-145614204D01*
X96098397Y-145594996D01*
X96064917Y-145631958D01*
X96033790Y-145729639D01*
X96000277Y-145862033D01*
X95963892Y-145991908D01*
X95932757Y-146079926D01*
X95902212Y-146138739D01*
X95867599Y-146180998D01*
X95843217Y-146201833D01*
X95740138Y-146241436D01*
X95692213Y-146235988D01*
X95626948Y-146228570D01*
X95524743Y-146164266D01*
X95476405Y-146103324D01*
X95451115Y-146025963D01*
X95444505Y-145910021D01*
X95444647Y-145894323D01*
X95460190Y-145755625D01*
X95460220Y-145755550D01*
X95644191Y-145755550D01*
X95649207Y-145828308D01*
X95692213Y-145874067D01*
X95748022Y-145873171D01*
X95809792Y-145814697D01*
X95863478Y-145696949D01*
X95881308Y-145635434D01*
X95877795Y-145598937D01*
X95842356Y-145590708D01*
X95788775Y-145602769D01*
X95713297Y-145641596D01*
X95674937Y-145680342D01*
X95644191Y-145755550D01*
X95460220Y-145755550D01*
X95498330Y-145659169D01*
X95527618Y-145614140D01*
X95533153Y-145578928D01*
X95498330Y-145552201D01*
X95484561Y-145542161D01*
X95453968Y-145480767D01*
X95444505Y-145367792D01*
X95444505Y-145213504D01*
X95697851Y-145223093D01*
G37*
G36*
X96719408Y-144348494D02*
G01*
X96719408Y-144511943D01*
X96505071Y-144511943D01*
X96290733Y-144511943D01*
X96341621Y-144584596D01*
X96379837Y-144660266D01*
X96395555Y-144791949D01*
X96361038Y-144922646D01*
X96282029Y-145035249D01*
X96164275Y-145112653D01*
X96112732Y-145130721D01*
X95937553Y-145159480D01*
X95906365Y-145156668D01*
X95765949Y-145144005D01*
X95615163Y-145087417D01*
X95502439Y-144992838D01*
X95470415Y-144931429D01*
X95447830Y-144812440D01*
X95455139Y-144687462D01*
X95471749Y-144643870D01*
X95712683Y-144643870D01*
X95725108Y-144735221D01*
X95788960Y-144788718D01*
X95906365Y-144806152D01*
X95992703Y-144796539D01*
X96079944Y-144756426D01*
X96122344Y-144695483D01*
X96113507Y-144625061D01*
X96047037Y-144556511D01*
X96021661Y-144541225D01*
X95942951Y-144517846D01*
X95842725Y-144531240D01*
X95796125Y-144544779D01*
X95735148Y-144581929D01*
X95712791Y-144642932D01*
X95712683Y-144643870D01*
X95471749Y-144643870D01*
X95493070Y-144587914D01*
X95513092Y-144557791D01*
X95524098Y-144520602D01*
X95493070Y-144499941D01*
X95486603Y-144496810D01*
X95454818Y-144443901D01*
X95444505Y-144333175D01*
X95444505Y-144185045D01*
X96081956Y-144185045D01*
X96719408Y-144185045D01*
X96719408Y-144348494D01*
G37*
G36*
X96050433Y-143063544D02*
G01*
X96184147Y-143130286D01*
X96292817Y-143238985D01*
X96365815Y-143385062D01*
X96392510Y-143563938D01*
X96391610Y-143599295D01*
X96355398Y-143778753D01*
X96272062Y-143922852D01*
X96149556Y-144024541D01*
X95995832Y-144076770D01*
X95912909Y-144074764D01*
X95818845Y-144072488D01*
X95762039Y-144055765D01*
X95644756Y-143992439D01*
X95540415Y-143904688D01*
X95474466Y-143811778D01*
X95461622Y-143752774D01*
X95453729Y-143647661D01*
X95453899Y-143581107D01*
X95679437Y-143581107D01*
X95712744Y-143655145D01*
X95793077Y-143707519D01*
X95912909Y-143727387D01*
X95965133Y-143721972D01*
X96061434Y-143686371D01*
X96134618Y-143629129D01*
X96163681Y-143563938D01*
X96146297Y-143524414D01*
X96098301Y-143465868D01*
X96027406Y-143421785D01*
X95918376Y-143400138D01*
X95809171Y-143412827D01*
X95727435Y-143460270D01*
X95700686Y-143496248D01*
X95679437Y-143581107D01*
X95453899Y-143581107D01*
X95454045Y-143524171D01*
X95459716Y-143427032D01*
X95474818Y-143335013D01*
X95505267Y-143268553D01*
X95558568Y-143204716D01*
X95605332Y-143160843D01*
X95750396Y-143074243D01*
X95902306Y-143043336D01*
X96050433Y-143063544D01*
G37*
G36*
X96050433Y-141984779D02*
G01*
X96184147Y-142051522D01*
X96292817Y-142160221D01*
X96365815Y-142306298D01*
X96392510Y-142485173D01*
X96391610Y-142520530D01*
X96355398Y-142699989D01*
X96272062Y-142844088D01*
X96149556Y-142945777D01*
X95995832Y-142998006D01*
X95912909Y-142996000D01*
X95818845Y-142993724D01*
X95762039Y-142977000D01*
X95644756Y-142913675D01*
X95540415Y-142825924D01*
X95474466Y-142733013D01*
X95461622Y-142674009D01*
X95453729Y-142568896D01*
X95453899Y-142502342D01*
X95679437Y-142502342D01*
X95712744Y-142576381D01*
X95793077Y-142628755D01*
X95912909Y-142648623D01*
X95965133Y-142643207D01*
X96061434Y-142607606D01*
X96134618Y-142550365D01*
X96163681Y-142485173D01*
X96146297Y-142445649D01*
X96098301Y-142387104D01*
X96027406Y-142343020D01*
X95918376Y-142321373D01*
X95809171Y-142334063D01*
X95727435Y-142381505D01*
X95700686Y-142417483D01*
X95679437Y-142502342D01*
X95453899Y-142502342D01*
X95454045Y-142445407D01*
X95459716Y-142348268D01*
X95474818Y-142256249D01*
X95505267Y-142189789D01*
X95558568Y-142125951D01*
X95605332Y-142082079D01*
X95750396Y-141995479D01*
X95902306Y-141964572D01*
X96050433Y-141984779D01*
G37*
G36*
X96719408Y-140867027D02*
G01*
X96719408Y-141439099D01*
X96555959Y-141439099D01*
X96392510Y-141439099D01*
X96392510Y-141242960D01*
X96392510Y-141046821D01*
X95916876Y-141046821D01*
X95441242Y-141046821D01*
X95451046Y-140858854D01*
X95460850Y-140670888D01*
X95926680Y-140661818D01*
X96392510Y-140652748D01*
X96392510Y-140473851D01*
X96392510Y-140294955D01*
X96555959Y-140294955D01*
X96719408Y-140294955D01*
X96719408Y-140867027D01*
G37*
G36*
X96032215Y-139234402D02*
G01*
X96173887Y-139297772D01*
X96293462Y-139393363D01*
X96310781Y-139413261D01*
X96351209Y-139479918D01*
X96374146Y-139568217D01*
X96386187Y-139699957D01*
X96389529Y-139783522D01*
X96384997Y-139884228D01*
X96363787Y-139959388D01*
X96321134Y-140033436D01*
X96318117Y-140037866D01*
X96201692Y-140157618D01*
X96058706Y-140230876D01*
X96032922Y-140235263D01*
X95903320Y-140257312D01*
X95749693Y-140236596D01*
X95611988Y-140168401D01*
X95504363Y-140052397D01*
X95482496Y-140013019D01*
X95458564Y-139939652D01*
X95449150Y-139841591D01*
X95451239Y-139698770D01*
X95453740Y-139641405D01*
X95462600Y-139529891D01*
X95480015Y-139455986D01*
X95512425Y-139399654D01*
X95566268Y-139340858D01*
X95598871Y-139309642D01*
X95656441Y-139262522D01*
X95685742Y-139250556D01*
X95699246Y-139285186D01*
X95707770Y-139367635D01*
X95706974Y-139469573D01*
X95697294Y-139565731D01*
X95679167Y-139630836D01*
X95651535Y-139691987D01*
X95647632Y-139768944D01*
X95694745Y-139842895D01*
X95717393Y-139866774D01*
X95767299Y-139904551D01*
X95801593Y-139897888D01*
X95822874Y-139841603D01*
X95832886Y-139739227D01*
X96000232Y-139739227D01*
X96002438Y-139798104D01*
X96014274Y-139873276D01*
X96032922Y-139902677D01*
X96062933Y-139891044D01*
X96120472Y-139846448D01*
X96173248Y-139790340D01*
X96196371Y-139746501D01*
X96190880Y-139721596D01*
X96152633Y-139658141D01*
X96097152Y-139600758D01*
X96047413Y-139575778D01*
X96024893Y-139584805D01*
X96005877Y-139635133D01*
X96000232Y-139739227D01*
X95832886Y-139739227D01*
X95833738Y-139730512D01*
X95836783Y-139559433D01*
X95836783Y-139216190D01*
X95919557Y-139216190D01*
X96032215Y-139234402D01*
G37*
G36*
X95797144Y-138190283D02*
G01*
X95807243Y-138270694D01*
X95799301Y-138370048D01*
X95775672Y-138464375D01*
X95738713Y-138529704D01*
X95686379Y-138600314D01*
X95683063Y-138678322D01*
X95742508Y-138762328D01*
X95775265Y-138790824D01*
X95843368Y-138817823D01*
X95942606Y-138813942D01*
X95978867Y-138808661D01*
X96065859Y-138786086D01*
X96114420Y-138744876D01*
X96145334Y-138670308D01*
X96148748Y-138610660D01*
X96100524Y-138531926D01*
X96063537Y-138485158D01*
X96046803Y-138419508D01*
X96054260Y-138317770D01*
X96066674Y-138248258D01*
X96096153Y-138185255D01*
X96145754Y-138178773D01*
X96225240Y-138223423D01*
X96230615Y-138227295D01*
X96317787Y-138330161D01*
X96373110Y-138480641D01*
X96392388Y-138667586D01*
X96385899Y-138766005D01*
X96335572Y-138934226D01*
X96238774Y-139059556D01*
X96099495Y-139137779D01*
X95921727Y-139164680D01*
X95901838Y-139164389D01*
X95726873Y-139134307D01*
X95588458Y-139057997D01*
X95495222Y-138940005D01*
X95472900Y-138875770D01*
X95452299Y-138746512D01*
X95447395Y-138601032D01*
X95458600Y-138465787D01*
X95486325Y-138367236D01*
X95512568Y-138327850D01*
X95578353Y-138260399D01*
X95656632Y-138200161D01*
X95728592Y-138160869D01*
X95775418Y-138156252D01*
X95797144Y-138190283D01*
G37*
G36*
X96031888Y-137099295D02*
G01*
X96154571Y-137117869D01*
X96244646Y-137152811D01*
X96314438Y-137206446D01*
X96350382Y-137254345D01*
X96388981Y-137369994D01*
X96387755Y-137494748D01*
X96344515Y-137599968D01*
X96326651Y-137624435D01*
X96302859Y-137671578D01*
X96319434Y-137698126D01*
X96384686Y-137709834D01*
X96506924Y-137712458D01*
X96719408Y-137712458D01*
X96719408Y-137875907D01*
X96719408Y-138039356D01*
X96081956Y-138039356D01*
X95444505Y-138039356D01*
X95444505Y-137879160D01*
X95444505Y-137718963D01*
X95741368Y-137707538D01*
X95762913Y-137706680D01*
X95903676Y-137698380D01*
X95994718Y-137685550D01*
X96049966Y-137665213D01*
X96083345Y-137634390D01*
X96108308Y-137584998D01*
X96095885Y-137511803D01*
X96084710Y-137494784D01*
X96053082Y-137472072D01*
X95995979Y-137458763D01*
X95900114Y-137452503D01*
X95752200Y-137450939D01*
X95441088Y-137450939D01*
X95450969Y-137279318D01*
X95460850Y-137107696D01*
X95738713Y-137097750D01*
X95864274Y-137094760D01*
X96031888Y-137099295D01*
G37*
G36*
X96031888Y-136020530D02*
G01*
X96154571Y-136039105D01*
X96244646Y-136074046D01*
X96314438Y-136127682D01*
X96353521Y-136179199D01*
X96391412Y-136299345D01*
X96382015Y-136429896D01*
X96324758Y-136547560D01*
X96292364Y-136591375D01*
X96280068Y-136625310D01*
X96308413Y-136633693D01*
X96337680Y-136645664D01*
X96354984Y-136695647D01*
X96359820Y-136797143D01*
X96359820Y-136960592D01*
X95902162Y-136960592D01*
X95444505Y-136960592D01*
X95444505Y-136800395D01*
X95444505Y-136640199D01*
X95741368Y-136628773D01*
X95762913Y-136627915D01*
X95903676Y-136619615D01*
X95994718Y-136606786D01*
X96049966Y-136586449D01*
X96083345Y-136555625D01*
X96108308Y-136506234D01*
X96095885Y-136433039D01*
X96084710Y-136416019D01*
X96053082Y-136393307D01*
X95995979Y-136379998D01*
X95900114Y-136373738D01*
X95752200Y-136372175D01*
X95441088Y-136372175D01*
X95450969Y-136200553D01*
X95460850Y-136028931D01*
X95738713Y-136018985D01*
X95864274Y-136015996D01*
X96031888Y-136020530D01*
G37*
G36*
X96050433Y-134923775D02*
G01*
X96184147Y-134990518D01*
X96292817Y-135099217D01*
X96365815Y-135245294D01*
X96392510Y-135424170D01*
X96391610Y-135459527D01*
X96355398Y-135638985D01*
X96272062Y-135783084D01*
X96149556Y-135884773D01*
X95995832Y-135937002D01*
X95912909Y-135934996D01*
X95818845Y-135932720D01*
X95762039Y-135915996D01*
X95644756Y-135852671D01*
X95540415Y-135764920D01*
X95474466Y-135672010D01*
X95461622Y-135613005D01*
X95453729Y-135507892D01*
X95453899Y-135441339D01*
X95679437Y-135441339D01*
X95712744Y-135515377D01*
X95793077Y-135567751D01*
X95912909Y-135587619D01*
X95965133Y-135582203D01*
X96061434Y-135546602D01*
X96134618Y-135489361D01*
X96163681Y-135424170D01*
X96146297Y-135384645D01*
X96098301Y-135326100D01*
X96027406Y-135282017D01*
X95918376Y-135260369D01*
X95809171Y-135273059D01*
X95727435Y-135320502D01*
X95700686Y-135356480D01*
X95679437Y-135441339D01*
X95453899Y-135441339D01*
X95454045Y-135384403D01*
X95459716Y-135287264D01*
X95474818Y-135195245D01*
X95505267Y-135128785D01*
X95558568Y-135064948D01*
X95605332Y-135021075D01*
X95750396Y-134934475D01*
X95902306Y-134903568D01*
X96050433Y-134923775D01*
G37*
G36*
X96719408Y-134639614D02*
G01*
X96719408Y-134803063D01*
X96081956Y-134803063D01*
X95444505Y-134803063D01*
X95444505Y-134639614D01*
X95444505Y-134476164D01*
X96081956Y-134476164D01*
X96719408Y-134476164D01*
X96719408Y-134639614D01*
G37*
G36*
X96013206Y-133347353D02*
G01*
X96172871Y-133403494D01*
X96292101Y-133508533D01*
X96366710Y-133657587D01*
X96392510Y-133845772D01*
X96391874Y-133877392D01*
X96357374Y-134057965D01*
X96269808Y-134200615D01*
X96128572Y-134306393D01*
X96094407Y-134322822D01*
X95926266Y-134365634D01*
X95923447Y-134365315D01*
X95765559Y-134347435D01*
X95622787Y-134271053D01*
X95508446Y-134139317D01*
X95464769Y-134033485D01*
X95444627Y-133854548D01*
X95447820Y-133822298D01*
X95676409Y-133822298D01*
X95682514Y-133897366D01*
X95732779Y-133959670D01*
X95816619Y-134001041D01*
X95923447Y-134013314D01*
X96042680Y-133988321D01*
X96117381Y-133940079D01*
X96147056Y-133862240D01*
X96114634Y-133768727D01*
X96083099Y-133730383D01*
X96021408Y-133699686D01*
X95920089Y-133691608D01*
X95910354Y-133691692D01*
X95797545Y-133706629D01*
X95724703Y-133742978D01*
X95676409Y-133822298D01*
X95447820Y-133822298D01*
X95460705Y-133692140D01*
X95522936Y-133531945D01*
X95628980Y-133417863D01*
X95775616Y-133353107D01*
X95959621Y-133340892D01*
X96013206Y-133347353D01*
G37*
G36*
X98356515Y-129498475D02*
G01*
X98477415Y-129562404D01*
X98565830Y-129669689D01*
X98569654Y-129679841D01*
X98574531Y-129702982D01*
X98579054Y-129738978D01*
X98583237Y-129790114D01*
X98587091Y-129858673D01*
X98590631Y-129946938D01*
X98593868Y-130057194D01*
X98596816Y-130191723D01*
X98599488Y-130352810D01*
X98601897Y-130542739D01*
X98604055Y-130763792D01*
X98605976Y-131018254D01*
X98607672Y-131308408D01*
X98609156Y-131636537D01*
X98610442Y-132004927D01*
X98611542Y-132415859D01*
X98612468Y-132871618D01*
X98613235Y-133374488D01*
X98613854Y-133926751D01*
X98614340Y-134530693D01*
X98614703Y-135188596D01*
X98614959Y-135902743D01*
X98615119Y-136675420D01*
X98615196Y-137508909D01*
X98615203Y-138405493D01*
X98615186Y-138987755D01*
X98615143Y-139835141D01*
X98615064Y-140621013D01*
X98614933Y-141347719D01*
X98614733Y-142017605D01*
X98614447Y-142633020D01*
X98614056Y-143196309D01*
X98613546Y-143709820D01*
X98612898Y-144175900D01*
X98612095Y-144596897D01*
X98611121Y-144975157D01*
X98609958Y-145313028D01*
X98608589Y-145612857D01*
X98606998Y-145876990D01*
X98605167Y-146107776D01*
X98603079Y-146307561D01*
X98600717Y-146478692D01*
X98598065Y-146623516D01*
X98595104Y-146744381D01*
X98591819Y-146843634D01*
X98588191Y-146923622D01*
X98584205Y-146986691D01*
X98579842Y-147035190D01*
X98575087Y-147071465D01*
X98569921Y-147097863D01*
X98564328Y-147116732D01*
X98558291Y-147130419D01*
X98551793Y-147141270D01*
X98497418Y-147210195D01*
X98375782Y-147293835D01*
X98223141Y-147320952D01*
X98137470Y-147313310D01*
X98002150Y-147256467D01*
X97894488Y-147141270D01*
X97890229Y-147134451D01*
X97884032Y-147122033D01*
X97878284Y-147105260D01*
X97872969Y-147081787D01*
X97868071Y-147049265D01*
X97863572Y-147005347D01*
X97859455Y-146947687D01*
X97855703Y-146873938D01*
X97852298Y-146781751D01*
X97849225Y-146668780D01*
X97846466Y-146532678D01*
X97844003Y-146371097D01*
X97841821Y-146181691D01*
X97839901Y-145962113D01*
X97838227Y-145710015D01*
X97836782Y-145423050D01*
X97835548Y-145098871D01*
X97834509Y-144735130D01*
X97833648Y-144329482D01*
X97832947Y-143879578D01*
X97832390Y-143383071D01*
X97831959Y-142837615D01*
X97831638Y-142240862D01*
X97831409Y-141590464D01*
X97831256Y-140884076D01*
X97831161Y-140119350D01*
X97831107Y-139293938D01*
X97831078Y-138405493D01*
X97831077Y-137739174D01*
X97831135Y-136889265D01*
X97831271Y-136100770D01*
X97831500Y-135371406D01*
X97831834Y-134698890D01*
X97832286Y-134080937D01*
X97832869Y-133515265D01*
X97833595Y-132999589D01*
X97834479Y-132531625D01*
X97835531Y-132109091D01*
X97836767Y-131729702D01*
X97838197Y-131391175D01*
X97839836Y-131091226D01*
X97841697Y-130827572D01*
X97843791Y-130597929D01*
X97846132Y-130400013D01*
X97848734Y-130231540D01*
X97851608Y-130090227D01*
X97854768Y-129973791D01*
X97858226Y-129879947D01*
X97861996Y-129806412D01*
X97866091Y-129750902D01*
X97870523Y-129711134D01*
X97875305Y-129684825D01*
X97880451Y-129669689D01*
X97963430Y-129566827D01*
X98083071Y-129500687D01*
X98219584Y-129477903D01*
X98356515Y-129498475D01*
G37*
G36*
X102467820Y-132785577D02*
G01*
X102787447Y-132846502D01*
X103074788Y-132955719D01*
X103339673Y-133117072D01*
X103591931Y-133334406D01*
X103653309Y-133396393D01*
X103782314Y-133540818D01*
X103878961Y-133677089D01*
X103958816Y-133826063D01*
X104021074Y-133963681D01*
X104090337Y-134144217D01*
X104138096Y-134318635D01*
X104167861Y-134504702D01*
X104183145Y-134720187D01*
X104187459Y-134982857D01*
X104185312Y-135176976D01*
X104173347Y-135405995D01*
X104147781Y-135599791D01*
X104105133Y-135775713D01*
X104041922Y-135951114D01*
X103954667Y-136143346D01*
X103880873Y-136273983D01*
X103726677Y-136482910D01*
X103539657Y-136683380D01*
X103337247Y-136857409D01*
X103136878Y-136987012D01*
X103002117Y-137050198D01*
X102698359Y-137149589D01*
X102372712Y-137206611D01*
X102113231Y-137217902D01*
X102039384Y-137221115D01*
X101712583Y-137192951D01*
X101406515Y-137121971D01*
X101135389Y-137008024D01*
X100851955Y-136823243D01*
X100589905Y-136579739D01*
X100376313Y-136293612D01*
X100213109Y-135967480D01*
X100102220Y-135603964D01*
X100080000Y-135465162D01*
X100063482Y-135258358D01*
X100057636Y-135025866D01*
X100058170Y-134999479D01*
X101102257Y-134999479D01*
X101130467Y-135179743D01*
X101197830Y-135346789D01*
X101300252Y-135479780D01*
X101336230Y-135508443D01*
X101432313Y-135569712D01*
X101541566Y-135626620D01*
X101549781Y-135630366D01*
X101627412Y-135661550D01*
X101706634Y-135682187D01*
X101803386Y-135694373D01*
X101933605Y-135700202D01*
X102113231Y-135701769D01*
X102139165Y-135701768D01*
X102311287Y-135700037D01*
X102435999Y-135693768D01*
X102529224Y-135680877D01*
X102606882Y-135659278D01*
X102684895Y-135626884D01*
X102695522Y-135621931D01*
X102888480Y-135505125D01*
X103022713Y-135362448D01*
X103101124Y-135189663D01*
X103126615Y-134982536D01*
X103125593Y-134931941D01*
X103101851Y-134776848D01*
X103038585Y-134647306D01*
X102925093Y-134518683D01*
X102853747Y-134456562D01*
X102737548Y-134383749D01*
X102600651Y-134334407D01*
X102428382Y-134303813D01*
X102206070Y-134287245D01*
X102127848Y-134284751D01*
X101841676Y-134296449D01*
X101605582Y-134344719D01*
X101415044Y-134431454D01*
X101265538Y-134558546D01*
X101152540Y-134727887D01*
X101117294Y-134826832D01*
X101102257Y-134999479D01*
X100058170Y-134999479D01*
X100062436Y-134788749D01*
X100077851Y-134568069D01*
X100103855Y-134384889D01*
X100134803Y-134252772D01*
X100256433Y-133919667D01*
X100432043Y-133613941D01*
X100655552Y-133347032D01*
X100882448Y-133148793D01*
X101153657Y-132977901D01*
X101449093Y-132859766D01*
X101777074Y-132791159D01*
X102145920Y-132768854D01*
X102467820Y-132785577D01*
G37*
G36*
X101571571Y-128267317D02*
G01*
X101688002Y-128280237D01*
X101790620Y-128310361D01*
X101908512Y-128364039D01*
X101947480Y-128384392D01*
X102170016Y-128541855D01*
X102352889Y-128750143D01*
X102496693Y-129010077D01*
X102602021Y-129322478D01*
X102610440Y-129357485D01*
X102638754Y-129493741D01*
X102670873Y-129669337D01*
X102703456Y-129865395D01*
X102733159Y-130063037D01*
X102733791Y-130067506D01*
X102773867Y-130325498D01*
X102813623Y-130524856D01*
X102855373Y-130672169D01*
X102901432Y-130774029D01*
X102954113Y-130837024D01*
X103015731Y-130867745D01*
X103060248Y-130875024D01*
X103172630Y-130855235D01*
X103265679Y-130784303D01*
X103334763Y-130671720D01*
X103375248Y-130526978D01*
X103382502Y-130359569D01*
X103351892Y-130178985D01*
X103342902Y-130151728D01*
X103273097Y-130026641D01*
X103167948Y-129906844D01*
X103047883Y-129816683D01*
X103033023Y-129807393D01*
X103017341Y-129789568D01*
X103007826Y-129758389D01*
X103004581Y-129705242D01*
X103007707Y-129621516D01*
X103017307Y-129498598D01*
X103033480Y-129327877D01*
X103056330Y-129100741D01*
X103062901Y-129036696D01*
X103084121Y-128838542D01*
X103103909Y-128666135D01*
X103121050Y-128529307D01*
X103134333Y-128437891D01*
X103142545Y-128401719D01*
X103166293Y-128402126D01*
X103235066Y-128423855D01*
X103329652Y-128463864D01*
X103419038Y-128508880D01*
X103669740Y-128679722D01*
X103874151Y-128892192D01*
X104027477Y-129140530D01*
X104124923Y-129418978D01*
X104140436Y-129492375D01*
X104176233Y-129742888D01*
X104196096Y-130025710D01*
X104200464Y-130324788D01*
X104189776Y-130624068D01*
X104164471Y-130907496D01*
X104124988Y-131159018D01*
X104071766Y-131362581D01*
X104013250Y-131510468D01*
X103870342Y-131759486D01*
X103690971Y-131957486D01*
X103478333Y-132101987D01*
X103235626Y-132190508D01*
X102966050Y-132220566D01*
X102961943Y-132220561D01*
X102728792Y-132200855D01*
X102524566Y-132137637D01*
X102323714Y-132023050D01*
X102241534Y-131961438D01*
X102134989Y-131859625D01*
X102043100Y-131738107D01*
X101962552Y-131589306D01*
X101890025Y-131405644D01*
X101822203Y-131179546D01*
X101755767Y-130903434D01*
X101687402Y-130569729D01*
X101662242Y-130441060D01*
X101613375Y-130204954D01*
X101570697Y-130022819D01*
X101531957Y-129887311D01*
X101494902Y-129791088D01*
X101457283Y-129726806D01*
X101416849Y-129687122D01*
X101333172Y-129648800D01*
X101215410Y-129647990D01*
X101102226Y-129698320D01*
X101006761Y-129793181D01*
X100942151Y-129925962D01*
X100927337Y-129985152D01*
X100906531Y-130159663D01*
X100910986Y-130339267D01*
X100940781Y-130491299D01*
X100954421Y-130526271D01*
X101036626Y-130658236D01*
X101151267Y-130774579D01*
X101275759Y-130851047D01*
X101284117Y-130854377D01*
X101353407Y-130882734D01*
X101386818Y-130897757D01*
X101387797Y-130909159D01*
X101384660Y-130973990D01*
X101376223Y-131086287D01*
X101363578Y-131234839D01*
X101347819Y-131408434D01*
X101330038Y-131595858D01*
X101311328Y-131785900D01*
X101292781Y-131967347D01*
X101275491Y-132128986D01*
X101260549Y-132259605D01*
X101249049Y-132347991D01*
X101242084Y-132382933D01*
X101221383Y-132387428D01*
X101151484Y-132372429D01*
X101049859Y-132335807D01*
X100932010Y-132284029D01*
X100813442Y-132223561D01*
X100709659Y-132160870D01*
X100643818Y-132113113D01*
X100442054Y-131915016D01*
X100282147Y-131667383D01*
X100164629Y-131371183D01*
X100090029Y-131027387D01*
X100082433Y-130963748D01*
X100070401Y-130798625D01*
X100062630Y-130597357D01*
X100059140Y-130376840D01*
X100059952Y-130153970D01*
X100065085Y-129945643D01*
X100074559Y-129768756D01*
X100088394Y-129640206D01*
X100132080Y-129427400D01*
X100238242Y-129109435D01*
X100384740Y-128836407D01*
X100569327Y-128611423D01*
X100789757Y-128437594D01*
X101043781Y-128318030D01*
X101130935Y-128295654D01*
X101286920Y-128273391D01*
X101455355Y-128265096D01*
X101571571Y-128267317D01*
G37*
G36*
X101489328Y-123337963D02*
G01*
X101523318Y-123374028D01*
X101548698Y-123447156D01*
X101569827Y-123564276D01*
X101591063Y-123732318D01*
X101616765Y-123958211D01*
X101619111Y-123978723D01*
X101646776Y-124219640D01*
X101667062Y-124404320D01*
X101679254Y-124540958D01*
X101682639Y-124637749D01*
X101676501Y-124702887D01*
X101660126Y-124744567D01*
X101632800Y-124770983D01*
X101593809Y-124790331D01*
X101542439Y-124810804D01*
X101432366Y-124867473D01*
X101282203Y-124995442D01*
X101176300Y-125155161D01*
X101115047Y-125336011D01*
X101098832Y-125527370D01*
X101128043Y-125718621D01*
X101203070Y-125899141D01*
X101324300Y-126058313D01*
X101492124Y-126185515D01*
X101577602Y-126230761D01*
X101655936Y-126261626D01*
X101743106Y-126280541D01*
X101857959Y-126291552D01*
X102019343Y-126298705D01*
X102292233Y-126293677D01*
X102556156Y-126250469D01*
X102770483Y-126166504D01*
X102936674Y-126040946D01*
X103056191Y-125872957D01*
X103130492Y-125661700D01*
X103151114Y-125498817D01*
X103129465Y-125292104D01*
X103055140Y-125108362D01*
X102932474Y-124957258D01*
X102765800Y-124848455D01*
X102753293Y-124842762D01*
X102675786Y-124800656D01*
X102644759Y-124760002D01*
X102646178Y-124703833D01*
X102654254Y-124651986D01*
X102669383Y-124544392D01*
X102689554Y-124395092D01*
X102713142Y-124216137D01*
X102738520Y-124019579D01*
X102754308Y-123899313D01*
X102785628Y-123684303D01*
X102813167Y-123531284D01*
X102837358Y-123438037D01*
X102858632Y-123402341D01*
X102878191Y-123402569D01*
X102950213Y-123423527D01*
X103056560Y-123466077D01*
X103182089Y-123524500D01*
X103413696Y-123657134D01*
X103647226Y-123842911D01*
X103836191Y-124062791D01*
X103983100Y-124321355D01*
X104090465Y-124623185D01*
X104160798Y-124972861D01*
X104196611Y-125374964D01*
X104199933Y-125700573D01*
X104165466Y-126104070D01*
X104085019Y-126463762D01*
X103957481Y-126782243D01*
X103781744Y-127062108D01*
X103556698Y-127305954D01*
X103281234Y-127516375D01*
X103131566Y-127605692D01*
X102969444Y-127681157D01*
X102799014Y-127734160D01*
X102606177Y-127767970D01*
X102376833Y-127785858D01*
X102096886Y-127791094D01*
X101997696Y-127790728D01*
X101766642Y-127785057D01*
X101581226Y-127770105D01*
X101427152Y-127742773D01*
X101290125Y-127699962D01*
X101155849Y-127638573D01*
X101010030Y-127555509D01*
X100860276Y-127455396D01*
X100594140Y-127221391D01*
X100377352Y-126947266D01*
X100319160Y-126851813D01*
X100228106Y-126663284D01*
X100158287Y-126451072D01*
X100102135Y-126194471D01*
X100093974Y-126144414D01*
X100072954Y-125945782D01*
X100060893Y-125710727D01*
X100057789Y-125459486D01*
X100063642Y-125212297D01*
X100078450Y-124989396D01*
X100102212Y-124811022D01*
X100149831Y-124615000D01*
X100277574Y-124294548D01*
X100457846Y-124006005D01*
X100685499Y-123755656D01*
X100955385Y-123549787D01*
X101262357Y-123394681D01*
X101292118Y-123382840D01*
X101378086Y-123349298D01*
X101442370Y-123332029D01*
X101489328Y-123337963D01*
G37*
G36*
X100138371Y-118426031D02*
G01*
X100186867Y-118439953D01*
X100277403Y-118468692D01*
X100393917Y-118507181D01*
X100456846Y-118527887D01*
X100518462Y-118545836D01*
X100581851Y-118559876D01*
X100654962Y-118570493D01*
X100745747Y-118578172D01*
X100862156Y-118583398D01*
X101012142Y-118586657D01*
X101203653Y-118588432D01*
X101444643Y-118589209D01*
X101743061Y-118589473D01*
X101956035Y-118589857D01*
X102266370Y-118592055D01*
X102523587Y-118596903D01*
X102735369Y-118605212D01*
X102909394Y-118617794D01*
X103053342Y-118635460D01*
X103174894Y-118659022D01*
X103281730Y-118689291D01*
X103381529Y-118727078D01*
X103481973Y-118773195D01*
X103546377Y-118807215D01*
X103749723Y-118957156D01*
X103913318Y-119154037D01*
X104039345Y-119400987D01*
X104129989Y-119701133D01*
X104130112Y-119701682D01*
X104153500Y-119849194D01*
X104171015Y-120047041D01*
X104182662Y-120280789D01*
X104188444Y-120536008D01*
X104188365Y-120798266D01*
X104182429Y-121053131D01*
X104170638Y-121286173D01*
X104152997Y-121482960D01*
X104129510Y-121629060D01*
X104078699Y-121813956D01*
X103955151Y-122103728D01*
X103789628Y-122344879D01*
X103583402Y-122536071D01*
X103337739Y-122675967D01*
X103053908Y-122763228D01*
X103024596Y-122768209D01*
X102975451Y-122762281D01*
X102962709Y-122720083D01*
X102960521Y-122686824D01*
X102951787Y-122594424D01*
X102937570Y-122458261D01*
X102919146Y-122290439D01*
X102897787Y-122103063D01*
X102872856Y-121885516D01*
X102852451Y-121695495D01*
X102840101Y-121555173D01*
X102835827Y-121456514D01*
X102839651Y-121391484D01*
X102851596Y-121352049D01*
X102871683Y-121330174D01*
X102899935Y-121317825D01*
X102990993Y-121275258D01*
X103113856Y-121163772D01*
X103208203Y-121006196D01*
X103268712Y-120812423D01*
X103290065Y-120592347D01*
X103288632Y-120534671D01*
X103256961Y-120346331D01*
X103183956Y-120208220D01*
X103069877Y-120120688D01*
X102914981Y-120084086D01*
X102791100Y-120076293D01*
X102711290Y-120305122D01*
X102696847Y-120349820D01*
X102660577Y-120476712D01*
X102615278Y-120648445D01*
X102564115Y-120852556D01*
X102510248Y-121076579D01*
X102456841Y-121308048D01*
X102400885Y-121550454D01*
X102334141Y-121818673D01*
X102272420Y-122036192D01*
X102212610Y-122210872D01*
X102151599Y-122350574D01*
X102086276Y-122463159D01*
X102013528Y-122556489D01*
X101930245Y-122638425D01*
X101849653Y-122702883D01*
X101659812Y-122808172D01*
X101441259Y-122867757D01*
X101293497Y-122877991D01*
X101181570Y-122885743D01*
X101014588Y-122876793D01*
X100815362Y-122833112D01*
X100638349Y-122745697D01*
X100462514Y-122606376D01*
X100322129Y-122457328D01*
X100190905Y-122248870D01*
X100104246Y-122003364D01*
X100090748Y-121941216D01*
X100072049Y-121794144D01*
X100063944Y-121607038D01*
X100065684Y-121367542D01*
X100066899Y-121323423D01*
X100085074Y-121045587D01*
X100116061Y-120858448D01*
X100914983Y-120858448D01*
X100915882Y-121025903D01*
X100949351Y-121160763D01*
X100953589Y-121169795D01*
X101042080Y-121288547D01*
X101160096Y-121359398D01*
X101293497Y-121382305D01*
X101428145Y-121357224D01*
X101549902Y-121284111D01*
X101644629Y-121162922D01*
X101658269Y-121133085D01*
X101695139Y-121037162D01*
X101743299Y-120899589D01*
X101798050Y-120733996D01*
X101854688Y-120554010D01*
X102008952Y-120051031D01*
X101758132Y-120068223D01*
X101590938Y-120086101D01*
X101392782Y-120134568D01*
X101237456Y-120215494D01*
X101113766Y-120335355D01*
X101010516Y-120500624D01*
X101002435Y-120517049D01*
X100944539Y-120681222D01*
X100914983Y-120858448D01*
X100116061Y-120858448D01*
X100123626Y-120812760D01*
X100187476Y-120608585D01*
X100281546Y-120416705D01*
X100410758Y-120220763D01*
X100441795Y-120177948D01*
X100510856Y-120080387D01*
X100558834Y-120009226D01*
X100576808Y-119977529D01*
X100563655Y-119968274D01*
X100509316Y-119961879D01*
X100474855Y-119957347D01*
X100385175Y-119932236D01*
X100280488Y-119892473D01*
X100119151Y-119823068D01*
X100119151Y-119124262D01*
X100119250Y-119045491D01*
X100120438Y-118847520D01*
X100122800Y-118677066D01*
X100126124Y-118543593D01*
X100130197Y-118456568D01*
X100134807Y-118425457D01*
X100138371Y-118426031D01*
G37*
G36*
X100223663Y-115123886D02*
G01*
X100284360Y-115128327D01*
X100389538Y-115138244D01*
X100525505Y-115152128D01*
X100678571Y-115168470D01*
X100835046Y-115185762D01*
X100981237Y-115202494D01*
X101103455Y-115217158D01*
X101188008Y-115228245D01*
X101221206Y-115234247D01*
X101219708Y-115253889D01*
X101205395Y-115321551D01*
X101180754Y-115419512D01*
X101147115Y-115567405D01*
X101134815Y-115707120D01*
X101155385Y-115810826D01*
X101209543Y-115890249D01*
X101217588Y-115897830D01*
X101273184Y-115933577D01*
X101354326Y-115961241D01*
X101467629Y-115981446D01*
X101619708Y-115994816D01*
X101817177Y-116001974D01*
X102066653Y-116003546D01*
X102374749Y-116000153D01*
X102979511Y-115990064D01*
X102988690Y-115589614D01*
X102997868Y-115189163D01*
X103552589Y-115189163D01*
X104107310Y-115189163D01*
X104107310Y-115597184D01*
X104107310Y-116005204D01*
X104857404Y-116013979D01*
X105607497Y-116022754D01*
X105225164Y-116758275D01*
X104842832Y-117493796D01*
X104475071Y-117503039D01*
X104107310Y-117512283D01*
X104107310Y-117772731D01*
X104107310Y-118033179D01*
X103551583Y-118033179D01*
X102995856Y-118033179D01*
X102995856Y-117776354D01*
X102995856Y-117519530D01*
X102023334Y-117499485D01*
X101966826Y-117498270D01*
X101714522Y-117491614D01*
X101478087Y-117483477D01*
X101267420Y-117474329D01*
X101092424Y-117464642D01*
X100962999Y-117454886D01*
X100889046Y-117445531D01*
X100708999Y-117394687D01*
X100481341Y-117280891D01*
X100300020Y-117122638D01*
X100167377Y-116922152D01*
X100085751Y-116681658D01*
X100082819Y-116665834D01*
X100072426Y-116556580D01*
X100067223Y-116400536D01*
X100066802Y-116212817D01*
X100070756Y-116008537D01*
X100078680Y-115802810D01*
X100090165Y-115610752D01*
X100104805Y-115447475D01*
X100122192Y-115328095D01*
X100124885Y-115314911D01*
X100153443Y-115201473D01*
X100183026Y-115141392D01*
X100218779Y-115123783D01*
X100223663Y-115123886D01*
G37*
G36*
X102088713Y-107813028D02*
G01*
X102240275Y-107823644D01*
X102517649Y-107855263D01*
X102754953Y-107902728D01*
X102968761Y-107969809D01*
X103175650Y-108060276D01*
X103186709Y-108065792D01*
X103472844Y-108243290D01*
X103711295Y-108464380D01*
X103902235Y-108729432D01*
X104045836Y-109038815D01*
X104142272Y-109392900D01*
X104191716Y-109792056D01*
X104194341Y-110236653D01*
X104191410Y-110294478D01*
X104152402Y-110659028D01*
X104077704Y-110976829D01*
X103963717Y-111257045D01*
X103806842Y-111508840D01*
X103603481Y-111741379D01*
X103418185Y-111906122D01*
X103141488Y-112087849D01*
X102839212Y-112214410D01*
X102547023Y-112278984D01*
X102505006Y-112288270D01*
X102132519Y-112311890D01*
X101897985Y-112303136D01*
X101536867Y-112250030D01*
X101213410Y-112147241D01*
X100922626Y-111992987D01*
X100659530Y-111785486D01*
X100552967Y-111680766D01*
X100386132Y-111483173D01*
X100261721Y-111275893D01*
X100169848Y-111040780D01*
X100100627Y-110759691D01*
X100081116Y-110624576D01*
X100069154Y-110447879D01*
X100064865Y-110223367D01*
X100067906Y-109942445D01*
X100076673Y-109695165D01*
X100101631Y-109393346D01*
X100144274Y-109137709D01*
X100207886Y-108917671D01*
X100295751Y-108722650D01*
X100411155Y-108542062D01*
X100557382Y-108365325D01*
X100607892Y-108312341D01*
X100719866Y-108206873D01*
X100838391Y-108107554D01*
X100952692Y-108022178D01*
X101051996Y-107958537D01*
X101125528Y-107924423D01*
X101162513Y-107927631D01*
X101165403Y-107935744D01*
X101176728Y-107998993D01*
X101191728Y-108113741D01*
X101209243Y-108269873D01*
X101228113Y-108457271D01*
X101247178Y-108665820D01*
X101308070Y-109365542D01*
X101203260Y-109463450D01*
X101083189Y-109612140D01*
X101001370Y-109798652D01*
X100967193Y-110000581D01*
X100981271Y-110203567D01*
X101044215Y-110393254D01*
X101156640Y-110555285D01*
X101191560Y-110585817D01*
X101297273Y-110652108D01*
X101427099Y-110713432D01*
X101555465Y-110758504D01*
X101656799Y-110776036D01*
X101663993Y-110775800D01*
X101677878Y-110771656D01*
X101689302Y-110757960D01*
X101698505Y-110729127D01*
X101705726Y-110679577D01*
X101711206Y-110603725D01*
X101715184Y-110495990D01*
X101717901Y-110350788D01*
X101718468Y-110287836D01*
X102472445Y-110287836D01*
X102473146Y-110474750D01*
X102477937Y-110609915D01*
X102489835Y-110700322D01*
X102511857Y-110752959D01*
X102547023Y-110774815D01*
X102598349Y-110772881D01*
X102668854Y-110754145D01*
X102761555Y-110725598D01*
X102850491Y-110693390D01*
X103030518Y-110584601D01*
X103168656Y-110435624D01*
X103257425Y-110255958D01*
X103289347Y-110055105D01*
X103267105Y-109897910D01*
X103205459Y-109737175D01*
X103115684Y-109596808D01*
X103009069Y-109499197D01*
X102968328Y-109477002D01*
X102856305Y-109429237D01*
X102726028Y-109384579D01*
X102603239Y-109351399D01*
X102513681Y-109338071D01*
X102500024Y-109352032D01*
X102489278Y-109399946D01*
X102481542Y-109488107D01*
X102476458Y-109622795D01*
X102473669Y-109810286D01*
X102472819Y-110056859D01*
X102472445Y-110287836D01*
X101718468Y-110287836D01*
X101719596Y-110162538D01*
X101720510Y-109925656D01*
X101720882Y-109634560D01*
X101720953Y-109283666D01*
X101720953Y-107791297D01*
X102088713Y-107813028D01*
G37*
G36*
X100297057Y-104544621D02*
G01*
X100369719Y-104553498D01*
X100497168Y-104567703D01*
X100654215Y-104584325D01*
X100821982Y-104601327D01*
X100826208Y-104601746D01*
X100977620Y-104617067D01*
X101102491Y-104630308D01*
X101187976Y-104640068D01*
X101221229Y-104644942D01*
X101219701Y-104663772D01*
X101205373Y-104730510D01*
X101180754Y-104828006D01*
X101146950Y-104977141D01*
X101135595Y-105114141D01*
X101156772Y-105219349D01*
X101211380Y-105306838D01*
X101290225Y-105398558D01*
X102143040Y-105408740D01*
X102995856Y-105418921D01*
X102995856Y-105008289D01*
X102995856Y-104597657D01*
X103551583Y-104597657D01*
X104107310Y-104597657D01*
X104107310Y-105006280D01*
X104107310Y-105414903D01*
X104859177Y-105414903D01*
X104984286Y-105415245D01*
X105185385Y-105417350D01*
X105357446Y-105421117D01*
X105491385Y-105426250D01*
X105578116Y-105432450D01*
X105608555Y-105439421D01*
X105598955Y-105461804D01*
X105562415Y-105535683D01*
X105502518Y-105652839D01*
X105423441Y-105805188D01*
X105329359Y-105984641D01*
X105224449Y-106183114D01*
X104842832Y-106902291D01*
X104475071Y-106911534D01*
X104107310Y-106920777D01*
X104107310Y-107197570D01*
X104107310Y-107474363D01*
X103551583Y-107474363D01*
X102995856Y-107474363D01*
X102995856Y-107200235D01*
X102995856Y-106926108D01*
X101990644Y-106908897D01*
X101977009Y-106908661D01*
X101698195Y-106902619D01*
X101443752Y-106894849D01*
X101221882Y-106885738D01*
X101040786Y-106875675D01*
X100908667Y-106865047D01*
X100833725Y-106854240D01*
X100695493Y-106807200D01*
X100518867Y-106715104D01*
X100361492Y-106600248D01*
X100246265Y-106477323D01*
X100213562Y-106425262D01*
X100150653Y-106297105D01*
X100103753Y-106166769D01*
X100086675Y-106073593D01*
X100073076Y-105917409D01*
X100066052Y-105724304D01*
X100065403Y-105509387D01*
X100070930Y-105287770D01*
X100082436Y-105074563D01*
X100099721Y-104884876D01*
X100122587Y-104733820D01*
X100164411Y-104526739D01*
X100297057Y-104544621D01*
G37*
G36*
X102565270Y-99720693D02*
G01*
X102912772Y-99809175D01*
X102935182Y-99816892D01*
X103047441Y-99853469D01*
X103135095Y-99873770D01*
X103220486Y-99879640D01*
X103325960Y-99872920D01*
X103473860Y-99855455D01*
X103539249Y-99848154D01*
X103768337Y-99834956D01*
X104003507Y-99837818D01*
X104230588Y-99855312D01*
X104435410Y-99886009D01*
X104603804Y-99928479D01*
X104721599Y-99981294D01*
X104805217Y-100057962D01*
X104871290Y-100186736D01*
X104885661Y-100332264D01*
X104843912Y-100476649D01*
X104820604Y-100512203D01*
X104743670Y-100599663D01*
X104634014Y-100705616D01*
X104505218Y-100817908D01*
X104370866Y-100924388D01*
X104244543Y-101012900D01*
X104195927Y-101046117D01*
X104131346Y-101107677D01*
X104120717Y-101158641D01*
X104133591Y-101207665D01*
X104161114Y-101357496D01*
X104183660Y-101540597D01*
X104198772Y-101734589D01*
X104203992Y-101917091D01*
X104203905Y-101934065D01*
X104200594Y-102060105D01*
X104191262Y-102185805D01*
X104173990Y-102327232D01*
X104146860Y-102500453D01*
X104107954Y-102721536D01*
X104128604Y-102737145D01*
X104190354Y-102779650D01*
X104278932Y-102839044D01*
X104295576Y-102850217D01*
X104442964Y-102958606D01*
X104585416Y-103078243D01*
X104710489Y-103197368D01*
X104805738Y-103304218D01*
X104858721Y-103387034D01*
X104880833Y-103479902D01*
X104878855Y-103594347D01*
X104876634Y-103605285D01*
X104820057Y-103731849D01*
X104710731Y-103830925D01*
X104547132Y-103902993D01*
X104327731Y-103948537D01*
X104051004Y-103968039D01*
X103715424Y-103961981D01*
X103546504Y-103953387D01*
X103373121Y-103945474D01*
X103243714Y-103942214D01*
X103146172Y-103944499D01*
X103068382Y-103953217D01*
X102998232Y-103969260D01*
X102923611Y-103993518D01*
X102832407Y-104026880D01*
X102713591Y-104064382D01*
X102450511Y-104115955D01*
X102163417Y-104138768D01*
X102113231Y-104137509D01*
X101875787Y-104131551D01*
X101611098Y-104093031D01*
X101432525Y-104044652D01*
X101111244Y-103908685D01*
X100824563Y-103720144D01*
X100576402Y-103483110D01*
X100370678Y-103201663D01*
X100211311Y-102879884D01*
X100102220Y-102521853D01*
X100080000Y-102383051D01*
X100063482Y-102176247D01*
X100057636Y-101943755D01*
X100058550Y-101898591D01*
X101102867Y-101898591D01*
X101126057Y-102085119D01*
X101193062Y-102258215D01*
X101300252Y-102397669D01*
X101336230Y-102426332D01*
X101432313Y-102487601D01*
X101541566Y-102544510D01*
X101549781Y-102548255D01*
X101627412Y-102579439D01*
X101706634Y-102600076D01*
X101803386Y-102612262D01*
X101933605Y-102618091D01*
X102113231Y-102619659D01*
X102139165Y-102619657D01*
X102311287Y-102617926D01*
X102435999Y-102611658D01*
X102529224Y-102598766D01*
X102606882Y-102577167D01*
X102684895Y-102544774D01*
X102695522Y-102539820D01*
X102888480Y-102423015D01*
X103022713Y-102280337D01*
X103101124Y-102107552D01*
X103126615Y-101900425D01*
X103122821Y-101807133D01*
X103092036Y-101665464D01*
X103021631Y-101542955D01*
X102901254Y-101417421D01*
X102817874Y-101350968D01*
X102674377Y-101273778D01*
X102503670Y-101225789D01*
X102294153Y-101204174D01*
X102034226Y-101206106D01*
X101964630Y-101209829D01*
X101720568Y-101237444D01*
X101527673Y-101288688D01*
X101376569Y-101368118D01*
X101257880Y-101480288D01*
X101162232Y-101629753D01*
X101127126Y-101718839D01*
X101102867Y-101898591D01*
X100058550Y-101898591D01*
X100062436Y-101706638D01*
X100077851Y-101485959D01*
X100103855Y-101302779D01*
X100134803Y-101170662D01*
X100256433Y-100837556D01*
X100432043Y-100531830D01*
X100655552Y-100264921D01*
X100760743Y-100167647D01*
X100996024Y-99990464D01*
X101243661Y-99851160D01*
X101485056Y-99761032D01*
X101823482Y-99698308D01*
X102195740Y-99683520D01*
X102565270Y-99720693D01*
G37*
G36*
X101394054Y-144086269D02*
G01*
X101394054Y-145525328D01*
X101917092Y-145525328D01*
X102440129Y-145525328D01*
X102440129Y-144234079D01*
X102440129Y-142942831D01*
X103012201Y-142942831D01*
X103584273Y-142942831D01*
X103584273Y-144234079D01*
X103584273Y-145525328D01*
X104009241Y-145525328D01*
X104434209Y-145525328D01*
X104434209Y-144136010D01*
X104434209Y-142746692D01*
X105022626Y-142746692D01*
X105611043Y-142746692D01*
X105611043Y-144969601D01*
X105611043Y-147192509D01*
X102864873Y-147192509D01*
X100118703Y-147192509D01*
X100127100Y-144928738D01*
X100135496Y-142664968D01*
X100764775Y-142656089D01*
X101394054Y-142647211D01*
X101394054Y-144086269D01*
G37*
G36*
X100137465Y-137451446D02*
G01*
X100175885Y-137475070D01*
X100261198Y-137531076D01*
X100387433Y-137615440D01*
X100548619Y-137724137D01*
X100738785Y-137853143D01*
X100951963Y-137998436D01*
X101182180Y-138155991D01*
X101311745Y-138244569D01*
X101578797Y-138425112D01*
X101804887Y-138574926D01*
X101987619Y-138692486D01*
X102124595Y-138776268D01*
X102213418Y-138824745D01*
X102251691Y-138836393D01*
X102259618Y-138831268D01*
X102314565Y-138793903D01*
X102413491Y-138725702D01*
X102549461Y-138631478D01*
X102715538Y-138516041D01*
X102904787Y-138384204D01*
X103110271Y-138240778D01*
X103181707Y-138190869D01*
X103386376Y-138047888D01*
X103574869Y-137916217D01*
X103739703Y-137801085D01*
X103873394Y-137707717D01*
X103968459Y-137641341D01*
X104017413Y-137607185D01*
X104107310Y-137544557D01*
X104107310Y-138376295D01*
X104107310Y-139208033D01*
X103608790Y-139528001D01*
X103462472Y-139622359D01*
X103315549Y-139718096D01*
X103194919Y-139797768D01*
X103110197Y-139855020D01*
X103070999Y-139883495D01*
X103068055Y-139887287D01*
X103077174Y-139912494D01*
X103125724Y-139954054D01*
X103218476Y-140015170D01*
X103360200Y-140099044D01*
X103555667Y-140208880D01*
X103714442Y-140298104D01*
X103862869Y-140384379D01*
X103981843Y-140456628D01*
X104062010Y-140509161D01*
X104094016Y-140536290D01*
X104097342Y-140573099D01*
X104099980Y-140667442D01*
X104101592Y-140809714D01*
X104102119Y-140990881D01*
X104101507Y-141201906D01*
X104099696Y-141433753D01*
X104090965Y-142293665D01*
X103162656Y-141635906D01*
X102978622Y-141506293D01*
X102773767Y-141363981D01*
X102590358Y-141238687D01*
X102434728Y-141134633D01*
X102313208Y-141056045D01*
X102232128Y-141007147D01*
X102197820Y-140992163D01*
X102197744Y-140992193D01*
X102162758Y-141013535D01*
X102080106Y-141067525D01*
X101956052Y-141149967D01*
X101796857Y-141256663D01*
X101608786Y-141383415D01*
X101398101Y-141526025D01*
X101171065Y-141680297D01*
X101167136Y-141682972D01*
X100940738Y-141836524D01*
X100731026Y-141977695D01*
X100544207Y-142102387D01*
X100386488Y-142206503D01*
X100264075Y-142285944D01*
X100183175Y-142336614D01*
X100149994Y-142354414D01*
X100145901Y-142348995D01*
X100136900Y-142292297D01*
X100129489Y-142178816D01*
X100123903Y-142014641D01*
X100120378Y-141805859D01*
X100119151Y-141558561D01*
X100119151Y-140762708D01*
X100758360Y-140337200D01*
X101397568Y-139911692D01*
X100766532Y-139553745D01*
X100135496Y-139195798D01*
X100126789Y-138323369D01*
X100126783Y-138322714D01*
X100125124Y-138091632D01*
X100124866Y-137883570D01*
X100125919Y-137707000D01*
X100128192Y-137570391D01*
X100131597Y-137482214D01*
X100136043Y-137450939D01*
X100137465Y-137451446D01*
G37*
G36*
X105611043Y-113750810D02*
G01*
X105611043Y-114502677D01*
X102865097Y-114502677D01*
X100119151Y-114502677D01*
X100119151Y-113750810D01*
X100119151Y-112998944D01*
X102865097Y-112998944D01*
X105611043Y-112998944D01*
X105611043Y-113750810D01*
G37*
G36*
X101750545Y-94937885D02*
G01*
X102097557Y-94938731D01*
X102387000Y-94940645D01*
X102624410Y-94943782D01*
X102815323Y-94948295D01*
X102965271Y-94954337D01*
X103079791Y-94962062D01*
X103164418Y-94971625D01*
X103224685Y-94983177D01*
X103468532Y-95063245D01*
X103714919Y-95196931D01*
X103910573Y-95371829D01*
X104055788Y-95588293D01*
X104150861Y-95846677D01*
X104196086Y-96147336D01*
X104200563Y-96291829D01*
X104171378Y-96613009D01*
X104084639Y-96905824D01*
X103938574Y-97175154D01*
X103731408Y-97425876D01*
X103526632Y-97634723D01*
X103816971Y-97634723D01*
X104107310Y-97634723D01*
X104107310Y-98337554D01*
X104107310Y-99040386D01*
X102112617Y-99040386D01*
X100117923Y-99040386D01*
X100126710Y-98296692D01*
X100135496Y-97552998D01*
X101328675Y-97535806D01*
X101654084Y-97530925D01*
X101926783Y-97525769D01*
X102147562Y-97519349D01*
X102323206Y-97510592D01*
X102460498Y-97498426D01*
X102566222Y-97481777D01*
X102647162Y-97459572D01*
X102710100Y-97430737D01*
X102761821Y-97394199D01*
X102809108Y-97348884D01*
X102858744Y-97293721D01*
X102900967Y-97238782D01*
X102971683Y-97084017D01*
X102990681Y-96919832D01*
X102959856Y-96760640D01*
X102881104Y-96620855D01*
X102756320Y-96514890D01*
X102750862Y-96512280D01*
X102702426Y-96501065D01*
X102613108Y-96491286D01*
X102478826Y-96482771D01*
X102295497Y-96475347D01*
X102059038Y-96468840D01*
X101765367Y-96463079D01*
X101410399Y-96457889D01*
X100135496Y-96441544D01*
X100135496Y-95689678D01*
X100135496Y-94937812D01*
X101590193Y-94937812D01*
X101750545Y-94937885D01*
G37*
G36*
X112601867Y-149449025D02*
G01*
X112670396Y-149467214D01*
X112742714Y-149516932D01*
X112836048Y-149608930D01*
X113027039Y-149854425D01*
X113173804Y-150144532D01*
X113263047Y-150462710D01*
X113293153Y-150804736D01*
X113293081Y-150821640D01*
X113260662Y-151157144D01*
X113171268Y-151471490D01*
X113027843Y-151756985D01*
X112833333Y-152005936D01*
X112797229Y-152042748D01*
X112714108Y-152116015D01*
X112644891Y-152151869D01*
X112570915Y-152161364D01*
X112467654Y-152145737D01*
X112352432Y-152083977D01*
X112278256Y-151986245D01*
X112259873Y-151881582D01*
X112286616Y-151753621D01*
X112357984Y-151639509D01*
X112449057Y-151530347D01*
X112588348Y-151293140D01*
X112668575Y-151039355D01*
X112689554Y-150777033D01*
X112651101Y-150514212D01*
X112553031Y-150258934D01*
X112395160Y-150019237D01*
X112336691Y-149942456D01*
X112273268Y-149824408D01*
X112260090Y-149720069D01*
X112293792Y-149616047D01*
X112345971Y-149537146D01*
X112443072Y-149468948D01*
X112578335Y-149448108D01*
X112601867Y-149449025D01*
G37*
G36*
X113489410Y-148607577D02*
G01*
X113585508Y-148665654D01*
X113698271Y-148769104D01*
X113820787Y-148909063D01*
X113946142Y-149076665D01*
X114067425Y-149263047D01*
X114177722Y-149459343D01*
X114270120Y-149656691D01*
X114297027Y-149722484D01*
X114373866Y-149932314D01*
X114427181Y-150127150D01*
X114460607Y-150326931D01*
X114477777Y-150551596D01*
X114482325Y-150821081D01*
X114481076Y-150973972D01*
X114475045Y-151154507D01*
X114462460Y-151299870D01*
X114441580Y-151427941D01*
X114410661Y-151556602D01*
X114402202Y-151586911D01*
X114316165Y-151835587D01*
X114201157Y-152093461D01*
X114065635Y-152345892D01*
X113918060Y-152578237D01*
X113766891Y-152775857D01*
X113620585Y-152924110D01*
X113563204Y-152963822D01*
X113436478Y-153005469D01*
X113310908Y-152996144D01*
X113202732Y-152938748D01*
X113128192Y-152836180D01*
X113117982Y-152807316D01*
X113113339Y-152691924D01*
X113164142Y-152562255D01*
X113272505Y-152412096D01*
X113455192Y-152172441D01*
X113656017Y-151822577D01*
X113795036Y-151455312D01*
X113871392Y-151073904D01*
X113884228Y-150681613D01*
X113832688Y-150281699D01*
X113799312Y-150154347D01*
X113711668Y-149919906D01*
X113593645Y-149676657D01*
X113456417Y-149446658D01*
X113311153Y-149251969D01*
X113283592Y-149219259D01*
X113201086Y-149113956D01*
X113139060Y-149023750D01*
X113109245Y-148965298D01*
X113101845Y-148904333D01*
X113130852Y-148790902D01*
X113205984Y-148692947D01*
X113314746Y-148624145D01*
X113444644Y-148598172D01*
X113489410Y-148607577D01*
G37*
G36*
X114379701Y-147785608D02*
G01*
X114486686Y-147865382D01*
X114611831Y-147989530D01*
X114748349Y-148149382D01*
X114889451Y-148336268D01*
X115028350Y-148541515D01*
X115158255Y-148756454D01*
X115272381Y-148972413D01*
X115421088Y-149305565D01*
X115544888Y-149662591D01*
X115627879Y-150021456D01*
X115674360Y-150401254D01*
X115688629Y-150821081D01*
X115684416Y-151032377D01*
X115643994Y-151479297D01*
X115557321Y-151899736D01*
X115420213Y-152311063D01*
X115228483Y-152730645D01*
X115124781Y-152917409D01*
X114943919Y-153197891D01*
X114743456Y-153466523D01*
X114541617Y-153697645D01*
X114475376Y-153763961D01*
X114400659Y-153825277D01*
X114335439Y-153854064D01*
X114260998Y-153861235D01*
X114240866Y-153860824D01*
X114136413Y-153836852D01*
X114042505Y-153765680D01*
X113970520Y-153672731D01*
X113944684Y-153575807D01*
X113968729Y-153468646D01*
X114044513Y-153343118D01*
X114173896Y-153191094D01*
X114313928Y-153027558D01*
X114523041Y-152731049D01*
X114710596Y-152399437D01*
X114765194Y-152285875D01*
X114931718Y-151847458D01*
X115037611Y-151395867D01*
X115083753Y-150937428D01*
X115071021Y-150478465D01*
X115000293Y-150025305D01*
X114872448Y-149584272D01*
X114688363Y-149161693D01*
X114448918Y-148763894D01*
X114154990Y-148397199D01*
X114140153Y-148380944D01*
X114032827Y-148251001D01*
X113972370Y-148145161D01*
X113953386Y-148050464D01*
X113970482Y-147953951D01*
X114006277Y-147888910D01*
X114097214Y-147809880D01*
X114211589Y-147763171D01*
X114324844Y-147762080D01*
X114379701Y-147785608D01*
G37*
G36*
X103321770Y-153735691D02*
G01*
X103374966Y-153768305D01*
X103380304Y-153781135D01*
X103391221Y-153851177D01*
X103393010Y-153947195D01*
X103396029Y-154016785D01*
X103433665Y-154110539D01*
X103519151Y-154172387D01*
X103660150Y-154209862D01*
X103706060Y-154215491D01*
X103766459Y-154208225D01*
X103825122Y-154171150D01*
X103903719Y-154093953D01*
X103978991Y-154023219D01*
X104076640Y-153965921D01*
X104152881Y-153970360D01*
X104207658Y-154036495D01*
X104240911Y-154164281D01*
X104252584Y-154353677D01*
X104247881Y-154504693D01*
X104229896Y-154612868D01*
X104195804Y-154689084D01*
X104152350Y-154746785D01*
X104111375Y-154757865D01*
X104043843Y-154728505D01*
X103963911Y-154674497D01*
X103884836Y-154597410D01*
X103820950Y-154544658D01*
X103710824Y-154513231D01*
X103592962Y-154525603D01*
X103491310Y-154582670D01*
X103466406Y-154608151D01*
X103434180Y-154672718D01*
X103439817Y-154762823D01*
X103440399Y-154875538D01*
X103394816Y-154947497D01*
X103306410Y-154972690D01*
X103305328Y-154972687D01*
X103220972Y-154947495D01*
X103165864Y-154869978D01*
X103136810Y-154735670D01*
X103137077Y-154626003D01*
X103185952Y-154474927D01*
X103190044Y-154467058D01*
X103225216Y-154390142D01*
X103228141Y-154345798D01*
X103200773Y-154312613D01*
X103169409Y-154279601D01*
X103123254Y-154205613D01*
X103113783Y-154175232D01*
X103103731Y-154075160D01*
X103109326Y-153957791D01*
X103128305Y-153850484D01*
X103158405Y-153780595D01*
X103173299Y-153766133D01*
X103244132Y-153735558D01*
X103321770Y-153735691D01*
G37*
G36*
X104734932Y-154980962D02*
G01*
X104910094Y-155018666D01*
X105044691Y-155084289D01*
X105131065Y-155173661D01*
X105161558Y-155282610D01*
X105151851Y-155348911D01*
X105089260Y-155450404D01*
X104974296Y-155527558D01*
X104813585Y-155576609D01*
X104613750Y-155593796D01*
X104483837Y-155585321D01*
X104320417Y-155548131D01*
X104190781Y-155486498D01*
X104110058Y-155406060D01*
X104078131Y-155317510D01*
X104091018Y-155211536D01*
X104156279Y-155117660D01*
X104266671Y-155042361D01*
X104414948Y-154992117D01*
X104593865Y-154973407D01*
X104734932Y-154980962D01*
G37*
G36*
X104779643Y-152878173D02*
G01*
X104889670Y-152909526D01*
X105032115Y-152979911D01*
X105122821Y-153069189D01*
X105157268Y-153172144D01*
X105130937Y-153283560D01*
X105060230Y-153369569D01*
X104936860Y-153441700D01*
X104782411Y-153485583D01*
X104612230Y-153500077D01*
X104441666Y-153484039D01*
X104286068Y-153436325D01*
X104160783Y-153355792D01*
X104157581Y-153352791D01*
X104089429Y-153256108D01*
X104078324Y-153158245D01*
X104116587Y-153065129D01*
X104196538Y-152982685D01*
X104310498Y-152916841D01*
X104450789Y-152873524D01*
X104609730Y-152858659D01*
X104779643Y-152878173D01*
G37*
%TD*%
M02*
