%TF.GenerationSoftware,KiCad,Pcbnew,8.0.4*%
%TF.CreationDate,2024-11-18T10:24:52-08:00*%
%TF.ProjectId,Mother,4d6f7468-6572-42e6-9b69-6361645f7063,rev?*%
%TF.SameCoordinates,Original*%
%TF.FileFunction,Legend,Top*%
%TF.FilePolarity,Positive*%
%FSLAX46Y46*%
G04 Gerber Fmt 4.6, Leading zero omitted, Abs format (unit mm)*
G04 Created by KiCad (PCBNEW 8.0.4) date 2024-11-18 10:24:52*
%MOMM*%
%LPD*%
G01*
G04 APERTURE LIST*
%ADD10C,0.150000*%
%ADD11C,0.120000*%
%ADD12C,0.100000*%
G04 APERTURE END LIST*
D10*
X97028332Y-75289580D02*
X96980713Y-75337200D01*
X96980713Y-75337200D02*
X96837856Y-75384819D01*
X96837856Y-75384819D02*
X96742618Y-75384819D01*
X96742618Y-75384819D02*
X96599761Y-75337200D01*
X96599761Y-75337200D02*
X96504523Y-75241961D01*
X96504523Y-75241961D02*
X96456904Y-75146723D01*
X96456904Y-75146723D02*
X96409285Y-74956247D01*
X96409285Y-74956247D02*
X96409285Y-74813390D01*
X96409285Y-74813390D02*
X96456904Y-74622914D01*
X96456904Y-74622914D02*
X96504523Y-74527676D01*
X96504523Y-74527676D02*
X96599761Y-74432438D01*
X96599761Y-74432438D02*
X96742618Y-74384819D01*
X96742618Y-74384819D02*
X96837856Y-74384819D01*
X96837856Y-74384819D02*
X96980713Y-74432438D01*
X96980713Y-74432438D02*
X97028332Y-74480057D01*
X97456904Y-75384819D02*
X97456904Y-74384819D01*
X97885475Y-75384819D02*
X97885475Y-74861009D01*
X97885475Y-74861009D02*
X97837856Y-74765771D01*
X97837856Y-74765771D02*
X97742618Y-74718152D01*
X97742618Y-74718152D02*
X97599761Y-74718152D01*
X97599761Y-74718152D02*
X97504523Y-74765771D01*
X97504523Y-74765771D02*
X97456904Y-74813390D01*
X98790237Y-75384819D02*
X98790237Y-74861009D01*
X98790237Y-74861009D02*
X98742618Y-74765771D01*
X98742618Y-74765771D02*
X98647380Y-74718152D01*
X98647380Y-74718152D02*
X98456904Y-74718152D01*
X98456904Y-74718152D02*
X98361666Y-74765771D01*
X98790237Y-75337200D02*
X98694999Y-75384819D01*
X98694999Y-75384819D02*
X98456904Y-75384819D01*
X98456904Y-75384819D02*
X98361666Y-75337200D01*
X98361666Y-75337200D02*
X98314047Y-75241961D01*
X98314047Y-75241961D02*
X98314047Y-75146723D01*
X98314047Y-75146723D02*
X98361666Y-75051485D01*
X98361666Y-75051485D02*
X98456904Y-75003866D01*
X98456904Y-75003866D02*
X98694999Y-75003866D01*
X98694999Y-75003866D02*
X98790237Y-74956247D01*
X99266428Y-74718152D02*
X99266428Y-75384819D01*
X99266428Y-74813390D02*
X99314047Y-74765771D01*
X99314047Y-74765771D02*
X99409285Y-74718152D01*
X99409285Y-74718152D02*
X99552142Y-74718152D01*
X99552142Y-74718152D02*
X99647380Y-74765771D01*
X99647380Y-74765771D02*
X99694999Y-74861009D01*
X99694999Y-74861009D02*
X99694999Y-75384819D01*
X100171190Y-74718152D02*
X100171190Y-75384819D01*
X100171190Y-74813390D02*
X100218809Y-74765771D01*
X100218809Y-74765771D02*
X100314047Y-74718152D01*
X100314047Y-74718152D02*
X100456904Y-74718152D01*
X100456904Y-74718152D02*
X100552142Y-74765771D01*
X100552142Y-74765771D02*
X100599761Y-74861009D01*
X100599761Y-74861009D02*
X100599761Y-75384819D01*
X101456904Y-75337200D02*
X101361666Y-75384819D01*
X101361666Y-75384819D02*
X101171190Y-75384819D01*
X101171190Y-75384819D02*
X101075952Y-75337200D01*
X101075952Y-75337200D02*
X101028333Y-75241961D01*
X101028333Y-75241961D02*
X101028333Y-74861009D01*
X101028333Y-74861009D02*
X101075952Y-74765771D01*
X101075952Y-74765771D02*
X101171190Y-74718152D01*
X101171190Y-74718152D02*
X101361666Y-74718152D01*
X101361666Y-74718152D02*
X101456904Y-74765771D01*
X101456904Y-74765771D02*
X101504523Y-74861009D01*
X101504523Y-74861009D02*
X101504523Y-74956247D01*
X101504523Y-74956247D02*
X101028333Y-75051485D01*
X102075952Y-75384819D02*
X101980714Y-75337200D01*
X101980714Y-75337200D02*
X101933095Y-75241961D01*
X101933095Y-75241961D02*
X101933095Y-74384819D01*
X102361667Y-74384819D02*
X103028333Y-74384819D01*
X103028333Y-74384819D02*
X102599762Y-75384819D01*
X136191666Y-157779819D02*
X136191666Y-158494104D01*
X136191666Y-158494104D02*
X136144047Y-158636961D01*
X136144047Y-158636961D02*
X136048809Y-158732200D01*
X136048809Y-158732200D02*
X135905952Y-158779819D01*
X135905952Y-158779819D02*
X135810714Y-158779819D01*
X137191666Y-158779819D02*
X136620238Y-158779819D01*
X136905952Y-158779819D02*
X136905952Y-157779819D01*
X136905952Y-157779819D02*
X136810714Y-157922676D01*
X136810714Y-157922676D02*
X136715476Y-158017914D01*
X136715476Y-158017914D02*
X136620238Y-158065533D01*
X97028332Y-123549580D02*
X96980713Y-123597200D01*
X96980713Y-123597200D02*
X96837856Y-123644819D01*
X96837856Y-123644819D02*
X96742618Y-123644819D01*
X96742618Y-123644819D02*
X96599761Y-123597200D01*
X96599761Y-123597200D02*
X96504523Y-123501961D01*
X96504523Y-123501961D02*
X96456904Y-123406723D01*
X96456904Y-123406723D02*
X96409285Y-123216247D01*
X96409285Y-123216247D02*
X96409285Y-123073390D01*
X96409285Y-123073390D02*
X96456904Y-122882914D01*
X96456904Y-122882914D02*
X96504523Y-122787676D01*
X96504523Y-122787676D02*
X96599761Y-122692438D01*
X96599761Y-122692438D02*
X96742618Y-122644819D01*
X96742618Y-122644819D02*
X96837856Y-122644819D01*
X96837856Y-122644819D02*
X96980713Y-122692438D01*
X96980713Y-122692438D02*
X97028332Y-122740057D01*
X97456904Y-123644819D02*
X97456904Y-122644819D01*
X97885475Y-123644819D02*
X97885475Y-123121009D01*
X97885475Y-123121009D02*
X97837856Y-123025771D01*
X97837856Y-123025771D02*
X97742618Y-122978152D01*
X97742618Y-122978152D02*
X97599761Y-122978152D01*
X97599761Y-122978152D02*
X97504523Y-123025771D01*
X97504523Y-123025771D02*
X97456904Y-123073390D01*
X98790237Y-123644819D02*
X98790237Y-123121009D01*
X98790237Y-123121009D02*
X98742618Y-123025771D01*
X98742618Y-123025771D02*
X98647380Y-122978152D01*
X98647380Y-122978152D02*
X98456904Y-122978152D01*
X98456904Y-122978152D02*
X98361666Y-123025771D01*
X98790237Y-123597200D02*
X98694999Y-123644819D01*
X98694999Y-123644819D02*
X98456904Y-123644819D01*
X98456904Y-123644819D02*
X98361666Y-123597200D01*
X98361666Y-123597200D02*
X98314047Y-123501961D01*
X98314047Y-123501961D02*
X98314047Y-123406723D01*
X98314047Y-123406723D02*
X98361666Y-123311485D01*
X98361666Y-123311485D02*
X98456904Y-123263866D01*
X98456904Y-123263866D02*
X98694999Y-123263866D01*
X98694999Y-123263866D02*
X98790237Y-123216247D01*
X99266428Y-122978152D02*
X99266428Y-123644819D01*
X99266428Y-123073390D02*
X99314047Y-123025771D01*
X99314047Y-123025771D02*
X99409285Y-122978152D01*
X99409285Y-122978152D02*
X99552142Y-122978152D01*
X99552142Y-122978152D02*
X99647380Y-123025771D01*
X99647380Y-123025771D02*
X99694999Y-123121009D01*
X99694999Y-123121009D02*
X99694999Y-123644819D01*
X100171190Y-122978152D02*
X100171190Y-123644819D01*
X100171190Y-123073390D02*
X100218809Y-123025771D01*
X100218809Y-123025771D02*
X100314047Y-122978152D01*
X100314047Y-122978152D02*
X100456904Y-122978152D01*
X100456904Y-122978152D02*
X100552142Y-123025771D01*
X100552142Y-123025771D02*
X100599761Y-123121009D01*
X100599761Y-123121009D02*
X100599761Y-123644819D01*
X101456904Y-123597200D02*
X101361666Y-123644819D01*
X101361666Y-123644819D02*
X101171190Y-123644819D01*
X101171190Y-123644819D02*
X101075952Y-123597200D01*
X101075952Y-123597200D02*
X101028333Y-123501961D01*
X101028333Y-123501961D02*
X101028333Y-123121009D01*
X101028333Y-123121009D02*
X101075952Y-123025771D01*
X101075952Y-123025771D02*
X101171190Y-122978152D01*
X101171190Y-122978152D02*
X101361666Y-122978152D01*
X101361666Y-122978152D02*
X101456904Y-123025771D01*
X101456904Y-123025771D02*
X101504523Y-123121009D01*
X101504523Y-123121009D02*
X101504523Y-123216247D01*
X101504523Y-123216247D02*
X101028333Y-123311485D01*
X102075952Y-123644819D02*
X101980714Y-123597200D01*
X101980714Y-123597200D02*
X101933095Y-123501961D01*
X101933095Y-123501961D02*
X101933095Y-122644819D01*
X102504524Y-123644819D02*
X102695000Y-123644819D01*
X102695000Y-123644819D02*
X102790238Y-123597200D01*
X102790238Y-123597200D02*
X102837857Y-123549580D01*
X102837857Y-123549580D02*
X102933095Y-123406723D01*
X102933095Y-123406723D02*
X102980714Y-123216247D01*
X102980714Y-123216247D02*
X102980714Y-122835295D01*
X102980714Y-122835295D02*
X102933095Y-122740057D01*
X102933095Y-122740057D02*
X102885476Y-122692438D01*
X102885476Y-122692438D02*
X102790238Y-122644819D01*
X102790238Y-122644819D02*
X102599762Y-122644819D01*
X102599762Y-122644819D02*
X102504524Y-122692438D01*
X102504524Y-122692438D02*
X102456905Y-122740057D01*
X102456905Y-122740057D02*
X102409286Y-122835295D01*
X102409286Y-122835295D02*
X102409286Y-123073390D01*
X102409286Y-123073390D02*
X102456905Y-123168628D01*
X102456905Y-123168628D02*
X102504524Y-123216247D01*
X102504524Y-123216247D02*
X102599762Y-123263866D01*
X102599762Y-123263866D02*
X102790238Y-123263866D01*
X102790238Y-123263866D02*
X102885476Y-123216247D01*
X102885476Y-123216247D02*
X102933095Y-123168628D01*
X102933095Y-123168628D02*
X102980714Y-123073390D01*
X147828332Y-52429580D02*
X147780713Y-52477200D01*
X147780713Y-52477200D02*
X147637856Y-52524819D01*
X147637856Y-52524819D02*
X147542618Y-52524819D01*
X147542618Y-52524819D02*
X147399761Y-52477200D01*
X147399761Y-52477200D02*
X147304523Y-52381961D01*
X147304523Y-52381961D02*
X147256904Y-52286723D01*
X147256904Y-52286723D02*
X147209285Y-52096247D01*
X147209285Y-52096247D02*
X147209285Y-51953390D01*
X147209285Y-51953390D02*
X147256904Y-51762914D01*
X147256904Y-51762914D02*
X147304523Y-51667676D01*
X147304523Y-51667676D02*
X147399761Y-51572438D01*
X147399761Y-51572438D02*
X147542618Y-51524819D01*
X147542618Y-51524819D02*
X147637856Y-51524819D01*
X147637856Y-51524819D02*
X147780713Y-51572438D01*
X147780713Y-51572438D02*
X147828332Y-51620057D01*
X148256904Y-52524819D02*
X148256904Y-51524819D01*
X148685475Y-52524819D02*
X148685475Y-52001009D01*
X148685475Y-52001009D02*
X148637856Y-51905771D01*
X148637856Y-51905771D02*
X148542618Y-51858152D01*
X148542618Y-51858152D02*
X148399761Y-51858152D01*
X148399761Y-51858152D02*
X148304523Y-51905771D01*
X148304523Y-51905771D02*
X148256904Y-51953390D01*
X149590237Y-52524819D02*
X149590237Y-52001009D01*
X149590237Y-52001009D02*
X149542618Y-51905771D01*
X149542618Y-51905771D02*
X149447380Y-51858152D01*
X149447380Y-51858152D02*
X149256904Y-51858152D01*
X149256904Y-51858152D02*
X149161666Y-51905771D01*
X149590237Y-52477200D02*
X149494999Y-52524819D01*
X149494999Y-52524819D02*
X149256904Y-52524819D01*
X149256904Y-52524819D02*
X149161666Y-52477200D01*
X149161666Y-52477200D02*
X149114047Y-52381961D01*
X149114047Y-52381961D02*
X149114047Y-52286723D01*
X149114047Y-52286723D02*
X149161666Y-52191485D01*
X149161666Y-52191485D02*
X149256904Y-52143866D01*
X149256904Y-52143866D02*
X149494999Y-52143866D01*
X149494999Y-52143866D02*
X149590237Y-52096247D01*
X150066428Y-51858152D02*
X150066428Y-52524819D01*
X150066428Y-51953390D02*
X150114047Y-51905771D01*
X150114047Y-51905771D02*
X150209285Y-51858152D01*
X150209285Y-51858152D02*
X150352142Y-51858152D01*
X150352142Y-51858152D02*
X150447380Y-51905771D01*
X150447380Y-51905771D02*
X150494999Y-52001009D01*
X150494999Y-52001009D02*
X150494999Y-52524819D01*
X150971190Y-51858152D02*
X150971190Y-52524819D01*
X150971190Y-51953390D02*
X151018809Y-51905771D01*
X151018809Y-51905771D02*
X151114047Y-51858152D01*
X151114047Y-51858152D02*
X151256904Y-51858152D01*
X151256904Y-51858152D02*
X151352142Y-51905771D01*
X151352142Y-51905771D02*
X151399761Y-52001009D01*
X151399761Y-52001009D02*
X151399761Y-52524819D01*
X152256904Y-52477200D02*
X152161666Y-52524819D01*
X152161666Y-52524819D02*
X151971190Y-52524819D01*
X151971190Y-52524819D02*
X151875952Y-52477200D01*
X151875952Y-52477200D02*
X151828333Y-52381961D01*
X151828333Y-52381961D02*
X151828333Y-52001009D01*
X151828333Y-52001009D02*
X151875952Y-51905771D01*
X151875952Y-51905771D02*
X151971190Y-51858152D01*
X151971190Y-51858152D02*
X152161666Y-51858152D01*
X152161666Y-51858152D02*
X152256904Y-51905771D01*
X152256904Y-51905771D02*
X152304523Y-52001009D01*
X152304523Y-52001009D02*
X152304523Y-52096247D01*
X152304523Y-52096247D02*
X151828333Y-52191485D01*
X152875952Y-52524819D02*
X152780714Y-52477200D01*
X152780714Y-52477200D02*
X152733095Y-52381961D01*
X152733095Y-52381961D02*
X152733095Y-51524819D01*
X153780714Y-52524819D02*
X153209286Y-52524819D01*
X153495000Y-52524819D02*
X153495000Y-51524819D01*
X153495000Y-51524819D02*
X153399762Y-51667676D01*
X153399762Y-51667676D02*
X153304524Y-51762914D01*
X153304524Y-51762914D02*
X153209286Y-51810533D01*
X147828332Y-147679580D02*
X147780713Y-147727200D01*
X147780713Y-147727200D02*
X147637856Y-147774819D01*
X147637856Y-147774819D02*
X147542618Y-147774819D01*
X147542618Y-147774819D02*
X147399761Y-147727200D01*
X147399761Y-147727200D02*
X147304523Y-147631961D01*
X147304523Y-147631961D02*
X147256904Y-147536723D01*
X147256904Y-147536723D02*
X147209285Y-147346247D01*
X147209285Y-147346247D02*
X147209285Y-147203390D01*
X147209285Y-147203390D02*
X147256904Y-147012914D01*
X147256904Y-147012914D02*
X147304523Y-146917676D01*
X147304523Y-146917676D02*
X147399761Y-146822438D01*
X147399761Y-146822438D02*
X147542618Y-146774819D01*
X147542618Y-146774819D02*
X147637856Y-146774819D01*
X147637856Y-146774819D02*
X147780713Y-146822438D01*
X147780713Y-146822438D02*
X147828332Y-146870057D01*
X148256904Y-147774819D02*
X148256904Y-146774819D01*
X148685475Y-147774819D02*
X148685475Y-147251009D01*
X148685475Y-147251009D02*
X148637856Y-147155771D01*
X148637856Y-147155771D02*
X148542618Y-147108152D01*
X148542618Y-147108152D02*
X148399761Y-147108152D01*
X148399761Y-147108152D02*
X148304523Y-147155771D01*
X148304523Y-147155771D02*
X148256904Y-147203390D01*
X149590237Y-147774819D02*
X149590237Y-147251009D01*
X149590237Y-147251009D02*
X149542618Y-147155771D01*
X149542618Y-147155771D02*
X149447380Y-147108152D01*
X149447380Y-147108152D02*
X149256904Y-147108152D01*
X149256904Y-147108152D02*
X149161666Y-147155771D01*
X149590237Y-147727200D02*
X149494999Y-147774819D01*
X149494999Y-147774819D02*
X149256904Y-147774819D01*
X149256904Y-147774819D02*
X149161666Y-147727200D01*
X149161666Y-147727200D02*
X149114047Y-147631961D01*
X149114047Y-147631961D02*
X149114047Y-147536723D01*
X149114047Y-147536723D02*
X149161666Y-147441485D01*
X149161666Y-147441485D02*
X149256904Y-147393866D01*
X149256904Y-147393866D02*
X149494999Y-147393866D01*
X149494999Y-147393866D02*
X149590237Y-147346247D01*
X150066428Y-147108152D02*
X150066428Y-147774819D01*
X150066428Y-147203390D02*
X150114047Y-147155771D01*
X150114047Y-147155771D02*
X150209285Y-147108152D01*
X150209285Y-147108152D02*
X150352142Y-147108152D01*
X150352142Y-147108152D02*
X150447380Y-147155771D01*
X150447380Y-147155771D02*
X150494999Y-147251009D01*
X150494999Y-147251009D02*
X150494999Y-147774819D01*
X150971190Y-147108152D02*
X150971190Y-147774819D01*
X150971190Y-147203390D02*
X151018809Y-147155771D01*
X151018809Y-147155771D02*
X151114047Y-147108152D01*
X151114047Y-147108152D02*
X151256904Y-147108152D01*
X151256904Y-147108152D02*
X151352142Y-147155771D01*
X151352142Y-147155771D02*
X151399761Y-147251009D01*
X151399761Y-147251009D02*
X151399761Y-147774819D01*
X152256904Y-147727200D02*
X152161666Y-147774819D01*
X152161666Y-147774819D02*
X151971190Y-147774819D01*
X151971190Y-147774819D02*
X151875952Y-147727200D01*
X151875952Y-147727200D02*
X151828333Y-147631961D01*
X151828333Y-147631961D02*
X151828333Y-147251009D01*
X151828333Y-147251009D02*
X151875952Y-147155771D01*
X151875952Y-147155771D02*
X151971190Y-147108152D01*
X151971190Y-147108152D02*
X152161666Y-147108152D01*
X152161666Y-147108152D02*
X152256904Y-147155771D01*
X152256904Y-147155771D02*
X152304523Y-147251009D01*
X152304523Y-147251009D02*
X152304523Y-147346247D01*
X152304523Y-147346247D02*
X151828333Y-147441485D01*
X152875952Y-147774819D02*
X152780714Y-147727200D01*
X152780714Y-147727200D02*
X152733095Y-147631961D01*
X152733095Y-147631961D02*
X152733095Y-146774819D01*
X153733095Y-146774819D02*
X153256905Y-146774819D01*
X153256905Y-146774819D02*
X153209286Y-147251009D01*
X153209286Y-147251009D02*
X153256905Y-147203390D01*
X153256905Y-147203390D02*
X153352143Y-147155771D01*
X153352143Y-147155771D02*
X153590238Y-147155771D01*
X153590238Y-147155771D02*
X153685476Y-147203390D01*
X153685476Y-147203390D02*
X153733095Y-147251009D01*
X153733095Y-147251009D02*
X153780714Y-147346247D01*
X153780714Y-147346247D02*
X153780714Y-147584342D01*
X153780714Y-147584342D02*
X153733095Y-147679580D01*
X153733095Y-147679580D02*
X153685476Y-147727200D01*
X153685476Y-147727200D02*
X153590238Y-147774819D01*
X153590238Y-147774819D02*
X153352143Y-147774819D01*
X153352143Y-147774819D02*
X153256905Y-147727200D01*
X153256905Y-147727200D02*
X153209286Y-147679580D01*
X96552142Y-147679580D02*
X96504523Y-147727200D01*
X96504523Y-147727200D02*
X96361666Y-147774819D01*
X96361666Y-147774819D02*
X96266428Y-147774819D01*
X96266428Y-147774819D02*
X96123571Y-147727200D01*
X96123571Y-147727200D02*
X96028333Y-147631961D01*
X96028333Y-147631961D02*
X95980714Y-147536723D01*
X95980714Y-147536723D02*
X95933095Y-147346247D01*
X95933095Y-147346247D02*
X95933095Y-147203390D01*
X95933095Y-147203390D02*
X95980714Y-147012914D01*
X95980714Y-147012914D02*
X96028333Y-146917676D01*
X96028333Y-146917676D02*
X96123571Y-146822438D01*
X96123571Y-146822438D02*
X96266428Y-146774819D01*
X96266428Y-146774819D02*
X96361666Y-146774819D01*
X96361666Y-146774819D02*
X96504523Y-146822438D01*
X96504523Y-146822438D02*
X96552142Y-146870057D01*
X96980714Y-147774819D02*
X96980714Y-146774819D01*
X97409285Y-147774819D02*
X97409285Y-147251009D01*
X97409285Y-147251009D02*
X97361666Y-147155771D01*
X97361666Y-147155771D02*
X97266428Y-147108152D01*
X97266428Y-147108152D02*
X97123571Y-147108152D01*
X97123571Y-147108152D02*
X97028333Y-147155771D01*
X97028333Y-147155771D02*
X96980714Y-147203390D01*
X98314047Y-147774819D02*
X98314047Y-147251009D01*
X98314047Y-147251009D02*
X98266428Y-147155771D01*
X98266428Y-147155771D02*
X98171190Y-147108152D01*
X98171190Y-147108152D02*
X97980714Y-147108152D01*
X97980714Y-147108152D02*
X97885476Y-147155771D01*
X98314047Y-147727200D02*
X98218809Y-147774819D01*
X98218809Y-147774819D02*
X97980714Y-147774819D01*
X97980714Y-147774819D02*
X97885476Y-147727200D01*
X97885476Y-147727200D02*
X97837857Y-147631961D01*
X97837857Y-147631961D02*
X97837857Y-147536723D01*
X97837857Y-147536723D02*
X97885476Y-147441485D01*
X97885476Y-147441485D02*
X97980714Y-147393866D01*
X97980714Y-147393866D02*
X98218809Y-147393866D01*
X98218809Y-147393866D02*
X98314047Y-147346247D01*
X98790238Y-147108152D02*
X98790238Y-147774819D01*
X98790238Y-147203390D02*
X98837857Y-147155771D01*
X98837857Y-147155771D02*
X98933095Y-147108152D01*
X98933095Y-147108152D02*
X99075952Y-147108152D01*
X99075952Y-147108152D02*
X99171190Y-147155771D01*
X99171190Y-147155771D02*
X99218809Y-147251009D01*
X99218809Y-147251009D02*
X99218809Y-147774819D01*
X99695000Y-147108152D02*
X99695000Y-147774819D01*
X99695000Y-147203390D02*
X99742619Y-147155771D01*
X99742619Y-147155771D02*
X99837857Y-147108152D01*
X99837857Y-147108152D02*
X99980714Y-147108152D01*
X99980714Y-147108152D02*
X100075952Y-147155771D01*
X100075952Y-147155771D02*
X100123571Y-147251009D01*
X100123571Y-147251009D02*
X100123571Y-147774819D01*
X100980714Y-147727200D02*
X100885476Y-147774819D01*
X100885476Y-147774819D02*
X100695000Y-147774819D01*
X100695000Y-147774819D02*
X100599762Y-147727200D01*
X100599762Y-147727200D02*
X100552143Y-147631961D01*
X100552143Y-147631961D02*
X100552143Y-147251009D01*
X100552143Y-147251009D02*
X100599762Y-147155771D01*
X100599762Y-147155771D02*
X100695000Y-147108152D01*
X100695000Y-147108152D02*
X100885476Y-147108152D01*
X100885476Y-147108152D02*
X100980714Y-147155771D01*
X100980714Y-147155771D02*
X101028333Y-147251009D01*
X101028333Y-147251009D02*
X101028333Y-147346247D01*
X101028333Y-147346247D02*
X100552143Y-147441485D01*
X101599762Y-147774819D02*
X101504524Y-147727200D01*
X101504524Y-147727200D02*
X101456905Y-147631961D01*
X101456905Y-147631961D02*
X101456905Y-146774819D01*
X102504524Y-147774819D02*
X101933096Y-147774819D01*
X102218810Y-147774819D02*
X102218810Y-146774819D01*
X102218810Y-146774819D02*
X102123572Y-146917676D01*
X102123572Y-146917676D02*
X102028334Y-147012914D01*
X102028334Y-147012914D02*
X101933096Y-147060533D01*
X103123572Y-146774819D02*
X103218810Y-146774819D01*
X103218810Y-146774819D02*
X103314048Y-146822438D01*
X103314048Y-146822438D02*
X103361667Y-146870057D01*
X103361667Y-146870057D02*
X103409286Y-146965295D01*
X103409286Y-146965295D02*
X103456905Y-147155771D01*
X103456905Y-147155771D02*
X103456905Y-147393866D01*
X103456905Y-147393866D02*
X103409286Y-147584342D01*
X103409286Y-147584342D02*
X103361667Y-147679580D01*
X103361667Y-147679580D02*
X103314048Y-147727200D01*
X103314048Y-147727200D02*
X103218810Y-147774819D01*
X103218810Y-147774819D02*
X103123572Y-147774819D01*
X103123572Y-147774819D02*
X103028334Y-147727200D01*
X103028334Y-147727200D02*
X102980715Y-147679580D01*
X102980715Y-147679580D02*
X102933096Y-147584342D01*
X102933096Y-147584342D02*
X102885477Y-147393866D01*
X102885477Y-147393866D02*
X102885477Y-147155771D01*
X102885477Y-147155771D02*
X102933096Y-146965295D01*
X102933096Y-146965295D02*
X102980715Y-146870057D01*
X102980715Y-146870057D02*
X103028334Y-146822438D01*
X103028334Y-146822438D02*
X103123572Y-146774819D01*
X97028332Y-52429580D02*
X96980713Y-52477200D01*
X96980713Y-52477200D02*
X96837856Y-52524819D01*
X96837856Y-52524819D02*
X96742618Y-52524819D01*
X96742618Y-52524819D02*
X96599761Y-52477200D01*
X96599761Y-52477200D02*
X96504523Y-52381961D01*
X96504523Y-52381961D02*
X96456904Y-52286723D01*
X96456904Y-52286723D02*
X96409285Y-52096247D01*
X96409285Y-52096247D02*
X96409285Y-51953390D01*
X96409285Y-51953390D02*
X96456904Y-51762914D01*
X96456904Y-51762914D02*
X96504523Y-51667676D01*
X96504523Y-51667676D02*
X96599761Y-51572438D01*
X96599761Y-51572438D02*
X96742618Y-51524819D01*
X96742618Y-51524819D02*
X96837856Y-51524819D01*
X96837856Y-51524819D02*
X96980713Y-51572438D01*
X96980713Y-51572438D02*
X97028332Y-51620057D01*
X97456904Y-52524819D02*
X97456904Y-51524819D01*
X97885475Y-52524819D02*
X97885475Y-52001009D01*
X97885475Y-52001009D02*
X97837856Y-51905771D01*
X97837856Y-51905771D02*
X97742618Y-51858152D01*
X97742618Y-51858152D02*
X97599761Y-51858152D01*
X97599761Y-51858152D02*
X97504523Y-51905771D01*
X97504523Y-51905771D02*
X97456904Y-51953390D01*
X98790237Y-52524819D02*
X98790237Y-52001009D01*
X98790237Y-52001009D02*
X98742618Y-51905771D01*
X98742618Y-51905771D02*
X98647380Y-51858152D01*
X98647380Y-51858152D02*
X98456904Y-51858152D01*
X98456904Y-51858152D02*
X98361666Y-51905771D01*
X98790237Y-52477200D02*
X98694999Y-52524819D01*
X98694999Y-52524819D02*
X98456904Y-52524819D01*
X98456904Y-52524819D02*
X98361666Y-52477200D01*
X98361666Y-52477200D02*
X98314047Y-52381961D01*
X98314047Y-52381961D02*
X98314047Y-52286723D01*
X98314047Y-52286723D02*
X98361666Y-52191485D01*
X98361666Y-52191485D02*
X98456904Y-52143866D01*
X98456904Y-52143866D02*
X98694999Y-52143866D01*
X98694999Y-52143866D02*
X98790237Y-52096247D01*
X99266428Y-51858152D02*
X99266428Y-52524819D01*
X99266428Y-51953390D02*
X99314047Y-51905771D01*
X99314047Y-51905771D02*
X99409285Y-51858152D01*
X99409285Y-51858152D02*
X99552142Y-51858152D01*
X99552142Y-51858152D02*
X99647380Y-51905771D01*
X99647380Y-51905771D02*
X99694999Y-52001009D01*
X99694999Y-52001009D02*
X99694999Y-52524819D01*
X100171190Y-51858152D02*
X100171190Y-52524819D01*
X100171190Y-51953390D02*
X100218809Y-51905771D01*
X100218809Y-51905771D02*
X100314047Y-51858152D01*
X100314047Y-51858152D02*
X100456904Y-51858152D01*
X100456904Y-51858152D02*
X100552142Y-51905771D01*
X100552142Y-51905771D02*
X100599761Y-52001009D01*
X100599761Y-52001009D02*
X100599761Y-52524819D01*
X101456904Y-52477200D02*
X101361666Y-52524819D01*
X101361666Y-52524819D02*
X101171190Y-52524819D01*
X101171190Y-52524819D02*
X101075952Y-52477200D01*
X101075952Y-52477200D02*
X101028333Y-52381961D01*
X101028333Y-52381961D02*
X101028333Y-52001009D01*
X101028333Y-52001009D02*
X101075952Y-51905771D01*
X101075952Y-51905771D02*
X101171190Y-51858152D01*
X101171190Y-51858152D02*
X101361666Y-51858152D01*
X101361666Y-51858152D02*
X101456904Y-51905771D01*
X101456904Y-51905771D02*
X101504523Y-52001009D01*
X101504523Y-52001009D02*
X101504523Y-52096247D01*
X101504523Y-52096247D02*
X101028333Y-52191485D01*
X102075952Y-52524819D02*
X101980714Y-52477200D01*
X101980714Y-52477200D02*
X101933095Y-52381961D01*
X101933095Y-52381961D02*
X101933095Y-51524819D01*
X102885476Y-51524819D02*
X102695000Y-51524819D01*
X102695000Y-51524819D02*
X102599762Y-51572438D01*
X102599762Y-51572438D02*
X102552143Y-51620057D01*
X102552143Y-51620057D02*
X102456905Y-51762914D01*
X102456905Y-51762914D02*
X102409286Y-51953390D01*
X102409286Y-51953390D02*
X102409286Y-52334342D01*
X102409286Y-52334342D02*
X102456905Y-52429580D01*
X102456905Y-52429580D02*
X102504524Y-52477200D01*
X102504524Y-52477200D02*
X102599762Y-52524819D01*
X102599762Y-52524819D02*
X102790238Y-52524819D01*
X102790238Y-52524819D02*
X102885476Y-52477200D01*
X102885476Y-52477200D02*
X102933095Y-52429580D01*
X102933095Y-52429580D02*
X102980714Y-52334342D01*
X102980714Y-52334342D02*
X102980714Y-52096247D01*
X102980714Y-52096247D02*
X102933095Y-52001009D01*
X102933095Y-52001009D02*
X102885476Y-51953390D01*
X102885476Y-51953390D02*
X102790238Y-51905771D01*
X102790238Y-51905771D02*
X102599762Y-51905771D01*
X102599762Y-51905771D02*
X102504524Y-51953390D01*
X102504524Y-51953390D02*
X102456905Y-52001009D01*
X102456905Y-52001009D02*
X102409286Y-52096247D01*
X147828332Y-75289580D02*
X147780713Y-75337200D01*
X147780713Y-75337200D02*
X147637856Y-75384819D01*
X147637856Y-75384819D02*
X147542618Y-75384819D01*
X147542618Y-75384819D02*
X147399761Y-75337200D01*
X147399761Y-75337200D02*
X147304523Y-75241961D01*
X147304523Y-75241961D02*
X147256904Y-75146723D01*
X147256904Y-75146723D02*
X147209285Y-74956247D01*
X147209285Y-74956247D02*
X147209285Y-74813390D01*
X147209285Y-74813390D02*
X147256904Y-74622914D01*
X147256904Y-74622914D02*
X147304523Y-74527676D01*
X147304523Y-74527676D02*
X147399761Y-74432438D01*
X147399761Y-74432438D02*
X147542618Y-74384819D01*
X147542618Y-74384819D02*
X147637856Y-74384819D01*
X147637856Y-74384819D02*
X147780713Y-74432438D01*
X147780713Y-74432438D02*
X147828332Y-74480057D01*
X148256904Y-75384819D02*
X148256904Y-74384819D01*
X148685475Y-75384819D02*
X148685475Y-74861009D01*
X148685475Y-74861009D02*
X148637856Y-74765771D01*
X148637856Y-74765771D02*
X148542618Y-74718152D01*
X148542618Y-74718152D02*
X148399761Y-74718152D01*
X148399761Y-74718152D02*
X148304523Y-74765771D01*
X148304523Y-74765771D02*
X148256904Y-74813390D01*
X149590237Y-75384819D02*
X149590237Y-74861009D01*
X149590237Y-74861009D02*
X149542618Y-74765771D01*
X149542618Y-74765771D02*
X149447380Y-74718152D01*
X149447380Y-74718152D02*
X149256904Y-74718152D01*
X149256904Y-74718152D02*
X149161666Y-74765771D01*
X149590237Y-75337200D02*
X149494999Y-75384819D01*
X149494999Y-75384819D02*
X149256904Y-75384819D01*
X149256904Y-75384819D02*
X149161666Y-75337200D01*
X149161666Y-75337200D02*
X149114047Y-75241961D01*
X149114047Y-75241961D02*
X149114047Y-75146723D01*
X149114047Y-75146723D02*
X149161666Y-75051485D01*
X149161666Y-75051485D02*
X149256904Y-75003866D01*
X149256904Y-75003866D02*
X149494999Y-75003866D01*
X149494999Y-75003866D02*
X149590237Y-74956247D01*
X150066428Y-74718152D02*
X150066428Y-75384819D01*
X150066428Y-74813390D02*
X150114047Y-74765771D01*
X150114047Y-74765771D02*
X150209285Y-74718152D01*
X150209285Y-74718152D02*
X150352142Y-74718152D01*
X150352142Y-74718152D02*
X150447380Y-74765771D01*
X150447380Y-74765771D02*
X150494999Y-74861009D01*
X150494999Y-74861009D02*
X150494999Y-75384819D01*
X150971190Y-74718152D02*
X150971190Y-75384819D01*
X150971190Y-74813390D02*
X151018809Y-74765771D01*
X151018809Y-74765771D02*
X151114047Y-74718152D01*
X151114047Y-74718152D02*
X151256904Y-74718152D01*
X151256904Y-74718152D02*
X151352142Y-74765771D01*
X151352142Y-74765771D02*
X151399761Y-74861009D01*
X151399761Y-74861009D02*
X151399761Y-75384819D01*
X152256904Y-75337200D02*
X152161666Y-75384819D01*
X152161666Y-75384819D02*
X151971190Y-75384819D01*
X151971190Y-75384819D02*
X151875952Y-75337200D01*
X151875952Y-75337200D02*
X151828333Y-75241961D01*
X151828333Y-75241961D02*
X151828333Y-74861009D01*
X151828333Y-74861009D02*
X151875952Y-74765771D01*
X151875952Y-74765771D02*
X151971190Y-74718152D01*
X151971190Y-74718152D02*
X152161666Y-74718152D01*
X152161666Y-74718152D02*
X152256904Y-74765771D01*
X152256904Y-74765771D02*
X152304523Y-74861009D01*
X152304523Y-74861009D02*
X152304523Y-74956247D01*
X152304523Y-74956247D02*
X151828333Y-75051485D01*
X152875952Y-75384819D02*
X152780714Y-75337200D01*
X152780714Y-75337200D02*
X152733095Y-75241961D01*
X152733095Y-75241961D02*
X152733095Y-74384819D01*
X153209286Y-74480057D02*
X153256905Y-74432438D01*
X153256905Y-74432438D02*
X153352143Y-74384819D01*
X153352143Y-74384819D02*
X153590238Y-74384819D01*
X153590238Y-74384819D02*
X153685476Y-74432438D01*
X153685476Y-74432438D02*
X153733095Y-74480057D01*
X153733095Y-74480057D02*
X153780714Y-74575295D01*
X153780714Y-74575295D02*
X153780714Y-74670533D01*
X153780714Y-74670533D02*
X153733095Y-74813390D01*
X153733095Y-74813390D02*
X153161667Y-75384819D01*
X153161667Y-75384819D02*
X153780714Y-75384819D01*
X97028332Y-99419580D02*
X96980713Y-99467200D01*
X96980713Y-99467200D02*
X96837856Y-99514819D01*
X96837856Y-99514819D02*
X96742618Y-99514819D01*
X96742618Y-99514819D02*
X96599761Y-99467200D01*
X96599761Y-99467200D02*
X96504523Y-99371961D01*
X96504523Y-99371961D02*
X96456904Y-99276723D01*
X96456904Y-99276723D02*
X96409285Y-99086247D01*
X96409285Y-99086247D02*
X96409285Y-98943390D01*
X96409285Y-98943390D02*
X96456904Y-98752914D01*
X96456904Y-98752914D02*
X96504523Y-98657676D01*
X96504523Y-98657676D02*
X96599761Y-98562438D01*
X96599761Y-98562438D02*
X96742618Y-98514819D01*
X96742618Y-98514819D02*
X96837856Y-98514819D01*
X96837856Y-98514819D02*
X96980713Y-98562438D01*
X96980713Y-98562438D02*
X97028332Y-98610057D01*
X97456904Y-99514819D02*
X97456904Y-98514819D01*
X97885475Y-99514819D02*
X97885475Y-98991009D01*
X97885475Y-98991009D02*
X97837856Y-98895771D01*
X97837856Y-98895771D02*
X97742618Y-98848152D01*
X97742618Y-98848152D02*
X97599761Y-98848152D01*
X97599761Y-98848152D02*
X97504523Y-98895771D01*
X97504523Y-98895771D02*
X97456904Y-98943390D01*
X98790237Y-99514819D02*
X98790237Y-98991009D01*
X98790237Y-98991009D02*
X98742618Y-98895771D01*
X98742618Y-98895771D02*
X98647380Y-98848152D01*
X98647380Y-98848152D02*
X98456904Y-98848152D01*
X98456904Y-98848152D02*
X98361666Y-98895771D01*
X98790237Y-99467200D02*
X98694999Y-99514819D01*
X98694999Y-99514819D02*
X98456904Y-99514819D01*
X98456904Y-99514819D02*
X98361666Y-99467200D01*
X98361666Y-99467200D02*
X98314047Y-99371961D01*
X98314047Y-99371961D02*
X98314047Y-99276723D01*
X98314047Y-99276723D02*
X98361666Y-99181485D01*
X98361666Y-99181485D02*
X98456904Y-99133866D01*
X98456904Y-99133866D02*
X98694999Y-99133866D01*
X98694999Y-99133866D02*
X98790237Y-99086247D01*
X99266428Y-98848152D02*
X99266428Y-99514819D01*
X99266428Y-98943390D02*
X99314047Y-98895771D01*
X99314047Y-98895771D02*
X99409285Y-98848152D01*
X99409285Y-98848152D02*
X99552142Y-98848152D01*
X99552142Y-98848152D02*
X99647380Y-98895771D01*
X99647380Y-98895771D02*
X99694999Y-98991009D01*
X99694999Y-98991009D02*
X99694999Y-99514819D01*
X100171190Y-98848152D02*
X100171190Y-99514819D01*
X100171190Y-98943390D02*
X100218809Y-98895771D01*
X100218809Y-98895771D02*
X100314047Y-98848152D01*
X100314047Y-98848152D02*
X100456904Y-98848152D01*
X100456904Y-98848152D02*
X100552142Y-98895771D01*
X100552142Y-98895771D02*
X100599761Y-98991009D01*
X100599761Y-98991009D02*
X100599761Y-99514819D01*
X101456904Y-99467200D02*
X101361666Y-99514819D01*
X101361666Y-99514819D02*
X101171190Y-99514819D01*
X101171190Y-99514819D02*
X101075952Y-99467200D01*
X101075952Y-99467200D02*
X101028333Y-99371961D01*
X101028333Y-99371961D02*
X101028333Y-98991009D01*
X101028333Y-98991009D02*
X101075952Y-98895771D01*
X101075952Y-98895771D02*
X101171190Y-98848152D01*
X101171190Y-98848152D02*
X101361666Y-98848152D01*
X101361666Y-98848152D02*
X101456904Y-98895771D01*
X101456904Y-98895771D02*
X101504523Y-98991009D01*
X101504523Y-98991009D02*
X101504523Y-99086247D01*
X101504523Y-99086247D02*
X101028333Y-99181485D01*
X102075952Y-99514819D02*
X101980714Y-99467200D01*
X101980714Y-99467200D02*
X101933095Y-99371961D01*
X101933095Y-99371961D02*
X101933095Y-98514819D01*
X102599762Y-98943390D02*
X102504524Y-98895771D01*
X102504524Y-98895771D02*
X102456905Y-98848152D01*
X102456905Y-98848152D02*
X102409286Y-98752914D01*
X102409286Y-98752914D02*
X102409286Y-98705295D01*
X102409286Y-98705295D02*
X102456905Y-98610057D01*
X102456905Y-98610057D02*
X102504524Y-98562438D01*
X102504524Y-98562438D02*
X102599762Y-98514819D01*
X102599762Y-98514819D02*
X102790238Y-98514819D01*
X102790238Y-98514819D02*
X102885476Y-98562438D01*
X102885476Y-98562438D02*
X102933095Y-98610057D01*
X102933095Y-98610057D02*
X102980714Y-98705295D01*
X102980714Y-98705295D02*
X102980714Y-98752914D01*
X102980714Y-98752914D02*
X102933095Y-98848152D01*
X102933095Y-98848152D02*
X102885476Y-98895771D01*
X102885476Y-98895771D02*
X102790238Y-98943390D01*
X102790238Y-98943390D02*
X102599762Y-98943390D01*
X102599762Y-98943390D02*
X102504524Y-98991009D01*
X102504524Y-98991009D02*
X102456905Y-99038628D01*
X102456905Y-99038628D02*
X102409286Y-99133866D01*
X102409286Y-99133866D02*
X102409286Y-99324342D01*
X102409286Y-99324342D02*
X102456905Y-99419580D01*
X102456905Y-99419580D02*
X102504524Y-99467200D01*
X102504524Y-99467200D02*
X102599762Y-99514819D01*
X102599762Y-99514819D02*
X102790238Y-99514819D01*
X102790238Y-99514819D02*
X102885476Y-99467200D01*
X102885476Y-99467200D02*
X102933095Y-99419580D01*
X102933095Y-99419580D02*
X102980714Y-99324342D01*
X102980714Y-99324342D02*
X102980714Y-99133866D01*
X102980714Y-99133866D02*
X102933095Y-99038628D01*
X102933095Y-99038628D02*
X102885476Y-98991009D01*
X102885476Y-98991009D02*
X102790238Y-98943390D01*
X147828332Y-123549580D02*
X147780713Y-123597200D01*
X147780713Y-123597200D02*
X147637856Y-123644819D01*
X147637856Y-123644819D02*
X147542618Y-123644819D01*
X147542618Y-123644819D02*
X147399761Y-123597200D01*
X147399761Y-123597200D02*
X147304523Y-123501961D01*
X147304523Y-123501961D02*
X147256904Y-123406723D01*
X147256904Y-123406723D02*
X147209285Y-123216247D01*
X147209285Y-123216247D02*
X147209285Y-123073390D01*
X147209285Y-123073390D02*
X147256904Y-122882914D01*
X147256904Y-122882914D02*
X147304523Y-122787676D01*
X147304523Y-122787676D02*
X147399761Y-122692438D01*
X147399761Y-122692438D02*
X147542618Y-122644819D01*
X147542618Y-122644819D02*
X147637856Y-122644819D01*
X147637856Y-122644819D02*
X147780713Y-122692438D01*
X147780713Y-122692438D02*
X147828332Y-122740057D01*
X148256904Y-123644819D02*
X148256904Y-122644819D01*
X148685475Y-123644819D02*
X148685475Y-123121009D01*
X148685475Y-123121009D02*
X148637856Y-123025771D01*
X148637856Y-123025771D02*
X148542618Y-122978152D01*
X148542618Y-122978152D02*
X148399761Y-122978152D01*
X148399761Y-122978152D02*
X148304523Y-123025771D01*
X148304523Y-123025771D02*
X148256904Y-123073390D01*
X149590237Y-123644819D02*
X149590237Y-123121009D01*
X149590237Y-123121009D02*
X149542618Y-123025771D01*
X149542618Y-123025771D02*
X149447380Y-122978152D01*
X149447380Y-122978152D02*
X149256904Y-122978152D01*
X149256904Y-122978152D02*
X149161666Y-123025771D01*
X149590237Y-123597200D02*
X149494999Y-123644819D01*
X149494999Y-123644819D02*
X149256904Y-123644819D01*
X149256904Y-123644819D02*
X149161666Y-123597200D01*
X149161666Y-123597200D02*
X149114047Y-123501961D01*
X149114047Y-123501961D02*
X149114047Y-123406723D01*
X149114047Y-123406723D02*
X149161666Y-123311485D01*
X149161666Y-123311485D02*
X149256904Y-123263866D01*
X149256904Y-123263866D02*
X149494999Y-123263866D01*
X149494999Y-123263866D02*
X149590237Y-123216247D01*
X150066428Y-122978152D02*
X150066428Y-123644819D01*
X150066428Y-123073390D02*
X150114047Y-123025771D01*
X150114047Y-123025771D02*
X150209285Y-122978152D01*
X150209285Y-122978152D02*
X150352142Y-122978152D01*
X150352142Y-122978152D02*
X150447380Y-123025771D01*
X150447380Y-123025771D02*
X150494999Y-123121009D01*
X150494999Y-123121009D02*
X150494999Y-123644819D01*
X150971190Y-122978152D02*
X150971190Y-123644819D01*
X150971190Y-123073390D02*
X151018809Y-123025771D01*
X151018809Y-123025771D02*
X151114047Y-122978152D01*
X151114047Y-122978152D02*
X151256904Y-122978152D01*
X151256904Y-122978152D02*
X151352142Y-123025771D01*
X151352142Y-123025771D02*
X151399761Y-123121009D01*
X151399761Y-123121009D02*
X151399761Y-123644819D01*
X152256904Y-123597200D02*
X152161666Y-123644819D01*
X152161666Y-123644819D02*
X151971190Y-123644819D01*
X151971190Y-123644819D02*
X151875952Y-123597200D01*
X151875952Y-123597200D02*
X151828333Y-123501961D01*
X151828333Y-123501961D02*
X151828333Y-123121009D01*
X151828333Y-123121009D02*
X151875952Y-123025771D01*
X151875952Y-123025771D02*
X151971190Y-122978152D01*
X151971190Y-122978152D02*
X152161666Y-122978152D01*
X152161666Y-122978152D02*
X152256904Y-123025771D01*
X152256904Y-123025771D02*
X152304523Y-123121009D01*
X152304523Y-123121009D02*
X152304523Y-123216247D01*
X152304523Y-123216247D02*
X151828333Y-123311485D01*
X152875952Y-123644819D02*
X152780714Y-123597200D01*
X152780714Y-123597200D02*
X152733095Y-123501961D01*
X152733095Y-123501961D02*
X152733095Y-122644819D01*
X153685476Y-122978152D02*
X153685476Y-123644819D01*
X153447381Y-122597200D02*
X153209286Y-123311485D01*
X153209286Y-123311485D02*
X153828333Y-123311485D01*
X114389819Y-111201104D02*
X115199342Y-111201104D01*
X115199342Y-111201104D02*
X115294580Y-111153485D01*
X115294580Y-111153485D02*
X115342200Y-111105866D01*
X115342200Y-111105866D02*
X115389819Y-111010628D01*
X115389819Y-111010628D02*
X115389819Y-110820152D01*
X115389819Y-110820152D02*
X115342200Y-110724914D01*
X115342200Y-110724914D02*
X115294580Y-110677295D01*
X115294580Y-110677295D02*
X115199342Y-110629676D01*
X115199342Y-110629676D02*
X114389819Y-110629676D01*
X115389819Y-109629676D02*
X115389819Y-110201104D01*
X115389819Y-109915390D02*
X114389819Y-109915390D01*
X114389819Y-109915390D02*
X114532676Y-110010628D01*
X114532676Y-110010628D02*
X114627914Y-110105866D01*
X114627914Y-110105866D02*
X114675533Y-110201104D01*
X118961256Y-122435209D02*
X119294589Y-122435209D01*
X119437446Y-122959019D02*
X118961256Y-122959019D01*
X118961256Y-122959019D02*
X118961256Y-121959019D01*
X118961256Y-121959019D02*
X119437446Y-121959019D01*
X119723161Y-122292352D02*
X120104113Y-122292352D01*
X119866018Y-121959019D02*
X119866018Y-122816161D01*
X119866018Y-122816161D02*
X119913637Y-122911400D01*
X119913637Y-122911400D02*
X120008875Y-122959019D01*
X120008875Y-122959019D02*
X120104113Y-122959019D01*
X120437447Y-122959019D02*
X120437447Y-121959019D01*
X120866018Y-122959019D02*
X120866018Y-122435209D01*
X120866018Y-122435209D02*
X120818399Y-122339971D01*
X120818399Y-122339971D02*
X120723161Y-122292352D01*
X120723161Y-122292352D02*
X120580304Y-122292352D01*
X120580304Y-122292352D02*
X120485066Y-122339971D01*
X120485066Y-122339971D02*
X120437447Y-122387590D01*
X121723161Y-122911400D02*
X121627923Y-122959019D01*
X121627923Y-122959019D02*
X121437447Y-122959019D01*
X121437447Y-122959019D02*
X121342209Y-122911400D01*
X121342209Y-122911400D02*
X121294590Y-122816161D01*
X121294590Y-122816161D02*
X121294590Y-122435209D01*
X121294590Y-122435209D02*
X121342209Y-122339971D01*
X121342209Y-122339971D02*
X121437447Y-122292352D01*
X121437447Y-122292352D02*
X121627923Y-122292352D01*
X121627923Y-122292352D02*
X121723161Y-122339971D01*
X121723161Y-122339971D02*
X121770780Y-122435209D01*
X121770780Y-122435209D02*
X121770780Y-122530447D01*
X121770780Y-122530447D02*
X121294590Y-122625685D01*
X122199352Y-122959019D02*
X122199352Y-122292352D01*
X122199352Y-122482828D02*
X122246971Y-122387590D01*
X122246971Y-122387590D02*
X122294590Y-122339971D01*
X122294590Y-122339971D02*
X122389828Y-122292352D01*
X122389828Y-122292352D02*
X122485066Y-122292352D01*
X122818400Y-122292352D02*
X122818400Y-122959019D01*
X122818400Y-122387590D02*
X122866019Y-122339971D01*
X122866019Y-122339971D02*
X122961257Y-122292352D01*
X122961257Y-122292352D02*
X123104114Y-122292352D01*
X123104114Y-122292352D02*
X123199352Y-122339971D01*
X123199352Y-122339971D02*
X123246971Y-122435209D01*
X123246971Y-122435209D02*
X123246971Y-122959019D01*
X124104114Y-122911400D02*
X124008876Y-122959019D01*
X124008876Y-122959019D02*
X123818400Y-122959019D01*
X123818400Y-122959019D02*
X123723162Y-122911400D01*
X123723162Y-122911400D02*
X123675543Y-122816161D01*
X123675543Y-122816161D02*
X123675543Y-122435209D01*
X123675543Y-122435209D02*
X123723162Y-122339971D01*
X123723162Y-122339971D02*
X123818400Y-122292352D01*
X123818400Y-122292352D02*
X124008876Y-122292352D01*
X124008876Y-122292352D02*
X124104114Y-122339971D01*
X124104114Y-122339971D02*
X124151733Y-122435209D01*
X124151733Y-122435209D02*
X124151733Y-122530447D01*
X124151733Y-122530447D02*
X123675543Y-122625685D01*
X124437448Y-122292352D02*
X124818400Y-122292352D01*
X124580305Y-121959019D02*
X124580305Y-122816161D01*
X124580305Y-122816161D02*
X124627924Y-122911400D01*
X124627924Y-122911400D02*
X124723162Y-122959019D01*
X124723162Y-122959019D02*
X124818400Y-122959019D01*
X125549819Y-89428247D02*
X124549819Y-89428247D01*
X124549819Y-89428247D02*
X125264104Y-89094914D01*
X125264104Y-89094914D02*
X124549819Y-88761581D01*
X124549819Y-88761581D02*
X125549819Y-88761581D01*
X125549819Y-88285390D02*
X124883152Y-88285390D01*
X124549819Y-88285390D02*
X124597438Y-88333009D01*
X124597438Y-88333009D02*
X124645057Y-88285390D01*
X124645057Y-88285390D02*
X124597438Y-88237771D01*
X124597438Y-88237771D02*
X124549819Y-88285390D01*
X124549819Y-88285390D02*
X124645057Y-88285390D01*
X125502200Y-87380629D02*
X125549819Y-87475867D01*
X125549819Y-87475867D02*
X125549819Y-87666343D01*
X125549819Y-87666343D02*
X125502200Y-87761581D01*
X125502200Y-87761581D02*
X125454580Y-87809200D01*
X125454580Y-87809200D02*
X125359342Y-87856819D01*
X125359342Y-87856819D02*
X125073628Y-87856819D01*
X125073628Y-87856819D02*
X124978390Y-87809200D01*
X124978390Y-87809200D02*
X124930771Y-87761581D01*
X124930771Y-87761581D02*
X124883152Y-87666343D01*
X124883152Y-87666343D02*
X124883152Y-87475867D01*
X124883152Y-87475867D02*
X124930771Y-87380629D01*
X125549819Y-86952057D02*
X124883152Y-86952057D01*
X125073628Y-86952057D02*
X124978390Y-86904438D01*
X124978390Y-86904438D02*
X124930771Y-86856819D01*
X124930771Y-86856819D02*
X124883152Y-86761581D01*
X124883152Y-86761581D02*
X124883152Y-86666343D01*
X125549819Y-86190152D02*
X125502200Y-86285390D01*
X125502200Y-86285390D02*
X125454580Y-86333009D01*
X125454580Y-86333009D02*
X125359342Y-86380628D01*
X125359342Y-86380628D02*
X125073628Y-86380628D01*
X125073628Y-86380628D02*
X124978390Y-86333009D01*
X124978390Y-86333009D02*
X124930771Y-86285390D01*
X124930771Y-86285390D02*
X124883152Y-86190152D01*
X124883152Y-86190152D02*
X124883152Y-86047295D01*
X124883152Y-86047295D02*
X124930771Y-85952057D01*
X124930771Y-85952057D02*
X124978390Y-85904438D01*
X124978390Y-85904438D02*
X125073628Y-85856819D01*
X125073628Y-85856819D02*
X125359342Y-85856819D01*
X125359342Y-85856819D02*
X125454580Y-85904438D01*
X125454580Y-85904438D02*
X125502200Y-85952057D01*
X125502200Y-85952057D02*
X125549819Y-86047295D01*
X125549819Y-86047295D02*
X125549819Y-86190152D01*
X125502200Y-84713961D02*
X125549819Y-84571104D01*
X125549819Y-84571104D02*
X125549819Y-84333009D01*
X125549819Y-84333009D02*
X125502200Y-84237771D01*
X125502200Y-84237771D02*
X125454580Y-84190152D01*
X125454580Y-84190152D02*
X125359342Y-84142533D01*
X125359342Y-84142533D02*
X125264104Y-84142533D01*
X125264104Y-84142533D02*
X125168866Y-84190152D01*
X125168866Y-84190152D02*
X125121247Y-84237771D01*
X125121247Y-84237771D02*
X125073628Y-84333009D01*
X125073628Y-84333009D02*
X125026009Y-84523485D01*
X125026009Y-84523485D02*
X124978390Y-84618723D01*
X124978390Y-84618723D02*
X124930771Y-84666342D01*
X124930771Y-84666342D02*
X124835533Y-84713961D01*
X124835533Y-84713961D02*
X124740295Y-84713961D01*
X124740295Y-84713961D02*
X124645057Y-84666342D01*
X124645057Y-84666342D02*
X124597438Y-84618723D01*
X124597438Y-84618723D02*
X124549819Y-84523485D01*
X124549819Y-84523485D02*
X124549819Y-84285390D01*
X124549819Y-84285390D02*
X124597438Y-84142533D01*
X125549819Y-83713961D02*
X124549819Y-83713961D01*
X124549819Y-83713961D02*
X124549819Y-83475866D01*
X124549819Y-83475866D02*
X124597438Y-83333009D01*
X124597438Y-83333009D02*
X124692676Y-83237771D01*
X124692676Y-83237771D02*
X124787914Y-83190152D01*
X124787914Y-83190152D02*
X124978390Y-83142533D01*
X124978390Y-83142533D02*
X125121247Y-83142533D01*
X125121247Y-83142533D02*
X125311723Y-83190152D01*
X125311723Y-83190152D02*
X125406961Y-83237771D01*
X125406961Y-83237771D02*
X125502200Y-83333009D01*
X125502200Y-83333009D02*
X125549819Y-83475866D01*
X125549819Y-83475866D02*
X125549819Y-83713961D01*
X123833095Y-136564019D02*
X123833095Y-137373542D01*
X123833095Y-137373542D02*
X123880714Y-137468780D01*
X123880714Y-137468780D02*
X123928333Y-137516400D01*
X123928333Y-137516400D02*
X124023571Y-137564019D01*
X124023571Y-137564019D02*
X124214047Y-137564019D01*
X124214047Y-137564019D02*
X124309285Y-137516400D01*
X124309285Y-137516400D02*
X124356904Y-137468780D01*
X124356904Y-137468780D02*
X124404523Y-137373542D01*
X124404523Y-137373542D02*
X124404523Y-136564019D01*
X124833095Y-137516400D02*
X124975952Y-137564019D01*
X124975952Y-137564019D02*
X125214047Y-137564019D01*
X125214047Y-137564019D02*
X125309285Y-137516400D01*
X125309285Y-137516400D02*
X125356904Y-137468780D01*
X125356904Y-137468780D02*
X125404523Y-137373542D01*
X125404523Y-137373542D02*
X125404523Y-137278304D01*
X125404523Y-137278304D02*
X125356904Y-137183066D01*
X125356904Y-137183066D02*
X125309285Y-137135447D01*
X125309285Y-137135447D02*
X125214047Y-137087828D01*
X125214047Y-137087828D02*
X125023571Y-137040209D01*
X125023571Y-137040209D02*
X124928333Y-136992590D01*
X124928333Y-136992590D02*
X124880714Y-136944971D01*
X124880714Y-136944971D02*
X124833095Y-136849733D01*
X124833095Y-136849733D02*
X124833095Y-136754495D01*
X124833095Y-136754495D02*
X124880714Y-136659257D01*
X124880714Y-136659257D02*
X124928333Y-136611638D01*
X124928333Y-136611638D02*
X125023571Y-136564019D01*
X125023571Y-136564019D02*
X125261666Y-136564019D01*
X125261666Y-136564019D02*
X125404523Y-136611638D01*
X126166428Y-137040209D02*
X126309285Y-137087828D01*
X126309285Y-137087828D02*
X126356904Y-137135447D01*
X126356904Y-137135447D02*
X126404523Y-137230685D01*
X126404523Y-137230685D02*
X126404523Y-137373542D01*
X126404523Y-137373542D02*
X126356904Y-137468780D01*
X126356904Y-137468780D02*
X126309285Y-137516400D01*
X126309285Y-137516400D02*
X126214047Y-137564019D01*
X126214047Y-137564019D02*
X125833095Y-137564019D01*
X125833095Y-137564019D02*
X125833095Y-136564019D01*
X125833095Y-136564019D02*
X126166428Y-136564019D01*
X126166428Y-136564019D02*
X126261666Y-136611638D01*
X126261666Y-136611638D02*
X126309285Y-136659257D01*
X126309285Y-136659257D02*
X126356904Y-136754495D01*
X126356904Y-136754495D02*
X126356904Y-136849733D01*
X126356904Y-136849733D02*
X126309285Y-136944971D01*
X126309285Y-136944971D02*
X126261666Y-136992590D01*
X126261666Y-136992590D02*
X126166428Y-137040209D01*
X126166428Y-137040209D02*
X125833095Y-137040209D01*
X123531666Y-113295233D02*
X123531666Y-112595233D01*
X123531666Y-112595233D02*
X123698333Y-112595233D01*
X123698333Y-112595233D02*
X123798333Y-112628566D01*
X123798333Y-112628566D02*
X123865000Y-112695233D01*
X123865000Y-112695233D02*
X123898333Y-112761900D01*
X123898333Y-112761900D02*
X123931666Y-112895233D01*
X123931666Y-112895233D02*
X123931666Y-112995233D01*
X123931666Y-112995233D02*
X123898333Y-113128566D01*
X123898333Y-113128566D02*
X123865000Y-113195233D01*
X123865000Y-113195233D02*
X123798333Y-113261900D01*
X123798333Y-113261900D02*
X123698333Y-113295233D01*
X123698333Y-113295233D02*
X123531666Y-113295233D01*
X124131666Y-112595233D02*
X124365000Y-113295233D01*
X124365000Y-113295233D02*
X124598333Y-112595233D01*
X125031666Y-112595233D02*
X125031666Y-113095233D01*
X125031666Y-113095233D02*
X124998333Y-113195233D01*
X124998333Y-113195233D02*
X124931666Y-113261900D01*
X124931666Y-113261900D02*
X124831666Y-113295233D01*
X124831666Y-113295233D02*
X124765000Y-113295233D01*
X125664999Y-112595233D02*
X125531666Y-112595233D01*
X125531666Y-112595233D02*
X125464999Y-112628566D01*
X125464999Y-112628566D02*
X125431666Y-112661900D01*
X125431666Y-112661900D02*
X125364999Y-112761900D01*
X125364999Y-112761900D02*
X125331666Y-112895233D01*
X125331666Y-112895233D02*
X125331666Y-113161900D01*
X125331666Y-113161900D02*
X125364999Y-113228566D01*
X125364999Y-113228566D02*
X125398333Y-113261900D01*
X125398333Y-113261900D02*
X125464999Y-113295233D01*
X125464999Y-113295233D02*
X125598333Y-113295233D01*
X125598333Y-113295233D02*
X125664999Y-113261900D01*
X125664999Y-113261900D02*
X125698333Y-113228566D01*
X125698333Y-113228566D02*
X125731666Y-113161900D01*
X125731666Y-113161900D02*
X125731666Y-112995233D01*
X125731666Y-112995233D02*
X125698333Y-112928566D01*
X125698333Y-112928566D02*
X125664999Y-112895233D01*
X125664999Y-112895233D02*
X125598333Y-112861900D01*
X125598333Y-112861900D02*
X125464999Y-112861900D01*
X125464999Y-112861900D02*
X125398333Y-112895233D01*
X125398333Y-112895233D02*
X125364999Y-112928566D01*
X125364999Y-112928566D02*
X125331666Y-112995233D01*
X125998333Y-113095233D02*
X126331666Y-113095233D01*
X125931666Y-113295233D02*
X126165000Y-112595233D01*
X126165000Y-112595233D02*
X126398333Y-113295233D01*
X127039019Y-132214523D02*
X127848542Y-132214523D01*
X127848542Y-132214523D02*
X127943780Y-132166904D01*
X127943780Y-132166904D02*
X127991400Y-132119285D01*
X127991400Y-132119285D02*
X128039019Y-132024047D01*
X128039019Y-132024047D02*
X128039019Y-131833571D01*
X128039019Y-131833571D02*
X127991400Y-131738333D01*
X127991400Y-131738333D02*
X127943780Y-131690714D01*
X127943780Y-131690714D02*
X127848542Y-131643095D01*
X127848542Y-131643095D02*
X127039019Y-131643095D01*
X127991400Y-131214523D02*
X128039019Y-131071666D01*
X128039019Y-131071666D02*
X128039019Y-130833571D01*
X128039019Y-130833571D02*
X127991400Y-130738333D01*
X127991400Y-130738333D02*
X127943780Y-130690714D01*
X127943780Y-130690714D02*
X127848542Y-130643095D01*
X127848542Y-130643095D02*
X127753304Y-130643095D01*
X127753304Y-130643095D02*
X127658066Y-130690714D01*
X127658066Y-130690714D02*
X127610447Y-130738333D01*
X127610447Y-130738333D02*
X127562828Y-130833571D01*
X127562828Y-130833571D02*
X127515209Y-131024047D01*
X127515209Y-131024047D02*
X127467590Y-131119285D01*
X127467590Y-131119285D02*
X127419971Y-131166904D01*
X127419971Y-131166904D02*
X127324733Y-131214523D01*
X127324733Y-131214523D02*
X127229495Y-131214523D01*
X127229495Y-131214523D02*
X127134257Y-131166904D01*
X127134257Y-131166904D02*
X127086638Y-131119285D01*
X127086638Y-131119285D02*
X127039019Y-131024047D01*
X127039019Y-131024047D02*
X127039019Y-130785952D01*
X127039019Y-130785952D02*
X127086638Y-130643095D01*
X127515209Y-129881190D02*
X127562828Y-129738333D01*
X127562828Y-129738333D02*
X127610447Y-129690714D01*
X127610447Y-129690714D02*
X127705685Y-129643095D01*
X127705685Y-129643095D02*
X127848542Y-129643095D01*
X127848542Y-129643095D02*
X127943780Y-129690714D01*
X127943780Y-129690714D02*
X127991400Y-129738333D01*
X127991400Y-129738333D02*
X128039019Y-129833571D01*
X128039019Y-129833571D02*
X128039019Y-130214523D01*
X128039019Y-130214523D02*
X127039019Y-130214523D01*
X127039019Y-130214523D02*
X127039019Y-129881190D01*
X127039019Y-129881190D02*
X127086638Y-129785952D01*
X127086638Y-129785952D02*
X127134257Y-129738333D01*
X127134257Y-129738333D02*
X127229495Y-129690714D01*
X127229495Y-129690714D02*
X127324733Y-129690714D01*
X127324733Y-129690714D02*
X127419971Y-129738333D01*
X127419971Y-129738333D02*
X127467590Y-129785952D01*
X127467590Y-129785952D02*
X127515209Y-129881190D01*
X127515209Y-129881190D02*
X127515209Y-130214523D01*
X128039019Y-128452618D02*
X127039019Y-128452618D01*
X127515209Y-128452618D02*
X127515209Y-127881190D01*
X128039019Y-127881190D02*
X127039019Y-127881190D01*
X128039019Y-127262142D02*
X127991400Y-127357380D01*
X127991400Y-127357380D02*
X127943780Y-127404999D01*
X127943780Y-127404999D02*
X127848542Y-127452618D01*
X127848542Y-127452618D02*
X127562828Y-127452618D01*
X127562828Y-127452618D02*
X127467590Y-127404999D01*
X127467590Y-127404999D02*
X127419971Y-127357380D01*
X127419971Y-127357380D02*
X127372352Y-127262142D01*
X127372352Y-127262142D02*
X127372352Y-127119285D01*
X127372352Y-127119285D02*
X127419971Y-127024047D01*
X127419971Y-127024047D02*
X127467590Y-126976428D01*
X127467590Y-126976428D02*
X127562828Y-126928809D01*
X127562828Y-126928809D02*
X127848542Y-126928809D01*
X127848542Y-126928809D02*
X127943780Y-126976428D01*
X127943780Y-126976428D02*
X127991400Y-127024047D01*
X127991400Y-127024047D02*
X128039019Y-127119285D01*
X128039019Y-127119285D02*
X128039019Y-127262142D01*
X127991400Y-126547856D02*
X128039019Y-126452618D01*
X128039019Y-126452618D02*
X128039019Y-126262142D01*
X128039019Y-126262142D02*
X127991400Y-126166904D01*
X127991400Y-126166904D02*
X127896161Y-126119285D01*
X127896161Y-126119285D02*
X127848542Y-126119285D01*
X127848542Y-126119285D02*
X127753304Y-126166904D01*
X127753304Y-126166904D02*
X127705685Y-126262142D01*
X127705685Y-126262142D02*
X127705685Y-126404999D01*
X127705685Y-126404999D02*
X127658066Y-126500237D01*
X127658066Y-126500237D02*
X127562828Y-126547856D01*
X127562828Y-126547856D02*
X127515209Y-126547856D01*
X127515209Y-126547856D02*
X127419971Y-126500237D01*
X127419971Y-126500237D02*
X127372352Y-126404999D01*
X127372352Y-126404999D02*
X127372352Y-126262142D01*
X127372352Y-126262142D02*
X127419971Y-126166904D01*
X127372352Y-125833570D02*
X127372352Y-125452618D01*
X127039019Y-125690713D02*
X127896161Y-125690713D01*
X127896161Y-125690713D02*
X127991400Y-125643094D01*
X127991400Y-125643094D02*
X128039019Y-125547856D01*
X128039019Y-125547856D02*
X128039019Y-125452618D01*
X122011666Y-112025233D02*
X122011666Y-111325233D01*
X122011666Y-111325233D02*
X122245000Y-111825233D01*
X122245000Y-111825233D02*
X122478333Y-111325233D01*
X122478333Y-111325233D02*
X122478333Y-112025233D01*
X122811666Y-112025233D02*
X122811666Y-111325233D01*
X123144999Y-112025233D02*
X123144999Y-111325233D01*
X123144999Y-111325233D02*
X123378333Y-111825233D01*
X123378333Y-111825233D02*
X123611666Y-111325233D01*
X123611666Y-111325233D02*
X123611666Y-112025233D01*
X123878333Y-111325233D02*
X124344999Y-112025233D01*
X124344999Y-111325233D02*
X123878333Y-112025233D01*
X125011666Y-112025233D02*
X124778333Y-111691900D01*
X124611666Y-112025233D02*
X124611666Y-111325233D01*
X124611666Y-111325233D02*
X124878333Y-111325233D01*
X124878333Y-111325233D02*
X124945000Y-111358566D01*
X124945000Y-111358566D02*
X124978333Y-111391900D01*
X124978333Y-111391900D02*
X125011666Y-111458566D01*
X125011666Y-111458566D02*
X125011666Y-111558566D01*
X125011666Y-111558566D02*
X124978333Y-111625233D01*
X124978333Y-111625233D02*
X124945000Y-111658566D01*
X124945000Y-111658566D02*
X124878333Y-111691900D01*
X124878333Y-111691900D02*
X124611666Y-111691900D01*
X125211666Y-111325233D02*
X125611666Y-111325233D01*
X125411666Y-112025233D02*
X125411666Y-111325233D01*
X126211666Y-112025233D02*
X125811666Y-112025233D01*
X126011666Y-112025233D02*
X126011666Y-111325233D01*
X126011666Y-111325233D02*
X125944999Y-111425233D01*
X125944999Y-111425233D02*
X125878333Y-111491900D01*
X125878333Y-111491900D02*
X125811666Y-111525233D01*
X126645000Y-111325233D02*
X126711666Y-111325233D01*
X126711666Y-111325233D02*
X126778333Y-111358566D01*
X126778333Y-111358566D02*
X126811666Y-111391900D01*
X126811666Y-111391900D02*
X126845000Y-111458566D01*
X126845000Y-111458566D02*
X126878333Y-111591900D01*
X126878333Y-111591900D02*
X126878333Y-111758566D01*
X126878333Y-111758566D02*
X126845000Y-111891900D01*
X126845000Y-111891900D02*
X126811666Y-111958566D01*
X126811666Y-111958566D02*
X126778333Y-111991900D01*
X126778333Y-111991900D02*
X126711666Y-112025233D01*
X126711666Y-112025233D02*
X126645000Y-112025233D01*
X126645000Y-112025233D02*
X126578333Y-111991900D01*
X126578333Y-111991900D02*
X126545000Y-111958566D01*
X126545000Y-111958566D02*
X126511666Y-111891900D01*
X126511666Y-111891900D02*
X126478333Y-111758566D01*
X126478333Y-111758566D02*
X126478333Y-111591900D01*
X126478333Y-111591900D02*
X126511666Y-111458566D01*
X126511666Y-111458566D02*
X126545000Y-111391900D01*
X126545000Y-111391900D02*
X126578333Y-111358566D01*
X126578333Y-111358566D02*
X126645000Y-111325233D01*
X127478333Y-111325233D02*
X127345000Y-111325233D01*
X127345000Y-111325233D02*
X127278333Y-111358566D01*
X127278333Y-111358566D02*
X127245000Y-111391900D01*
X127245000Y-111391900D02*
X127178333Y-111491900D01*
X127178333Y-111491900D02*
X127145000Y-111625233D01*
X127145000Y-111625233D02*
X127145000Y-111891900D01*
X127145000Y-111891900D02*
X127178333Y-111958566D01*
X127178333Y-111958566D02*
X127211667Y-111991900D01*
X127211667Y-111991900D02*
X127278333Y-112025233D01*
X127278333Y-112025233D02*
X127411667Y-112025233D01*
X127411667Y-112025233D02*
X127478333Y-111991900D01*
X127478333Y-111991900D02*
X127511667Y-111958566D01*
X127511667Y-111958566D02*
X127545000Y-111891900D01*
X127545000Y-111891900D02*
X127545000Y-111725233D01*
X127545000Y-111725233D02*
X127511667Y-111658566D01*
X127511667Y-111658566D02*
X127478333Y-111625233D01*
X127478333Y-111625233D02*
X127411667Y-111591900D01*
X127411667Y-111591900D02*
X127278333Y-111591900D01*
X127278333Y-111591900D02*
X127211667Y-111625233D01*
X127211667Y-111625233D02*
X127178333Y-111658566D01*
X127178333Y-111658566D02*
X127145000Y-111725233D01*
X127811667Y-111391900D02*
X127845000Y-111358566D01*
X127845000Y-111358566D02*
X127911667Y-111325233D01*
X127911667Y-111325233D02*
X128078334Y-111325233D01*
X128078334Y-111325233D02*
X128145000Y-111358566D01*
X128145000Y-111358566D02*
X128178334Y-111391900D01*
X128178334Y-111391900D02*
X128211667Y-111458566D01*
X128211667Y-111458566D02*
X128211667Y-111525233D01*
X128211667Y-111525233D02*
X128178334Y-111625233D01*
X128178334Y-111625233D02*
X127778334Y-112025233D01*
X127778334Y-112025233D02*
X128211667Y-112025233D01*
X147828332Y-99419580D02*
X147780713Y-99467200D01*
X147780713Y-99467200D02*
X147637856Y-99514819D01*
X147637856Y-99514819D02*
X147542618Y-99514819D01*
X147542618Y-99514819D02*
X147399761Y-99467200D01*
X147399761Y-99467200D02*
X147304523Y-99371961D01*
X147304523Y-99371961D02*
X147256904Y-99276723D01*
X147256904Y-99276723D02*
X147209285Y-99086247D01*
X147209285Y-99086247D02*
X147209285Y-98943390D01*
X147209285Y-98943390D02*
X147256904Y-98752914D01*
X147256904Y-98752914D02*
X147304523Y-98657676D01*
X147304523Y-98657676D02*
X147399761Y-98562438D01*
X147399761Y-98562438D02*
X147542618Y-98514819D01*
X147542618Y-98514819D02*
X147637856Y-98514819D01*
X147637856Y-98514819D02*
X147780713Y-98562438D01*
X147780713Y-98562438D02*
X147828332Y-98610057D01*
X148256904Y-99514819D02*
X148256904Y-98514819D01*
X148685475Y-99514819D02*
X148685475Y-98991009D01*
X148685475Y-98991009D02*
X148637856Y-98895771D01*
X148637856Y-98895771D02*
X148542618Y-98848152D01*
X148542618Y-98848152D02*
X148399761Y-98848152D01*
X148399761Y-98848152D02*
X148304523Y-98895771D01*
X148304523Y-98895771D02*
X148256904Y-98943390D01*
X149590237Y-99514819D02*
X149590237Y-98991009D01*
X149590237Y-98991009D02*
X149542618Y-98895771D01*
X149542618Y-98895771D02*
X149447380Y-98848152D01*
X149447380Y-98848152D02*
X149256904Y-98848152D01*
X149256904Y-98848152D02*
X149161666Y-98895771D01*
X149590237Y-99467200D02*
X149494999Y-99514819D01*
X149494999Y-99514819D02*
X149256904Y-99514819D01*
X149256904Y-99514819D02*
X149161666Y-99467200D01*
X149161666Y-99467200D02*
X149114047Y-99371961D01*
X149114047Y-99371961D02*
X149114047Y-99276723D01*
X149114047Y-99276723D02*
X149161666Y-99181485D01*
X149161666Y-99181485D02*
X149256904Y-99133866D01*
X149256904Y-99133866D02*
X149494999Y-99133866D01*
X149494999Y-99133866D02*
X149590237Y-99086247D01*
X150066428Y-98848152D02*
X150066428Y-99514819D01*
X150066428Y-98943390D02*
X150114047Y-98895771D01*
X150114047Y-98895771D02*
X150209285Y-98848152D01*
X150209285Y-98848152D02*
X150352142Y-98848152D01*
X150352142Y-98848152D02*
X150447380Y-98895771D01*
X150447380Y-98895771D02*
X150494999Y-98991009D01*
X150494999Y-98991009D02*
X150494999Y-99514819D01*
X150971190Y-98848152D02*
X150971190Y-99514819D01*
X150971190Y-98943390D02*
X151018809Y-98895771D01*
X151018809Y-98895771D02*
X151114047Y-98848152D01*
X151114047Y-98848152D02*
X151256904Y-98848152D01*
X151256904Y-98848152D02*
X151352142Y-98895771D01*
X151352142Y-98895771D02*
X151399761Y-98991009D01*
X151399761Y-98991009D02*
X151399761Y-99514819D01*
X152256904Y-99467200D02*
X152161666Y-99514819D01*
X152161666Y-99514819D02*
X151971190Y-99514819D01*
X151971190Y-99514819D02*
X151875952Y-99467200D01*
X151875952Y-99467200D02*
X151828333Y-99371961D01*
X151828333Y-99371961D02*
X151828333Y-98991009D01*
X151828333Y-98991009D02*
X151875952Y-98895771D01*
X151875952Y-98895771D02*
X151971190Y-98848152D01*
X151971190Y-98848152D02*
X152161666Y-98848152D01*
X152161666Y-98848152D02*
X152256904Y-98895771D01*
X152256904Y-98895771D02*
X152304523Y-98991009D01*
X152304523Y-98991009D02*
X152304523Y-99086247D01*
X152304523Y-99086247D02*
X151828333Y-99181485D01*
X152875952Y-99514819D02*
X152780714Y-99467200D01*
X152780714Y-99467200D02*
X152733095Y-99371961D01*
X152733095Y-99371961D02*
X152733095Y-98514819D01*
X153161667Y-98514819D02*
X153780714Y-98514819D01*
X153780714Y-98514819D02*
X153447381Y-98895771D01*
X153447381Y-98895771D02*
X153590238Y-98895771D01*
X153590238Y-98895771D02*
X153685476Y-98943390D01*
X153685476Y-98943390D02*
X153733095Y-98991009D01*
X153733095Y-98991009D02*
X153780714Y-99086247D01*
X153780714Y-99086247D02*
X153780714Y-99324342D01*
X153780714Y-99324342D02*
X153733095Y-99419580D01*
X153733095Y-99419580D02*
X153685476Y-99467200D01*
X153685476Y-99467200D02*
X153590238Y-99514819D01*
X153590238Y-99514819D02*
X153304524Y-99514819D01*
X153304524Y-99514819D02*
X153209286Y-99467200D01*
X153209286Y-99467200D02*
X153161667Y-99419580D01*
D11*
%TO.C,J1*%
X135415000Y-159260000D02*
X136525000Y-159260000D01*
X135415000Y-160020000D02*
X135415000Y-159260000D01*
X135415000Y-160780000D02*
X135415000Y-165795000D01*
X135415000Y-160780000D02*
X135961529Y-160780000D01*
X135415000Y-165795000D02*
X136217470Y-165795000D01*
X136832530Y-165795000D02*
X137635000Y-165795000D01*
X137088471Y-160780000D02*
X137635000Y-160780000D01*
X137635000Y-160780000D02*
X137635000Y-165795000D01*
D10*
%TO.C,U1*%
X116205000Y-79959200D02*
X133985000Y-79959200D01*
X116205000Y-140919200D02*
X116205000Y-79959200D01*
X118743400Y-123689200D02*
X118743400Y-127689200D01*
X118743400Y-127689200D02*
X118993400Y-127689200D01*
X118745000Y-79959200D02*
X118745000Y-92659200D01*
X118745000Y-92659200D02*
X131445000Y-92659200D01*
X118745000Y-105359200D02*
X118745000Y-118059200D01*
X118745000Y-118059200D02*
X131445000Y-118059200D01*
X118993400Y-127689200D02*
X124993400Y-127689200D01*
X120015000Y-79959200D02*
X120015000Y-81229200D01*
X120015000Y-81229200D02*
X130175000Y-81229200D01*
X121285000Y-135839200D02*
X121285000Y-140919200D01*
X121285000Y-142189200D02*
X121285000Y-140919200D01*
X123825000Y-96469200D02*
X126365000Y-96469200D01*
X123825000Y-100279200D02*
X123825000Y-96469200D01*
X124993400Y-123689200D02*
X118743400Y-123689200D01*
X124993400Y-127689200D02*
X124993400Y-123689200D01*
X126365000Y-96469200D02*
X126365000Y-100279200D01*
X126365000Y-100279200D02*
X123825000Y-100279200D01*
X128394200Y-121920000D02*
X130934200Y-121920000D01*
X128394200Y-132080000D02*
X130934200Y-132080000D01*
X128394200Y-134620000D02*
X128394200Y-121920000D01*
X128394200Y-134620000D02*
X128394200Y-132080000D01*
X128905000Y-135839200D02*
X121285000Y-135839200D01*
X128905000Y-135839200D02*
X128905000Y-140919200D01*
X128905000Y-140919200D02*
X128905000Y-142189200D01*
X128905000Y-142189200D02*
X121285000Y-142189200D01*
X130175000Y-81229200D02*
X130175000Y-79959200D01*
X130934200Y-121920000D02*
X130934200Y-134620000D01*
X130934200Y-134620000D02*
X128394200Y-134620000D01*
X131445000Y-92659200D02*
X131445000Y-79959200D01*
X131445000Y-105359200D02*
X118745000Y-105359200D01*
X131445000Y-118059200D02*
X131445000Y-105359200D01*
X133985000Y-79959200D02*
X133985000Y-140919200D01*
X133985000Y-140919200D02*
X116205000Y-140919200D01*
X125993026Y-98374200D02*
G75*
G02*
X124196974Y-98374200I-898026J0D01*
G01*
X124196974Y-98374200D02*
G75*
G02*
X125993026Y-98374200I898026J0D01*
G01*
D12*
X124661000Y-109782200D02*
X124280000Y-110036200D01*
X124026000Y-109782200D01*
X124407000Y-109528200D01*
X124661000Y-109782200D01*
G36*
X124661000Y-109782200D02*
G01*
X124280000Y-110036200D01*
X124026000Y-109782200D01*
X124407000Y-109528200D01*
X124661000Y-109782200D01*
G37*
X124788000Y-109020200D02*
X124407000Y-109274200D01*
X124153000Y-109020200D01*
X124534000Y-108766200D01*
X124788000Y-109020200D01*
G36*
X124788000Y-109020200D02*
G01*
X124407000Y-109274200D01*
X124153000Y-109020200D01*
X124534000Y-108766200D01*
X124788000Y-109020200D01*
G37*
X125042000Y-107496200D02*
X124661000Y-107750200D01*
X124407000Y-107496200D01*
X124788000Y-107242200D01*
X125042000Y-107496200D01*
G36*
X125042000Y-107496200D02*
G01*
X124661000Y-107750200D01*
X124407000Y-107496200D01*
X124788000Y-107242200D01*
X125042000Y-107496200D01*
G37*
X125169000Y-109401200D02*
X124788000Y-109655200D01*
X124534000Y-109401200D01*
X124915000Y-109147200D01*
X125169000Y-109401200D01*
G36*
X125169000Y-109401200D02*
G01*
X124788000Y-109655200D01*
X124534000Y-109401200D01*
X124915000Y-109147200D01*
X125169000Y-109401200D01*
G37*
X125296000Y-108639200D02*
X124915000Y-108893200D01*
X124661000Y-108639200D01*
X125042000Y-108385200D01*
X125296000Y-108639200D01*
G36*
X125296000Y-108639200D02*
G01*
X124915000Y-108893200D01*
X124661000Y-108639200D01*
X125042000Y-108385200D01*
X125296000Y-108639200D01*
G37*
X125423000Y-107877200D02*
X125042000Y-108131200D01*
X124788000Y-107877200D01*
X125169000Y-107623200D01*
X125423000Y-107877200D01*
G36*
X125423000Y-107877200D02*
G01*
X125042000Y-108131200D01*
X124788000Y-107877200D01*
X125169000Y-107623200D01*
X125423000Y-107877200D01*
G37*
X125677000Y-109020200D02*
X125296000Y-109274200D01*
X125042000Y-109020200D01*
X125423000Y-108766200D01*
X125677000Y-109020200D01*
G36*
X125677000Y-109020200D02*
G01*
X125296000Y-109274200D01*
X125042000Y-109020200D01*
X125423000Y-108766200D01*
X125677000Y-109020200D01*
G37*
X125804000Y-108258200D02*
X125423000Y-108512200D01*
X125169000Y-108258200D01*
X125550000Y-108004200D01*
X125804000Y-108258200D01*
G36*
X125804000Y-108258200D02*
G01*
X125423000Y-108512200D01*
X125169000Y-108258200D01*
X125550000Y-108004200D01*
X125804000Y-108258200D01*
G37*
%TD*%
M02*
