%TF.GenerationSoftware,KiCad,Pcbnew,8.0.4*%
%TF.CreationDate,2024-11-18T10:24:52-08:00*%
%TF.ProjectId,Mother,4d6f7468-6572-42e6-9b69-6361645f7063,rev?*%
%TF.SameCoordinates,Original*%
%TF.FileFunction,Copper,L1,Top*%
%TF.FilePolarity,Positive*%
%FSLAX46Y46*%
G04 Gerber Fmt 4.6, Leading zero omitted, Abs format (unit mm)*
G04 Created by KiCad (PCBNEW 8.0.4) date 2024-11-18 10:24:52*
%MOMM*%
%LPD*%
G01*
G04 APERTURE LIST*
%TA.AperFunction,ConnectorPad*%
%ADD10R,14.300000X1.500000*%
%TD*%
%TA.AperFunction,ComponentPad*%
%ADD11R,1.000000X1.000000*%
%TD*%
%TA.AperFunction,ComponentPad*%
%ADD12O,1.000000X1.000000*%
%TD*%
%TA.AperFunction,ComponentPad*%
%ADD13R,1.600000X1.600000*%
%TD*%
%TA.AperFunction,ComponentPad*%
%ADD14C,1.600000*%
%TD*%
%TA.AperFunction,ComponentPad*%
%ADD15R,1.300000X1.300000*%
%TD*%
%TA.AperFunction,ComponentPad*%
%ADD16C,1.300000*%
%TD*%
%TA.AperFunction,ViaPad*%
%ADD17C,0.600000*%
%TD*%
%TA.AperFunction,Conductor*%
%ADD18C,0.200000*%
%TD*%
G04 APERTURE END LIST*
D10*
%TO.P,Channel7,1,Pin_1*%
%TO.N,OUT 7*%
X99695000Y-77470000D03*
%TO.P,Channel7,2,Pin_2*%
%TO.N,Vss*%
X99695000Y-80010000D03*
%TO.P,Channel7,3,Pin_3*%
%TO.N,Vdd*%
X99695000Y-82550000D03*
%TO.P,Channel7,4,Pin_4*%
%TO.N,SDI*%
X99695000Y-85090000D03*
%TO.P,Channel7,5,Pin_5*%
%TO.N,CKL*%
X99695000Y-87630000D03*
%TO.P,Channel7,6,Pin_6*%
%TO.N,CS 7*%
X99695000Y-90170000D03*
%TO.P,Channel7,7,Pin_7*%
%TO.N,GND*%
X99695000Y-92710000D03*
%TD*%
D11*
%TO.P,J1,1,Pin_1*%
%TO.N,GPIO14_TXD0*%
X136525000Y-160020000D03*
D12*
%TO.P,J1,2,Pin_2*%
%TO.N,GPIO15_RXD0*%
X136525000Y-161290000D03*
%TO.P,J1,3,Pin_3*%
%TO.N,Vss*%
X136525000Y-162560000D03*
%TO.P,J1,4,Pin_4*%
%TO.N,Vdd*%
X136525000Y-163830000D03*
%TO.P,J1,5,Pin_5*%
%TO.N,GND*%
X136525000Y-165100000D03*
%TD*%
D10*
%TO.P,Channel9,1,Pin_1*%
%TO.N,OUT 9*%
X99695000Y-125730000D03*
%TO.P,Channel9,2,Pin_2*%
%TO.N,Vss*%
X99695000Y-128270000D03*
%TO.P,Channel9,3,Pin_3*%
%TO.N,Vdd*%
X99695000Y-130810000D03*
%TO.P,Channel9,4,Pin_4*%
%TO.N,SDI*%
X99695000Y-133350000D03*
%TO.P,Channel9,5,Pin_5*%
%TO.N,CKL*%
X99695000Y-135890000D03*
%TO.P,Channel9,6,Pin_6*%
%TO.N,CS 9*%
X99695000Y-138430000D03*
%TO.P,Channel9,7,Pin_7*%
%TO.N,GND*%
X99695000Y-140970000D03*
%TD*%
%TO.P,Channel1,1,Pin_1*%
%TO.N,OUT 1*%
X150495000Y-54610000D03*
%TO.P,Channel1,2,Pin_2*%
%TO.N,Vss*%
X150495000Y-57150000D03*
%TO.P,Channel1,3,Pin_3*%
%TO.N,Vdd*%
X150495000Y-59690000D03*
%TO.P,Channel1,4,Pin_4*%
%TO.N,SDI*%
X150495000Y-62230000D03*
%TO.P,Channel1,5,Pin_5*%
%TO.N,CKL*%
X150495000Y-64770000D03*
%TO.P,Channel1,6,Pin_6*%
%TO.N,CS 1*%
X150495000Y-67310000D03*
%TO.P,Channel1,7,Pin_7*%
%TO.N,GND*%
X150495000Y-69850000D03*
%TD*%
%TO.P,Channel5,1,Pin_1*%
%TO.N,OUT 5*%
X150495000Y-149860000D03*
%TO.P,Channel5,2,Pin_2*%
%TO.N,Vss*%
X150495000Y-152400000D03*
%TO.P,Channel5,3,Pin_3*%
%TO.N,Vdd*%
X150495000Y-154940000D03*
%TO.P,Channel5,4,Pin_4*%
%TO.N,SDI*%
X150495000Y-157480000D03*
%TO.P,Channel5,5,Pin_5*%
%TO.N,CKL*%
X150495000Y-160020000D03*
%TO.P,Channel5,6,Pin_6*%
%TO.N,CS 5*%
X150495000Y-162560000D03*
%TO.P,Channel5,7,Pin_7*%
%TO.N,GND*%
X150495000Y-165100000D03*
%TD*%
%TO.P,Channel10,1,Pin_1*%
%TO.N,OUT 10*%
X99695000Y-149860000D03*
%TO.P,Channel10,2,Pin_2*%
%TO.N,Vss*%
X99695000Y-152400000D03*
%TO.P,Channel10,3,Pin_3*%
%TO.N,Vdd*%
X99695000Y-154940000D03*
%TO.P,Channel10,4,Pin_4*%
%TO.N,SDI*%
X99695000Y-157480000D03*
%TO.P,Channel10,5,Pin_5*%
%TO.N,CKL*%
X99695000Y-160020000D03*
%TO.P,Channel10,6,Pin_6*%
%TO.N,CS 10*%
X99695000Y-162560000D03*
%TO.P,Channel10,7,Pin_7*%
%TO.N,GND*%
X99695000Y-165100000D03*
%TD*%
%TO.P,Channel6,1,Pin_1*%
%TO.N,OUT 6*%
X99695000Y-54610000D03*
%TO.P,Channel6,2,Pin_2*%
%TO.N,Vss*%
X99695000Y-57150000D03*
%TO.P,Channel6,3,Pin_3*%
%TO.N,Vdd*%
X99695000Y-59690000D03*
%TO.P,Channel6,4,Pin_4*%
%TO.N,SDI*%
X99695000Y-62230000D03*
%TO.P,Channel6,5,Pin_5*%
%TO.N,CKL*%
X99695000Y-64770000D03*
%TO.P,Channel6,6,Pin_6*%
%TO.N,CS 6*%
X99695000Y-67310000D03*
%TO.P,Channel6,7,Pin_7*%
%TO.N,GND*%
X99695000Y-69850000D03*
%TD*%
%TO.P,Channel2,1,Pin_1*%
%TO.N,OUT 2*%
X150495000Y-77470000D03*
%TO.P,Channel2,2,Pin_2*%
%TO.N,Vss*%
X150495000Y-80010000D03*
%TO.P,Channel2,3,Pin_3*%
%TO.N,Vdd*%
X150495000Y-82550000D03*
%TO.P,Channel2,4,Pin_4*%
%TO.N,SDI*%
X150495000Y-85090000D03*
%TO.P,Channel2,5,Pin_5*%
%TO.N,CKL*%
X150495000Y-87630000D03*
%TO.P,Channel2,6,Pin_6*%
%TO.N,CS 2*%
X150495000Y-90170000D03*
%TO.P,Channel2,7,Pin_7*%
%TO.N,GND*%
X150495000Y-92710000D03*
%TD*%
%TO.P,Channel8,1,Pin_1*%
%TO.N,OUT 8*%
X99695000Y-101600000D03*
%TO.P,Channel8,2,Pin_2*%
%TO.N,Vss*%
X99695000Y-104140000D03*
%TO.P,Channel8,3,Pin_3*%
%TO.N,Vdd*%
X99695000Y-106680000D03*
%TO.P,Channel8,4,Pin_4*%
%TO.N,SDI*%
X99695000Y-109220000D03*
%TO.P,Channel8,5,Pin_5*%
%TO.N,CKL*%
X99695000Y-111760000D03*
%TO.P,Channel8,6,Pin_6*%
%TO.N,CS 8*%
X99695000Y-114300000D03*
%TO.P,Channel8,7,Pin_7*%
%TO.N,GND*%
X99695000Y-116840000D03*
%TD*%
%TO.P,Channel4,1,Pin_1*%
%TO.N,OUT 4*%
X150495000Y-125730000D03*
%TO.P,Channel4,2,Pin_2*%
%TO.N,Vss*%
X150495000Y-128270000D03*
%TO.P,Channel4,3,Pin_3*%
%TO.N,Vdd*%
X150495000Y-130810000D03*
%TO.P,Channel4,4,Pin_4*%
%TO.N,SDI*%
X150495000Y-133350000D03*
%TO.P,Channel4,5,Pin_5*%
%TO.N,CKL*%
X150495000Y-135890000D03*
%TO.P,Channel4,6,Pin_6*%
%TO.N,CS 4*%
X150495000Y-138430000D03*
%TO.P,Channel4,7,Pin_7*%
%TO.N,GND*%
X150495000Y-140970000D03*
%TD*%
D13*
%TO.P,U1,1,GND*%
%TO.N,GND*%
X132715000Y-139649200D03*
D14*
%TO.P,U1,2,0_RX1_CRX2_CS1*%
%TO.N,unconnected-(U1-0_RX1_CRX2_CS1-Pad2)*%
X132715000Y-137109200D03*
%TO.P,U1,3,1_TX1_CTX2_MISO1*%
%TO.N,unconnected-(U1-1_TX1_CTX2_MISO1-Pad3)*%
X132715000Y-134569200D03*
%TO.P,U1,4,2_OUT2*%
%TO.N,CS 10*%
X132715000Y-132029200D03*
%TO.P,U1,5,3_LRCLK2*%
%TO.N,CS 9*%
X132715000Y-129489200D03*
%TO.P,U1,6,4_BCLK2*%
%TO.N,CS 8*%
X132715000Y-126949200D03*
%TO.P,U1,7,5_IN2*%
%TO.N,CS 7*%
X132715000Y-124409200D03*
%TO.P,U1,8,6_OUT1D*%
%TO.N,CS 6*%
X132715000Y-121869200D03*
%TO.P,U1,9,7_RX2_OUT1A*%
%TO.N,CS 5*%
X132715000Y-119329200D03*
%TO.P,U1,10,8_TX2_IN1*%
%TO.N,CS 4*%
X132715000Y-116789200D03*
%TO.P,U1,11,9_OUT1C*%
%TO.N,SDI*%
X132715000Y-114249200D03*
%TO.P,U1,12,10_CS_MQSR*%
%TO.N,CS 3*%
X132715000Y-111709200D03*
%TO.P,U1,13,11_MOSI_CTX1*%
%TO.N,CS 2*%
X132715000Y-109169200D03*
%TO.P,U1,14,12_MISO_MQSL*%
%TO.N,CS 1*%
X132715000Y-106629200D03*
%TO.P,U1,15,3V3*%
%TO.N,unconnected-(U1-3V3-Pad15)*%
X132715000Y-104089200D03*
%TO.P,U1,16,24_A10_TX6_SCL2*%
%TO.N,unconnected-(U1-24_A10_TX6_SCL2-Pad16)*%
X132715000Y-101549200D03*
%TO.P,U1,17,25_A11_RX6_SDA2*%
%TO.N,unconnected-(U1-25_A11_RX6_SDA2-Pad17)*%
X132715000Y-99009200D03*
%TO.P,U1,18,26_A12_MOSI1*%
%TO.N,unconnected-(U1-26_A12_MOSI1-Pad18)*%
X132715000Y-96469200D03*
%TO.P,U1,19,27_A13_SCK1*%
%TO.N,unconnected-(U1-27_A13_SCK1-Pad19)*%
X132715000Y-93929200D03*
%TO.P,U1,20,28_RX7*%
%TO.N,unconnected-(U1-28_RX7-Pad20)*%
X132715000Y-91389200D03*
%TO.P,U1,21,29_TX7*%
%TO.N,unconnected-(U1-29_TX7-Pad21)*%
X132715000Y-88849200D03*
%TO.P,U1,22,30_CRX3*%
%TO.N,unconnected-(U1-30_CRX3-Pad22)*%
X132715000Y-86309200D03*
%TO.P,U1,23,31_CTX3*%
%TO.N,unconnected-(U1-31_CTX3-Pad23)*%
X132715000Y-83769200D03*
%TO.P,U1,24,32_OUT1B*%
%TO.N,unconnected-(U1-32_OUT1B-Pad24)*%
X132715000Y-81229200D03*
%TO.P,U1,25,33_MCLK2*%
%TO.N,unconnected-(U1-33_MCLK2-Pad25)*%
X117475000Y-81229200D03*
%TO.P,U1,26,34_RX8*%
%TO.N,GPIO14_TXD0*%
X117475000Y-83769200D03*
%TO.P,U1,27,35_TX8*%
%TO.N,GPIO15_RXD0*%
X117475000Y-86309200D03*
%TO.P,U1,28,36_CS*%
%TO.N,unconnected-(U1-36_CS-Pad28)*%
X117475000Y-88849200D03*
%TO.P,U1,29,37_CS*%
%TO.N,unconnected-(U1-37_CS-Pad29)*%
X117475000Y-91389200D03*
%TO.P,U1,30,38_CS1_IN1*%
%TO.N,unconnected-(U1-38_CS1_IN1-Pad30)*%
X117475000Y-93929200D03*
%TO.P,U1,31,39_MISO1_OUT1A*%
%TO.N,unconnected-(U1-39_MISO1_OUT1A-Pad31)*%
X117475000Y-96469200D03*
%TO.P,U1,32,40_A16*%
%TO.N,unconnected-(U1-40_A16-Pad32)*%
X117475000Y-99009200D03*
%TO.P,U1,33,41_A17*%
%TO.N,unconnected-(U1-41_A17-Pad33)*%
X117475000Y-101549200D03*
%TO.P,U1,34,GND*%
%TO.N,unconnected-(U1-GND-Pad34)*%
X117475000Y-104089200D03*
%TO.P,U1,35,13_SCK_LED*%
%TO.N,CKL*%
X117475000Y-106629200D03*
%TO.P,U1,36,14_A0_TX3_SPDIF_OUT*%
%TO.N,OUT 1*%
X117475000Y-109169200D03*
%TO.P,U1,37,15_A1_RX3_SPDIF_IN*%
%TO.N,OUT 2*%
X117475000Y-111709200D03*
%TO.P,U1,38,16_A2_RX4_SCL1*%
%TO.N,OUT 3*%
X117475000Y-114249200D03*
%TO.P,U1,39,17_A3_TX4_SDA1*%
%TO.N,OUT 4*%
X117475000Y-116789200D03*
%TO.P,U1,40,18_A4_SDA*%
%TO.N,OUT 5*%
X117475000Y-119329200D03*
%TO.P,U1,41,19_A5_SCL*%
%TO.N,OUT 6*%
X117475000Y-121869200D03*
%TO.P,U1,42,20_A6_TX5_LRCLK1*%
%TO.N,OUT 7*%
X117475000Y-124409200D03*
%TO.P,U1,43,21_A7_RX5_BCLK1*%
%TO.N,OUT 8*%
X117475000Y-126949200D03*
%TO.P,U1,44,22_A8_CTX1*%
%TO.N,OUT 9*%
X117475000Y-129489200D03*
%TO.P,U1,45,23_A9_CRX1_MCLK1*%
%TO.N,OUT 10*%
X117475000Y-132029200D03*
%TO.P,U1,46,3V3*%
%TO.N,unconnected-(U1-3V3-Pad46)*%
X117475000Y-134569200D03*
%TO.P,U1,47,GND*%
%TO.N,unconnected-(U1-GND-Pad47)*%
X117475000Y-137109200D03*
%TO.P,U1,48,VIN*%
%TO.N,unconnected-(U1-VIN-Pad48)*%
X117475000Y-139649200D03*
%TO.P,U1,49*%
%TO.N,N/C*%
X120015000Y-137109200D03*
%TO.P,U1,50*%
X130175000Y-93929200D03*
%TO.P,U1,51*%
X127635000Y-93929200D03*
%TO.P,U1,52*%
X125095000Y-93929200D03*
%TO.P,U1,53*%
X122555000Y-93929200D03*
%TO.P,U1,54*%
X120015000Y-93929200D03*
D13*
%TO.P,U1,55*%
X129664200Y-133350000D03*
D14*
%TO.P,U1,56*%
X129664200Y-130810000D03*
%TO.P,U1,57*%
X129664200Y-128270000D03*
%TO.P,U1,58*%
X129664200Y-125730000D03*
%TO.P,U1,59*%
X129664200Y-123190000D03*
D15*
%TO.P,U1,60*%
X119913400Y-126679200D03*
D16*
%TO.P,U1,61*%
X121913400Y-126679200D03*
%TO.P,U1,62*%
X123913400Y-126679200D03*
%TO.P,U1,63*%
X123913400Y-124679200D03*
%TO.P,U1,64*%
X121913400Y-124679200D03*
%TO.P,U1,65*%
X119913400Y-124679200D03*
%TO.P,U1,66*%
X123825000Y-138919200D03*
%TO.P,U1,67*%
X126365000Y-138919200D03*
%TD*%
D10*
%TO.P,Channel3,1,Pin_1*%
%TO.N,OUT 3*%
X150495000Y-101600000D03*
%TO.P,Channel3,2,Pin_2*%
%TO.N,Vss*%
X150495000Y-104140000D03*
%TO.P,Channel3,3,Pin_3*%
%TO.N,Vdd*%
X150495000Y-106680000D03*
%TO.P,Channel3,4,Pin_4*%
%TO.N,SDI*%
X150495000Y-109220000D03*
%TO.P,Channel3,5,Pin_5*%
%TO.N,CKL*%
X150495000Y-111760000D03*
%TO.P,Channel3,6,Pin_6*%
%TO.N,CS 3*%
X150495000Y-114300000D03*
%TO.P,Channel3,7,Pin_7*%
%TO.N,GND*%
X150495000Y-116840000D03*
%TD*%
D17*
%TO.N,Vdd*%
X111125000Y-149860000D03*
X141605000Y-130810000D03*
X139065000Y-101600000D03*
X112395000Y-64770000D03*
X141605000Y-156210000D03*
X139065000Y-161290000D03*
X109855000Y-85090000D03*
X108585000Y-107950000D03*
X109855000Y-128270000D03*
X139065000Y-107950000D03*
X139065000Y-64720000D03*
%TO.N,CKL*%
X139065000Y-95250000D03*
X139065000Y-143510000D03*
X135255000Y-110490000D03*
X112395000Y-153670000D03*
X141605000Y-135890000D03*
X141605000Y-110490000D03*
X109855000Y-82550000D03*
X136525000Y-72390000D03*
X113795000Y-106680000D03*
X112395000Y-129540000D03*
X108585000Y-112181471D03*
X109855000Y-91440000D03*
X109855000Y-68580000D03*
%TO.N,GND*%
X115570000Y-132080000D03*
X110490000Y-162560000D03*
X152400000Y-144780000D03*
X99060000Y-121920000D03*
X125730000Y-135890000D03*
X99060000Y-97790000D03*
X100330000Y-144780000D03*
X134620000Y-139700000D03*
X152400000Y-120650000D03*
X99060000Y-73660000D03*
X151130000Y-73660000D03*
X140970000Y-165100000D03*
X151130000Y-96520000D03*
%TO.N,SDI*%
X140335000Y-140970000D03*
X136525000Y-109220000D03*
X113665000Y-128270000D03*
X136525000Y-113030000D03*
X141605000Y-133350000D03*
X142215000Y-86970000D03*
X140310000Y-66015000D03*
X111125000Y-63500000D03*
X109855000Y-88900000D03*
X137795000Y-118110000D03*
X113665000Y-149860000D03*
X109855000Y-111760000D03*
X141605000Y-105410000D03*
%TO.N,Vss*%
X139065000Y-130810000D03*
X109855000Y-127000000D03*
X108585000Y-105410000D03*
X139040000Y-85065000D03*
X138206765Y-105821765D03*
X136525000Y-132080000D03*
X136525000Y-135890000D03*
X142115735Y-154850735D03*
X136525000Y-66040000D03*
X107950000Y-57785000D03*
X110276471Y-149860000D03*
X108585000Y-81280000D03*
X137795000Y-102870000D03*
%TO.N,GPIO15_RXD0*%
X114935000Y-87630000D03*
X135255000Y-125730000D03*
%TD*%
D18*
%TO.N,Vdd*%
X149225000Y-107950000D02*
X150495000Y-106680000D01*
X139065000Y-161290000D02*
X136525000Y-163830000D01*
X142875000Y-154940000D02*
X150495000Y-154940000D01*
X144095000Y-82550000D02*
X150495000Y-82550000D01*
X137795000Y-88850000D02*
X144095000Y-82550000D01*
X144095000Y-59690000D02*
X150495000Y-59690000D01*
X106045000Y-154940000D02*
X111125000Y-149860000D01*
X99695000Y-130810000D02*
X107315000Y-130810000D01*
X112395000Y-64770000D02*
X112395000Y-62230000D01*
X139065000Y-101600000D02*
X137795000Y-100330000D01*
X109855000Y-59690000D02*
X99695000Y-59690000D01*
X107315000Y-130810000D02*
X109855000Y-128270000D01*
X139065000Y-64720000D02*
X144095000Y-59690000D01*
X107315000Y-106680000D02*
X99695000Y-106680000D01*
X137795000Y-100330000D02*
X137795000Y-88850000D01*
X99695000Y-82550000D02*
X107315000Y-82550000D01*
X139065000Y-107950000D02*
X149225000Y-107950000D01*
X108585000Y-107950000D02*
X107315000Y-106680000D01*
X141605000Y-130810000D02*
X150495000Y-130810000D01*
X107315000Y-82550000D02*
X109855000Y-85090000D01*
X112395000Y-62230000D02*
X109855000Y-59690000D01*
X141605000Y-156210000D02*
X142875000Y-154940000D01*
X99695000Y-154940000D02*
X106045000Y-154940000D01*
%TO.N,OUT 1*%
X134585000Y-64560000D02*
X134585000Y-80914835D01*
X150495000Y-54610000D02*
X144535000Y-54610000D01*
X144535000Y-54610000D02*
X134585000Y-64560000D01*
X134585000Y-80914835D02*
X132830635Y-82669200D01*
X132830635Y-82669200D02*
X131325800Y-82669200D01*
X121115000Y-105529200D02*
X117475000Y-109169200D01*
X131325800Y-82669200D02*
X121115000Y-92880000D01*
X121115000Y-92880000D02*
X121115000Y-105529200D01*
%TO.N,CS 1*%
X135655000Y-75750000D02*
X135655000Y-103689200D01*
X150495000Y-67310000D02*
X144095000Y-67310000D01*
X144095000Y-67310000D02*
X135655000Y-75750000D01*
X135655000Y-103689200D02*
X132715000Y-106629200D01*
%TO.N,CKL*%
X106095000Y-160020000D02*
X112395000Y-153720000D01*
X106095000Y-135890000D02*
X99695000Y-135890000D01*
X144095000Y-87630000D02*
X150495000Y-87630000D01*
X141605000Y-135890000D02*
X150495000Y-135890000D01*
X142645000Y-94210000D02*
X142645000Y-89080000D01*
X112395000Y-129540000D02*
X112395000Y-129590000D01*
X142645000Y-89080000D02*
X144095000Y-87630000D01*
X99695000Y-160020000D02*
X106095000Y-160020000D01*
X136525000Y-72390000D02*
X139015000Y-69900000D01*
X117424200Y-106680000D02*
X117475000Y-106629200D01*
X141605000Y-160020000D02*
X150495000Y-160020000D01*
X108585000Y-112181471D02*
X108163529Y-111760000D01*
X113795000Y-106680000D02*
X117424200Y-106680000D01*
X139065000Y-143510000D02*
X139065000Y-157480000D01*
X139065000Y-95250000D02*
X141605000Y-95250000D01*
X139065000Y-157480000D02*
X141605000Y-160020000D01*
X99695000Y-64770000D02*
X106045000Y-64770000D01*
X108163529Y-111760000D02*
X99695000Y-111760000D01*
X139015000Y-69850000D02*
X144095000Y-64770000D01*
X150495000Y-111760000D02*
X149225000Y-110490000D01*
X109855000Y-91440000D02*
X111125000Y-90170000D01*
X112395000Y-129590000D02*
X106095000Y-135890000D01*
X106045000Y-87630000D02*
X99695000Y-87630000D01*
X139015000Y-69900000D02*
X139015000Y-69850000D01*
X106045000Y-64770000D02*
X109855000Y-68580000D01*
X111125000Y-83820000D02*
X109855000Y-82550000D01*
X149225000Y-110490000D02*
X135255000Y-110490000D01*
X141605000Y-95250000D02*
X142645000Y-94210000D01*
X112395000Y-153720000D02*
X112395000Y-153670000D01*
X111125000Y-90170000D02*
X111125000Y-83820000D01*
X109855000Y-91440000D02*
X106045000Y-87630000D01*
X144095000Y-64770000D02*
X150495000Y-64770000D01*
%TO.N,GND*%
X150495000Y-92710000D02*
X150495000Y-95885000D01*
X150495000Y-142875000D02*
X152400000Y-144780000D01*
X99695000Y-165100000D02*
X107950000Y-165100000D01*
X150495000Y-73025000D02*
X151130000Y-73660000D01*
X100330000Y-144780000D02*
X100330000Y-143510000D01*
X134569200Y-139649200D02*
X134620000Y-139700000D01*
X100330000Y-143510000D02*
X99695000Y-142875000D01*
X99060000Y-97790000D02*
X99695000Y-97155000D01*
X150495000Y-69850000D02*
X150495000Y-73025000D01*
X150495000Y-116840000D02*
X150495000Y-118745000D01*
X99695000Y-121285000D02*
X99695000Y-116840000D01*
X99695000Y-69850000D02*
X99695000Y-73025000D01*
X129489200Y-139649200D02*
X132715000Y-139649200D01*
X125730000Y-135890000D02*
X129489200Y-139649200D01*
X99695000Y-73025000D02*
X99060000Y-73660000D01*
X150495000Y-165100000D02*
X140970000Y-165100000D01*
X150495000Y-118745000D02*
X152400000Y-120650000D01*
X99695000Y-142875000D02*
X99695000Y-140970000D01*
X150495000Y-95885000D02*
X151130000Y-96520000D01*
X132715000Y-139649200D02*
X134569200Y-139649200D01*
X150495000Y-140970000D02*
X150495000Y-142875000D01*
X99695000Y-140970000D02*
X106095000Y-140970000D01*
X99060000Y-121920000D02*
X99695000Y-121285000D01*
X106095000Y-140970000D02*
X114985000Y-132080000D01*
X114985000Y-132080000D02*
X115570000Y-132080000D01*
X99695000Y-97155000D02*
X99695000Y-92710000D01*
X107950000Y-165100000D02*
X110490000Y-162560000D01*
%TO.N,SDI*%
X144095000Y-85090000D02*
X150495000Y-85090000D01*
X142215000Y-86970000D02*
X144095000Y-85090000D01*
X107315000Y-62230000D02*
X99695000Y-62230000D01*
X150495000Y-157480000D02*
X141592500Y-157480000D01*
X140335000Y-156222500D02*
X140335000Y-140970000D01*
X141605000Y-133350000D02*
X139065000Y-133350000D01*
X136525000Y-113030000D02*
X135305800Y-114249200D01*
X135305800Y-114249200D02*
X132715000Y-114249200D01*
X140310000Y-66015000D02*
X144095000Y-62230000D01*
X137795000Y-106680000D02*
X136525000Y-107950000D01*
X106045000Y-133350000D02*
X99695000Y-133350000D01*
X141605000Y-105410000D02*
X140335000Y-106680000D01*
X106045000Y-85090000D02*
X109855000Y-88900000D01*
X141605000Y-133350000D02*
X150495000Y-133350000D01*
X109855000Y-111760000D02*
X107315000Y-109220000D01*
X111125000Y-63500000D02*
X108585000Y-63500000D01*
X108585000Y-63500000D02*
X107315000Y-62230000D01*
X111125000Y-128270000D02*
X106045000Y-133350000D01*
X107315000Y-109220000D02*
X99695000Y-109220000D01*
X136525000Y-107950000D02*
X136525000Y-109220000D01*
X113665000Y-128270000D02*
X111125000Y-128270000D01*
X99695000Y-85090000D02*
X106045000Y-85090000D01*
X140335000Y-106680000D02*
X137795000Y-106680000D01*
X139065000Y-133350000D02*
X138325000Y-132610000D01*
X99695000Y-157480000D02*
X106045000Y-157480000D01*
X144095000Y-62230000D02*
X150495000Y-62230000D01*
X141592500Y-157480000D02*
X140335000Y-156222500D01*
X138325000Y-132610000D02*
X138325000Y-118640000D01*
X106045000Y-157480000D02*
X113665000Y-149860000D01*
X150495000Y-109220000D02*
X136525000Y-109220000D01*
X138325000Y-118640000D02*
X137795000Y-118110000D01*
%TO.N,Vss*%
X107315000Y-57150000D02*
X99695000Y-57150000D01*
X136525000Y-87580000D02*
X139040000Y-85065000D01*
X108585000Y-149860000D02*
X106045000Y-152400000D01*
X139888530Y-104140000D02*
X150495000Y-104140000D01*
X99695000Y-104140000D02*
X107315000Y-104140000D01*
X107315000Y-80010000D02*
X99695000Y-80010000D01*
X106045000Y-152400000D02*
X99695000Y-152400000D01*
X136525000Y-156210000D02*
X137325000Y-157010000D01*
X144095000Y-80010000D02*
X150495000Y-80010000D01*
X141605000Y-128270000D02*
X150495000Y-128270000D01*
X139040000Y-85065000D02*
X144095000Y-80010000D01*
X138206765Y-105821765D02*
X139888530Y-104140000D01*
X108585000Y-128270000D02*
X109855000Y-127000000D01*
X150495000Y-57150000D02*
X144095000Y-57150000D01*
X137325000Y-157010000D02*
X137325000Y-161760000D01*
X136525000Y-64720000D02*
X136525000Y-66040000D01*
X108585000Y-81280000D02*
X107315000Y-80010000D01*
X139065000Y-130810000D02*
X141605000Y-128270000D01*
X144095000Y-57150000D02*
X136525000Y-64720000D01*
X136525000Y-132080000D02*
X136525000Y-135890000D01*
X142115735Y-154850735D02*
X142115735Y-154429265D01*
X107950000Y-57785000D02*
X107315000Y-57150000D01*
X136525000Y-101600000D02*
X136525000Y-87580000D01*
X142115735Y-154429265D02*
X144145000Y-152400000D01*
X110276471Y-149860000D02*
X108585000Y-149860000D01*
X107315000Y-104140000D02*
X108585000Y-105410000D01*
X144145000Y-152400000D02*
X150495000Y-152400000D01*
X99695000Y-128270000D02*
X108585000Y-128270000D01*
X136525000Y-135890000D02*
X136525000Y-156210000D01*
X137325000Y-161760000D02*
X136525000Y-162560000D01*
X137795000Y-102870000D02*
X136525000Y-101600000D01*
%TO.N,OUT 2*%
X133985000Y-98383565D02*
X133170635Y-97569200D01*
X133170635Y-105529200D02*
X133985000Y-104714835D01*
X132259365Y-105529200D02*
X133170635Y-105529200D01*
X141605000Y-77470000D02*
X136055000Y-83020000D01*
X133985000Y-104714835D02*
X133985000Y-98383565D01*
X133170635Y-97569200D02*
X131615000Y-97569200D01*
X136055000Y-83020000D02*
X136055000Y-104844835D01*
X150495000Y-77470000D02*
X141605000Y-77470000D01*
X131615000Y-106173565D02*
X132259365Y-105529200D01*
X132259365Y-107729200D02*
X131615000Y-107084835D01*
X131615000Y-107084835D02*
X131615000Y-106173565D01*
X136055000Y-104844835D02*
X133170635Y-107729200D01*
X131615000Y-97569200D02*
X117475000Y-111709200D01*
X133170635Y-107729200D02*
X132259365Y-107729200D01*
%TO.N,CS 2*%
X143045000Y-98839200D02*
X132715000Y-109169200D01*
X143045000Y-91660000D02*
X143045000Y-98839200D01*
X144535000Y-90170000D02*
X143045000Y-91660000D01*
X150495000Y-90170000D02*
X144535000Y-90170000D01*
%TO.N,CS 3*%
X141605000Y-114300000D02*
X139014200Y-111709200D01*
X150495000Y-114300000D02*
X141605000Y-114300000D01*
X139014200Y-111709200D02*
X132715000Y-111709200D01*
%TO.N,OUT 3*%
X132949835Y-110490000D02*
X121234200Y-110490000D01*
X133815000Y-108634886D02*
X133815000Y-109624835D01*
X140849886Y-101600000D02*
X133815000Y-108634886D01*
X133815000Y-109624835D02*
X132949835Y-110490000D01*
X150495000Y-101600000D02*
X140849886Y-101600000D01*
X121234200Y-110490000D02*
X117475000Y-114249200D01*
%TO.N,CS 5*%
X136525000Y-123139200D02*
X132715000Y-119329200D01*
X137125000Y-136138529D02*
X137125000Y-131831471D01*
X137725000Y-158680000D02*
X137725000Y-156844314D01*
X141605000Y-162560000D02*
X137725000Y-158680000D01*
X136925000Y-156044314D02*
X136925000Y-136338529D01*
X137725000Y-156844314D02*
X136925000Y-156044314D01*
X150495000Y-162560000D02*
X141605000Y-162560000D01*
X137125000Y-131831471D02*
X136525000Y-131231471D01*
X136925000Y-136338529D02*
X137125000Y-136138529D01*
X136525000Y-131231471D02*
X136525000Y-123139200D01*
%TO.N,OUT 5*%
X137525000Y-122354314D02*
X133399886Y-118229200D01*
X118575000Y-118229200D02*
X117475000Y-119329200D01*
X137525000Y-136304215D02*
X137525000Y-122354314D01*
X137325000Y-136504215D02*
X137525000Y-136304215D01*
X150495000Y-149860000D02*
X137325000Y-136690000D01*
X133399886Y-118229200D02*
X118575000Y-118229200D01*
X137325000Y-136690000D02*
X137325000Y-136504215D01*
%TO.N,OUT 6*%
X107340000Y-54610000D02*
X99695000Y-54610000D01*
X112795000Y-117189200D02*
X112795000Y-87883514D01*
X117475000Y-121869200D02*
X112795000Y-117189200D01*
X113665000Y-60935000D02*
X107340000Y-54610000D01*
X112795000Y-87883514D02*
X113665000Y-87013514D01*
X113665000Y-87013514D02*
X113665000Y-60935000D01*
%TO.N,CS 6*%
X99695000Y-67310000D02*
X106095000Y-67310000D01*
X117930635Y-123309200D02*
X119319835Y-121920000D01*
X119319835Y-121920000D02*
X132664200Y-121920000D01*
X132664200Y-121920000D02*
X132715000Y-121869200D01*
X112395000Y-118684835D02*
X117019365Y-123309200D01*
X106095000Y-67310000D02*
X112395000Y-73610000D01*
X112395000Y-73610000D02*
X112395000Y-118684835D01*
X117019365Y-123309200D02*
X117930635Y-123309200D01*
%TO.N,OUT 7*%
X106095000Y-77470000D02*
X111525000Y-82900000D01*
X99695000Y-77470000D02*
X106095000Y-77470000D01*
X111525000Y-82900000D02*
X111525000Y-118459200D01*
X111525000Y-118459200D02*
X117475000Y-124409200D01*
%TO.N,CS 7*%
X117240165Y-125730000D02*
X111125000Y-119614835D01*
X122306903Y-125729200D02*
X117475800Y-125729200D01*
X123519897Y-125729200D02*
X123519097Y-125730000D01*
X111125000Y-119614835D02*
X111125000Y-101600000D01*
X108585000Y-92660000D02*
X106095000Y-90170000D01*
X117475000Y-125730000D02*
X117240165Y-125730000D01*
X124306903Y-125729200D02*
X123519897Y-125729200D01*
X130124200Y-127000000D02*
X127635000Y-127000000D01*
X132715000Y-124409200D02*
X130124200Y-127000000D01*
X111125000Y-101600000D02*
X108585000Y-99060000D01*
X117475800Y-125729200D02*
X117475000Y-125730000D01*
X126365000Y-125730000D02*
X124307703Y-125730000D01*
X106095000Y-90170000D02*
X99695000Y-90170000D01*
X124307703Y-125730000D02*
X124306903Y-125729200D01*
X108585000Y-99060000D02*
X108585000Y-92660000D01*
X122307703Y-125730000D02*
X122306903Y-125729200D01*
X127635000Y-127000000D02*
X126365000Y-125730000D01*
X123519097Y-125730000D02*
X122307703Y-125730000D01*
%TO.N,OUT 8*%
X99695000Y-101600000D02*
X108585000Y-101600000D01*
X108585000Y-101600000D02*
X110725000Y-103740000D01*
X110725000Y-103740000D02*
X110725000Y-120199200D01*
X110725000Y-120199200D02*
X117475000Y-126949200D01*
%TO.N,CS 8*%
X130124200Y-129540000D02*
X132715000Y-126949200D01*
X106095000Y-114300000D02*
X107145000Y-115350000D01*
X99695000Y-114300000D02*
X106095000Y-114300000D01*
X117811435Y-128270000D02*
X119081435Y-129540000D01*
X107145000Y-115350000D02*
X107145000Y-118174835D01*
X107145000Y-118174835D02*
X117240165Y-128270000D01*
X119081435Y-129540000D02*
X130124200Y-129540000D01*
X117240165Y-128270000D02*
X117811435Y-128270000D01*
%TO.N,OUT 9*%
X99695000Y-125730000D02*
X113715800Y-125730000D01*
X113715800Y-125730000D02*
X117475000Y-129489200D01*
%TO.N,CS 9*%
X106095000Y-138430000D02*
X113715000Y-130810000D01*
X129378565Y-132080000D02*
X130124200Y-132080000D01*
X128108565Y-130810000D02*
X129378565Y-132080000D01*
X113715000Y-130810000D02*
X128108565Y-130810000D01*
X99695000Y-138430000D02*
X106095000Y-138430000D01*
X130124200Y-132080000D02*
X132715000Y-129489200D01*
%TO.N,OUT 10*%
X99695000Y-149860000D02*
X99695000Y-149809200D01*
X99695000Y-149809200D02*
X117475000Y-132029200D01*
%TO.N,CS 10*%
X115605000Y-139963565D02*
X117019365Y-138549200D01*
X117019365Y-138549200D02*
X121404200Y-138549200D01*
X125333400Y-134620000D02*
X130594200Y-134620000D01*
X115605000Y-153050000D02*
X115605000Y-139963565D01*
X106095000Y-162560000D02*
X115605000Y-153050000D01*
X130594200Y-134620000D02*
X132715000Y-132499200D01*
X132715000Y-132499200D02*
X132715000Y-132029200D01*
X121404200Y-138549200D02*
X125333400Y-134620000D01*
X99695000Y-162560000D02*
X106095000Y-162560000D01*
%TO.N,GPIO15_RXD0*%
X117475000Y-86309200D02*
X116255800Y-86309200D01*
X135455000Y-125930000D02*
X135455000Y-160550000D01*
X136195000Y-161290000D02*
X136525000Y-161290000D01*
X135455000Y-160550000D02*
X136195000Y-161290000D01*
X135255000Y-125730000D02*
X135455000Y-125930000D01*
X116255800Y-86309200D02*
X114935000Y-87630000D01*
%TO.N,GPIO14_TXD0*%
X135855000Y-123034886D02*
X133249314Y-120429200D01*
X136525000Y-160020000D02*
X135855000Y-159350000D01*
X117019365Y-120429200D02*
X113195000Y-116604835D01*
X133249314Y-120429200D02*
X117019365Y-120429200D01*
X113195000Y-116604835D02*
X113195000Y-88049200D01*
X135855000Y-159350000D02*
X135855000Y-123034886D01*
X113195000Y-88049200D02*
X117475000Y-83769200D01*
%TO.N,CS 4*%
X141605000Y-138430000D02*
X137925000Y-134750000D01*
X137925000Y-134750000D02*
X137925000Y-121999200D01*
X137925000Y-121999200D02*
X132715000Y-116789200D01*
X150495000Y-138430000D02*
X141605000Y-138430000D01*
%TO.N,OUT 4*%
X118575000Y-115689200D02*
X117475000Y-116789200D01*
X150495000Y-125730000D02*
X140454200Y-115689200D01*
X140454200Y-115689200D02*
X118575000Y-115689200D01*
%TD*%
%TA.AperFunction,Conductor*%
%TO.N,GND*%
G36*
X115623834Y-153982914D02*
G01*
X115679767Y-154024786D01*
X115704184Y-154090250D01*
X115704500Y-154099096D01*
X115704500Y-167015500D01*
X115684815Y-167082539D01*
X115632011Y-167128294D01*
X115580500Y-167139500D01*
X92699500Y-167139500D01*
X92632461Y-167119815D01*
X92586706Y-167067011D01*
X92575500Y-167015500D01*
X92575500Y-166474000D01*
X92595185Y-166406961D01*
X92647989Y-166361206D01*
X92699500Y-166350000D01*
X99445000Y-166350000D01*
X99945000Y-166350000D01*
X106892828Y-166350000D01*
X106892844Y-166349999D01*
X106952372Y-166343598D01*
X106952379Y-166343596D01*
X107087086Y-166293354D01*
X107087093Y-166293350D01*
X107202187Y-166207190D01*
X107202190Y-166207187D01*
X107288350Y-166092093D01*
X107288354Y-166092086D01*
X107338596Y-165957379D01*
X107338598Y-165957372D01*
X107344999Y-165897844D01*
X107345000Y-165897827D01*
X107345000Y-165350000D01*
X99945000Y-165350000D01*
X99945000Y-166350000D01*
X99445000Y-166350000D01*
X99445000Y-164974000D01*
X99464685Y-164906961D01*
X99517489Y-164861206D01*
X99569000Y-164850000D01*
X107345000Y-164850000D01*
X107345000Y-164302172D01*
X107344999Y-164302155D01*
X107338598Y-164242627D01*
X107338596Y-164242620D01*
X107288354Y-164107913D01*
X107288350Y-164107906D01*
X107202190Y-163992813D01*
X107117721Y-163929579D01*
X107075850Y-163873645D01*
X107070866Y-163803953D01*
X107104351Y-163742630D01*
X107117712Y-163731052D01*
X107202546Y-163667546D01*
X107288796Y-163552331D01*
X107339091Y-163417483D01*
X107345500Y-163357873D01*
X107345499Y-162210095D01*
X107365184Y-162143057D01*
X107381813Y-162122420D01*
X115492821Y-154011413D01*
X115554142Y-153977930D01*
X115623834Y-153982914D01*
G37*
%TD.AperFunction*%
%TA.AperFunction,Conductor*%
G36*
X134127609Y-122169292D02*
G01*
X134166479Y-122195600D01*
X135218181Y-123247302D01*
X135251666Y-123308625D01*
X135254500Y-123334983D01*
X135254500Y-124813677D01*
X135234815Y-124880716D01*
X135182011Y-124926471D01*
X135144384Y-124936897D01*
X135075750Y-124944630D01*
X134905478Y-125004210D01*
X134752737Y-125100184D01*
X134625184Y-125227737D01*
X134529211Y-125380476D01*
X134469631Y-125550745D01*
X134469630Y-125550750D01*
X134449435Y-125729996D01*
X134449435Y-125730003D01*
X134469630Y-125909249D01*
X134469631Y-125909254D01*
X134529211Y-126079523D01*
X134590139Y-126176488D01*
X134625184Y-126232262D01*
X134752738Y-126359816D01*
X134796471Y-126387295D01*
X134842763Y-126439629D01*
X134854500Y-126492289D01*
X134854500Y-160463330D01*
X134854499Y-160463348D01*
X134854499Y-160629054D01*
X134854498Y-160629054D01*
X134895424Y-160781789D01*
X134895425Y-160781790D01*
X134913892Y-160813775D01*
X134913893Y-160813776D01*
X134974477Y-160918712D01*
X134974481Y-160918717D01*
X135093349Y-161037585D01*
X135093355Y-161037590D01*
X135515740Y-161459975D01*
X135546719Y-161511660D01*
X135596186Y-161674728D01*
X135689086Y-161848532D01*
X135692473Y-161853601D01*
X135690836Y-161854694D01*
X135714596Y-161910663D01*
X135702795Y-161979529D01*
X135692109Y-161996156D01*
X135692473Y-161996399D01*
X135689086Y-162001467D01*
X135596188Y-162175266D01*
X135538975Y-162363870D01*
X135519659Y-162560000D01*
X135538975Y-162756129D01*
X135596188Y-162944733D01*
X135689086Y-163118532D01*
X135692473Y-163123601D01*
X135690836Y-163124694D01*
X135714596Y-163180663D01*
X135702795Y-163249529D01*
X135692109Y-163266156D01*
X135692473Y-163266399D01*
X135689086Y-163271467D01*
X135596188Y-163445266D01*
X135538975Y-163633870D01*
X135519659Y-163830000D01*
X135538975Y-164026129D01*
X135596188Y-164214733D01*
X135689086Y-164388532D01*
X135692473Y-164393601D01*
X135690955Y-164394615D01*
X135714918Y-164451042D01*
X135703124Y-164519909D01*
X135692515Y-164536420D01*
X135692893Y-164536673D01*
X135689505Y-164541742D01*
X135596652Y-164715458D01*
X135555839Y-164849999D01*
X135555840Y-164850000D01*
X136315382Y-164850000D01*
X136264936Y-164900446D01*
X136222149Y-164974555D01*
X136200000Y-165057213D01*
X136200000Y-165142787D01*
X136222149Y-165225445D01*
X136264936Y-165299554D01*
X136325446Y-165360064D01*
X136399555Y-165402851D01*
X136482213Y-165425000D01*
X136567787Y-165425000D01*
X136650445Y-165402851D01*
X136724554Y-165360064D01*
X136785064Y-165299554D01*
X136827851Y-165225445D01*
X136850000Y-165142787D01*
X136850000Y-165057213D01*
X136827851Y-164974555D01*
X136785064Y-164900446D01*
X136734618Y-164850000D01*
X137494160Y-164850000D01*
X137494160Y-164849999D01*
X137453347Y-164715458D01*
X137360496Y-164541746D01*
X137357110Y-164536678D01*
X137358784Y-164535559D01*
X137335081Y-164479746D01*
X137346874Y-164410879D01*
X137357839Y-164393818D01*
X137357523Y-164393607D01*
X137360904Y-164388544D01*
X137360910Y-164388538D01*
X137453814Y-164214727D01*
X137511024Y-164026132D01*
X137530341Y-163830000D01*
X137522092Y-163746252D01*
X137535110Y-163677609D01*
X137557811Y-163646422D01*
X139083535Y-162120698D01*
X139144856Y-162087215D01*
X139157311Y-162085163D01*
X139244255Y-162075368D01*
X139414522Y-162015789D01*
X139567262Y-161919816D01*
X139694816Y-161792262D01*
X139725233Y-161743852D01*
X139777567Y-161697561D01*
X139846620Y-161686912D01*
X139910469Y-161715287D01*
X139917906Y-161722142D01*
X141236284Y-163040520D01*
X141236286Y-163040521D01*
X141236290Y-163040524D01*
X141371406Y-163118532D01*
X141373216Y-163119577D01*
X141525943Y-163160501D01*
X141525945Y-163160501D01*
X141691654Y-163160501D01*
X141691670Y-163160500D01*
X142720501Y-163160500D01*
X142787540Y-163180185D01*
X142833295Y-163232989D01*
X142844501Y-163284500D01*
X142844501Y-163357876D01*
X142850908Y-163417483D01*
X142901202Y-163552328D01*
X142901206Y-163552335D01*
X142987452Y-163667544D01*
X142987455Y-163667547D01*
X143072278Y-163731046D01*
X143114149Y-163786979D01*
X143119133Y-163856671D01*
X143085647Y-163917994D01*
X143072279Y-163929578D01*
X142987809Y-163992812D01*
X142901649Y-164107906D01*
X142901645Y-164107913D01*
X142851403Y-164242620D01*
X142851401Y-164242627D01*
X142845000Y-164302155D01*
X142845000Y-164850000D01*
X150621000Y-164850000D01*
X150688039Y-164869685D01*
X150733794Y-164922489D01*
X150745000Y-164974000D01*
X150745000Y-166350000D01*
X157490500Y-166350000D01*
X157557539Y-166369685D01*
X157603294Y-166422489D01*
X157614500Y-166474000D01*
X157614500Y-167015500D01*
X157594815Y-167082539D01*
X157542011Y-167128294D01*
X157490500Y-167139500D01*
X134609500Y-167139500D01*
X134542461Y-167119815D01*
X134496706Y-167067011D01*
X134485500Y-167015500D01*
X134485500Y-165350000D01*
X135555840Y-165350000D01*
X135596652Y-165484541D01*
X135689503Y-165658253D01*
X135689507Y-165658260D01*
X135814471Y-165810528D01*
X135966739Y-165935491D01*
X136140465Y-166028349D01*
X136275000Y-166069159D01*
X136775000Y-166069159D01*
X136909534Y-166028349D01*
X137083260Y-165935491D01*
X137129133Y-165897844D01*
X142845000Y-165897844D01*
X142851401Y-165957372D01*
X142851403Y-165957379D01*
X142901645Y-166092086D01*
X142901649Y-166092093D01*
X142987809Y-166207187D01*
X142987812Y-166207190D01*
X143102906Y-166293350D01*
X143102913Y-166293354D01*
X143237620Y-166343596D01*
X143237627Y-166343598D01*
X143297155Y-166349999D01*
X143297172Y-166350000D01*
X150245000Y-166350000D01*
X150245000Y-165350000D01*
X142845000Y-165350000D01*
X142845000Y-165897844D01*
X137129133Y-165897844D01*
X137235528Y-165810528D01*
X137360492Y-165658260D01*
X137360496Y-165658253D01*
X137453347Y-165484541D01*
X137494160Y-165350000D01*
X136775000Y-165350000D01*
X136775000Y-166069159D01*
X136275000Y-166069159D01*
X136275000Y-165350000D01*
X135555840Y-165350000D01*
X134485500Y-165350000D01*
X134485500Y-142174110D01*
X134485500Y-142174108D01*
X134451392Y-142046814D01*
X134385500Y-141932686D01*
X134292314Y-141839500D01*
X134235250Y-141806554D01*
X134178187Y-141773608D01*
X134114539Y-141756554D01*
X134050892Y-141739500D01*
X134050891Y-141739500D01*
X116329500Y-141739500D01*
X116262461Y-141719815D01*
X116216706Y-141667011D01*
X116205500Y-141615500D01*
X116205500Y-140496797D01*
X116225185Y-140429758D01*
X116277989Y-140384003D01*
X116347147Y-140374059D01*
X116410703Y-140403084D01*
X116431071Y-140425668D01*
X116474953Y-140488339D01*
X116474957Y-140488344D01*
X116635858Y-140649245D01*
X116635861Y-140649247D01*
X116822266Y-140779768D01*
X117028504Y-140875939D01*
X117248308Y-140934835D01*
X117410230Y-140949001D01*
X117474998Y-140954668D01*
X117475000Y-140954668D01*
X117475002Y-140954668D01*
X117537511Y-140949199D01*
X117701692Y-140934835D01*
X117921496Y-140875939D01*
X118127734Y-140779768D01*
X118314139Y-140649247D01*
X118475047Y-140488339D01*
X118605568Y-140301934D01*
X118701739Y-140095696D01*
X118760635Y-139875892D01*
X118780468Y-139649200D01*
X118778245Y-139623796D01*
X118774133Y-139576791D01*
X118760635Y-139422508D01*
X118730889Y-139311492D01*
X118729362Y-139305793D01*
X118731025Y-139235943D01*
X118770188Y-139178081D01*
X118834417Y-139150577D01*
X118849137Y-139149700D01*
X121317531Y-139149700D01*
X121317547Y-139149701D01*
X121325143Y-139149701D01*
X121483254Y-139149701D01*
X121483257Y-139149701D01*
X121635985Y-139108777D01*
X121686104Y-139079839D01*
X121772916Y-139029720D01*
X121884720Y-138917916D01*
X121884720Y-138917914D01*
X121894928Y-138907707D01*
X121894929Y-138907704D01*
X122661866Y-138140767D01*
X122723187Y-138107284D01*
X122792879Y-138112268D01*
X122848812Y-138154140D01*
X122873229Y-138219604D01*
X122858377Y-138287877D01*
X122848503Y-138303172D01*
X122842633Y-138310945D01*
X122747596Y-138501805D01*
X122747596Y-138501807D01*
X122689244Y-138706889D01*
X122669571Y-138919199D01*
X122669571Y-138919200D01*
X122689244Y-139131510D01*
X122747596Y-139336592D01*
X122747596Y-139336594D01*
X122842632Y-139527453D01*
X122958209Y-139680500D01*
X122971128Y-139697607D01*
X123128698Y-139841252D01*
X123309981Y-139953498D01*
X123508802Y-140030521D01*
X123718390Y-140069700D01*
X123718392Y-140069700D01*
X123931608Y-140069700D01*
X123931610Y-140069700D01*
X124141198Y-140030521D01*
X124340019Y-139953498D01*
X124521302Y-139841252D01*
X124678872Y-139697607D01*
X124807366Y-139527455D01*
X124852453Y-139436908D01*
X124902403Y-139336594D01*
X124902403Y-139336593D01*
X124902405Y-139336589D01*
X124960756Y-139131510D01*
X124971529Y-139015247D01*
X124997315Y-138950311D01*
X125039622Y-138920004D01*
X125148130Y-138920004D01*
X125184503Y-138940868D01*
X125216693Y-139002881D01*
X125218471Y-139015248D01*
X125229244Y-139131510D01*
X125287596Y-139336592D01*
X125287596Y-139336594D01*
X125382632Y-139527453D01*
X125498209Y-139680500D01*
X125511128Y-139697607D01*
X125668698Y-139841252D01*
X125849981Y-139953498D01*
X126048802Y-140030521D01*
X126258390Y-140069700D01*
X126258392Y-140069700D01*
X126471608Y-140069700D01*
X126471610Y-140069700D01*
X126681198Y-140030521D01*
X126880019Y-139953498D01*
X127061302Y-139841252D01*
X127218872Y-139697607D01*
X127347366Y-139527455D01*
X127392453Y-139436908D01*
X127442403Y-139336594D01*
X127442403Y-139336593D01*
X127442405Y-139336589D01*
X127500756Y-139131510D01*
X127520429Y-138919200D01*
X127519363Y-138907701D01*
X127511529Y-138823151D01*
X127500756Y-138706890D01*
X127442405Y-138501811D01*
X127442403Y-138501806D01*
X127442403Y-138501805D01*
X127347367Y-138310946D01*
X127218872Y-138140793D01*
X127184266Y-138109245D01*
X127061302Y-137997148D01*
X126880019Y-137884902D01*
X126880017Y-137884901D01*
X126750829Y-137834854D01*
X126681198Y-137807879D01*
X126471610Y-137768700D01*
X126258390Y-137768700D01*
X126048802Y-137807879D01*
X126048799Y-137807879D01*
X126048799Y-137807880D01*
X125849982Y-137884901D01*
X125849980Y-137884902D01*
X125668699Y-137997147D01*
X125511127Y-138140793D01*
X125382632Y-138310946D01*
X125287596Y-138501805D01*
X125287596Y-138501807D01*
X125229244Y-138706889D01*
X125218471Y-138823151D01*
X125192685Y-138888088D01*
X125148130Y-138920004D01*
X125039622Y-138920004D01*
X125041869Y-138918394D01*
X125005497Y-138897531D01*
X124973307Y-138835518D01*
X124971529Y-138823151D01*
X124963993Y-138741827D01*
X124960756Y-138706890D01*
X124902405Y-138501811D01*
X124902403Y-138501806D01*
X124902403Y-138501805D01*
X124807367Y-138310946D01*
X124678872Y-138140793D01*
X124644266Y-138109245D01*
X124521302Y-137997148D01*
X124340019Y-137884902D01*
X124340017Y-137884901D01*
X124210829Y-137834854D01*
X124141198Y-137807879D01*
X123931610Y-137768700D01*
X123718390Y-137768700D01*
X123508802Y-137807879D01*
X123508799Y-137807879D01*
X123508799Y-137807880D01*
X123309982Y-137884901D01*
X123309975Y-137884905D01*
X123188711Y-137959988D01*
X123121350Y-137978543D01*
X123054651Y-137957735D01*
X123009790Y-137904170D01*
X123001010Y-137834854D01*
X123031099Y-137771795D01*
X123035729Y-137766904D01*
X125545816Y-135256819D01*
X125607139Y-135223334D01*
X125633497Y-135220500D01*
X130507531Y-135220500D01*
X130507547Y-135220501D01*
X130515143Y-135220501D01*
X130673254Y-135220501D01*
X130673257Y-135220501D01*
X130825985Y-135179577D01*
X130876104Y-135150639D01*
X130962916Y-135100520D01*
X131074720Y-134988716D01*
X131074720Y-134988714D01*
X131084928Y-134978507D01*
X131084930Y-134978504D01*
X131243301Y-134820132D01*
X131304622Y-134786649D01*
X131374314Y-134791633D01*
X131430247Y-134833505D01*
X131450755Y-134875722D01*
X131488258Y-135015688D01*
X131488261Y-135015697D01*
X131584431Y-135221932D01*
X131584432Y-135221934D01*
X131714954Y-135408341D01*
X131875858Y-135569245D01*
X131875861Y-135569247D01*
X132062266Y-135699768D01*
X132120275Y-135726818D01*
X132172714Y-135772991D01*
X132191866Y-135840184D01*
X132171650Y-135907065D01*
X132120275Y-135951582D01*
X132062267Y-135978631D01*
X132062265Y-135978632D01*
X131875858Y-136109154D01*
X131714954Y-136270058D01*
X131584432Y-136456465D01*
X131584431Y-136456467D01*
X131488261Y-136662702D01*
X131488258Y-136662711D01*
X131429366Y-136882502D01*
X131429364Y-136882513D01*
X131409532Y-137109198D01*
X131409532Y-137109201D01*
X131429364Y-137335886D01*
X131429366Y-137335897D01*
X131488258Y-137555688D01*
X131488261Y-137555697D01*
X131584431Y-137761932D01*
X131584432Y-137761934D01*
X131714954Y-137948341D01*
X131875858Y-138109245D01*
X131901086Y-138126910D01*
X131944711Y-138181487D01*
X131951905Y-138250985D01*
X131920382Y-138313340D01*
X131860153Y-138348754D01*
X131843221Y-138351774D01*
X131807626Y-138355601D01*
X131807620Y-138355603D01*
X131672913Y-138405845D01*
X131672906Y-138405849D01*
X131557812Y-138492009D01*
X131557809Y-138492012D01*
X131471649Y-138607106D01*
X131471645Y-138607113D01*
X131421403Y-138741820D01*
X131421401Y-138741827D01*
X131415000Y-138801355D01*
X131415000Y-139399200D01*
X132224252Y-139399200D01*
X132202482Y-139436908D01*
X132165000Y-139576791D01*
X132165000Y-139721609D01*
X132202482Y-139861492D01*
X132224252Y-139899200D01*
X131415000Y-139899200D01*
X131415000Y-140497044D01*
X131421401Y-140556572D01*
X131421403Y-140556579D01*
X131471645Y-140691286D01*
X131471649Y-140691293D01*
X131557809Y-140806387D01*
X131557812Y-140806390D01*
X131672906Y-140892550D01*
X131672913Y-140892554D01*
X131807620Y-140942796D01*
X131807627Y-140942798D01*
X131867155Y-140949199D01*
X131867172Y-140949200D01*
X132465000Y-140949200D01*
X132465000Y-140139947D01*
X132502708Y-140161718D01*
X132642591Y-140199200D01*
X132787409Y-140199200D01*
X132927292Y-140161718D01*
X132965000Y-140139947D01*
X132965000Y-140949200D01*
X133562828Y-140949200D01*
X133562844Y-140949199D01*
X133622372Y-140942798D01*
X133622379Y-140942796D01*
X133757086Y-140892554D01*
X133757093Y-140892550D01*
X133872187Y-140806390D01*
X133872190Y-140806387D01*
X133958350Y-140691293D01*
X133958354Y-140691286D01*
X134008596Y-140556579D01*
X134008598Y-140556572D01*
X134014999Y-140497044D01*
X134015000Y-140497027D01*
X134015000Y-139899200D01*
X133205748Y-139899200D01*
X133227518Y-139861492D01*
X133265000Y-139721609D01*
X133265000Y-139576791D01*
X133227518Y-139436908D01*
X133205748Y-139399200D01*
X134015000Y-139399200D01*
X134015000Y-138801372D01*
X134014999Y-138801355D01*
X134008598Y-138741827D01*
X134008596Y-138741820D01*
X133958354Y-138607113D01*
X133958350Y-138607106D01*
X133872190Y-138492012D01*
X133872187Y-138492009D01*
X133757093Y-138405849D01*
X133757086Y-138405845D01*
X133622379Y-138355603D01*
X133622373Y-138355601D01*
X133586778Y-138351774D01*
X133522228Y-138325035D01*
X133482381Y-138267641D01*
X133479888Y-138197816D01*
X133515542Y-138137728D01*
X133528913Y-138126910D01*
X133554139Y-138109247D01*
X133715047Y-137948339D01*
X133845568Y-137761934D01*
X133941739Y-137555696D01*
X134000635Y-137335892D01*
X134020468Y-137109200D01*
X134018245Y-137083796D01*
X134014801Y-137044430D01*
X134000635Y-136882508D01*
X133941739Y-136662704D01*
X133845568Y-136456466D01*
X133715047Y-136270061D01*
X133715045Y-136270058D01*
X133554141Y-136109154D01*
X133367734Y-135978632D01*
X133367728Y-135978629D01*
X133309725Y-135951582D01*
X133257285Y-135905410D01*
X133238133Y-135838217D01*
X133258348Y-135771335D01*
X133309725Y-135726818D01*
X133367734Y-135699768D01*
X133554139Y-135569247D01*
X133715047Y-135408339D01*
X133845568Y-135221934D01*
X133941739Y-135015696D01*
X134000635Y-134795892D01*
X134020468Y-134569200D01*
X134018245Y-134543796D01*
X134011500Y-134466697D01*
X134000635Y-134342508D01*
X133941739Y-134122704D01*
X133845568Y-133916466D01*
X133715047Y-133730061D01*
X133715045Y-133730058D01*
X133554141Y-133569154D01*
X133367734Y-133438632D01*
X133367728Y-133438629D01*
X133309725Y-133411582D01*
X133257285Y-133365410D01*
X133238133Y-133298217D01*
X133258348Y-133231335D01*
X133309725Y-133186818D01*
X133367734Y-133159768D01*
X133554139Y-133029247D01*
X133715047Y-132868339D01*
X133845568Y-132681934D01*
X133941739Y-132475696D01*
X134000635Y-132255892D01*
X134020468Y-132029200D01*
X134018245Y-132003796D01*
X134011500Y-131926697D01*
X134000635Y-131802508D01*
X133948483Y-131607872D01*
X133941741Y-131582711D01*
X133941738Y-131582702D01*
X133939210Y-131577281D01*
X133845568Y-131376466D01*
X133715047Y-131190061D01*
X133715045Y-131190058D01*
X133554141Y-131029154D01*
X133367734Y-130898632D01*
X133367728Y-130898629D01*
X133309725Y-130871582D01*
X133257285Y-130825410D01*
X133238133Y-130758217D01*
X133258348Y-130691335D01*
X133309725Y-130646818D01*
X133367734Y-130619768D01*
X133554139Y-130489247D01*
X133715047Y-130328339D01*
X133845568Y-130141934D01*
X133941739Y-129935696D01*
X134000635Y-129715892D01*
X134020468Y-129489200D01*
X134018245Y-129463796D01*
X134011500Y-129386697D01*
X134000635Y-129262508D01*
X133941739Y-129042704D01*
X133845568Y-128836466D01*
X133715047Y-128650061D01*
X133715045Y-128650058D01*
X133554141Y-128489154D01*
X133367734Y-128358632D01*
X133367728Y-128358629D01*
X133309725Y-128331582D01*
X133257285Y-128285410D01*
X133238133Y-128218217D01*
X133258348Y-128151335D01*
X133309725Y-128106818D01*
X133367734Y-128079768D01*
X133554139Y-127949247D01*
X133715047Y-127788339D01*
X133845568Y-127601934D01*
X133941739Y-127395696D01*
X134000635Y-127175892D01*
X134019815Y-126956668D01*
X134020468Y-126949201D01*
X134020468Y-126949198D01*
X134011500Y-126846697D01*
X134000635Y-126722508D01*
X133941739Y-126502704D01*
X133845568Y-126296466D01*
X133715047Y-126110061D01*
X133715045Y-126110058D01*
X133554141Y-125949154D01*
X133367734Y-125818632D01*
X133367728Y-125818629D01*
X133309725Y-125791582D01*
X133257285Y-125745410D01*
X133238133Y-125678217D01*
X133258348Y-125611335D01*
X133309725Y-125566818D01*
X133367734Y-125539768D01*
X133554139Y-125409247D01*
X133715047Y-125248339D01*
X133845568Y-125061934D01*
X133941739Y-124855696D01*
X134000635Y-124635892D01*
X134020468Y-124409200D01*
X134020276Y-124407011D01*
X134007573Y-124261807D01*
X134000635Y-124182508D01*
X133941888Y-123963261D01*
X133941741Y-123962711D01*
X133941738Y-123962702D01*
X133912869Y-123900793D01*
X133845568Y-123756466D01*
X133715047Y-123570061D01*
X133715045Y-123570058D01*
X133554141Y-123409154D01*
X133367734Y-123278632D01*
X133367728Y-123278629D01*
X133309725Y-123251582D01*
X133257285Y-123205410D01*
X133238133Y-123138217D01*
X133258348Y-123071335D01*
X133309725Y-123026818D01*
X133367734Y-122999768D01*
X133554139Y-122869247D01*
X133715047Y-122708339D01*
X133845568Y-122521934D01*
X133941739Y-122315696D01*
X133959023Y-122251187D01*
X133995387Y-122191528D01*
X134058233Y-122160998D01*
X134127609Y-122169292D01*
G37*
%TD.AperFunction*%
%TA.AperFunction,Conductor*%
G36*
X116200959Y-131430185D02*
G01*
X116246714Y-131482989D01*
X116256658Y-131552147D01*
X116249172Y-131577281D01*
X116250111Y-131577623D01*
X116248258Y-131582711D01*
X116189366Y-131802502D01*
X116189364Y-131802513D01*
X116169532Y-132029198D01*
X116169532Y-132029201D01*
X116189364Y-132255886D01*
X116189366Y-132255897D01*
X116215152Y-132352131D01*
X116213489Y-132421981D01*
X116183058Y-132471905D01*
X107471283Y-141183681D01*
X107409960Y-141217166D01*
X107383602Y-141220000D01*
X99945000Y-141220000D01*
X99945000Y-142220000D01*
X106135602Y-142220000D01*
X106202641Y-142239685D01*
X106248396Y-142292489D01*
X106258340Y-142361647D01*
X106229315Y-142425203D01*
X106223283Y-142431681D01*
X100081783Y-148573181D01*
X100020460Y-148606666D01*
X99994102Y-148609500D01*
X92699500Y-148609500D01*
X92632461Y-148589815D01*
X92586706Y-148537011D01*
X92575500Y-148485500D01*
X92575500Y-142344000D01*
X92595185Y-142276961D01*
X92647989Y-142231206D01*
X92699500Y-142220000D01*
X99445000Y-142220000D01*
X99445000Y-140844000D01*
X99464685Y-140776961D01*
X99517489Y-140731206D01*
X99569000Y-140720000D01*
X107345000Y-140720000D01*
X107345000Y-140172172D01*
X107344999Y-140172155D01*
X107338598Y-140112627D01*
X107338596Y-140112620D01*
X107288354Y-139977913D01*
X107288350Y-139977906D01*
X107202190Y-139862813D01*
X107117721Y-139799579D01*
X107075850Y-139743645D01*
X107070866Y-139673953D01*
X107104351Y-139612630D01*
X107117712Y-139601052D01*
X107202546Y-139537546D01*
X107288796Y-139422331D01*
X107339091Y-139287483D01*
X107345500Y-139227873D01*
X107345499Y-138080095D01*
X107365184Y-138013057D01*
X107381813Y-137992420D01*
X113927416Y-131446819D01*
X113988739Y-131413334D01*
X114015097Y-131410500D01*
X116133920Y-131410500D01*
X116200959Y-131430185D01*
G37*
%TD.AperFunction*%
%TA.AperFunction,Conductor*%
G36*
X138330703Y-136005384D02*
G01*
X138337181Y-136011416D01*
X141120139Y-138794374D01*
X141120149Y-138794385D01*
X141124479Y-138798715D01*
X141124480Y-138798716D01*
X141236284Y-138910520D01*
X141288850Y-138940868D01*
X141323095Y-138960639D01*
X141323097Y-138960641D01*
X141361151Y-138982611D01*
X141373215Y-138989577D01*
X141525943Y-139030501D01*
X141525946Y-139030501D01*
X141691653Y-139030501D01*
X141691669Y-139030500D01*
X142720501Y-139030500D01*
X142787540Y-139050185D01*
X142833295Y-139102989D01*
X142844501Y-139154500D01*
X142844501Y-139227876D01*
X142850908Y-139287483D01*
X142901202Y-139422328D01*
X142901206Y-139422335D01*
X142987452Y-139537544D01*
X142987455Y-139537547D01*
X143072278Y-139601046D01*
X143114149Y-139656979D01*
X143119133Y-139726671D01*
X143085647Y-139787994D01*
X143072279Y-139799578D01*
X142987809Y-139862812D01*
X142901649Y-139977906D01*
X142901645Y-139977913D01*
X142851403Y-140112620D01*
X142851401Y-140112627D01*
X142845000Y-140172155D01*
X142845000Y-140720000D01*
X150621000Y-140720000D01*
X150688039Y-140739685D01*
X150733794Y-140792489D01*
X150745000Y-140844000D01*
X150745000Y-142220000D01*
X157490500Y-142220000D01*
X157557539Y-142239685D01*
X157603294Y-142292489D01*
X157614500Y-142344000D01*
X157614500Y-148485500D01*
X157594815Y-148552539D01*
X157542011Y-148598294D01*
X157490500Y-148609500D01*
X150145098Y-148609500D01*
X150078059Y-148589815D01*
X150057417Y-148573181D01*
X149882055Y-148397819D01*
X143915915Y-142431679D01*
X143882431Y-142370358D01*
X143887415Y-142300666D01*
X143929287Y-142244733D01*
X143994751Y-142220316D01*
X144003597Y-142220000D01*
X150245000Y-142220000D01*
X150245000Y-141220000D01*
X142830618Y-141220000D01*
X142800972Y-141236187D01*
X142731280Y-141231201D01*
X142686936Y-141202701D01*
X138121602Y-136637367D01*
X138088117Y-136576044D01*
X138089508Y-136517593D01*
X138125501Y-136383272D01*
X138125501Y-136225157D01*
X138125501Y-136217562D01*
X138125500Y-136217544D01*
X138125500Y-136099097D01*
X138145185Y-136032058D01*
X138197989Y-135986303D01*
X138267147Y-135976359D01*
X138330703Y-136005384D01*
G37*
%TD.AperFunction*%
%TA.AperFunction,Conductor*%
G36*
X99888039Y-116609685D02*
G01*
X99933794Y-116662489D01*
X99945000Y-116714000D01*
X99945000Y-118090000D01*
X106420499Y-118090000D01*
X106487538Y-118109685D01*
X106533293Y-118162489D01*
X106544499Y-118214000D01*
X106544499Y-118253889D01*
X106544498Y-118253889D01*
X106544499Y-118253892D01*
X106585423Y-118406620D01*
X106585424Y-118406622D01*
X106585423Y-118406622D01*
X106589986Y-118414524D01*
X106589987Y-118414525D01*
X106664477Y-118543547D01*
X106664481Y-118543552D01*
X106783349Y-118662420D01*
X106783355Y-118662425D01*
X113038749Y-124917819D01*
X113072234Y-124979142D01*
X113067250Y-125048834D01*
X113025378Y-125104767D01*
X112959914Y-125129184D01*
X112951068Y-125129500D01*
X107469499Y-125129500D01*
X107402460Y-125109815D01*
X107356705Y-125057011D01*
X107345499Y-125005500D01*
X107345499Y-124932129D01*
X107345498Y-124932123D01*
X107345497Y-124932116D01*
X107339091Y-124872517D01*
X107332817Y-124855696D01*
X107288797Y-124737671D01*
X107288793Y-124737664D01*
X107202547Y-124622455D01*
X107202544Y-124622452D01*
X107087335Y-124536206D01*
X107087328Y-124536202D01*
X106952482Y-124485908D01*
X106952483Y-124485908D01*
X106892883Y-124479501D01*
X106892881Y-124479500D01*
X106892873Y-124479500D01*
X106892865Y-124479500D01*
X92699500Y-124479500D01*
X92632461Y-124459815D01*
X92586706Y-124407011D01*
X92575500Y-124355500D01*
X92575500Y-118214000D01*
X92595185Y-118146961D01*
X92647989Y-118101206D01*
X92699500Y-118090000D01*
X99445000Y-118090000D01*
X99445000Y-116714000D01*
X99464685Y-116646961D01*
X99517489Y-116601206D01*
X99569000Y-116590000D01*
X99821000Y-116590000D01*
X99888039Y-116609685D01*
G37*
%TD.AperFunction*%
%TA.AperFunction,Conductor*%
G36*
X138781142Y-112329385D02*
G01*
X138801784Y-112346019D01*
X141120139Y-114664374D01*
X141120149Y-114664385D01*
X141124479Y-114668715D01*
X141124480Y-114668716D01*
X141236284Y-114780520D01*
X141236286Y-114780521D01*
X141236290Y-114780524D01*
X141347838Y-114844925D01*
X141373216Y-114859577D01*
X141485019Y-114889534D01*
X141525942Y-114900500D01*
X141525943Y-114900500D01*
X142720501Y-114900500D01*
X142787540Y-114920185D01*
X142833295Y-114972989D01*
X142844501Y-115024500D01*
X142844501Y-115097876D01*
X142850908Y-115157483D01*
X142901202Y-115292328D01*
X142901206Y-115292335D01*
X142987452Y-115407544D01*
X142987455Y-115407547D01*
X143072278Y-115471046D01*
X143114149Y-115526979D01*
X143119133Y-115596671D01*
X143085647Y-115657994D01*
X143072279Y-115669578D01*
X142987809Y-115732812D01*
X142901649Y-115847906D01*
X142901645Y-115847913D01*
X142851403Y-115982620D01*
X142851401Y-115982627D01*
X142845000Y-116042155D01*
X142845000Y-116590000D01*
X150621000Y-116590000D01*
X150688039Y-116609685D01*
X150733794Y-116662489D01*
X150745000Y-116714000D01*
X150745000Y-118090000D01*
X157490500Y-118090000D01*
X157557539Y-118109685D01*
X157603294Y-118162489D01*
X157614500Y-118214000D01*
X157614500Y-124355500D01*
X157594815Y-124422539D01*
X157542011Y-124468294D01*
X157490500Y-124479500D01*
X150145098Y-124479500D01*
X150078059Y-124459815D01*
X150057417Y-124443181D01*
X147036938Y-121422702D01*
X143915915Y-118301680D01*
X143882431Y-118240358D01*
X143887415Y-118170666D01*
X143929287Y-118114733D01*
X143994751Y-118090316D01*
X144003597Y-118090000D01*
X150245000Y-118090000D01*
X150245000Y-117090000D01*
X142830618Y-117090000D01*
X142800972Y-117106187D01*
X142731280Y-117101201D01*
X142686936Y-117072701D01*
X140941790Y-115327555D01*
X140941788Y-115327552D01*
X140822917Y-115208681D01*
X140822909Y-115208675D01*
X140734239Y-115157482D01*
X140734238Y-115157482D01*
X140713844Y-115145707D01*
X140685985Y-115129623D01*
X140533257Y-115088699D01*
X140375143Y-115088699D01*
X140367547Y-115088699D01*
X140367531Y-115088700D01*
X135434773Y-115088700D01*
X135367734Y-115069015D01*
X135321979Y-115016211D01*
X135312035Y-114947053D01*
X135341060Y-114883497D01*
X135399838Y-114845723D01*
X135402637Y-114844936D01*
X135537585Y-114808777D01*
X135587704Y-114779839D01*
X135674516Y-114729720D01*
X135786320Y-114617916D01*
X135786320Y-114617914D01*
X135796528Y-114607707D01*
X135796530Y-114607704D01*
X136543535Y-113860698D01*
X136604856Y-113827215D01*
X136617311Y-113825163D01*
X136704255Y-113815368D01*
X136874522Y-113755789D01*
X137027262Y-113659816D01*
X137154816Y-113532262D01*
X137250789Y-113379522D01*
X137310368Y-113209255D01*
X137312261Y-113192454D01*
X137330565Y-113030003D01*
X137330565Y-113029996D01*
X137310369Y-112850750D01*
X137310368Y-112850745D01*
X137275930Y-112752328D01*
X137250789Y-112680478D01*
X137154816Y-112527738D01*
X137148459Y-112521381D01*
X137114974Y-112460058D01*
X137119958Y-112390366D01*
X137161830Y-112334433D01*
X137227294Y-112310016D01*
X137236140Y-112309700D01*
X138714103Y-112309700D01*
X138781142Y-112329385D01*
G37*
%TD.AperFunction*%
%TA.AperFunction,Conductor*%
G36*
X107483714Y-92423797D02*
G01*
X107528063Y-92452298D01*
X107948181Y-92872416D01*
X107981666Y-92933739D01*
X107984500Y-92960097D01*
X107984500Y-98973330D01*
X107984499Y-98973348D01*
X107984499Y-99139054D01*
X107984498Y-99139054D01*
X108025423Y-99291785D01*
X108054358Y-99341900D01*
X108054359Y-99341904D01*
X108054360Y-99341904D01*
X108104479Y-99428714D01*
X108104481Y-99428717D01*
X108223349Y-99547585D01*
X108223355Y-99547590D01*
X110488181Y-101812416D01*
X110521666Y-101873739D01*
X110524500Y-101900097D01*
X110524500Y-102390903D01*
X110504815Y-102457942D01*
X110452011Y-102503697D01*
X110382853Y-102513641D01*
X110319297Y-102484616D01*
X110312819Y-102478584D01*
X109072590Y-101238355D01*
X109072588Y-101238352D01*
X108953717Y-101119481D01*
X108953709Y-101119475D01*
X108836148Y-101051602D01*
X108836148Y-101051601D01*
X108836143Y-101051600D01*
X108829388Y-101047699D01*
X108816786Y-101040423D01*
X108778603Y-101030192D01*
X108664057Y-100999499D01*
X108505943Y-100999499D01*
X108498347Y-100999499D01*
X108498331Y-100999500D01*
X107469499Y-100999500D01*
X107402460Y-100979815D01*
X107356705Y-100927011D01*
X107345499Y-100875500D01*
X107345499Y-100802129D01*
X107345498Y-100802123D01*
X107345497Y-100802116D01*
X107339091Y-100742517D01*
X107338920Y-100742059D01*
X107288797Y-100607671D01*
X107288793Y-100607664D01*
X107202547Y-100492455D01*
X107202544Y-100492452D01*
X107087335Y-100406206D01*
X107087328Y-100406202D01*
X106952482Y-100355908D01*
X106952483Y-100355908D01*
X106892883Y-100349501D01*
X106892881Y-100349500D01*
X106892873Y-100349500D01*
X106892865Y-100349500D01*
X92699500Y-100349500D01*
X92632461Y-100329815D01*
X92586706Y-100277011D01*
X92575500Y-100225500D01*
X92575500Y-94084000D01*
X92595185Y-94016961D01*
X92647989Y-93971206D01*
X92699500Y-93960000D01*
X99445000Y-93960000D01*
X99945000Y-93960000D01*
X106892828Y-93960000D01*
X106892844Y-93959999D01*
X106952372Y-93953598D01*
X106952379Y-93953596D01*
X107087086Y-93903354D01*
X107087093Y-93903350D01*
X107202187Y-93817190D01*
X107202190Y-93817187D01*
X107288350Y-93702093D01*
X107288354Y-93702086D01*
X107338596Y-93567379D01*
X107338598Y-93567372D01*
X107344999Y-93507844D01*
X107345000Y-93507827D01*
X107345000Y-92960000D01*
X99945000Y-92960000D01*
X99945000Y-93960000D01*
X99445000Y-93960000D01*
X99445000Y-92584000D01*
X99464685Y-92516961D01*
X99517489Y-92471206D01*
X99569000Y-92460000D01*
X107344999Y-92460000D01*
X107352700Y-92452299D01*
X107414023Y-92418813D01*
X107483714Y-92423797D01*
G37*
%TD.AperFunction*%
%TA.AperFunction,Conductor*%
G36*
X150688039Y-92479685D02*
G01*
X150733794Y-92532489D01*
X150745000Y-92584000D01*
X150745000Y-93960000D01*
X157490500Y-93960000D01*
X157557539Y-93979685D01*
X157603294Y-94032489D01*
X157614500Y-94084000D01*
X157614500Y-100225500D01*
X157594815Y-100292539D01*
X157542011Y-100338294D01*
X157490500Y-100349500D01*
X143297129Y-100349500D01*
X143297123Y-100349501D01*
X143237516Y-100355908D01*
X143102671Y-100406202D01*
X143102664Y-100406206D01*
X142987455Y-100492452D01*
X142987452Y-100492455D01*
X142901206Y-100607664D01*
X142901202Y-100607671D01*
X142850908Y-100742517D01*
X142846038Y-100787819D01*
X142844501Y-100802123D01*
X142844500Y-100802135D01*
X142844500Y-100875500D01*
X142824815Y-100942539D01*
X142772011Y-100988294D01*
X142720500Y-100999500D01*
X142033297Y-100999500D01*
X141966258Y-100979815D01*
X141920503Y-100927011D01*
X141910559Y-100857853D01*
X141939584Y-100794297D01*
X141945616Y-100787819D01*
X142303064Y-100430371D01*
X143403506Y-99329927D01*
X143403511Y-99329924D01*
X143413714Y-99319720D01*
X143413716Y-99319720D01*
X143525520Y-99207916D01*
X143580513Y-99112665D01*
X143604577Y-99070985D01*
X143645500Y-98918257D01*
X143645500Y-98760143D01*
X143645500Y-94084000D01*
X143665185Y-94016961D01*
X143717989Y-93971206D01*
X143769500Y-93960000D01*
X150245000Y-93960000D01*
X150245000Y-92584000D01*
X150264685Y-92516961D01*
X150317489Y-92471206D01*
X150369000Y-92460000D01*
X150621000Y-92460000D01*
X150688039Y-92479685D01*
G37*
%TD.AperFunction*%
%TA.AperFunction,Conductor*%
G36*
X107483714Y-69563797D02*
G01*
X107528063Y-69592298D01*
X111758181Y-73822416D01*
X111791666Y-73883739D01*
X111794500Y-73910097D01*
X111794500Y-82020902D01*
X111774815Y-82087941D01*
X111722011Y-82133696D01*
X111652853Y-82143640D01*
X111589297Y-82114615D01*
X111582819Y-82108583D01*
X107381818Y-77907582D01*
X107348333Y-77846259D01*
X107345499Y-77819901D01*
X107345499Y-76672129D01*
X107345498Y-76672123D01*
X107345497Y-76672116D01*
X107339091Y-76612517D01*
X107288796Y-76477669D01*
X107288795Y-76477668D01*
X107288793Y-76477664D01*
X107202547Y-76362455D01*
X107202544Y-76362452D01*
X107087335Y-76276206D01*
X107087328Y-76276202D01*
X106952482Y-76225908D01*
X106952483Y-76225908D01*
X106892883Y-76219501D01*
X106892881Y-76219500D01*
X106892873Y-76219500D01*
X106892865Y-76219500D01*
X92699500Y-76219500D01*
X92632461Y-76199815D01*
X92586706Y-76147011D01*
X92575500Y-76095500D01*
X92575500Y-71224000D01*
X92595185Y-71156961D01*
X92647989Y-71111206D01*
X92699500Y-71100000D01*
X99445000Y-71100000D01*
X99945000Y-71100000D01*
X106892828Y-71100000D01*
X106892844Y-71099999D01*
X106952372Y-71093598D01*
X106952379Y-71093596D01*
X107087086Y-71043354D01*
X107087093Y-71043350D01*
X107202187Y-70957190D01*
X107202190Y-70957187D01*
X107288350Y-70842093D01*
X107288354Y-70842086D01*
X107338596Y-70707379D01*
X107338598Y-70707372D01*
X107344999Y-70647844D01*
X107345000Y-70647827D01*
X107345000Y-70100000D01*
X99945000Y-70100000D01*
X99945000Y-71100000D01*
X99445000Y-71100000D01*
X99445000Y-69724000D01*
X99464685Y-69656961D01*
X99517489Y-69611206D01*
X99569000Y-69600000D01*
X107344999Y-69600000D01*
X107352700Y-69592299D01*
X107414023Y-69558813D01*
X107483714Y-69563797D01*
G37*
%TD.AperFunction*%
%TA.AperFunction,Conductor*%
G36*
X142792951Y-69563797D02*
G01*
X142837298Y-69592298D01*
X142845000Y-69600000D01*
X150621000Y-69600000D01*
X150688039Y-69619685D01*
X150733794Y-69672489D01*
X150745000Y-69724000D01*
X150745000Y-71100000D01*
X157490500Y-71100000D01*
X157557539Y-71119685D01*
X157603294Y-71172489D01*
X157614500Y-71224000D01*
X157614500Y-76095500D01*
X157594815Y-76162539D01*
X157542011Y-76208294D01*
X157490500Y-76219500D01*
X143297129Y-76219500D01*
X143297123Y-76219501D01*
X143237516Y-76225908D01*
X143102671Y-76276202D01*
X143102664Y-76276206D01*
X142987455Y-76362452D01*
X142987452Y-76362455D01*
X142901206Y-76477664D01*
X142901202Y-76477671D01*
X142850908Y-76612517D01*
X142844501Y-76672116D01*
X142844501Y-76672123D01*
X142844500Y-76672135D01*
X142844500Y-76745500D01*
X142824815Y-76812539D01*
X142772011Y-76858294D01*
X142720500Y-76869500D01*
X141684057Y-76869500D01*
X141525942Y-76869500D01*
X141373215Y-76910423D01*
X141373214Y-76910423D01*
X141373212Y-76910424D01*
X141373209Y-76910425D01*
X141323096Y-76939359D01*
X141323095Y-76939360D01*
X141279689Y-76964420D01*
X141236285Y-76989479D01*
X141236282Y-76989481D01*
X136467181Y-81758583D01*
X136405858Y-81792068D01*
X136336166Y-81787084D01*
X136280233Y-81745212D01*
X136255816Y-81679748D01*
X136255500Y-81670902D01*
X136255500Y-76050096D01*
X136275185Y-75983057D01*
X136291814Y-75962420D01*
X141606389Y-70647844D01*
X142845000Y-70647844D01*
X142851401Y-70707372D01*
X142851403Y-70707379D01*
X142901645Y-70842086D01*
X142901649Y-70842093D01*
X142987809Y-70957187D01*
X142987812Y-70957190D01*
X143102906Y-71043350D01*
X143102913Y-71043354D01*
X143237620Y-71093596D01*
X143237627Y-71093598D01*
X143297155Y-71099999D01*
X143297172Y-71100000D01*
X150245000Y-71100000D01*
X150245000Y-70100000D01*
X142845000Y-70100000D01*
X142845000Y-70647844D01*
X141606389Y-70647844D01*
X142661936Y-69592297D01*
X142723259Y-69558813D01*
X142792951Y-69563797D01*
G37*
%TD.AperFunction*%
%TD*%
M02*
