%TF.GenerationSoftware,KiCad,Pcbnew,8.0.4*%
%TF.CreationDate,2024-11-18T10:32:11-08:00*%
%TF.ProjectId,Channel,4368616e-6e65-46c2-9e6b-696361645f70,rev?*%
%TF.SameCoordinates,Original*%
%TF.FileFunction,Legend,Bot*%
%TF.FilePolarity,Positive*%
%FSLAX46Y46*%
G04 Gerber Fmt 4.6, Leading zero omitted, Abs format (unit mm)*
G04 Created by KiCad (PCBNEW 8.0.4) date 2024-11-18 10:32:11*
%MOMM*%
%LPD*%
G01*
G04 APERTURE LIST*
%ADD10C,0.150000*%
%ADD11C,0.000000*%
G04 APERTURE END LIST*
D10*
X154003333Y-71844819D02*
X154003333Y-72559104D01*
X154003333Y-72559104D02*
X154050952Y-72701961D01*
X154050952Y-72701961D02*
X154146190Y-72797200D01*
X154146190Y-72797200D02*
X154289047Y-72844819D01*
X154289047Y-72844819D02*
X154384285Y-72844819D01*
X153574761Y-71940057D02*
X153527142Y-71892438D01*
X153527142Y-71892438D02*
X153431904Y-71844819D01*
X153431904Y-71844819D02*
X153193809Y-71844819D01*
X153193809Y-71844819D02*
X153098571Y-71892438D01*
X153098571Y-71892438D02*
X153050952Y-71940057D01*
X153050952Y-71940057D02*
X153003333Y-72035295D01*
X153003333Y-72035295D02*
X153003333Y-72130533D01*
X153003333Y-72130533D02*
X153050952Y-72273390D01*
X153050952Y-72273390D02*
X153622380Y-72844819D01*
X153622380Y-72844819D02*
X153003333Y-72844819D01*
D11*
%TO.C,G\u002A\u002A\u002A*%
G36*
X93503362Y-74698965D02*
G01*
X93503362Y-74963266D01*
X93435593Y-74963266D01*
X93367823Y-74963266D01*
X93367823Y-74698965D01*
X93367823Y-74434664D01*
X93435593Y-74434664D01*
X93503362Y-74434664D01*
X93503362Y-74698965D01*
G37*
G36*
X102408272Y-77511398D02*
G01*
X102408272Y-78649925D01*
X102096532Y-78649925D01*
X101784792Y-78649925D01*
X101784792Y-77511398D01*
X101784792Y-76372871D01*
X102096532Y-76372871D01*
X102408272Y-76372871D01*
X102408272Y-77511398D01*
G37*
G36*
X90856964Y-74437376D02*
G01*
X90934899Y-74441441D01*
X90938660Y-74634584D01*
X90942420Y-74827727D01*
X91016595Y-74827727D01*
X91090769Y-74827727D01*
X91090769Y-74895496D01*
X91090769Y-74963266D01*
X90853576Y-74963266D01*
X90616383Y-74963266D01*
X90616383Y-74895496D01*
X90616383Y-74827727D01*
X90697706Y-74827727D01*
X90779029Y-74827727D01*
X90779029Y-74630519D01*
X90779029Y-74433311D01*
X90856964Y-74437376D01*
G37*
G36*
X84906039Y-78019691D02*
G01*
X84944962Y-78046750D01*
X84976183Y-78092521D01*
X84997015Y-78153999D01*
X85004772Y-78228182D01*
X85001640Y-78286671D01*
X84986007Y-78359297D01*
X84958798Y-78415104D01*
X84921743Y-78450916D01*
X84876570Y-78463559D01*
X84849080Y-78459535D01*
X84806999Y-78433583D01*
X84775010Y-78385917D01*
X84754672Y-78319283D01*
X84747546Y-78236427D01*
X84751060Y-78182562D01*
X84766479Y-78114805D01*
X84792034Y-78061055D01*
X84825385Y-78027585D01*
X84862100Y-78014348D01*
X84906039Y-78019691D01*
G37*
G36*
X85795985Y-78030292D02*
G01*
X85830168Y-78063442D01*
X85857468Y-78110692D01*
X85875428Y-78168860D01*
X85881592Y-78234760D01*
X85873501Y-78305209D01*
X85860501Y-78350829D01*
X85831318Y-78409890D01*
X85794302Y-78447498D01*
X85751614Y-78461781D01*
X85705419Y-78450863D01*
X85669758Y-78421547D01*
X85639851Y-78370395D01*
X85621655Y-78306357D01*
X85615646Y-78235797D01*
X85622296Y-78165077D01*
X85642079Y-78100563D01*
X85675470Y-78048617D01*
X85676714Y-78047289D01*
X85716801Y-78019032D01*
X85757377Y-78014428D01*
X85795985Y-78030292D01*
G37*
G36*
X89169504Y-76376167D02*
G01*
X90108111Y-76379648D01*
X90111793Y-76640560D01*
X90115474Y-76901473D01*
X89518810Y-76901473D01*
X88922146Y-76901473D01*
X88922146Y-77118335D01*
X88922146Y-77335198D01*
X89457524Y-77335198D01*
X89992903Y-77335198D01*
X89992903Y-77572391D01*
X89992903Y-77809584D01*
X89457524Y-77809584D01*
X88922146Y-77809584D01*
X88922146Y-77985785D01*
X88922146Y-78161985D01*
X89498186Y-78161985D01*
X90074227Y-78161985D01*
X90074227Y-78405955D01*
X90074227Y-78649925D01*
X89152562Y-78649925D01*
X88230897Y-78649925D01*
X88230897Y-77511305D01*
X88230897Y-76372685D01*
X89169504Y-76376167D01*
G37*
G36*
X86339763Y-81417759D02*
G01*
X86387077Y-81447350D01*
X86432338Y-81485111D01*
X86530689Y-81542864D01*
X86635913Y-81576128D01*
X86744678Y-81584826D01*
X86853649Y-81568882D01*
X86959493Y-81528221D01*
X87058876Y-81462764D01*
X87090711Y-81438521D01*
X87139656Y-81412225D01*
X87182917Y-81406761D01*
X87226047Y-81420734D01*
X87258761Y-81442369D01*
X87287037Y-81482629D01*
X87295678Y-81538712D01*
X87295298Y-81548469D01*
X87287756Y-81576882D01*
X87267142Y-81606867D01*
X87228998Y-81645565D01*
X87127211Y-81724754D01*
X87006926Y-81785606D01*
X86875003Y-81822608D01*
X86733192Y-81835091D01*
X86726183Y-81835061D01*
X86587076Y-81821619D01*
X86456741Y-81784554D01*
X86338369Y-81725087D01*
X86235149Y-81644440D01*
X86219886Y-81629470D01*
X86189507Y-81595006D01*
X86174642Y-81566308D01*
X86170705Y-81535636D01*
X86177184Y-81492821D01*
X86202791Y-81445048D01*
X86243313Y-81414293D01*
X86286708Y-81406671D01*
X86339763Y-81417759D01*
G37*
G36*
X92788394Y-74437344D02*
G01*
X92859552Y-74441441D01*
X92863676Y-74556649D01*
X92864916Y-74608709D01*
X92863036Y-74678205D01*
X92855334Y-74729072D01*
X92840847Y-74766419D01*
X92818608Y-74795356D01*
X92797248Y-74811561D01*
X92747433Y-74827272D01*
X92693304Y-74823376D01*
X92644518Y-74799635D01*
X92626351Y-74786204D01*
X92612281Y-74781106D01*
X92608805Y-74792858D01*
X92603842Y-74804993D01*
X92583118Y-74812168D01*
X92541036Y-74814173D01*
X92473266Y-74814173D01*
X92473266Y-74624418D01*
X92473266Y-74434664D01*
X92539687Y-74434664D01*
X92606108Y-74434664D01*
X92610845Y-74557750D01*
X92611201Y-74566683D01*
X92614642Y-74625046D01*
X92619962Y-74662794D01*
X92628394Y-74685701D01*
X92641174Y-74699540D01*
X92661653Y-74709891D01*
X92692001Y-74704740D01*
X92699058Y-74700107D01*
X92708474Y-74686993D01*
X92713993Y-74663317D01*
X92716588Y-74623569D01*
X92717236Y-74562241D01*
X92717236Y-74433247D01*
X92788394Y-74437344D01*
G37*
G36*
X92341116Y-74437344D02*
G01*
X92412274Y-74441441D01*
X92416398Y-74556649D01*
X92417637Y-74608709D01*
X92415757Y-74678205D01*
X92408056Y-74729072D01*
X92393568Y-74766419D01*
X92371330Y-74795356D01*
X92351470Y-74810260D01*
X92303519Y-74826264D01*
X92251794Y-74825755D01*
X92208167Y-74807827D01*
X92198023Y-74800420D01*
X92178476Y-74790556D01*
X92167469Y-74797428D01*
X92162615Y-74824483D01*
X92161527Y-74875166D01*
X92161527Y-74963266D01*
X92093757Y-74963266D01*
X92025988Y-74963266D01*
X92025988Y-74698965D01*
X92025988Y-74434664D01*
X92092409Y-74434664D01*
X92158829Y-74434664D01*
X92163567Y-74557750D01*
X92163922Y-74566683D01*
X92167364Y-74625046D01*
X92172683Y-74662794D01*
X92181115Y-74685701D01*
X92193895Y-74699540D01*
X92214374Y-74709891D01*
X92244722Y-74704740D01*
X92251779Y-74700107D01*
X92261196Y-74686993D01*
X92266714Y-74663317D01*
X92269309Y-74623569D01*
X92269958Y-74562241D01*
X92269958Y-74433247D01*
X92341116Y-74437344D01*
G37*
G36*
X88411618Y-74436786D02*
G01*
X88482210Y-74454099D01*
X88533833Y-74489861D01*
X88565591Y-74543564D01*
X88565616Y-74543638D01*
X88572111Y-74576473D01*
X88577389Y-74630331D01*
X88581009Y-74699157D01*
X88582533Y-74776900D01*
X88583298Y-74963266D01*
X88501975Y-74963266D01*
X88420651Y-74963266D01*
X88420651Y-74786174D01*
X88420245Y-74730230D01*
X88417491Y-74658858D01*
X88411451Y-74609145D01*
X88401324Y-74577760D01*
X88386314Y-74561371D01*
X88365620Y-74556649D01*
X88364669Y-74556659D01*
X88342659Y-74566725D01*
X88330228Y-74598762D01*
X88329309Y-74603279D01*
X88321287Y-74628302D01*
X88305647Y-74636274D01*
X88272963Y-74632796D01*
X88269060Y-74632162D01*
X88229620Y-74626835D01*
X88200401Y-74624568D01*
X88198122Y-74624476D01*
X88179874Y-74613040D01*
X88175910Y-74586703D01*
X88184115Y-74551498D01*
X88202371Y-74513458D01*
X88228564Y-74478614D01*
X88260577Y-74453000D01*
X88281416Y-74445660D01*
X88324550Y-74438218D01*
X88374597Y-74435144D01*
X88411618Y-74436786D01*
G37*
G36*
X93828435Y-74441381D02*
G01*
X93894856Y-74467183D01*
X93942156Y-74511151D01*
X93969005Y-74571950D01*
X93974070Y-74648242D01*
X93971391Y-74670459D01*
X93948114Y-74736660D01*
X93904563Y-74786095D01*
X93842762Y-74817030D01*
X93764736Y-74827727D01*
X93751626Y-74827463D01*
X93676757Y-74813159D01*
X93617611Y-74776852D01*
X93573753Y-74718293D01*
X93566941Y-74704127D01*
X93549191Y-74634412D01*
X93549323Y-74633244D01*
X93695270Y-74633244D01*
X93705632Y-74682680D01*
X93725635Y-74713653D01*
X93757908Y-74725956D01*
X93796681Y-74712514D01*
X93812579Y-74699439D01*
X93825307Y-74673860D01*
X93828656Y-74631851D01*
X93828621Y-74627815D01*
X93822428Y-74581042D01*
X93807357Y-74550840D01*
X93774469Y-74530816D01*
X93743344Y-74533348D01*
X93717512Y-74554189D01*
X93700358Y-74588950D01*
X93695270Y-74633244D01*
X93549323Y-74633244D01*
X93556736Y-74567780D01*
X93588406Y-74508583D01*
X93643026Y-74461175D01*
X93686907Y-74443066D01*
X93761098Y-74434715D01*
X93828435Y-74441381D01*
G37*
G36*
X89751867Y-74438620D02*
G01*
X89792143Y-74440971D01*
X89830296Y-74447232D01*
X89857852Y-74459857D01*
X89884320Y-74481957D01*
X89902511Y-74501346D01*
X89938417Y-74561493D01*
X89951232Y-74624478D01*
X89942853Y-74685895D01*
X89915181Y-74741335D01*
X89870112Y-74786392D01*
X89809545Y-74816659D01*
X89735379Y-74827727D01*
X89720720Y-74827354D01*
X89646312Y-74812340D01*
X89586566Y-74777787D01*
X89544403Y-74726993D01*
X89522748Y-74663256D01*
X89523580Y-74628874D01*
X89667610Y-74628874D01*
X89669855Y-74650527D01*
X89684616Y-74690456D01*
X89708350Y-74720800D01*
X89735379Y-74732850D01*
X89751767Y-74725642D01*
X89776041Y-74705742D01*
X89794319Y-74676347D01*
X89803294Y-74631141D01*
X89798033Y-74585862D01*
X89778362Y-74551973D01*
X89763445Y-74540882D01*
X89728261Y-74532072D01*
X89697563Y-74545882D01*
X89675847Y-74579190D01*
X89667610Y-74628874D01*
X89523580Y-74628874D01*
X89524524Y-74589873D01*
X89531458Y-74566320D01*
X89557714Y-74517692D01*
X89594097Y-74474430D01*
X89632620Y-74447086D01*
X89657084Y-74441761D01*
X89700666Y-74438489D01*
X89751867Y-74438620D01*
G37*
G36*
X90199146Y-74438620D02*
G01*
X90239422Y-74440971D01*
X90277575Y-74447232D01*
X90305131Y-74459857D01*
X90331599Y-74481957D01*
X90349789Y-74501346D01*
X90385696Y-74561493D01*
X90398510Y-74624478D01*
X90390132Y-74685895D01*
X90362459Y-74741335D01*
X90317390Y-74786392D01*
X90256824Y-74816659D01*
X90182658Y-74827727D01*
X90167998Y-74827354D01*
X90093591Y-74812340D01*
X90033845Y-74777787D01*
X89991682Y-74726993D01*
X89970027Y-74663256D01*
X89970859Y-74628874D01*
X90114888Y-74628874D01*
X90117134Y-74650527D01*
X90131895Y-74690456D01*
X90155628Y-74720800D01*
X90182658Y-74732850D01*
X90199045Y-74725642D01*
X90223320Y-74705742D01*
X90241598Y-74676347D01*
X90250573Y-74631141D01*
X90245312Y-74585862D01*
X90225641Y-74551973D01*
X90210724Y-74540882D01*
X90175539Y-74532072D01*
X90144842Y-74545882D01*
X90123126Y-74579190D01*
X90114888Y-74628874D01*
X89970859Y-74628874D01*
X89971802Y-74589873D01*
X89978736Y-74566320D01*
X90004992Y-74517692D01*
X90041376Y-74474430D01*
X90079898Y-74447086D01*
X90104363Y-74441761D01*
X90147945Y-74438489D01*
X90199146Y-74438620D01*
G37*
G36*
X93126787Y-74438620D02*
G01*
X93167063Y-74440971D01*
X93205216Y-74447232D01*
X93232772Y-74459857D01*
X93259240Y-74481957D01*
X93277431Y-74501346D01*
X93313337Y-74561493D01*
X93326152Y-74624478D01*
X93317773Y-74685895D01*
X93290100Y-74741335D01*
X93245031Y-74786392D01*
X93184465Y-74816659D01*
X93110299Y-74827727D01*
X93095640Y-74827354D01*
X93021232Y-74812340D01*
X92961486Y-74777787D01*
X92919323Y-74726993D01*
X92897668Y-74663256D01*
X92898500Y-74628874D01*
X93042530Y-74628874D01*
X93044775Y-74650527D01*
X93059536Y-74690456D01*
X93083270Y-74720800D01*
X93110299Y-74732850D01*
X93126687Y-74725642D01*
X93150961Y-74705742D01*
X93169239Y-74676347D01*
X93178214Y-74631141D01*
X93172953Y-74585862D01*
X93153282Y-74551973D01*
X93138365Y-74540882D01*
X93103181Y-74532072D01*
X93072483Y-74545882D01*
X93050767Y-74579190D01*
X93042530Y-74628874D01*
X92898500Y-74628874D01*
X92899444Y-74589873D01*
X92906377Y-74566320D01*
X92932634Y-74517692D01*
X92969017Y-74474430D01*
X93007540Y-74447086D01*
X93032004Y-74441761D01*
X93075586Y-74438489D01*
X93126787Y-74438620D01*
G37*
G36*
X89477855Y-74698965D02*
G01*
X89477855Y-74963266D01*
X89410086Y-74963266D01*
X89342316Y-74963266D01*
X89342316Y-74874397D01*
X89342316Y-74785528D01*
X89312193Y-74806627D01*
X89280819Y-74822472D01*
X89226220Y-74828990D01*
X89172030Y-74814678D01*
X89125342Y-74781919D01*
X89093249Y-74733096D01*
X89085758Y-74711725D01*
X89073834Y-74639092D01*
X89075000Y-74626161D01*
X89220331Y-74626161D01*
X89224317Y-74661959D01*
X89240949Y-74698130D01*
X89266217Y-74715710D01*
X89295415Y-74712046D01*
X89323838Y-74684486D01*
X89330175Y-74673965D01*
X89339869Y-74641330D01*
X89334316Y-74599775D01*
X89328702Y-74580453D01*
X89313299Y-74555171D01*
X89288006Y-74545901D01*
X89287617Y-74545856D01*
X89249741Y-74551008D01*
X89227560Y-74577483D01*
X89220331Y-74626161D01*
X89075000Y-74626161D01*
X89080250Y-74567941D01*
X89103713Y-74505423D01*
X89142927Y-74458685D01*
X89168389Y-74445407D01*
X89217724Y-74436042D01*
X89269543Y-74439073D01*
X89310817Y-74454800D01*
X89323307Y-74463102D01*
X89338726Y-74467665D01*
X89347293Y-74454800D01*
X89348591Y-74452119D01*
X89370528Y-74438940D01*
X89416437Y-74434664D01*
X89477855Y-74434664D01*
X89477855Y-74698965D01*
G37*
G36*
X91849180Y-74440508D02*
G01*
X91890042Y-74452004D01*
X91906372Y-74462884D01*
X91934339Y-74490160D01*
X91959315Y-74522616D01*
X91975606Y-74552452D01*
X91977520Y-74571868D01*
X91963410Y-74580876D01*
X91930070Y-74585063D01*
X91888876Y-74581770D01*
X91849766Y-74571973D01*
X91822679Y-74556649D01*
X91793403Y-74534950D01*
X91761059Y-74533575D01*
X91726228Y-74558223D01*
X91714413Y-74571804D01*
X91703219Y-74600041D01*
X91704828Y-74641187D01*
X91707018Y-74656222D01*
X91716378Y-74692290D01*
X91733464Y-74712425D01*
X91764382Y-74725243D01*
X91789113Y-74726658D01*
X91821758Y-74706663D01*
X91841149Y-74691328D01*
X91868369Y-74684389D01*
X91910552Y-74687481D01*
X91939372Y-74692628D01*
X91965495Y-74704851D01*
X91968183Y-74725417D01*
X91949670Y-74758373D01*
X91948064Y-74760602D01*
X91905414Y-74796745D01*
X91843022Y-74819683D01*
X91765511Y-74827676D01*
X91724704Y-74824986D01*
X91654956Y-74804119D01*
X91602991Y-74763985D01*
X91570558Y-74706237D01*
X91559405Y-74632530D01*
X91559525Y-74624284D01*
X91571998Y-74551740D01*
X91603638Y-74494350D01*
X91652560Y-74455692D01*
X91679193Y-74446437D01*
X91732786Y-74437895D01*
X91793105Y-74435862D01*
X91849180Y-74440508D01*
G37*
G36*
X94581273Y-74289467D02*
G01*
X94619967Y-74298520D01*
X94634997Y-74304865D01*
X94650619Y-74314538D01*
X94665207Y-74329310D01*
X94680194Y-74352107D01*
X94697015Y-74385851D01*
X94717102Y-74433469D01*
X94741890Y-74497883D01*
X94772812Y-74582019D01*
X94811301Y-74688799D01*
X94856312Y-74814173D01*
X94784471Y-74814173D01*
X94712629Y-74814173D01*
X94682614Y-74702353D01*
X94677128Y-74682102D01*
X94663778Y-74634422D01*
X94653581Y-74600290D01*
X94648401Y-74586043D01*
X94646547Y-74588016D01*
X94638023Y-74608700D01*
X94624763Y-74647157D01*
X94608726Y-74697862D01*
X94573249Y-74814173D01*
X94497688Y-74814173D01*
X94484184Y-74814097D01*
X94446877Y-74811970D01*
X94430386Y-74805836D01*
X94429773Y-74794248D01*
X94430691Y-74791899D01*
X94440487Y-74767599D01*
X94457963Y-74724709D01*
X94480957Y-74668527D01*
X94507307Y-74604346D01*
X94523940Y-74563416D01*
X94548804Y-74497589D01*
X94561832Y-74451299D01*
X94562748Y-74421169D01*
X94551276Y-74403827D01*
X94527139Y-74395896D01*
X94490060Y-74394002D01*
X94472273Y-74393907D01*
X94447816Y-74390746D01*
X94441206Y-74378246D01*
X94445984Y-74349952D01*
X94446398Y-74348098D01*
X94457555Y-74315172D01*
X94470780Y-74295944D01*
X94493925Y-74288756D01*
X94535348Y-74286145D01*
X94581273Y-74289467D01*
G37*
G36*
X87568170Y-81767797D02*
G01*
X87608784Y-81798948D01*
X87637310Y-81844043D01*
X87648079Y-81897902D01*
X87644180Y-81916463D01*
X87620100Y-81956307D01*
X87577207Y-82003061D01*
X87519178Y-82053859D01*
X87449686Y-82105834D01*
X87372408Y-82156120D01*
X87291020Y-82201852D01*
X87209195Y-82240162D01*
X87181916Y-82251318D01*
X87094916Y-82283177D01*
X87014133Y-82305283D01*
X86931299Y-82319142D01*
X86838149Y-82326261D01*
X86726415Y-82328146D01*
X86663023Y-82327629D01*
X86588169Y-82325128D01*
X86527899Y-82319910D01*
X86474798Y-82311253D01*
X86421452Y-82298433D01*
X86408885Y-82294926D01*
X86305779Y-82259253D01*
X86198859Y-82211568D01*
X86094196Y-82155378D01*
X85997860Y-82094190D01*
X85915923Y-82031512D01*
X85854454Y-81970851D01*
X85837989Y-81947059D01*
X85820721Y-81894516D01*
X85824587Y-81842452D01*
X85848385Y-81797600D01*
X85890912Y-81766694D01*
X85902879Y-81762461D01*
X85950724Y-81760536D01*
X86004487Y-81781600D01*
X86066746Y-81826530D01*
X86166112Y-81902275D01*
X86311173Y-81985542D01*
X86463449Y-82043182D01*
X86621589Y-82074841D01*
X86784241Y-82080163D01*
X86950054Y-82058793D01*
X87002856Y-82044955D01*
X87100061Y-82008616D01*
X87200917Y-81959681D01*
X87296279Y-81902783D01*
X87377002Y-81842554D01*
X87390564Y-81831126D01*
X87434225Y-81796918D01*
X87471626Y-81771200D01*
X87495861Y-81758838D01*
X87521139Y-81755770D01*
X87568170Y-81767797D01*
G37*
G36*
X85425868Y-77612661D02*
G01*
X85470360Y-77620530D01*
X85499337Y-77633010D01*
X85505334Y-77639185D01*
X85518011Y-77668554D01*
X85517956Y-77700744D01*
X85504433Y-77722801D01*
X85499114Y-77725014D01*
X85470073Y-77729540D01*
X85430261Y-77730282D01*
X85401408Y-77731534D01*
X85362536Y-77747139D01*
X85336892Y-77782583D01*
X85321354Y-77841044D01*
X85319020Y-77860079D01*
X85322033Y-77885122D01*
X85337405Y-77909445D01*
X85369412Y-77942033D01*
X85398740Y-77973242D01*
X85422497Y-78013730D01*
X85420657Y-78045341D01*
X85393236Y-78068052D01*
X85340253Y-78081840D01*
X85261726Y-78086680D01*
X85199111Y-78084730D01*
X85154260Y-78077273D01*
X85122659Y-78063137D01*
X85098734Y-78045121D01*
X85094141Y-78028131D01*
X85106314Y-78000131D01*
X85128707Y-77966990D01*
X85160669Y-77934203D01*
X85182541Y-77907715D01*
X85195571Y-77862055D01*
X85190442Y-77813186D01*
X85166780Y-77771039D01*
X85156215Y-77760714D01*
X85129444Y-77747352D01*
X85092085Y-77749689D01*
X85045351Y-77749931D01*
X85015515Y-77731031D01*
X85005070Y-77694376D01*
X85005071Y-77693928D01*
X85015516Y-77658952D01*
X85047656Y-77636103D01*
X85103343Y-77624056D01*
X85148813Y-77624167D01*
X85211453Y-77644432D01*
X85214715Y-77646128D01*
X85246606Y-77660711D01*
X85264992Y-77661924D01*
X85278752Y-77650577D01*
X85292439Y-77637573D01*
X85323116Y-77618435D01*
X85335713Y-77614509D01*
X85377205Y-77610341D01*
X85425868Y-77612661D01*
G37*
G36*
X85628678Y-82115199D02*
G01*
X85680725Y-82146620D01*
X85743757Y-82200265D01*
X85811562Y-82258325D01*
X85934501Y-82345028D01*
X86071995Y-82422792D01*
X86119080Y-82445430D01*
X86300857Y-82514474D01*
X86488096Y-82558380D01*
X86678175Y-82577511D01*
X86868470Y-82572232D01*
X87056360Y-82542907D01*
X87239222Y-82489900D01*
X87414432Y-82413574D01*
X87579368Y-82314295D01*
X87731407Y-82192426D01*
X87738147Y-82186275D01*
X87792024Y-82141775D01*
X87835908Y-82116708D01*
X87875171Y-82108837D01*
X87915187Y-82115926D01*
X87942154Y-82130767D01*
X87974922Y-82168471D01*
X87994289Y-82215894D01*
X87994741Y-82262852D01*
X87984986Y-82285596D01*
X87951910Y-82329954D01*
X87900435Y-82381842D01*
X87834157Y-82438446D01*
X87756671Y-82496950D01*
X87671571Y-82554540D01*
X87582452Y-82608402D01*
X87492911Y-82655720D01*
X87354779Y-82717377D01*
X87206749Y-82768708D01*
X87057956Y-82803117D01*
X86900483Y-82822389D01*
X86726415Y-82828306D01*
X86638807Y-82826559D01*
X86453504Y-82809799D01*
X86279181Y-82773863D01*
X86108637Y-82717015D01*
X85934669Y-82637519D01*
X85857233Y-82594522D01*
X85740939Y-82519533D01*
X85629558Y-82436417D01*
X85533730Y-82352730D01*
X85506234Y-82325265D01*
X85480811Y-82294286D01*
X85468875Y-82267244D01*
X85465902Y-82236380D01*
X85466073Y-82228032D01*
X85476012Y-82184724D01*
X85505521Y-82145788D01*
X85544060Y-82115941D01*
X85584247Y-82105229D01*
X85628678Y-82115199D01*
G37*
G36*
X108504136Y-76376005D02*
G01*
X108812487Y-76379648D01*
X108819616Y-76874365D01*
X108821639Y-77009287D01*
X108823777Y-77122353D01*
X108826439Y-77213893D01*
X108830070Y-77286719D01*
X108835114Y-77343643D01*
X108842017Y-77387479D01*
X108851224Y-77421038D01*
X108863179Y-77447133D01*
X108878329Y-77468578D01*
X108897117Y-77488184D01*
X108919989Y-77508764D01*
X108942768Y-77526271D01*
X109006937Y-77555591D01*
X109075011Y-77563468D01*
X109141016Y-77550688D01*
X109198974Y-77518035D01*
X109242909Y-77466297D01*
X109243991Y-77464034D01*
X109248641Y-77443951D01*
X109252696Y-77406918D01*
X109256226Y-77351242D01*
X109259304Y-77275230D01*
X109262002Y-77177189D01*
X109264391Y-77055427D01*
X109266543Y-76908250D01*
X109273320Y-76379648D01*
X109585059Y-76379648D01*
X109896799Y-76379648D01*
X109896799Y-76982796D01*
X109896768Y-77049282D01*
X109896418Y-77193160D01*
X109895624Y-77313169D01*
X109894323Y-77411605D01*
X109892452Y-77490761D01*
X109889947Y-77552933D01*
X109886744Y-77600415D01*
X109882779Y-77635503D01*
X109877989Y-77660491D01*
X109844792Y-77761595D01*
X109789362Y-77863753D01*
X109716846Y-77944875D01*
X109627096Y-78005084D01*
X109519964Y-78044503D01*
X109395305Y-78063255D01*
X109335395Y-78065111D01*
X109202227Y-78053010D01*
X109080819Y-78017046D01*
X108969149Y-77956484D01*
X108865195Y-77870589D01*
X108778602Y-77785685D01*
X108778602Y-77906066D01*
X108778602Y-78026446D01*
X108487194Y-78026446D01*
X108195785Y-78026446D01*
X108195785Y-77199404D01*
X108195785Y-76372362D01*
X108504136Y-76376005D01*
G37*
G36*
X91337960Y-74437456D02*
G01*
X91361744Y-74438493D01*
X91407980Y-74442167D01*
X91438623Y-74449387D01*
X91461979Y-74462825D01*
X91486357Y-74485149D01*
X91499300Y-74498667D01*
X91518837Y-74522537D01*
X91523798Y-74534686D01*
X91509440Y-74540285D01*
X91475255Y-74543819D01*
X91432989Y-74543489D01*
X91393121Y-74539476D01*
X91366126Y-74531960D01*
X91340772Y-74520503D01*
X91308864Y-74518885D01*
X91278202Y-74538419D01*
X91268302Y-74547809D01*
X91252639Y-74568501D01*
X91255401Y-74582720D01*
X91278738Y-74591544D01*
X91324799Y-74596048D01*
X91395732Y-74597311D01*
X91538047Y-74597311D01*
X91538047Y-74631631D01*
X91530497Y-74678341D01*
X91504222Y-74737081D01*
X91464588Y-74786659D01*
X91456338Y-74793840D01*
X91428700Y-74810602D01*
X91392090Y-74820113D01*
X91337467Y-74825105D01*
X91302820Y-74826491D01*
X91261065Y-74824612D01*
X91229902Y-74815818D01*
X91199200Y-74798133D01*
X91197363Y-74796882D01*
X91147712Y-74748610D01*
X91117337Y-74689325D01*
X91115518Y-74678634D01*
X91253416Y-74678634D01*
X91258239Y-74691077D01*
X91276729Y-74714934D01*
X91299993Y-74736816D01*
X91318169Y-74746404D01*
X91328496Y-74744127D01*
X91354805Y-74728269D01*
X91378598Y-74705265D01*
X91388955Y-74684642D01*
X91385212Y-74675305D01*
X91364345Y-74667421D01*
X91321185Y-74665080D01*
X91296774Y-74665995D01*
X91265606Y-74670902D01*
X91253416Y-74678634D01*
X91115518Y-74678634D01*
X91106376Y-74624898D01*
X91114965Y-74561202D01*
X91143241Y-74504106D01*
X91191338Y-74459482D01*
X91207665Y-74450416D01*
X91238085Y-74440493D01*
X91278743Y-74436590D01*
X91337960Y-74437456D01*
G37*
G36*
X89047458Y-74539707D02*
G01*
X89043684Y-74615723D01*
X89036100Y-74690756D01*
X89023488Y-74745025D01*
X89003798Y-74782063D01*
X88974980Y-74805398D01*
X88934985Y-74818561D01*
X88881762Y-74825082D01*
X88856295Y-74826556D01*
X88774687Y-74824210D01*
X88713542Y-74808905D01*
X88669884Y-74780006D01*
X88642997Y-74747531D01*
X88639176Y-74724684D01*
X88660228Y-74710648D01*
X88707010Y-74703661D01*
X88724564Y-74702817D01*
X88765010Y-74705192D01*
X88782537Y-74714684D01*
X88789223Y-74723844D01*
X88816057Y-74736965D01*
X88849440Y-74740423D01*
X88876003Y-74731774D01*
X88885296Y-74723219D01*
X88893260Y-74705781D01*
X88877934Y-74691900D01*
X88837434Y-74678994D01*
X88782541Y-74665099D01*
X88728691Y-74650013D01*
X88692197Y-74637103D01*
X88667812Y-74624439D01*
X88650291Y-74610088D01*
X88641652Y-74599979D01*
X88625232Y-74557240D01*
X88627491Y-74537369D01*
X88777551Y-74537369D01*
X88777922Y-74560508D01*
X88802167Y-74586120D01*
X88850988Y-74608379D01*
X88876493Y-74615772D01*
X88891626Y-74614315D01*
X88895038Y-74599621D01*
X88890037Y-74577405D01*
X88873938Y-74546111D01*
X88857873Y-74530206D01*
X88826691Y-74517458D01*
X88796524Y-74519538D01*
X88777551Y-74537369D01*
X88627491Y-74537369D01*
X88630567Y-74510309D01*
X88657229Y-74467933D01*
X88682496Y-74447891D01*
X88714572Y-74437405D01*
X88762644Y-74434664D01*
X88769153Y-74434723D01*
X88826660Y-74441167D01*
X88866652Y-74456981D01*
X88885322Y-74469124D01*
X88899922Y-74471419D01*
X88911003Y-74456981D01*
X88915166Y-74451272D01*
X88940622Y-74438588D01*
X88987464Y-74434664D01*
X89051434Y-74434664D01*
X89047458Y-74539707D01*
G37*
G36*
X94262344Y-74292822D02*
G01*
X94316596Y-74309311D01*
X94323833Y-74313052D01*
X94355810Y-74334569D01*
X94379169Y-74362527D01*
X94395161Y-74401039D01*
X94405038Y-74454219D01*
X94410051Y-74526178D01*
X94411452Y-74621030D01*
X94411473Y-74814173D01*
X94343704Y-74814173D01*
X94305122Y-74812612D01*
X94282309Y-74806094D01*
X94275934Y-74792858D01*
X94274496Y-74783147D01*
X94264494Y-74782617D01*
X94240222Y-74799635D01*
X94210980Y-74816331D01*
X94157724Y-74826729D01*
X94102830Y-74819339D01*
X94054794Y-74795794D01*
X94022109Y-74757725D01*
X94017700Y-74748354D01*
X93998241Y-74680957D01*
X93997936Y-74633055D01*
X94140395Y-74633055D01*
X94146502Y-74674157D01*
X94167797Y-74707277D01*
X94201388Y-74719296D01*
X94225561Y-74712750D01*
X94249714Y-74687411D01*
X94261938Y-74650851D01*
X94259853Y-74611539D01*
X94241081Y-74577948D01*
X94225200Y-74565536D01*
X94201388Y-74556649D01*
X94173177Y-74567781D01*
X94149894Y-74596509D01*
X94140395Y-74633055D01*
X93997936Y-74633055D01*
X93997821Y-74614959D01*
X94014414Y-74555201D01*
X94045994Y-74506523D01*
X94090532Y-74473766D01*
X94146005Y-74461772D01*
X94155541Y-74462053D01*
X94199158Y-74469168D01*
X94232257Y-74482871D01*
X94250413Y-74494584D01*
X94260632Y-74492831D01*
X94262380Y-74468426D01*
X94261703Y-74453807D01*
X94249632Y-74411314D01*
X94226069Y-74386026D01*
X94195735Y-74381200D01*
X94163349Y-74400093D01*
X94152603Y-74407278D01*
X94118212Y-74419939D01*
X94074280Y-74428947D01*
X94057104Y-74431104D01*
X94023830Y-74433210D01*
X94008538Y-74428392D01*
X94004856Y-74415406D01*
X94004930Y-74411956D01*
X94018251Y-74365444D01*
X94049128Y-74324833D01*
X94089739Y-74300691D01*
X94123980Y-74292967D01*
X94194376Y-74287230D01*
X94262344Y-74292822D01*
G37*
G36*
X101160431Y-76352806D02*
G01*
X101245729Y-76356091D01*
X101325361Y-76360853D01*
X101393059Y-76366923D01*
X101442557Y-76374132D01*
X101448023Y-76375249D01*
X101495057Y-76387089D01*
X101519968Y-76399355D01*
X101527268Y-76414179D01*
X101527226Y-76416204D01*
X101525384Y-76441370D01*
X101521273Y-76484979D01*
X101515516Y-76541354D01*
X101508740Y-76604819D01*
X101501571Y-76669696D01*
X101494633Y-76730310D01*
X101488553Y-76780984D01*
X101483956Y-76816042D01*
X101481468Y-76829806D01*
X101473324Y-76829185D01*
X101445270Y-76823251D01*
X101404653Y-76813034D01*
X101343333Y-76799087D01*
X101285405Y-76793987D01*
X101242406Y-76802516D01*
X101209475Y-76824971D01*
X101206332Y-76828306D01*
X101191511Y-76851357D01*
X101180041Y-76885001D01*
X101171663Y-76931978D01*
X101166120Y-76995034D01*
X101163152Y-77076909D01*
X101162500Y-77180347D01*
X101163907Y-77308090D01*
X101168090Y-77558837D01*
X101334125Y-77562642D01*
X101500161Y-77566448D01*
X101500161Y-77796447D01*
X101500161Y-78026446D01*
X101330987Y-78026446D01*
X101161813Y-78026446D01*
X101158175Y-78337451D01*
X101154536Y-78648455D01*
X100849574Y-78489932D01*
X100544611Y-78331409D01*
X100540779Y-78178928D01*
X100536946Y-78026446D01*
X100428959Y-78026446D01*
X100320972Y-78026446D01*
X100320972Y-77796030D01*
X100320972Y-77565614D01*
X100427457Y-77565614D01*
X100533941Y-77565614D01*
X100542252Y-77162385D01*
X100542756Y-77138956D01*
X100545516Y-77034346D01*
X100548890Y-76936315D01*
X100552682Y-76848968D01*
X100556699Y-76776410D01*
X100560744Y-76722748D01*
X100564623Y-76692086D01*
X100585704Y-76617435D01*
X100632886Y-76523043D01*
X100698501Y-76447863D01*
X100781627Y-76392866D01*
X100881340Y-76359022D01*
X100887902Y-76357807D01*
X100933201Y-76353498D01*
X100997900Y-76351341D01*
X101075732Y-76351166D01*
X101160431Y-76352806D01*
G37*
G36*
X105605487Y-76352878D02*
G01*
X105693887Y-76357648D01*
X105772536Y-76364815D01*
X105835167Y-76374296D01*
X105921027Y-76391637D01*
X105913613Y-76446635D01*
X105909932Y-76476762D01*
X105904043Y-76529605D01*
X105897150Y-76594720D01*
X105890101Y-76664280D01*
X105889928Y-76666032D01*
X105883575Y-76728810D01*
X105878085Y-76780585D01*
X105874038Y-76816028D01*
X105872018Y-76829816D01*
X105864210Y-76829182D01*
X105836539Y-76823241D01*
X105796115Y-76813034D01*
X105734281Y-76799018D01*
X105677478Y-76794310D01*
X105633856Y-76803091D01*
X105597581Y-76825732D01*
X105559552Y-76858423D01*
X105555331Y-77212018D01*
X105551109Y-77565614D01*
X105721366Y-77565614D01*
X105891623Y-77565614D01*
X105891623Y-77796030D01*
X105891623Y-78026446D01*
X105722199Y-78026446D01*
X105552775Y-78026446D01*
X105552775Y-78338186D01*
X105552633Y-78390059D01*
X105551761Y-78473439D01*
X105550199Y-78544779D01*
X105548071Y-78600313D01*
X105545500Y-78636273D01*
X105542610Y-78648894D01*
X105533329Y-78644913D01*
X105502698Y-78629763D01*
X105454122Y-78604929D01*
X105390955Y-78572142D01*
X105316550Y-78533133D01*
X105234259Y-78489636D01*
X104936073Y-78331409D01*
X104932241Y-78178928D01*
X104928408Y-78026446D01*
X104813644Y-78026446D01*
X104698880Y-78026446D01*
X104698880Y-77796030D01*
X104698880Y-77565614D01*
X104812539Y-77565614D01*
X104926198Y-77565614D01*
X104933334Y-77148831D01*
X104933432Y-77143178D01*
X104935937Y-77027576D01*
X104939159Y-76922079D01*
X104942936Y-76830086D01*
X104947108Y-76755000D01*
X104951515Y-76700221D01*
X104955996Y-76669149D01*
X104975499Y-76611835D01*
X105013685Y-76538602D01*
X105061306Y-76473351D01*
X105112274Y-76425575D01*
X105133859Y-76412016D01*
X105186996Y-76385932D01*
X105241036Y-76366487D01*
X105279668Y-76359406D01*
X105344426Y-76353767D01*
X105424491Y-76350855D01*
X105513600Y-76350586D01*
X105605487Y-76352878D01*
G37*
G36*
X93373758Y-76349356D02*
G01*
X93465256Y-76355747D01*
X93541207Y-76366529D01*
X93595985Y-76379361D01*
X93734098Y-76429791D01*
X93860858Y-76502602D01*
X93971524Y-76595274D01*
X94053719Y-76689350D01*
X94124574Y-76801799D01*
X94173555Y-76924293D01*
X94202001Y-77060281D01*
X94211249Y-77213212D01*
X94204316Y-77346679D01*
X94179055Y-77479203D01*
X94133771Y-77598341D01*
X94066871Y-77708167D01*
X93976760Y-77812759D01*
X93951058Y-77838208D01*
X93891177Y-77891696D01*
X93834676Y-77931768D01*
X93772908Y-77964877D01*
X93715849Y-77990691D01*
X93640995Y-78019409D01*
X93568677Y-78039211D01*
X93491530Y-78051552D01*
X93402185Y-78057889D01*
X93293277Y-78059678D01*
X93212791Y-78058787D01*
X93117835Y-78053827D01*
X93037483Y-78043226D01*
X92964542Y-78025543D01*
X92891817Y-77999335D01*
X92812114Y-77963157D01*
X92757949Y-77932561D01*
X92671323Y-77868628D01*
X92588204Y-77791085D01*
X92516048Y-77707161D01*
X92462312Y-77624085D01*
X92436113Y-77568210D01*
X92394904Y-77442265D01*
X92371261Y-77307245D01*
X92367048Y-77210411D01*
X92366580Y-77199659D01*
X92995201Y-77199659D01*
X92995201Y-77210411D01*
X92995919Y-77281777D01*
X92998518Y-77333485D01*
X93003863Y-77372138D01*
X93012819Y-77404337D01*
X93026250Y-77436683D01*
X93028303Y-77441089D01*
X93076733Y-77521093D01*
X93135891Y-77576749D01*
X93207531Y-77609260D01*
X93293410Y-77619829D01*
X93314388Y-77619405D01*
X93378692Y-77609561D01*
X93432403Y-77583330D01*
X93485733Y-77536274D01*
X93511490Y-77506692D01*
X93541680Y-77458514D01*
X93562138Y-77401753D01*
X93574823Y-77330327D01*
X93581692Y-77238152D01*
X93582726Y-77205719D01*
X93577876Y-77087066D01*
X93557862Y-76989177D01*
X93521900Y-76910176D01*
X93469205Y-76848187D01*
X93398993Y-76801336D01*
X93357968Y-76786722D01*
X93286385Y-76780488D01*
X93211644Y-76792184D01*
X93142383Y-76820114D01*
X93087242Y-76862580D01*
X93075358Y-76877498D01*
X93049955Y-76917336D01*
X93026359Y-76962634D01*
X93024806Y-76966041D01*
X93011876Y-76998228D01*
X93003320Y-77031075D01*
X92998267Y-77071190D01*
X92995851Y-77125182D01*
X92995201Y-77199659D01*
X92366580Y-77199659D01*
X92365248Y-77169040D01*
X92376925Y-77033541D01*
X92406355Y-76906639D01*
X92453600Y-76794225D01*
X92530214Y-76676707D01*
X92631176Y-76568055D01*
X92749810Y-76479496D01*
X92885031Y-76411828D01*
X93035753Y-76365851D01*
X93093303Y-76356638D01*
X93179048Y-76349789D01*
X93275444Y-76347366D01*
X93373758Y-76349356D01*
G37*
G36*
X91073253Y-76637900D02*
G01*
X91249678Y-76902930D01*
X91398090Y-76641289D01*
X91546503Y-76379648D01*
X91908230Y-76376038D01*
X91908501Y-76376035D01*
X92004313Y-76375348D01*
X92090580Y-76375241D01*
X92163790Y-76375677D01*
X92220431Y-76376620D01*
X92256991Y-76378031D01*
X92269958Y-76379875D01*
X92269748Y-76380464D01*
X92259952Y-76396394D01*
X92236731Y-76431767D01*
X92201752Y-76484106D01*
X92156684Y-76550937D01*
X92103195Y-76629785D01*
X92042954Y-76718172D01*
X91977628Y-76813625D01*
X91940902Y-76867346D01*
X91866045Y-76978071D01*
X91803929Y-77071813D01*
X91755186Y-77147577D01*
X91720449Y-77204371D01*
X91700349Y-77241198D01*
X91695519Y-77257067D01*
X91697644Y-77260354D01*
X91713137Y-77283136D01*
X91741414Y-77324153D01*
X91780482Y-77380529D01*
X91828344Y-77449388D01*
X91883007Y-77527855D01*
X91942474Y-77613052D01*
X91963167Y-77642672D01*
X92022450Y-77727532D01*
X92077044Y-77805685D01*
X92124780Y-77874028D01*
X92163492Y-77929460D01*
X92191013Y-77968875D01*
X92205175Y-77989173D01*
X92231142Y-78026446D01*
X91886286Y-78026446D01*
X91541430Y-78026446D01*
X91408764Y-77819749D01*
X91369641Y-77759083D01*
X91329947Y-77698165D01*
X91296913Y-77648149D01*
X91273175Y-77613022D01*
X91261369Y-77596770D01*
X91259797Y-77595549D01*
X91249345Y-77599330D01*
X91232113Y-77619460D01*
X91206774Y-77657917D01*
X91171997Y-77716678D01*
X91126457Y-77797723D01*
X91089463Y-77863555D01*
X91053692Y-77925096D01*
X91023736Y-77974425D01*
X91001955Y-78007663D01*
X90990706Y-78020934D01*
X90975444Y-78022313D01*
X90936328Y-78023407D01*
X90877339Y-78024075D01*
X90802223Y-78024294D01*
X90714728Y-78024040D01*
X90618599Y-78023289D01*
X90262061Y-78019669D01*
X90534782Y-77634773D01*
X90588522Y-77558468D01*
X90647528Y-77473531D01*
X90699478Y-77397486D01*
X90742620Y-77332958D01*
X90775205Y-77282573D01*
X90795479Y-77248956D01*
X90801691Y-77234731D01*
X90801679Y-77234699D01*
X90792830Y-77220194D01*
X90770445Y-77185924D01*
X90736263Y-77134489D01*
X90692024Y-77068483D01*
X90639470Y-76990505D01*
X90580341Y-76903151D01*
X90516377Y-76809017D01*
X90515268Y-76807388D01*
X90451602Y-76713518D01*
X90393069Y-76626567D01*
X90341369Y-76549108D01*
X90298201Y-76483715D01*
X90265263Y-76432960D01*
X90244254Y-76399417D01*
X90236873Y-76385659D01*
X90239120Y-76383962D01*
X90262628Y-76380230D01*
X90309680Y-76377157D01*
X90377751Y-76374841D01*
X90464316Y-76373380D01*
X90566851Y-76372871D01*
X90896829Y-76372871D01*
X91073253Y-76637900D01*
G37*
G36*
X97344358Y-76349856D02*
G01*
X97436777Y-76355995D01*
X97510735Y-76365848D01*
X97592009Y-76385592D01*
X97724876Y-76438557D01*
X97844512Y-76513301D01*
X97948311Y-76607691D01*
X98033669Y-76719591D01*
X98097979Y-76846868D01*
X98102889Y-76859208D01*
X98116796Y-76894852D01*
X98123956Y-76921506D01*
X98121496Y-76940975D01*
X98106542Y-76955068D01*
X98076222Y-76965592D01*
X98027662Y-76974352D01*
X97957988Y-76983157D01*
X97864328Y-76993813D01*
X97855823Y-76994786D01*
X97755934Y-77006257D01*
X97679362Y-77014668D01*
X97622709Y-77019723D01*
X97582577Y-77021126D01*
X97555570Y-77018581D01*
X97538288Y-77011792D01*
X97527336Y-77000462D01*
X97519314Y-76984296D01*
X97510825Y-76962996D01*
X97487329Y-76917358D01*
X97434270Y-76855097D01*
X97368047Y-76811187D01*
X97293063Y-76785791D01*
X97213721Y-76779067D01*
X97134425Y-76791179D01*
X97059577Y-76822287D01*
X96993581Y-76872551D01*
X96940841Y-76942135D01*
X96922081Y-76977576D01*
X96909283Y-77010055D01*
X96901441Y-77046197D01*
X96896876Y-77093817D01*
X96893910Y-77160731D01*
X96895995Y-77273877D01*
X96913909Y-77383305D01*
X96948723Y-77472169D01*
X97000782Y-77541076D01*
X97070434Y-77590630D01*
X97158026Y-77621437D01*
X97225560Y-77629987D01*
X97311268Y-77621011D01*
X97387451Y-77590194D01*
X97450102Y-77539334D01*
X97495214Y-77470228D01*
X97497574Y-77465042D01*
X97515033Y-77432906D01*
X97531889Y-77420042D01*
X97555178Y-77420630D01*
X97576674Y-77423978D01*
X97621285Y-77430251D01*
X97683188Y-77438614D01*
X97757387Y-77448395D01*
X97838884Y-77458917D01*
X97888748Y-77465463D01*
X97977896Y-77478449D01*
X98041341Y-77489867D01*
X98080003Y-77499897D01*
X98094803Y-77508718D01*
X98094709Y-77516827D01*
X98086019Y-77546689D01*
X98068377Y-77590783D01*
X98044154Y-77642830D01*
X97989161Y-77738859D01*
X97912134Y-77835686D01*
X97820967Y-77914034D01*
X97713761Y-77974946D01*
X97588616Y-78019462D01*
X97443633Y-78048623D01*
X97276912Y-78063472D01*
X97141908Y-78064850D01*
X96974609Y-78050559D01*
X96825474Y-78017204D01*
X96693425Y-77964324D01*
X96577387Y-77891460D01*
X96476283Y-77798151D01*
X96389038Y-77683937D01*
X96352005Y-77621882D01*
X96320716Y-77554663D01*
X96298740Y-77483999D01*
X96284721Y-77404044D01*
X96277305Y-77308954D01*
X96275134Y-77192882D01*
X96275286Y-77151755D01*
X96277637Y-77055956D01*
X96283836Y-76979078D01*
X96295169Y-76915196D01*
X96312919Y-76858381D01*
X96338372Y-76802708D01*
X96372812Y-76742248D01*
X96414321Y-76680157D01*
X96511344Y-76569811D01*
X96625003Y-76479926D01*
X96664579Y-76455799D01*
X96742748Y-76418046D01*
X96830735Y-76389098D01*
X96937127Y-76365816D01*
X96957882Y-76362432D01*
X97040239Y-76353717D01*
X97137698Y-76348716D01*
X97241868Y-76347429D01*
X97344358Y-76349856D01*
G37*
G36*
X103675561Y-76351624D02*
G01*
X103778088Y-76355259D01*
X103903229Y-76365607D01*
X104009221Y-76383288D01*
X104100454Y-76409662D01*
X104181314Y-76446093D01*
X104256189Y-76493942D01*
X104329468Y-76554571D01*
X104351436Y-76575513D01*
X104395166Y-76621940D01*
X104436345Y-76671083D01*
X104471744Y-76718475D01*
X104498131Y-76759648D01*
X104512275Y-76790136D01*
X104510945Y-76805471D01*
X104507581Y-76806669D01*
X104481357Y-76811365D01*
X104433780Y-76817584D01*
X104369044Y-76824846D01*
X104291345Y-76832670D01*
X104204876Y-76840575D01*
X103914757Y-76865822D01*
X103874162Y-76822365D01*
X103812512Y-76772581D01*
X103735180Y-76738658D01*
X103651457Y-76724487D01*
X103567294Y-76730324D01*
X103488646Y-76756422D01*
X103421464Y-76803036D01*
X103408805Y-76817515D01*
X103381320Y-76861346D01*
X103355893Y-76915174D01*
X103337206Y-76968397D01*
X103329936Y-77010412D01*
X103330034Y-77013395D01*
X103331752Y-77019152D01*
X103337431Y-77023889D01*
X103349386Y-77027705D01*
X103369930Y-77030699D01*
X103401380Y-77032971D01*
X103446049Y-77034620D01*
X103506253Y-77035746D01*
X103584306Y-77036449D01*
X103682522Y-77036828D01*
X103803217Y-77036982D01*
X103948704Y-77037012D01*
X104567472Y-77037012D01*
X104558462Y-77189493D01*
X104554061Y-77252334D01*
X104540951Y-77367339D01*
X104521271Y-77465730D01*
X104493457Y-77554380D01*
X104455948Y-77640160D01*
X104453661Y-77644745D01*
X104380066Y-77763383D01*
X104288398Y-77862250D01*
X104178502Y-77941418D01*
X104050225Y-78000958D01*
X103903414Y-78040942D01*
X103737915Y-78061442D01*
X103553576Y-78062531D01*
X103529600Y-78061316D01*
X103378450Y-78045142D01*
X103246683Y-78014171D01*
X103130500Y-77966909D01*
X103026100Y-77901866D01*
X102929685Y-77817548D01*
X102861379Y-77740720D01*
X102786031Y-77625996D01*
X102733556Y-77500666D01*
X102706782Y-77379518D01*
X103330443Y-77379518D01*
X103331245Y-77400799D01*
X103339013Y-77430032D01*
X103350849Y-77468467D01*
X103364203Y-77505342D01*
X103409309Y-77579985D01*
X103471079Y-77637260D01*
X103545572Y-77674066D01*
X103628849Y-77687301D01*
X103694026Y-77678079D01*
X103760670Y-77652519D01*
X103818869Y-77615297D01*
X103859341Y-77571092D01*
X103868543Y-77554200D01*
X103888348Y-77507753D01*
X103906864Y-77453737D01*
X103920621Y-77402826D01*
X103926147Y-77365694D01*
X103920359Y-77360031D01*
X103900492Y-77355576D01*
X103863939Y-77352368D01*
X103808095Y-77350260D01*
X103730357Y-77349104D01*
X103628122Y-77348751D01*
X103532354Y-77348597D01*
X103454856Y-77348887D01*
X103398813Y-77350874D01*
X103361329Y-77355807D01*
X103339505Y-77364938D01*
X103330443Y-77379518D01*
X102706782Y-77379518D01*
X102702932Y-77362097D01*
X102693139Y-77207656D01*
X102696768Y-77110413D01*
X102718787Y-76960686D01*
X102761406Y-76826574D01*
X102825363Y-76706009D01*
X102911397Y-76596924D01*
X102954816Y-76552740D01*
X103036742Y-76483567D01*
X103122685Y-76431983D01*
X103220168Y-76393891D01*
X103336713Y-76365191D01*
X103392735Y-76357101D01*
X103465997Y-76352141D01*
X103559084Y-76350363D01*
X103675561Y-76351624D01*
G37*
G36*
X92502840Y-75424211D02*
G01*
X92829767Y-75424268D01*
X93132176Y-75424363D01*
X93411016Y-75424501D01*
X93667232Y-75424689D01*
X93901772Y-75424930D01*
X94115582Y-75425231D01*
X94309609Y-75425598D01*
X94484801Y-75426034D01*
X94642104Y-75426546D01*
X94782464Y-75427140D01*
X94906829Y-75427819D01*
X95016146Y-75428590D01*
X95111361Y-75429459D01*
X95193421Y-75430430D01*
X95263273Y-75431508D01*
X95321865Y-75432700D01*
X95370142Y-75434010D01*
X95409051Y-75435444D01*
X95439540Y-75437007D01*
X95462556Y-75438705D01*
X95479044Y-75440542D01*
X95489953Y-75442525D01*
X95496229Y-75444659D01*
X95538877Y-75479064D01*
X95566300Y-75528669D01*
X95575747Y-75585270D01*
X95567217Y-75642045D01*
X95540711Y-75692173D01*
X95496229Y-75728832D01*
X95492019Y-75730417D01*
X95482425Y-75732439D01*
X95467500Y-75734314D01*
X95446298Y-75736048D01*
X95417872Y-75737647D01*
X95381275Y-75739114D01*
X95335561Y-75740456D01*
X95279782Y-75741679D01*
X95212992Y-75742787D01*
X95134244Y-75743785D01*
X95042590Y-75744680D01*
X94937085Y-75745477D01*
X94816781Y-75746180D01*
X94680732Y-75746795D01*
X94527990Y-75747328D01*
X94357608Y-75747784D01*
X94168641Y-75748169D01*
X93960141Y-75748486D01*
X93731161Y-75748743D01*
X93480754Y-75748944D01*
X93207973Y-75749095D01*
X92911873Y-75749201D01*
X92591505Y-75749267D01*
X92245922Y-75749299D01*
X91874179Y-75749302D01*
X91632761Y-75749295D01*
X91281417Y-75749277D01*
X90955578Y-75749245D01*
X90654271Y-75749191D01*
X90376521Y-75749108D01*
X90121358Y-75748989D01*
X89887806Y-75748827D01*
X89674894Y-75748615D01*
X89481647Y-75748347D01*
X89307093Y-75748014D01*
X89150258Y-75747610D01*
X89010170Y-75747128D01*
X88885854Y-75746560D01*
X88776339Y-75745900D01*
X88680650Y-75745141D01*
X88597815Y-75744275D01*
X88526861Y-75743296D01*
X88466814Y-75742196D01*
X88416700Y-75740969D01*
X88375548Y-75739607D01*
X88342383Y-75738103D01*
X88316233Y-75736450D01*
X88296125Y-75734641D01*
X88281085Y-75732669D01*
X88270139Y-75730528D01*
X88262316Y-75728209D01*
X88256641Y-75725706D01*
X88252142Y-75723011D01*
X88223564Y-75700466D01*
X88188885Y-75650034D01*
X88177642Y-75586745D01*
X88180810Y-75551224D01*
X88204379Y-75495118D01*
X88252142Y-75450479D01*
X88254969Y-75448713D01*
X88260118Y-75446143D01*
X88267072Y-75443760D01*
X88276805Y-75441557D01*
X88290289Y-75439526D01*
X88308498Y-75437660D01*
X88332405Y-75435953D01*
X88362984Y-75434397D01*
X88401206Y-75432986D01*
X88448046Y-75431712D01*
X88504477Y-75430568D01*
X88571472Y-75429547D01*
X88650003Y-75428642D01*
X88741045Y-75427846D01*
X88845571Y-75427152D01*
X88964552Y-75426553D01*
X89098964Y-75426041D01*
X89249778Y-75425610D01*
X89417969Y-75425253D01*
X89604508Y-75424963D01*
X89810371Y-75424732D01*
X90036528Y-75424553D01*
X90283955Y-75424420D01*
X90553623Y-75424325D01*
X90846507Y-75424261D01*
X91163578Y-75424222D01*
X91505812Y-75424200D01*
X91874179Y-75424188D01*
X92150450Y-75424187D01*
X92502840Y-75424211D01*
G37*
G36*
X107090300Y-76349356D02*
G01*
X107181799Y-76355747D01*
X107257749Y-76366529D01*
X107312528Y-76379361D01*
X107450640Y-76429791D01*
X107577401Y-76502602D01*
X107688067Y-76595274D01*
X107728399Y-76638889D01*
X107801862Y-76736441D01*
X107859621Y-76839117D01*
X107896990Y-76939204D01*
X107922997Y-77079523D01*
X107929128Y-77233869D01*
X107913715Y-77387084D01*
X107877029Y-77531165D01*
X107873829Y-77540457D01*
X107858664Y-77587002D01*
X107850246Y-77623345D01*
X107847812Y-77658750D01*
X107850598Y-77702482D01*
X107857840Y-77763804D01*
X107860867Y-77790916D01*
X107866339Y-77885901D01*
X107865153Y-77983407D01*
X107857899Y-78077560D01*
X107845172Y-78162483D01*
X107827563Y-78232303D01*
X107805664Y-78281143D01*
X107773876Y-78315813D01*
X107720484Y-78343208D01*
X107660145Y-78349167D01*
X107600280Y-78331857D01*
X107585538Y-78322193D01*
X107549276Y-78290294D01*
X107505345Y-78244828D01*
X107458786Y-78191427D01*
X107414638Y-78135722D01*
X107377939Y-78083346D01*
X107364166Y-78063189D01*
X107338642Y-78036412D01*
X107317512Y-78032005D01*
X107297185Y-78037343D01*
X107235062Y-78048754D01*
X107159144Y-78058102D01*
X107078711Y-78064368D01*
X107003042Y-78066533D01*
X106996004Y-78066496D01*
X106943746Y-78065124D01*
X106891628Y-78061254D01*
X106832989Y-78054093D01*
X106761168Y-78042844D01*
X106669502Y-78026713D01*
X106663030Y-78035275D01*
X106645407Y-78060878D01*
X106620781Y-78097604D01*
X106616149Y-78104505D01*
X106571208Y-78165615D01*
X106521604Y-78224679D01*
X106472212Y-78276537D01*
X106427910Y-78316029D01*
X106393573Y-78337997D01*
X106355068Y-78347165D01*
X106307616Y-78346345D01*
X106303081Y-78345424D01*
X106250605Y-78321966D01*
X106209526Y-78276637D01*
X106179645Y-78208805D01*
X106160762Y-78117837D01*
X106152676Y-78003100D01*
X106155188Y-77863962D01*
X106158751Y-77793924D01*
X106162032Y-77722036D01*
X106163383Y-77668381D01*
X106162436Y-77627938D01*
X106158821Y-77595684D01*
X106152169Y-77566599D01*
X106142112Y-77535659D01*
X106128279Y-77497844D01*
X106112730Y-77448581D01*
X106091347Y-77339502D01*
X106081888Y-77220467D01*
X106082140Y-77210411D01*
X106082410Y-77199659D01*
X106711743Y-77199659D01*
X106711743Y-77210411D01*
X106712461Y-77281777D01*
X106715060Y-77333485D01*
X106720405Y-77372138D01*
X106729361Y-77404337D01*
X106742792Y-77436683D01*
X106744846Y-77441089D01*
X106793275Y-77521093D01*
X106852433Y-77576749D01*
X106924073Y-77609260D01*
X107009952Y-77619829D01*
X107048633Y-77618256D01*
X107107372Y-77605492D01*
X107158167Y-77576300D01*
X107210216Y-77526390D01*
X107237769Y-77491819D01*
X107269773Y-77432322D01*
X107289671Y-77361543D01*
X107298633Y-77274673D01*
X107297831Y-77166901D01*
X107296288Y-77138045D01*
X107284838Y-77036853D01*
X107263591Y-76956874D01*
X107230658Y-76894223D01*
X107184150Y-76845012D01*
X107122179Y-76805354D01*
X107085242Y-76790799D01*
X107010713Y-76780740D01*
X106933374Y-76790355D01*
X106861605Y-76818137D01*
X106803784Y-76862580D01*
X106791900Y-76877498D01*
X106766497Y-76917336D01*
X106742901Y-76962634D01*
X106741348Y-76966041D01*
X106728419Y-76998228D01*
X106719862Y-77031075D01*
X106714810Y-77071190D01*
X106712393Y-77125182D01*
X106711743Y-77199659D01*
X106082410Y-77199659D01*
X106084880Y-77101210D01*
X106100851Y-76991464D01*
X106120910Y-76917424D01*
X106177285Y-76784214D01*
X106255458Y-76665350D01*
X106353738Y-76562457D01*
X106470432Y-76477159D01*
X106603848Y-76411083D01*
X106752295Y-76365851D01*
X106809845Y-76356638D01*
X106895591Y-76349789D01*
X106991987Y-76347366D01*
X107090300Y-76349356D01*
G37*
G36*
X95295436Y-76348326D02*
G01*
X95381812Y-76350454D01*
X95455153Y-76354382D01*
X95508453Y-76360118D01*
X95596687Y-76378232D01*
X95728521Y-76422249D01*
X95841725Y-76482990D01*
X95935008Y-76559524D01*
X96007081Y-76650918D01*
X96056655Y-76756242D01*
X96065933Y-76792378D01*
X96075163Y-76857053D01*
X96078602Y-76926889D01*
X96077682Y-76975075D01*
X96072325Y-77023350D01*
X96059835Y-77065897D01*
X96037579Y-77114778D01*
X96029140Y-77130935D01*
X95963852Y-77223203D01*
X95877492Y-77299026D01*
X95769718Y-77358650D01*
X95640190Y-77402321D01*
X95625675Y-77405812D01*
X95569180Y-77417551D01*
X95496375Y-77430869D01*
X95415085Y-77444378D01*
X95333138Y-77456694D01*
X95331285Y-77456956D01*
X95224316Y-77473572D01*
X95141658Y-77490056D01*
X95080579Y-77507367D01*
X95038346Y-77526464D01*
X95012227Y-77548306D01*
X94999489Y-77573854D01*
X94996471Y-77592312D01*
X95004676Y-77638908D01*
X95034086Y-77677488D01*
X95080765Y-77706132D01*
X95140778Y-77722918D01*
X95210190Y-77725925D01*
X95285064Y-77713234D01*
X95296365Y-77709506D01*
X95348229Y-77680564D01*
X95397899Y-77636967D01*
X95435282Y-77587185D01*
X95439134Y-77581024D01*
X95446524Y-77574522D01*
X95459452Y-77570577D01*
X95481488Y-77569231D01*
X95516202Y-77570528D01*
X95567166Y-77574508D01*
X95637951Y-77581214D01*
X95732126Y-77590688D01*
X95758681Y-77593412D01*
X95840840Y-77602210D01*
X95912323Y-77610415D01*
X95969055Y-77617522D01*
X96006958Y-77623029D01*
X96021956Y-77626434D01*
X96021787Y-77636280D01*
X96012778Y-77664795D01*
X95996189Y-77704013D01*
X95977525Y-77741074D01*
X95906690Y-77845020D01*
X95818595Y-77929773D01*
X95715629Y-77993346D01*
X95600179Y-78033749D01*
X95569747Y-78040181D01*
X95465879Y-78055023D01*
X95348615Y-78063259D01*
X95224611Y-78065070D01*
X95100523Y-78060638D01*
X94983008Y-78050146D01*
X94878721Y-78033776D01*
X94794320Y-78011709D01*
X94733003Y-77987447D01*
X94629755Y-77928194D01*
X94547659Y-77853823D01*
X94487746Y-77765659D01*
X94451044Y-77665028D01*
X94438581Y-77553256D01*
X94438583Y-77551553D01*
X94446754Y-77454884D01*
X94472965Y-77370207D01*
X94520475Y-77286929D01*
X94546021Y-77252856D01*
X94588235Y-77208680D01*
X94638619Y-77170581D01*
X94700315Y-77137184D01*
X94776465Y-77107113D01*
X94870210Y-77078992D01*
X94984692Y-77051447D01*
X95123053Y-77023101D01*
X95176402Y-77012669D01*
X95274296Y-76992408D01*
X95349813Y-76974713D01*
X95405998Y-76958650D01*
X95445894Y-76943287D01*
X95472547Y-76927689D01*
X95489001Y-76910924D01*
X95504890Y-76876230D01*
X95505225Y-76827403D01*
X95484357Y-76780475D01*
X95445026Y-76740893D01*
X95389972Y-76714104D01*
X95365431Y-76707962D01*
X95293075Y-76699335D01*
X95218607Y-76701182D01*
X95155572Y-76713536D01*
X95141072Y-76719192D01*
X95086356Y-76753276D01*
X95038118Y-76800808D01*
X95006413Y-76852425D01*
X95005032Y-76855891D01*
X94993274Y-76884620D01*
X94987046Y-76898472D01*
X94982318Y-76898879D01*
X94955438Y-76897578D01*
X94908877Y-76894079D01*
X94847284Y-76888837D01*
X94775308Y-76882303D01*
X94697598Y-76874930D01*
X94618803Y-76867173D01*
X94543571Y-76859483D01*
X94476552Y-76852314D01*
X94422395Y-76846119D01*
X94385748Y-76841351D01*
X94371260Y-76838463D01*
X94369397Y-76829880D01*
X94375615Y-76800898D01*
X94390799Y-76758762D01*
X94412268Y-76709899D01*
X94437339Y-76660739D01*
X94463332Y-76617708D01*
X94483133Y-76590409D01*
X94565269Y-76506753D01*
X94667943Y-76440453D01*
X94790753Y-76391727D01*
X94933298Y-76360796D01*
X94959684Y-76357647D01*
X95028148Y-76352658D01*
X95111598Y-76349436D01*
X95203029Y-76347989D01*
X95295436Y-76348326D01*
G37*
G36*
X98938474Y-76350702D02*
G01*
X98956767Y-76351206D01*
X99071964Y-76358742D01*
X99168499Y-76374726D01*
X99253154Y-76401200D01*
X99332711Y-76440203D01*
X99413953Y-76493778D01*
X99431705Y-76506646D01*
X99472156Y-76535280D01*
X99501661Y-76555173D01*
X99514803Y-76562625D01*
X99518640Y-76557172D01*
X99521292Y-76534642D01*
X99523171Y-76520354D01*
X99533582Y-76483170D01*
X99550069Y-76439765D01*
X99578846Y-76372871D01*
X99868585Y-76372871D01*
X99901246Y-76372912D01*
X99983328Y-76373405D01*
X100054002Y-76374384D01*
X100109343Y-76375762D01*
X100145425Y-76377451D01*
X100158325Y-76379363D01*
X100158087Y-76380840D01*
X100152314Y-76400947D01*
X100140399Y-76438486D01*
X100124440Y-76486795D01*
X100115855Y-76512886D01*
X100108413Y-76538434D01*
X100102592Y-76564716D01*
X100098190Y-76595030D01*
X100095006Y-76632671D01*
X100092839Y-76680937D01*
X100091488Y-76743124D01*
X100090752Y-76822529D01*
X100090430Y-76922448D01*
X100090320Y-77046179D01*
X100090161Y-77134482D01*
X100089250Y-77263153D01*
X100087240Y-77369801D01*
X100083794Y-77457610D01*
X100078578Y-77529765D01*
X100071253Y-77589449D01*
X100061484Y-77639847D01*
X100048934Y-77684143D01*
X100033266Y-77725522D01*
X100014145Y-77767168D01*
X100000040Y-77793871D01*
X99937871Y-77878183D01*
X99856240Y-77946013D01*
X99753849Y-77998266D01*
X99629403Y-78035849D01*
X99629175Y-78035900D01*
X99568013Y-78045597D01*
X99485982Y-78052859D01*
X99389065Y-78057689D01*
X99283246Y-78060086D01*
X99174508Y-78060053D01*
X99068835Y-78057592D01*
X98972211Y-78052703D01*
X98890619Y-78045389D01*
X98830043Y-78035651D01*
X98753381Y-78014583D01*
X98633236Y-77963358D01*
X98533249Y-77894729D01*
X98453977Y-77809223D01*
X98395973Y-77707366D01*
X98359793Y-77589683D01*
X98357728Y-77577530D01*
X98360186Y-77557154D01*
X98377682Y-77551870D01*
X98391472Y-77550963D01*
X98429783Y-77547342D01*
X98486239Y-77541447D01*
X98555822Y-77533808D01*
X98633512Y-77524952D01*
X98723711Y-77514615D01*
X98802498Y-77506155D01*
X98860678Y-77501034D01*
X98901584Y-77499262D01*
X98928547Y-77500848D01*
X98944898Y-77505801D01*
X98953968Y-77514129D01*
X98959088Y-77525843D01*
X98976737Y-77563597D01*
X99022961Y-77614539D01*
X99088296Y-77653657D01*
X99168638Y-77678746D01*
X99259886Y-77687599D01*
X99283800Y-77687005D01*
X99361890Y-77673873D01*
X99419154Y-77643604D01*
X99455446Y-77596304D01*
X99470622Y-77532081D01*
X99473853Y-77480718D01*
X99378976Y-77447627D01*
X99360443Y-77441638D01*
X99307831Y-77426600D01*
X99236627Y-77407818D01*
X99151998Y-77386605D01*
X99059114Y-77364270D01*
X98963142Y-77342127D01*
X98862635Y-77318926D01*
X98751426Y-77291253D01*
X98661238Y-77265662D01*
X98588812Y-77240863D01*
X98530888Y-77215567D01*
X98484208Y-77188483D01*
X98445512Y-77158320D01*
X98411539Y-77123789D01*
X98384814Y-77090374D01*
X98341159Y-77011662D01*
X98316453Y-76921045D01*
X98312210Y-76859780D01*
X98932353Y-76859780D01*
X98942752Y-76915608D01*
X98973066Y-76966090D01*
X99023314Y-77005366D01*
X99035685Y-77011022D01*
X99075457Y-77026309D01*
X99132497Y-77046277D01*
X99201156Y-77068978D01*
X99275782Y-77092461D01*
X99484327Y-77156422D01*
X99477199Y-77052427D01*
X99469787Y-76983105D01*
X99449691Y-76900945D01*
X99416137Y-76836544D01*
X99366441Y-76785260D01*
X99297917Y-76742450D01*
X99291106Y-76739099D01*
X99223037Y-76715094D01*
X99149555Y-76702840D01*
X99080125Y-76703213D01*
X99024209Y-76717090D01*
X99020464Y-76718846D01*
X98971227Y-76755537D01*
X98941851Y-76804469D01*
X98932353Y-76859780D01*
X98312210Y-76859780D01*
X98308996Y-76813373D01*
X98312707Y-76744138D01*
X98330818Y-76661535D01*
X98367062Y-76588141D01*
X98424827Y-76515237D01*
X98486626Y-76457030D01*
X98573057Y-76402622D01*
X98674849Y-76366691D01*
X98700617Y-76361095D01*
X98761596Y-76353341D01*
X98839174Y-76349981D01*
X98938474Y-76350702D01*
G37*
G36*
X85310033Y-73191538D02*
G01*
X85321871Y-73191882D01*
X85425566Y-73198373D01*
X85507590Y-73211455D01*
X85572453Y-73232548D01*
X85624666Y-73263072D01*
X85668739Y-73304447D01*
X85689961Y-73331607D01*
X85724150Y-73402944D01*
X85732707Y-73479194D01*
X85716051Y-73558956D01*
X85674600Y-73640829D01*
X85608774Y-73723412D01*
X85518992Y-73805306D01*
X85471875Y-73844634D01*
X85416860Y-73898288D01*
X85372058Y-73954909D01*
X85333615Y-74020406D01*
X85297674Y-74100688D01*
X85260381Y-74201663D01*
X85257027Y-74211593D01*
X85235627Y-74284483D01*
X85212378Y-74377358D01*
X85188445Y-74484289D01*
X85164990Y-74599346D01*
X85143179Y-74716601D01*
X85124176Y-74830123D01*
X85109145Y-74933984D01*
X85099250Y-75022255D01*
X85095965Y-75065344D01*
X85092130Y-75210878D01*
X85098922Y-75352700D01*
X85115795Y-75483522D01*
X85142205Y-75596057D01*
X85146668Y-75610349D01*
X85169484Y-75674231D01*
X85188875Y-75711355D01*
X85204963Y-75721817D01*
X85217872Y-75705714D01*
X85227723Y-75663141D01*
X85233797Y-75628405D01*
X85247598Y-75561687D01*
X85266364Y-75478601D01*
X85288688Y-75384796D01*
X85313166Y-75285920D01*
X85338393Y-75187622D01*
X85362962Y-75095549D01*
X85385468Y-75015350D01*
X85404507Y-74952673D01*
X85458082Y-74801226D01*
X85531090Y-74633958D01*
X85611071Y-74491353D01*
X85698694Y-74372395D01*
X85794630Y-74276067D01*
X85899546Y-74201355D01*
X85939775Y-74179420D01*
X86011250Y-74149912D01*
X86087375Y-74132160D01*
X86175277Y-74124768D01*
X86282083Y-74126338D01*
X86287366Y-74126591D01*
X86359569Y-74131384D01*
X86412719Y-74138500D01*
X86454389Y-74149345D01*
X86492149Y-74165324D01*
X86507428Y-74173413D01*
X86568353Y-74220723D01*
X86605452Y-74279917D01*
X86617983Y-74349908D01*
X86611956Y-74407404D01*
X86590908Y-74462624D01*
X86551753Y-74518686D01*
X86491413Y-74581212D01*
X86424587Y-74645075D01*
X86348017Y-74723223D01*
X86287153Y-74794364D01*
X86238695Y-74864104D01*
X86199343Y-74938050D01*
X86165796Y-75021810D01*
X86134754Y-75120988D01*
X86102917Y-75241193D01*
X86069988Y-75377140D01*
X86039628Y-75517805D01*
X86016942Y-75645697D01*
X86000902Y-75767589D01*
X85990480Y-75890255D01*
X85984647Y-76020470D01*
X85984367Y-76030766D01*
X85983987Y-76186904D01*
X85992073Y-76320806D01*
X86009340Y-76436010D01*
X86036506Y-76536055D01*
X86074289Y-76624479D01*
X86123406Y-76704820D01*
X86224552Y-76860117D01*
X86333230Y-77062284D01*
X86424227Y-77274057D01*
X86495696Y-77490454D01*
X86545790Y-77706494D01*
X86572664Y-77917195D01*
X86581381Y-78040000D01*
X86646454Y-78040000D01*
X86672069Y-78040470D01*
X86775918Y-78054236D01*
X86860652Y-78087013D01*
X86926132Y-78138728D01*
X86972215Y-78209308D01*
X86974062Y-78213485D01*
X86980889Y-78232168D01*
X86986227Y-78254887D01*
X86990258Y-78284938D01*
X86993164Y-78325616D01*
X86995129Y-78380219D01*
X86996334Y-78452041D01*
X86996961Y-78544378D01*
X86997195Y-78660526D01*
X86997208Y-78742586D01*
X86996801Y-78848404D01*
X86995441Y-78932591D01*
X86992636Y-78998463D01*
X86987892Y-79049338D01*
X86980718Y-79088534D01*
X86970620Y-79119366D01*
X86957107Y-79145152D01*
X86939686Y-79169210D01*
X86917865Y-79194856D01*
X86875507Y-79243098D01*
X86875507Y-79940548D01*
X86875507Y-80637997D01*
X86910692Y-80654028D01*
X86945519Y-80672719D01*
X87015835Y-80730654D01*
X87070841Y-80805196D01*
X87106673Y-80890313D01*
X87119467Y-80979972D01*
X87111669Y-81047435D01*
X87084523Y-81129785D01*
X87042165Y-81205095D01*
X86989035Y-81263708D01*
X86985972Y-81266193D01*
X86932484Y-81301228D01*
X86869100Y-81331464D01*
X86806039Y-81352693D01*
X86753522Y-81360704D01*
X86742332Y-81360221D01*
X86685020Y-81348360D01*
X86619791Y-81323832D01*
X86556662Y-81290950D01*
X86505652Y-81254024D01*
X86470491Y-81217684D01*
X86420358Y-81139415D01*
X86392581Y-81053525D01*
X86389261Y-81003368D01*
X86634370Y-81003368D01*
X86658810Y-81052873D01*
X86691335Y-81082113D01*
X86736090Y-81097283D01*
X86781488Y-81093001D01*
X86822067Y-81072281D01*
X86852370Y-81038136D01*
X86866936Y-80993581D01*
X86860305Y-80941630D01*
X86841083Y-80910360D01*
X86801357Y-80880638D01*
X86773885Y-80867609D01*
X86754048Y-80861657D01*
X86735038Y-80865518D01*
X86703762Y-80878969D01*
X86658901Y-80910342D01*
X86634904Y-80953911D01*
X86634370Y-81003368D01*
X86389261Y-81003368D01*
X86386678Y-80964337D01*
X86402162Y-80876173D01*
X86438550Y-80793357D01*
X86495357Y-80720208D01*
X86572099Y-80661051D01*
X86631789Y-80626071D01*
X86628275Y-79953126D01*
X86624760Y-79280182D01*
X86542336Y-79276206D01*
X86459911Y-79272230D01*
X86429226Y-79384637D01*
X86411446Y-79444785D01*
X86377000Y-79540266D01*
X86339586Y-79621453D01*
X86301252Y-79684136D01*
X86264048Y-79724107D01*
X86196495Y-79761837D01*
X86120012Y-79779020D01*
X86043913Y-79772567D01*
X85973960Y-79742121D01*
X85951019Y-79722767D01*
X85913291Y-79683638D01*
X85866928Y-79630744D01*
X85815634Y-79568588D01*
X85763114Y-79501672D01*
X85713071Y-79434503D01*
X85669211Y-79371581D01*
X85660854Y-79359115D01*
X85626645Y-79310479D01*
X85601937Y-79281137D01*
X85583363Y-79267607D01*
X85567557Y-79266405D01*
X85552719Y-79268407D01*
X85513400Y-79270838D01*
X85459009Y-79272536D01*
X85396605Y-79273220D01*
X85252762Y-79273405D01*
X85146722Y-79417923D01*
X85105464Y-79472895D01*
X85041071Y-79553971D01*
X84979641Y-79625937D01*
X84924205Y-79685440D01*
X84877792Y-79729125D01*
X84843432Y-79753639D01*
X84775380Y-79776097D01*
X84697841Y-79778225D01*
X84623574Y-79758154D01*
X84559932Y-79716837D01*
X84549663Y-79706127D01*
X84516058Y-79655989D01*
X84481826Y-79584704D01*
X84448189Y-79496736D01*
X84416370Y-79396547D01*
X84387594Y-79288600D01*
X84363083Y-79177356D01*
X84344061Y-79067279D01*
X84331750Y-78962830D01*
X84327375Y-78868473D01*
X84327069Y-78835778D01*
X84324637Y-78780270D01*
X84320094Y-78744145D01*
X84313821Y-78731249D01*
X84308829Y-78732444D01*
X84300204Y-78748191D01*
X84298453Y-78757547D01*
X84285960Y-78791200D01*
X84263463Y-78841316D01*
X84233347Y-78903273D01*
X84197997Y-78972452D01*
X84159798Y-79044234D01*
X84121136Y-79113999D01*
X84084396Y-79177128D01*
X84051962Y-79229001D01*
X84018098Y-79278058D01*
X83928596Y-79392688D01*
X83827479Y-79505470D01*
X83721974Y-79608631D01*
X83619308Y-79694396D01*
X83582153Y-79720707D01*
X83501352Y-79771186D01*
X83408416Y-79823017D01*
X83311805Y-79871803D01*
X83219982Y-79913150D01*
X83141409Y-79942660D01*
X83103835Y-79953846D01*
X83006045Y-79977836D01*
X82896450Y-79999269D01*
X82785579Y-80016211D01*
X82683965Y-80026726D01*
X82551815Y-80036137D01*
X82551815Y-80162375D01*
X82552500Y-80204520D01*
X82566815Y-80346184D01*
X82600190Y-80470282D01*
X82653305Y-80578800D01*
X82726840Y-80673722D01*
X82801488Y-80738755D01*
X82899132Y-80795841D01*
X83005473Y-80833991D01*
X83114387Y-80851076D01*
X83219746Y-80844969D01*
X83262174Y-80836355D01*
X83328651Y-80817967D01*
X83393133Y-80792587D01*
X83459937Y-80757864D01*
X83533380Y-80711451D01*
X83617779Y-80650998D01*
X83717450Y-80574156D01*
X83789922Y-80517919D01*
X83969033Y-80388313D01*
X84139056Y-80280305D01*
X84303307Y-80192599D01*
X84465107Y-80123901D01*
X84627773Y-80072914D01*
X84794626Y-80038342D01*
X84968983Y-80018890D01*
X85154163Y-80013262D01*
X85171990Y-80013362D01*
X85258845Y-80014804D01*
X85328592Y-80018368D01*
X85389707Y-80024915D01*
X85450665Y-80035305D01*
X85519941Y-80050398D01*
X85635240Y-80081157D01*
X85730922Y-80116730D01*
X85805544Y-80158205D01*
X85862155Y-80207713D01*
X85903802Y-80267384D01*
X85933535Y-80339348D01*
X85948325Y-80403938D01*
X85950027Y-80501973D01*
X85927376Y-80594293D01*
X85881996Y-80677228D01*
X85815513Y-80747108D01*
X85729549Y-80800261D01*
X85664627Y-80823200D01*
X85586485Y-80833626D01*
X85497661Y-80827810D01*
X85392576Y-80805845D01*
X85390301Y-80805255D01*
X85313531Y-80789323D01*
X85230530Y-80780564D01*
X85131092Y-80777887D01*
X85113885Y-80777959D01*
X84992888Y-80783306D01*
X84880765Y-80798274D01*
X84773760Y-80824453D01*
X84668115Y-80863436D01*
X84560074Y-80916816D01*
X84445879Y-80986184D01*
X84321773Y-81073134D01*
X84183999Y-81179256D01*
X84040970Y-81288259D01*
X83889878Y-81390691D01*
X83747367Y-81472588D01*
X83610747Y-81535479D01*
X83477326Y-81580895D01*
X83444624Y-81589525D01*
X83401858Y-81598446D01*
X83356206Y-81604410D01*
X83301614Y-81607936D01*
X83232033Y-81609546D01*
X83141409Y-81609758D01*
X83104880Y-81609512D01*
X82992299Y-81606153D01*
X82897655Y-81597757D01*
X82813954Y-81582810D01*
X82734205Y-81559796D01*
X82651415Y-81527200D01*
X82558592Y-81483509D01*
X82408453Y-81398426D01*
X82243670Y-81277169D01*
X82095475Y-81135886D01*
X81965232Y-80976286D01*
X81854309Y-80800077D01*
X81764072Y-80608968D01*
X81695886Y-80404667D01*
X81691606Y-80388742D01*
X81677511Y-80334372D01*
X81667214Y-80288357D01*
X81660097Y-80244787D01*
X81655539Y-80197750D01*
X81652921Y-80141337D01*
X81651624Y-80069638D01*
X81651027Y-79976740D01*
X81649887Y-79710973D01*
X81607993Y-79663259D01*
X81517437Y-79547505D01*
X81429541Y-79406692D01*
X81357650Y-79259062D01*
X81306368Y-79113009D01*
X81289772Y-79056312D01*
X81269180Y-78991514D01*
X81250613Y-78938148D01*
X81228339Y-78873670D01*
X81190177Y-78736579D01*
X81160561Y-78593197D01*
X81142523Y-78457018D01*
X81136248Y-78350565D01*
X81136299Y-78301931D01*
X81442566Y-78301931D01*
X81444530Y-78406645D01*
X81453597Y-78504230D01*
X81470973Y-78602557D01*
X81497863Y-78709492D01*
X81535471Y-78832903D01*
X81555476Y-78895134D01*
X81579377Y-78970126D01*
X81600882Y-79038236D01*
X81616995Y-79090016D01*
X81637989Y-79150311D01*
X81695043Y-79267628D01*
X81773432Y-79380810D01*
X81875870Y-79494088D01*
X81995550Y-79613116D01*
X81973189Y-79710950D01*
X81971601Y-79718128D01*
X81959915Y-79793212D01*
X81953190Y-79887721D01*
X81951152Y-80005315D01*
X81951231Y-80029604D01*
X81952461Y-80108610D01*
X81955841Y-80170765D01*
X81962269Y-80224196D01*
X81972644Y-80277027D01*
X81987865Y-80337385D01*
X82008535Y-80407344D01*
X82076856Y-80580726D01*
X82165239Y-80741839D01*
X82271402Y-80886882D01*
X82393063Y-81012057D01*
X82421632Y-81036877D01*
X82559219Y-81141993D01*
X82696138Y-81221698D01*
X82835168Y-81277151D01*
X82979087Y-81309512D01*
X83130672Y-81319940D01*
X83184121Y-81318906D01*
X83295754Y-81309167D01*
X83402326Y-81287876D01*
X83507530Y-81253450D01*
X83615059Y-81204310D01*
X83728606Y-81138876D01*
X83851865Y-81055566D01*
X83988528Y-80952801D01*
X84096927Y-80870023D01*
X84218351Y-80782346D01*
X84328007Y-80708896D01*
X84422252Y-80652199D01*
X84422685Y-80651958D01*
X84504080Y-80612607D01*
X84602901Y-80573845D01*
X84709643Y-80538793D01*
X84814805Y-80510575D01*
X84908884Y-80492312D01*
X84938699Y-80488606D01*
X85042486Y-80482053D01*
X85157527Y-80482401D01*
X85274349Y-80489183D01*
X85383481Y-80501934D01*
X85475449Y-80520188D01*
X85518793Y-80530579D01*
X85575046Y-80538949D01*
X85612970Y-80534996D01*
X85636594Y-80517957D01*
X85649944Y-80487065D01*
X85653782Y-80454059D01*
X85640382Y-80413187D01*
X85604379Y-80386501D01*
X85597844Y-80383946D01*
X85516542Y-80359927D01*
X85415610Y-80340939D01*
X85301519Y-80327409D01*
X85180738Y-80319761D01*
X85059736Y-80318423D01*
X84944985Y-80323820D01*
X84842953Y-80336377D01*
X84804359Y-80343503D01*
X84663198Y-80377371D01*
X84527332Y-80423565D01*
X84392650Y-80484101D01*
X84255040Y-80560993D01*
X84110391Y-80656259D01*
X83954592Y-80771913D01*
X83888696Y-80822663D01*
X83770851Y-80910132D01*
X83667570Y-80981223D01*
X83575545Y-81037542D01*
X83491469Y-81080697D01*
X83412035Y-81112293D01*
X83333937Y-81133937D01*
X83253866Y-81147235D01*
X83168517Y-81153796D01*
X83155477Y-81154330D01*
X83090132Y-81156141D01*
X83040442Y-81154628D01*
X82996640Y-81148529D01*
X82948958Y-81136583D01*
X82887627Y-81117529D01*
X82756557Y-81064939D01*
X82624345Y-80985942D01*
X82510303Y-80887129D01*
X82415177Y-80769291D01*
X82339714Y-80633219D01*
X82284663Y-80479701D01*
X82277852Y-80449434D01*
X82267925Y-80374845D01*
X82261998Y-80284177D01*
X82260010Y-80184466D01*
X82261901Y-80082746D01*
X82267609Y-79986053D01*
X82277073Y-79901423D01*
X82290234Y-79835891D01*
X82316745Y-79741014D01*
X82410561Y-79743837D01*
X82422503Y-79744126D01*
X82523119Y-79742470D01*
X82636574Y-79734825D01*
X82752896Y-79722243D01*
X82862114Y-79705777D01*
X82954254Y-79686479D01*
X83036316Y-79662907D01*
X83212216Y-79592321D01*
X83376885Y-79497610D01*
X83529737Y-79379405D01*
X83670181Y-79238342D01*
X83797628Y-79075054D01*
X83911490Y-78890174D01*
X84011177Y-78684337D01*
X84096100Y-78458176D01*
X84096777Y-78456106D01*
X84113899Y-78401033D01*
X84124412Y-78356720D01*
X84129443Y-78313720D01*
X84130115Y-78262587D01*
X84127552Y-78193875D01*
X84125717Y-78152264D01*
X84124689Y-78098110D01*
X84127323Y-78054719D01*
X84134934Y-78013001D01*
X84148839Y-77963868D01*
X84170353Y-77898228D01*
X84181018Y-77868021D01*
X84216860Y-77779239D01*
X84259481Y-77686711D01*
X84302799Y-77603954D01*
X84325111Y-77565807D01*
X84370880Y-77492592D01*
X84421421Y-77416762D01*
X84473591Y-77342613D01*
X84524248Y-77274441D01*
X84570251Y-77216544D01*
X84608456Y-77173217D01*
X84635721Y-77148757D01*
X84672061Y-77131297D01*
X84728542Y-77125392D01*
X84781849Y-77142270D01*
X84826412Y-77179741D01*
X84856661Y-77235617D01*
X84861710Y-77255381D01*
X84862091Y-77283423D01*
X84852622Y-77314969D01*
X84831313Y-77354254D01*
X84796177Y-77405512D01*
X84745225Y-77472977D01*
X84726160Y-77497950D01*
X84634744Y-77627538D01*
X84556345Y-77755681D01*
X84493000Y-77878505D01*
X84446743Y-77992134D01*
X84419611Y-78092695D01*
X84416615Y-78109592D01*
X84412734Y-78140696D01*
X84414121Y-78167964D01*
X84422373Y-78198474D01*
X84439088Y-78239302D01*
X84465865Y-78297524D01*
X84479530Y-78326119D01*
X84514534Y-78395185D01*
X84550587Y-78461719D01*
X84581735Y-78514569D01*
X84637495Y-78602852D01*
X84637804Y-78772093D01*
X84639146Y-78835264D01*
X84648798Y-78969220D01*
X84666598Y-79104425D01*
X84691177Y-79231526D01*
X84721164Y-79341174D01*
X84721408Y-79341915D01*
X84736635Y-79386691D01*
X84748808Y-79419965D01*
X84755311Y-79434583D01*
X84762024Y-79431912D01*
X84782161Y-79411481D01*
X84812319Y-79375193D01*
X84849629Y-79326950D01*
X84891223Y-79270654D01*
X84934235Y-79210208D01*
X84975796Y-79149513D01*
X85013038Y-79092473D01*
X85043094Y-79042988D01*
X85063842Y-79007154D01*
X85084800Y-78971603D01*
X85097267Y-78951261D01*
X85105224Y-78944559D01*
X85124823Y-78941545D01*
X85159998Y-78944857D01*
X85216103Y-78954647D01*
X85264309Y-78962993D01*
X85342099Y-78971589D01*
X85419191Y-78972607D01*
X85502148Y-78965674D01*
X85597528Y-78950417D01*
X85711893Y-78926464D01*
X85723734Y-78924457D01*
X85740148Y-78927020D01*
X85756389Y-78940617D01*
X85776835Y-78969507D01*
X85805859Y-79017950D01*
X85811734Y-79027960D01*
X85854880Y-79098172D01*
X85901427Y-79169104D01*
X85948828Y-79237377D01*
X85994532Y-79299610D01*
X86035992Y-79352423D01*
X86070658Y-79392435D01*
X86095982Y-79416266D01*
X86109414Y-79420537D01*
X86111347Y-79417436D01*
X86120302Y-79392593D01*
X86133028Y-79348644D01*
X86148147Y-79291128D01*
X86164279Y-79225587D01*
X86180049Y-79157560D01*
X86194078Y-79092588D01*
X86204988Y-79036211D01*
X86214549Y-78968340D01*
X86220829Y-78887258D01*
X86223759Y-78789633D01*
X86223603Y-78670256D01*
X86223444Y-78656362D01*
X86511134Y-78656362D01*
X86512188Y-78758357D01*
X86516329Y-79022658D01*
X86619271Y-79026578D01*
X86630832Y-79026975D01*
X86686210Y-79026810D01*
X86720373Y-79021806D01*
X86738103Y-79011351D01*
X86741939Y-79002282D01*
X86746247Y-78974196D01*
X86749180Y-78926659D01*
X86750801Y-78857761D01*
X86751177Y-78765595D01*
X86750370Y-78648252D01*
X86746745Y-78304301D01*
X86650195Y-78300353D01*
X86553645Y-78296406D01*
X86530846Y-78395231D01*
X86526145Y-78417175D01*
X86518985Y-78461846D01*
X86514270Y-78513203D01*
X86511741Y-78576343D01*
X86511134Y-78656362D01*
X86223444Y-78656362D01*
X86223302Y-78643893D01*
X86222848Y-78558898D01*
X86223825Y-78493783D01*
X86226674Y-78442833D01*
X86231837Y-78400337D01*
X86239756Y-78360582D01*
X86250874Y-78317855D01*
X86265302Y-78258555D01*
X86286262Y-78109156D01*
X86289059Y-77951630D01*
X86273321Y-77794706D01*
X86271263Y-77782578D01*
X86248509Y-77676931D01*
X86216242Y-77559600D01*
X86177565Y-77440243D01*
X86135576Y-77328522D01*
X86093377Y-77234094D01*
X86035527Y-77124266D01*
X85920929Y-76934451D01*
X85788344Y-76746815D01*
X85636159Y-76559425D01*
X85462761Y-76370350D01*
X85266536Y-76177656D01*
X85045870Y-75979411D01*
X85027563Y-75963598D01*
X84980022Y-75921855D01*
X84947020Y-75889677D01*
X84924120Y-75860686D01*
X84906884Y-75828504D01*
X84890872Y-75786755D01*
X84871648Y-75729061D01*
X84868539Y-75719546D01*
X84839558Y-75620826D01*
X84819125Y-75526728D01*
X84806163Y-75429404D01*
X84799600Y-75321005D01*
X84798360Y-75193682D01*
X84798979Y-75147888D01*
X84802699Y-75046047D01*
X84810187Y-74946283D01*
X84822159Y-74842962D01*
X84839331Y-74730449D01*
X84862417Y-74603111D01*
X84892134Y-74455314D01*
X84894501Y-74444024D01*
X84941802Y-74248787D01*
X84996410Y-74075489D01*
X85057891Y-73925068D01*
X85125813Y-73798457D01*
X85199741Y-73696592D01*
X85279242Y-73620408D01*
X85298685Y-73605225D01*
X85341087Y-73570709D01*
X85374929Y-73541459D01*
X85376580Y-73539949D01*
X85398803Y-73517607D01*
X85402106Y-73505576D01*
X85388483Y-73497368D01*
X85386920Y-73496779D01*
X85348713Y-73489818D01*
X85294220Y-73487946D01*
X85233114Y-73490743D01*
X85175065Y-73497787D01*
X85129744Y-73508655D01*
X85125676Y-73510197D01*
X85085379Y-73531736D01*
X85037039Y-73565350D01*
X84990234Y-73604461D01*
X84943247Y-73652324D01*
X84884259Y-73727143D01*
X84829344Y-73815748D01*
X84777759Y-73920038D01*
X84728758Y-74041914D01*
X84681596Y-74183274D01*
X84635528Y-74346019D01*
X84589810Y-74532048D01*
X84543696Y-74743261D01*
X84533283Y-74793143D01*
X84510703Y-74899540D01*
X84487792Y-75005399D01*
X84465982Y-75104212D01*
X84446701Y-75189473D01*
X84431377Y-75254675D01*
X84413388Y-75336738D01*
X84391508Y-75497530D01*
X84391259Y-75648569D01*
X84413227Y-75795039D01*
X84457996Y-75942127D01*
X84526150Y-76095016D01*
X84542136Y-76125987D01*
X84571894Y-76181379D01*
X84598279Y-76227836D01*
X84616993Y-76257663D01*
X84634838Y-76291951D01*
X84645871Y-76357040D01*
X84638424Y-76403140D01*
X84609359Y-76451294D01*
X84562425Y-76483266D01*
X84502007Y-76494856D01*
X84471417Y-76491461D01*
X84431770Y-76474223D01*
X84392342Y-76439860D01*
X84350097Y-76385543D01*
X84302001Y-76308444D01*
X84256339Y-76223186D01*
X84189827Y-76067352D01*
X84139751Y-75905137D01*
X84108150Y-75743684D01*
X84097061Y-75590133D01*
X84097058Y-75588284D01*
X84095214Y-75532953D01*
X84089689Y-75501788D01*
X84080016Y-75492107D01*
X84056720Y-75495573D01*
X84008205Y-75508673D01*
X83943058Y-75529888D01*
X83865816Y-75557484D01*
X83781014Y-75589726D01*
X83693188Y-75624879D01*
X83606873Y-75661208D01*
X83526606Y-75696978D01*
X83456921Y-75730454D01*
X83418210Y-75750358D01*
X83242685Y-75848825D01*
X83065429Y-75960658D01*
X82893479Y-76080990D01*
X82733869Y-76204954D01*
X82593636Y-76327682D01*
X82479588Y-76434870D01*
X82551344Y-76556352D01*
X82618230Y-76678661D01*
X82712024Y-76893208D01*
X82781055Y-77115429D01*
X82824159Y-77341974D01*
X82826527Y-77361254D01*
X82836156Y-77527016D01*
X82829499Y-77704696D01*
X82807479Y-77886345D01*
X82771020Y-78064014D01*
X82721044Y-78229755D01*
X82694625Y-78296815D01*
X82661292Y-78371371D01*
X82624186Y-78447192D01*
X82586105Y-78519006D01*
X82549849Y-78581536D01*
X82518215Y-78629508D01*
X82494003Y-78657649D01*
X82473661Y-78671974D01*
X82420375Y-78689656D01*
X82366038Y-78685443D01*
X82316800Y-78661738D01*
X82278805Y-78620944D01*
X82258202Y-78565463D01*
X82256204Y-78548213D01*
X82258616Y-78517100D01*
X82271698Y-78482108D01*
X82298179Y-78434282D01*
X82324819Y-78387420D01*
X82389609Y-78255446D01*
X82447078Y-78113065D01*
X82492207Y-77972231D01*
X82493415Y-77967818D01*
X82506727Y-77917424D01*
X82516484Y-77874195D01*
X82523235Y-77832420D01*
X82527524Y-77786386D01*
X82529897Y-77730382D01*
X82530901Y-77658695D01*
X82531082Y-77565614D01*
X82531010Y-77520292D01*
X82530131Y-77430902D01*
X82527485Y-77359239D01*
X82522119Y-77298737D01*
X82513082Y-77242829D01*
X82499421Y-77184950D01*
X82480184Y-77118533D01*
X82454418Y-77037012D01*
X82450320Y-77024600D01*
X82409939Y-76921901D01*
X82356100Y-76809557D01*
X82293351Y-76696452D01*
X82226244Y-76591470D01*
X82198215Y-76548720D01*
X82164493Y-76488480D01*
X82135106Y-76422774D01*
X82108593Y-76347305D01*
X82083495Y-76257778D01*
X82058349Y-76149897D01*
X82031696Y-76019367D01*
X82006585Y-75881728D01*
X81977972Y-75685811D01*
X81962013Y-75509397D01*
X81958691Y-75349776D01*
X81967986Y-75204236D01*
X81989880Y-75070068D01*
X82024354Y-74944561D01*
X82040413Y-74898198D01*
X82066166Y-74835007D01*
X82095045Y-74782653D01*
X82132732Y-74731486D01*
X82184906Y-74671857D01*
X82193771Y-74662133D01*
X82221795Y-74630124D01*
X82233563Y-74612111D01*
X82231070Y-74603513D01*
X82216311Y-74599751D01*
X82173121Y-74600714D01*
X82108589Y-74617738D01*
X82037990Y-74649061D01*
X81967761Y-74691226D01*
X81904341Y-74740775D01*
X81854166Y-74794252D01*
X81819188Y-74848556D01*
X81775728Y-74941890D01*
X81736827Y-75055839D01*
X81703514Y-75186775D01*
X81676823Y-75331069D01*
X81657785Y-75485091D01*
X81647967Y-75620187D01*
X81644957Y-75782866D01*
X81652449Y-75947335D01*
X81670834Y-76121153D01*
X81700503Y-76311878D01*
X81706769Y-76350036D01*
X81725587Y-76537841D01*
X81725261Y-76724267D01*
X81705713Y-76900487D01*
X81699414Y-76933563D01*
X81685710Y-76998281D01*
X81667340Y-77080091D01*
X81645529Y-77173672D01*
X81621502Y-77273706D01*
X81596483Y-77374873D01*
X81565182Y-77501230D01*
X81531615Y-77642767D01*
X81504651Y-77765480D01*
X81483583Y-77873364D01*
X81467704Y-77970416D01*
X81456310Y-78060631D01*
X81448692Y-78148005D01*
X81444145Y-78236532D01*
X81442566Y-78301931D01*
X81136299Y-78301931D01*
X81136370Y-78234806D01*
X81143796Y-78112112D01*
X81158953Y-77979429D01*
X81182264Y-77833706D01*
X81214157Y-77671888D01*
X81255055Y-77490923D01*
X81305384Y-77287759D01*
X81339300Y-77153419D01*
X81370007Y-77024997D01*
X81393637Y-76914936D01*
X81410544Y-76819222D01*
X81421080Y-76733843D01*
X81425601Y-76654788D01*
X81424460Y-76578043D01*
X81418010Y-76499598D01*
X81406606Y-76415440D01*
X81390602Y-76321556D01*
X81379526Y-76258682D01*
X81370911Y-76203380D01*
X81364474Y-76150895D01*
X81359885Y-76096239D01*
X81356819Y-76034426D01*
X81354947Y-75960468D01*
X81353941Y-75869378D01*
X81353475Y-75756169D01*
X81353549Y-75677174D01*
X81355478Y-75542387D01*
X81360271Y-75426904D01*
X81368539Y-75325629D01*
X81380891Y-75233464D01*
X81397935Y-75145312D01*
X81420280Y-75056076D01*
X81448536Y-74960660D01*
X81473730Y-74887363D01*
X81542029Y-74737169D01*
X81625808Y-74608536D01*
X81724666Y-74501858D01*
X81838200Y-74417526D01*
X81966008Y-74355934D01*
X82107687Y-74317475D01*
X82177146Y-74307431D01*
X82281998Y-74304792D01*
X82370523Y-74321158D01*
X82445168Y-74357114D01*
X82508379Y-74413245D01*
X82527472Y-74437690D01*
X82558808Y-74505504D01*
X82564003Y-74579890D01*
X82543040Y-74660935D01*
X82495900Y-74748726D01*
X82422568Y-74843348D01*
X82408340Y-74859679D01*
X82356436Y-74924849D01*
X82319754Y-74984271D01*
X82293401Y-75047036D01*
X82272484Y-75122235D01*
X82262018Y-75187349D01*
X82255942Y-75280270D01*
X82255357Y-75389809D01*
X82259879Y-75510823D01*
X82269128Y-75638170D01*
X82282721Y-75766707D01*
X82300276Y-75891291D01*
X82321410Y-76006778D01*
X82345742Y-76108027D01*
X82353020Y-76128232D01*
X82361213Y-76134585D01*
X82370860Y-76123038D01*
X82383022Y-76091440D01*
X82398764Y-76037642D01*
X82419147Y-75959493D01*
X82437686Y-75892464D01*
X82484970Y-75758409D01*
X82541269Y-75639146D01*
X82604520Y-75538729D01*
X82672658Y-75461216D01*
X82682575Y-75452166D01*
X82797584Y-75364566D01*
X82920559Y-75300536D01*
X83048704Y-75261254D01*
X83179219Y-75247898D01*
X83197871Y-75248128D01*
X83280903Y-75257368D01*
X83347026Y-75282510D01*
X83402452Y-75326859D01*
X83453393Y-75393717D01*
X83454735Y-75393791D01*
X83473399Y-75387960D01*
X83509189Y-75374416D01*
X83556048Y-75355417D01*
X83582030Y-75344755D01*
X83662251Y-75313201D01*
X83751786Y-75279532D01*
X83843749Y-75246215D01*
X83931257Y-75215713D01*
X84007423Y-75190494D01*
X84065364Y-75173022D01*
X84082428Y-75168181D01*
X84124055Y-75153419D01*
X84146862Y-75137972D01*
X84156984Y-75118166D01*
X84157434Y-75116314D01*
X84163273Y-75089958D01*
X84173400Y-75042346D01*
X84186852Y-74978088D01*
X84202661Y-74901793D01*
X84219861Y-74818070D01*
X84243449Y-74703881D01*
X84271502Y-74572047D01*
X84296710Y-74459189D01*
X84320131Y-74360901D01*
X84342826Y-74272774D01*
X84365855Y-74190399D01*
X84390277Y-74109370D01*
X84417465Y-74025477D01*
X84486829Y-73840172D01*
X84561594Y-73680051D01*
X84642588Y-73543989D01*
X84730640Y-73430857D01*
X84826577Y-73339529D01*
X84931227Y-73268878D01*
X85045419Y-73217777D01*
X85057292Y-73213693D01*
X85096224Y-73201959D01*
X85133879Y-73194579D01*
X85177342Y-73190850D01*
X85233698Y-73190071D01*
X85310033Y-73191538D01*
G37*
%TD*%
M02*
