%TF.GenerationSoftware,KiCad,Pcbnew,8.0.4*%
%TF.CreationDate,2024-11-18T10:24:52-08:00*%
%TF.ProjectId,Mother,4d6f7468-6572-42e6-9b69-6361645f7063,rev?*%
%TF.SameCoordinates,Original*%
%TF.FileFunction,Copper,L2,Bot*%
%TF.FilePolarity,Positive*%
%FSLAX46Y46*%
G04 Gerber Fmt 4.6, Leading zero omitted, Abs format (unit mm)*
G04 Created by KiCad (PCBNEW 8.0.4) date 2024-11-18 10:24:52*
%MOMM*%
%LPD*%
G01*
G04 APERTURE LIST*
%TA.AperFunction,ComponentPad*%
%ADD10R,1.000000X1.000000*%
%TD*%
%TA.AperFunction,ComponentPad*%
%ADD11O,1.000000X1.000000*%
%TD*%
%TA.AperFunction,ComponentPad*%
%ADD12R,1.600000X1.600000*%
%TD*%
%TA.AperFunction,ComponentPad*%
%ADD13C,1.600000*%
%TD*%
%TA.AperFunction,ComponentPad*%
%ADD14R,1.300000X1.300000*%
%TD*%
%TA.AperFunction,ComponentPad*%
%ADD15C,1.300000*%
%TD*%
%TA.AperFunction,ViaPad*%
%ADD16C,0.600000*%
%TD*%
%TA.AperFunction,Conductor*%
%ADD17C,0.200000*%
%TD*%
G04 APERTURE END LIST*
D10*
%TO.P,J1,1,Pin_1*%
%TO.N,GPIO14_TXD0*%
X136525000Y-160020000D03*
D11*
%TO.P,J1,2,Pin_2*%
%TO.N,GPIO15_RXD0*%
X136525000Y-161290000D03*
%TO.P,J1,3,Pin_3*%
%TO.N,Vss*%
X136525000Y-162560000D03*
%TO.P,J1,4,Pin_4*%
%TO.N,Vdd*%
X136525000Y-163830000D03*
%TO.P,J1,5,Pin_5*%
%TO.N,GND*%
X136525000Y-165100000D03*
%TD*%
D12*
%TO.P,U1,1,GND*%
%TO.N,GND*%
X132715000Y-139649200D03*
D13*
%TO.P,U1,2,0_RX1_CRX2_CS1*%
%TO.N,unconnected-(U1-0_RX1_CRX2_CS1-Pad2)*%
X132715000Y-137109200D03*
%TO.P,U1,3,1_TX1_CTX2_MISO1*%
%TO.N,unconnected-(U1-1_TX1_CTX2_MISO1-Pad3)*%
X132715000Y-134569200D03*
%TO.P,U1,4,2_OUT2*%
%TO.N,CS 10*%
X132715000Y-132029200D03*
%TO.P,U1,5,3_LRCLK2*%
%TO.N,CS 9*%
X132715000Y-129489200D03*
%TO.P,U1,6,4_BCLK2*%
%TO.N,CS 8*%
X132715000Y-126949200D03*
%TO.P,U1,7,5_IN2*%
%TO.N,CS 7*%
X132715000Y-124409200D03*
%TO.P,U1,8,6_OUT1D*%
%TO.N,CS 6*%
X132715000Y-121869200D03*
%TO.P,U1,9,7_RX2_OUT1A*%
%TO.N,CS 5*%
X132715000Y-119329200D03*
%TO.P,U1,10,8_TX2_IN1*%
%TO.N,CS 4*%
X132715000Y-116789200D03*
%TO.P,U1,11,9_OUT1C*%
%TO.N,SDI*%
X132715000Y-114249200D03*
%TO.P,U1,12,10_CS_MQSR*%
%TO.N,CS 3*%
X132715000Y-111709200D03*
%TO.P,U1,13,11_MOSI_CTX1*%
%TO.N,CS 2*%
X132715000Y-109169200D03*
%TO.P,U1,14,12_MISO_MQSL*%
%TO.N,CS 1*%
X132715000Y-106629200D03*
%TO.P,U1,15,3V3*%
%TO.N,unconnected-(U1-3V3-Pad15)*%
X132715000Y-104089200D03*
%TO.P,U1,16,24_A10_TX6_SCL2*%
%TO.N,unconnected-(U1-24_A10_TX6_SCL2-Pad16)*%
X132715000Y-101549200D03*
%TO.P,U1,17,25_A11_RX6_SDA2*%
%TO.N,unconnected-(U1-25_A11_RX6_SDA2-Pad17)*%
X132715000Y-99009200D03*
%TO.P,U1,18,26_A12_MOSI1*%
%TO.N,unconnected-(U1-26_A12_MOSI1-Pad18)*%
X132715000Y-96469200D03*
%TO.P,U1,19,27_A13_SCK1*%
%TO.N,unconnected-(U1-27_A13_SCK1-Pad19)*%
X132715000Y-93929200D03*
%TO.P,U1,20,28_RX7*%
%TO.N,unconnected-(U1-28_RX7-Pad20)*%
X132715000Y-91389200D03*
%TO.P,U1,21,29_TX7*%
%TO.N,unconnected-(U1-29_TX7-Pad21)*%
X132715000Y-88849200D03*
%TO.P,U1,22,30_CRX3*%
%TO.N,unconnected-(U1-30_CRX3-Pad22)*%
X132715000Y-86309200D03*
%TO.P,U1,23,31_CTX3*%
%TO.N,unconnected-(U1-31_CTX3-Pad23)*%
X132715000Y-83769200D03*
%TO.P,U1,24,32_OUT1B*%
%TO.N,unconnected-(U1-32_OUT1B-Pad24)*%
X132715000Y-81229200D03*
%TO.P,U1,25,33_MCLK2*%
%TO.N,unconnected-(U1-33_MCLK2-Pad25)*%
X117475000Y-81229200D03*
%TO.P,U1,26,34_RX8*%
%TO.N,GPIO14_TXD0*%
X117475000Y-83769200D03*
%TO.P,U1,27,35_TX8*%
%TO.N,GPIO15_RXD0*%
X117475000Y-86309200D03*
%TO.P,U1,28,36_CS*%
%TO.N,unconnected-(U1-36_CS-Pad28)*%
X117475000Y-88849200D03*
%TO.P,U1,29,37_CS*%
%TO.N,unconnected-(U1-37_CS-Pad29)*%
X117475000Y-91389200D03*
%TO.P,U1,30,38_CS1_IN1*%
%TO.N,unconnected-(U1-38_CS1_IN1-Pad30)*%
X117475000Y-93929200D03*
%TO.P,U1,31,39_MISO1_OUT1A*%
%TO.N,unconnected-(U1-39_MISO1_OUT1A-Pad31)*%
X117475000Y-96469200D03*
%TO.P,U1,32,40_A16*%
%TO.N,unconnected-(U1-40_A16-Pad32)*%
X117475000Y-99009200D03*
%TO.P,U1,33,41_A17*%
%TO.N,unconnected-(U1-41_A17-Pad33)*%
X117475000Y-101549200D03*
%TO.P,U1,34,GND*%
%TO.N,unconnected-(U1-GND-Pad34)*%
X117475000Y-104089200D03*
%TO.P,U1,35,13_SCK_LED*%
%TO.N,CKL*%
X117475000Y-106629200D03*
%TO.P,U1,36,14_A0_TX3_SPDIF_OUT*%
%TO.N,OUT 1*%
X117475000Y-109169200D03*
%TO.P,U1,37,15_A1_RX3_SPDIF_IN*%
%TO.N,OUT 2*%
X117475000Y-111709200D03*
%TO.P,U1,38,16_A2_RX4_SCL1*%
%TO.N,OUT 3*%
X117475000Y-114249200D03*
%TO.P,U1,39,17_A3_TX4_SDA1*%
%TO.N,OUT 4*%
X117475000Y-116789200D03*
%TO.P,U1,40,18_A4_SDA*%
%TO.N,OUT 5*%
X117475000Y-119329200D03*
%TO.P,U1,41,19_A5_SCL*%
%TO.N,OUT 6*%
X117475000Y-121869200D03*
%TO.P,U1,42,20_A6_TX5_LRCLK1*%
%TO.N,OUT 7*%
X117475000Y-124409200D03*
%TO.P,U1,43,21_A7_RX5_BCLK1*%
%TO.N,OUT 8*%
X117475000Y-126949200D03*
%TO.P,U1,44,22_A8_CTX1*%
%TO.N,OUT 9*%
X117475000Y-129489200D03*
%TO.P,U1,45,23_A9_CRX1_MCLK1*%
%TO.N,OUT 10*%
X117475000Y-132029200D03*
%TO.P,U1,46,3V3*%
%TO.N,unconnected-(U1-3V3-Pad46)*%
X117475000Y-134569200D03*
%TO.P,U1,47,GND*%
%TO.N,unconnected-(U1-GND-Pad47)*%
X117475000Y-137109200D03*
%TO.P,U1,48,VIN*%
%TO.N,unconnected-(U1-VIN-Pad48)*%
X117475000Y-139649200D03*
%TO.P,U1,49*%
%TO.N,N/C*%
X120015000Y-137109200D03*
%TO.P,U1,50*%
X130175000Y-93929200D03*
%TO.P,U1,51*%
X127635000Y-93929200D03*
%TO.P,U1,52*%
X125095000Y-93929200D03*
%TO.P,U1,53*%
X122555000Y-93929200D03*
%TO.P,U1,54*%
X120015000Y-93929200D03*
D12*
%TO.P,U1,55*%
X129664200Y-133350000D03*
D13*
%TO.P,U1,56*%
X129664200Y-130810000D03*
%TO.P,U1,57*%
X129664200Y-128270000D03*
%TO.P,U1,58*%
X129664200Y-125730000D03*
%TO.P,U1,59*%
X129664200Y-123190000D03*
D14*
%TO.P,U1,60*%
X119913400Y-126679200D03*
D15*
%TO.P,U1,61*%
X121913400Y-126679200D03*
%TO.P,U1,62*%
X123913400Y-126679200D03*
%TO.P,U1,63*%
X123913400Y-124679200D03*
%TO.P,U1,64*%
X121913400Y-124679200D03*
%TO.P,U1,65*%
X119913400Y-124679200D03*
%TO.P,U1,66*%
X123825000Y-138919200D03*
%TO.P,U1,67*%
X126365000Y-138919200D03*
%TD*%
D16*
%TO.N,Vdd*%
X111125000Y-149860000D03*
X141605000Y-130810000D03*
X139065000Y-101600000D03*
X112395000Y-64770000D03*
X141605000Y-156210000D03*
X139065000Y-161290000D03*
X109855000Y-85090000D03*
X108585000Y-107950000D03*
X109855000Y-128270000D03*
X139065000Y-107950000D03*
X139065000Y-64720000D03*
%TO.N,CKL*%
X139065000Y-95250000D03*
X139065000Y-143510000D03*
X135255000Y-110490000D03*
X112395000Y-153670000D03*
X141605000Y-135890000D03*
X141605000Y-110490000D03*
X109855000Y-82550000D03*
X136525000Y-72390000D03*
X113795000Y-106680000D03*
X112395000Y-129540000D03*
X108585000Y-112181471D03*
X109855000Y-91440000D03*
X109855000Y-68580000D03*
%TO.N,GND*%
X115570000Y-132080000D03*
X110490000Y-162560000D03*
X152400000Y-144780000D03*
X99060000Y-121920000D03*
X125730000Y-135890000D03*
X99060000Y-97790000D03*
X100330000Y-144780000D03*
X134620000Y-139700000D03*
X152400000Y-120650000D03*
X99060000Y-73660000D03*
X151130000Y-73660000D03*
X140970000Y-165100000D03*
X151130000Y-96520000D03*
%TO.N,SDI*%
X140335000Y-140970000D03*
X136525000Y-109220000D03*
X113665000Y-128270000D03*
X136525000Y-113030000D03*
X141605000Y-133350000D03*
X142215000Y-86970000D03*
X140310000Y-66015000D03*
X111125000Y-63500000D03*
X109855000Y-88900000D03*
X137795000Y-118110000D03*
X113665000Y-149860000D03*
X109855000Y-111760000D03*
X141605000Y-105410000D03*
%TO.N,Vss*%
X139065000Y-130810000D03*
X109855000Y-127000000D03*
X108585000Y-105410000D03*
X139040000Y-85065000D03*
X138206765Y-105821765D03*
X136525000Y-132080000D03*
X136525000Y-135890000D03*
X142115735Y-154850735D03*
X136525000Y-66040000D03*
X107950000Y-57785000D03*
X110276471Y-149860000D03*
X108585000Y-81280000D03*
X137795000Y-102870000D03*
%TO.N,GPIO15_RXD0*%
X114935000Y-87630000D03*
X135255000Y-125730000D03*
%TD*%
D17*
%TO.N,Vdd*%
X109185000Y-85760000D02*
X109855000Y-85090000D01*
X139065000Y-161290000D02*
X137795000Y-160020000D01*
X117019365Y-136009200D02*
X114065000Y-138963565D01*
X112643529Y-154270000D02*
X112146471Y-154270000D01*
X107985000Y-108550000D02*
X107985000Y-113278529D01*
X108585000Y-107950000D02*
X107985000Y-108550000D01*
X107985000Y-113278529D02*
X110455000Y-115748529D01*
X109185000Y-107350000D02*
X109185000Y-85760000D01*
X140335000Y-109220000D02*
X139065000Y-107950000D01*
X137795000Y-160020000D02*
X137795000Y-135890000D01*
X131864200Y-133350000D02*
X130594200Y-134620000D01*
X130594200Y-134620000D02*
X128905000Y-134620000D01*
X128905000Y-134620000D02*
X126365000Y-137160000D01*
X110490000Y-147720000D02*
X110490000Y-128905000D01*
X114265000Y-152648529D02*
X112643529Y-154270000D01*
X110455000Y-127670000D02*
X109855000Y-128270000D01*
X141605000Y-156210000D02*
X141605000Y-158750000D01*
X110490000Y-149225000D02*
X110490000Y-147720000D01*
X137795000Y-134620000D02*
X137795000Y-135890000D01*
X111125000Y-153248529D02*
X111125000Y-149860000D01*
X114265000Y-149611471D02*
X114265000Y-152648529D01*
X111125000Y-149860000D02*
X110490000Y-149225000D01*
X114065000Y-138963565D02*
X114065000Y-149411471D01*
X137795000Y-135890000D02*
X135255000Y-133350000D01*
X140335000Y-100330000D02*
X139065000Y-101600000D01*
X126365000Y-137160000D02*
X121621435Y-137160000D01*
X139065000Y-107950000D02*
X139065000Y-101600000D01*
X139065000Y-69001471D02*
X140335000Y-70271471D01*
X135255000Y-133350000D02*
X131864200Y-133350000D01*
X139065000Y-64720000D02*
X139065000Y-69001471D01*
X120470635Y-136009200D02*
X117019365Y-136009200D01*
X114935000Y-80010000D02*
X109855000Y-85090000D01*
X141605000Y-130810000D02*
X137795000Y-134620000D01*
X112146471Y-154270000D02*
X111125000Y-153248529D01*
X112395000Y-64770000D02*
X114935000Y-67310000D01*
X141605000Y-130810000D02*
X140335000Y-129540000D01*
X141605000Y-158750000D02*
X139065000Y-161290000D01*
X108585000Y-107950000D02*
X109185000Y-107350000D01*
X140335000Y-70271471D02*
X140335000Y-100330000D01*
X114935000Y-67310000D02*
X114935000Y-80010000D01*
X114065000Y-149411471D02*
X114265000Y-149611471D01*
X140335000Y-129540000D02*
X140335000Y-109220000D01*
X110455000Y-115748529D02*
X110455000Y-127670000D01*
X110490000Y-128905000D02*
X109855000Y-128270000D01*
X121621435Y-137160000D02*
X120470635Y-136009200D01*
%TO.N,CKL*%
X113665000Y-101600000D02*
X109855000Y-97790000D01*
X135255000Y-101600000D02*
X135255000Y-110490000D01*
X113665000Y-106550000D02*
X113665000Y-101600000D01*
X142205000Y-111090000D02*
X141605000Y-110490000D01*
X139065000Y-95250000D02*
X139065000Y-97790000D01*
X121335800Y-110490000D02*
X117475000Y-106629200D01*
X135255000Y-91440000D02*
X135255000Y-73660000D01*
X109855000Y-82550000D02*
X109855000Y-68580000D01*
X108585000Y-112181471D02*
X108585000Y-113030000D01*
X141605000Y-140970000D02*
X141605000Y-135890000D01*
X139065000Y-143510000D02*
X141605000Y-140970000D01*
X135255000Y-73660000D02*
X136525000Y-72390000D01*
X139065000Y-95250000D02*
X135255000Y-91440000D01*
X112395000Y-116840000D02*
X112395000Y-129540000D01*
X113795000Y-106680000D02*
X113665000Y-106680000D01*
X142205000Y-135290000D02*
X142205000Y-111090000D01*
X139065000Y-97790000D02*
X135255000Y-101600000D01*
X112395000Y-129540000D02*
X112395000Y-153670000D01*
X135255000Y-110490000D02*
X121335800Y-110490000D01*
X109855000Y-97790000D02*
X109855000Y-91440000D01*
X108585000Y-111760000D02*
X108585000Y-112181471D01*
X108585000Y-113030000D02*
X112395000Y-116840000D01*
X113795000Y-106680000D02*
X113665000Y-106550000D01*
X141605000Y-135890000D02*
X142205000Y-135290000D01*
X113665000Y-106680000D02*
X108585000Y-111760000D01*
%TO.N,GND*%
X99060000Y-121920000D02*
X99060000Y-97790000D01*
X123190000Y-133350000D02*
X125730000Y-135890000D01*
X116840000Y-133350000D02*
X123190000Y-133350000D01*
X101525100Y-144780000D02*
X110490000Y-153744900D01*
X115570000Y-132080000D02*
X116840000Y-133350000D01*
X100330000Y-123190000D02*
X99060000Y-121920000D01*
X110490000Y-153744900D02*
X110490000Y-162560000D01*
X99060000Y-97790000D02*
X99060000Y-73660000D01*
X100330000Y-144780000D02*
X100330000Y-123190000D01*
X100330000Y-144780000D02*
X101525100Y-144780000D01*
%TO.N,SDI*%
X113665000Y-115570000D02*
X113665000Y-107658529D01*
X131394200Y-115570000D02*
X132715000Y-114249200D01*
X142205000Y-104810000D02*
X142205000Y-86980000D01*
X109855000Y-88900000D02*
X113665000Y-92710000D01*
X113665000Y-92710000D02*
X113665000Y-81845686D01*
X115335000Y-80175686D02*
X115335000Y-66861471D01*
X142205000Y-86980000D02*
X142215000Y-86970000D01*
X140335000Y-140970000D02*
X140335000Y-134620000D01*
X115335000Y-66861471D02*
X111973529Y-63500000D01*
X116205000Y-115570000D02*
X131394200Y-115570000D01*
X114395000Y-106928529D02*
X114395000Y-93440000D01*
X113665000Y-113030000D02*
X116205000Y-115570000D01*
X114395000Y-93440000D02*
X113665000Y-92710000D01*
X136525000Y-116840000D02*
X136525000Y-113030000D01*
X141605000Y-105410000D02*
X142205000Y-104810000D01*
X111973529Y-63500000D02*
X111125000Y-63500000D01*
X109855000Y-111760000D02*
X113665000Y-115570000D01*
X137795000Y-118110000D02*
X136525000Y-116840000D01*
X113665000Y-81845686D02*
X115335000Y-80175686D01*
X136525000Y-109220000D02*
X136525000Y-113030000D01*
X113665000Y-107658529D02*
X114395000Y-106928529D01*
X113665000Y-115570000D02*
X113665000Y-128270000D01*
X140335000Y-134620000D02*
X141605000Y-133350000D01*
X113665000Y-128270000D02*
X113665000Y-149860000D01*
X142215000Y-67920000D02*
X142215000Y-86970000D01*
X140310000Y-66015000D02*
X142215000Y-67920000D01*
%TO.N,Vss*%
X109255000Y-128518529D02*
X109255000Y-127600000D01*
X115605000Y-139963565D02*
X117138565Y-138430000D01*
X138465000Y-107701471D02*
X138665000Y-107501471D01*
X138665000Y-107501471D02*
X138665000Y-106280000D01*
X107585000Y-124730000D02*
X107585000Y-106410000D01*
X108585000Y-81280000D02*
X108585000Y-105410000D01*
X137795000Y-102870000D02*
X138206765Y-103281765D01*
X142115735Y-154850735D02*
X142205000Y-154940000D01*
X108585000Y-58420000D02*
X107950000Y-57785000D01*
X138206765Y-103281765D02*
X138206765Y-105821765D01*
X139065000Y-130810000D02*
X137795000Y-132080000D01*
X109255000Y-127600000D02*
X109855000Y-127000000D01*
X122555000Y-138430000D02*
X123015800Y-137969200D01*
X129889885Y-135890000D02*
X136525000Y-135890000D01*
X127810685Y-137969200D02*
X129889885Y-135890000D01*
X136525000Y-67310000D02*
X139040000Y-69825000D01*
X136525000Y-66040000D02*
X136525000Y-67310000D01*
X110090000Y-149673529D02*
X110090000Y-129353529D01*
X142205000Y-159420000D02*
X139065000Y-162560000D01*
X139065000Y-162560000D02*
X136525000Y-162560000D01*
X112809215Y-154670000D02*
X115605000Y-151874215D01*
X110276471Y-149860000D02*
X110090000Y-149673529D01*
X142205000Y-154940000D02*
X142205000Y-159420000D01*
X110276471Y-152965686D02*
X111980785Y-154670000D01*
X139065000Y-130810000D02*
X139065000Y-108798529D01*
X139065000Y-108798529D02*
X138465000Y-108198529D01*
X109855000Y-127000000D02*
X107585000Y-124730000D01*
X138665000Y-106280000D02*
X138206765Y-105821765D01*
X137795000Y-132080000D02*
X136525000Y-132080000D01*
X123015800Y-137969200D02*
X127810685Y-137969200D01*
X117138565Y-138430000D02*
X122555000Y-138430000D01*
X110276471Y-149860000D02*
X110276471Y-152965686D01*
X115605000Y-151874215D02*
X115605000Y-139963565D01*
X110090000Y-129353529D02*
X109255000Y-128518529D01*
X107585000Y-106410000D02*
X108585000Y-105410000D01*
X108585000Y-81280000D02*
X108585000Y-58420000D01*
X138465000Y-108198529D02*
X138465000Y-107701471D01*
X111980785Y-154670000D02*
X112809215Y-154670000D01*
X139040000Y-69825000D02*
X139040000Y-85065000D01*
%TO.N,GPIO15_RXD0*%
X117590635Y-90289200D02*
X117019365Y-90289200D01*
X116205000Y-91103565D02*
X116205000Y-111994835D01*
X117359365Y-113149200D02*
X134104200Y-113149200D01*
X134104200Y-113149200D02*
X135255000Y-114300000D01*
X117019365Y-90289200D02*
X116205000Y-91103565D01*
X135255000Y-114300000D02*
X135255000Y-125730000D01*
X117811435Y-87630000D02*
X118575000Y-88393565D01*
X118575000Y-89304835D02*
X117590635Y-90289200D01*
X118575000Y-88393565D02*
X118575000Y-89304835D01*
X114935000Y-87630000D02*
X117811435Y-87630000D01*
X116205000Y-111994835D02*
X117359365Y-113149200D01*
%TD*%
%TA.AperFunction,Conductor*%
%TO.N,GND*%
G36*
X115647539Y-51320185D02*
G01*
X115693294Y-51372989D01*
X115704500Y-51424500D01*
X115704500Y-66082374D01*
X115684815Y-66149413D01*
X115632011Y-66195168D01*
X115562853Y-66205112D01*
X115499297Y-66176087D01*
X115492819Y-66170055D01*
X112461119Y-63138355D01*
X112461117Y-63138352D01*
X112342246Y-63019481D01*
X112342238Y-63019475D01*
X112240465Y-62960717D01*
X112240463Y-62960716D01*
X112205319Y-62940425D01*
X112205318Y-62940424D01*
X112192792Y-62937067D01*
X112052586Y-62899499D01*
X111894472Y-62899499D01*
X111886876Y-62899499D01*
X111886860Y-62899500D01*
X111707412Y-62899500D01*
X111640373Y-62879815D01*
X111630097Y-62872445D01*
X111627263Y-62870185D01*
X111627262Y-62870184D01*
X111570496Y-62834515D01*
X111474523Y-62774211D01*
X111304254Y-62714631D01*
X111304249Y-62714630D01*
X111125004Y-62694435D01*
X111124996Y-62694435D01*
X110945750Y-62714630D01*
X110945745Y-62714631D01*
X110775476Y-62774211D01*
X110622737Y-62870184D01*
X110495184Y-62997737D01*
X110399211Y-63150476D01*
X110339631Y-63320745D01*
X110339630Y-63320750D01*
X110319435Y-63499996D01*
X110319435Y-63500003D01*
X110339630Y-63679249D01*
X110339631Y-63679254D01*
X110399211Y-63849523D01*
X110452689Y-63934632D01*
X110495184Y-64002262D01*
X110622738Y-64129816D01*
X110775478Y-64225789D01*
X110945745Y-64285368D01*
X110945750Y-64285369D01*
X111124996Y-64305565D01*
X111125000Y-64305565D01*
X111125004Y-64305565D01*
X111304249Y-64285369D01*
X111304252Y-64285368D01*
X111304255Y-64285368D01*
X111474522Y-64225789D01*
X111538352Y-64185681D01*
X111605587Y-64166681D01*
X111672423Y-64187048D01*
X111717637Y-64240315D01*
X111726876Y-64309571D01*
X111709318Y-64356647D01*
X111669211Y-64420476D01*
X111609631Y-64590745D01*
X111609630Y-64590750D01*
X111589435Y-64769996D01*
X111589435Y-64770003D01*
X111609630Y-64949249D01*
X111609631Y-64949254D01*
X111669211Y-65119523D01*
X111738397Y-65229631D01*
X111765184Y-65272262D01*
X111892738Y-65399816D01*
X112045478Y-65495789D01*
X112215745Y-65555368D01*
X112302669Y-65565161D01*
X112367080Y-65592226D01*
X112376465Y-65600700D01*
X114298181Y-67522416D01*
X114331666Y-67583739D01*
X114334500Y-67610097D01*
X114334500Y-79709902D01*
X114314815Y-79776941D01*
X114298181Y-79797583D01*
X109836465Y-84259298D01*
X109775142Y-84292783D01*
X109762668Y-84294837D01*
X109675750Y-84304630D01*
X109505478Y-84364210D01*
X109375472Y-84445899D01*
X109308235Y-84464899D01*
X109241400Y-84444531D01*
X109196186Y-84391263D01*
X109185500Y-84340905D01*
X109185500Y-83299094D01*
X109205185Y-83232055D01*
X109257989Y-83186300D01*
X109327147Y-83176356D01*
X109375471Y-83194100D01*
X109413193Y-83217802D01*
X109505475Y-83275788D01*
X109675745Y-83335368D01*
X109675750Y-83335369D01*
X109854996Y-83355565D01*
X109855000Y-83355565D01*
X109855004Y-83355565D01*
X110034249Y-83335369D01*
X110034252Y-83335368D01*
X110034255Y-83335368D01*
X110204522Y-83275789D01*
X110357262Y-83179816D01*
X110484816Y-83052262D01*
X110580789Y-82899522D01*
X110640368Y-82729255D01*
X110650579Y-82638629D01*
X110660565Y-82550003D01*
X110660565Y-82549996D01*
X110640369Y-82370750D01*
X110640368Y-82370745D01*
X110636527Y-82359767D01*
X110580789Y-82200478D01*
X110484816Y-82047738D01*
X110484814Y-82047736D01*
X110484813Y-82047734D01*
X110482550Y-82044896D01*
X110481659Y-82042715D01*
X110481111Y-82041842D01*
X110481264Y-82041745D01*
X110456144Y-81980209D01*
X110455500Y-81967587D01*
X110455500Y-69162412D01*
X110475185Y-69095373D01*
X110482555Y-69085097D01*
X110484810Y-69082267D01*
X110484816Y-69082262D01*
X110580789Y-68929522D01*
X110640368Y-68759255D01*
X110660565Y-68580000D01*
X110640368Y-68400745D01*
X110580789Y-68230478D01*
X110484816Y-68077738D01*
X110357262Y-67950184D01*
X110334528Y-67935899D01*
X110204523Y-67854211D01*
X110034254Y-67794631D01*
X110034249Y-67794630D01*
X109855004Y-67774435D01*
X109854996Y-67774435D01*
X109675750Y-67794630D01*
X109675745Y-67794631D01*
X109505476Y-67854211D01*
X109375472Y-67935899D01*
X109308235Y-67954899D01*
X109241400Y-67934531D01*
X109196186Y-67881263D01*
X109185500Y-67830905D01*
X109185500Y-58509060D01*
X109185501Y-58509047D01*
X109185501Y-58340944D01*
X109144576Y-58188214D01*
X109144573Y-58188209D01*
X109065524Y-58051290D01*
X109065518Y-58051282D01*
X108780700Y-57766465D01*
X108747215Y-57705142D01*
X108745163Y-57692686D01*
X108735368Y-57605745D01*
X108675789Y-57435478D01*
X108579816Y-57282738D01*
X108452262Y-57155184D01*
X108299523Y-57059211D01*
X108129254Y-56999631D01*
X108129249Y-56999630D01*
X107950004Y-56979435D01*
X107949996Y-56979435D01*
X107770750Y-56999630D01*
X107770745Y-56999631D01*
X107600476Y-57059211D01*
X107447737Y-57155184D01*
X107320184Y-57282737D01*
X107224211Y-57435476D01*
X107164631Y-57605745D01*
X107164630Y-57605750D01*
X107144435Y-57784996D01*
X107144435Y-57785003D01*
X107164630Y-57964249D01*
X107164631Y-57964254D01*
X107224211Y-58134523D01*
X107257948Y-58188214D01*
X107320184Y-58287262D01*
X107447738Y-58414816D01*
X107600478Y-58510789D01*
X107770745Y-58570368D01*
X107857669Y-58580161D01*
X107922080Y-58607226D01*
X107931465Y-58615700D01*
X107948181Y-58632416D01*
X107981666Y-58693739D01*
X107984500Y-58720097D01*
X107984500Y-80697587D01*
X107964815Y-80764626D01*
X107957450Y-80774896D01*
X107955186Y-80777734D01*
X107859211Y-80930476D01*
X107799631Y-81100745D01*
X107799630Y-81100750D01*
X107779435Y-81279996D01*
X107779435Y-81280003D01*
X107799630Y-81459249D01*
X107799631Y-81459254D01*
X107859211Y-81629523D01*
X107955185Y-81782263D01*
X107957445Y-81785097D01*
X107958334Y-81787275D01*
X107958889Y-81788158D01*
X107958734Y-81788255D01*
X107983855Y-81849783D01*
X107984500Y-81862412D01*
X107984500Y-104827587D01*
X107964815Y-104894626D01*
X107957450Y-104904896D01*
X107955186Y-104907734D01*
X107859210Y-105060478D01*
X107799630Y-105230750D01*
X107789837Y-105317668D01*
X107762770Y-105382082D01*
X107754298Y-105391465D01*
X107216286Y-105929478D01*
X107104481Y-106041282D01*
X107104480Y-106041284D01*
X107055403Y-106126288D01*
X107025423Y-106178215D01*
X106984499Y-106330943D01*
X106984499Y-106330945D01*
X106984499Y-106499046D01*
X106984500Y-106499059D01*
X106984500Y-124643330D01*
X106984499Y-124643348D01*
X106984499Y-124809054D01*
X106984498Y-124809054D01*
X107025423Y-124961785D01*
X107049918Y-125004211D01*
X107104479Y-125098714D01*
X107104481Y-125098717D01*
X107223349Y-125217585D01*
X107223354Y-125217589D01*
X108918084Y-126912320D01*
X108951568Y-126973641D01*
X108946584Y-127043333D01*
X108918085Y-127087679D01*
X108886286Y-127119478D01*
X108774481Y-127231282D01*
X108774477Y-127231287D01*
X108752156Y-127269951D01*
X108752155Y-127269953D01*
X108695423Y-127368215D01*
X108654499Y-127520943D01*
X108654499Y-127520945D01*
X108654499Y-127689046D01*
X108654500Y-127689059D01*
X108654500Y-128431859D01*
X108654499Y-128431877D01*
X108654499Y-128597583D01*
X108654498Y-128597583D01*
X108654499Y-128597586D01*
X108686361Y-128716496D01*
X108695424Y-128750316D01*
X108705401Y-128767596D01*
X108705402Y-128767598D01*
X108774477Y-128887241D01*
X108774481Y-128887246D01*
X108893349Y-129006114D01*
X108893355Y-129006119D01*
X109453181Y-129565945D01*
X109486666Y-129627268D01*
X109489500Y-129653626D01*
X109489500Y-149586859D01*
X109489499Y-149586877D01*
X109489499Y-149688020D01*
X109488719Y-149701904D01*
X109470906Y-149859997D01*
X109470906Y-149860003D01*
X109491101Y-150039249D01*
X109491102Y-150039254D01*
X109550682Y-150209523D01*
X109646656Y-150362263D01*
X109648916Y-150365097D01*
X109649805Y-150367275D01*
X109650360Y-150368158D01*
X109650205Y-150368255D01*
X109675326Y-150429783D01*
X109675971Y-150442412D01*
X109675971Y-152879016D01*
X109675970Y-152879034D01*
X109675970Y-153044740D01*
X109675969Y-153044740D01*
X109716894Y-153197471D01*
X109738832Y-153235469D01*
X109738834Y-153235471D01*
X109795950Y-153334400D01*
X109795952Y-153334403D01*
X109914820Y-153453271D01*
X109914826Y-153453276D01*
X111495924Y-155034374D01*
X111495934Y-155034385D01*
X111500264Y-155038715D01*
X111500265Y-155038716D01*
X111612069Y-155150520D01*
X111698217Y-155200257D01*
X111749000Y-155229577D01*
X111901728Y-155270501D01*
X111901731Y-155270501D01*
X112067438Y-155270501D01*
X112067454Y-155270500D01*
X112722546Y-155270500D01*
X112722562Y-155270501D01*
X112730158Y-155270501D01*
X112888269Y-155270501D01*
X112888272Y-155270501D01*
X113041000Y-155229577D01*
X113091783Y-155200257D01*
X113177931Y-155150520D01*
X113289735Y-155038716D01*
X113289735Y-155038714D01*
X113299939Y-155028511D01*
X113299942Y-155028506D01*
X115492821Y-152835628D01*
X115554142Y-152802145D01*
X115623834Y-152807129D01*
X115679767Y-152849001D01*
X115704184Y-152914465D01*
X115704500Y-152923311D01*
X115704500Y-167015500D01*
X115684815Y-167082539D01*
X115632011Y-167128294D01*
X115580500Y-167139500D01*
X92699500Y-167139500D01*
X92632461Y-167119815D01*
X92586706Y-167067011D01*
X92575500Y-167015500D01*
X92575500Y-51424500D01*
X92595185Y-51357461D01*
X92647989Y-51311706D01*
X92699500Y-51300500D01*
X115580500Y-51300500D01*
X115647539Y-51320185D01*
G37*
%TD.AperFunction*%
%TA.AperFunction,Conductor*%
G36*
X157557539Y-51320185D02*
G01*
X157603294Y-51372989D01*
X157614500Y-51424500D01*
X157614500Y-167015500D01*
X157594815Y-167082539D01*
X157542011Y-167128294D01*
X157490500Y-167139500D01*
X134609500Y-167139500D01*
X134542461Y-167119815D01*
X134496706Y-167067011D01*
X134485500Y-167015500D01*
X134485500Y-165350000D01*
X135555840Y-165350000D01*
X135596652Y-165484541D01*
X135689503Y-165658253D01*
X135689507Y-165658260D01*
X135814471Y-165810528D01*
X135966739Y-165935491D01*
X136140465Y-166028349D01*
X136275000Y-166069159D01*
X136775000Y-166069159D01*
X136909534Y-166028349D01*
X137083260Y-165935491D01*
X137235528Y-165810528D01*
X137360492Y-165658260D01*
X137360496Y-165658253D01*
X137453347Y-165484541D01*
X137494160Y-165350000D01*
X136775000Y-165350000D01*
X136775000Y-166069159D01*
X136275000Y-166069159D01*
X136275000Y-165350000D01*
X135555840Y-165350000D01*
X134485500Y-165350000D01*
X134485500Y-142174110D01*
X134485500Y-142174108D01*
X134451392Y-142046814D01*
X134385500Y-141932686D01*
X134292314Y-141839500D01*
X134235250Y-141806554D01*
X134178187Y-141773608D01*
X134096132Y-141751622D01*
X134050892Y-141739500D01*
X134050891Y-141739500D01*
X116329500Y-141739500D01*
X116262461Y-141719815D01*
X116216706Y-141667011D01*
X116205500Y-141615500D01*
X116205500Y-140496797D01*
X116225185Y-140429758D01*
X116277989Y-140384003D01*
X116347147Y-140374059D01*
X116410703Y-140403084D01*
X116431071Y-140425668D01*
X116474953Y-140488339D01*
X116474957Y-140488344D01*
X116635858Y-140649245D01*
X116635861Y-140649247D01*
X116822266Y-140779768D01*
X117028504Y-140875939D01*
X117248308Y-140934835D01*
X117410230Y-140949001D01*
X117474998Y-140954668D01*
X117475000Y-140954668D01*
X117475002Y-140954668D01*
X117537511Y-140949199D01*
X117701692Y-140934835D01*
X117921496Y-140875939D01*
X118127734Y-140779768D01*
X118314139Y-140649247D01*
X118475047Y-140488339D01*
X118605568Y-140301934D01*
X118701739Y-140095696D01*
X118760635Y-139875892D01*
X118780468Y-139649200D01*
X118777796Y-139618664D01*
X118769817Y-139527455D01*
X118760635Y-139422508D01*
X118701739Y-139202704D01*
X118701736Y-139202698D01*
X118699889Y-139197623D01*
X118702156Y-139196797D01*
X118693210Y-139137797D01*
X118721746Y-139074020D01*
X118780232Y-139035795D01*
X118816080Y-139030500D01*
X122468331Y-139030500D01*
X122468347Y-139030501D01*
X122567394Y-139030501D01*
X122634433Y-139050186D01*
X122680188Y-139102990D01*
X122687488Y-139126049D01*
X122687675Y-139125996D01*
X122747596Y-139336592D01*
X122747596Y-139336594D01*
X122842632Y-139527453D01*
X122911512Y-139618664D01*
X122971128Y-139697607D01*
X123128698Y-139841252D01*
X123309981Y-139953498D01*
X123508802Y-140030521D01*
X123718390Y-140069700D01*
X123718392Y-140069700D01*
X123931608Y-140069700D01*
X123931610Y-140069700D01*
X124141198Y-140030521D01*
X124340019Y-139953498D01*
X124521302Y-139841252D01*
X124678872Y-139697607D01*
X124807366Y-139527455D01*
X124852453Y-139436908D01*
X124902403Y-139336594D01*
X124902403Y-139336593D01*
X124902405Y-139336589D01*
X124960756Y-139131510D01*
X124971529Y-139015247D01*
X124997315Y-138950311D01*
X125054115Y-138909623D01*
X125123896Y-138906103D01*
X125184503Y-138940868D01*
X125216693Y-139002881D01*
X125218471Y-139015248D01*
X125229244Y-139131510D01*
X125287596Y-139336592D01*
X125287596Y-139336594D01*
X125382632Y-139527453D01*
X125451512Y-139618664D01*
X125511128Y-139697607D01*
X125668698Y-139841252D01*
X125849981Y-139953498D01*
X126048802Y-140030521D01*
X126258390Y-140069700D01*
X126258392Y-140069700D01*
X126471608Y-140069700D01*
X126471610Y-140069700D01*
X126681198Y-140030521D01*
X126880019Y-139953498D01*
X127061302Y-139841252D01*
X127218872Y-139697607D01*
X127347366Y-139527455D01*
X127392453Y-139436908D01*
X127442403Y-139336594D01*
X127442403Y-139336593D01*
X127442405Y-139336589D01*
X127500756Y-139131510D01*
X127520429Y-138919200D01*
X127519215Y-138906103D01*
X127500594Y-138705141D01*
X127514009Y-138636571D01*
X127562366Y-138586140D01*
X127624065Y-138569700D01*
X127724016Y-138569700D01*
X127724032Y-138569701D01*
X127731628Y-138569701D01*
X127889739Y-138569701D01*
X127889742Y-138569701D01*
X128042470Y-138528777D01*
X128105038Y-138492653D01*
X128179401Y-138449720D01*
X128291205Y-138337916D01*
X128291205Y-138337914D01*
X128301409Y-138327711D01*
X128301412Y-138327706D01*
X130102301Y-136526819D01*
X130163624Y-136493334D01*
X130189982Y-136490500D01*
X131373920Y-136490500D01*
X131440959Y-136510185D01*
X131486714Y-136562989D01*
X131496658Y-136632147D01*
X131489172Y-136657281D01*
X131490111Y-136657623D01*
X131488258Y-136662711D01*
X131429366Y-136882502D01*
X131429364Y-136882513D01*
X131409532Y-137109198D01*
X131409532Y-137109201D01*
X131429364Y-137335886D01*
X131429366Y-137335897D01*
X131488258Y-137555688D01*
X131488261Y-137555697D01*
X131584431Y-137761932D01*
X131584432Y-137761934D01*
X131714954Y-137948341D01*
X131875858Y-138109245D01*
X131901086Y-138126910D01*
X131944711Y-138181487D01*
X131951905Y-138250985D01*
X131920382Y-138313340D01*
X131860153Y-138348754D01*
X131843221Y-138351774D01*
X131807626Y-138355601D01*
X131807620Y-138355603D01*
X131672913Y-138405845D01*
X131672906Y-138405849D01*
X131557812Y-138492009D01*
X131557809Y-138492012D01*
X131471649Y-138607106D01*
X131471645Y-138607113D01*
X131421403Y-138741820D01*
X131421401Y-138741827D01*
X131415000Y-138801355D01*
X131415000Y-139399200D01*
X132224252Y-139399200D01*
X132202482Y-139436908D01*
X132165000Y-139576791D01*
X132165000Y-139721609D01*
X132202482Y-139861492D01*
X132224252Y-139899200D01*
X131415000Y-139899200D01*
X131415000Y-140497044D01*
X131421401Y-140556572D01*
X131421403Y-140556579D01*
X131471645Y-140691286D01*
X131471649Y-140691293D01*
X131557809Y-140806387D01*
X131557812Y-140806390D01*
X131672906Y-140892550D01*
X131672913Y-140892554D01*
X131807620Y-140942796D01*
X131807627Y-140942798D01*
X131867155Y-140949199D01*
X131867172Y-140949200D01*
X132465000Y-140949200D01*
X132465000Y-140139947D01*
X132502708Y-140161718D01*
X132642591Y-140199200D01*
X132787409Y-140199200D01*
X132927292Y-140161718D01*
X132965000Y-140139947D01*
X132965000Y-140949200D01*
X133562828Y-140949200D01*
X133562844Y-140949199D01*
X133622372Y-140942798D01*
X133622379Y-140942796D01*
X133757086Y-140892554D01*
X133757093Y-140892550D01*
X133872187Y-140806390D01*
X133872190Y-140806387D01*
X133958350Y-140691293D01*
X133958354Y-140691286D01*
X134008596Y-140556579D01*
X134008598Y-140556572D01*
X134014999Y-140497044D01*
X134015000Y-140497027D01*
X134015000Y-139899200D01*
X133205748Y-139899200D01*
X133227518Y-139861492D01*
X133265000Y-139721609D01*
X133265000Y-139576791D01*
X133227518Y-139436908D01*
X133205748Y-139399200D01*
X134015000Y-139399200D01*
X134015000Y-138801372D01*
X134014999Y-138801355D01*
X134008598Y-138741827D01*
X134008596Y-138741820D01*
X133958354Y-138607113D01*
X133958350Y-138607106D01*
X133872190Y-138492012D01*
X133872187Y-138492009D01*
X133757093Y-138405849D01*
X133757086Y-138405845D01*
X133622379Y-138355603D01*
X133622373Y-138355601D01*
X133586778Y-138351774D01*
X133522228Y-138325035D01*
X133482381Y-138267641D01*
X133479888Y-138197816D01*
X133515542Y-138137728D01*
X133528913Y-138126910D01*
X133554139Y-138109247D01*
X133715047Y-137948339D01*
X133845568Y-137761934D01*
X133941739Y-137555696D01*
X134000635Y-137335892D01*
X134020468Y-137109200D01*
X134000635Y-136882508D01*
X133941739Y-136662704D01*
X133941736Y-136662698D01*
X133939889Y-136657623D01*
X133942156Y-136656797D01*
X133933210Y-136597797D01*
X133961746Y-136534020D01*
X134020232Y-136495795D01*
X134056080Y-136490500D01*
X135942588Y-136490500D01*
X136009627Y-136510185D01*
X136019903Y-136517555D01*
X136022736Y-136519814D01*
X136022738Y-136519816D01*
X136175478Y-136615789D01*
X136345745Y-136675368D01*
X136345750Y-136675369D01*
X136524996Y-136695565D01*
X136525000Y-136695565D01*
X136525004Y-136695565D01*
X136704249Y-136675369D01*
X136704252Y-136675368D01*
X136704255Y-136675368D01*
X136874522Y-136615789D01*
X137004528Y-136534100D01*
X137071764Y-136515100D01*
X137138599Y-136535467D01*
X137183814Y-136588735D01*
X137194500Y-136639094D01*
X137194500Y-158895500D01*
X137174815Y-158962539D01*
X137122011Y-159008294D01*
X137070500Y-159019500D01*
X135977129Y-159019500D01*
X135977123Y-159019501D01*
X135917516Y-159025908D01*
X135782671Y-159076202D01*
X135782664Y-159076206D01*
X135667455Y-159162452D01*
X135667452Y-159162455D01*
X135581206Y-159277664D01*
X135581202Y-159277671D01*
X135530908Y-159412517D01*
X135524501Y-159472116D01*
X135524500Y-159472135D01*
X135524500Y-160567870D01*
X135524501Y-160567876D01*
X135530908Y-160627483D01*
X135581202Y-160762328D01*
X135581204Y-160762331D01*
X135587231Y-160770382D01*
X135611648Y-160835846D01*
X135598105Y-160899470D01*
X135598518Y-160899641D01*
X135597595Y-160901869D01*
X135597324Y-160903143D01*
X135596188Y-160905267D01*
X135538975Y-161093870D01*
X135519659Y-161290000D01*
X135538975Y-161486129D01*
X135596188Y-161674733D01*
X135689086Y-161848532D01*
X135692473Y-161853601D01*
X135690836Y-161854694D01*
X135714596Y-161910663D01*
X135702795Y-161979529D01*
X135692109Y-161996156D01*
X135692473Y-161996399D01*
X135689086Y-162001467D01*
X135596188Y-162175266D01*
X135538975Y-162363870D01*
X135519659Y-162560000D01*
X135538975Y-162756129D01*
X135538976Y-162756132D01*
X135588233Y-162918511D01*
X135596188Y-162944733D01*
X135689086Y-163118532D01*
X135692473Y-163123601D01*
X135690836Y-163124694D01*
X135714596Y-163180663D01*
X135702795Y-163249529D01*
X135692109Y-163266156D01*
X135692473Y-163266399D01*
X135689086Y-163271467D01*
X135596188Y-163445266D01*
X135538975Y-163633870D01*
X135519659Y-163830000D01*
X135538975Y-164026129D01*
X135596188Y-164214733D01*
X135689086Y-164388532D01*
X135692473Y-164393601D01*
X135690955Y-164394615D01*
X135714918Y-164451042D01*
X135703124Y-164519909D01*
X135692515Y-164536420D01*
X135692893Y-164536673D01*
X135689505Y-164541742D01*
X135596652Y-164715458D01*
X135555839Y-164849999D01*
X135555840Y-164850000D01*
X136315382Y-164850000D01*
X136264936Y-164900446D01*
X136222149Y-164974555D01*
X136200000Y-165057213D01*
X136200000Y-165142787D01*
X136222149Y-165225445D01*
X136264936Y-165299554D01*
X136325446Y-165360064D01*
X136399555Y-165402851D01*
X136482213Y-165425000D01*
X136567787Y-165425000D01*
X136650445Y-165402851D01*
X136724554Y-165360064D01*
X136785064Y-165299554D01*
X136827851Y-165225445D01*
X136850000Y-165142787D01*
X136850000Y-165057213D01*
X136827851Y-164974555D01*
X136785064Y-164900446D01*
X136734618Y-164850000D01*
X137494160Y-164850000D01*
X137494160Y-164849999D01*
X137453347Y-164715458D01*
X137360496Y-164541746D01*
X137357110Y-164536678D01*
X137358784Y-164535559D01*
X137335081Y-164479746D01*
X137346874Y-164410879D01*
X137357839Y-164393818D01*
X137357523Y-164393607D01*
X137360904Y-164388544D01*
X137360910Y-164388538D01*
X137453814Y-164214727D01*
X137511024Y-164026132D01*
X137530341Y-163830000D01*
X137511024Y-163633868D01*
X137453814Y-163445273D01*
X137399122Y-163342953D01*
X137384881Y-163274551D01*
X137409881Y-163209307D01*
X137466186Y-163167936D01*
X137508481Y-163160500D01*
X138978331Y-163160500D01*
X138978347Y-163160501D01*
X138985943Y-163160501D01*
X139144054Y-163160501D01*
X139144057Y-163160501D01*
X139296785Y-163119577D01*
X139354552Y-163086225D01*
X139433716Y-163040520D01*
X139545520Y-162928716D01*
X139545520Y-162928714D01*
X139555724Y-162918511D01*
X139555727Y-162918506D01*
X142685520Y-159788716D01*
X142764577Y-159651784D01*
X142805501Y-159499057D01*
X142805501Y-159340942D01*
X142805501Y-159333347D01*
X142805500Y-159333329D01*
X142805500Y-155293311D01*
X142824506Y-155227339D01*
X142841524Y-155200257D01*
X142901103Y-155029990D01*
X142921300Y-154850735D01*
X142901103Y-154671480D01*
X142841524Y-154501213D01*
X142745551Y-154348473D01*
X142617997Y-154220919D01*
X142465258Y-154124946D01*
X142294989Y-154065366D01*
X142294984Y-154065365D01*
X142115739Y-154045170D01*
X142115731Y-154045170D01*
X141936485Y-154065365D01*
X141936480Y-154065366D01*
X141766211Y-154124946D01*
X141613472Y-154220919D01*
X141485919Y-154348472D01*
X141389946Y-154501211D01*
X141330366Y-154671480D01*
X141330365Y-154671485D01*
X141310170Y-154850731D01*
X141310170Y-154850738D01*
X141330365Y-155029984D01*
X141330366Y-155029989D01*
X141389946Y-155200257D01*
X141429245Y-155262801D01*
X141448245Y-155330037D01*
X141427877Y-155396873D01*
X141374610Y-155442087D01*
X141365206Y-155445814D01*
X141255480Y-155484209D01*
X141102737Y-155580184D01*
X140975184Y-155707737D01*
X140879211Y-155860476D01*
X140819631Y-156030745D01*
X140819630Y-156030750D01*
X140799435Y-156209996D01*
X140799435Y-156210003D01*
X140819630Y-156389249D01*
X140819631Y-156389254D01*
X140879211Y-156559523D01*
X140975185Y-156712263D01*
X140977445Y-156715097D01*
X140978334Y-156717275D01*
X140978889Y-156718158D01*
X140978734Y-156718255D01*
X141003855Y-156779783D01*
X141004500Y-156792412D01*
X141004500Y-158449903D01*
X140984815Y-158516942D01*
X140968181Y-158537584D01*
X139152681Y-160353084D01*
X139091358Y-160386569D01*
X139021666Y-160381585D01*
X138977319Y-160353084D01*
X138431819Y-159807584D01*
X138398334Y-159746261D01*
X138395500Y-159719903D01*
X138395500Y-144259094D01*
X138415185Y-144192055D01*
X138467989Y-144146300D01*
X138537147Y-144136356D01*
X138585471Y-144154100D01*
X138623193Y-144177802D01*
X138715475Y-144235788D01*
X138885745Y-144295368D01*
X138885750Y-144295369D01*
X139064996Y-144315565D01*
X139065000Y-144315565D01*
X139065004Y-144315565D01*
X139244249Y-144295369D01*
X139244252Y-144295368D01*
X139244255Y-144295368D01*
X139414522Y-144235789D01*
X139567262Y-144139816D01*
X139694816Y-144012262D01*
X139790789Y-143859522D01*
X139850368Y-143689255D01*
X139860161Y-143602329D01*
X139887226Y-143537918D01*
X139895690Y-143528543D01*
X141963506Y-141460728D01*
X141963511Y-141460724D01*
X141973714Y-141450520D01*
X141973716Y-141450520D01*
X142085520Y-141338716D01*
X142164577Y-141201784D01*
X142205500Y-141049057D01*
X142205500Y-136472412D01*
X142225185Y-136405373D01*
X142232555Y-136395097D01*
X142234810Y-136392267D01*
X142234816Y-136392262D01*
X142330789Y-136239522D01*
X142390368Y-136069255D01*
X142400161Y-135982329D01*
X142427226Y-135917918D01*
X142435690Y-135908543D01*
X142573713Y-135770521D01*
X142573716Y-135770520D01*
X142685520Y-135658716D01*
X142735639Y-135571904D01*
X142764577Y-135521785D01*
X142805500Y-135369057D01*
X142805500Y-135210943D01*
X142805500Y-111010943D01*
X142764577Y-110858216D01*
X142764577Y-110858215D01*
X142718414Y-110778259D01*
X142685520Y-110721284D01*
X142573716Y-110609480D01*
X142573715Y-110609479D01*
X142569385Y-110605149D01*
X142569374Y-110605139D01*
X142435700Y-110471465D01*
X142402215Y-110410142D01*
X142400163Y-110397686D01*
X142390368Y-110310745D01*
X142330789Y-110140478D01*
X142234816Y-109987738D01*
X142107262Y-109860184D01*
X142084528Y-109845899D01*
X141954523Y-109764211D01*
X141784254Y-109704631D01*
X141784249Y-109704630D01*
X141605004Y-109684435D01*
X141604996Y-109684435D01*
X141425750Y-109704630D01*
X141425745Y-109704631D01*
X141255476Y-109764211D01*
X141125472Y-109845899D01*
X141058235Y-109864899D01*
X140991400Y-109844531D01*
X140946186Y-109791263D01*
X140935500Y-109740905D01*
X140935500Y-109140945D01*
X140935500Y-109140943D01*
X140894577Y-108988216D01*
X140894577Y-108988215D01*
X140894577Y-108988214D01*
X140865639Y-108938095D01*
X140865637Y-108938092D01*
X140824201Y-108866321D01*
X140815520Y-108851284D01*
X140703716Y-108739480D01*
X140703715Y-108739479D01*
X140699385Y-108735149D01*
X140699374Y-108735139D01*
X139895700Y-107931465D01*
X139862215Y-107870142D01*
X139860163Y-107857686D01*
X139850368Y-107770745D01*
X139790789Y-107600478D01*
X139694816Y-107447738D01*
X139694814Y-107447736D01*
X139694813Y-107447734D01*
X139692550Y-107444896D01*
X139691659Y-107442715D01*
X139691111Y-107441842D01*
X139691264Y-107441745D01*
X139666144Y-107380209D01*
X139665500Y-107367587D01*
X139665500Y-102182412D01*
X139685185Y-102115373D01*
X139692555Y-102105097D01*
X139694810Y-102102267D01*
X139694816Y-102102262D01*
X139790789Y-101949522D01*
X139850368Y-101779255D01*
X139860161Y-101692329D01*
X139887226Y-101627918D01*
X139895690Y-101618543D01*
X140703713Y-100810521D01*
X140703716Y-100810520D01*
X140815520Y-100698716D01*
X140865639Y-100611904D01*
X140894577Y-100561785D01*
X140935500Y-100409058D01*
X140935500Y-100250943D01*
X140935500Y-70192414D01*
X140899159Y-70056785D01*
X140899159Y-70056784D01*
X140899159Y-70056783D01*
X140894579Y-70039691D01*
X140894577Y-70039687D01*
X140894577Y-70039686D01*
X140865639Y-69989566D01*
X140815520Y-69902755D01*
X140703716Y-69790951D01*
X140703715Y-69790950D01*
X140699385Y-69786620D01*
X140699374Y-69786610D01*
X139701819Y-68789055D01*
X139668334Y-68727732D01*
X139665500Y-68701374D01*
X139665500Y-66779803D01*
X139685185Y-66712764D01*
X139737989Y-66667009D01*
X139807147Y-66657065D01*
X139855470Y-66674808D01*
X139960478Y-66740789D01*
X140130745Y-66800368D01*
X140217669Y-66810161D01*
X140282080Y-66837226D01*
X140291465Y-66845700D01*
X141578181Y-68132416D01*
X141611666Y-68193739D01*
X141614500Y-68220097D01*
X141614500Y-86387587D01*
X141594815Y-86454626D01*
X141587450Y-86464896D01*
X141585186Y-86467734D01*
X141489211Y-86620476D01*
X141429631Y-86790745D01*
X141429630Y-86790750D01*
X141409435Y-86969996D01*
X141409435Y-86970003D01*
X141429630Y-87149249D01*
X141429631Y-87149254D01*
X141489211Y-87319524D01*
X141558724Y-87430151D01*
X141581763Y-87466818D01*
X141585493Y-87472753D01*
X141604500Y-87538726D01*
X141604500Y-104493677D01*
X141584815Y-104560716D01*
X141532011Y-104606471D01*
X141494384Y-104616897D01*
X141425750Y-104624630D01*
X141255478Y-104684210D01*
X141102737Y-104780184D01*
X140975184Y-104907737D01*
X140879211Y-105060476D01*
X140819631Y-105230745D01*
X140819630Y-105230750D01*
X140799435Y-105409996D01*
X140799435Y-105410003D01*
X140819630Y-105589249D01*
X140819631Y-105589254D01*
X140879211Y-105759523D01*
X140975184Y-105912262D01*
X141102738Y-106039816D01*
X141255478Y-106135789D01*
X141425745Y-106195368D01*
X141425750Y-106195369D01*
X141604996Y-106215565D01*
X141605000Y-106215565D01*
X141605004Y-106215565D01*
X141784249Y-106195369D01*
X141784252Y-106195368D01*
X141784255Y-106195368D01*
X141954522Y-106135789D01*
X142107262Y-106039816D01*
X142234816Y-105912262D01*
X142330789Y-105759522D01*
X142390368Y-105589255D01*
X142400161Y-105502329D01*
X142427226Y-105437918D01*
X142435690Y-105428543D01*
X142573713Y-105290521D01*
X142573716Y-105290520D01*
X142685520Y-105178716D01*
X142735639Y-105091904D01*
X142764577Y-105041785D01*
X142805500Y-104889057D01*
X142805500Y-104730943D01*
X142805500Y-87562940D01*
X142825185Y-87495901D01*
X142841819Y-87475259D01*
X142844816Y-87472262D01*
X142940789Y-87319522D01*
X143000368Y-87149255D01*
X143000471Y-87148341D01*
X143020565Y-86970003D01*
X143020565Y-86969996D01*
X143000369Y-86790750D01*
X143000368Y-86790745D01*
X142940788Y-86620476D01*
X142844813Y-86467734D01*
X142842550Y-86464896D01*
X142841659Y-86462715D01*
X142841111Y-86461842D01*
X142841264Y-86461745D01*
X142816144Y-86400209D01*
X142815500Y-86387587D01*
X142815500Y-68009059D01*
X142815501Y-68009046D01*
X142815501Y-67840945D01*
X142815501Y-67840943D01*
X142774577Y-67688215D01*
X142745639Y-67638095D01*
X142695520Y-67551284D01*
X142583716Y-67439480D01*
X142583715Y-67439479D01*
X142579385Y-67435149D01*
X142579374Y-67435139D01*
X141140700Y-65996465D01*
X141107215Y-65935142D01*
X141105163Y-65922686D01*
X141095368Y-65835745D01*
X141035789Y-65665478D01*
X140939816Y-65512738D01*
X140812262Y-65385184D01*
X140659523Y-65289211D01*
X140489254Y-65229631D01*
X140489249Y-65229630D01*
X140310004Y-65209435D01*
X140309996Y-65209435D01*
X140130750Y-65229630D01*
X140130745Y-65229631D01*
X139960474Y-65289212D01*
X139911999Y-65319671D01*
X139844762Y-65338671D01*
X139777927Y-65318303D01*
X139732714Y-65265035D01*
X139723477Y-65195778D01*
X139741034Y-65148706D01*
X139790789Y-65069522D01*
X139850368Y-64899255D01*
X139864931Y-64770003D01*
X139870565Y-64720003D01*
X139870565Y-64719996D01*
X139850369Y-64540750D01*
X139850368Y-64540745D01*
X139790788Y-64370476D01*
X139709002Y-64240315D01*
X139694816Y-64217738D01*
X139567262Y-64090184D01*
X139414523Y-63994211D01*
X139244254Y-63934631D01*
X139244249Y-63934630D01*
X139065004Y-63914435D01*
X139064996Y-63914435D01*
X138885750Y-63934630D01*
X138885745Y-63934631D01*
X138715476Y-63994211D01*
X138562737Y-64090184D01*
X138435184Y-64217737D01*
X138339211Y-64370476D01*
X138279631Y-64540745D01*
X138279630Y-64540750D01*
X138259435Y-64719996D01*
X138259435Y-64720003D01*
X138279630Y-64899249D01*
X138279631Y-64899254D01*
X138339211Y-65069523D01*
X138388964Y-65148704D01*
X138427124Y-65209435D01*
X138435185Y-65222263D01*
X138437445Y-65225097D01*
X138438334Y-65227275D01*
X138438889Y-65228158D01*
X138438734Y-65228255D01*
X138463855Y-65289783D01*
X138464500Y-65302412D01*
X138464500Y-68100903D01*
X138444815Y-68167942D01*
X138392011Y-68213697D01*
X138322853Y-68223641D01*
X138259297Y-68194616D01*
X138252819Y-68188584D01*
X137161819Y-67097584D01*
X137128334Y-67036261D01*
X137125500Y-67009903D01*
X137125500Y-66622412D01*
X137145185Y-66555373D01*
X137152555Y-66545097D01*
X137154810Y-66542267D01*
X137154816Y-66542262D01*
X137250789Y-66389522D01*
X137310368Y-66219255D01*
X137315232Y-66176087D01*
X137330565Y-66040003D01*
X137330565Y-66039996D01*
X137310369Y-65860750D01*
X137310368Y-65860745D01*
X137250788Y-65690476D01*
X137189053Y-65592226D01*
X137154816Y-65537738D01*
X137027262Y-65410184D01*
X136874523Y-65314211D01*
X136704254Y-65254631D01*
X136704249Y-65254630D01*
X136525004Y-65234435D01*
X136524996Y-65234435D01*
X136345750Y-65254630D01*
X136345745Y-65254631D01*
X136175476Y-65314211D01*
X136022737Y-65410184D01*
X135895184Y-65537737D01*
X135799211Y-65690476D01*
X135739631Y-65860745D01*
X135739630Y-65860750D01*
X135719435Y-66039996D01*
X135719435Y-66040003D01*
X135739630Y-66219249D01*
X135739631Y-66219254D01*
X135799211Y-66389523D01*
X135859515Y-66485496D01*
X135879475Y-66517262D01*
X135895185Y-66542263D01*
X135897445Y-66545097D01*
X135898334Y-66547275D01*
X135898889Y-66548158D01*
X135898734Y-66548255D01*
X135923855Y-66609783D01*
X135924500Y-66622412D01*
X135924500Y-67223330D01*
X135924499Y-67223348D01*
X135924499Y-67389054D01*
X135924498Y-67389054D01*
X135965423Y-67541785D01*
X135994358Y-67591900D01*
X135994359Y-67591904D01*
X135994360Y-67591904D01*
X136044479Y-67678714D01*
X136044481Y-67678717D01*
X136163349Y-67797585D01*
X136163355Y-67797590D01*
X138403181Y-70037416D01*
X138436666Y-70098739D01*
X138439500Y-70125097D01*
X138439500Y-84482587D01*
X138419815Y-84549626D01*
X138412450Y-84559896D01*
X138410186Y-84562734D01*
X138314211Y-84715476D01*
X138254631Y-84885745D01*
X138254630Y-84885750D01*
X138234435Y-85064996D01*
X138234435Y-85065003D01*
X138254630Y-85244249D01*
X138254631Y-85244254D01*
X138314211Y-85414523D01*
X138410184Y-85567262D01*
X138537738Y-85694816D01*
X138690478Y-85790789D01*
X138761924Y-85815789D01*
X138860745Y-85850368D01*
X138860750Y-85850369D01*
X139039996Y-85870565D01*
X139040000Y-85870565D01*
X139040004Y-85870565D01*
X139219249Y-85850369D01*
X139219252Y-85850368D01*
X139219255Y-85850368D01*
X139389522Y-85790789D01*
X139542262Y-85694816D01*
X139542264Y-85694813D01*
X139544527Y-85693392D01*
X139611764Y-85674391D01*
X139678599Y-85694758D01*
X139723814Y-85748026D01*
X139734500Y-85798385D01*
X139734500Y-94500905D01*
X139714815Y-94567944D01*
X139662011Y-94613699D01*
X139592853Y-94623643D01*
X139544528Y-94605899D01*
X139414521Y-94524210D01*
X139244249Y-94464630D01*
X139157331Y-94454837D01*
X139092917Y-94427770D01*
X139083534Y-94419298D01*
X135891819Y-91227583D01*
X135858334Y-91166260D01*
X135855500Y-91139902D01*
X135855500Y-73960096D01*
X135875185Y-73893057D01*
X135891815Y-73872419D01*
X136543535Y-73220698D01*
X136604856Y-73187215D01*
X136617311Y-73185163D01*
X136704255Y-73175368D01*
X136874522Y-73115789D01*
X137027262Y-73019816D01*
X137154816Y-72892262D01*
X137250789Y-72739522D01*
X137310368Y-72569255D01*
X137330565Y-72390000D01*
X137327419Y-72362082D01*
X137310369Y-72210750D01*
X137310368Y-72210745D01*
X137250788Y-72040476D01*
X137154815Y-71887737D01*
X137027262Y-71760184D01*
X136874523Y-71664211D01*
X136704254Y-71604631D01*
X136704249Y-71604630D01*
X136525004Y-71584435D01*
X136524996Y-71584435D01*
X136345750Y-71604630D01*
X136345745Y-71604631D01*
X136175476Y-71664211D01*
X136022737Y-71760184D01*
X135895184Y-71887737D01*
X135799210Y-72040478D01*
X135739630Y-72210750D01*
X135729837Y-72297668D01*
X135702770Y-72362082D01*
X135694298Y-72371465D01*
X134886286Y-73179478D01*
X134774481Y-73291282D01*
X134774480Y-73291284D01*
X134729270Y-73369592D01*
X134724361Y-73378094D01*
X134724359Y-73378097D01*
X134716886Y-73391040D01*
X134666318Y-73439255D01*
X134597711Y-73452476D01*
X134532846Y-73426507D01*
X134492319Y-73369592D01*
X134485500Y-73329038D01*
X134485500Y-51424500D01*
X134505185Y-51357461D01*
X134557989Y-51311706D01*
X134609500Y-51300500D01*
X157490500Y-51300500D01*
X157557539Y-51320185D01*
G37*
%TD.AperFunction*%
%TA.AperFunction,Conductor*%
G36*
X114470703Y-114685384D02*
G01*
X114477181Y-114691416D01*
X115720139Y-115934374D01*
X115720149Y-115934385D01*
X115724479Y-115938715D01*
X115724480Y-115938716D01*
X115836284Y-116050520D01*
X115836286Y-116050521D01*
X115836290Y-116050524D01*
X115973209Y-116129573D01*
X115973216Y-116129577D01*
X116085019Y-116159534D01*
X116125942Y-116170500D01*
X116125943Y-116170500D01*
X116133920Y-116170500D01*
X116200959Y-116190185D01*
X116246714Y-116242989D01*
X116256658Y-116312147D01*
X116249172Y-116337281D01*
X116250111Y-116337623D01*
X116248258Y-116342711D01*
X116189366Y-116562502D01*
X116189364Y-116562513D01*
X116169532Y-116789198D01*
X116169532Y-116789201D01*
X116189364Y-117015886D01*
X116189366Y-117015897D01*
X116248258Y-117235688D01*
X116248261Y-117235697D01*
X116344431Y-117441932D01*
X116344432Y-117441934D01*
X116474954Y-117628341D01*
X116635858Y-117789245D01*
X116635861Y-117789247D01*
X116822266Y-117919768D01*
X116880275Y-117946818D01*
X116932714Y-117992991D01*
X116951866Y-118060184D01*
X116931650Y-118127065D01*
X116880275Y-118171582D01*
X116822267Y-118198631D01*
X116822265Y-118198632D01*
X116635858Y-118329154D01*
X116474954Y-118490058D01*
X116344432Y-118676465D01*
X116344431Y-118676467D01*
X116248261Y-118882702D01*
X116248258Y-118882711D01*
X116189366Y-119102502D01*
X116189364Y-119102513D01*
X116169532Y-119329198D01*
X116169532Y-119329201D01*
X116189364Y-119555886D01*
X116189366Y-119555897D01*
X116248258Y-119775688D01*
X116248261Y-119775697D01*
X116344431Y-119981932D01*
X116344432Y-119981934D01*
X116474954Y-120168341D01*
X116635858Y-120329245D01*
X116635861Y-120329247D01*
X116822266Y-120459768D01*
X116880275Y-120486818D01*
X116932714Y-120532991D01*
X116951866Y-120600184D01*
X116931650Y-120667065D01*
X116880275Y-120711582D01*
X116822267Y-120738631D01*
X116822265Y-120738632D01*
X116635858Y-120869154D01*
X116474954Y-121030058D01*
X116344432Y-121216465D01*
X116344431Y-121216467D01*
X116248261Y-121422702D01*
X116248258Y-121422711D01*
X116189366Y-121642502D01*
X116189364Y-121642513D01*
X116169532Y-121869198D01*
X116169532Y-121869201D01*
X116189364Y-122095886D01*
X116189366Y-122095897D01*
X116248258Y-122315688D01*
X116248261Y-122315697D01*
X116344431Y-122521932D01*
X116344432Y-122521934D01*
X116474954Y-122708341D01*
X116635858Y-122869245D01*
X116635861Y-122869247D01*
X116822266Y-122999768D01*
X116880275Y-123026818D01*
X116932714Y-123072991D01*
X116951866Y-123140184D01*
X116931650Y-123207065D01*
X116880275Y-123251582D01*
X116822267Y-123278631D01*
X116822265Y-123278632D01*
X116635858Y-123409154D01*
X116474954Y-123570058D01*
X116344432Y-123756465D01*
X116344431Y-123756467D01*
X116248261Y-123962702D01*
X116248258Y-123962711D01*
X116189366Y-124182502D01*
X116189364Y-124182513D01*
X116169532Y-124409198D01*
X116169532Y-124409201D01*
X116189364Y-124635886D01*
X116189366Y-124635897D01*
X116248258Y-124855688D01*
X116248261Y-124855697D01*
X116344431Y-125061932D01*
X116344432Y-125061934D01*
X116474954Y-125248341D01*
X116635858Y-125409245D01*
X116635861Y-125409247D01*
X116822266Y-125539768D01*
X116880275Y-125566818D01*
X116932714Y-125612991D01*
X116951866Y-125680184D01*
X116931650Y-125747065D01*
X116880275Y-125791582D01*
X116822267Y-125818631D01*
X116822265Y-125818632D01*
X116635858Y-125949154D01*
X116474954Y-126110058D01*
X116344432Y-126296465D01*
X116344431Y-126296467D01*
X116248261Y-126502702D01*
X116248258Y-126502711D01*
X116189366Y-126722502D01*
X116189364Y-126722513D01*
X116169532Y-126949198D01*
X116169532Y-126949201D01*
X116189364Y-127175886D01*
X116189366Y-127175897D01*
X116248258Y-127395688D01*
X116248261Y-127395697D01*
X116344431Y-127601932D01*
X116344432Y-127601934D01*
X116474954Y-127788341D01*
X116635858Y-127949245D01*
X116639671Y-127951915D01*
X116822266Y-128079768D01*
X116880275Y-128106818D01*
X116932714Y-128152991D01*
X116951866Y-128220184D01*
X116931650Y-128287065D01*
X116880275Y-128331582D01*
X116822267Y-128358631D01*
X116822265Y-128358632D01*
X116635858Y-128489154D01*
X116474954Y-128650058D01*
X116344432Y-128836465D01*
X116344431Y-128836467D01*
X116248261Y-129042702D01*
X116248258Y-129042711D01*
X116189366Y-129262502D01*
X116189364Y-129262513D01*
X116169532Y-129489198D01*
X116169532Y-129489201D01*
X116189364Y-129715886D01*
X116189366Y-129715897D01*
X116248258Y-129935688D01*
X116248261Y-129935697D01*
X116344431Y-130141932D01*
X116344432Y-130141934D01*
X116474954Y-130328341D01*
X116635858Y-130489245D01*
X116635861Y-130489247D01*
X116822266Y-130619768D01*
X116880275Y-130646818D01*
X116932714Y-130692991D01*
X116951866Y-130760184D01*
X116931650Y-130827065D01*
X116880275Y-130871582D01*
X116822267Y-130898631D01*
X116822265Y-130898632D01*
X116635858Y-131029154D01*
X116474954Y-131190058D01*
X116344432Y-131376465D01*
X116344431Y-131376467D01*
X116248261Y-131582702D01*
X116248258Y-131582711D01*
X116189366Y-131802502D01*
X116189364Y-131802513D01*
X116169532Y-132029198D01*
X116169532Y-132029201D01*
X116189364Y-132255886D01*
X116189366Y-132255897D01*
X116248258Y-132475688D01*
X116248261Y-132475697D01*
X116344431Y-132681932D01*
X116344432Y-132681934D01*
X116474954Y-132868341D01*
X116635858Y-133029245D01*
X116635861Y-133029247D01*
X116822266Y-133159768D01*
X116855388Y-133175213D01*
X116880275Y-133186818D01*
X116932714Y-133232991D01*
X116951866Y-133300184D01*
X116931650Y-133367065D01*
X116880275Y-133411582D01*
X116822267Y-133438631D01*
X116822265Y-133438632D01*
X116635858Y-133569154D01*
X116474954Y-133730058D01*
X116344432Y-133916465D01*
X116344431Y-133916467D01*
X116248261Y-134122702D01*
X116248258Y-134122711D01*
X116189366Y-134342502D01*
X116189364Y-134342513D01*
X116169532Y-134569198D01*
X116169532Y-134569201D01*
X116189364Y-134795886D01*
X116189366Y-134795897D01*
X116248258Y-135015688D01*
X116248261Y-135015697D01*
X116344431Y-135221932D01*
X116344432Y-135221934D01*
X116474951Y-135408337D01*
X116474952Y-135408338D01*
X116474953Y-135408339D01*
X116535291Y-135468677D01*
X116568775Y-135529998D01*
X116563791Y-135599690D01*
X116535290Y-135644038D01*
X114477181Y-137702148D01*
X114415858Y-137735633D01*
X114346166Y-137730649D01*
X114290233Y-137688777D01*
X114265816Y-137623313D01*
X114265500Y-137614467D01*
X114265500Y-128852412D01*
X114285185Y-128785373D01*
X114292555Y-128775097D01*
X114294810Y-128772267D01*
X114294816Y-128772262D01*
X114390789Y-128619522D01*
X114450368Y-128449255D01*
X114450369Y-128449249D01*
X114470565Y-128270003D01*
X114470565Y-128269996D01*
X114450369Y-128090750D01*
X114450368Y-128090745D01*
X114401782Y-127951895D01*
X114390789Y-127920478D01*
X114379043Y-127901785D01*
X114357645Y-127867730D01*
X114294816Y-127767738D01*
X114294814Y-127767736D01*
X114294813Y-127767734D01*
X114292550Y-127764896D01*
X114291659Y-127762715D01*
X114291111Y-127761842D01*
X114291264Y-127761745D01*
X114266144Y-127700209D01*
X114265500Y-127687587D01*
X114265500Y-115659060D01*
X114265501Y-115659047D01*
X114265501Y-115483348D01*
X114265500Y-115483330D01*
X114265500Y-114779097D01*
X114285185Y-114712058D01*
X114337989Y-114666303D01*
X114407147Y-114656359D01*
X114470703Y-114685384D01*
G37*
%TD.AperFunction*%
%TA.AperFunction,Conductor*%
G36*
X131307547Y-116170501D02*
G01*
X131373920Y-116170501D01*
X131440959Y-116190186D01*
X131486714Y-116242990D01*
X131496658Y-116312148D01*
X131489166Y-116337279D01*
X131490111Y-116337623D01*
X131488258Y-116342711D01*
X131429366Y-116562502D01*
X131429364Y-116562513D01*
X131409532Y-116789198D01*
X131409532Y-116789201D01*
X131429364Y-117015886D01*
X131429366Y-117015897D01*
X131488258Y-117235688D01*
X131488261Y-117235697D01*
X131584431Y-117441932D01*
X131584432Y-117441934D01*
X131714954Y-117628341D01*
X131875858Y-117789245D01*
X131875861Y-117789247D01*
X132062266Y-117919768D01*
X132120275Y-117946818D01*
X132172714Y-117992991D01*
X132191866Y-118060184D01*
X132171650Y-118127065D01*
X132120275Y-118171582D01*
X132062267Y-118198631D01*
X132062265Y-118198632D01*
X131875858Y-118329154D01*
X131714954Y-118490058D01*
X131584432Y-118676465D01*
X131584431Y-118676467D01*
X131488261Y-118882702D01*
X131488258Y-118882711D01*
X131429366Y-119102502D01*
X131429364Y-119102513D01*
X131409532Y-119329198D01*
X131409532Y-119329201D01*
X131429364Y-119555886D01*
X131429366Y-119555897D01*
X131488258Y-119775688D01*
X131488261Y-119775697D01*
X131584431Y-119981932D01*
X131584432Y-119981934D01*
X131714954Y-120168341D01*
X131875858Y-120329245D01*
X131875861Y-120329247D01*
X132062266Y-120459768D01*
X132120275Y-120486818D01*
X132172714Y-120532991D01*
X132191866Y-120600184D01*
X132171650Y-120667065D01*
X132120275Y-120711582D01*
X132062267Y-120738631D01*
X132062265Y-120738632D01*
X131875858Y-120869154D01*
X131714954Y-121030058D01*
X131584432Y-121216465D01*
X131584431Y-121216467D01*
X131488261Y-121422702D01*
X131488258Y-121422711D01*
X131429366Y-121642502D01*
X131429364Y-121642513D01*
X131409532Y-121869198D01*
X131409532Y-121869201D01*
X131429364Y-122095886D01*
X131429366Y-122095897D01*
X131488258Y-122315688D01*
X131488261Y-122315697D01*
X131584431Y-122521932D01*
X131584432Y-122521934D01*
X131714954Y-122708341D01*
X131875858Y-122869245D01*
X131875861Y-122869247D01*
X132062266Y-122999768D01*
X132120275Y-123026818D01*
X132172714Y-123072991D01*
X132191866Y-123140184D01*
X132171650Y-123207065D01*
X132120275Y-123251582D01*
X132062267Y-123278631D01*
X132062265Y-123278632D01*
X131875858Y-123409154D01*
X131714954Y-123570058D01*
X131584432Y-123756465D01*
X131584431Y-123756467D01*
X131488261Y-123962702D01*
X131488258Y-123962711D01*
X131429366Y-124182502D01*
X131429364Y-124182513D01*
X131409532Y-124409198D01*
X131409532Y-124409201D01*
X131429364Y-124635886D01*
X131429366Y-124635897D01*
X131488258Y-124855688D01*
X131488261Y-124855697D01*
X131584431Y-125061932D01*
X131584432Y-125061934D01*
X131714954Y-125248341D01*
X131875858Y-125409245D01*
X131875861Y-125409247D01*
X132062266Y-125539768D01*
X132120275Y-125566818D01*
X132172714Y-125612991D01*
X132191866Y-125680184D01*
X132171650Y-125747065D01*
X132120275Y-125791582D01*
X132062267Y-125818631D01*
X132062265Y-125818632D01*
X131875858Y-125949154D01*
X131714954Y-126110058D01*
X131584432Y-126296465D01*
X131584431Y-126296467D01*
X131488261Y-126502702D01*
X131488258Y-126502711D01*
X131429366Y-126722502D01*
X131429364Y-126722513D01*
X131409532Y-126949198D01*
X131409532Y-126949201D01*
X131429364Y-127175886D01*
X131429366Y-127175897D01*
X131488258Y-127395688D01*
X131488261Y-127395697D01*
X131584431Y-127601932D01*
X131584432Y-127601934D01*
X131714954Y-127788341D01*
X131875858Y-127949245D01*
X131879671Y-127951915D01*
X132062266Y-128079768D01*
X132120275Y-128106818D01*
X132172714Y-128152991D01*
X132191866Y-128220184D01*
X132171650Y-128287065D01*
X132120275Y-128331582D01*
X132062267Y-128358631D01*
X132062265Y-128358632D01*
X131875858Y-128489154D01*
X131714954Y-128650058D01*
X131584432Y-128836465D01*
X131584431Y-128836467D01*
X131488261Y-129042702D01*
X131488258Y-129042711D01*
X131429366Y-129262502D01*
X131429364Y-129262513D01*
X131409532Y-129489198D01*
X131409532Y-129489201D01*
X131429364Y-129715886D01*
X131429366Y-129715897D01*
X131488258Y-129935688D01*
X131488261Y-129935697D01*
X131584431Y-130141932D01*
X131584432Y-130141934D01*
X131714954Y-130328341D01*
X131875858Y-130489245D01*
X131875861Y-130489247D01*
X132062266Y-130619768D01*
X132120275Y-130646818D01*
X132172714Y-130692991D01*
X132191866Y-130760184D01*
X132171650Y-130827065D01*
X132120275Y-130871582D01*
X132062267Y-130898631D01*
X132062265Y-130898632D01*
X131875858Y-131029154D01*
X131714954Y-131190058D01*
X131584432Y-131376465D01*
X131584431Y-131376467D01*
X131488261Y-131582702D01*
X131488258Y-131582711D01*
X131429366Y-131802502D01*
X131429364Y-131802513D01*
X131409532Y-132029198D01*
X131409532Y-132029201D01*
X131429364Y-132255886D01*
X131429366Y-132255897D01*
X131488258Y-132475688D01*
X131488260Y-132475692D01*
X131488261Y-132475696D01*
X131583763Y-132680500D01*
X131586448Y-132686257D01*
X131596940Y-132755334D01*
X131568420Y-132819119D01*
X131536067Y-132846049D01*
X131495485Y-132869479D01*
X131495482Y-132869481D01*
X131176380Y-133188584D01*
X131115057Y-133222069D01*
X131045365Y-133217085D01*
X130989432Y-133175213D01*
X130965015Y-133109749D01*
X130964699Y-133100903D01*
X130964699Y-132502129D01*
X130964698Y-132502123D01*
X130964697Y-132502116D01*
X130958291Y-132442517D01*
X130956795Y-132438507D01*
X130907997Y-132307671D01*
X130907993Y-132307664D01*
X130821747Y-132192455D01*
X130821744Y-132192452D01*
X130706535Y-132106206D01*
X130706528Y-132106202D01*
X130571682Y-132055908D01*
X130571683Y-132055908D01*
X130536604Y-132052137D01*
X130472053Y-132025399D01*
X130432205Y-131968006D01*
X130429712Y-131898181D01*
X130465365Y-131838092D01*
X130478739Y-131827272D01*
X130503340Y-131810046D01*
X130664245Y-131649141D01*
X130664247Y-131649139D01*
X130794768Y-131462734D01*
X130890939Y-131256496D01*
X130949835Y-131036692D01*
X130969668Y-130810000D01*
X130969008Y-130802461D01*
X130955391Y-130646818D01*
X130949835Y-130583308D01*
X130890939Y-130363504D01*
X130794768Y-130157266D01*
X130697039Y-130017693D01*
X130664245Y-129970858D01*
X130503341Y-129809954D01*
X130316934Y-129679432D01*
X130316928Y-129679429D01*
X130258925Y-129652382D01*
X130206485Y-129606210D01*
X130187333Y-129539017D01*
X130207548Y-129472135D01*
X130258925Y-129427618D01*
X130316934Y-129400568D01*
X130503339Y-129270047D01*
X130664247Y-129109139D01*
X130794768Y-128922734D01*
X130890939Y-128716496D01*
X130949835Y-128496692D01*
X130969668Y-128270000D01*
X130969008Y-128262461D01*
X130955391Y-128106818D01*
X130949835Y-128043308D01*
X130890939Y-127823504D01*
X130794768Y-127617266D01*
X130664247Y-127430861D01*
X130664245Y-127430858D01*
X130503341Y-127269954D01*
X130316934Y-127139432D01*
X130316928Y-127139429D01*
X130274143Y-127119478D01*
X130258924Y-127112381D01*
X130206485Y-127066210D01*
X130187333Y-126999017D01*
X130207548Y-126932135D01*
X130258925Y-126887618D01*
X130316934Y-126860568D01*
X130503339Y-126730047D01*
X130664247Y-126569139D01*
X130794768Y-126382734D01*
X130890939Y-126176496D01*
X130949835Y-125956692D01*
X130969668Y-125730000D01*
X130969008Y-125722461D01*
X130954373Y-125555181D01*
X130949835Y-125503308D01*
X130890939Y-125283504D01*
X130794768Y-125077266D01*
X130697039Y-124937693D01*
X130664245Y-124890858D01*
X130503341Y-124729954D01*
X130316934Y-124599432D01*
X130316928Y-124599429D01*
X130258925Y-124572382D01*
X130206485Y-124526210D01*
X130187333Y-124459017D01*
X130207548Y-124392135D01*
X130258925Y-124347618D01*
X130316934Y-124320568D01*
X130503339Y-124190047D01*
X130664247Y-124029139D01*
X130794768Y-123842734D01*
X130890939Y-123636496D01*
X130949835Y-123416692D01*
X130969668Y-123190000D01*
X130969008Y-123182461D01*
X130953025Y-122999768D01*
X130949835Y-122963308D01*
X130890939Y-122743504D01*
X130794768Y-122537266D01*
X130664247Y-122350861D01*
X130664245Y-122350858D01*
X130503341Y-122189954D01*
X130316934Y-122059432D01*
X130316932Y-122059431D01*
X130110697Y-121963261D01*
X130110688Y-121963258D01*
X129890897Y-121904366D01*
X129890893Y-121904365D01*
X129890892Y-121904365D01*
X129890891Y-121904364D01*
X129890886Y-121904364D01*
X129664202Y-121884532D01*
X129664198Y-121884532D01*
X129437513Y-121904364D01*
X129437502Y-121904366D01*
X129217711Y-121963258D01*
X129217702Y-121963261D01*
X129011467Y-122059431D01*
X129011465Y-122059432D01*
X128825058Y-122189954D01*
X128664154Y-122350858D01*
X128533632Y-122537265D01*
X128533631Y-122537267D01*
X128437461Y-122743502D01*
X128437458Y-122743511D01*
X128378566Y-122963302D01*
X128378564Y-122963313D01*
X128358732Y-123189998D01*
X128358732Y-123190001D01*
X128378564Y-123416686D01*
X128378566Y-123416697D01*
X128437458Y-123636488D01*
X128437461Y-123636497D01*
X128533631Y-123842732D01*
X128533632Y-123842734D01*
X128664154Y-124029141D01*
X128825058Y-124190045D01*
X128825061Y-124190047D01*
X129011466Y-124320568D01*
X129069475Y-124347618D01*
X129121914Y-124393791D01*
X129141066Y-124460984D01*
X129120850Y-124527865D01*
X129069475Y-124572382D01*
X129011467Y-124599431D01*
X129011465Y-124599432D01*
X128825058Y-124729954D01*
X128664154Y-124890858D01*
X128533632Y-125077265D01*
X128533631Y-125077267D01*
X128437461Y-125283502D01*
X128437458Y-125283511D01*
X128378566Y-125503302D01*
X128378564Y-125503313D01*
X128358732Y-125729998D01*
X128358732Y-125730001D01*
X128378564Y-125956686D01*
X128378566Y-125956697D01*
X128437458Y-126176488D01*
X128437461Y-126176497D01*
X128533631Y-126382732D01*
X128533632Y-126382734D01*
X128664154Y-126569141D01*
X128825058Y-126730045D01*
X128825061Y-126730047D01*
X129011466Y-126860568D01*
X129069475Y-126887618D01*
X129121914Y-126933791D01*
X129141066Y-127000984D01*
X129120850Y-127067865D01*
X129069475Y-127112382D01*
X129011467Y-127139431D01*
X129011465Y-127139432D01*
X128825058Y-127269954D01*
X128664154Y-127430858D01*
X128533632Y-127617265D01*
X128533631Y-127617267D01*
X128437461Y-127823502D01*
X128437458Y-127823511D01*
X128378566Y-128043302D01*
X128378564Y-128043313D01*
X128358732Y-128269998D01*
X128358732Y-128270001D01*
X128378564Y-128496686D01*
X128378566Y-128496697D01*
X128437458Y-128716488D01*
X128437461Y-128716497D01*
X128533631Y-128922732D01*
X128533632Y-128922734D01*
X128664154Y-129109141D01*
X128825058Y-129270045D01*
X128825061Y-129270047D01*
X129011466Y-129400568D01*
X129069475Y-129427618D01*
X129121914Y-129473791D01*
X129141066Y-129540984D01*
X129120850Y-129607865D01*
X129069475Y-129652382D01*
X129011467Y-129679431D01*
X129011465Y-129679432D01*
X128825058Y-129809954D01*
X128664154Y-129970858D01*
X128533632Y-130157265D01*
X128533631Y-130157267D01*
X128437461Y-130363502D01*
X128437458Y-130363511D01*
X128378566Y-130583302D01*
X128378564Y-130583313D01*
X128358732Y-130809998D01*
X128358732Y-130810001D01*
X128378564Y-131036686D01*
X128378566Y-131036697D01*
X128437458Y-131256488D01*
X128437461Y-131256497D01*
X128533631Y-131462732D01*
X128533632Y-131462734D01*
X128664154Y-131649141D01*
X128825058Y-131810045D01*
X128849662Y-131827273D01*
X128893287Y-131881849D01*
X128900481Y-131951348D01*
X128868958Y-132013703D01*
X128808729Y-132049117D01*
X128791793Y-132052138D01*
X128756716Y-132055908D01*
X128621871Y-132106202D01*
X128621864Y-132106206D01*
X128506655Y-132192452D01*
X128506652Y-132192455D01*
X128420406Y-132307664D01*
X128420402Y-132307671D01*
X128370108Y-132442517D01*
X128363852Y-132500716D01*
X128363701Y-132502123D01*
X128363700Y-132502135D01*
X128363700Y-134197870D01*
X128363701Y-134197881D01*
X128368443Y-134241997D01*
X128356035Y-134310756D01*
X128332834Y-134342929D01*
X126152584Y-136523181D01*
X126091261Y-136556666D01*
X126064903Y-136559500D01*
X121921532Y-136559500D01*
X121854493Y-136539815D01*
X121833851Y-136523181D01*
X120958225Y-135647555D01*
X120958223Y-135647552D01*
X120839352Y-135528681D01*
X120839351Y-135528680D01*
X120752539Y-135478560D01*
X120752539Y-135478559D01*
X120752535Y-135478558D01*
X120702420Y-135449623D01*
X120549692Y-135408699D01*
X120391578Y-135408699D01*
X120383982Y-135408699D01*
X120383966Y-135408700D01*
X118712512Y-135408700D01*
X118645473Y-135389015D01*
X118599718Y-135336211D01*
X118589774Y-135267053D01*
X118603636Y-135227006D01*
X118603280Y-135226840D01*
X118604887Y-135223393D01*
X118605130Y-135222692D01*
X118605559Y-135221946D01*
X118605568Y-135221934D01*
X118701739Y-135015696D01*
X118760635Y-134795892D01*
X118780468Y-134569200D01*
X118760635Y-134342508D01*
X118701739Y-134122704D01*
X118605568Y-133916466D01*
X118475047Y-133730061D01*
X118475045Y-133730058D01*
X118314141Y-133569154D01*
X118127734Y-133438632D01*
X118127728Y-133438629D01*
X118069725Y-133411582D01*
X118017285Y-133365410D01*
X117998133Y-133298217D01*
X118018348Y-133231335D01*
X118069725Y-133186818D01*
X118127734Y-133159768D01*
X118314139Y-133029247D01*
X118475047Y-132868339D01*
X118605568Y-132681934D01*
X118701739Y-132475696D01*
X118760635Y-132255892D01*
X118778692Y-132049500D01*
X118780468Y-132029201D01*
X118780468Y-132029198D01*
X118769230Y-131900750D01*
X118760635Y-131802508D01*
X118701739Y-131582704D01*
X118605568Y-131376466D01*
X118475047Y-131190061D01*
X118475045Y-131190058D01*
X118314141Y-131029154D01*
X118127734Y-130898632D01*
X118127728Y-130898629D01*
X118069725Y-130871582D01*
X118017285Y-130825410D01*
X117998133Y-130758217D01*
X118018348Y-130691335D01*
X118069725Y-130646818D01*
X118127734Y-130619768D01*
X118314139Y-130489247D01*
X118475047Y-130328339D01*
X118605568Y-130141934D01*
X118701739Y-129935696D01*
X118760635Y-129715892D01*
X118780468Y-129489200D01*
X118777995Y-129460939D01*
X118769230Y-129360750D01*
X118760635Y-129262508D01*
X118701739Y-129042704D01*
X118605568Y-128836466D01*
X118475047Y-128650061D01*
X118475045Y-128650058D01*
X118314141Y-128489154D01*
X118127734Y-128358632D01*
X118127728Y-128358629D01*
X118069725Y-128331582D01*
X118017285Y-128285410D01*
X117998133Y-128218217D01*
X118018348Y-128151335D01*
X118069725Y-128106818D01*
X118127734Y-128079768D01*
X118314139Y-127949247D01*
X118475047Y-127788339D01*
X118605568Y-127601934D01*
X118608924Y-127594736D01*
X118655093Y-127542297D01*
X118722286Y-127523142D01*
X118789168Y-127543355D01*
X118820573Y-127572826D01*
X118905855Y-127686747D01*
X119021064Y-127772993D01*
X119021071Y-127772997D01*
X119155917Y-127823291D01*
X119155916Y-127823291D01*
X119157963Y-127823511D01*
X119215527Y-127829700D01*
X120611272Y-127829699D01*
X120670883Y-127823291D01*
X120805731Y-127772996D01*
X120920946Y-127686746D01*
X120997254Y-127584810D01*
X121053187Y-127542941D01*
X121122879Y-127537957D01*
X121180058Y-127567486D01*
X121185916Y-127572826D01*
X121217098Y-127601252D01*
X121398381Y-127713498D01*
X121597202Y-127790521D01*
X121806790Y-127829700D01*
X121806792Y-127829700D01*
X122020008Y-127829700D01*
X122020010Y-127829700D01*
X122229598Y-127790521D01*
X122428419Y-127713498D01*
X122609702Y-127601252D01*
X122767272Y-127457607D01*
X122814446Y-127395138D01*
X122870555Y-127353503D01*
X122940267Y-127348812D01*
X123001449Y-127382554D01*
X123012353Y-127395138D01*
X123059528Y-127457607D01*
X123217098Y-127601252D01*
X123398381Y-127713498D01*
X123597202Y-127790521D01*
X123806790Y-127829700D01*
X123806792Y-127829700D01*
X124020008Y-127829700D01*
X124020010Y-127829700D01*
X124229598Y-127790521D01*
X124428419Y-127713498D01*
X124609702Y-127601252D01*
X124767272Y-127457607D01*
X124895766Y-127287455D01*
X124951320Y-127175886D01*
X124990803Y-127096594D01*
X124990803Y-127096593D01*
X124990805Y-127096589D01*
X125049156Y-126891510D01*
X125068829Y-126679200D01*
X125049156Y-126466890D01*
X124990805Y-126261811D01*
X124990803Y-126261806D01*
X124990803Y-126261805D01*
X124895767Y-126070946D01*
X124822284Y-125973640D01*
X124767272Y-125900793D01*
X124624717Y-125770836D01*
X124588436Y-125711126D01*
X124590197Y-125641278D01*
X124624718Y-125587563D01*
X124660239Y-125555181D01*
X124767272Y-125457607D01*
X124895766Y-125287455D01*
X124925503Y-125227734D01*
X124990803Y-125096594D01*
X124990803Y-125096593D01*
X124990805Y-125096589D01*
X125049156Y-124891510D01*
X125068829Y-124679200D01*
X125049156Y-124466890D01*
X124990805Y-124261811D01*
X124990803Y-124261806D01*
X124990803Y-124261805D01*
X124895767Y-124070946D01*
X124767272Y-123900793D01*
X124609702Y-123757148D01*
X124428419Y-123644902D01*
X124428417Y-123644901D01*
X124235230Y-123570061D01*
X124229598Y-123567879D01*
X124020010Y-123528700D01*
X123806790Y-123528700D01*
X123597202Y-123567879D01*
X123597199Y-123567879D01*
X123597199Y-123567880D01*
X123398382Y-123644901D01*
X123398380Y-123644902D01*
X123217099Y-123757147D01*
X123059526Y-123900794D01*
X123012353Y-123963261D01*
X122956244Y-124004896D01*
X122886532Y-124009587D01*
X122825350Y-123975844D01*
X122814447Y-123963261D01*
X122767273Y-123900794D01*
X122767272Y-123900793D01*
X122609702Y-123757148D01*
X122428419Y-123644902D01*
X122428417Y-123644901D01*
X122235230Y-123570061D01*
X122229598Y-123567879D01*
X122020010Y-123528700D01*
X121806790Y-123528700D01*
X121597202Y-123567879D01*
X121597199Y-123567879D01*
X121597199Y-123567880D01*
X121398382Y-123644901D01*
X121398380Y-123644902D01*
X121217099Y-123757147D01*
X121059526Y-123900794D01*
X121012353Y-123963261D01*
X120956244Y-124004896D01*
X120886532Y-124009587D01*
X120825350Y-123975844D01*
X120814447Y-123963261D01*
X120767273Y-123900794D01*
X120767272Y-123900793D01*
X120609702Y-123757148D01*
X120428419Y-123644902D01*
X120428417Y-123644901D01*
X120235230Y-123570061D01*
X120229598Y-123567879D01*
X120020010Y-123528700D01*
X119806790Y-123528700D01*
X119597202Y-123567879D01*
X119597199Y-123567879D01*
X119597199Y-123567880D01*
X119398382Y-123644901D01*
X119398380Y-123644902D01*
X119217099Y-123757147D01*
X119059526Y-123900794D01*
X118936209Y-124064090D01*
X118880100Y-124105725D01*
X118810388Y-124110416D01*
X118749206Y-124076673D01*
X118717481Y-124021454D01*
X118701742Y-123962713D01*
X118701738Y-123962702D01*
X118672869Y-123900793D01*
X118605568Y-123756466D01*
X118475047Y-123570061D01*
X118475045Y-123570058D01*
X118314141Y-123409154D01*
X118127734Y-123278632D01*
X118127728Y-123278629D01*
X118069725Y-123251582D01*
X118017285Y-123205410D01*
X117998133Y-123138217D01*
X118018348Y-123071335D01*
X118069725Y-123026818D01*
X118127734Y-122999768D01*
X118314139Y-122869247D01*
X118475047Y-122708339D01*
X118605568Y-122521934D01*
X118701739Y-122315696D01*
X118760635Y-122095892D01*
X118780468Y-121869200D01*
X118760635Y-121642508D01*
X118701739Y-121422704D01*
X118605568Y-121216466D01*
X118475047Y-121030061D01*
X118475045Y-121030058D01*
X118314141Y-120869154D01*
X118127734Y-120738632D01*
X118127728Y-120738629D01*
X118069725Y-120711582D01*
X118017285Y-120665410D01*
X117998133Y-120598217D01*
X118018348Y-120531335D01*
X118069725Y-120486818D01*
X118127734Y-120459768D01*
X118314139Y-120329247D01*
X118475047Y-120168339D01*
X118605568Y-119981934D01*
X118701739Y-119775696D01*
X118760635Y-119555892D01*
X118780468Y-119329200D01*
X118760635Y-119102508D01*
X118701739Y-118882704D01*
X118605568Y-118676466D01*
X118475047Y-118490061D01*
X118475045Y-118490058D01*
X118314141Y-118329154D01*
X118127734Y-118198632D01*
X118127728Y-118198629D01*
X118069725Y-118171582D01*
X118017285Y-118125410D01*
X117998133Y-118058217D01*
X118018348Y-117991335D01*
X118069725Y-117946818D01*
X118127734Y-117919768D01*
X118314139Y-117789247D01*
X118475047Y-117628339D01*
X118605568Y-117441934D01*
X118701739Y-117235696D01*
X118760635Y-117015892D01*
X118780468Y-116789200D01*
X118777995Y-116760939D01*
X118774801Y-116724430D01*
X118760635Y-116562508D01*
X118701739Y-116342704D01*
X118701736Y-116342698D01*
X118699889Y-116337623D01*
X118702156Y-116336797D01*
X118693210Y-116277797D01*
X118721746Y-116214020D01*
X118780232Y-116175795D01*
X118816080Y-116170500D01*
X131307531Y-116170500D01*
X131307547Y-116170501D01*
G37*
%TD.AperFunction*%
%TD*%
M02*
